<svg id="Layer_1" data-name="Layer 1" xmlns="http://www.w3.org/2000/svg" viewBox="0 0 350 349"><defs><style>.cls-1{fill:#f0f1f1;}.cls-2{fill:#424243;}.cls-3{fill:#0063ff;}.cls-4{fill:#9ed1e3;}.cls-5{opacity:0.48;}.cls-6{fill:#ffbe19;}.cls-7{opacity:0.7;}.cls-8{fill:#e9b13d;}.cls-9{opacity:0.18;}.cls-10{fill:#272525;}.cls-11{fill:none;}</style></defs><title>about4</title><rect class="cls-1" x="76.76" y="125.86" width="162.01" height="112.64"/><path class="cls-2" d="M237.77,239.14H82.31a59.61,59.61,0,0,0-6.27,0h-.28l2,2.26V128.76l-2,2.26H231.21a59.61,59.61,0,0,0,6.27,0h.29l-2-2.26V241.4a2,2,0,1,0,4,0V128.76a2.22,2.22,0,0,0-2-2.26H95.7c-6.55,0-13.11-.33-19.66,0h-.28a2.22,2.22,0,0,0-2,2.26V241.4a2.23,2.23,0,0,0,2,2.26H217.82c6.56,0,13.11.32,19.66,0h.29C240.33,243.66,240.42,239.14,237.77,239.14Z" transform="translate(1 -2.9)"/><rect class="cls-1" x="64.41" y="238.5" width="186.61" height="12.28"/><path class="cls-2" d="M65.4,253.68V241.4l-2,2.26h179c2.37,0,5,.43,7.31,0H250l-2-2.26v12.28a2,2,0,1,0,4,0V241.4a2.23,2.23,0,0,0-2-2.26H86.39c-7.5,0-15.1-.32-22.69,0h-.29a2.23,2.23,0,0,0-2,2.26v12.28a2,2,0,1,0,4,0Z" transform="translate(1 -2.9)"/><rect class="cls-3" x="186.63" y="163.87" width="37.23" height="74.63"/><path class="cls-2" d="M222.86,239.14H185.63l2,2.26V166.77l-2,2.26h37.23l-2-2.26V241.4a2,2,0,1,0,4,0V166.77a2.23,2.23,0,0,0-2-2.26H185.63a2.23,2.23,0,0,0-2,2.26V241.4a2.23,2.23,0,0,0,2,2.26h37.23C225.42,243.66,225.42,239.14,222.86,239.14Z" transform="translate(1 -2.9)"/><rect class="cls-4" x="94.32" y="163.87" width="73.88" height="35.11"/><path class="cls-2" d="M167.11,199.62H93.23l2,2.26V166.77l-2,2.26h73.88l-2-2.26v35.11a2,2,0,1,0,4,0V166.77a2.23,2.23,0,0,0-2-2.26H93.23a2.22,2.22,0,0,0-2,2.26v35.11a2.22,2.22,0,0,0,2,2.26h73.88C169.68,204.14,169.77,199.62,167.11,199.62Z" transform="translate(1 -2.9)"/><g class="cls-5"><path class="cls-2" d="M153.34,263.15H64.55A1.61,1.61,0,0,1,63,261.43h0a1.61,1.61,0,0,1,1.52-1.72h88.79a1.6,1.6,0,0,1,1.52,1.72h0A1.83,1.83,0,0,1,153.34,263.15Z" transform="translate(1 -2.9)"/></g><g class="cls-5"><path class="cls-2" d="M161.7,263.15h-2.19a1.6,1.6,0,0,1-1.51-1.72h0a1.6,1.6,0,0,1,1.51-1.72h2.19a1.61,1.61,0,0,1,1.52,1.72h0a1.61,1.61,0,0,1-1.52,1.72Z" transform="translate(1 -2.9)"/></g><g class="cls-5"><path class="cls-2" d="M236.25,272.2H149.83a1.79,1.79,0,0,1-1.62-1.83h0a1.79,1.79,0,0,1,1.62-1.83h86.42a1.79,1.79,0,0,1,1.61,1.83h0A1.79,1.79,0,0,1,236.25,272.2Z" transform="translate(1 -2.9)"/></g><g class="cls-5"><path class="cls-2" d="M246,272.2h-4a1.79,1.79,0,0,1-1.62-1.83h0a1.79,1.79,0,0,1,1.62-1.83h4a1.79,1.79,0,0,1,1.61,1.83h0A1.79,1.79,0,0,1,246,272.2Z" transform="translate(1 -2.9)"/></g><path class="cls-1" d="M89.43,129.4,97.6,73.08H119l-2.75,56.32s-.76,15.19-13.39,15.19S89.43,129.4,89.43,129.4Z" transform="translate(1 -2.9)"/><path class="cls-2" d="M91.43,129.94c2.37-16.47,4.74-32.84,7.12-49.32.38-2.37.66-4.74,1-7-.66.54-1.33,1.08-1.9,1.62h21.37l-2-2.26c-.67,13.57-1.33,27-2,40.59-.28,5.28-.47,10.45-.76,15.73v.1c0,.76,0,0-.09.54a20,20,0,0,1-1,4.1c-1.33,3.87-3.8,6.89-7.41,7.86-4.65,1.5-9.59-.65-12.25-5.28a18.88,18.88,0,0,1-1.8-5.17c-.1-.65-.19-1.18-.29-1.83.1.54,0,0,0-.22-.19-2.9-4.18-2.9-4,0,.38,7.44,4.37,14.76,10.92,16.8a14.41,14.41,0,0,0,14.34-3.33,19.89,19.89,0,0,0,5-10.45c.76-3.88.66-8.08.85-12.06.47-9.26.95-18.63,1.42-27.89.29-6.46.67-12.92,1-19.28a2.09,2.09,0,0,0-2-2.26H97.69a2,2,0,0,0-1.9,1.62c-2.37,16.47-4.74,32.84-7.12,49.32-.38,2.37-.66,4.74-1,7C87.15,131.67,91,132.85,91.43,129.94Z" transform="translate(1 -2.9)"/><path class="cls-1" d="M142.9,129.4V73h26.78V129.3s-.38,15.18-13.39,15.18S142.9,129.4,142.9,129.4Z" transform="translate(1 -2.9)"/><path class="cls-2" d="M145,129.4V73.08l-2,2.27h26.78l-2-2.27v41.46c0,5,.19,9.91,0,14.86v.76c-.1.64,0,0,0,.43a22.26,22.26,0,0,1-1.05,4.2,10.7,10.7,0,0,1-19.85,1.61,16.77,16.77,0,0,1-1.52-4.84,4.14,4.14,0,0,1-.37-2.16,2,2,0,1,0-4,0c.19,7.22,4.08,14.33,10.25,16.59a14.76,14.76,0,0,0,14.72-2.8,19.43,19.43,0,0,0,5.32-10.34c.76-3.88.48-8,.48-11.95V73a2.22,2.22,0,0,0-2-2.26H143A2.22,2.22,0,0,0,141,73V129.3A2,2,0,1,0,145,129.4Z" transform="translate(1 -2.9)"/><path class="cls-1" d="M196.46,129.4l-.76-56.32h22.12l5.42,56.32s-.57,12.93-11.78,15S196.65,134.79,196.46,129.4Z" transform="translate(1 -2.9)"/><path class="cls-2" d="M198.45,129.4c-.19-16.47-.47-32.95-.66-49.42,0-2.27-.1-4.63-.1-6.9l-2,2.27h22.12l-2-2.27c1.23,12.39,2.37,24.88,3.61,37.26.57,5.93,1.14,12,1.71,17.88,0,.43.09.75.09,1.18v.22c0,.65.1-.11-.09.75a15.81,15.81,0,0,1-4.09,8.73c-3.61,3.55-9.87,4.52-13.86,1.18-2.95-2.48-4.56-6.89-4.75-10.88-.19-2.9-4.18-2.9-4,0,.57,9.91,7.12,18.53,16.34,17.34,7.5-1,14.15-8.18,14.34-17,.09-4.09-.76-8.4-1.14-12.49l-2.57-26.49c-.57-5.93-1.14-11.74-1.71-17.67a2.23,2.23,0,0,0-2-2.26H195.6a2.23,2.23,0,0,0-2,2.26c.19,16.48.47,33,.66,49.43,0,2.26.1,4.63.1,6.89A2,2,0,1,0,198.45,129.4Z" transform="translate(1 -2.9)"/><path class="cls-3" d="M249.92,129.4,239.57,73.08H217.82l5.42,56.32s0,15.19,13.39,15.19S249.92,129.4,249.92,129.4Z" transform="translate(1 -2.9)"/><path class="cls-2" d="M251.82,128.76Q247.26,104,242.7,79.44c-.47-2.37-.85-4.63-1.33-7a2,2,0,0,0-1.9-1.62H217.73a2.23,2.23,0,0,0-2,2.26c1.43,15,2.85,30.05,4.28,45,.38,4.2.76,8.5,1.14,12.7A21.34,21.34,0,0,0,224.66,141a14.17,14.17,0,0,0,13.11,5.7c8.16-.64,14-8.18,14-17.34a2,2,0,1,0-4,0,15,15,0,0,1-1.14,5.82,10.39,10.39,0,0,1-8.35,7c-4.28.54-8.84-.75-11.21-5.06a19.35,19.35,0,0,1-2-7.32c-.95-13-2.47-26-3.71-38.88-.57-5.92-1.14-11.85-1.71-17.88l-2,2.27h21.74c-.66-.54-1.32-1.08-1.89-1.62q4.54,24.72,9.11,49.32c.48,2.37.86,4.63,1.33,7C248.5,132.85,252.29,131.67,251.82,128.76Z" transform="translate(1 -2.9)"/><path class="cls-3" d="M119,73H142.9V129.3s-1.43,15-13.39,15.18-13.39-15.18-13.39-15.18Z" transform="translate(1 -2.9)"/><path class="cls-2" d="M119,75.24H142.9l-2-2.26v56.21c0,.54.19-.65,0,.21-1,5.82-3.8,11.42-9.4,12.6-6.46,1.3-11.21-3.44-12.82-10.12a23.32,23.32,0,0,1-.47-2.58c-.1-.54,0,.54,0-.11.09-1.19.09-2.48.19-3.66.28-5.92.56-11.74.85-17.66L121,73c.19-2.91-3.89-2.91-4,0-.57,10.55-1,21.21-1.61,31.76-.29,6.47-.67,12.93-1,19.5a34.25,34.25,0,0,0,.09,7.64c1.33,6.57,5,12.92,11.11,14.54,7.22,1.94,14.72-2.37,17.57-10.12a22.57,22.57,0,0,0,1.71-8.73V110.88c0-12.27.19-24.66,0-36.93v-.76a2.23,2.23,0,0,0-2-2.26H119C116.4,70.72,116.4,75.24,119,75.24Z" transform="translate(1 -2.9)"/><path class="cls-3" d="M169.68,73V129.3s.57,15.4,13.39,15.18,13.39-15.18,13.39-15.18L195.7,73Z" transform="translate(1 -2.9)"/><path class="cls-2" d="M167.68,73v51.69a40.45,40.45,0,0,0,.38,7.53c1.14,6.68,5.13,12.71,11.3,14.11,7.6,1.72,14.82-2.26,17.76-10.44a22.77,22.77,0,0,0,1.33-8.4c-.09-5.5-.19-11.1-.19-16.59-.19-12.38-.19-24.77-.57-37.15V73a2.08,2.08,0,0,0-2-2.26H169.77c-2.56,0-2.56,4.52,0,4.52H195.7l-2-2.26c.19,10,.29,20.13.48,30.15.09,6.46.19,13,.28,19.49a47.07,47.07,0,0,1,0,7.32c0,.54.1-.54,0,.11,0,.22-.09.43-.09.65-.1.54-.19,1.07-.29,1.5a16.28,16.28,0,0,1-1.33,3.88,10.48,10.48,0,0,1-7,5.71c-6.55,1.51-11.87-2.59-13.48-9.69-.19-1-.38-2-.47-3V72.87A2,2,0,1,0,167.68,73Z" transform="translate(1 -2.9)"/><path class="cls-3" d="M97.69,73c-1.14,8.07-2.37,16.15-3.51,24.23-1.52,10.23-3,20.46-4.46,30.69-.57,4-1.24,7.54-3.42,10.77a12.51,12.51,0,0,1-10.16,5.7c-12.35.43-12.44-15.61-12.44-15.61L76.9,72.87H97.69Z" transform="translate(1 -2.9)"/><path class="cls-2" d="M95.7,72.44c-1.43,9.8-2.85,19.71-4.27,29.5-.76,5.17-1.52,10.23-2.28,15.4-.67,4.63-1.14,9.48-2.09,14-.86,4-2.66,7.65-6.08,9.59a10.8,10.8,0,0,1-8.74.86c-3.61-1.4-5.41-5.28-6.27-9.26-.28-1.4-.19-1.94-.38-3.23-.09-.54-.09.43-.09.32a1.61,1.61,0,0,1,.19-.65c.66-2.58,1.23-5.16,1.8-7.64,2.19-9.26,4.37-18.52,6.56-27.68,1.52-6.57,3.13-13.14,4.65-19.7-.66.53-1.33,1.07-1.9,1.61H97.6c2.56,0,2.56-4.52,0-4.52H76.8a2.08,2.08,0,0,0-1.9,1.61c-3.8,15.94-7.5,31.88-11.3,47.82-.57,2.58-1.33,5.06-1.8,7.64a14.76,14.76,0,0,0,.47,6.14c1,4.63,3.32,9.15,7.31,11.31a14.12,14.12,0,0,0,17.67-4.42c2.85-3.77,3.7-8.5,4.37-13.24.85-6.14,1.8-12.28,2.65-18.42C96,97.64,97.79,85.68,99.5,73.84,100,70.82,96.17,69.53,95.7,72.44Z" transform="translate(1 -2.9)"/><ellipse class="cls-6" cx="277.13" cy="197.15" rx="28.49" ry="32.31"/><path class="cls-2" d="M302.63,200.05c0,16.69-11.87,30.15-26.5,30.26s-26.59-13.46-26.68-30.05,11.87-30.15,26.49-30.26a30,30,0,0,1,5.32.54c12.34,2.91,21.18,15.19,21.37,29.51a2,2,0,1,0,4,0c0-19.06-13.67-34.57-30.48-34.57S245.65,181,245.65,200.05s13.67,34.57,30.48,34.57a28.22,28.22,0,0,0,6-.65c14.15-3.12,24.41-17.77,24.5-33.92A2,2,0,1,0,302.63,200.05Z" transform="translate(1 -2.9)"/><path class="cls-2" d="M265.31,208.56c3.13,4.09,6.26,8.18,9.4,12.16l-.57-1.61v35a2,2,0,1,0,4,0V220.62a7.2,7.2,0,0,0-.19-2.48,18.14,18.14,0,0,0-2.28-3.12l-7.51-9.8C266.44,203.17,263.69,206.4,265.31,208.56Z" transform="translate(1 -2.9)"/><path class="cls-2" d="M277.56,224.39l12.53-11.31c2-1.83-.85-5-2.85-3.23l-12.53,11.3C272.71,223,275.56,226.22,277.56,224.39Z" transform="translate(1 -2.9)"/><ellipse class="cls-6" cx="313.69" cy="223.96" rx="24.12" ry="27.35"/><path class="cls-2" d="M334.82,226.86c0,13.89-9.88,25.2-22.13,25.2s-22.22-11.2-22.22-25.09,9.88-25.2,22.13-25.2,22.22,11.2,22.22,25.09a2,2,0,1,0,4,0c0-16.37-11.78-29.61-26.21-29.5s-26.12,13.35-26,29.72,11.77,29.61,26.21,29.5a24.9,24.9,0,0,0,4.84-.53c12.25-2.59,21.08-15.19,21.18-29.08C338.81,224,334.82,224,334.82,226.86Z" transform="translate(1 -2.9)"/><path class="cls-2" d="M303.29,234.29l8,10.34L310.7,243v29.61a2,2,0,1,0,4,0V244.31a5.4,5.4,0,0,0-.29-2.48,11.73,11.73,0,0,0-1.9-2.48c-2.09-2.8-4.27-5.6-6.36-8.29-1.71-2.15-4.46,1.08-2.85,3.23Z" transform="translate(1 -2.9)"/><path class="cls-2" d="M314.12,247.75c3.51-3.23,7.12-6.35,10.63-9.58,2-1.83-.85-4.95-2.85-3.23-3.51,3.23-7.12,6.35-10.63,9.58C309.27,246.35,312.12,249.58,314.12,247.75Z" transform="translate(1 -2.9)"/><ellipse class="cls-6" cx="50.07" cy="203.82" rx="28.49" ry="32.31"/><path class="cls-2" d="M75.57,206.72c-.1,12.6-7,23.91-17.48,28.33-10.63,4.2-22.41.64-29.63-9.16-9.3-12.81-7.69-31.87,3.61-42.43s28.11-8.72,37.42,4.1a32.87,32.87,0,0,1,6.08,19.16,2,2,0,1,0,4,0c0-19.16-13.67-34.56-30.48-34.56s-30.58,15.4-30.58,34.56S32.17,241.29,49,241.29a27.66,27.66,0,0,0,6-.64c14.15-3.13,24.4-17.77,24.5-33.93A2,2,0,1,0,75.57,206.72Z" transform="translate(1 -2.9)"/><path class="cls-2" d="M38.25,215.23c3.13,4.09,6.26,8.19,9.4,12.17l-.57-1.61v35a2,2,0,1,0,4,0V227.29a7.16,7.16,0,0,0-.19-2.47,18.22,18.22,0,0,0-2.28-3.13l-7.51-9.8c-1.71-2-4.55,1.19-2.84,3.34Z" transform="translate(1 -2.9)"/><path class="cls-2" d="M50.4,231.06l12.54-11.31c2-1.83-.86-4.95-2.85-3.23L47.55,227.83C45.65,229.66,48.41,232.89,50.4,231.06Z" transform="translate(1 -2.9)"/><rect class="cls-1" x="192.04" y="182.18" width="26.4" height="9.48"/><path class="cls-2" d="M217.44,193.48H191l1.05,1.18v-9.47L191,186.37h26.4l-1-1.18v9.47a1.05,1.05,0,1,0,2.09,0v-9.47a1.14,1.14,0,0,0-1.05-1.19H191a1.13,1.13,0,0,0-1,1.19v9.47a1.13,1.13,0,0,0,1,1.19h26.4C218.77,195.74,218.77,193.48,217.44,193.48Z" transform="translate(1 -2.9)"/><path class="cls-2" d="M203.58,172.37c-4.37,4-8.83,8-13.2,11.85a1.28,1.28,0,0,0,0,1.61.81.81,0,0,0,.66.33h26.4a1.16,1.16,0,0,0,.67-1.94c-4.37-4-8.83-8-13.2-11.85-.95-.86-2.38.65-1.43,1.62,4.37,4,8.83,8,13.2,11.84.19-.64.48-1.29.67-1.94H191c.19.65.47,1.3.66,1.94,4.37-4,8.83-8,13.2-11.84C206,173.13,204.53,171.51,203.58,172.37Z" transform="translate(1 -2.9)"/><g class="cls-7"><path class="cls-8" d="M145.27,181.09v.33a2,2,0,0,1-1.52,2.26h-.38V193.8h2.56V191a.59.59,0,0,1,.57-.64c.38,0,.57.21.57.64h0v2.8h2.57v-4.2a.59.59,0,0,1,.57-.64c.38,0,.57.21.57.64h0v4.2h2.37V183.68H150a.59.59,0,0,1-.57-.65c0-.43.19-.64.57-.64h3.61c.66-.11.76-.76.85-1.3-.19-3.66-7.31-3.23-9.68-3.33H142C143.18,178.4,144.8,179.37,145.27,181.09Z" transform="translate(1 -2.9)"/><path class="cls-2" d="M155.24,181.31a.6.6,0,0,0-.28-.65h-.19v.54a.67.67,0,0,1-.1.43h0c.19,0,.48,0,.57-.32Z" transform="translate(1 -2.9)"/><path class="cls-2" d="M140.05,177.43a25,25,0,0,1,5.6,0c1.42.11,2.94.22,4.37.43a5.63,5.63,0,0,1,3.61,1.08,2.67,2.67,0,0,1,1,1.83.49.49,0,0,1,.48.54h0v0c-.19-4-4.37-3.88-7-4.2a41,41,0,0,0-10.26.11h0A7.76,7.76,0,0,1,140.05,177.43Z" transform="translate(1 -2.9)"/><path class="cls-2" d="M154.67,181.74c-.19.86-.28,1.29-1,1.29a.61.61,0,0,1-.29.54v.11l.48-.54v.43c.85-.21,1.14-1,1.33-2C155.15,181.74,154.86,181.74,154.67,181.74Z" transform="translate(1 -2.9)"/><path class="cls-2" d="M153.44,193.69v.54h-2.85a.59.59,0,0,1-.57.65c-.38,0-.57-.22-.57-.65h-2.57a.59.59,0,0,1-.57.65c-.38,0-.57-.22-.57-.65h-2.56c0,.33-.19.54-.38.54h10.45a.45.45,0,0,0,.47-.43h0V183.46c-.19,0-.28.11-.47.11Z" transform="translate(1 -2.9)"/><path class="cls-2" d="M153.44,183.68c.19,0,.28-.11.47-.11v-.43A1.18,1.18,0,0,0,153.44,183.68Z" transform="translate(1 -2.9)"/><path class="cls-2" d="M154.2,181.2h0c-.1.54-.19,1.19-.86,1.29h-.09a.72.72,0,0,1,.38.54c.76-.1.76-.54,1-1.29C154.48,181.74,154.29,181.53,154.2,181.2Z" transform="translate(1 -2.9)"/><path class="cls-2" d="M152.87,183.68V193.8h.47V183.57c-.09,0-.09.11-.19.11Z" transform="translate(1 -2.9)"/><path class="cls-2" d="M152.87,194.34l.47-.54h-.47Z" transform="translate(1 -2.9)"/><path class="cls-2" d="M150.49,193.69v.54h2.38v-.54Z" transform="translate(1 -2.9)"/><path class="cls-2" d="M153.44,194.34v-.54l-.48.54Z" transform="translate(1 -2.9)"/><path class="cls-2" d="M153.63,178.83a7.51,7.51,0,0,0-3.61-1.07c-1.43-.11-3-.33-4.37-.43a23.84,23.84,0,0,0-5.6,0l1.14.32c.19,0,.28.11.47.21h2.85c2.37.11,9.5-.32,9.69,3.34v-.11c.09-.21.28-.43.47-.43A2.67,2.67,0,0,0,153.63,178.83Z" transform="translate(1 -2.9)"/><path class="cls-2" d="M154.29,181.09v.11h0c0,.33.19.43.38.54h0c0-.21.1-.32.1-.43v-.54C154.48,180.66,154.29,180.77,154.29,181.09Z" transform="translate(1 -2.9)"/><path class="cls-2" d="M143.37,193.69v.54h2.56v-.54Z" transform="translate(1 -2.9)"/><path class="cls-2" d="M146.88,193.69v.54h2.57v-.54Z" transform="translate(1 -2.9)"/><path class="cls-1" d="M137,178.4a8.51,8.51,0,0,0-3.8,1.51c-.19.22-.48.11-.67.32l-.56.65a.56.56,0,0,0-.19.43.94.94,0,0,0,.28.86c.47.32,1.8.11,1.8,1V193.8h6.94c-1.05-5.17-2.09-10.23-3-15.4A.91.91,0,0,0,137,178.4Z" transform="translate(1 -2.9)"/><path class="cls-1" d="M141.09,190c.19,1,.86,2.59.76,3.56h.57V182.93c0-.33.19-.54.38-.54h.1c.66,0,1.42.21,1.42-1.19-.66-2-3.42-2.8-5.6-3,.47,2.15.85,4.3,1.33,6.46C140.43,186.59,140.71,188.31,141.09,190Z" transform="translate(1 -2.9)"/><path class="cls-1" d="M137.77,178.29c1,5.17,2.09,10.24,3,15.4h.47c-.47-2.47-2.56-12.81-3-15.4Z" transform="translate(1 -2.9)"/><path class="cls-1" d="M141.85,193.69h0c.1-1.07-.57-2.69-.76-3.66-.38-1.72-.66-3.55-1-5.27-.48-2.16-.86-4.31-1.33-6.47h-.48c.48,2.59,2.57,12.93,3,15.4Z" transform="translate(1 -2.9)"/><path class="cls-2" d="M141,194.45v-.11h-7.6V183.68h-.48v10.66c0,.32.19.54.38.54h8.17A.46.46,0,0,1,141,194.45Z" transform="translate(1 -2.9)"/><path class="cls-2" d="M132.83,183v.54h.47Z" transform="translate(1 -2.9)"/><path class="cls-2" d="M132.54,183a1.32,1.32,0,0,1-1.23-1.29h0a.68.68,0,0,1,.1-.43,4.69,4.69,0,0,1,1.61-1.83,9.4,9.4,0,0,1,4.65-1.62c0-.21.1-.53.38-.53a9.36,9.36,0,0,0-3.8.86c-1.23.54-3.51,1.83-3.32,3.77.1,1.4,1,1.72,2.09,1.83v-.54A1.45,1.45,0,0,0,132.54,183Z" transform="translate(1 -2.9)"/><path class="cls-2" d="M132.83,183l.47.54V183Z" transform="translate(1 -2.9)"/><path class="cls-2" d="M143.28,179.37a4.1,4.1,0,0,1,1.33,1.29.56.56,0,0,1,.66.33v0c-.47-1.62-2.18-2.59-3.61-3.23-.47,0-1,.1-1.52.1A14.52,14.52,0,0,1,143.28,179.37Z" transform="translate(1 -2.9)"/><path class="cls-2" d="M144.8,181.74a1.31,1.31,0,0,1-1.14,1.29h-.38v.54a1.87,1.87,0,0,0,1.9-2.26C145.27,181.63,145.08,181.74,144.8,181.74Z" transform="translate(1 -2.9)"/><path class="cls-2" d="M142.9,183.68h.47v-.54C143.18,183.25,143.09,183.46,142.9,183.68Z" transform="translate(1 -2.9)"/><path class="cls-2" d="M142.9,183.68V193.8h.47V183.68Z" transform="translate(1 -2.9)"/><path class="cls-2" d="M142.9,183v.54l.47-.54Z" transform="translate(1 -2.9)"/><path class="cls-2" d="M144.8,181.2v.54a.44.44,0,0,0,.47-.43v-.11a.48.48,0,0,0-.47-.54h-.19l.09.11A.68.68,0,0,1,144.8,181.2Z" transform="translate(1 -2.9)"/><path class="cls-2" d="M138.62,177.54" transform="translate(1 -2.9)"/><path class="cls-2" d="M137.67,177.76h.48a.74.74,0,0,0,.47-.11h0a11.93,11.93,0,0,1,1.24-.22h.19a15,15,0,0,0-2.09-.21c-.19,0-.38.21-.29.54Z" transform="translate(1 -2.9)"/><path class="cls-2" d="M143.37,194.34H141v.11c.09.21.28.43.47.43h1.43a.54.54,0,0,0,.47-.54Z" transform="translate(1 -2.9)"/><path class="cls-2" d="M140.14,178a7.12,7.12,0,0,1,1.52-.11c-.19-.1-.28-.1-.47-.21l-1.14-.32h-.19a11.08,11.08,0,0,0-1.24.21v.11C139.19,177.76,139.67,177.86,140.14,178Z" transform="translate(1 -2.9)"/><path class="cls-2" d="M142.9,193.69v.54h.47v-.54Z" transform="translate(1 -2.9)"/><path class="cls-2" d="M138.62,177.76v-.11h0v.11h0Z" transform="translate(1 -2.9)"/><path class="cls-2" d="M138.53,177.65a.77.77,0,0,0-.48.11h.38a.1.1,0,0,0,.1-.11Z" transform="translate(1 -2.9)"/><path class="cls-2" d="M133.87,193.69v.54H141c0-.21-.1-.32-.1-.54Z" transform="translate(1 -2.9)"/><path class="cls-2" d="M133.3,194.34h.48l-.48-.54Z" transform="translate(1 -2.9)"/><path class="cls-2" d="M133.3,193.69l.48.54v-.54Z" transform="translate(1 -2.9)"/><path class="cls-2" d="M133.87,183c0-1-1.42-.32-1.71-1.07a1.1,1.1,0,0,1,.1-1.08,8.6,8.6,0,0,1,1-1,8.51,8.51,0,0,1,3.8-1.51,1.85,1.85,0,0,0,.76-.11c0-.1-.1-.32-.1-.43v-.1a9.29,9.29,0,0,0-4.65,1.61,4.69,4.69,0,0,0-1.61,1.83,1.37,1.37,0,0,0,.75,1.73c.1,0,.29.1.38.1h.86v10.66h.47Z" transform="translate(1 -2.9)"/><path class="cls-2" d="M144.32,181.2h0v.11c.1.22.29.43.48.43v-.54c0-.11-.1-.21-.1-.43l-.09-.11A.62.62,0,0,0,144.32,181.2Z" transform="translate(1 -2.9)"/><path class="cls-2" d="M141.85,193.69h0C141.76,194.23,142,193.91,141.85,193.69Z" transform="translate(1 -2.9)"/><path class="cls-2" d="M144.32,181.31h0c0-.43.1-.54.29-.65a4.1,4.1,0,0,0-1.33-1.29,10.73,10.73,0,0,0-3.14-1.4,6.35,6.35,0,0,0-1.42.22v.1C140.9,178.51,143.66,179.26,144.32,181.31Z" transform="translate(1 -2.9)"/><path class="cls-2" d="M142.9,183h.85a1.31,1.31,0,0,0,1.14-1.29c-.19,0-.38-.21-.47-.43h0c0,1.4-.76,1.18-1.43,1.18a.46.46,0,0,0-.47.44h0v10.76H143L142.9,183Z" transform="translate(1 -2.9)"/><path class="cls-2" d="M140.81,193.69c0,.22.09.33.09.54h.48a1.06,1.06,0,0,0-.1-.54Z" transform="translate(1 -2.9)"/><path class="cls-2" d="M137.77,178.29h.47a1.58,1.58,0,0,1-.09-.64h-.48v.11C137.67,178,137.67,178.19,137.77,178.29Z" transform="translate(1 -2.9)"/><path class="cls-2" d="M138.62,177.76c0,.1.1.32.1.43.47-.11.95-.11,1.42-.22A7.13,7.13,0,0,0,138.62,177.76Z" transform="translate(1 -2.9)"/><path class="cls-2" d="M138.53,177.76c-.1.21-.19.32-.29.53a.84.84,0,0,0,.48-.1.87.87,0,0,0-.19-.43Z" transform="translate(1 -2.9)"/><path class="cls-2" d="M138.72,178.29v-.1a.84.84,0,0,0-.48.1c.1-.21.19-.32.29-.53h-.38a1.58,1.58,0,0,0,.09.64A.65.65,0,0,1,138.72,178.29Z" transform="translate(1 -2.9)"/><path class="cls-2" d="M141.85,193.69c.1.22-.09.54,0,0h-.57a1.06,1.06,0,0,1,.1.54h1v-.54Z" transform="translate(1 -2.9)"/><path class="cls-2" d="M142.52,193.69h-.1v.54l.48-.54Z" transform="translate(1 -2.9)"/><path class="cls-2" d="M142.42,194.34h.48v-.54A1.27,1.27,0,0,0,142.42,194.34Z" transform="translate(1 -2.9)"/><path class="cls-2" d="M149.83,182.49a.59.59,0,0,0-.57.65c0,.43.19.65.57.65H153v-.54h0a.58.58,0,0,1,.38-.54h-.09A18.94,18.94,0,0,0,149.83,182.49Z" transform="translate(1 -2.9)"/><path class="cls-2" d="M153.44,183.57a.6.6,0,0,0,.28-.54h-.28Z" transform="translate(1 -2.9)"/><path class="cls-2" d="M153.25,182.49a.58.58,0,0,0-.38.54h0v.54h.28c.1,0,.19,0,.19-.11V183h.29A.72.72,0,0,0,153.25,182.49Z" transform="translate(1 -2.9)"/><path class="cls-2" d="M145.93,191v2.8h.95V191a.48.48,0,1,0-.95,0Z" transform="translate(1 -2.9)"/><path class="cls-2" d="M145.93,194.34a.59.59,0,0,0,.57.65c.38,0,.57-.22.57-.65Z" transform="translate(1 -2.9)"/><path class="cls-2" d="M146.41,193.69h-.48v.54h.48Z" transform="translate(1 -2.9)"/><path class="cls-2" d="M146.79,193.69h-.38v.54h.47v-.54Z" transform="translate(1 -2.9)"/><path class="cls-2" d="M149.54,189.49v4.2h1v-4.2a.48.48,0,1,0-1,0Z" transform="translate(1 -2.9)"/><path class="cls-2" d="M149.54,194.34a.59.59,0,0,0,.57.65c.38,0,.57-.22.57-.65Z" transform="translate(1 -2.9)"/><path class="cls-2" d="M150,193.69h-.48v.54H150Z" transform="translate(1 -2.9)"/><path class="cls-2" d="M150,193.69v.54h.47v-.54Z" transform="translate(1 -2.9)"/></g><g class="cls-7"><path class="cls-8" d="M128.08,194.34a2.94,2.94,0,0,0,2.09-.54c.29-.75.57-1.51.86-2.37-.29-.43-.48-.86-.76-1.29a4.35,4.35,0,0,0-1.05-.86,20.49,20.49,0,0,0-4.08-2.48,19.88,19.88,0,0,0-4.85-1.61,8.59,8.59,0,0,1,1.9,3.34.5.5,0,0,1-1,.32,8.23,8.23,0,0,0-2.56-3.77l-.19-.22c-1.14-.1-2.28-.21-3.42-.21h-.28a8.72,8.72,0,0,1,2.37,3.77c.19.64-.76,1-1,.32a8.23,8.23,0,0,0-2.56-3.77.55.55,0,0,1-.19-.32,24.58,24.58,0,0,0-4,.43,8.48,8.48,0,0,1,2.47,3.88c.19.64-.76,1-1,.32a8.33,8.33,0,0,0-2.57-3.77l-.19-.22a17.88,17.88,0,0,0-3.13,1,14.13,14.13,0,0,0-4.56,2.59c-1.14,1-3.61,4.63-.85,5.49h9.21C115.26,194.34,121.72,194.66,128.08,194.34Z" transform="translate(1 -2.9)"/><path class="cls-2" d="M100,194.88H99.5c-.19,0-.29-.11-.48-.22a.5.5,0,0,0,.29.65h.09C99.78,195.52,100,195.2,100,194.88Z" transform="translate(1 -2.9)"/><path class="cls-2" d="M131.5,189.82a12.88,12.88,0,0,0-3.89-3.13,24.29,24.29,0,0,0-5.89-2.47,30.41,30.41,0,0,0-11.68-.54c-3.9.65-8.64,2-11.4,5.38-1.52,1.83-1.8,5.39.67,6.25a.81.81,0,0,1-.29-.65c-1.33-.64-1.42-3.12-.76-4.3a10.47,10.47,0,0,1,3.52-3.23,23,23,0,0,1,6.36-2.48.43.43,0,0,1,.57-.22h.09l.1.11a23,23,0,0,1,4.65-.54.41.41,0,0,1,.57-.11h.67a22.05,22.05,0,0,1,3.79.33.43.43,0,0,1,.57-.22h.1c.19.11.28.22.47.33a23,23,0,0,1,8.27,3.23,11.48,11.48,0,0,1,3.23,2.69,2.83,2.83,0,0,1-.19,3.66,3.62,3.62,0,0,1-2.47,1H100c0,.32-.19.54-.38.54h23.55c2,0,4.56.43,6.56-.22a3.43,3.43,0,0,0,2.37-4A3.54,3.54,0,0,0,131.5,189.82Z" transform="translate(1 -2.9)"/><path class="cls-2" d="M115.07,184.54c1.14,0,2.28.11,3.42.22a.57.57,0,0,1,0-.54,22.08,22.08,0,0,0-3.8-.33h-.57c.19.22.48.33.67.54A.31.31,0,0,0,115.07,184.54Z" transform="translate(1 -2.9)"/><path class="cls-2" d="M125.23,186.69a20.56,20.56,0,0,1,4.09,2.48,4.34,4.34,0,0,1,1,.86c.29.43.48.86.76,1.3-.28.75-.57,1.5-.85,2.36a3,3,0,0,1-2.09.54c-6.37.33-12.92,0-19.28,0H99.78a.72.72,0,0,1,.38.54h28.49a3.59,3.59,0,0,0,2.47-1,2.79,2.79,0,0,0,.29-3.55l-.1-.11a11.34,11.34,0,0,0-3.23-2.69,23.13,23.13,0,0,0-8.26-3.23,2.71,2.71,0,0,1,.76.75C122,185.51,123.62,186.05,125.23,186.69Z" transform="translate(1 -2.9)"/><path class="cls-2" d="M100,194.88a.71.71,0,0,0-.38-.54H99.4c-.28,0-.38.22-.47.43.19.11.28.11.47.22l.57-.11Z" transform="translate(1 -2.9)"/><path class="cls-2" d="M113.36,184.54a.87.87,0,0,1,.1-.54,35.2,35.2,0,0,0-4.66.54c.19.11.38.32.57.43C110.7,184.76,112,184.65,113.36,184.54Z" transform="translate(1 -2.9)"/><path class="cls-2" d="M99.5,194.34h0c-2.76-.86-.19-4.52,1-5.49a19.48,19.48,0,0,1,4.56-2.59,17.62,17.62,0,0,1,3.13-1,.51.51,0,0,1,0-.53,23,23,0,0,0-6.36,2.47,9.7,9.7,0,0,0-3.52,3.23c-.76,1.19-.57,3.66.76,4.31C99.12,194.45,99.21,194.34,99.5,194.34Z" transform="translate(1 -2.9)"/><path class="cls-2" d="M110.89,189.17a.48.48,0,0,0,.67.32.49.49,0,0,0,.28-.64,8.4,8.4,0,0,0-2.47-3.88c-.19,0-.47.11-.66.11a8.84,8.84,0,0,1,2.66,3.88l-2.66-3.88c-.19,0-.38.11-.57.11,0,.1.09.1.19.21A8.23,8.23,0,0,1,110.89,189.17Z" transform="translate(1 -2.9)"/><path class="cls-2" d="M108.8,184.43a.34.34,0,0,0-.57,0c0,.11-.09.11-.09.22A1.56,1.56,0,0,0,108.8,184.43Z" transform="translate(1 -2.9)"/><path class="cls-2" d="M108.14,185.29c.19,0,.38-.1.57-.1l-.1-.22c.1.11.1.11.19.11s.48-.11.67-.11c-.19-.11-.38-.32-.57-.43s-.48.11-.76.11C108.14,184.86,108,185.08,108.14,185.29Z" transform="translate(1 -2.9)"/><path class="cls-2" d="M108.8,185.08h0l2.66,3.88A10.48,10.48,0,0,0,108.8,185.08Z" transform="translate(1 -2.9)"/><path class="cls-2" d="M108.61,185l.1.22h.09Z" transform="translate(1 -2.9)"/><path class="cls-2" d="M116.21,188.63a.48.48,0,0,0,.67.33.5.5,0,0,0,.28-.65,7.89,7.89,0,0,0-2.37-3.77H114a8,8,0,0,1,2.66,4l-2.76-4h-.57a.57.57,0,0,0,.19.32A8,8,0,0,1,116.21,188.63Z" transform="translate(1 -2.9)"/><path class="cls-2" d="M114.12,183.89c-.09-.1-.38-.21-.47,0h0l-.1.11A1.06,1.06,0,0,0,114.12,183.89Z" transform="translate(1 -2.9)"/><path class="cls-2" d="M113.36,184.54h.57l-.09-.11c.09,0,.09,0,.19.11h.76a1.78,1.78,0,0,0-.67-.54h-.66A1.06,1.06,0,0,0,113.36,184.54Z" transform="translate(1 -2.9)"/><path class="cls-2" d="M114,184.54h0l2.66,4A8.59,8.59,0,0,0,114,184.54Z" transform="translate(1 -2.9)"/><path class="cls-2" d="M113.84,184.43l.09.11h.1C113.93,184.43,113.93,184.43,113.84,184.43Z" transform="translate(1 -2.9)"/><path class="cls-2" d="M121.24,188.74a.48.48,0,0,0,.67.32.49.49,0,0,0,.28-.64,8.66,8.66,0,0,0-1.9-3.34c-.28-.11-.66-.11-1-.22a9.09,9.09,0,0,1,2.38,3.67l-2.57-3.67c-.19,0-.47-.1-.66-.1,0,.1.1.1.19.21A8.23,8.23,0,0,1,121.24,188.74Z" transform="translate(1 -2.9)"/><path class="cls-2" d="M119.15,184a.33.33,0,0,0-.56,0c0,.11-.1.11-.1.22a4.57,4.57,0,0,1,1.14.21A1.86,1.86,0,0,0,119.15,184Z" transform="translate(1 -2.9)"/><path class="cls-2" d="M118.49,184.76c.19,0,.47.1.66.1l-.28-.43a1,1,0,0,1,.47.43c.29.11.67.11,1,.22a2.59,2.59,0,0,0-.76-.75c-.38-.11-.76-.11-1.13-.22C118.4,184.33,118.49,184.54,118.49,184.76Z" transform="translate(1 -2.9)"/><path class="cls-2" d="M119.44,185h-.19l2.56,3.66A9,9,0,0,0,119.44,185Z" transform="translate(1 -2.9)"/><path class="cls-2" d="M119,184.54l.29.43h.19A1.86,1.86,0,0,0,119,184.54Z" transform="translate(1 -2.9)"/></g><rect class="cls-1" x="96.32" y="191.33" width="69.8" height="5.82"/><path class="cls-2" d="M165.69,200.69h-71v-7.21h71v7.21Zm-69.8-1.29h68.66v-4.52H95.89Z" transform="translate(1 -2.9)"/><g class="cls-9"><path class="cls-10" d="M75.76,144.37c7.4,0,13.39-6.78,13.39-15.18h0c0,8.4,6,15.18,13.39,15.18s13.39-6.78,13.39-15.18h0c0,8.4,6,15.18,13.39,15.18s13.39-6.78,13.39-15.18h0c0,8.4,6,15.18,13.39,15.18s13.39-6.78,13.39-15.18h0c0,8.4,6,15.18,13.39,15.18s13.39-6.78,13.39-15.18h0c0,8.4,6,15.18,13.39,15.18s13.39-6.78,13.39-15.18c0,8.4,6,15.18,13.39,15.18h0c7.21,0,13.1-6.67,13.1-14.86h0v-.21l-.19-.43H63.41C63.41,128.76,62.56,144.37,75.76,144.37Z" transform="translate(1 -2.9)"/></g><path class="cls-1" d="M218.87,206.62a2.3,2.3,0,1,1-2.28-2.59h0A2.65,2.65,0,0,1,218.87,206.62Z" transform="translate(1 -2.9)"/><path class="cls-2" d="M216.59,209.42a2.82,2.82,0,0,1,0-5.6,2.63,2.63,0,0,1,2.47,2.8h0A2.7,2.7,0,0,1,216.59,209.42Zm0-5.06a2.28,2.28,0,1,0,2,2.26,2.06,2.06,0,0,0-1.8-2.26Z" transform="translate(1 -2.9)"/><rect class="cls-11" width="350" height="349"/></svg>