<?xml version="1.0" encoding="utf-8"?>
<!-- Generator: Adobe Illustrator 25.2.1, SVG Export Plug-In . SVG Version: 6.00 Build 0)  -->
<svg version="1.1" id="Layer_1" xmlns="http://www.w3.org/2000/svg" xmlns:xlink="http://www.w3.org/1999/xlink" x="0px" y="0px"
	 viewBox="0 0 350 350" style="enable-background:new 0 0 350 350;" xml:space="preserve">
<style type="text/css">
	.st0{fill:#A1C0C9;}
	.st1{fill:#F0F1F1;}
	.st2{fill:#424243;}
	.st3{fill:#435E7D;}
	.st4{opacity:0.56;}
	.st5{fill:#A0D4F5;}
	.st6{fill:#2B3D4D;}
	.st7{fill:#9ED1E3;}
	.st8{fill:#0063FF;}
	.st9{opacity:0.82;}
	.st10{fill:#FFBE19;}
	.st11{opacity:0.7;}
	.st12{fill:none;}
</style>
<rect x="73.8" y="119.2" class="st0" width="212.3" height="130.1"/>
<rect x="73.8" y="119.2" class="st1" width="212.3" height="102"/>
<path class="st2" d="M286.1,246.7H82.5c-2.6,0-5.7-0.4-8.3,0h-0.4l2.6,2.6V119.2l-2.6,2.6h203.6c2.6,0,5.7,0.4,8.3,0h0.4l-2.6-2.6
	v130.1c0,3.4,5.2,3.4,5.2,0V119.2c0-1.4-1.2-2.6-2.6-2.6H100c-8.6,0-17.2-0.4-25.7,0h-0.4c-1.4,0-2.6,1.2-2.6,2.6v130.1
	c0,1.4,1.2,2.6,2.6,2.6H260c8.6,0,17.2,0.4,25.7,0h0.4C289.5,251.9,289.5,246.7,286.1,246.7z"/>
<rect x="229.2" y="144.8" class="st3" width="42" height="104.5"/>
<path class="st2" d="M271.2,246.7h-42l2.6,2.6V144.9l-2.6,2.6h42l-2.6-2.6v104.4c0,3.4,5.2,3.4,5.2,0V144.9c0-1.4-1.2-2.6-2.6-2.6
	h-42c-1.4,0-2.6,1.2-2.6,2.6v104.4c0,1.4,1.2,2.6,2.6,2.6h42C274.6,251.9,274.6,246.7,271.2,246.7z"/>
<g class="st4">
	<path class="st2" d="M175.4,274.4H59.1c-1.1,0-2-0.9-2-2l0,0c0-1.1,0.9-2,2-2h116.3c1.1,0,2,0.9,2,2l0,0
		C177.4,273.5,176.5,274.4,175.4,274.4z"/>
</g>
<g class="st4">
	<path class="st2" d="M186.4,274.4h-2.9c-1.1,0-2-0.9-2-2l0,0c0-1.1,0.9-2,2-2h2.9c1.1,0,2,0.9,2,2l0,0
		C188.4,273.5,187.5,274.4,186.4,274.4z"/>
</g>
<g class="st4">
	<path class="st2" d="M284,284.9H170.8c-1.1,0-2.1-0.9-2.1-2c0,0,0-0.1,0-0.1l0,0c0-1.1,0.9-2.1,2-2.1c0,0,0.1,0,0.1,0H284
		c1.1,0,2.1,0.9,2.1,2c0,0,0,0.1,0,0.1l0,0c0,1.1-0.9,2.1-2,2.1C284.1,284.9,284,284.9,284,284.9z"/>
</g>
<g class="st4">
	<path class="st2" d="M296.8,284.9h-5.2c-1.1,0-2.1-0.9-2.1-2c0,0,0-0.1,0-0.1l0,0c0-1.1,0.9-2.1,2-2.1c0,0,0.1,0,0.1,0h5.2
		c1.1,0,2.1,0.9,2.1,2c0,0,0,0.1,0,0.1l0,0c0,1.1-0.9,2.1-2,2.1C296.9,284.9,296.8,284.9,296.8,284.9z"/>
</g>
<g class="st4">
	<path class="st2" d="M151.4,295.9h-5.2c-1.1,0-2.1-0.9-2.1-2c0,0,0-0.1,0-0.1l0,0c0-1.1,0.9-2.1,2-2.1c0,0,0.1,0,0.1,0h5.2
		c1.1,0,2.1,0.9,2.1,2c0,0,0,0.1,0,0.1l0,0C153.5,295,152.6,295.9,151.4,295.9z"/>
</g>
<rect x="81.5" y="149" class="st5" width="136.7" height="77.1"/>
<rect x="235.1" y="212.9" class="st6" width="30.8" height="29.9"/>
<rect x="235.1" y="150.5" class="st7" width="30.8" height="5.9"/>
<path class="st2" d="M267.2,150.5c0-0.7-0.6-1.3-1.3-1.3h-30.8c-0.7,0-1.3,0.6-1.3,1.3v5.9c0,0.7,0.6,1.3,1.3,1.3h30.8
	c0.3,0,0.6-0.1,0.8-0.3c0.1,0,0.1,0,0.1-0.1v0c0-0.1,0-0.1,0.1-0.1l0,0c0.2-0.2,0.3-0.5,0.3-0.8L267.2,150.5z M264.6,155.1h-28.2
	v-3.3h28.2V155.1z"/>
<rect x="235.1" y="160.1" class="st6" width="30.8" height="32.3"/>
<path class="st1" d="M258.7,202.8v-0.7c0-0.5,0.4-0.9,0.9-0.9h8.7c0.5,0,0.9,0.4,0.9,0.9v0.7c0,0.5-0.4,0.9-0.9,0.9h-8.7
	C259.1,203.7,258.7,203.3,258.7,202.8z"/>
<path class="st2" d="M258.2,202.4c0-1,0.8-1.8,1.8-1.8c0,0,0,0,0,0h8c1,0,1.8,0.8,1.8,1.8s-0.8,1.8-1.8,1.8h-8
	C259,204.2,258.2,203.4,258.2,202.4C258.2,202.4,258.2,202.4,258.2,202.4z M268.7,202.4c0-0.4-0.3-0.7-0.7-0.7c0,0,0,0,0,0h-8
	c-0.4,0-0.7,0.3-0.7,0.7c0,0.4,0.3,0.7,0.7,0.7h8C268.4,203.2,268.7,202.8,268.7,202.4z"/>
<rect x="61.1" y="108.4" class="st8" width="236.7" height="10.7"/>
<path class="st2" d="M297.8,105.8H90.3c-9.6,0-19.2-0.4-28.8,0h-0.4c-1.4,0-2.6,1.2-2.6,2.6v10.7c0,1.4,1.2,2.6,2.6,2.6h207.5
	c9.6,0,19.2,0.4,28.8,0h0.4c1.4,0,2.6-1.2,2.6-2.6v-10.7c0-3.4-5.2-3.4-5.2,0v10.7l2.6-2.6H70.7c-2.9,0-6.3-0.5-9.2,0h-0.4l2.6,2.6
	v-10.7l-2.6,2.6h207.5c9.6,0,19.2,0.4,28.8,0h0.4C301.1,111,301.1,105.8,297.8,105.8z"/>
<rect x="85" y="64.4" class="st1" width="189.9" height="43.1"/>
<path class="st2" d="M274.9,61.8H108.4c-7.7,0-15.4-0.4-23.1,0H85c-1.4,0.1-2.4,1.2-2.4,2.6v43.1c0,1.4,1,2.5,2.4,2.6h166.5
	c7.7,0,15.4,0.4,23.1,0h0.3c1.4-0.1,2.4-1.2,2.4-2.6V64.4c0.1-1.3-0.8-2.4-2.1-2.6c-1.3-0.1-2.4,0.8-2.6,2.1c0,0.1,0,0.3,0,0.4v43.1
	c0.8-0.9,1.6-1.7,2.4-2.6H92.9c-2.4,0-5.1-0.4-7.5,0h-0.3c0.8,0.9,1.6,1.7,2.4,2.6V64.4c-0.8,0.9-1.6,1.7-2.4,2.6h166.5
	c7.7,0,15.4,0.4,23.1,0h0.3C277.9,67,278,61.8,274.9,61.8z"/>
<rect x="73.6" y="56.9" class="st8" width="212.8" height="10.7"/>
<path class="st2" d="M286.4,54.3H99.8c-8.6,0-17.3-0.4-25.9,0h-0.4c-1.4,0.1-2.4,1.2-2.4,2.6v10.7c0,1.4,1,2.5,2.4,2.6h186.6
	c8.6,0,17.3,0.4,25.9,0h0.4c1.4-0.1,2.4-1.2,2.4-2.6V56.9c0.1-1.3-0.8-2.4-2.1-2.6c-1.3-0.1-2.4,0.8-2.6,2.1c0,0.1,0,0.3,0,0.4v10.7
	c0.8-0.9,1.6-1.7,2.4-2.6H82.3c-2.6,0-5.7-0.5-8.3,0h-0.4c0.8,0.9,1.6,1.7,2.4,2.6V56.9c-0.8,0.9-1.6,1.7-2.4,2.6h186.6
	c8.6,0,17.3,0.4,25.9,0h0.4C289.4,59.5,289.4,54.3,286.4,54.3z"/>
<rect x="57.6" y="249.3" class="st1" width="244.5" height="14.2"/>
<path class="st2" d="M60.2,263.5v-14.2l-2.6,2.6h234.5c3.1,0,6.5,0.5,9.6,0h0.4l-2.6-2.6v14.2c0,3.4,5.2,3.4,5.2,0v-14.2
	c0-1.4-1.2-2.6-2.6-2.6H87.7c-9.9,0-19.8-0.4-29.7,0h-0.4c-1.4,0-2.6,1.2-2.6,2.6v14.2C54.9,266.8,60.2,266.8,60.2,263.5z"/>
<rect x="81.6" y="204.2" class="st1" width="39.1" height="9"/>
<g class="st9">
	<rect x="81.5" y="203.3" class="st2" width="42.4" height="2.6"/>
</g>
<path class="st1" d="M102.8,191c10.9-7.8,21.7-15.6,32.6-23.4c1.4-1,0.1-3.5-1.4-2.4c-10.9,7.8-21.7,15.6-32.6,23.4
	C100,189.6,101.4,192.1,102.8,191z"/>
<path class="st1" d="M172.9,191c10.9-7.8,21.7-15.6,32.6-23.4c1.4-1,0.1-3.5-1.4-2.4c-10.9,7.8-21.7,15.6-32.6,23.4
	C170,189.7,171.4,192.1,172.9,191z"/>
<path class="st1" d="M185.6,197.2c7.3-5.3,14.6-10.5,21.9-15.8c1.4-1,0.1-3.5-1.4-2.4c-7.3,5.3-14.6,10.5-21.9,15.8
	C182.8,195.8,184.2,198.3,185.6,197.2z"/>
<path class="st2" d="M219.2,227.4H82.8c-0.8,0-1.4-0.6-1.4-1.3c0,0,0,0,0-0.1v-77c0-0.8,0.6-1.4,1.3-1.4c0,0,0,0,0.1,0h136.4
	c0.8,0,1.4,0.6,1.4,1.3c0,0,0,0,0,0.1v77C220.6,226.8,220,227.4,219.2,227.4z M84.1,224.7h133.7v-74.3H84.1V224.7z"/>
<path class="st2" d="M127.5,89.6c0.8,1.2,1.3,2.6,1.2,4.1c0.1,2-0.8,3.9-2.3,5.2c-1.9,1.4-4.2,2.1-6.5,1.9h-11.7v-26h11.3
	c2.2-0.1,4.5,0.5,6.3,1.8c2.5,2.1,3,5.8,1.2,8.6c-0.7,1-1.7,1.8-2.9,2.2C125.4,87.7,126.6,88.5,127.5,89.6z M112.7,85.7h6
	c3.2,0,4.8-1.2,4.8-3.7c0.1-1-0.4-2.1-1.2-2.7c-1.1-0.7-2.3-1-3.6-0.9h-6L112.7,85.7z M123.1,96.2c0.8-0.7,1.3-1.8,1.2-2.9
	c0.1-1.1-0.4-2.2-1.2-3c-1.1-0.7-2.4-1-3.7-0.9h-6.6v7.7h6.6C120.7,97.2,122,96.9,123.1,96.2z"/>
<path class="st2" d="M175.5,100.8h-4.9l-3.3-8.7c-0.2-0.7-0.7-1.3-1.3-1.7c-0.7-0.3-1.5-0.5-2.3-0.5H159v10.8h-4.6v-26h11
	c2.9,0,5.1,0.6,6.6,1.9c1.6,1.4,2.4,3.5,2.3,5.6c0,1.6-0.5,3.1-1.4,4.4c-1,1.2-2.3,2.2-3.8,2.6c1.6,0.4,2.9,1.6,3.3,3.2L175.5,100.8
	z M164.7,86.3c1.4,0.1,2.8-0.2,3.9-1c0.9-0.8,1.3-1.9,1.3-3c0.1-1.1-0.4-2.2-1.2-2.9c-1.2-0.7-2.5-1.1-3.9-1H159v7.9H164.7z"/>
<path class="st2" d="M199,89.6c0.8,1.2,1.3,2.6,1.2,4.1c0.1,2-0.8,3.9-2.3,5.2c-1.9,1.4-4.2,2.1-6.5,1.9h-11.7v-26H191
	c2.2-0.1,4.5,0.5,6.3,1.8c2.5,2.1,3,5.8,1.2,8.6c-0.7,1-1.7,1.8-2.9,2.2C197,87.7,198.2,88.5,199,89.6z M184.3,85.7h6
	c3.2,0,4.8-1.2,4.8-3.7c0.1-1-0.4-2.1-1.2-2.7c-1.1-0.7-2.3-1-3.6-0.9h-6V85.7z M194.6,96.2c0.8-0.7,1.3-1.8,1.2-2.9
	c0.1-1.1-0.4-2.2-1.2-3c-1.1-0.7-2.4-1-3.7-0.9h-6.6v7.7h6.6C192.2,97.2,193.5,96.9,194.6,96.2z"/>
<path class="st2" d="M204.7,100.8v-26h17.2v3.7h-12.6v7.2h11.9v3.7h-11.9V97h12.6v3.7h-17.2V100.8z"/>
<path class="st2" d="M247.4,100.8h-4.9l-3.3-8.7c-0.2-0.7-0.7-1.3-1.3-1.7c-0.7-0.3-1.5-0.5-2.3-0.5h-4.7v10.8h-4.6v-26h11
	c2.9,0,5.1,0.6,6.6,1.9c1.6,1.4,2.4,3.5,2.3,5.6c0,1.6-0.5,3.1-1.4,4.4c-1,1.2-2.3,2.2-3.8,2.6c1.6,0.4,2.9,1.6,3.3,3.2L247.4,100.8
	z M236.5,86.3c1.4,0.1,2.8-0.2,3.9-1c0.9-0.8,1.3-1.9,1.3-3c0.1-1.1-0.4-2.2-1.2-2.9c-1.2-0.7-2.5-1.1-3.9-1h-5.8v7.9H236.5z"/>
<path class="st10" d="M294.8,211.9c0,17.4-3.3,31.5-7.4,31.5s-7.4-14.1-7.4-31.5c0-20.2,7.4-31.5,7.4-31.5S294.8,191.4,294.8,211.9z
	"/>
<path class="st2" d="M287.4,244.1c-5.3,0-8.2-16.6-8.2-32.2c0-20.2,7.2-31.4,7.5-31.9l0.7-1l0.7,1c0.3,0.5,7.5,11.5,7.5,31.9
	C295.6,227.5,292.8,244.1,287.4,244.1z M287.5,181.9c-1.8,3.4-6.6,13.8-6.6,29.9c0,19.1,3.8,30.8,6.6,30.8s6.6-11.7,6.6-30.8
	C294,195.6,289.3,185.3,287.5,181.9L287.5,181.9z"/>
<path class="st2" d="M287.4,239c-0.4,0-0.8-0.3-0.8-0.7v-42.9c0.1-0.4,0.5-0.7,0.9-0.7c0.3,0.1,0.6,0.3,0.7,0.7v42.9
	C288.2,238.7,287.9,239,287.4,239C287.5,239,287.4,239,287.4,239z"/>
<path class="st10" d="M301.9,213.9c0,11-2.5,20-5.6,20s-5.6-9-5.6-20c0-12.8,5.6-20,5.6-20S301.9,200.9,301.9,213.9z"/>
<path class="st2" d="M296.2,234.4c-4.1,0-6.2-10.5-6.2-20.5c0-12.8,5.5-19.9,5.7-20.2l0.5-0.7l0.5,0.7c0.2,0.3,5.7,7.3,5.7,20.3
	C302.5,223.8,300.3,234.4,296.2,234.4z M296.2,194.9c-1.4,2.1-5,8.8-5,19c0,12.1,2.9,19.5,5,19.5s5-7.4,5-19.5
	C301.3,203.6,297.6,197,296.2,194.9z"/>
<path class="st2" d="M296.2,231.1c-0.3,0-0.6-0.2-0.6-0.5v-27.3c0.1-0.3,0.4-0.6,0.7-0.5c0.2,0,0.4,0.2,0.5,0.5v27.3
	C296.8,230.9,296.6,231.1,296.2,231.1z"/>
<polygon class="st1" points="299.7,248.2 281,248.2 278.2,224.3 301.7,224.3 "/>
<path class="st2" d="M300.1,248.6h-19.5v-0.4l-2.8-24.4h24.5L300.1,248.6z M281.4,247.7h17.9l2-22.9h-22.5L281.4,247.7z"/>
<path class="st2" d="M299.7,248.9H281c-0.4,0-0.7-0.3-0.7-0.7c0,0,0,0,0,0l-2.8-23.9c0-0.2,0-0.4,0.2-0.6c0.1-0.2,0.3-0.2,0.6-0.2
	h23.5c0.2,0,0.4,0.1,0.5,0.2c0.1,0.2,0.2,0.4,0.2,0.6l-2,23.9C300.4,248.6,300.1,248.9,299.7,248.9z M281.7,247.4H299l1.9-22.4H279
	L281.7,247.4z"/>
<rect x="275" y="221.2" class="st1" width="30" height="3.5"/>
<path class="st2" d="M305.4,225.1h-30.9v-4.4h30.9V225.1z M275.5,224.2h29.1v-2.6h-29.1V224.2z"/>
<path class="st2" d="M305,225.4h-30c-0.4,0-0.7-0.3-0.7-0.7c0,0,0,0,0,0v-3.5c0-0.4,0.3-0.7,0.7-0.7c0,0,0,0,0,0h30
	c0.4,0,0.7,0.3,0.7,0.7c0,0,0,0,0,0v3.5C305.7,225.1,305.4,225.4,305,225.4z M275.8,223.9h28.5v-2h-28.5V223.9z"/>
<rect x="63.6" y="151.5" class="st2" width="9.1" height="2.3"/>
<rect x="63.6" y="193.1" class="st2" width="9.1" height="2.3"/>
<rect x="46.4" y="149" class="st1" width="20.9" height="50.3"/>
<path class="st2" d="M67.9,199.9H45.8v-51.4h22.1V199.9z M47,198.7h19.8v-49.1H47V198.7z"/>
<path class="st2" d="M67.9,145.7H45.7c-0.8,0-1.5,0.7-1.5,1.5v0.9c0,0.8,0.7,1.5,1.5,1.5h22.2c0.8,0,1.5-0.7,1.5-1.5v-0.9
	C69.4,146.4,68.8,145.7,67.9,145.7C67.9,145.7,67.9,145.7,67.9,145.7z"/>
<path class="st2" d="M68,196.8H45.6c-0.8,0-1.4,0.6-1.4,1.3c0,0,0,0,0,0.1v1c0,0.8,0.6,1.4,1.3,1.4c0,0,0,0,0.1,0H68
	c0.8,0,1.4-0.6,1.4-1.3c0,0,0,0,0-0.1v-1C69.4,197.4,68.8,196.8,68,196.8C68,196.8,68,196.8,68,196.8z"/>
<polygon class="st8" points="67.3,166.2 46.4,158.1 46.4,151.2 67.3,159.3 "/>
<path class="st2" d="M67.9,167.1l-22.1-8.6v-8.1l22.1,8.6V167.1z M47,157.7l19.8,7.7v-5.6L47,152.1V157.7z"/>
<polygon class="st8" points="67.3,180.5 46.4,172.4 46.4,165.5 67.3,173.6 "/>
<path class="st2" d="M67.9,181.4l-22.1-8.6v-8.1l22.1,8.6V181.4z M47,172l19.8,7.7V174L47,166.4V172z"/>
<polygon class="st8" points="67.3,194.8 46.4,186.7 46.4,179.8 67.3,187.9 "/>
<path class="st2" d="M67.9,195.7l-22.1-8.6V179l22.1,8.6V195.7z M47,186.3l19.8,7.7v-5.6L47,180.7V186.3z"/>
<g class="st11">
	<polygon class="st12" points="146.4,209 146.7,206.6 144.8,208.1 	"/>
	<polygon class="st12" points="143.3,172.7 141.6,171.8 142.1,173.7 	"/>
	<path class="st12" d="M147.1,169.4c0.1-0.2,0.1-0.3,0-0.5c-0.1-0.2-0.2-0.3-0.4-0.3c-0.2,0-0.4,0-0.6,0.1l-0.8,0.4l0.6,1.1l0.8-0.4
		C146.9,169.7,147.1,169.6,147.1,169.4z"/>
	<path class="st12" d="M152.7,208.6l-1.2-0.2l-0.3,1.6l1.2,0.3c0.6,0.1,1-0.1,1.1-0.6S153.3,208.8,152.7,208.6z"/>
	<path class="st12" d="M151.5,168.6l-1,0.3l0.3,1.2l1-0.3c0.2-0.1,0.4-0.2,0.5-0.3c0.1-0.1,0.1-0.3,0.1-0.5
		c-0.1-0.2-0.1-0.3-0.3-0.4H151.5z"/>
	<path class="st12" d="M138.8,175c-0.2-0.1-0.3-0.2-0.5-0.1s-0.3,0.2-0.5,0.4l-0.6,0.8l0.9,0.7l0.6-0.8
		C139,175.6,139.1,175.3,138.8,175z"/>
	<path class="st12" d="M140.2,177.1c0.2-0.2,0.3-0.4,0.3-0.6c0-0.2-0.1-0.3-0.2-0.4c-0.2-0.1-0.3-0.2-0.5-0.1s-0.3,0.2-0.5,0.4
		l-0.7,0.8l1,0.8L140.2,177.1z"/>
	<path class="st12" d="M175.2,175.3c-0.8,0.1-1.5,0.6-1.8,1.3c-0.1,0.3,0,0.7,0.2,1c0.2,0.3,0.5,0.5,0.9,0.5
		c0.8-0.1,1.5-0.6,1.8-1.3c0.1-0.3,0-0.7-0.2-1C175.9,175.5,175.6,175.3,175.2,175.3z"/>
	<path class="st12" d="M178.2,181.6c0.2,0.1,0.3,0.1,0.5,0c0.2-0.1,0.3-0.2,0.3-0.4c0-0.2,0-0.4-0.1-0.6l-0.4-0.9l-1.1,0.5l0.4,0.9
		C177.9,181.3,178,181.5,178.2,181.6z"/>
	<path class="st2" d="M160.4,161.2c-7.4-0.9-14.9,1.1-20.8,5.7c-12.3,9.5-14.6,27.2-5.1,39.5c4.6,5.9,11.3,9.8,18.8,10.7
		c1.2,0.2,2.4,0.2,3.6,0.2c6.2,0,12.3-2.1,17.2-5.9c5.9-4.6,9.7-11.3,10.7-18.7c2-15.4-8.9-29.5-24.3-31.5
		C160.5,161.2,160.4,161.2,160.4,161.2z M183.7,192.5c-1.9,14.8-15.4,25.3-30.2,23.4s-25.3-15.4-23.4-30.2
		c1.7-13.5,13.2-23.6,26.8-23.6c1.1,0,2.3,0.1,3.4,0.2C175.1,164.2,185.6,177.7,183.7,192.5C183.7,192.5,183.7,192.5,183.7,192.5z"
		/>
	<path class="st2" d="M163.1,180c-0.7,0-1.3,0.4-1.6,1c-0.3,0.8-0.4,1.6-0.5,2.5c0.6,0.1,1.2,0.2,1.8,0.2c0.4,0,0.9,0,1.3-0.2
		c0.7-0.5,1-1.3,0.8-2.1C164.6,180.6,163.9,180.1,163.1,180z"/>
	<path class="st2" d="M154.3,179.6c-0.5-0.6-1.2-0.9-2-0.8c-0.7,0.1-1.3,0.7-1.4,1.4c-0.2,0.9,0.3,1.8,1.2,2c0,0,0,0,0,0
		c0.6,0.1,1.2,0.2,1.8,0.3c0.4,0,0.4,0,0.5-0.4c0-0.2,0.1-0.3,0.1-0.5c0.1-0.3,0.1-0.7,0-1C154.5,180.3,154.5,179.9,154.3,179.6z"/>
	<path class="st2" d="M158.9,173.2c-8.8-1.1-16.9,5.2-18,14c-1.1,8.8,5.2,16.9,14,18c8.8,1.1,16.9-5.2,18-14
		C174,182.4,167.8,174.3,158.9,173.2C158.9,173.2,158.9,173.2,158.9,173.2z M165.6,183.4c-0.6,1-1.7,1.6-2.8,1.5
		c-0.7-0.1-1.5-0.2-2.2-0.3c-0.1,0-0.2,0-0.3,0.1c-0.7,0.8-1.3,1.6-1.9,2.3c-0.1,0.1,0,0.2,0,0.3c1.1,2.3,2.3,4.5,3.4,6.8
		c0.5,1,0.9,2,1.2,3c0.2,0.8,0.2,1.7-0.2,2.5c-0.2,0.5-0.7,0.9-1.2,1.1c-1.6-3.7-3.1-7.4-4.7-11.2c-2.5,3.2-4.9,6.4-7.4,9.7
		c-0.2-0.3-0.4-0.5-0.6-0.8c-0.4-0.8-0.4-1.7-0.1-2.5c0.3-0.8,0.8-1.5,1.3-2.2c1.8-2.4,3.7-4.6,5.7-6.8c0.2-0.2,0.2-0.3,0.1-0.5
		c-0.4-0.8-0.8-1.7-1.2-2.6c-0.1-0.2-0.2-0.2-0.4-0.2c-0.9,0-1.8-0.1-2.7-0.4c-1.1-0.5-1.9-1.6-1.9-2.8c0-1.7,1.3-3.1,3-3.1
		s3.1,1.3,3.1,3c0,0.7-0.1,1.5-0.2,2.2v0.3c0.6,0.8,1.1,1.6,1.7,2.4c0.8-0.7,1.5-1.3,2.3-1.9c0.1-0.1,0.1-0.2,0.1-0.3
		c0.1-0.8,0.2-1.5,0.4-2.3c0.3-1.1,1.3-1.9,2.5-2c1.2-0.2,2.3,0.4,2.9,1.4C166.2,181.1,166.3,182.4,165.6,183.4L165.6,183.4z"/>
	<polygon class="st2" points="144.2,204.5 143,205.8 141,204.2 142.2,202.8 142,202.5 139.3,205.6 139.6,205.8 140.8,204.4 
		142.8,206.1 141.5,207.5 141.8,207.7 144.4,204.7 	"/>
	<path class="st2" d="M143.2,208.8l0.3,0.2l0.9-0.7l1.9,1l-0.1,1.2l0.3,0.2l0.4-4.4l-0.3-0.2L143.2,208.8z M146.4,209l-1.7-0.9
		l1.9-1.5L146.4,209z"/>
	<polygon class="st2" points="148.2,211.2 148.5,211.3 149.9,207.5 149.6,207.4 	"/>
	<path class="st2" d="M152.8,208.4l-1.5-0.3l-0.8,4l0.3,0.1l0.4-1.8l1.1,0.2c0.2,0,0.4,0.1,0.5,0.2c0.1,0.1,0.2,0.2,0.2,0.4l0.2,1.4
		l0.4,0.1l-0.2-1.5c0-0.2-0.1-0.3-0.1-0.4s-0.2-0.2-0.3-0.2c0.2,0,0.5-0.1,0.7-0.2c0.2-0.1,0.3-0.4,0.3-0.6c0.1-0.3,0-0.7-0.2-0.9
		C153.6,208.6,153.2,208.4,152.8,208.4z M153.5,209.6c-0.1,0.5-0.5,0.7-1.1,0.6l-1.2-0.3l0.3-1.6l1.2,0.2
		C153.3,208.8,153.6,209.1,153.5,209.6L153.5,209.6z"/>
	<path class="st2" d="M159.9,212.3c-0.2,0.1-0.4,0.1-0.6,0.2c-0.4,0-0.8-0.1-1.1-0.4c-0.3-0.4-0.5-0.8-0.5-1.3
		c0-0.5,0.1-0.9,0.3-1.3c0.2-0.3,0.6-0.5,1-0.5c0.2,0,0.5,0,0.7,0.1l0.6,0.3l0.1-0.3c-0.2-0.2-0.4-0.3-0.6-0.3
		c-0.3-0.1-0.5-0.1-0.8-0.1c-0.4,0-0.7,0.1-1,0.3c-0.3,0.2-0.5,0.5-0.6,0.8c-0.1,0.4-0.2,0.7-0.1,1.1c0,0.4,0.1,0.8,0.3,1.1
		c0.2,0.3,0.4,0.5,0.7,0.7c0.3,0.1,0.7,0.2,1,0.2c0.3,0,0.5-0.1,0.8-0.2c0.2-0.1,0.4-0.3,0.6-0.4l-0.2-0.3
		C160.3,212.1,160.1,212.2,159.9,212.3z"/>
	<path class="st2" d="M164.4,207.6l-0.3,0.1l0.7,2.4c0.1,0.3,0.1,0.7,0,1c-0.1,0.3-0.4,0.4-0.8,0.6c-0.6,0.2-1.2,0-1.4-0.6
		c0-0.1-0.1-0.2-0.1-0.3l-0.7-2.4l-0.3,0.1l0.7,2.4c0.1,0.4,0.3,0.8,0.7,1c0.4,0.2,0.8,0.2,1.2,0.1c0.4-0.1,0.8-0.3,1-0.7
		c0.2-0.4,0.2-0.9,0.1-1.3L164.4,207.6z"/>
	<polygon class="st2" points="168.3,206.1 168.1,205.8 165.2,207.2 165.4,207.5 166.7,206.9 168.4,210.2 168.7,210 167,206.7 	"/>
	<path class="st2" d="M140.7,177.4c0.3-0.3,0.4-0.6,0.4-1c0-0.3-0.1-0.6-0.4-0.8c-0.2-0.2-0.4-0.2-0.6-0.3c-0.2,0-0.4,0.1-0.6,0.2
		c0.1-0.2,0.1-0.4,0-0.6c-0.1-0.2-0.2-0.3-0.3-0.5c-0.2-0.2-0.6-0.3-0.9-0.2c-0.3,0.1-0.7,0.3-0.9,0.6l-1.1,1.4l3.2,2.6L140.7,177.4
		z M137.2,176l0.6-0.8c0.1-0.2,0.3-0.3,0.5-0.4c0.2,0,0.3,0,0.5,0.1c0.3,0.2,0.3,0.6,0,1l-0.6,0.8L137.2,176z M139.2,176.3
		c0.1-0.2,0.3-0.3,0.5-0.4c0.2,0,0.3,0,0.5,0.1c0.1,0.1,0.2,0.2,0.2,0.4c0,0.2-0.1,0.3-0.3,0.6l-0.7,0.8l-1-0.8L139.2,176.3z"/>
	<path class="st2" d="M142.6,175.3l-0.3-1l1.6-1.3l0.9,0.5l0.6-0.5l-4.1-2.1l-0.5,0.4l1.1,4.4L142.6,175.3z M143.3,172.7l-1.2,1
		l-0.5-1.9L143.3,172.7z"/>
	<path class="st2" d="M146.8,172.3l-0.8-1.6l0.7-0.3c0.1-0.1,0.3-0.1,0.4-0.1c0.1,0,0.2,0.1,0.3,0.1l1.1,1l0.7-0.3l-1-1
		c-0.2-0.2-0.4-0.3-0.7-0.2c0.2-0.2,0.3-0.4,0.4-0.6c0-0.2,0-0.5-0.1-0.7c-0.2-0.3-0.4-0.6-0.7-0.6c-0.4-0.1-0.8,0-1.1,0.2l-1.6,0.8
		l1.8,3.7L146.8,172.3z M145.2,169.1l0.8-0.4c0.3-0.1,0.5-0.2,0.6-0.1s0.3,0.1,0.4,0.3c0.1,0.2,0.1,0.3,0,0.5
		c-0.1,0.2-0.3,0.4-0.5,0.4l-0.8,0.4L145.2,169.1z"/>
	<path class="st2" d="M152,170.4c0.3-0.1,0.7-0.3,0.9-0.5c0.2-0.2,0.3-0.6,0.2-0.9l-0.3-0.6c-0.2-0.1-0.4-0.2-0.6-0.2
		c0.2-0.1,0.3-0.3,0.4-0.5c0.1-0.2,0.1-0.4,0-0.6c-0.1-0.3-0.3-0.5-0.5-0.7c-0.3-0.1-0.7-0.1-1,0l-1.8,0.4l1,4L152,170.4z
		 M152.2,168.6c0.1,0.1,0.2,0.2,0.3,0.4c0,0.2,0,0.4-0.1,0.5c-0.2,0.1-0.3,0.2-0.5,0.3l-1,0.3l-0.3-1.2l1-0.3H152.2z M151,167
		c0.3-0.1,0.5-0.1,0.6,0c0.1,0.1,0.2,0.2,0.3,0.4c0.1,0.4-0.1,0.6-0.6,0.8l-0.9,0.2l-0.3-1.1L151,167z"/>
	<polygon class="st2" points="157.3,169.8 157.3,169.2 155.2,169.3 155.2,168.1 157.1,168 157.1,167.4 155.2,167.5 155.1,166.3 
		157.1,166.3 157.1,165.7 154.3,165.8 154.5,169.9 	"/>
	<path class="st2" d="M159.4,168.3l0.7,0.1c0.2,0,0.3,0.1,0.4,0.1s0.1,0.2,0.2,0.3l0.3,1.4l0.8,0.1l-0.3-1.4c0-0.2-0.2-0.5-0.4-0.6
		c0.6,0,1-0.4,1-1c0.1-0.3,0-0.7-0.2-0.9c-0.3-0.3-0.6-0.4-1-0.5l-1.8-0.3l-0.6,4.1l0.7,0.1L159.4,168.3z M159.7,166.5l0.9,0.1
		c0.2,0,0.5,0.1,0.6,0.3c0.1,0.1,0.2,0.3,0.1,0.5c0,0.2-0.1,0.4-0.3,0.4c-0.2,0.1-0.4,0.1-0.6,0.1l-0.9-0.1L159.7,166.5z"/>
	<path class="st2" d="M166,172.1c0.3,0.1,0.6,0.2,0.9,0.3c0.2,0,0.5,0,0.7-0.1c0.2-0.1,0.4-0.3,0.5-0.5c0.1-0.2,0.1-0.4,0.1-0.6
		c0-0.2-0.1-0.4-0.3-0.6l-0.6-0.6c-0.2-0.1-0.4-0.3-0.5-0.5c-0.1-0.1-0.1-0.3,0-0.4c0.1-0.2,0.2-0.3,0.4-0.3c0.2,0,0.4,0,0.6,0.1
		c0.4,0.2,0.7,0.5,0.9,0.9l0.5-0.4c-0.1-0.2-0.2-0.4-0.4-0.6c-0.2-0.2-0.4-0.4-0.7-0.5c-0.3-0.1-0.5-0.2-0.8-0.2
		c-0.3,0-0.5,0-0.7,0.2c-0.2,0.1-0.4,0.3-0.5,0.5c-0.2,0.3-0.2,0.6,0,0.9c0.2,0.4,0.5,0.7,0.8,0.9c0.2,0.1,0.4,0.3,0.5,0.5
		c0.1,0.1,0.1,0.3,0,0.4c-0.1,0.2-0.2,0.3-0.4,0.3c-0.2,0-0.5-0.1-0.7-0.2c-0.2-0.1-0.4-0.3-0.6-0.4c-0.2-0.2-0.3-0.4-0.4-0.6
		l-0.5,0.4c0.1,0.2,0.3,0.4,0.5,0.6C165.5,171.8,165.7,172,166,172.1z"/>
	<polygon class="st2" points="169,173.8 170.1,172.4 171.8,173.8 170.6,175.2 171.2,175.6 173.8,172.4 173.2,171.9 172.1,173.3 
		170.5,171.9 171.6,170.6 171,170.1 168.4,173.3 	"/>
	<path class="st2" d="M175.7,174.7c-0.3-0.1-0.7-0.2-1-0.1c-0.4,0.1-0.7,0.2-1,0.5c-0.3,0.3-0.6,0.6-0.8,0.9c-0.2,0.3-0.2,0.7-0.2,1
		c0,0.4,0.2,0.7,0.4,1c0.2,0.3,0.5,0.5,0.8,0.7c0.3,0.1,0.7,0.2,1,0.1c0.4-0.1,0.7-0.2,1-0.5c0.3-0.2,0.5-0.6,0.7-0.9
		c0.2-0.3,0.2-0.7,0.2-1c0-0.4-0.2-0.7-0.4-1C176.2,175.1,176,174.9,175.7,174.7z M175.6,177.7c-0.3,0.2-0.7,0.4-1.1,0.4
		c-0.4,0-0.7-0.2-0.9-0.5c-0.2-0.3-0.3-0.7-0.2-1c0.3-0.7,1-1.2,1.8-1.3c0.4,0,0.7,0.2,0.9,0.5c0.2,0.3,0.3,0.7,0.2,1
		C176.1,177.2,175.9,177.5,175.6,177.7L175.6,177.7z"/>
	<path class="st2" d="M175.3,181.2l1.6-0.7l0.4,1c0.2,0.4,0.4,0.7,0.7,0.8c0.3,0.1,0.7,0.1,1,0c0.3-0.2,0.6-0.4,0.6-0.7
		c0.1-0.4,0-0.7-0.1-1.1l-0.8-1.6l-3.8,1.8L175.3,181.2z M178.5,179.7l0.4,0.9c0.1,0.2,0.1,0.4,0.1,0.6c0,0.2-0.2,0.3-0.3,0.4
		c-0.2,0.1-0.3,0.1-0.5,0c-0.2-0.1-0.4-0.3-0.4-0.5l-0.4-0.9L178.5,179.7z"/>
	<path class="st2" d="M157.1,187.2c-0.3,0-0.7,0.2-0.7,0.5s0.2,0.7,0.5,0.7s0.7-0.2,0.7-0.5S157.5,187.3,157.1,187.2z"/>
</g>
<path class="st2" d="M147,72.4c-1.6,0.2-2.9,1.5-3.2,3.1c-0.2,1.1-0.3,2.1-0.3,3.2c0,0.1,0,0.3-0.1,0.4c-0.9,1-1.9,1.9-2.8,2.9
	c-0.9-1-1.8-2-2.7-3.1c-0.1-0.1-0.1-0.2-0.1-0.3c0-1,0-2-0.1-3.1c-0.2-2.2-2.3-3.9-4.5-3.6c-0.2,0-0.5,0.1-0.7,0.1
	c-2,0.5-3.3,2.4-3.1,4.5c0.2,1.6,1.3,3,2.9,3.5c1.2,0.3,2.5,0.3,3.8,0.2c0.3,0,0.4,0,0.5,0.3c0.6,1.1,1.3,2.2,2,3.3
	c0.2,0.3,0.2,0.5,0,0.7c-2.4,3.2-4.7,6.6-6.8,10c-0.6,0.9-1.1,2-1.4,3.1c-0.4,1.1-0.2,2.4,0.4,3.4c0.2,0.4,0.6,0.6,0.9,1
	c2.9-4.8,5.8-9.4,8.7-14.1c2.7,4.9,5.3,9.7,8,14.5c0.7-0.4,1.2-1,1.4-1.7c0.4-1.1,0.3-2.3-0.1-3.4c-0.5-1.4-1.2-2.7-2-3.9
	c-1.8-2.9-3.7-5.8-5.5-8.8c-0.1-0.1-0.2-0.3-0.1-0.4c0.8-1.1,1.5-2.3,2.3-3.4c0.1-0.1,0.2-0.2,0.4-0.2c1,0,2,0.1,3.1,0.1
	c1.5,0,2.9-0.9,3.5-2.3c0.7-1.4,0.5-3.2-0.5-4.4C150.1,72.6,148.5,72,147,72.4z M136.3,77.4c0,0.2,0,0.5-0.1,0.7
	c0,0.5-0.1,0.6-0.6,0.6c-0.8,0-1.7,0-2.5-0.2c-1.2-0.3-2-1.4-1.9-2.6c0-1,0.7-1.9,1.7-2.1c1-0.3,2.1,0,2.8,0.8
	c0.3,0.4,0.4,0.9,0.5,1.4C136.3,76.5,136.3,76.9,136.3,77.4z M140.6,86.3c-0.5,0-0.8-0.4-0.8-0.9c0-0.5,0.4-0.8,0.9-0.8
	c0.5,0,0.8,0.4,0.8,0.9C141.4,85.9,141,86.3,140.6,86.3z M149.4,78.5c-0.5,0.4-1.1,0.5-1.7,0.5h-2.4c-0.1-1.1,0-2.3,0.3-3.4
	c0.3-0.9,1.1-1.5,2.1-1.5c1.1-0.1,2.1,0.5,2.5,1.5C150.5,76.6,150.2,77.8,149.4,78.5L149.4,78.5z"/>
</svg>
