<svg id="Layer_1" data-name="Layer 1" xmlns="http://www.w3.org/2000/svg" viewBox="0 0 350 349"><defs><style>.cls-1{opacity:0.48;}.cls-2{fill:#424243;}.cls-3{fill:#f0f1f1;}.cls-4{fill:#0063ff;}.cls-5{fill:#9ed1e3;}.cls-6{fill:#666;}.cls-7{opacity:0.57;}.cls-8{fill:#ffbe19;}.cls-9{fill:#494949;}.cls-10{fill:none;}</style></defs><title>about6</title><g class="cls-1"><path class="cls-2" d="M134.1,297.7H54a2.05,2.05,0,0,1-2.1-2.1v-1.7a2.05,2.05,0,0,1,2.1-2.1h80a2.05,2.05,0,0,1,2.1,2.1v1.7a2,2,0,0,1-1.9,2.1Z" transform="translate(0 -1)"/></g><rect class="cls-3" x="55.1" y="58.2" width="240.1" height="187.7"/><rect class="cls-4" x="55.1" y="121.3" width="240.1" height="124.6"/><path class="cls-2" d="M297.8,59.5v-.3a2.61,2.61,0,0,0-2.5-2.5H84.8c-9.7,0-19.5-.4-29.2,0h-.4a2.48,2.48,0,0,0-2.5,2.5h0V223.8c0,7.6-.4,15.3,0,22.9v.3a2.61,2.61,0,0,0,2.5,2.5H265.7c9.7,0,19.5.4,29.2,0h.4a2.84,2.84,0,0,0,1.7-.7l.1-.1h0a2.19,2.19,0,0,0,.7-1.7V82.4C297.8,74.8,298.1,67.1,297.8,59.5ZM271.3,244.4H64.9c-2.3,0-4.9-.3-7.3-.2V66.7c0-1.6.2-3.5.2-5.2H285.4c2.3,0,4.9.3,7.3.2V223.6c0,6.9-.3,13.9-.1,20.8Z" transform="translate(0 -1)"/><rect class="cls-3" x="36.7" y="245.9" width="276.6" height="13.4"/><path class="cls-2" d="M39.2,260.3V246.9c-.8.8-1.7,1.6-2.5,2.5H302c3.5,0,7.3.5,10.8,0h.5c-.8-.8-1.7-1.6-2.5-2.5v13.4c0,3.2,5.1,3.2,5.1,0V246.9a2.61,2.61,0,0,0-2.5-2.5H70.9c-11.2,0-22.4-.4-33.5,0h-.5a2.48,2.48,0,0,0-2.5,2.5h0v13.4C34.2,263.4,39.2,263.4,39.2,260.3Z" transform="translate(0 -1)"/><g class="cls-1"><path class="cls-2" d="M160.8,273.2H36.7a2,2,0,0,1-1.9-1.9V271a2.13,2.13,0,0,1,1.9-1.9H160.8a2,2,0,0,1,1.9,1.9v.4A1.88,1.88,0,0,1,160.8,273.2Z" transform="translate(0 -1)"/></g><g class="cls-1"><path class="cls-2" d="M294.6,282.5H146a2,2,0,0,1-2-2v-1.3a2,2,0,0,1,2-2H294.6a2,2,0,0,1,2,2v1.3A2,2,0,0,1,294.6,282.5Z" transform="translate(0 -1)"/></g><g class="cls-1"><path class="cls-2" d="M311.3,282.5h-8.2a2,2,0,0,1-2-2v-1.3a2,2,0,0,1,2-2h8.2a2,2,0,0,1,2,2v1.3A2,2,0,0,1,311.3,282.5Z" transform="translate(0 -1)"/></g><rect class="cls-4" x="42.1" y="52" width="266.2" height="12.3"/><path class="cls-2" d="M310.2,51.3h0l-.1-.1a2.84,2.84,0,0,0-1.7-.7H75.1c-10.8,0-21.6-.4-32.4,0h-.5A2.48,2.48,0,0,0,39.7,53h0V65.3a2.61,2.61,0,0,0,2.5,2.5H275.5c10.8,0,21.6.4,32.4,0h.5a2.48,2.48,0,0,0,2.5-2.5h0V53A2.84,2.84,0,0,0,310.2,51.3ZM281.8,62.8H53c-2.7,0-5.6-.3-8.4-.2V55.4H275.4c10.1,0,20.2.3,30.3.1v7.3Z" transform="translate(0 -1)"/><rect class="cls-5" x="154.5" y="130.4" width="128.6" height="102.7"/><path class="cls-2" d="M283.1,129.1H154.5a2.22,2.22,0,0,0-2.2,2.2V234.1a2.22,2.22,0,0,0,2.2,2.2H283.1a2,2,0,0,0,1.5-.6l.1-.1h0a2,2,0,0,0,.6-1.5V131.3A2.22,2.22,0,0,0,283.1,129.1ZM239.6,231.9H156.7V133.7H281v98.2Z" transform="translate(0 -1)"/><path class="cls-6" d="M246.4,231.9H190.9V210.6a1.58,1.58,0,0,1,1.6-1.6h52.4a1.58,1.58,0,0,1,1.6,1.6h0v21.3Z" transform="translate(0 -1)"/><g class="cls-7"><path class="cls-3" d="M216.7,147.5c-8.3,10.9-16.7,21.8-25,32.8-1.2,1.5-2.4,3.1-3.5,4.6-.9,1.1.7,2.7,1.6,1.6,8.3-10.9,16.7-21.8,25-32.8,1.2-1.5,2.4-3.1,3.5-4.6C219.1,147.9,217.6,146.3,216.7,147.5Z" transform="translate(0 -1)"/></g><g class="cls-7"><path class="cls-3" d="M222.3,155c-5.7,7.5-11.4,14.9-17.1,22.4-.9,1.1.7,2.7,1.6,1.6,5.7-7.5,11.4-14.9,17.1-22.4C224.8,155.4,223.2,153.8,222.3,155Z" transform="translate(0 -1)"/></g><rect class="cls-3" x="153.4" y="74.9" width="130.9" height="38.2"/><rect class="cls-3" x="156.7" y="132.8" width="124.2" height="2.2"/><rect class="cls-3" x="156.7" y="137.3" width="124.2" height="2.2"/><rect class="cls-3" x="156.7" y="141.9" width="124.2" height="2.2"/><rect class="cls-3" x="156.7" y="146.4" width="124.2" height="2.2"/><rect class="cls-3" x="156.7" y="151" width="124.2" height="2.2"/><rect class="cls-3" x="156.7" y="155.5" width="124.2" height="2.2"/><rect class="cls-3" x="156.7" y="160.1" width="124.2" height="2.2"/><rect class="cls-3" x="156.7" y="164.6" width="124.2" height="2.2"/><rect class="cls-3" x="69.4" y="130.4" width="36.4" height="113.8"/><path class="cls-2" d="M105.8,242.9H69.5c.7.7,1.4,1.5,2.1,2.2V131.3c-.7.7-1.4,1.5-2.1,2.2h36.3c-.7-.7-1.4-1.5-2.1-2.2V245.1a2.1,2.1,0,0,0,4.2,0h0V131.3a2.2,2.2,0,0,0-2.1-2.2H69.5a2.2,2.2,0,0,0-2.1,2.2V245.1a2.2,2.2,0,0,0,2.1,2.2h36.3C108.5,247.4,108.5,242.9,105.8,242.9Z" transform="translate(0 -1)"/><rect class="cls-5" x="75.5" y="213.7" width="23.3" height="24.7"/><rect class="cls-5" x="75.5" y="140.9" width="23.3" height="79.3"/><rect class="cls-3" x="106.1" y="130.4" width="36.4" height="113.8"/><path class="cls-2" d="M142.5,242.9H106.2c.7.7,1.4,1.5,2.1,2.2V131.3c-.7.7-1.4,1.5-2.1,2.2h36.3c-.7-.7-1.4-1.5-2.1-2.2V245.1a2.1,2.1,0,0,0,4.2,0h0V131.3a2.2,2.2,0,0,0-2.1-2.2H106.2a2.2,2.2,0,0,0-2.1,2.2V245.1a2.2,2.2,0,0,0,2.1,2.2h36.3C145.2,247.4,145.2,242.9,142.5,242.9Z" transform="translate(0 -1)"/><rect class="cls-5" x="112.2" y="213.7" width="23.3" height="24.7"/><rect class="cls-5" x="112.2" y="140.9" width="23.3" height="79.3"/><path class="cls-2" d="M95.4,192.4l-3.5-3.5a.64.64,0,0,1-.1-.9l.1-.1,3.5-3.5a.67.67,0,0,1,1,.1.76.76,0,0,1,.2.4V192a.87.87,0,0,1-.9.6C95.6,192.5,95.5,192.5,95.4,192.4Z" transform="translate(0 -1)"/><path class="cls-2" d="M115,192.5l3.6-3.6a.61.61,0,0,0,.1-.8l-.1-.1-3.6-3.6a.75.75,0,0,0-.9,0,.76.76,0,0,0-.2.5v7.3C113.9,192.6,114.6,192.9,115,192.5Z" transform="translate(0 -1)"/><path class="cls-8" d="M67.8,215.7c0,25-4.8,45.3-10.6,45.3s-10.6-20.3-10.6-45.3c0-29.1,10.6-45.3,10.6-45.3S67.8,186.3,67.8,215.7Z" transform="translate(0 -1)"/><path class="cls-2" d="M57.2,262.1c-7.6,0-11.8-23.9-11.8-46.4,0-29.1,10.3-45.2,10.8-45.9l1-1.5,1,1.5c.4.7,10.8,16.5,10.8,45.9C69,238.2,64.8,262.1,57.2,262.1Zm0-89.5c-2.6,4.8-9.5,19.9-9.5,43.1,0,27.4,5.5,44.2,9.5,44.2s9.5-16.8,9.5-44.2C66.7,192.3,59.8,177.4,57.2,172.6Z" transform="translate(0 -1)"/><path class="cls-2" d="M57.2,254.7a1.11,1.11,0,0,1-1.1-1.1V191.9a1.1,1.1,0,1,1,2.2,0h0v61.7A1.11,1.11,0,0,1,57.2,254.7Z" transform="translate(0 -1)"/><path class="cls-8" d="M77.9,218.6c0,15.9-3.6,28.8-8.1,28.8s-8.1-12.9-8.1-28.8c0-18.5,8.1-28.8,8.1-28.8S77.9,199.9,77.9,218.6Z" transform="translate(0 -1)"/><path class="cls-2" d="M69.8,248c-5.8,0-9-15.2-9-29.4,0-18.4,7.9-28.7,8.2-29.1l.7-.9.8.9c.3.4,8.2,10.5,8.2,29.1C78.8,232.8,75.7,248,69.8,248Zm0-56.8c-2,3.1-7.2,12.6-7.2,27.3,0,17.4,4.2,28.1,7.2,28.1S77,235.9,77,218.5C77.1,203.7,71.8,194.3,69.8,191.2Z" transform="translate(0 -1)"/><path class="cls-2" d="M69.8,243.3c-.4.1-.8-.3-.9-.7V203.4a.92.92,0,0,1,1.1-.7,1,1,0,0,1,.7.7v39.2C70.6,243,70.2,243.4,69.8,243.3Z" transform="translate(0 -1)"/><polygon class="cls-3" points="74.8 266.9 48 266.9 44 232.6 77.8 232.6 74.8 266.9"/><path class="cls-2" d="M75.4,268.5h-28l-4.1-35.6H78.5Zm-26.8-1.3H74.3l2.8-33H44.7Z" transform="translate(0 -1)"/><path class="cls-2" d="M74.8,268.9H48a1.17,1.17,0,0,1-1.1-.9l-4-34.3a1.14,1.14,0,0,1,.3-.8,1.23,1.23,0,0,1,.8-.4H77.8a1,1,0,0,1,1.1.9v.2l-3,34.4A1.17,1.17,0,0,1,74.8,268.9Zm-25.9-2.1H73.8l2.7-32.2H45.2Z" transform="translate(0 -1)"/><rect class="cls-3" x="39.3" y="228" width="43.1" height="5"/><path class="cls-2" d="M83.1,234.7H38.7v-6.3H83.1ZM40,233.4H81.8v-3.7H40Z" transform="translate(0 -1)"/><path class="cls-2" d="M82.4,235.1H39.3a1.11,1.11,0,0,1-1.1-1.1v-5a1.11,1.11,0,0,1,1.1-1.1H82.4a1.11,1.11,0,0,1,1.1,1.1v5A1.11,1.11,0,0,1,82.4,235.1Zm-42-2.1h41v-2.9h-41Z" transform="translate(0 -1)"/><path class="cls-2" d="M189.3,92.5v14.1a16,16,0,0,1-4.8,1.6,27.6,27.6,0,0,1-5.7.6A16.26,16.26,0,0,1,171,107a11.44,11.44,0,0,1-5-5.2,17.37,17.37,0,0,1-1.7-8.1,18.27,18.27,0,0,1,1.7-8,12.53,12.53,0,0,1,5-5.2,15.49,15.49,0,0,1,7.6-1.8,18.36,18.36,0,0,1,5.7.9,13.31,13.31,0,0,1,4.5,2.5L187,86a16,16,0,0,0-4-2.3,12.51,12.51,0,0,0-4.3-.7,8.24,8.24,0,0,0-6.8,2.7c-1.5,1.8-2.3,4.5-2.3,7.9q0,5.4,2.4,8.1c1.6,1.8,3.9,2.7,7,2.7a21,21,0,0,0,5.6-.8V96.2h-6.3V92.4l11,.1Z" transform="translate(0 -1)"/><path class="cls-2" d="M214.5,87.6v20.7h-5V105a5.89,5.89,0,0,1-2.7,2.7,9.1,9.1,0,0,1-4,1,8.44,8.44,0,0,1-8-5,12.2,12.2,0,0,1-1.1-5.6,13.88,13.88,0,0,1,1.2-5.7,9.38,9.38,0,0,1,3.2-3.9,8.63,8.63,0,0,1,4.7-1.4,7.92,7.92,0,0,1,4,1,5.89,5.89,0,0,1,2.7,2.7V87.7l5-.1Zm-6.4,15.3a8.1,8.1,0,0,0,1.4-5,8.39,8.39,0,0,0-1.4-5.1,5.09,5.09,0,0,0-7.2-.6l-.6.6a8.39,8.39,0,0,0-1.4,5.1,7.81,7.81,0,0,0,1.4,4.9,4.78,4.78,0,0,0,4,1.7A4,4,0,0,0,208.1,102.9Z" transform="translate(0 -1)"/><path class="cls-2" d="M249.4,89.2c1.1,1.4,1.7,3.6,1.7,6.4v12.7H246V95.8a6.37,6.37,0,0,0-.8-3.6,2.88,2.88,0,0,0-2.6-1.1,3.85,3.85,0,0,0-3.3,1.5,6,6,0,0,0-1.2,4.1v11.6H233V95.8a6.23,6.23,0,0,0-.8-3.5,2.88,2.88,0,0,0-2.6-1.1,3.85,3.85,0,0,0-3.3,1.5,6,6,0,0,0-1.2,4.1v11.6h-5V93.5a58.28,58.28,0,0,0-.3-5.9h4.8l.4,3.3a6.43,6.43,0,0,1,2.6-2.8,6.71,6.71,0,0,1,3.9-1c3.1,0,5.2,1.3,6.1,3.9a7.79,7.79,0,0,1,2.8-2.9,7.92,7.92,0,0,1,4-1A5.94,5.94,0,0,1,249.4,89.2Z" transform="translate(0 -1)"/><path class="cls-2" d="M274.5,98.2H260.4a7.79,7.79,0,0,0,1.6,4.9,6,6,0,0,0,4.4,1.6,10.26,10.26,0,0,0,6.3-2.2l1.5,3.5a13.05,13.05,0,0,1-7.9,2.6,10,10,0,0,1-10.8-9.1V97.8a11,11,0,0,1,1.3-5.6,9.18,9.18,0,0,1,3.5-3.8,10.67,10.67,0,0,1,5.2-1.4,8.56,8.56,0,0,1,6.7,2.8,11.42,11.42,0,0,1,2.5,7.6v.8ZM262.2,92a5.69,5.69,0,0,0-1.6,3.5h9.6a5.71,5.71,0,0,0-1.4-3.5,4.14,4.14,0,0,0-3.2-1.2A4.23,4.23,0,0,0,262.2,92Z" transform="translate(0 -1)"/><rect class="cls-9" x="223.5" y="221.9" width="14.5" height="9"/><rect class="cls-5" x="65.5" y="76.4" width="80.7" height="33.8"/><path class="cls-2" d="M146.1,109H65.4l2.2,2.2V77.4l-2.2,2.2h80.7l-2.2-2.2v33.8c0,2.8,4.4,2.8,4.4,0V77.4a2.22,2.22,0,0,0-2.2-2.2H65.4a2.22,2.22,0,0,0-2.2,2.2v33.8a2.22,2.22,0,0,0,2.2,2.2h80.7C148.9,113.3,148.9,109,146.1,109Z" transform="translate(0 -1)"/><rect class="cls-3" x="67.6" y="102.8" width="76.3" height="5.6"/><path class="cls-2" d="M144.5,110H67v-6.9h77.6V110Zm-76.2-1.3h75v-4.3h-75Z" transform="translate(0 -1)"/><rect class="cls-10" width="350" height="349"/></svg>