<svg id="Layer_1" data-name="Layer 1" xmlns="http://www.w3.org/2000/svg" viewBox="0 0 350 349"><defs><style>.cls-1{fill:none;}.cls-2{fill:#d3d3d3;}.cls-3{fill:#0f7cff;}.cls-4{fill:#559de5;}.cls-5{fill:#414242;}.cls-6{fill:#0666c6;}.cls-7{fill:#d5d5d5;}.cls-8{fill:#dfdfdf;}.cls-9{fill:#a5a5a5;}.cls-10{fill:#fff;}.cls-11{fill:#837fcb;}.cls-12{fill:#d4d4d4;}.cls-13{fill:#f2f2f2;}.cls-14{fill:#a4a4a4;}.cls-15{fill:#f1f1f1;}</style></defs><title>about2</title><rect class="cls-1" width="350" height="349"/><path class="cls-2" d="M36.25,213.27l-4,1.43a9.43,9.43,0,0,1-6.54,0L12,209.76c-1.1-.43-1.44-1.33-.75-2a2.24,2.24,0,0,1,.75-.47l6.13-2.21a3.55,3.55,0,0,1,2.32,0l15.83,5.6c1.17.38,1.61,1.26,1,2A2.12,2.12,0,0,1,36.25,213.27Z" transform="translate(1 -0.89)"/><path class="cls-3" d="M30.13,185.68l-6.76,2.47h0l-13.08-4.69h0L17,181h0Z" transform="translate(1 -0.89)"/><path class="cls-4" d="M30.13,187.5,23.37,190h0l-13.08-4.69h0L17,182.81h0l13.09,4.69Z" transform="translate(1 -0.89)"/><path class="cls-5" d="M23.37,188.93l-.63-.13L9.23,184v-.78l.42-.26,7.39-2.6.63.13,13.51,4.81v.79l-.63.26Zm-11.19-5.47,11.19,4,4.86-1.69-11.19-4Z" transform="translate(1 -0.89)"/><path class="cls-3" d="M10.07,183.46v22.39h0l13.09,4.69h0V188.15h0Z" transform="translate(1 -0.89)"/><path class="cls-5" d="M23.16,211.32l-.63-.13L9,206.37V183.2l1.05-.39.64.13,13.51,4.82v23.17Zm-12-5.73,11.19,4v-21l-11.19-4Z" transform="translate(1 -0.89)"/><path class="cls-6" d="M30.34,185.81v22.38h0l-6.76,2.48h0V188.28h0l6.76-2.47C30.13,185.68,30.34,185.68,30.34,185.81Z" transform="translate(1 -0.89)"/><path class="cls-5" d="M23.37,211.32l-1.05-.39V187.76l.63-.26,7.39-2.61,1.05.39v23.17l-.63.26Zm.85-22.78v21l4.85-1.7v-21Z" transform="translate(1 -0.89)"/><path class="cls-7" d="M338.54,214.83l-130,46.34a27.63,27.63,0,0,1-17.74,0L58.42,213.79c-2.69-.92-3.65-3-2.17-4.65a5.19,5.19,0,0,1,2.17-1.34l136.15-48.55a8,8,0,0,1,5.49,0l137.85,49.33C341.71,210,342.34,213.53,338.54,214.83Z" transform="translate(1 -0.89)"/><path class="cls-8" d="M67.28,173.44,67.07,127l246.77-2.08.21,79.92c.21,1.05-.74,2.06-2.32,2.47L194.15,248.81a23.21,23.21,0,0,1-13.93-.4L70.66,209.23C68.34,208.45,67.28,174.48,67.28,173.44Z" transform="translate(1 -0.89)"/><polygon class="cls-9" points="188.61 170.99 188.4 248.7 195.15 247.91 315.05 205.35 314.63 127.51 193.46 170.6 188.61 170.99"/><path class="cls-5" d="M188,250.11a23.53,23.53,0,0,1-8.23-1.3L70.24,209.63c-3-1-3.59-35.28-3.8-36.32h0l-.21-47,248.25-2.08.21,80.31c.32,1.24-.83,2.44-2.75,2.86L194.57,249.2A23.38,23.38,0,0,1,188,250.11ZM67.91,127.36l.22,46.08h0c-.22,1.69,1.05,34.36,3,35.4L180.64,248a22.52,22.52,0,0,0,13.09.39l117.58-41.52c1.3-.36,2.07-1.21,1.9-2.08L313,125.28Z" transform="translate(1 -0.89)"/><path class="cls-8" d="M193.94,168.88l117.58-41.52c3.59-1.3,3.17-3.51-1-5L200.91,83.24a25.57,25.57,0,0,0-13.94-.4L69.39,124.37c-3.59,1.3-3.16,3.51,1.06,4.94L180,168.49C184.23,169.93,190.35,170.19,193.94,168.88Z" transform="translate(1 -0.89)"/><path class="cls-5" d="M187.82,170.19a23.53,23.53,0,0,1-8.23-1.31L70,129.83c-2.11-.6-3.55-1.83-3.8-3.25.11-1.1,1.15-2.09,2.74-2.6L186.55,82.45a25.43,25.43,0,0,1,14.57.39L310.68,122c2.1.61,3.54,1.84,3.8,3.26-.11,1.1-1.15,2.09-2.75,2.6L194.36,169.27A19.25,19.25,0,0,1,187.82,170.19Zm5.28-87.61a18.36,18.36,0,0,0-5.7.79L69.81,124.76c-1.26.52-2.11,1-2.11,1.69a3.81,3.81,0,0,0,3,2.34L180.22,168a22.51,22.51,0,0,0,13.09.39h0l117.58-41.52c1.26-.52,2.11-1,2.11-1.69a3.79,3.79,0,0,0-3-2.34L200.48,83.63A26.64,26.64,0,0,0,193.1,82.58Z" transform="translate(1 -0.89)"/><path class="cls-8" d="M67.07,118.38a4.49,4.49,0,0,0,3.38,2.47L180,160a25.44,25.44,0,0,0,13.93.39L311.52,118.9a3.89,3.89,0,0,0,2.32-1.82v10c.21,1.05-.74,2.06-2.32,2.47L193.94,171.1a23.29,23.29,0,0,1-13.93-.39L70.45,131.66c-2.32-.91-3.59-2-3.38-3Z" transform="translate(1 -0.89)"/><path class="cls-8" d="M69.39,116,187,74.51a23.32,23.32,0,0,1,13.94.39l109.56,39.18c4.22,1.44,4.64,3.65,1,5L193.94,160.55a23.21,23.21,0,0,1-13.93-.39L70.45,121C66.23,119.55,65.8,117.34,69.39,116Zm14.78,4.29,97.74,34.89a20.09,20.09,0,0,0,11.4.26l105.12-37c3-1,2.54-2.86-.84-4L199.85,79.59a20.09,20.09,0,0,0-11.4-.26l-105.13,37C80.58,117.34,80.79,119.16,84.17,120.33Z" transform="translate(1 -0.89)"/><path class="cls-10" d="M188.45,96.9l-78.74,27.73,79.16,28.24a20,20,0,0,0,11.4.26l80-28.11-77.9-27.86A24.28,24.28,0,0,0,188.45,96.9Z" transform="translate(1 -0.89)"/><path class="cls-10" d="M200.91,77A25.47,25.47,0,0,0,187,76.6L69.39,118.12a3.71,3.71,0,0,0-1.9,1.17,7.21,7.21,0,0,0,3,1.69L180,160.16a25.44,25.44,0,0,0,13.93.39L311.52,119a3.71,3.71,0,0,0,1.9-1.17,7.23,7.23,0,0,0-2.95-1.69Zm97.52,43.47-105.12,37.1a20.09,20.09,0,0,1-11.4-.26l-97.74-35c-2.53-.91-3.38-2.21-2.32-3.25-1-.89-.61-2.11.83-2.71a3.12,3.12,0,0,1,.43-.15l105.13-37a20.09,20.09,0,0,1,11.4.26l97.74,34.88c2.53.92,3.38,2.22,2.32,3.26,1,.85.7,2-.68,2.65A2.75,2.75,0,0,1,298.43,120.46Z" transform="translate(1 -0.89)"/><polygon class="cls-8" points="290.14 209.26 290.36 166.69 201.27 198.19 201.27 240.89 290.14 209.26"/><path class="cls-5" d="M199.64,242.43V199l.21-.13,89.72-31.89v43.35l-.21.13Zm1.27-43.09v41.92L288.72,210V168.23Z" transform="translate(1 -0.89)"/><polygon class="cls-8" points="288.46 208.47 288.46 167.21 290.36 166.69 290.14 209.26 201.27 240.89 201.27 239.45 288.46 208.47"/><path class="cls-5" d="M199.64,242.43v-2.22l.21-.13,87-31V168l3-1v43.35l-.21.13Zm1.27-1.83v.53l87.81-31.24V168.1l-.63.26V209.5l-.21.13Z" transform="translate(1 -0.89)"/><polygon class="cls-8" points="308.09 203.01 308.3 160.71 296.27 164.87 296.06 207.3 308.09 203.01"/><path class="cls-5" d="M294.42,208.84V165.63l13.09-4.56v43.09ZM295.69,166v41.65l11-3.9V162.25Z" transform="translate(1 -0.89)"/><polygon class="cls-8" points="306.4 202.23 306.4 161.35 308.3 160.71 308.09 203.01 296.06 207.3 296.06 206 306.4 202.23"/><path class="cls-5" d="M294.42,208.84v-2.21l10.35-3.77V162l3-1.05V204Zm1.27-1.82v.52l11-3.9V162.12l-.64.26v40.87Z" transform="translate(1 -0.89)"/><path class="cls-5" d="M143.91,233.45l-16.68-6.12V188.41l16.68,5.73Zm-15.62-6.38,14.56,5.2V194.79l-14.56-4.95Z" transform="translate(1 -0.89)"/><polygon class="cls-8" points="130.77 188.69 130.77 225.4 144.28 230.21 144.28 231.91 128.66 226.31 128.66 187.91 130.77 188.69"/><path class="cls-5" d="M143.91,233.45l-16.68-6.12V188.15l3.17,1V225.9l13.51,4.81Zm-15.62-6.38,14.56,5.2v-.91l-13.51-4.81V189.84l-1.05-.39Z" transform="translate(1 -0.89)"/><polygon class="cls-8" points="144.28 207.43 144.28 209.26 131.61 204.96 131.61 203.01 144.28 207.43"/><path class="cls-5" d="M159.32,239.17l-16.68-6.11V193.88l16.68,5.72Zm-15.41-6.51,14.57,5.21V200l-14.57-4.94Z" transform="translate(1 -0.89)"/><polygon class="cls-8" points="146.39 194.29 146.39 231.12 159.9 235.94 159.9 237.63 144.28 232.03 144.28 193.64 146.39 194.29"/><path class="cls-5" d="M159.32,239.17l-16.68-6.11V193.88l3.17,1v36.7l13.51,4.82Zm-15.41-6.51,14.57,5.21V237L145,232.14v-36.7l-1.06-.39Z" transform="translate(1 -0.89)"/><polygon class="cls-8" points="169.82 189.86 148.29 182.18 148.29 170.73 169.82 178.41 169.82 189.86"/><polygon class="cls-8" points="148.29 170.73 155.04 168.51 176.57 176.19 169.82 178.41 148.29 170.73"/><polygon class="cls-10" points="151.24 171.64 155.04 170.47 176.57 178.15 172.78 179.32 151.24 171.64"/><polygon class="cls-9" points="169.82 189.86 176.57 187.65 176.57 176.19 169.82 178.41 169.82 189.86"/><path class="cls-5" d="M176.21,176.82,154,168.88l-7.6,2.48v12l22.17,7.94,7.6-2.47ZM154,169.93l20.06,7.15-4,1.31-1.27.39-20.06-7.16Zm-6.12,12.88V172.4L168,179.56V190Zm26.81,5.47-5.28,1.82V179.69l1.27-.39,4-1.3Z" transform="translate(1 -0.89)"/><path class="cls-10" d="M165.44,184.5c0,2.09-2.32,2.87-5.06,1.83-3-1.25-4.82-3.27-5.07-5.47,0-2.08,2.32-2.86,5.07-1.82C163.37,180.26,165.25,182.29,165.44,184.5Z" transform="translate(1 -0.89)"/><path class="cls-5" d="M160.16,185.81a7.43,7.43,0,0,1-2.74-.53c-3.31-1.25-5.37-3.46-5.49-5.85-.18-1,.56-1.94,1.9-2.48a6.52,6.52,0,0,1,4.43.26c3.28,1.29,5.33,3.47,5.49,5.86.18,1-.56,1.94-1.9,2.47A5.81,5.81,0,0,1,160.16,185.81Zm-4.64-8.21a3.12,3.12,0,0,0-1.06.13,1.76,1.76,0,0,0-1.05,1.7c.18,2.08,2,4,4.85,5.07a4.72,4.72,0,0,0,3,.26,1.74,1.74,0,0,0,1.06-1.69c-.19-2.08-2-4-4.86-5.07A4.89,4.89,0,0,0,155.52,177.6Z" transform="translate(1 -0.89)"/><polygon class="cls-9" points="188.61 160.44 188.61 170.99 194.31 170.47 313.79 128.03 314.84 126.86 314.21 117.1 194.94 159.66 191.77 160.31 188.61 160.44"/><path class="cls-8" d="M217.16,247l-1.9,4a6.15,6.15,0,0,1-2.74.78,5.17,5.17,0,0,1-2.75-.78l-2.11-3.78Z" transform="translate(1 -0.89)"/><polygon class="cls-9" points="213.73 247.26 213.31 250.78 216.26 250.26 217.53 246.48 213.73 247.26"/><path class="cls-5" d="M212.31,252.06a6,6,0,0,1-3.38-.91l-.21-.13-2.54-4.43,11.61-.26L215.47,251l.21.26A6.49,6.49,0,0,1,212.31,252.06Zm-2.12-1.43a4.58,4.58,0,0,0,4.23,0l1.47-3.26-7.6.13Z" transform="translate(1 -0.89)"/><path class="cls-8" d="M204.71,242h0l4.43-10.55h0c.25-1,1.71-1.75,3.38-1.69s3,.73,3.37,1.69h0L220.33,242h0a2.39,2.39,0,0,1,.21,1.17c0,2.73-3.59,4.95-8,4.95s-8-2.21-8-4.95h0A1.2,1.2,0,0,1,204.71,242Z" transform="translate(1 -0.89)"/><path class="cls-10" d="M219.9,242l-3.79-9.25a4.16,4.16,0,0,0-1.06-.13c-1.61,0-3,.73-3.38,1.7h0l-4.43,10.54h0a2.2,2.2,0,0,0-.21,1.17,1.07,1.07,0,0,0,.21.78,12.43,12.43,0,0,0,5.07,1.17c4.43,0,8-2.21,8-4.94h0c-.21-.26-.21-.65-.43-1Z" transform="translate(1 -0.89)"/><path class="cls-5" d="M212.31,248.67c-4.78,0-8.64-2.39-8.66-5.33v-.78h0l4.64-11.2v-.26h0a4.4,4.4,0,0,1,3.8-1.69c1.84,0,3.46.74,4,1.82l.21.26,4.64,11.2h0v.78C220.77,246.34,217,248.63,212.31,248.67Zm-6.76-7h0l-.21.52a2.11,2.11,0,0,0-.21,1c0,2.44,3.2,4.43,7.17,4.43s7.18-2,7.18-4.42h0a1.75,1.75,0,0,0-.21-1l-.21-.52h0l-4.22-10c-.26-.86-1.6-1.43-3-1.27a2.33,2.33,0,0,0-2.07,1.27l-.21.39Z" transform="translate(1 -0.89)"/><polygon class="cls-5" points="216.05 226.96 214.78 226.57 236.1 197.93 237.37 198.32 216.05 226.96"/><polygon class="cls-5" points="231.88 215.5 230.62 215.11 247.71 192.85 248.98 193.12 231.88 215.5"/><polygon class="cls-5" points="261.01 212.51 259.75 212.12 278.75 187.65 280.22 188.04 261.01 212.51"/><polygon class="cls-5" points="133.3 209.65 132.46 209.13 141.74 202.75 142.59 203.27 133.3 209.65"/><polygon class="cls-5" points="132.54 213.43 138.53 209.22 139.32 209.65 133.33 213.86 132.54 213.43"/><polygon class="cls-5" points="148.09 219.95 154.08 215.75 154.87 216.18 148.88 220.38 148.09 219.95"/><polygon class="cls-6" points="115.57 198.58 141.11 189.6 141.11 183.87 133.72 186.61 115.57 195.85 115.57 198.58"/><polygon class="cls-11" points="115.57 195.85 47.8 171.25 65.75 162.01 133.72 186.61 115.57 195.85"/><polygon class="cls-4" points="115.57 195.85 47.8 173.2 65.75 163.96 130.98 187.65 115.57 195.85"/><polygon class="cls-3" points="141.11 183.87 73.14 159.27 65.75 162.01 133.72 186.61 141.11 183.87"/><polygon class="cls-4" points="138.37 184.91 73.14 161.35 65.75 163.96 130.98 187.65 138.37 184.91"/><polygon class="cls-3" points="115.57 198.58 47.8 173.98 47.8 171.25 115.57 195.85 115.57 198.58"/><path class="cls-5" d="M46.17,172,63.9,162.9l.64-.26.21-.13,7.39-2.61,68.39,24.73v6l-26,9.24-68.4-24.73Zm68.4,24.34,17.31-8.85L65,163.29l-17.31,8.85Zm-42.43-35.8-6.34,2.22,10.35,3.77L132.72,187l6.33-2.22Zm67.55,29.81v-5l-6.55,2.35-5.7,2.86-12.24,6.25V199ZM47.23,174.74,114.14,199v-2.08L47.23,172.66Z" transform="translate(1 -0.89)"/><path class="cls-3" d="M322.71,143.76l-13.3-4.68h0a4,4,0,0,0-2.11.13L201.12,177c-1.93.9-3.09,2.29-3.17,3.78v13.93a1.76,1.76,0,0,0,.85,1.56h0c.11,0,.21.06.21.13h0l12.87,4.55,8.45-11.32,4.43-1.69L307.3,158.6c1.93-.9,3.09-2.29,3.17-3.77v-.65l5.91-2.35Z" transform="translate(1 -0.89)"/><path class="cls-4" d="M309.41,142.46h0a4,4,0,0,0-2.11.13L201.12,180.34c-1.93.9-3.09,2.28-3.17,3.77h0l19,6.64,3.38,2.08,4.43-1.69,82.54-29.29c1.93-.89,3.09-2.28,3.17-3.77v-.65l5.91-2.34,6.12-7.81Z" transform="translate(1 -0.89)"/><path class="cls-5" d="M212.31,201.42l-13.73-4.81c-.11,0-.21-.06-.21-.13h0a2,2,0,0,1-1.26-1.95V180.6c0-1.66,1.38-3.21,3.58-4.17l106.4-37.74a3.91,3.91,0,0,1,2.74-.13H310l12.88,4.55c.57.17.8.59.52.94a.47.47,0,0,1-.1.1h0l-6.12,7.68-5.91,2.35v.39c-.05,1.66-1.38,3.21-3.59,4.16L225.18,188,221,189.71Zm96.26-61.95c-.22,0-.64.13-.85.13L201.33,177.34c-1.77.79-2.86,2-3,3.39v13.93a1.28,1.28,0,0,0,.64,1.17l12.45,4.42,8.23-11.06,4.65-1.82,82.54-29.29c1.77-.79,2.86-2,2.95-3.38v-.92l6.12-2.47,5.7-7.29-12.24-4.29h0l-.42-.13C309,139.47,308.78,139.47,308.57,139.47Z" transform="translate(1 -0.89)"/><path class="cls-6" d="M320.39,163,214.21,200.77c-1.69.65-3.17,0-3.17-1.56V185.28c.07-1.48,1.24-2.87,3.17-3.77l106.18-37.75c1.69-.65,3.16,0,3.16,1.56v13.93C323.67,160.77,322.46,162.21,320.39,163Z" transform="translate(1 -0.89)"/><path class="cls-5" d="M212.94,201.42a4,4,0,0,1-1.27-.26,2.19,2.19,0,0,1-1.48-1.95V185.28c.05-1.66,1.39-3.21,3.59-4.16l106.4-37.75a4.64,4.64,0,0,1,2.95-.13,2.17,2.17,0,0,1,1.48,1.95v13.93c-.05,1.66-1.38,3.21-3.59,4.17L214.63,201A2.89,2.89,0,0,1,212.94,201.42ZM321.65,144a7.25,7.25,0,0,0-.84.13L214.42,181.9c-1.78.79-2.86,2-3,3.38v13.93q0,1,.63,1.17a2,2,0,0,0,1.27-.13l106.39-37.74c1.78-.79,2.86-2,3-3.39V145.19q0-1-.63-1.17C322.08,144.15,321.86,144,321.65,144Z" transform="translate(1 -0.89)"/><path class="cls-5" d="M187.82,161.85a23.3,23.3,0,0,1-8.23-1.3L70,121.37c-2.11-.6-3.55-1.83-3.8-3.25.11-1.11,1.15-2.09,2.74-2.6h0L186.55,74a25.43,25.43,0,0,1,14.57.39l109.56,39.18c2.1.6,3.54,1.84,3.8,3.26-.11,1.1-1.15,2.09-2.75,2.6L194.15,160.94A20.24,20.24,0,0,1,187.82,161.85Zm-118-45.42c-1.26.52-2.11,1-2.11,1.69a3.81,3.81,0,0,0,3,2.34l109.56,39.18a22.51,22.51,0,0,0,13.09.39l117.58-41.52c1.26-.52,2.11-1,2.11-1.69a3.82,3.82,0,0,0-3-2.35L200.48,75.3a22.57,22.57,0,0,0-13.08-.4Zm118.64,40.22a22.23,22.23,0,0,1-6.75-1L84,120.72c-1.77-.5-3-1.54-3.17-2.73.1-.94,1-1.77,2.32-2.21l105.13-37a20.06,20.06,0,0,1,12,.26l97.74,35c1.77.51,3,1.55,3.17,2.74-.1.93-1,1.77-2.32,2.21L193.73,156A21.33,21.33,0,0,1,188.45,156.65Zm5.07-77.58a16.48,16.48,0,0,0-4.65.65l-105.12,37a1.92,1.92,0,0,0-1.48,1.3c0,.65.84,1.3,2.32,1.82h0l97.74,34.89a18.38,18.38,0,0,0,10.55.26L298,118.12a1.93,1.93,0,0,0,1.48-1.3c0-.65-.85-1.3-2.32-1.82L199.43,80.11A15,15,0,0,0,193.52,79.07Z" transform="translate(1 -0.89)"/><polygon class="cls-9" points="260.17 118.01 260.17 107.21 221.75 120.35 222.38 131.16 260.17 118.01"/><polygon class="cls-8" points="221.75 120.35 185.44 107.08 185.44 117.88 222.38 131.16 221.75 120.35"/><polygon class="cls-8" points="270.51 120.35 261.22 116.32 260.17 118.01 222.17 131.68 229.98 134.28 270.51 120.35"/><path class="cls-5" d="M260,107.84,221.59,93.78l-37.78,13.93V118.9l37.57,13.54L260,119.16ZM221.59,95l36.1,13.15-36.94,12.62L185.92,108Zm-36.52,23.56v-9.63l34.83,12.75.22,4.56.21,5.08Zm37,12.76-.22-5.34-.21-4.43,37-12.75v9.76Z" transform="translate(1 -0.89)"/><path class="cls-5" d="M187.82,172.4a23.3,23.3,0,0,1-8.23-1.3L70,132.05c-2.21-.59-3.68-1.91-3.8-3.39V118.51l1.47-.13a4.69,4.69,0,0,0,3,2.21l109.56,39.18a22.51,22.51,0,0,0,13.09.39L311.1,118.51c1-.39,1.9-.91,1.9-1.43l1.48.13v10c.32,1.24-.83,2.44-2.75,2.86L194.15,171.62A21,21,0,0,1,187.82,172.4ZM67.91,120.2v8.46c-.21.91,1.06,1.83,3,2.61l109.56,39.18a22.68,22.68,0,0,0,13.09.39L311.1,129.31c1.3-.36,2.07-1.2,1.9-2.08v-8.46a5.2,5.2,0,0,1-1.27.52L194.15,160.81a25.31,25.31,0,0,1-14.56-.39L70,121.24A6.09,6.09,0,0,1,67.91,120.2Z" transform="translate(1 -0.89)"/><path class="cls-12" d="M93.88,253.88l-19.63,6.9a16.5,16.5,0,0,1-10.35,0l-19-6.9c-1.93-.65-2.64-2.13-1.59-3.32a3.68,3.68,0,0,1,1.59-1l22.58-7.81a7,7,0,0,1,4,0l22.38,7.94C95.31,250.63,94.55,252.52,93.88,253.88Z" transform="translate(1 -0.89)"/><path class="cls-13" d="M90.5,245.55l-24.7,8.59h-.21l-24.06-8.59v-.13L65.8,237H66l24.28,8.59Z" transform="translate(1 -0.89)"/><path class="cls-10" d="M90.29,248.67l-24.7,8.6h-.21l-24.06-8.6v-.13l24.27-8.46h.21l24.28,8.59C90.29,248.54,90.29,248.54,90.29,248.67Z" transform="translate(1 -0.89)"/><path class="cls-5" d="M66,254.79l-.42-.13-24.48-8.72v-.39a.94.94,0,0,1,.42-.52l24.7-8.59.42.13,24.7,8.72v.39a.92.92,0,0,1-.43.52Zm-23-9.24,22.79,8.2,23.44-8.2-23-8.07Z" transform="translate(1 -0.89)"/><path class="cls-8" d="M41.53,245.68v3.13l24.06,8.59c.12,0,.21-.06.21-.13h0v-3.13l-24.27-8.46C41.74,245.55,41.53,245.55,41.53,245.68Z" transform="translate(1 -0.89)"/><path class="cls-5" d="M65.8,257.79a.54.54,0,0,1-.42-.13l-24.49-8.72v-3.65l.85-.39.42.13,24.49,8.72v3.65l-.42.26A.91.91,0,0,1,65.8,257.79Zm-23.43-9.38,22.8,8.2v-2.08l-22.8-8.2Z" transform="translate(1 -0.89)"/><path class="cls-14" d="M90.71,245.68v3.13L66,257.4c-.11,0-.21-.06-.21-.13h0v-3.13Z" transform="translate(1 -0.89)"/><path class="cls-5" d="M66,257.92l-.42-.13a.66.66,0,0,1-.42-.52V254l.42-.26L90.5,245l.42.13a.68.68,0,0,1,.43.52v3.26l-.43.26Zm.64-3.39v2.08l23.43-8.2v-2.08Z" transform="translate(1 -0.89)"/><path class="cls-14" d="M66.23,247.11h0c-2.9,0-5.26-1.42-5.28-3.2V231.62c0-.19.18-.36.5-.39h9.42c.31,0,.6.12.63.31a.11.11,0,0,1,0,.08v12.24C71.46,245.64,69.12,247.09,66.23,247.11Z" transform="translate(1 -0.89)"/><path class="cls-5" d="M66.23,247.63c-3.27,0-5.91-1.63-5.91-3.64h0V231.75c0-.41.5-.76,1.18-.78h9.37c.68,0,1.24.31,1.27.73V244C72.07,246,69.46,247.59,66.23,247.63Zm-4.44-16v12.24c0,1.51,2,2.73,4.44,2.73s4.43-1.22,4.43-2.73V231.62Z" transform="translate(1 -0.89)"/><path class="cls-15" d="M70.87,230.19H61.58c-.31,0-.59.12-.63.31a.11.11,0,0,0,0,.08v3.91c0,1.79,2.37,3.25,5.28,3.25s5.27-1.46,5.27-3.25v-3.91A.86.86,0,0,0,70.87,230.19Z" transform="translate(1 -0.89)"/><path class="cls-10" d="M71.08,228.5H61.79c-.31,0-.59.11-.63.31a.11.11,0,0,0,0,.08v3.9c0,1.8,2.36,3.26,5.28,3.26s5.27-1.46,5.27-3.26h0v-3.9C71.69,228.68,71.42,228.51,71.08,228.5Z" transform="translate(1 -0.89)"/><path class="cls-5" d="M66.23,238.26c-3.27,0-5.91-1.63-5.91-3.64h0v-3.91c0-.41.5-.76,1.18-.78h9.37c.68,0,1.24.31,1.27.73v4C72.07,236.61,69.46,238.22,66.23,238.26Zm-4.44-7.55v3.78c0,1.51,2,2.73,4.44,2.73s4.43-1.22,4.43-2.73v-3.78Z" transform="translate(1 -0.89)"/><ellipse class="cls-8" cx="67.33" cy="216.62" rx="26.39" ry="16.27"/><path class="cls-10" d="M89.87,210l-3.8-2c-7.91,7.62-24.33,9.84-36.68,5l0,0a12.37,12.37,0,0,0-4.22,8.72,11.17,11.17,0,0,0,3,7.42c4.84,2.94,11.37,4.57,18.16,4.56,14.57,0,26.38-7.29,26.38-16.27h0A12.71,12.71,0,0,0,89.87,210Z" transform="translate(1 -0.89)"/><path class="cls-5" d="M66.23,234.23c-15,0-27.08-7.56-27-16.79s12.25-16.7,27.23-16.67,27.08,7.56,27,16.8-12,16.64-26.94,16.66Zm0-32.54c-14.17,0-25.7,7-25.76,15.75S51.85,233.28,66,233.32s25.69-7,25.75-15.75S80.39,201.73,66.23,201.69Z" transform="translate(1 -0.89)"/><path class="cls-14" d="M84.17,205.59a11.11,11.11,0,0,1,.42,2.6c0,9-11.81,16.27-26.39,16.27a37.4,37.4,0,0,1-17.94-4.29C42.58,229,56.11,235,70.47,233.61c12.77-1.27,22.15-8.07,22.14-16C92.69,213,89.62,208.66,84.17,205.59Z" transform="translate(1 -0.89)"/><path class="cls-5" d="M66.23,234.23c-13.34,0-24.73-5.94-26.81-14.06l.63-1.82.42,1.43c10.45,5.91,26.71,5.49,36.3-1,4.32-2.9,6.73-6.69,6.77-10.63a11.12,11.12,0,0,0-.43-2.6l-.42-1.3,1.69.91c5.48,3.17,8.61,7.6,8.66,12.24.37,9-11.21,16.55-25.88,16.78ZM41.32,221.34c2.75,7.09,13.09,12,24.91,12,14.16,0,25.68-7,25.75-15.75,0-4-2.38-7.78-6.76-10.68v1.43c0,9.21-12.13,16.67-27.06,16.66A38.79,38.79,0,0,1,41.32,221.34Z" transform="translate(1 -0.89)"/><path class="cls-8" d="M84.59,203.25c0,6.25-8.23,9.76-18.36,9.76s-18.37-3.51-18.16-9.76C48.08,197,56.26,192,66.34,192S84.58,197,84.59,203.25Z" transform="translate(1 -0.89)"/><path class="cls-10" d="M84.8,203.25a7.12,7.12,0,0,0-1.48-4.43c-3.48-2.61-8.66-4.13-14.14-4.16-10.06,0-18.26,5-18.36,11.19a6.73,6.73,0,0,0,1,3.52,26.45,26.45,0,0,0,14.57,3.51C76.57,213,84.8,209.5,84.8,203.25Z" transform="translate(1 -0.89)"/><path class="cls-5" d="M66.23,213.4c-11.4,0-19-4.17-19-10.15,0-6.47,8.52-11.71,19-11.71s19,5.24,19,11.71C85.22,209.37,77.63,213.4,66.23,213.4Zm0-21c-9.66,0-17.5,4.8-17.53,10.76v.05c0,6.38,8.87,9.24,17.53,9.24s17.52-2.86,17.52-9.24c0-6-7.79-10.79-17.44-10.81Z" transform="translate(1 -0.89)"/><path class="cls-14" d="M70.24,192.18c2.36,1.91,3.63,4.24,3.59,6.64,0,6.25-8.24,9.76-18.37,9.76a33.08,33.08,0,0,1-5.28-.39c3.17,3,9.08,4.69,16.05,4.69,10.13,0,18.36-3.51,18.36-9.76C84.46,197.87,78.54,193.35,70.24,192.18Z" transform="translate(1 -0.89)"/><path class="cls-5" d="M66.23,213.4c-7.39,0-13.51-1.82-16.68-5l-1.06-.91,1.69.26c9.92,1.3,22.59-1.3,22.59-9a8.6,8.6,0,0,0-3.38-6.38l-1.26-1,1.9.26c8.71,1.2,14.92,6,15,11.46C85.22,209.37,77.63,213.4,66.23,213.4ZM51.87,209a25.87,25.87,0,0,0,14.36,3.52c8.65,0,17.52-2.86,17.52-9.24,0-4.64-4.73-8.77-11.82-10.29a8.58,8.58,0,0,1,2.53,6c0,6.12-7.6,10.15-19,10.15A30.69,30.69,0,0,1,51.87,209Z" transform="translate(1 -0.89)"/><path class="cls-12" d="M344.87,232.66l-24.69,8.6a17,17,0,0,1-10.77,0l-18.58-6.51c-1.51-.54-2-1.73-1.16-2.67a2.91,2.91,0,0,1,1.16-.72l28.29-10a4.44,4.44,0,0,1,3.17,0l22.58,7.94c1.52.66,1.88,1.95.82,2.88A2.9,2.9,0,0,1,344.87,232.66Z" transform="translate(1 -0.89)"/><path class="cls-3" d="M339.39,222.12l-28.08,9.76h-.21l-23.22-8.07v-.13L316,213.92h.22Z" transform="translate(1 -0.89)"/><path class="cls-4" d="M339.39,224.59l-28.08,9.77h-.21l-23.22-8.07v-.13L316,216.39h.22Z" transform="translate(1 -0.89)"/><path class="cls-5" d="M311.31,232.53l-.42-.13-23.43-8.2v-.26a.5.5,0,0,1,.42-.39l28.5-9.89.42.13,23.43,8.2v.39a.5.5,0,0,1-.42.39Zm-21.95-8.72,21.95,7.68,26.81-9.37-21.95-7.68Z" transform="translate(1 -0.89)"/><path class="cls-3" d="M287.88,223.94v4.82h0l23.22,8.07h.21V232h0Z" transform="translate(1 -0.89)"/><path class="cls-5" d="M311.1,237.35a.54.54,0,0,1-.42-.13L287.24,229v-5.34l.85-.26.42.13,23.43,8.2v5.34l-.42.13A.54.54,0,0,1,311.1,237.35Zm-22.59-8.85,22,7.68v-3.91l-22-7.68Z" transform="translate(1 -0.89)"/><path class="cls-6" d="M339.39,222.25v4.82h0l-28.08,9.76h-.21V232h0l28.29-9.76Z" transform="translate(1 -0.89)"/><path class="cls-5" d="M311.31,237.48l-.42-.13c-.21-.13-.42-.26-.42-.39v-5.08l.42-.13,28.5-9.89.42.13c.21.13.42.26.42.39v5.08l-.42.13Zm.63-5.21v3.91l26.81-9.37V222.9Z" transform="translate(1 -0.89)"/><path class="cls-5" d="M312.58,228.63a5,5,0,0,1-2.75,0c-.84-.26-.84-.65,0-.91a5,5,0,0,1,2.75,0C313.42,228,313.42,228.37,312.58,228.63Z" transform="translate(1 -0.89)"/><ellipse class="cls-5" cx="316.89" cy="216.97" rx="1.9" ry="0.65"/></svg>