<svg id="_01" data-name=" 01" xmlns="http://www.w3.org/2000/svg" viewBox="0 0 378.01 276.41"><defs><style>.cls-1{fill:#d6f4f4;}.cls-2,.cls-5{fill:#91d1d1;}.cls-2{opacity:0.41;}.cls-2,.cls-3,.cls-32{isolation:isolate;}.cls-10,.cls-3{fill:#fff;}.cls-3{opacity:0.3;}.cls-4{opacity:0.47;}.cls-32,.cls-6{opacity:0.38;}.cls-7{fill:#5ca6b1;}.cls-8{fill:#7ebac4;}.cls-9{fill:#4c969b;}.cls-11{fill:#f5785c;}.cls-12{fill:#840f20;}.cls-13{fill:#ff9e83;}.cls-14{fill:#fcba5a;}.cls-15{fill:#642425;}.cls-16{fill:#521213;}.cls-17{fill:#ffa710;}.cls-18{fill:#c2172a;}.cls-19{fill:#ffbc5a;}.cls-20{fill:#ff8e69;}.cls-21{fill:#66ade1;}.cls-22{fill:#095996;}.cls-23{fill:#197daf;}.cls-24{fill:#4ca2d3;}.cls-25{opacity:0.4;}.cls-26,.cls-32{fill:#fefefe;}.cls-27{opacity:0.27;}.cls-28{fill:#eaa837;}.cls-29{fill:#ef6273;}.cls-30{fill:#89454e;}.cls-31{fill:#fff3c6;}.cls-33{fill:#00bfa3;}.cls-34{fill:#008c7e;}.cls-35{fill:#35424a;}.cls-36{fill:#00d6bc;}.cls-37{opacity:0.1;}.cls-38{fill:#088c7e;}.cls-39{opacity:0.05;}.cls-40{opacity:0.61;}.cls-41{fill:#5bb2c5;}.cls-42{fill:#8edaea;}.cls-43{opacity:0.19;}.cls-44{opacity:0.58;}.cls-45{fill:#dc4652;}.cls-46{fill:#f9a51b;}.cls-47{fill:#f5d79b;}</style></defs><title>1</title><path class="cls-1" d="M1958.5,753.31a57.29,57.29,0,0,1-57.29,57.3,58.74,58.74,0,0,1-7.14-.44,57,57,0,0,1-17.74-5.23q-2.1-1-4.09-2.19a54.32,54.32,0,0,1-5-3.26,56.15,56.15,0,0,1-4.41-3.59,57.27,57.27,0,0,1-6-6.27c-.62-.75-1.21-1.52-1.79-2.3l-.4-.55a57.05,57.05,0,0,1-8.55-17.56,115.82,115.82,0,0,1-49,10.79q-1.82,0-3.63-.06-.78,1.66-1.62,3.3c-.37.73-.75,1.45-1.14,2.17s-.76,1.39-1.15,2.08q-2.46,4.32-5.28,8.4-3.1,4.47-6.62,8.63c-.86,1-1.74,2-2.65,3q-1.93,2.13-4,4.17a113.62,113.62,0,0,1-12.49,10.69l-2.27.09-1.7.07c-4.22.16-8.38.76-12.51,1.12-27.27-.3-52.59-1.22-74.39-2.59-11.17-.7-21.41-1.53-30.53-2.45-6.87-.69-13.09-1.45-18.59-2.25-1.35-1.18-2.66-2.39-3.95-3.64s-2.79-2.76-4.12-4.2c-.24-.25-.48-.5-.71-.76q-1.18-1.31-2.34-2.64a110,110,0,0,1-6.83-8.8,111.84,111.84,0,0,1,83.73-175.58c.79-.06,1.59-.1,2.38-.14l2.35-.09.32-.8c.4-1,.81-1.93,1.23-2.89,1-2.39,2.19-4.74,3.4-7.05a3.65,3.65,0,0,1,.18-.34q1.08-2,2.23-4a117,117,0,0,1,18.87-24.4l0,0q1.64-1.62,3.35-3.18c1-.88,1.93-1.74,2.91-2.58a115.93,115.93,0,0,1,75.28-27.85h.25q4.33,0,8.6.31a116,116,0,0,1,78.45,38.86l.75.84a116.55,116.55,0,0,1,23.82,109.11A57.31,57.31,0,0,1,1958.5,753.31Z" transform="translate(-1580.5 -547.39)"/><path class="cls-2" d="M1774.13,662.37h11.42c0-3.07-.15-6.12-.36-9.16h-11a1,1,0,0,0-1,1v7.2A1,1,0,0,0,1774.13,662.37Zm8,35.39c.65-3.12,1.22-6.28,1.69-9.47h-1.69Zm-21.43-8a13.79,13.79,0,0,0-1.69-1c-1.88-.93-4-1.54-5.57-2.91a7.86,7.86,0,0,0-1.63-5.91L1735.94,660l11.23-5.92a7.7,7.7,0,0,0,1.71-1.24l0,0a8.89,8.89,0,0,0,3.47-3.16c1.51,0,3.06.28,4.58.35a14.9,14.9,0,0,0,2.11-.09c5.09-.54,12-3.53,12.16-8.93s-6-6.69-10.2-6.4a47.58,47.58,0,0,0-8.94,1.66,35.33,35.33,0,0,0-5.19,2.14c-.72.37-1.42.76-2,1.15a8.93,8.93,0,0,0-2.48.82l0,0a7.16,7.16,0,0,0-1.92.66l-10.32,5.21-8-20.92a7.12,7.12,0,0,0-1.76-2.66,9.29,9.29,0,0,0-5.85-3.41l-.29,0a8.92,8.92,0,0,0-1.16-.07h-2.27V617a13.73,13.73,0,0,0,9.69-13.14v-7.16a5.62,5.62,0,0,0,1-.63,3.4,3.4,0,0,0,1.93-.59,5.36,5.36,0,0,0,1.85-3.59,16.85,16.85,0,0,0-3.09-12.85,13.75,13.75,0,0,0-2.18-2.33c-1,.88-2,1.78-3,2.7-.57.51-1.13,1-1.69,1.57h0a122.21,122.21,0,0,0-21.57,27.29c.14.39.29.78.46,1.15a13.31,13.31,0,0,0,1.72,2.88v6.88h-.08a6,6,0,0,0-.95.07l-.24,0-.12,0a.64.64,0,0,1,0-.07,10.63,10.63,0,0,1,1.26-.06h-1.72c-.52,0-1,0-1.54.06h-.3a17.27,17.27,0,0,0-2,.29l-.78.17c-.58.15-1.16.32-1.72.52l-1,.37a18.15,18.15,0,0,0-11.1,16.71v48.17a12.25,12.25,0,0,0,7,11,3.06,3.06,0,0,0,1.54,4,3.46,3.46,0,0,0,.69.22v90.4l-.06,0v16c0,.21.44.37,1,.37h14.81A163,163,0,0,0,1723,792.75V709.6l.56,0h8.28v75.68a163.13,163.13,0,0,0,49.71-84.88H1767.2C1767.6,696.41,1764,692.06,1760.68,689.73ZM1695.21,621v0l0,.06Zm28.34,79.46a5.12,5.12,0,0,0-.56,0v-.54a3.06,3.06,0,0,0,.84-2.11c0-.11,0-.23,0-.34a9,9,0,0,0,6.63-9.94l-1.53-11.28,10.66,13.38a7.77,7.77,0,0,0,5.24,2.89c.23.39.49.78.76,1.17a30.35,30.35,0,0,0,3.27,4.07c1.35,1.31,1.74,1.93,2.58,2.66Z" transform="translate(-1580.5 -547.39)"/><path class="cls-3" d="M1785.56,664.23a165.78,165.78,0,0,1-1.76,24.07c-.47,3.19-1,6.34-1.69,9.47-.18.89-.38,1.78-.57,2.66a163.2,163.2,0,0,1-49.71,84.88q-4.29,3.88-8.84,7.45a162.76,162.76,0,0,1-55.29,28.34c-11.16-.71-21.41-1.53-30.53-2.46-6.86-.69-13.08-1.44-18.59-2.25-1.34-1.18-2.66-2.39-3.94-3.63s-2.79-2.76-4.13-4.2l-.7-.76q-1.2-1.31-2.34-2.64-3.63-4.23-6.84-8.8a111.85,111.85,0,0,1,83.74-175.58c.79-.06,1.59-.11,2.38-.14l2.35-.09c.1-.27.21-.53.32-.8.4-1,.81-1.94,1.23-2.89q1.57-3.6,3.4-7.06a2.11,2.11,0,0,1,.18-.33c.71-1.37,1.46-2.71,2.23-4A116.47,116.47,0,0,1,1715.33,581l0,0q1.64-1.62,3.35-3.18c1-.88,1.93-1.74,2.91-2.58a116.44,116.44,0,0,1,25.32-16.48,162.53,162.53,0,0,1,38.27,94.45c.2,3,.32,6.09.35,9.16C1785.56,663,1785.56,663.61,1785.56,664.23Z" transform="translate(-1580.5 -547.39)"/><g class="cls-4"><path class="cls-5" d="M1685.2,719h-2.62a2.29,2.29,0,0,0,1.74-2.27l-.58-24.81a2.3,2.3,0,0,0-2.29-2.25h-15a.93.93,0,0,0-.93.89l-.38,7.92h-14.81a1.76,1.76,0,0,0-1.75,1.58l-1.69,17.09a1.77,1.77,0,0,0,1.58,1.92H1652a9.44,9.44,0,0,0-8.3,9.38v21.88a2.37,2.37,0,0,0,2.37,2.37h-8.48a8.85,8.85,0,0,0-8.85,8.85h0v32.73l42.59,8.76,6-4.48,5.51-4.28V752.75h2.37a2.34,2.34,0,0,0,2.34-2.34h0v-29a2.34,2.34,0,0,0-2.34-2.34Z" transform="translate(-1580.5 -547.39)"/></g><g class="cls-4"><path class="cls-5" d="M1908.84,717.76l-.88-60.68a27.42,27.42,0,0,0-8.07-19.08l.45.2c-.19-.09-.37-.19-.54-.29a27.8,27.8,0,0,0-7-5c.73-.27,1.44-.57,2.14-.9a22.71,22.71,0,0,0,6.27-4.45l0,0a20.32,20.32,0,0,0,4.21-6.24,116,116,0,0,0-20.53-33.85c-5.84-.74-12.94,1.12-17.36,5.37a15,15,0,0,0-1.54,1.74c-3.33,4.42-4.91,12.37.41,15.94l1,12.07a11.56,11.56,0,0,0,5.42,8.8,9.68,9.68,0,0,0-.85.71,8.35,8.35,0,0,0-1.73,2.47l-5.39,2.64-14.09,6.9v0a.23.23,0,0,0-.23-.23h-11.07l-17.09-5.1a6.31,6.31,0,0,0-2.52-.21,13.11,13.11,0,0,1-1.21-.54c-2.52-1.29-4.63-3.19-7.14-4.63-.29-.17-.61-.34-.93-.5a19.75,19.75,0,0,0-4.28-1.49l-1.79-4.31-17.39,7.2,4,9.58,4.93-2a10.49,10.49,0,0,0,4.58,2h-5.14a1.27,1.27,0,0,0-1.27,1.27v8.16h-9.07q.3,4.54.35,9.16c0,.61,0,1.23,0,1.86a164.39,164.39,0,0,1-1.77,24.07c-.47,3.18-1,6.34-1.68,9.46v2.67h-.58a163.13,163.13,0,0,1-49.71,84.88v13a39,39,0,0,1-8.84-3.79v-1.79a163.87,163.87,0,0,1-22.42,14.79h37.22a1.9,1.9,0,0,0,.41,0,3.27,3.27,0,0,0,.54,0h133.72a4.19,4.19,0,0,0,4.19-4.19h0a3.45,3.45,0,0,0-.05-.64c.43,0,.84-.1,1.22-.17l4.5,0c.26,0,.47-.36.47-.8v-1a10.66,10.66,0,0,1,3.92-1l.56,0v1.92c0,.44.2.8.46.8l7,0c.26,0,.47-.35.47-.8l0-3.26.09,0a1.83,1.83,0,0,0,1.06-1.56c0-2.12-.07-4.56-.78-6a.24.24,0,0,0-.32-.11l0,0-.13.08,4-41.4.56-5.85a14.64,14.64,0,0,0,9.42-13.88ZM1737,799.52c-.18,0-.9-.13-2-.36h3.67A4.07,4.07,0,0,0,1737,799.52Zm131-131.44,0,.39-4.62-.29-8.13-.49a7.25,7.25,0,0,0-3.12.51,12.75,12.75,0,0,0-1.32-.83v-8.74c2.19-.81,4.88-1.9,7.73-3.12,3.42-1.47,7.08-3.14,10.38-4.76Z" transform="translate(-1580.5 -547.39)"/></g><g class="cls-6"><g class="cls-4"><path class="cls-5" d="M1805.64,571.4c0,.14,0,.29,0,.43a2.81,2.81,0,0,1,0,.29c0,.09,0,.21,0,.32s0,.22,0,.32l0,.33c0,.1,0,.21,0,.32A23.87,23.87,0,0,1,1789,594l-.4.12a23.27,23.27,0,0,1-13.48-.1,23.73,23.73,0,0,1-13.27-10.41,24.14,24.14,0,0,1,1.5-27.11c.22-.29.45-.57.69-.85a23.88,23.88,0,0,1,4.22-3.94,118.23,118.23,0,0,1,17.23-1.3h.25c2.89,0,5.75.11,8.59.31l.9.58.23.16.22.16.17.11.28.21.22.17.22.17.21.17.22.17.42.36.18.15a1.07,1.07,0,0,0,.16.14l.2.19.1.09.19.18.2.19.2.2.19.19c.28.29.55.58.82.88l.13.15.21.24.16.19a23.37,23.37,0,0,1,1.51,2l.16.23.1.17c.2.31.39.63.58.95l.11.19c0,.07.06.11.09.17l.14.25.1.21.24.47.13.25c.1.22.2.43.29.64l.12.26.11.27c.15.36.29.73.43,1.1,0,.14.09.28.14.41l.13.38.1.34c.18.59.33,1.17.46,1.75,0,.1,0,.19.07.28s.07.34.1.51l0,.18c0,.12,0,.25.07.37l0,.22c0,.1,0,.2.05.3l.06.46c0,.39.09.79.12,1.18,0,.08,0,.17,0,.25v.08a2.11,2.11,0,0,0,0,.25l0,.87C1805.64,571,1805.64,571.21,1805.64,571.4Z" transform="translate(-1580.5 -547.39)"/></g></g><path class="cls-7" d="M1934,807.53c0,9-76.78,16.27-171.5,16.27l-8.08,0q-6.21,0-12.29-.1c-41.23-.46-78-2.31-104.92-5l-.81-.09-.81-.08-2.37-.25-.75-.08-.32,0-1.26-.14q-4.2-.48-8-1l-.69-.1-.69-.09-1.3-.18-1.57-.22-.45-.07-1.28-.19-2.48-.39-.6-.1-.6-.1-1.74-.3-.91-.16c-1.57-.28-3.06-.57-4.46-.87l-.6-.12-.35-.08-.47-.11c-.8-.17-1.55-.35-2.28-.53l-.41-.1-.34-.08-.37-.1c-.88-.23-1.71-.46-2.48-.69a27.19,27.19,0,0,1-5.58-2.24,7,7,0,0,1-1.43-1l-.13-.14a.9.9,0,0,1-.15-.18l-.07-.08h0a.83.83,0,0,1-.08-.12c0-.05-.07-.11-.11-.17a.89.89,0,0,1-.08-.17l0-.09,0-.07h0a.24.24,0,0,1,0-.08.35.35,0,0,1,0-.11.13.13,0,0,1,0-.06h0a.08.08,0,0,0,0,0,1.06,1.06,0,0,1,0-.25v-.19h0a.13.13,0,0,1,0-.06v-.06a.29.29,0,0,1,0-.09.14.14,0,0,1,0-.06v0l0-.09h0a.59.59,0,0,1,0-.08c0-.06.05-.12.08-.19l.06-.11.07-.11.23-.33.1-.1.1-.12h0l.09-.1.11-.11h0l.27-.24.25-.21.12-.09.23-.17.64-.43.19-.11.19-.12.2-.11.1-.06.1-.06.43-.23.22-.11.34-.18.37-.18.18-.08.39-.18.19-.09.5-.21.19-.08.32-.13.26-.11.24-.1.1,0,.09,0,.25-.1.65-.24.68-.25.34-.11.24-.09.32-.11.64-.21.32-.11.38-.12h0l.76-.24.79-.24.82-.24h0l.41-.13.38-.1.41-.12.35-.1.45-.12.33-.09.48-.13.65-.17L1609,799l.43-.11,1.8-.44,1.46-.34,1.72-.4.23-.05.23,0,.3-.07.3-.06,1.28-.28.07,0,1-.2.57-.11,2.61-.53.26-.05.27,0,1.62-.32.55-.1.56-.1.56-.11,3.6-.64,1.23-.22,1-.16.6-.1.61-.1.61-.1,1-.17.68-.11.69-.11.69-.12.63-.1.64-.09,1.28-.2,1.3-.19,1-.15,1-.14,1.53-.22,1.06-.15h0l1.28-.18,1.59-.22.79-.1,1.62-.22.81-.1,2.47-.32,1.67-.2.8-.1.8-.1.81-.09.81-.1.42,0,.41,0,1.12-.13,1.13-.12c1.82-.21,3.68-.41,5.56-.61l1.17-.12.54-.06.55,0,.43-.05.44,0,1.74-.17.79-.08h.08l.57-.06.57-.05,4.19-.39,1.37-.12,1.71-.15,1.73-.15,1.56-.13,2.78-.23.93-.07.94-.08,2.25-.17.85-.06.44,0,.43,0,3.63-.26,1.38-.1.55,0,.54,0,.89-.05.88-.06,1.77-.12h0l1.77-.11,2.72-.15,1.81-.11.48,0,.47,0,1-.05,2.55-.13h.11l3.69-.18L1718,786l1.06,0,2.81-.11,1.64-.07,2.13-.08.48,0,.47,0h.26c.54,0,1.09,0,1.64-.06l2.87-.1,1,0,2.44-.07,1.76,0,.62,0h.26l1.29,0,1.69,0,3-.06h0l2,0,1.94,0,2,0,2,0h1.59l1.59,0h8q9.6,0,18.92.18l4,.08,1.32,0,1.31,0,1,0h.37l1.44,0h0l1.75,0,.61,0h.21l1,0h.17l1.45.05,1.14,0,.6,0,.69,0,1,0h.27l.67,0h.05l.72,0,1.09.05.62,0,.66,0,.58,0,.7,0,1.47.07,1.64.07h.06l.54,0,1.11.06,1.48.07.71,0h.17l1,0,.59,0h.11l1.72.09.65,0,1.06,0h.21l.76,0,.72,0,.76,0,.53,0,.41,0,.45,0,1.17.07,2.35.15h.11l1.08.06h.16l1.16.08,1.19.08.78,0,.22,0h.19l2,.14.4,0,.37,0,.35,0,.45,0,.5,0,.32,0,1.52.12h.09l1.07.08.92.07.94.07.27,0h.17l1.4.12.89.07,1.13.1,1.14.09,2.15.19c3,.26,6,.54,8.87.82l2.58.26,2.09.22,1,.1.44,0,1.69.18,1,.11,2,.24,1.19.13,2.31.27.63.08,2.76.33h0l1.9.24,2.83.37,1.86.25,1.82.25.91.13,1.79.25.88.13,1.76.26,1.16.17,2.26.35,1.88.3,2.26.36.41.07.94.16.92.16.44.07,1.21.21.28.05.79.15.89.16.88.16,1,.18,1.42.27.76.15.72.14c2.6.51,5.06,1,7.36,1.56q3.78.86,7,1.73C1928.36,802.35,1934,805.11,1934,807.53Z" transform="translate(-1580.5 -547.39)"/><path class="cls-8" d="M1911.32,797.88c-3.54,3.49-11.89,7.15-25.69,10.59-1.52.39-3.11.76-4.76,1.13-24.75,5.57-64.53,10.43-122.29,12.8l-2.27.09-1.7.07c-4.22.16-8.38.77-12.51,1.12-41.23-.46-78-2.31-104.92-5-6.87-.69-13.09-1.45-18.59-2.25a146.08,146.08,0,0,1-19.83-4c1.48-.54,3.06-1.08,4.72-1.64,2.19-.72,4.53-1.46,7-2.2,1.48-.44,3-.89,4.58-1.33,2.52-.72,5.16-1.43,7.93-2.15,22.73-5.91,53.57-12,88.8-16.68q12.33-1.65,25.33-3.06h.26l1.29,0,1.2,0,3.48-.07,2,0,1.94,0h0l2,0,2,0,1.28,0h9.93c9,0,17.85.12,26.48.35l1.8,0c18.71.53,36.4,1.56,52.54,2.93l2.15.19q5.88.51,11.45,1.08C1879.24,791.91,1897.94,794.83,1911.32,797.88Z" transform="translate(-1580.5 -547.39)"/><path class="cls-5" d="M1860.37,796.65c0,9-76.79,16.27-171.51,16.27-31.09,0-60.23-.79-85.38-2.16q-4.67-.25-9.15-.53a4.09,4.09,0,0,1-2.58-1.13l-.13-.13a1.3,1.3,0,0,1-.15-.18l-.07-.09h0a.76.76,0,0,1-.08-.11l-.11-.17-.08-.17,0-.09,0-.08h0a.19.19,0,0,1,0-.07.61.61,0,0,1,0-.11.13.13,0,0,1,0-.06h0a.06.06,0,0,1,0,0,1.1,1.1,0,0,1,0-.25v-.19h0a.13.13,0,0,0,0-.06v0s0,0,0,0a.19.19,0,0,1,0-.08.14.14,0,0,1,0-.06v0l0-.08h0a.36.36,0,0,1,0-.09,1.42,1.42,0,0,1,.08-.18l.06-.11.07-.11a2.75,2.75,0,0,1,.23-.33l.1-.11.1-.11h0l.09-.1.11-.12.27-.24.25-.21.12-.08.23-.17c.2-.15.41-.29.64-.43l.19-.12a1.18,1.18,0,0,1,.19-.11l.2-.12.1-.06.1-.06.43-.23.22-.11.34-.18.37-.17.19-.09.38-.18.2-.08.49-.22.19-.08.32-.13.26-.11.24-.09.1,0,.09,0,.26-.09.64-.25.68-.25.34-.11.24-.09.32-.1.64-.22.33-.11.37-.12h0l.77-.24.79-.24.81-.25h0l.42-.11.37-.11.41-.12.35-.09.45-.13.33-.09.49-.13.64-.17L1609,799l.43-.1,1.81-.45,1.45-.34,1.73-.4.23,0,.23,0,.29-.07.3-.06,1.29-.28h.07l1-.2.56-.11c.85-.18,1.72-.36,2.61-.53l.27-.05.27-.06,1.62-.31.55-.1.55-.11.56-.1,3.6-.65,1.24-.21.95-.16.61-.1.6-.1.61-.1,1-.17.68-.11.69-.12.69-.1.63-.11.63-.09,1.28-.2,1.3-.19,1-.15,1-.14,1.54-.22,1.06-.15,1.28-.18,1.59-.22.8-.1,1.61-.22.81-.1,2.47-.31,1.67-.21.8-.1.81-.1.8-.09.82-.1.41,0,.42,0,1.11-.14,1.13-.12,5.57-.61,1.16-.12.55-.06.55,0,.43,0,.43,0,1.74-.17.79-.08h.09l.56-.06.58-.05,4.19-.39,1.36-.12,1.71-.15,1.73-.15,1.57-.13,2.78-.23.93-.07.93-.08,2.25-.17.86-.06.43,0,.43,0,3.63-.25,1.38-.1.55,0,.55,0,.88-.06.89,0,1.76-.12h0l1.78-.11,2.72-.16,1.81-.1.47,0,1.43-.08,2.54-.13h.12l3.69-.18,2.79-.13,2.81-.11,1.64-.07,2.13-.08.47,0,.48,0h.25l1.65,0,2.87-.1,1,0,2.44-.07,1.77,0,.6,0h.28l1.29,0,1.69,0,3-.06h0l3.92-.07,2,0,2,0h1.59l1.59,0h8q9.58,0,18.91.17l4,.09,1.32,0,1.32,0,1.31,0,2.62.07.58,0,.61,0h.21l1,0h.17l2.59.09.6,0,.69,0,1.28.05.7,0h0l.72,0,1.09,0,.62,0,.66,0,.57,0,.71,0,1.47.06,1.06,0,.63,0,.55,0,1.11,0,1.48.07,1.24.06.66,0,.59,0h.11l1.72.09.65,0,1.06,0h.21l.76,0,.72,0,.76,0,.53,0,.4,0,.46,0,1.16.07,2.36.15h.11l1.08.06h.16l1.16.08,1.19.08.78,0,.22,0h.19l1.19.08.78.06.4,0,1.17.08.5,0,.32,0,.3,0,1.22.1h.09l.25,0,.82.06.92.08.94.07.27,0h.17l1.4.12.89.07,1.13.1,1.13.09C1854.23,791.21,1860.37,794.11,1860.37,796.65Z" transform="translate(-1580.5 -547.39)"/><path class="cls-1" d="M1712.92,791.21c0,9-37.23,16.27-83.15,16.27-5,0-9.92-.09-14.68-.26-8.2-.28-16-.8-23.15-1.52l.27-.24.25-.21.11-.09.23-.17.65-.43.18-.11.2-.12.2-.11.1-.06.1-.06.43-.23.21-.12.35-.17.37-.18.18-.08.38-.18.2-.09.49-.21.2-.08.32-.13.26-.11.24-.1.09,0,.1,0,.25-.1.65-.24.68-.25.33-.11.25-.09.32-.11.64-.21.32-.11.38-.12h0l.76-.25.79-.24.82-.24h0l.41-.12.38-.1.41-.12.35-.1.44-.12.34-.09.48-.13.64-.17L1609,799l.42-.11,1.81-.44,1.46-.35,1.72-.39.23-.05.23,0,.3-.07.3-.06,1.28-.28.08,0,1-.2.56-.11c.85-.18,1.72-.36,2.61-.53l.27-.05.27-.06,1.62-.31.55-.1.55-.11.56-.1,3.6-.65,1.24-.21.95-.16.61-.1.6-.1.61-.1,1-.17.68-.11.69-.12.69-.1.63-.11.63-.09,1.28-.2,1.3-.19,1-.15,1-.14,1.54-.22,1.06-.15,1.28-.18,1.59-.22.8-.1,1.61-.22.81-.1,2.47-.31,1.67-.21.8-.1.81-.1.8-.09.82-.1.41,0,.42,0,1.11-.14,1.13-.12,5.57-.61,1.16-.12.55-.06.55,0,.43,0,.43,0,1.74-.17.79-.08h.09l.56-.06.58-.05,4.19-.39,1.36-.12,1.71-.15,1.73-.15,1.57-.13,2.78-.23.93-.07.93-.08,2.25-.17.86-.06.43,0,.43,0,3.63-.25,1.38-.1.55,0,.55,0,.88-.06.89,0,1.76-.12h0l1.78-.11,2.72-.16,1.81-.1.47,0,1.43-.08h0a11.82,11.82,0,0,1,1.89,2h0A4.78,4.78,0,0,1,1712.92,791.21Z" transform="translate(-1580.5 -547.39)"/><ellipse class="cls-9" cx="192.84" cy="257.02" rx="112.91" ry="6.54"/><circle class="cls-1" cx="350.38" cy="134.21" r="8.1"/><circle class="cls-1" cx="97.53" cy="55.64" r="8.1"/><circle class="cls-1" cx="345.19" cy="111.1" r="4.33"/><circle class="cls-1" cx="67.82" cy="67.99" r="4.33"/><rect class="cls-10" x="227.45" y="39.71" width="28.23" height="14.86" rx="5.82"/><circle class="cls-10" cx="266.76" cy="71.07" r="2.47"/><circle class="cls-5" cx="248.91" cy="47.14" r="2.19"/><circle class="cls-5" cx="241.57" cy="47.14" r="2.19"/><circle class="cls-5" cx="234.22" cy="47.14" r="2.19"/><circle class="cls-10" cx="255.45" cy="64.63" r="4.79"/><path class="cls-11" d="M1876.69,736.42,1871,795.51l-20.4-2.74,2.42-1.93a20,20,0,0,0,7.54-16.5l-2-46.85Z" transform="translate(-1580.5 -547.39)"/><path d="M1871.38,799.53l-6.84,0c-.25,0-.46-.35-.45-.78v-2.49c0-.21.1-.39.23-.4,2.81-.22,5.49-.63,7.21-1.88.16-.12.33.08.33.37l0,4.43C1871.84,799.18,1871.63,799.53,1871.38,799.53Z" transform="translate(-1580.5 -547.39)"/><path class="cls-12" d="M1871.94,795.51c-1.63,1-4.91,1.2-7.76,1.31l-.63,0c-4.08.15-5.93,2.9-11.22,2.88s-11.76-3.45-11.76-3.45c0-1.28,1.2-2.18,3.53-2.17h.22l.87,0a9.39,9.39,0,0,0,5.45-1.37c2-1.18,3.35-3.9,4.31-3.9a.58.58,0,0,1,.31.11,4.39,4.39,0,0,1,1.17,2.59h0l-.15,1.54.34-.06c.53-.09,11.21-1.91,15.27-5a.23.23,0,0,1,.32,0l0,0c.7,1.37.78,3.76.77,5.83A1.81,1.81,0,0,1,1871.94,795.51Z" transform="translate(-1580.5 -547.39)"/><path class="cls-13" d="M1888.82,736.42l-1.07,11.19-4.57,47.9-20.41-2.74,2.42-1.93a20,20,0,0,0,7.53-16.5l-.9-21.14-.82-19.31-.27-6.4,9.33,4.61Z" transform="translate(-1580.5 -547.39)"/><path d="M1883.51,799.53l-6.84,0c-.25,0-.46-.35-.45-.78v-2.49c0-.21.1-.39.23-.4,2.81-.22,5.49-.63,7.21-1.88.16-.12.33.08.33.37l0,4.43C1884,799.18,1883.77,799.53,1883.51,799.53Z" transform="translate(-1580.5 -547.39)"/><path class="cls-12" d="M1884.08,795.51c-1.64,1-4.92,1.2-7.77,1.31l-.63,0c-4.08.15-5.93,2.9-11.21,2.88s-11.76-3.45-11.76-3.45c0-1.28,1.2-2.18,3.52-2.17h.22l.87,0a9.42,9.42,0,0,0,5.46-1.37c2-1.18,3.34-3.9,4.31-3.9a.55.55,0,0,1,.3.11,4.33,4.33,0,0,1,1.17,2.59h0l-.16,1.54.34-.06c.53-.09,11.22-1.91,15.27-5a.22.22,0,0,1,.32,0l0,0c.69,1.37.77,3.76.76,5.83A1.81,1.81,0,0,1,1884.08,795.51Z" transform="translate(-1580.5 -547.39)"/><path class="cls-13" d="M1811.46,640.67l-.44.46a12.59,12.59,0,0,1-4.84,3.45c-.26.1-.53.19-.82.28-4.33,1.35-8.41-.39-12.68-.65l-.3,0c-3.37-.14-7.85-2.85-8.06-6.57a5,5,0,0,1,1.83-4c3.87-3.35,10.64-2.49,15.07-.32.32.16.62.32.91.49,2.46,1.41,4.52,3.27,7,4.53a13.49,13.49,0,0,0,2.12.87l.16.06a.8.8,0,0,1,.45.32C1812.05,640,1811.75,640.38,1811.46,640.67Z" transform="translate(-1580.5 -547.39)"/><path class="cls-11" d="M1811.4,639.28a5.81,5.81,0,0,1-.38,1.84c-.77,2-2.59,3-4.84,3.45-.27.06-.55.1-.84.15-4.27.64-9.72-.35-12.66-.52l-.3,0c-3.37-.15-7.85-2.85-8.06-6.58a5,5,0,0,1,1.83-4c3.87-3.35,10.64-2.49,15.07-.32a6.67,6.67,0,0,1-.58,5.08,4.41,4.41,0,0,0-.65,1.39c-.25,1.57,5.72-.25,9.13-1.45a13.49,13.49,0,0,0,2.12.87Z" transform="translate(-1580.5 -547.39)"/><path class="cls-14" d="M1869.12,644.4c-.54,1.63-11.65,7.15-21,11.16-6.36,2.74-11.89,4.77-12.68,4.4-1.4-.65-17.47-6.35-26.39-9.5a6,6,0,0,1-3.65-7.63l.09-.23h0a6,6,0,0,1,7.25-3.51l23.93,7.14,17.67-8.64,10.4-5.09S1870,641.65,1869.12,644.4Z" transform="translate(-1580.5 -547.39)"/><path class="cls-15" d="M1889.92,628.13a22.06,22.06,0,0,1-6.19,4.39,23.48,23.48,0,0,1-7,2.13,5.45,5.45,0,0,1-1.21.05,2.08,2.08,0,0,1-1.19-.45,3.09,3.09,0,0,1-.83-1.75,21.57,21.57,0,0,1-.48-3.57,10.12,10.12,0,0,0-.51-3.43l0-.09a8.41,8.41,0,0,0-.72-1.23,21.64,21.64,0,0,0-2.7-3.06,59.23,59.23,0,0,0-6.35-4.86c-.46-.34-.92-.68-1.39-1q-2.68-1.95-5.43-3.81c-5.2-3.49-3.66-11.27-.4-15.6a16.23,16.23,0,0,1,1.51-1.7c4.36-4.2,11.38-6,17.12-5.24a24.7,24.7,0,0,1,7,1.91,27.28,27.28,0,0,1,4.22,2.45,24.36,24.36,0,0,1,6.13,6.27C1897.22,608.15,1897.66,620.26,1889.92,628.13Z" transform="translate(-1580.5 -547.39)"/><path class="cls-16" d="M1891.37,599.53c1.66,8.42,2.09,20.53-6.56,27.14a1.52,1.52,0,0,1-2-2.29l0,0a5.8,5.8,0,0,0,1.45-2.61c-.34-7.19-4.36-4.91-4.36-4.91l-7.53,8.6,0,.09a9.79,9.79,0,0,1,.51,3.42,21.54,21.54,0,0,0,.48,3.58,3,3,0,0,0,.83,1.74,2.45,2.45,0,0,0,1.79.47h0l.29,0h0l.29,0a23.62,23.62,0,0,0,7.06-2.13,22.22,22.22,0,0,0,6.18-4.39C1897.66,620.26,1897.22,608.15,1891.37,599.53Z" transform="translate(-1580.5 -547.39)"/><path class="cls-17" d="M1869.12,644.4c-.54,1.63-11.65,7.15-21,11.16a116.15,116.15,0,0,0,6.22-18l10.4-5.08S1870,641.65,1869.12,644.4Z" transform="translate(-1580.5 -547.39)"/><path class="cls-18" d="M1878.78,632.17a11.21,11.21,0,0,1-15.72,2.06,11.74,11.74,0,0,1-1.73-1.65,7.83,7.83,0,0,1,6-2.22l3.92.24A27.09,27.09,0,0,1,1878.78,632.17Z" transform="translate(-1580.5 -547.39)"/><rect class="cls-11" x="283.09" y="82.69" width="12.45" height="12.45"/><path class="cls-19" d="M1883.19,742.83h-29.64l2-38.09.61-11.78.95-18.42.94-18.26.83-16,.13-2.46a7.85,7.85,0,0,1,2.35-5.21,12.39,12.39,0,0,0,1.25,1.26c.21.18.43.35.66.52a11.21,11.21,0,0,0,15.54-2.19,27,27,0,0,1,17.71,24.93l.86,59.41.17,11.78a14.33,14.33,0,0,1-14.12,14.53Z" transform="translate(-1580.5 -547.39)"/><path class="cls-20" d="M1888.82,736.42l-1.07,11.19a41.24,41.24,0,0,1-8.44,3.78,56.35,56.35,0,0,1-7.49,1.81l-.82-19.31a23,23,0,0,1,4.06-1.25,27,27,0,0,1,5-.55Z" transform="translate(-1580.5 -547.39)"/><path class="cls-17" d="M1883.19,742.83h-29.64l.92-17.85h25.63s-.87-10.23-1.95-22.86c7.59,2.18,14.26,7.32,19.2,14.4l.17,11.78a14.33,14.33,0,0,1-14.12,14.53Z" transform="translate(-1580.5 -547.39)"/><rect class="cls-21" x="192.78" y="140.27" width="66.5" height="11.88"/><path class="cls-22" d="M1804.05,685.58h18.28a.9.9,0,0,1,.9.9h0a.9.9,0,0,1-.9.91h-18.28Z" transform="translate(-1580.5 -547.39)"/><rect class="cls-23" x="206.72" y="96.7" width="53.36" height="34.28" rx="0.23"/><path class="cls-21" d="M1785.17,645.33v31.8a1.25,1.25,0,0,0,1.25,1.24h50.87a1.24,1.24,0,0,0,1.24-1.24h0v-31.8a1.25,1.25,0,0,0-1.24-1.25h-50.87A1.25,1.25,0,0,0,1785.17,645.33Z" transform="translate(-1580.5 -547.39)"/><path class="cls-23" d="M1794.11,674.22h35.48a.49.49,0,0,1,.48.49v3.71h-36.44v-3.71A.5.5,0,0,1,1794.11,674.22Z" transform="translate(-1580.5 -547.39)"/><path class="cls-22" d="M1803.76,687.39h8.14v-1.81l3.29-13.32a3.72,3.72,0,0,0-2.72-4.51,3.8,3.8,0,0,0-.89-.11h0a3.72,3.72,0,0,0-3.61,2.83Z" transform="translate(-1580.5 -547.39)"/><path class="cls-24" d="M1802.75,687.39h7.66v-1.81l3.31-13.32a3.73,3.73,0,0,0-2.72-4.51,3.89,3.89,0,0,0-.9-.11h0a3.72,3.72,0,0,0-3.61,2.83l-3.74,15.11Z" transform="translate(-1580.5 -547.39)"/><rect class="cls-21" x="222.25" y="138.19" width="7.67" height="1.81"/><rect class="cls-23" x="244.81" y="140.27" width="14.47" height="11.88"/><g class="cls-25"><polygon class="cls-26" points="222.62 152.15 235.81 152.15 232.48 140.28 219.28 140.28 222.62 152.15"/></g><g class="cls-25"><polygon class="cls-26" points="204.56 152.15 211.23 152.15 207.9 140.28 201.23 140.28 204.56 152.15"/></g><rect class="cls-22" x="197.17" y="114.89" width="3.8" height="25.11"/><rect class="cls-24" x="185.58" y="105.93" width="28.56" height="8.96" rx="0.2"/><path class="cls-22" d="M1793.06,654.27v7.05a.94.94,0,0,1-.94,1h-26.65a1,1,0,0,1-1-1v-7.05a1,1,0,0,1,1-1h26.65A1,1,0,0,1,1793.06,654.27Z" transform="translate(-1580.5 -547.39)"/><rect class="cls-23" x="196.64" y="114.89" width="4.88" height="5.45"/><g class="cls-27"><polygon class="cls-26" points="208.71 114.89 195.52 114.89 193 105.93 206.19 105.93 208.71 114.89"/></g><g class="cls-25"><path class="cls-26" d="M1768.17,662.28h-2.7a1,1,0,0,1-1-1v-7.05a1,1,0,0,1,1-1h.19Z" transform="translate(-1580.5 -547.39)"/></g><path class="cls-20" d="M1855.35,606l1.52,17.29a11.29,11.29,0,0,0,22.53-1.11,2.73,2.73,0,1,0-.41-5.07L1877.84,604Z" transform="translate(-1580.5 -547.39)"/><path class="cls-13" d="M1861.64,605.43l1.51,17.29a8.38,8.38,0,1,0,16.24-.56,2.73,2.73,0,1,0-.41-5.06L1877.84,604Z" transform="translate(-1580.5 -547.39)"/><path class="cls-13" d="M1838.26,678.1c-5.59,1.21-13.32,0-16.34-3.81a6.16,6.16,0,0,1-.74-1.16c-4.06-8.52,11.77-10,19.37-6a7.49,7.49,0,0,1,3.46,3.34C1845.84,674.59,1842.74,677.14,1838.26,678.1Z" transform="translate(-1580.5 -547.39)"/><path class="cls-11" d="M1838.26,678.1c-5.59,1.21-13.32,0-16.34-3.81,3.31-2.16,7.67-3.8,10.39-5a32.78,32.78,0,0,1,8.24-2.14,7.49,7.49,0,0,1,3.46,3.34C1845.84,674.59,1842.74,677.14,1838.26,678.1Z" transform="translate(-1580.5 -547.39)"/><path class="cls-17" d="M1888.18,655.56,1886,677.75c-1.45,7.88-9.1,15.32-17.09,14.6l-12.63.61,1-18.43,11.14.68a3.33,3.33,0,0,0,3.49-2.76l3-17.39a7.18,7.18,0,0,1,8.21-5.86l.67.11C1887.73,649.94,1888.9,651.59,1888.18,655.56Z" transform="translate(-1580.5 -547.39)"/><polygon class="cls-18" points="273.85 177.59 273.98 177.59 273.85 180.1 273.85 177.59"/><path class="cls-12" d="M1880.1,725h-25.63l1-20.24A30.11,30.11,0,0,1,1870,701a29.53,29.53,0,0,1,8.14,1.15C1879.23,714.75,1880.1,725,1880.1,725Z" transform="translate(-1580.5 -547.39)"/><polygon class="cls-18" points="273.98 177.59 275.02 157.34 273.98 177.59 273.98 177.59"/><path class="cls-28" d="M1873.09,656.61c0,1.8-1.06,2.42-2.77,3a10.28,10.28,0,0,1-5.34.06,12.58,12.58,0,0,1-6.71-3.14c-.08-.09-.17-.17-.25-.27l.83-16c.54-1,1.11-1.89,1.67-2.83.71-1.17,1.42-2.36,2.06-3.58.21.18.43.35.66.52l-.09.38C1861.3,641.43,1862.3,659.08,1873.09,656.61Z" transform="translate(-1580.5 -547.39)"/><path class="cls-18" d="M1889,638.61c-2.49-1.14-8.16-2.82-10.29-.23a17.42,17.42,0,0,0-3.5,8.52c-.4,2.79-1.34,5.26-1.1,8.16,0,0,1.06,12.32,2.27,26.6.25,2.88.5,5.85.76,8.81.33,4,.67,7.91,1,11.64A29.53,29.53,0,0,0,1870,701a30.11,30.11,0,0,0-14.49,3.76l.5-9.81.71-13.71,2.25-43.42,2.35-5.21v19.37s1.57,9.37,10.45,3.61A73.83,73.83,0,0,1,1873.9,643c.84-2.92,2.19-6.39,5.31-7.49a8.64,8.64,0,0,1,5,.05C1886.14,636.11,1887.21,637.78,1889,638.61Z" transform="translate(-1580.5 -547.39)"/><path class="cls-29" d="M1877.16,690.48a50.65,50.65,0,0,1-21.14,4.44l.71-13.71a12.55,12.55,0,0,1,4.42-1.67c4.58-.86,9.37.17,13.92-.79l1.33,2.91C1876.65,684.55,1876.9,687.51,1877.16,690.48Z" transform="translate(-1580.5 -547.39)"/><path class="cls-29" d="M1873.87,655.55a26.35,26.35,0,0,1-15.22,14.8c2.16-.63,4.58.39,6.67,1.23a12.77,12.77,0,0,0,4.65.93c2,0,4.24-.57,5.37-2.24,1.43-2.12.58-5-.32-7.37l-.78-2.11" transform="translate(-1580.5 -547.39)"/><path class="cls-14" d="M1890.26,645.75l-4.41,25.7a15.5,15.5,0,0,1-16.65,12.64l-15.77-1.42-9.38-.85a7.19,7.19,0,0,1-6.53-6.91v-.18a7,7,0,0,1,6.71-7.26,5.45,5.45,0,0,1,.7,0l8,.48,15.34.93a3.33,3.33,0,0,0,3.49-2.75l2.44-15.07c.07-.39.14-.84.23-1.35l1-6.45a7.52,7.52,0,0,1,14.87,2.31l0,.16Z" transform="translate(-1580.5 -547.39)"/><polygon class="cls-18" points="218.67 89.65 214.45 91.39 205.64 95.04 201.64 96.7 201.26 95.78 197.75 87.32 206.01 83.9 210.54 82.02 214.79 80.27 216.89 85.34 218.67 89.65"/><path class="cls-15" d="M1886.85,603.15,1879,617.09a16.65,16.65,0,0,1-15.38-10.72l0,0c-.17.58-1.73,5.24-7.76,5l-2.6-5.53,4.64-6.19,11.27-6.19Z" transform="translate(-1580.5 -547.39)"/><path class="cls-30" d="M1879,617.09a16.65,16.65,0,0,1-15.38-10.72l2-3.5S1866.48,613.22,1879,617.09Z" transform="translate(-1580.5 -547.39)"/><path class="cls-15" d="M1867.55,625.38h1a1.5,1.5,0,0,1,1.5,1.49h0a1.5,1.5,0,0,1-1.5,1.5h-1a1.5,1.5,0,0,1-1.49-1.5h0A1.49,1.49,0,0,1,1867.55,625.38Z" transform="translate(-1580.5 -547.39)"/><circle class="cls-15" cx="279.53" cy="70.92" r="1.1"/><circle class="cls-15" cx="289.31" cy="70.92" r="1.1"/><path class="cls-15" d="M1872.9,616.07h0l-5.62-.49a.43.43,0,0,1-.41-.47.44.44,0,0,1,.47-.42h0l5.62.49a.44.44,0,0,1,.4.49.44.44,0,0,1-.44.4Z" transform="translate(-1580.5 -547.39)"/><path class="cls-15" d="M1857.44,616.43a.45.45,0,0,1-.09-.89l4.17-.79a.46.46,0,0,1,.54.34.45.45,0,0,1-.34.53h0l-4.17.79Z" transform="translate(-1580.5 -547.39)"/><path class="cls-15" d="M1859.18,618.8a.13.13,0,0,1-.13-.08,1.89,1.89,0,0,1,0-1.7.14.14,0,0,1,.2-.06.15.15,0,0,1,.06.2,1.57,1.57,0,0,0,0,1.43.16.16,0,0,1-.07.2Z" transform="translate(-1580.5 -547.39)"/><path class="cls-15" d="M1868.93,618.63a.14.14,0,0,1-.15-.13,1.94,1.94,0,0,1,.48-1.63.15.15,0,0,1,.21,0,.14.14,0,0,1,0,.21,1.66,1.66,0,0,0-.4,1.38.15.15,0,0,1-.12.17h0Z" transform="translate(-1580.5 -547.39)"/><path class="cls-31" d="M1887.22,638.36c-3.51-.24-11.09.54-12.84,11.37l1-6.45a7.53,7.53,0,0,1,11.8-4.92Z" transform="translate(-1580.5 -547.39)"/><path class="cls-31" d="M1869.89,668.57c-.71,1-2.09,1.19-3.3,1.25a30.66,30.66,0,0,1-9.81-1.11,11.24,11.24,0,0,0-3.69-.68l-.21-.06,15.35.93A3.3,3.3,0,0,0,1869.89,668.57Z" transform="translate(-1580.5 -547.39)"/><path class="cls-17" d="M1853.43,682.67l-9.38-.85a7.19,7.19,0,0,1-6.53-6.91v-.17a7,7,0,0,1,2.19-5.36,10,10,0,0,0,1.22,2.84A24.38,24.38,0,0,0,1853.43,682.67Z" transform="translate(-1580.5 -547.39)"/><path class="cls-32" d="M1791,629.41l-4.9,13-4,1.66-.38-.92c1.55-4,3.23-8.17,4.76-11.88Z" transform="translate(-1580.5 -547.39)"/><path class="cls-32" d="M1799.17,637l-4.22,1.75c.82-2.06,1.64-4.11,2.44-6Z" transform="translate(-1580.5 -547.39)"/><rect class="cls-33" x="143.54" y="161.16" width="144.45" height="87.65"/><rect class="cls-34" x="146.2" y="248.81" width="139.13" height="8.21" rx="3.18"/><rect class="cls-35" x="139.72" y="155.33" width="152.1" height="2.66"/><path class="cls-36" d="M1881.1,704a4.51,4.51,0,0,1-4.51,4.51H1715.93a4.51,4.51,0,0,1,0-9h160.66a4.5,4.5,0,0,1,4.51,4.5Z" transform="translate(-1580.5 -547.39)"/><rect class="cls-34" x="143.54" y="161.16" width="144.45" height="3.13"/><g class="cls-37"><polygon class="cls-26" points="248.99 247.39 230.01 247.39 239.5 160.17 258.48 160.17 248.99 247.39"/></g><g class="cls-37"><polygon class="cls-26" points="210.61 248.38 173.05 248.38 182.54 161.16 220.11 161.16 210.61 248.38"/></g><path class="cls-38" d="M1741.06,796.79h0a.59.59,0,0,1-.59-.59h0c.23-23.29.68-83.86.09-87.33a.59.59,0,0,1,.15-.79.62.62,0,0,1,.64-.06c.37.19.4.55.46,1.55,0,.66.08,1.62.11,2.86,0,2.3.09,5.67.11,10,0,7.29,0,17.42,0,30.12-.11,21.61-.32,43.45-.32,43.66A.6.6,0,0,1,1741.06,796.79Z" transform="translate(-1580.5 -547.39)"/><path class="cls-38" d="M1851.08,796.79h0a.59.59,0,0,1-.59-.6h0c.23-23.29.68-83.86.09-87.33a.58.58,0,0,1,.15-.79.62.62,0,0,1,.64-.06c.36.19.4.55.46,1.55,0,.66.07,1.62.1,2.86.06,2.3.09,5.67.12,10,0,7.29,0,17.42,0,30.12-.11,21.61-.32,43.45-.32,43.66A.59.59,0,0,1,1851.08,796.79Z" transform="translate(-1580.5 -547.39)"/><g class="cls-39"><polygon class="cls-26" points="258.14 257.02 220.58 257.02 223.37 248.81 260.94 248.81 258.14 257.02"/></g><g class="cls-39"><polygon class="cls-26" points="204.68 257.02 185.69 257.02 188.48 248.81 207.47 248.81 204.68 257.02"/></g><g class="cls-39"><polygon class="cls-26" points="212.77 161.16 175.21 161.16 178 152.15 215.56 152.15 212.77 161.16"/></g><g class="cls-39"><polygon class="cls-26" points="248.41 161.16 229.43 161.16 232.22 152.15 251.2 152.15 248.41 161.16"/></g><rect class="cls-34" x="262.79" y="234.35" width="4.36" height="9.34"/><rect class="cls-38" x="254.48" y="234.35" width="4.36" height="9.34"/><rect class="cls-38" x="246.16" y="234.35" width="4.36" height="9.34"/><rect class="cls-38" x="237.85" y="234.35" width="4.36" height="9.34"/><rect class="cls-38" x="229.53" y="234.35" width="4.36" height="9.34"/><g class="cls-40"><path class="cls-5" d="M1679.31,796.35c0,2.12-15.75,3.84-35.17,3.84h-.56c-13.49,0-25.13-.87-30.85-2.11h0l1.73-.39.23-.05.23,0,.29-.07.3-.06,1.28-.28.08,0,1-.2.56-.11c.85-.18,1.72-.36,2.61-.53l.27-.05.26-.06,1.63-.31.55-.1.55-.1.56-.11c1.17-.22,2.38-.43,3.6-.64l1.24-.22.95-.16.61-.1.6-.1.61-.1,1-.17.68-.11.69-.12.69-.11.63-.1.63-.1,1.28-.19,1.3-.2,1-.14,1-.15,1.54-.22,1.05-.14h.21c12.41,0,23.31.69,29.57,1.75C1677.25,794.87,1679.31,795.59,1679.31,796.35Z" transform="translate(-1580.5 -547.39)"/></g><path class="cls-7" d="M1673.56,696.18l.57,24.29a2.25,2.25,0,0,1-2.2,2.3h-6.09a2.24,2.24,0,0,1-2.24-2.25h0V696.23a2.24,2.24,0,0,1,2.24-2.25h5.47A2.26,2.26,0,0,1,1673.56,696.18Z" transform="translate(-1580.5 -547.39)"/><path class="cls-8" d="M1656.64,694h14.08a.93.93,0,0,1,.92.93v0l-.9,27a.9.9,0,0,1-.91.88h-14.48a.92.92,0,0,1-.92-.91v0l1.3-26.95A.91.91,0,0,1,1656.64,694Z" transform="translate(-1580.5 -547.39)"/><g class="cls-25"><path class="cls-9" d="M1663.19,700.43a4.34,4.34,0,0,0,4-2.48,7.5,7.5,0,0,0,.78-2.58.16.16,0,0,0-.31,0,6.93,6.93,0,0,1-.75,2.48,4,4,0,0,1-4,2.3,3.43,3.43,0,0,1-2.7-1.19,4.85,4.85,0,0,1-.66-3.54.16.16,0,0,0-.14-.17.15.15,0,0,0-.16.11,5.15,5.15,0,0,0,.72,3.79,3.73,3.73,0,0,0,2.93,1.31Z" transform="translate(-1580.5 -547.39)"/></g><path class="cls-7" d="M1665,705.56l.73,15.23a2,2,0,0,1-1.89,2.08h-.12l-13.12-.13V702.6l11.45.12A3,3,0,0,1,1665,705.56Z" transform="translate(-1580.5 -547.39)"/><path class="cls-5" d="M1640.86,702.6h19.48a1.72,1.72,0,0,1,1.72,1.72.49.49,0,0,1,0,.12l-1.14,16.73a1.72,1.72,0,0,1-1.72,1.6h-20a1.72,1.72,0,0,1-1.72-1.72,1,1,0,0,1,0-.17l1.65-16.72A1.72,1.72,0,0,1,1640.86,702.6Z" transform="translate(-1580.5 -547.39)"/><path class="cls-9" d="M1650,708.77a4.35,4.35,0,0,0,4-2.48,7.34,7.34,0,0,0,.78-2.59.15.15,0,0,0-.3,0h0a7.5,7.5,0,0,1-.75,2.48,4,4,0,0,1-4,2.3,3.43,3.43,0,0,1-2.71-1.19,5,5,0,0,1-.66-3.54.17.17,0,0,0-.13-.18.15.15,0,0,0-.17.12,5.15,5.15,0,0,0,.72,3.79,3.71,3.71,0,0,0,2.93,1.3Z" transform="translate(-1580.5 -547.39)"/><g class="cls-4"><path class="cls-5" d="M1662.23,755.7v40.71h-42.54v-32a8.66,8.66,0,0,1,8.65-8.66h33.89Z" transform="translate(-1580.5 -547.39)"/></g><path class="cls-5" d="M1672.66,755.7v40.7h-42.54V764.25a8.55,8.55,0,0,1,8.54-8.55h34Z" transform="translate(-1580.5 -547.39)"/><path class="cls-5" d="M64.58,175.31H94.5a2.28,2.28,0,0,1,2.28,2.28V206a2.29,2.29,0,0,1-2.29,2.29H64.58A2.28,2.28,0,0,1,62.29,206V177.6A2.28,2.28,0,0,1,64.58,175.31Z"/><path class="cls-10" d="M1668.81,725v28.35a2.32,2.32,0,0,1-2.32,2.33h-29.83a2.33,2.33,0,0,1-2.33-2.33V732a9.25,9.25,0,0,1,9.25-9.25h22.91A2.32,2.32,0,0,1,1668.81,725Z" transform="translate(-1580.5 -547.39)"/><path class="cls-8" d="M1672.66,755.7v17.88l-37.09-17.3a8.65,8.65,0,0,1,3.1-.58Z" transform="translate(-1580.5 -547.39)"/><path class="cls-41" d="M1774.57,554.48c.55-.07,1.09-.12,1.63-.15h2.12l1.07.07.23,0h.07l.23,0,.77.11.52.08.38.08.25,0,.29.06.28.07.28.07.28.07a21.32,21.32,0,0,1,15.67,17.86c0,.13,0,.26,0,.38a21.15,21.15,0,0,1-4.44,15.4,21.72,21.72,0,0,1-30.5,3.58,22.78,22.78,0,0,1-2.45-2.26,21.08,21.08,0,0,1-5.09-9.69c-.14-.65-.26-1.31-.34-2,0-.09,0-.19,0-.28s0-.32,0-.49,0-.2,0-.31h0l0-.51c0-.09,0-.18,0-.27a2.17,2.17,0,0,1,0-.26,2.26,2.26,0,0,0,0-.26v-.75a2.71,2.71,0,0,1,0-.29,2.44,2.44,0,0,0,0-.26,1.93,1.93,0,0,0,0-.23c0-.35,0-.71.09-1l0-.26.06-.4,0-.26c0-.13,0-.27.07-.41a1.62,1.62,0,0,1,0-.19,20,20,0,0,1,.76-2.93,1.21,1.21,0,0,1,0-.14c.06-.19.13-.38.2-.56l.09-.23a20.25,20.25,0,0,1,1.18-2.49l.12-.22c.06-.12.13-.23.2-.35l.07-.11.11-.18a.75.75,0,0,0,.07-.12l.06-.1.14-.21.27-.42c.1-.13.19-.27.29-.41l.14-.2c.39-.53.81-1,1.25-1.55.22-.25.45-.49.68-.73l.17-.18.18-.18.13-.13.23-.22.19-.17.18-.16.19-.17.19-.17.38-.32.17-.13.15-.11.19-.16.1-.07a1.33,1.33,0,0,1,.19-.14l.2-.15.2-.15.21-.14c.3-.21.6-.4.9-.59l.16-.1.24-.14.2-.12a21.89,21.89,0,0,1,2-1l.23-.1.16-.07c.31-.13.62-.25.94-.36l.19-.07.16,0,.24-.09.2-.06.46-.14.25-.07.61-.17.25-.06.25-.06c.35-.08.69-.15,1-.21l.38-.06.37-.06Z" transform="translate(-1580.5 -547.39)"/><path class="cls-42" d="M1774.57,554.48c.55-.07,1.09-.12,1.63-.15h2.12l1.07.07.23,0h.07l.23,0,.77.11.52.08.38.08.25,0,.29.06.28.07.28.07.28.07a21.17,21.17,0,0,1-2.12,30.7A21.81,21.81,0,0,1,1761.3,590a21.08,21.08,0,0,1-5.09-9.69c-.14-.65-.26-1.31-.34-2,0-.09,0-.19,0-.28s0-.32,0-.49,0-.2,0-.31h0l0-.51c0-.09,0-.18,0-.27a2.17,2.17,0,0,1,0-.26,2.26,2.26,0,0,0,0-.26v-.75a2.71,2.71,0,0,1,0-.29,2.44,2.44,0,0,0,0-.26,1.93,1.93,0,0,0,0-.23c0-.35,0-.71.09-1l0-.26.06-.4,0-.26c0-.13,0-.27.07-.41a1.62,1.62,0,0,1,0-.19,20,20,0,0,1,.76-2.93,1.21,1.21,0,0,1,0-.14c.06-.19.13-.38.2-.56l.09-.23a20.25,20.25,0,0,1,1.18-2.49l.12-.22c.06-.12.13-.23.2-.35l.07-.11.11-.18a.75.75,0,0,0,.07-.12l.06-.1.14-.21.27-.42c.1-.13.19-.27.29-.41l.14-.2c.39-.53.81-1,1.25-1.55.22-.25.45-.49.68-.73l.17-.18.18-.18.13-.13.23-.22.19-.17.18-.16.19-.17.19-.17.38-.32.17-.13.15-.11.19-.16.1-.07a1.33,1.33,0,0,1,.19-.14l.2-.15.2-.15.21-.14c.3-.21.6-.4.9-.59l.16-.1.24-.14.2-.12a21.89,21.89,0,0,1,2-1l.23-.1.16-.07c.31-.13.62-.25.94-.36l.19-.07.16,0,.24-.09.2-.06.46-.14.25-.07.61-.17.25-.06.25-.06c.35-.08.69-.15,1-.21l.38-.06.37-.06Z" transform="translate(-1580.5 -547.39)"/><path class="cls-10" d="M1774.57,554.48c.55-.07,1.09-.12,1.63-.15h2.12a17.58,17.58,0,0,1,1.1,14.72,18.06,18.06,0,0,1-21.56,11,17.64,17.64,0,0,1-2.1-2.78h0l0-.52c0-.08,0-.17,0-.26a2.17,2.17,0,0,1,0-.26,2.17,2.17,0,0,0,0-.26v-.75c0-.1,0-.2,0-.3a2.18,2.18,0,0,0,0-.25,1.93,1.93,0,0,0,0-.23l.09-1.06,0-.25.06-.4,0-.26c0-.14,0-.27.07-.41a1.29,1.29,0,0,1,0-.19,20,20,0,0,1,.76-2.93s0-.1,0-.14.13-.38.2-.57l.09-.23a20.83,20.83,0,0,1,1.18-2.48l.12-.22c.06-.12.13-.23.2-.35l.07-.11.11-.18a.75.75,0,0,0,.07-.12l.06-.1.14-.21.27-.42c.1-.13.19-.27.29-.41l.14-.2c.39-.53.81-1,1.25-1.55.22-.25.45-.49.68-.73l.17-.18.18-.18.13-.13.23-.22.19-.17.18-.16.19-.17.19-.17.38-.32.17-.13.15-.11.19-.16.1-.07a1.33,1.33,0,0,1,.19-.14l.2-.15.2-.15.21-.14c.3-.21.6-.4.9-.59l.16-.1.24-.14.2-.12a21.89,21.89,0,0,1,2-1l.23-.1.16-.07c.31-.13.62-.25.94-.36l.19-.07.16,0,.24-.09.2-.06.46-.14.25-.07.61-.17.25-.06.25-.06c.35-.08.69-.15,1-.21l.38-.06.37-.06Z" transform="translate(-1580.5 -547.39)"/><path class="cls-41" d="M1780.23,575.16a1.08,1.08,0,0,1-.76,1.17l-9.47,2.88a1.08,1.08,0,0,1-.66-2.06h0c1.46-.46,6.32-1.93,8.46-2.58l-2.78-9.68a1.08,1.08,0,0,1,.78-1.33,1.09,1.09,0,0,1,1.32.74l3.07,10.7A.9.9,0,0,1,1780.23,575.16Z" transform="translate(-1580.5 -547.39)"/><g class="cls-43"><path class="cls-26" d="M1760.23,589.33l10.68-18.1,4.73-8,5.29-9a21.12,21.12,0,0,1,13.26,9l-7,11.82-12.81,21.72c-.66-.06-1.32-.16-2-.28l-.27,0-.48-.11-.3-.07h0l-.5-.13-.26-.07-.25-.07-.25-.08-.2-.06-.29-.1-.22-.08-.27-.09-.24-.1-.22-.08-1-.41-.23-.11-.37-.17-.23-.12-.37-.19-.17-.09a21.2,21.2,0,0,1-2.55-1.63l-.12-.1a5.45,5.45,0,0,1-.47-.37l-.2-.15a20,20,0,0,1-2-1.9l-.17-.18-.27-.3-.09-.1-.14-.16Z" transform="translate(-1580.5 -547.39)"/></g><path d="M1709.34,792.5c.14.4-6.44,9.29-6.44,9.29h19.91l-2.75-4.65Z" transform="translate(-1580.5 -547.39)"/><polygon points="107.98 241.03 107.98 246.48 112.96 246.48 112.58 245.1 113.65 244.54 112.5 242.13 107.98 241.03"/><g id="c65_sport_shoes" data-name="c65 sport shoes"><path d="M1689.43,800.66c-.52,0-1,.16-1,.36v3c0,.2.43.36,1,.36h39.84c.51,0,.94-.16.94-.36v-3c0-.2-.43-.36-.94-.36Z" transform="translate(-1580.5 -547.39)"/><path class="cls-12" d="M1703.23,790.68a24,24,0,0,1-12.54-4.88.71.71,0,0,0-.63-.1c-.69.23-1.53,1-1.58,3.67v1.2h4.66v1.92h-4.66v9.3h16.89l4.53-7.85h2.23l-4.31,7.85h2.68l3-5h2.37l-2.91,5h2.66l1.4-2.48h2.08l-1.38,2.48h12.46s3.38-4-1.63-5.23c0,0-13.82-1.75-21-11.12,0,0-1.92-4.23-2.63,5.34Z" transform="translate(-1580.5 -547.39)"/></g><path d="M1698.24,792.5c.14.4-6.45,9.29-6.45,9.29h19.91l-2.74-4.65Z" transform="translate(-1580.5 -547.39)"/><g id="c65_sport_shoes-2" data-name="c65 sport shoes-2"><path class="cls-16" d="M1678.33,800.66c-.52,0-.95.16-.95.36v3c0,.2.43.36.95.36h39.83c.52,0,.95-.16.95-.36v-3c0-.2-.43-.36-.95-.36Z" transform="translate(-1580.5 -547.39)"/><path class="cls-18" d="M1692.13,790.68a24,24,0,0,1-12.54-4.88.71.71,0,0,0-.63-.1c-.7.23-1.53,1-1.58,3.67v1.2H1682v1.92h-4.66v9.3h16.89l4.53-7.85H1701l-4.31,7.85h2.69l3-5h2.37l-2.9,5h2.66l1.4-2.48H1708l-1.38,2.48h12.46s3.38-4-1.63-5.23c0,0-13.82-1.75-21-11.12,0,0-1.92-4.23-2.64,5.34Z" transform="translate(-1580.5 -547.39)"/></g><polygon points="96.88 241.03 96.88 246.48 101.86 246.48 101.48 245.1 102.54 244.54 101.4 242.13 96.88 241.03"/><path class="cls-11" d="M1758.07,699.54h-15.46c-.82-.72-1.2-1.33-2.52-2.6a31,31,0,0,1-3.21-4c-1.14-1.67-2.09-3.42-2-4.4a4.61,4.61,0,0,1,2.81-3.4l2.36-.86c.67-.24,3.54-.13,4,.41,1.52,1.73,3.9,2.34,6,3.37a12.08,12.08,0,0,1,1.65,1C1755,691.34,1758.46,695.6,1758.07,699.54Z" transform="translate(-1580.5 -547.39)"/><path class="cls-18" d="M1714.89,668.74a7.64,7.64,0,0,1-1.21-2.18L1700.86,631a7,7,0,0,1,4.08-9h0a7,7,0,0,1,9,4.09l12,31.42a7.79,7.79,0,0,0,1.16,2L1743,679.44a7.65,7.65,0,0,1-.85,10.43h0a7.64,7.64,0,0,1-10.8-.53c-.11-.12-.22-.24-.32-.37Z" transform="translate(-1580.5 -547.39)"/><rect class="cls-22" x="115.32" y="140.41" width="18.96" height="104.7"/><path class="cls-23" d="M1718.5,686.48a42.75,42.75,0,0,1-11.15,16.32,27.21,27.21,0,0,1-8.38,5.36V792.5h-21.53V695.15Z" transform="translate(-1580.5 -547.39)"/><path class="cls-22" d="M1683.89,791.32a.75.75,0,0,1-.74-.75V702.21a.74.74,0,1,1,1.48,0h0v88.36a.73.73,0,0,1-.74.75Z" transform="translate(-1580.5 -547.39)"/><g class="cls-44"><path class="cls-22" d="M1718.5,686.48a42.75,42.75,0,0,1-11.15,16.32c-8.16,2.15-19.15,4.16-29.91,1.65v-9.3Z" transform="translate(-1580.5 -547.39)"/></g><path class="cls-16" d="M1704.68,620.09a10.78,10.78,0,0,1-2.12,4.35,7.68,7.68,0,0,1-6,3h-1.48c-3.8,0-7-3.08-8.06-7.32l.23,0a5.62,5.62,0,0,1,.92-.07h15.22C1703.86,620,1704.27,620.05,1704.68,620.09Z" transform="translate(-1580.5 -547.39)"/><rect class="cls-11" x="107.82" y="64.51" width="14.57" height="16.65"/><path class="cls-15" d="M1717.1,593.31a5.21,5.21,0,0,1-1.82,3.51,3.34,3.34,0,0,1-1.88.58,4.44,4.44,0,0,1-1-.1,4.88,4.88,0,0,1-1.17-.39c-2.44-1.16-4.7-3.7-6.35-5.92l-.4-.56a3.75,3.75,0,0,0-1.86-1.67,3.39,3.39,0,0,0-1.61.1l-12,2.65a1.8,1.8,0,0,0-1.06.51,1.83,1.83,0,0,0-.28,1.06l-.24,5.62a2.89,2.89,0,0,1-.18,1,1.62,1.62,0,0,1-.1.18.93.93,0,0,1-.16.18,1.62,1.62,0,0,1-.7.3l0,0a10.43,10.43,0,0,1-4.22.34h-.09a5.5,5.5,0,0,1-1-.24,6.35,6.35,0,0,1-4.23-5.85,6.15,6.15,0,0,1,1.15-3.54,6.44,6.44,0,0,1,1.53-1.55,5.7,5.7,0,0,1,1.51-.78h0a7.74,7.74,0,0,1-2.67-8,9.59,9.59,0,0,1,5.78-6.32,12.55,12.55,0,0,1,8.71,0l.22.08a18.29,18.29,0,0,1,7,5,.31.31,0,0,1,0-.32c.33-.89,3.57-2.57,4-2.69a8.16,8.16,0,0,1,5.79.49,12,12,0,0,1,4.4,3.74A16.57,16.57,0,0,1,1717.1,593.31Z" transform="translate(-1580.5 -547.39)"/><path class="cls-16" d="M1686.25,600.36a10.61,10.61,0,0,1-4.22.35h-.09a8.24,8.24,0,0,1-1-.24,6.17,6.17,0,0,1-1.55-11c.84-.45,1.44-.74,1.5-.77h0l1.32.41,3.24,1s-7.25,6.71,0,9.83Z" transform="translate(-1580.5 -547.39)"/><path class="cls-20" d="M1712.37,584.35V605a13.45,13.45,0,0,1-26.86,1,3.29,3.29,0,0,1-1.21.23,3.25,3.25,0,0,1-2.33-5.52l0,0,0,0a3.24,3.24,0,0,1,2.18-.92h.1a3.27,3.27,0,0,1,1.16.22V584.35Z" transform="translate(-1580.5 -547.39)"/><path class="cls-13" d="M1704.85,584.35V605a10,10,0,1,1-19.34,1,3.29,3.29,0,0,1-1.21.23,3.25,3.25,0,0,1-2.33-5.52l0,0,0,0a3.9,3.9,0,0,1,.51-.4,3.13,3.13,0,0,1,1.67-.52h.1a3.07,3.07,0,0,1,1.16.22V584.35Z" transform="translate(-1580.5 -547.39)"/><path class="cls-20" d="M1712.37,583.2V600c-1.66.62-4.13.57-7.52-1.8a25.79,25.79,0,0,1-3.16-2.65l-.23-.22a9.85,9.85,0,0,1-3.23.9,5.52,5.52,0,0,1-5.62-2.78c-.12-.21-.24-.44-.35-.68s.51,9.54-5.92,9.13a5.74,5.74,0,0,1-3.35-1.15h0a4.58,4.58,0,0,1-.46-.42,3.13,3.13,0,0,1,1.67-.52h.1a3.26,3.26,0,0,1,1.16.21V583.3l3.13-.1Z" transform="translate(-1580.5 -547.39)"/><path class="cls-15" d="M1714.69,596a5.1,5.1,0,0,1-1.29,1.37c-1.84,1.39-5.77,2.58-12.37-3.34l-.23-.2a10.93,10.93,0,0,1-3.28.84,5.79,5.79,0,0,1-5.69-2.6q-.19-.32-.36-.63s.52,8.9-6,8.52a6.2,6.2,0,0,1-3.4-1.08h0c-5.13-3.8,1.38-16.23,1.38-16.23s29-.87,28.93-.55S1714.69,596,1714.69,596Z" transform="translate(-1580.5 -547.39)"/><path class="cls-15" d="M1698.81,614h0a3.37,3.37,0,0,1-3.37-3.37v-2h6.75v2a3.37,3.37,0,0,1-3.37,3.37Z" transform="translate(-1580.5 -547.39)"/><path class="cls-10" d="M1695.61,608.62h5.78v.52a1.23,1.23,0,0,1-1.22,1.23H1697a1.36,1.36,0,0,1-1.35-1.35v-.4Z" transform="translate(-1580.5 -547.39)"/><circle class="cls-15" cx="128.26" cy="54.37" r="1.14"/><circle class="cls-15" cx="116.53" cy="54.37" r="1.14"/><path class="cls-15" d="M1692.52,600.44a.6.6,0,0,1,0-1.19l5.82-.47a.59.59,0,0,1,.66.52.6.6,0,0,1-.52.66h0l-5.82.48Z" transform="translate(-1580.5 -547.39)"/><path class="cls-15" d="M1711.47,600.5h-.06l-4.37-.43a.59.59,0,1,1,.09-1.18h0l4.38.42a.6.6,0,0,1-.06,1.19Z" transform="translate(-1580.5 -547.39)"/><rect class="cls-18" x="94.5" y="146.6" width="40.61" height="5.99" rx="3"/><path class="cls-45" d="M1668.44,637.78v47.15a12,12,0,0,0,12,12h32.86a8.84,8.84,0,0,0,8.84-8.84,7.93,7.93,0,0,0-.08-1.19l-7.83-57.75a9.13,9.13,0,0,0-7.72-9l-.28,0a8.72,8.72,0,0,0-1.14-.07h-1.71a5.62,5.62,0,0,1,.92.07l.23,0c-1,4.24-4.26,7.32-8.06,7.32H1695a7.68,7.68,0,0,1-6-3,10.78,10.78,0,0,1-2.12-4.35q.61-.06,1.23-.06h-1.68c-.51,0-1,0-1.51.06h-.3a16.9,16.9,0,0,0-2,.29A17.74,17.74,0,0,0,1668.44,637.78Z" transform="translate(-1580.5 -547.39)"/><path class="cls-13" d="M1762,641.42c-.2,5.28-6.92,8.21-11.9,8.74a13,13,0,0,1-2.07.08c-2.47-.1-5-.75-7.36.09-.71.26-3.48-1.11-4-1.69l-1.78-2A5,5,0,0,1,1734,642c.43-1,2.23-2.1,4.16-3.09a33.88,33.88,0,0,1,5.07-2.09,47.34,47.34,0,0,1,8.75-1.63C1756.17,634.86,1762.2,636.09,1762,641.42Z" transform="translate(-1580.5 -547.39)"/><path class="cls-11" d="M1750.1,650.16a13,13,0,0,1-2.07.08c-2.47-.1-5-.75-7.36.09-.71.26-3.48-1.11-4-1.69l-1.78-2A5,5,0,0,1,1734,642c.43-1,2.23-2.1,4.16-3.09a14.41,14.41,0,0,1,6,1.85A11.77,11.77,0,0,1,1750.1,650.16Z" transform="translate(-1580.5 -547.39)"/><path class="cls-18" d="M1733.77,640.8c3.69-1.86,8.19-.86,10.06,2.83h0c1.84,3.65-.06,7.46-3.68,9.37Z" transform="translate(-1580.5 -547.39)"/><path class="cls-18" d="M1720.36,653.13v17.79l-8.38,4.79a13.76,13.76,0,0,1-18.11-4.16l-18.47-27.44c-2.63-3.49-2.14-11,1.08-13.79,1.4-1.23,3.08,2.57,4.75,2.57a7.31,7.31,0,0,1,5.84,3L1702.93,657a5.58,5.58,0,0,0,7.22,1.67Z" transform="translate(-1580.5 -547.39)"/><path class="cls-18" d="M1720.36,644v17.54l-5.54,3.75a14.49,14.49,0,0,1-18.43-1.83l-20.92-21.24A7.52,7.52,0,0,1,1686,631.55h0l17.91,17.65a5.88,5.88,0,0,0,7.34.75Z" transform="translate(-1580.5 -547.39)"/><path class="cls-45" d="M1712,668.12a14.47,14.47,0,0,1-18.11-3.84l-18.48-23.4a7.52,7.52,0,0,1,1.09-10.58h0a7.54,7.54,0,0,1,10.59,1.09l15.86,19.51a5.89,5.89,0,0,0,7.22,1.54l21.75-11a7.15,7.15,0,0,1,9.6,3.16h0a7.15,7.15,0,0,1-3,9.55Z" transform="translate(-1580.5 -547.39)"/><path class="cls-46" d="M1706.56,620.38a16.51,16.51,0,0,1-2.21,4.57c-1.93,2.73-4.6,4.42-7.54,4.42h-1.88c-4.25,0-7.91-3.52-9.63-8.61a6.54,6.54,0,0,1,1.77-.62c1,4.24,4.26,7.32,8.06,7.32h1.49a7.71,7.71,0,0,0,6-3,11,11,0,0,0,2.12-4.35h.24A12.94,12.94,0,0,1,1706.56,620.38Z" transform="translate(-1580.5 -547.39)"/><path class="cls-16" d="M1714.08,580.72c-7.65-3.8-10.54-.39-11.49,1.46a5.58,5.58,0,0,0-.41,1l-.59-1-1.62-2.7,0-.31c.34-.89,3.57-2.58,4-2.69a8.17,8.17,0,0,1,5.79.48A12.17,12.17,0,0,1,1714.08,580.72Z" transform="translate(-1580.5 -547.39)"/><path class="cls-16" d="M1687.07,590.23a9.41,9.41,0,0,1-1.59-.07A6.5,6.5,0,0,1,1687.07,590.23Z" transform="translate(-1580.5 -547.39)"/><path class="cls-16" d="M1700.8,593.86l-3.28.84a5.77,5.77,0,0,1-5.69-2.6l-.49-2.75C1692.83,593.47,1700.8,593.86,1700.8,593.86Z" transform="translate(-1580.5 -547.39)"/><path class="cls-16" d="M1713.4,597.4c-1.84,1.39-5.77,2.58-12.37-3.34l1.86-3S1707,598.53,1713.4,597.4Z" transform="translate(-1580.5 -547.39)"/><path class="cls-16" d="M1685.47,600a6.2,6.2,0,0,1-3.4-1.07c7.22,2.52,9.4-7.45,9.4-7.45S1692,600.37,1685.47,600Z" transform="translate(-1580.5 -547.39)"/><path class="cls-11" d="M1684.71,601.77a1.67,1.67,0,0,1,.47.72,1.9,1.9,0,0,1,.16,1.57,1.72,1.72,0,0,1-1.52.76,1.47,1.47,0,0,1-1.5-.7c.06.16.73-.47.78-.55.27-.46,0-.76.05-1.2A1,1,0,0,1,1684.71,601.77Z" transform="translate(-1580.5 -547.39)"/><path class="cls-18" d="M1686.25,668.18v20.74h0a7.06,7.06,0,0,0,6-10.7Z" transform="translate(-1580.5 -547.39)"/><path class="cls-18" d="M1679.94,697.26l-1.42-2.3a24.23,24.23,0,0,1-3.65-12.78c0-14.33,0-38.57,0-39.94l1.19,0c-.06,1.41,0,28.37,0,39.9a23.11,23.11,0,0,0,3.47,12.16l1.42,2.29Z" transform="translate(-1580.5 -547.39)"/><path class="cls-28" d="M1864.16,628a13.41,13.41,0,0,1-.34,1.39Z" transform="translate(-1580.5 -547.39)"/><path class="cls-30" d="M1855.23,611.45c-5.21-3.5-3.67-11.28-.41-15.6a13.66,13.66,0,0,1,1.52-1.7C1854.44,598.12,1852.18,605.68,1855.23,611.45Z" transform="translate(-1580.5 -547.39)"/><path class="cls-30" d="M1679.41,589.51a5.64,5.64,0,0,1,1.5-.78h0a7.73,7.73,0,0,1-2.66-8,9.55,9.55,0,0,1,5.77-6.32,12.55,12.55,0,0,1,8.71,0s-11.48,1.13-10.89,11.84a16.9,16.9,0,0,0,.39,2.83" transform="translate(-1580.5 -547.39)"/><path class="cls-30" d="M1641.66,566.4c-.16,1.5-.3,1.13-.3,1.13l.15-1.19Z" transform="translate(-1580.5 -547.39)"/><path class="cls-47" d="M1923,603.88a.23.23,0,0,0,0-.45A.22.22,0,0,0,1923,603.88Z" transform="translate(-1580.5 -547.39)"/></svg>