<svg id="Layer_1" data-name="Layer 1" xmlns="http://www.w3.org/2000/svg" viewBox="0 0 2838.56 2400"><defs><style>.cls-1{fill:#c8e9f1;}.cls-2{opacity:0.4;}.cls-3{fill:#72d6e5;}.cls-11,.cls-37,.cls-4{fill:#fff;}.cls-4{opacity:0.3;}.cls-10,.cls-12,.cls-13,.cls-15,.cls-18,.cls-29,.cls-32,.cls-35,.cls-36,.cls-37,.cls-4{isolation:isolate;}.cls-29,.cls-5{opacity:0.63;}.cls-6{fill:#008196;}.cls-36,.cls-7{fill:#009fc4;}.cls-8{fill:#0a6d77;}.cls-9{fill:#ffbc5a;}.cls-10,.cls-12,.cls-31,.cls-32{fill:#ff6a0d;}.cls-10{opacity:0.43;}.cls-12{opacity:0.65;}.cls-13,.cls-15,.cls-18{fill:#fefefe;}.cls-13{opacity:0.2;}.cls-14{fill:#004f66;}.cls-15{opacity:0.21;}.cls-16{fill:#1b1e23;}.cls-17{opacity:0.36;}.cls-18{opacity:0.12;}.cls-19{fill:#521213;}.cls-20{fill:#ffb699;}.cls-21{fill:#fc9f7e;}.cls-22,.cls-29,.cls-35{fill:#008c7e;}.cls-23{fill:#00b1a0;}.cls-24{fill:#ffcab0;}.cls-25{fill:#642425;}.cls-26{fill:#095996;}.cls-27{fill:#00d6bc;}.cls-28{fill:#7c3006;}.cls-30{fill:#ffc300;}.cls-32{opacity:0.33;}.cls-33{fill:#023e4c;}.cls-34{fill:#ffa710;}.cls-35{opacity:0.58;}.cls-36{opacity:0.49;}.cls-37{opacity:0.56;}</style></defs><title>10</title><g id="_10" data-name=" 10"><path class="cls-1" d="M1199.58,1647.3a34.37,34.37,0,1,1-34.37-34.37h0A34.39,34.39,0,0,1,1199.58,1647.3Z" transform="translate(-920.75 -360)"/><path class="cls-1" d="M3305.25,1152.22a34.37,34.37,0,1,1-34.37-34.37,34.37,34.37,0,0,1,34.37,34.37Z" transform="translate(-920.75 -360)"/><path class="cls-1" d="M1195.1,1863.8a64.26,64.26,0,1,1-64.27-64.25h0a64.26,64.26,0,0,1,64.25,64.25Z" transform="translate(-920.75 -360)"/><path class="cls-1" d="M3167.86,1080.21a64.28,64.28,0,1,1-64.31-64.25h.06a64.24,64.24,0,0,1,64.25,64.23Z" transform="translate(-920.75 -360)"/><path class="cls-1" d="M3759.31,1979.93c0,212.56-82.8,405.79-217.9,549.2q-12,12.75-24.58,24.95-11,10.74-22.43,21-14.34,12.91-29.28,25.14A801.23,801.23,0,0,1,3360.24,2673l-120.74-.83-780.5-5.28-102.36-.7-16.18-.1-112.24-.76-72.84-.49-181.5-1.23-86.15-.58-82.68-.55-54.35-.36-75.23-.51-60.59-.41-108.56-.74-167.1-1.12-149-1Q1177.4,2640.18,1166,2621q-6.82-11.4-13.11-23.15c-1.7-3.17-3.38-6.38-5-9.59A575.87,575.87,0,0,1,1084.52,2325c0-165.22,69.32-314.27,180.44-419.63a805.71,805.71,0,0,1-16.48-162.51c0-229.2,96.24-435.91,250.53-581.93a801.75,801.75,0,0,1,221.49-148.67A793.53,793.53,0,0,1,1893.08,957,810.72,810.72,0,0,1,2154,948.5q14.6,1.9,29,4.33h0q28.22,4.73,55.75,11.41,11.53,2.79,23,5.92,20.14,5.52,39.85,12.05a799.06,799.06,0,0,1,260,144.57q27.45,22.83,52.76,48,28,27.85,53.25,58.41a800.26,800.26,0,0,1,849.2,172.53C3666.4,1551.29,3759.31,1754.77,3759.31,1979.93Z" transform="translate(-920.75 -360)"/><g class="cls-2"><path class="cls-3" d="M3239.5,1229.62a801.82,801.82,0,0,0-571.87,3.6q-25.18-30.51-53.25-58.41c-1,4.94-1.86,9.9-2.68,14.9q-3.3,20-5,40.57t-1.69,41.5V1308l-64.47-54.27a324.61,324.61,0,0,0-49.53-40.67l2.9-24.17q2.76-.83,5.45-1.79a106.5,106.5,0,0,0,62.24-60.32,799.06,799.06,0,0,0-260-144.57,498.85,498.85,0,0,0-6.84,84.27c0,73.67,14.5,137.21,35.4,166.47a48.55,48.55,0,0,0-3.73,11.88l-17.71,13.83-21.1,16.48h0l-16.94,13.22q-53.43,41.75-106.89,83.47c-12.66,9.88-26,20.78-30.53,36.21-4.64,15.93,1.35,33,8.68,47.86.71,1.45,1.45,2.9,2.2,4.34.42.81.84,1.63,1.28,2.44l.24.46a257.21,257.21,0,0,0,20.63,32.56,268,268,0,0,0,24.21,28.14q7,7.11,14.6,13.71a263.07,263.07,0,0,0,73,45.11l-9.21,64.4-17,119.13-61.14,427.31a50.17,50.17,0,0,0,17.38,44.41,45.55,45.55,0,0,0,3.74,2.9,50,50,0,0,0,39.06,8.16l31.45-6.39,3.79-.77c-.24,1-.47,2.07-.71,3.1q-2.34,9.83-5.38,19.48l-4.11,13-8.38,26.62-61.81,196.27-.07.21L2192,2543.77l1,.13-6.59,22.68c-.82-1.15-1.62-2.3-2.39-3.48a2,2,0,0,0-2.77-.59,2.23,2.23,0,0,0-.5.47c-10,11.57-17.6,34.65-23.51,54.8-1.86,6.33.1,12.18,4.59,17.57.25.3.51.6.77.89.08.1.17.18.25.27l.16.18.4.44-8.11,27.71-.77,2.64c-1.24,4.23-.24,8.25,2.23,9l66.61,19.5c2.47.72,5.47-2.14,6.71-6.36l5.2-17.75c31.16,13.09,40.51,42.4,84.34,55.2a121.15,121.15,0,0,0,14.84,3.25c32.64,5.11,70.23-.87,87.5-4.3,6-1.21,9.58-2.09,9.58-2.09,2.59-8.8-.49-17.28-9.61-23.57a50.57,50.57,0,0,0-14.68-6.65q-.93-.28-1.89-.51c-2.63-.71-5.17-1.4-7.6-2.1-16.56-4.85-28.67-10.55-41.2-24.88-.72-.8-1.42-1.63-2.12-2.48-13.69-16.59-40.37-69.55-48.73-72a4.18,4.18,0,0,0-2.93.26,16.42,16.42,0,0,0-2.81,1.57c-.65.46-1.28,1-1.91,1.5l16.45-52.65c5.3-8.26,8.27-18.17,11.22-27.67,16.73-53.86,39.83-105.48,62.87-157l45.68-102c4-8.84,8.87-18.14,13.73-27.71l15.68,295,.85,15.95,1.55,42.57.15,3.9,1.41-.19,1.68,27.1c-1.17-.76-2.31-1.54-3.44-2.34a2,2,0,0,0-2.8.37,1.78,1.78,0,0,0-.3.54c-5.56,13.41-5,36.23-3.87,56v.18c.36,6.23,4.16,10.81,10.2,14.19.66.37,1.36.73,2.09,1.07l1.77,29.8c.24,4.14,2.52,7.41,5.09,7.27l69.3-3.66c2.58-.13,4.45-3.62,4.2-7.77l-1-17.41c33.74,1.82,52.35,24.92,97.93,22.48,18.3-1,37.93-6.81,55.18-13.62h813.13V1405.75A801.34,801.34,0,0,0,3239.5,1229.62ZM2584.31,2534.37l2.74-61.22,16.74-372.92.18-4,1.06-1.3V2605c-6.87-4.82-12.3-8-14.84-7.88a4.33,4.33,0,0,0-2.68,1.14,18.11,18.11,0,0,0-3.4,4.2l-1.35-33.54Z" transform="translate(-920.75 -360)"/><path class="cls-3" d="M1491.08,1265.65Z" transform="translate(-920.75 -360)"/><path class="cls-3" d="M1491.09,1265.47Z" transform="translate(-920.75 -360)"/><path class="cls-3" d="M1491.09,1265.33v0Z" transform="translate(-920.75 -360)"/><path class="cls-3" d="M1491.08,1265.73Z" transform="translate(-920.75 -360)"/><path class="cls-3" d="M1491.07,1266Z" transform="translate(-920.75 -360)"/><path class="cls-3" d="M1491.07,1266Z" transform="translate(-920.75 -360)"/><path class="cls-3" d="M1491.08,1265.85Z" transform="translate(-920.75 -360)"/><path class="cls-3" d="M1491.14,1263.91v0Z" transform="translate(-920.75 -360)"/><path class="cls-3" d="M1491.15,1263.7Z" transform="translate(-920.75 -360)"/><path class="cls-3" d="M1491.15,1263.63" transform="translate(-920.75 -360)"/><path class="cls-3" d="M1491.12,1264.5v-.21A.74.74,0,0,0,1491.12,1264.5Z" transform="translate(-920.75 -360)"/><path class="cls-3" d="M1491.1,1265v-.47A2.41,2.41,0,0,1,1491.1,1265Z" transform="translate(-920.75 -360)"/><path class="cls-3" d="M1491.13,1264.29v-.38C1491.14,1264,1491.13,1264.14,1491.13,1264.29Z" transform="translate(-920.75 -360)"/><path class="cls-3" d="M1491.1,1265.18Z" transform="translate(-920.75 -360)"/><path class="cls-3" d="M1938.13,2572a58.59,58.59,0,0,0-10.27-20c-.87-1.16-1.17-1.79-3.2-1.2a14.1,14.1,0,0,0-2.21-3.81c-17.07-21.77-67-4.39-89.45-5.78-23.78-1.46-56.3-12.8-75.19-30.68l1.54-.4-3.94-22.33-3.17-18-10.14-57.5L1706,2207.56h65a81.57,81.57,0,0,0,81.66-81.46V1974.42a81.65,81.65,0,0,0-47.63-74.21v-11.6a67.43,67.43,0,0,0-27.85-54.5c4.06-22.81.21-46.33-17.83-62.95-4.5-4.16-10.24-9.5-16.67-14.79a156.49,156.49,0,0,0-15.82-11.63,57.46,57.46,0,0,0-7.07-42.92l-34.41-56q.61-12,1.24-23.46,1.23-22.15,1.17-44.49v-4.35l12.12-4.35a15.23,15.23,0,0,0,9.91-11.81c14.47-5.22,29.61-8.89,44.17-4.88,21.65,6,31.57,11.45,54,3.68,16.52-5.75,34.62-15.78,42-32.51,6.67-15,.56-40.69-12-50.76-14.21-11.48-30.85-17.15-48.29-19.14-26.84-3.07-55.59,2.6-80.57,9.38-1.65.45-5,1.44-9.69,2.84l-1.83-6.1c-.84-2.69-5.28-4-11.83-4a71.8,71.8,0,0,0-11.24,1c-10.57-44.93-28.26-87.89-55.78-126.56a317.44,317.44,0,0,0-81.45-79.28,55.26,55.26,0,0,0-5.63-4.73,53,53,0,0,0-13.17-7q-5-2.85-10-5.53l2.43-20.17c1.74-.54,3.48-1.09,5.18-1.72a101.29,101.29,0,0,0,66.45-100.31l-1-19a803.47,803.47,0,0,0-279.28,361c1.21,29.3,4,58.45,9.82,86.83l-15.72,109.88-35.88,306.82a48.08,48.08,0,0,0,55.45,53.18l3.37,141.33a267.06,267.06,0,0,1-7.2,68.42q-2.2,9.36-5.12,18.56l-11.9,37.79-58.92,187.06-13,41.4,14.55,1.74-2.44,5.92c-.72,1.69-1.49,3.5-1.87,4.51q-5.06,12.18-10.09,24.35c-1.25,3-2.51,6.08-3.77,9.1-.72,1.77-1.46,3.53-2.19,5.29l-17.66,42.63a61.07,61.07,0,0,0-6.39,17.56c-.46,2.2-.81,2.54,6,5.17l19.87,7.62c17.12,6.56,32.79,12.49,47.47,17.87,12.43,4.54,24.17,8.67,35.5,12.43,66.39,22,119.13,31,217.64,33.14,7.39.16,6.88-.29,7.26-2.52a63.52,63.52,0,0,0-.6-24.42c-.31-1.54-.3-2.3-2.56-2.69a1,1,0,0,0,0-.24,13.22,13.22,0,0,0,0-1.78,15,15,0,0,0-.4-2.75c-2.71-12.41-14.42-20.77-28.68-27.17-19.56-8.81-43.86-13.94-56.18-20.87-25.41-14.27-55.77-46-62.06-75.53-.81-3.73-1.7-7.53-2.64-11.29l10.13,1.23,21-67.12,60.71-193.84a383.92,383.92,0,0,0,16.78-90.7q.4-6.49.59-13l3.61-126.75,30.14,115.13,93,355.56,11.22,42.88,4.73-1.24c0,.63.08,1.19.11,1.59l1.41,24.19,3.27,56.64c-.07,1.36-.1,2.7-.06,4a54.88,54.88,0,0,0,1.79,13.06c.51,2,.36,2.42,7.07,1.86,53.24-4.45,92.26-7.77,128.18-14,50.88-8.83,95.5-23.49,165.43-55.45C1939.32,2574.21,1938.72,2574,1938.13,2572Zm-676.52-27.23-.44-.18.53-.06a1.31,1.31,0,0,1-.09.28Zm398.45,13.6c.14-.08.29-.18.42-.27v.23Zm10.34-669.8v9.79a80.43,80.43,0,0,0-14.26,7.27l-3,2-5.66-32.08c10.24-24.09,17.47-50.34,22.73-77.4,6.62,8.6,10,17.31,13.69,28.55.37,1.17.79,2.32,1.24,3.47a63,63,0,0,0,5.29,10.54,67,67,0,0,0-19.09,36.76,65,65,0,0,0-.94,11.14Zm17,5.15c-1.41.23-2.82.49-4.22.78v-5.93a55,55,0,0,1,.79-9.24,54.43,54.43,0,0,1,14.31-28.39,53.14,53.14,0,0,0,23.07,14.34c20.49,6.14,43.15.2,52-18A54.82,54.82,0,0,1,1784.1,1860a54.23,54.23,0,0,1,8.14,28.63v7a82,82,0,0,0-21.25-2.8H1700.2a82,82,0,0,0-12.81.93Z" transform="translate(-920.75 -360)"/></g><path class="cls-4" d="M2818.2,1571.85c0,457.24-234.62,859.66-590,1093.49l-254.33-1.73L1805,2662.48l-129.58-.87-151.51-1-17.65-.12-204.12-1.37-111.93-.76q-12.81-18.2-24.21-37.36-6.81-11.39-13.1-23.14-2.57-4.77-5-9.59A575.23,575.23,0,0,1,1084.52,2325c0-165.22,69.31-314.27,180.44-419.64a800.65,800.65,0,0,1,316.59-812.72q32.25-23.27,66.8-43.3A795.14,795.14,0,0,1,1893.09,957,810.66,810.66,0,0,1,2154,948.5q14.58,1.9,29,4.32h0q28.23,4.74,55.75,11.42,11.55,2.79,23,5.92a801,801,0,0,1,405.91,263.06,792.58,792.58,0,0,1,97.62-30.94A1308.1,1308.1,0,0,1,2818.2,1571.85Z" transform="translate(-920.75 -360)"/><g class="cls-5"><path class="cls-3" d="M2299.37,1121.75l-60.62-157.51q11.53,2.79,23,5.92Z" transform="translate(-920.75 -360)"/></g><path class="cls-6" d="M3595.3,2633.19c0,22.31-60.82,43.29-167.61,61.52C3199.42,2733.64,2761.16,2760,2258,2760q-31.68,0-63-.14-48.39-.22-95.83-.76-26.9-.32-53.45-.71-31.62-.46-62.73-1.09-12.2-.23-24.32-.51c-159.62-3.45-308.36-9.62-440.56-18q-52.45-3.32-101.33-7.07-41.43-3.18-80.07-6.67-28.64-2.58-55.65-5.32-10-1-19.84-2.06l-4.87-.52-1.83-.2-4.6-.5q-9.17-1-18.12-2c-2.39-.27-4.77-.55-7.13-.8l-9.08-1.06-6.44-.77-5.48-.65-7.83-1h-.24q-6.74-.83-13.35-1.68l-1.38-.18-10.81-1.41-3.56-.47-3.37-.45-4.66-.63-2.56-.35-2.92-.41-4.66-.65-4.11-.57-4.07-.58-4-.59-1.79-.27-1.75-.26-4.33-.64c-1.43-.2-2.86-.42-4.28-.64l-1.4-.21-4.55-.7q-5.92-.9-11.68-1.83c-1-.18-2.07-.35-3.1-.51l-1.17-.19-1.18-.19-5.9-1-1.08-.17-1.7-.3-5.53-.93-5.42-.94-4.49-.8-3.51-.62-2.62-.48-2.61-.48q-6.48-1.18-12.71-2.41c-1.45-.27-2.88-.56-4.32-.84-1.84-.36-3.66-.74-5.46-1.1-2.4-.48-4.78-1-7.12-1.47l-5.06-1.07c-2-.44-4-.88-6-1.34q-6.95-1.53-13.44-3.1l-2.16-.52-2.14-.53c-1.07-.26-2.16-.52-3.21-.79l-1.32-.33c-.44-.11-.88-.22-1.3-.34l-.73-.18-.74-.19c-1.49-.38-3-.77-4.39-1.15l-3.81-1c-4.38-1.19-8.57-2.41-12.6-3.62-18.7-5.66-33.31-11.5-43.51-17.47a55.22,55.22,0,0,1-11.1-8.18,12.66,12.66,0,0,1-1-1.08c-.3-.37-.83-.91-1.19-1.37a.64.64,0,0,1-.1-.13c-.15-.19-.3-.37-.43-.56h0c-.11-.15-.22-.28-.32-.43l-.29-.43c-.16-.22-.3-.43-.43-.65s-.28-.43-.4-.65l-.34-.65c-.12-.23-.23-.46-.32-.67l-.24-.54-.08-.16a6.45,6.45,0,0,1-.21-.62v-.07c-.07-.21-.13-.38-.18-.56a6.66,6.66,0,0,1-.22-.88,3.13,3.13,0,0,1-.1-.44v-.4c-.05-.31-.09-.62-.11-.93h0v-1.83a2,2,0,0,1,.06-.62h0a.83.83,0,0,1,.05-.35.14.14,0,0,1,0-.09.49.49,0,0,1,0-.17v-.26a.17.17,0,0,1,0-.1.89.89,0,0,1,0-.23,3.12,3.12,0,0,1,.09-.44,3.47,3.47,0,0,1,.13-.46l.07-.26c.07-.22.14-.44.23-.65h0a5.26,5.26,0,0,1,.25-.66l.07-.18c.18-.42.38-.84.6-1.29,0-.09.09-.18.13-.28a1.09,1.09,0,0,0,.08-.15q.12-.2.24-.42l.16-.26c.11-.19.24-.38.36-.58a27.41,27.41,0,0,1,1.85-2.57c.24-.28.47-.57.72-.85l.19-.21c.12-.15.26-.29.4-.44a2,2,0,0,0,.19-.22h0c.13-.13.25-.24.37-.37l.35-.37.9-.9h0l.5-.47a5.68,5.68,0,0,0,.51-.47l.1-.09,1-.86.94-.8,1-.81.44-.32c.13-.11.27-.23.42-.34.59-.45,1.19-.9,1.81-1.34.79-.56,1.59-1.12,2.44-1.68s1.7-1.12,2.6-1.68l1.44-.91c.37-.22.74-.45,1.13-.66l.38-.22.75-.46.3-.16.5-.29.39-.22.4-.22.39-.23.41-.2,1.64-.92,1.7-.9.83-.42.84-.43,2.74-1.39,1.41-.68,1.45-.69c.47-.22,1-.45,1.44-.69q1.5-.64,3-1.35l.76-.33.78-.36.77-.33c1-.44,2-.88,3.06-1.32h0l1.11-.48a1.31,1.31,0,0,0,.4-.15l1.22-.52,1.25-.51,2-.85h.08l.38-.15.48-.19.94-.38.36-.14.36-.14.76-.29,1-.38,1-.4c.83-.3,1.66-.61,2.5-.94s1.7-.63,2.56-1l2.62-1,2.68-1c.86-.32,1.73-.61,2.61-.91l1-.35,1-.34,2.44-.84,2.12-.72.78-.25c.69-.25,1.39-.49,2.1-.71s1.7-.55,2.54-.84l2.91-.94h0l6-1.89q3-.94,6.16-1.89l3.16-.95,3.19-.94h0l.61-.18c.87-.27,1.75-.52,2.64-.78l1.45-.41,1.46-.41c1.07-.32,2.15-.63,3.23-.92h0l.9-.26.46-.14,1.36-.38c.58-.15,1.16-.3,1.74-.47l1.74-.47h0c.86-.26,1.74-.49,2.61-.73l.94-.25.94-.27.94-.24,1-.27,2.49-.65,2.51-.67,5.69-1.48,4.71-1.21,1.66-.42,1.67-.42c2.29-.58,4.62-1.15,7-1.73l7.12-1.73,2.81-.67,6.06-1.43,2.45-.58,3.33-.77c2.78-.64,5.6-1.27,8.45-1.91q.86-.21,1.71-.39l.45-.1c.44-.11.9-.2,1.36-.3l.35-.09.56-.11.9-.21c.38-.09.78-.18,1.16-.25l1.15-.26c.39-.09.78-.18,1.17-.25l1.16-.27,5-1.08,5-1.08.29-.06a.51.51,0,0,0,.29-.06c2.23-.47,4.48-1,6.75-1.42l.65-.13,4.42-.92,2.72-.57c5.75-1.19,11.63-2.37,17.59-3.55l.43-.07h.23l1.42-.29,2.09-.4q6.27-1.23,12.67-2.44l3.21-.61,1.07-.21,2.15-.39,2.16-.4,4.36-.82q8.56-1.59,17.41-3.16L1213,2535l4.81-.83c1.6-.29,3.22-.56,4.82-.84l7.47-1.27,4.69-.79,2.35-.38,2.37-.38,2.35-.4,2.4-.4.55-.1c2.48-.4,5-.82,7.5-1.21l5.3-.87c1.79-.27,3.59-.56,5.39-.85.9-.14,1.81-.27,2.71-.42l2.71-.44,4.91-.77,5-.76,10-1.52,5-.76,5.07-.76,1.9-.28,3.82-.57,1.91-.27,3.85-.58,3.87-.56,12-1.72,4.71-.65c1.15-.18,2.33-.35,3.5-.5h.06l10-1.4c4.09-.56,8.22-1.13,12.37-1.68l6.24-.84,12.58-1.66,6.35-.82,9.58-1.23,4.83-.6c1.6-.2,3.21-.41,4.83-.6l6.48-.82,6.53-.8.51-.06,2.59-.32,3.13-.39c2.08-.25,4.17-.51,6.27-.75l3.29-.39,3-.35,6.34-.76,3.22-.38,1.63-.18,1.62-.2,4.34-.5,4.38-.51,4.38-.49,4.4-.5c1.78-.21,3.57-.4,5.35-.6q16.11-1.8,32.54-3.54l5.5-.57,4.53-.48c1.51-.17,3-.32,4.55-.48l4.28-.44h.19l1.94-.2,2.14-.22,3.37-.33,1.69-.17,1.68-.17,6.77-.69,6.8-.66c2-.2,4.09-.41,6.15-.6h.67l1.1-.11.93-.09,2.38-.23,4.45-.42c5.39-.51,10.82-1,16.25-1.53s10.92-1,16.42-1.5l5.3-.5,5.34-.47,6.66-.58c2.23-.2,4.44-.4,6.68-.58l6.71-.59,6.73-.58,6.09-.51,6.12-.51,21.66-1.76,3.78-.29,3.49-.29,3.65-.27,3.64-.29,8.74-.66,8.78-.65,3.36-.25,3.33-.26,2.54-.19.84-.06c.56,0,1.13-.07,1.68-.12l1.68-.12,10.58-.77c3.53-.25,7.07-.51,10.61-.75l7.1-.49,5.41-.36,5.4-.38,4.28-.28,2.12-.14,2.14-.13,6.88-.45,6.91-.45,6.87-.43,6.88-.44h0l6.91-.42,6.94-.43c3.72-.22,7.45-.45,11.19-.66,3.33-.2,6.68-.4,10-.58l7-.39,7.06-.4,3.7-.2h0l3.71-.21,7.42-.4c6.59-.34,13.2-.7,19.83-1h.91q14.36-.74,28.78-1.41c3.61-.17,7.23-.34,10.86-.49l2.63-.12c2.76-.12,5.49-.26,8.26-.37,3.63-.16,7.29-.32,10.94-.46l11-.48c2.13-.07,4.26-.16,6.39-.25l6.4-.26c5.52-.21,11.06-.43,16.63-.62.61,0,1.22-.05,1.84-.06l1.86-.07,3.69-.14,2-.07,6.41-.23,6.43-.23,10.8-.35,11.54-.37,7.48-.23,19-.56,13.76-.36,2.35-.06,2.48-.07h2c3.27-.08,6.53-.17,9.81-.23h.25l6.56-.16,2.81-.07,3.77-.08,23.34-.47h0l30.56-.53h1.62l4.2-.07,9-.12h.63l15.26-.19h.17c3.32,0,6.64-.08,10-.11h2.42c4.14-.05,8.28-.08,12.43-.12s8.27,0,12.43-.07c3.88,0,7.78-.06,11.65-.09h58.76q8.19,0,16.34.06h2.59q8.25,0,16.45.11,8.53,0,17,.13H2333l17.68.2h.36l18,.23c3,0,6.06.09,9.07.15s6.08.11,9.21.15l9.11.16c3,0,6.06.1,9.09.16l7.77.15,7.77.16q12.93.24,25.77.57h1.28l9,.23,7.38.19,1.59,0h1.29l5,.13,6.21.18,4.59.14,4.59.13,4.47.13,1.6.05h.8l2.39.08h1.64l8.13.25h1.31l2.06.07,4.63.15,4.63.14,4.44.16,3.06.11h1.37c1.55.06,3.1.12,4.64.16l5.42.2,5,.19,4.13.14h1.07l2.51.1,1.3.05,1.41,0h.36c1.87.06,3.75.13,5.62.21l8.55.33,4.81.2h.2l4.93.2,2.23.1,2.21.09c1.83.09,3.65.15,5.47.23l11.51.5,8.23.38,2.55.1,2,.1h.41l2,.09h.1l2.13.1c2.88.13,5.76.26,8.61.41l11.54.56,2.84.14c.9,0,1.81.09,2.71.12h1.33l2.84.15,1.15.06,4,.2,2.28.12,2.3.11h.89l13.37.72,5.05.27,8.26.46,1.35.07h.34l2.94.17,2.93.16,2.84.16,2.85.16c1,.06,2,.12,2.94.16l2.94.17,4.13.25,1.58.09,1.58.09,3.55.22,4.55.27,4.54.28,9.21.57c3.07.18,6.13.38,9.18.57H2743l3.72.24,4.2.27,1.27.08c3,.2,6,.39,9,.6l9.3.62,6.08.41c.57.05,1.14.08,1.71.12l1.48.1,6.64.46,5.13.37,3.58.25c1,.06,1.93.13,2.89.21h.2l1.43.1.72.05.72,0,1.31.1,1.45.09,1.54.12,2,.15h0l3.88.28h0l2.46.19,1.22.09,4.71.35,3,.22h0l2.93.21.73.06h.28l1.66.13,1.71.13,4.66.35,7.21.56,3.69.29,3.69.3,2.05.15c.38,0,.77.06,1.16.09h.19l3.57.3,7.32.59,7,.57,8.85.73c3,.24,5.89.5,8.82.75,5.63.48,11.23.95,16.79,1.45l11.41,1,11.35,1c3.78.33,7.51.68,11.26,1l9.51.88,16.87,1.63c2.33.22,4.67.44,7,.68a16.6,16.6,0,0,1,1.73.16l20.17,2,8.15.85,8.1.84,3.72.39a5.24,5.24,0,0,1,1.11.12l2.6.27,3.47.37c1.73.19,3.47.37,5.19.57l3.63.38c1.45.16,2.91.31,4.36.48l7.92.87,7.91.88,7.84.89,4.63.53,4.61.52,9,1.06q18,2.1,35.48,4.28c1.13.13,2.28.28,3.42.43,1.36.16,2.71.34,4.06.51l7.38.93,3.78.48,1.77.23c2.55.33,5.1.64,7.62,1l3.41.45,5.46.72,7.26,1q14.45,2,28.52,3.91l14,2c4.61.67,9.2,1.35,13.76,2l13.57,2c.76.1,1.54.22,2.3.34,1.21.17,2.4.36,3.59.56l7.47,1.14,6.6,1,6.55,1,.82.13c2.43.37,4.87.77,7.29,1.15l4.43.72.42.07,6.4,1q12.22,2,24,4l2.18.38,1.24.22c1.23.22,2.47.44,3.69.64l1.85.31,3.9.68.56.11.55.1,1.09.19c2.07.38,4.13.74,6.18,1.1l10.36,1.88,3.42.63,3.87.72c6.07,1.12,12.05,2.27,17.93,3.39l8.52,1.67,7.56,1.5,7.46,1.51,7.34,1.51,9.84,2.07,8,1.73,3.49.77q5.84,1.28,11.52,2.57l2.15.49Q3448,2564.18,3473,2571q17.73,4.83,33.07,9.67C3563.76,2599.18,3595.3,2617.11,3595.3,2633.19Z" transform="translate(-920.75 -360)"/><path class="cls-7" d="M3418.64,2557.89c-9.73,9.61-24.12,19.37-43.4,29.16-21.22,10.8-48.39,21.62-81.78,32.31q-33.37,10.68-75.14,21.12-17.78,4.44-37.12,8.79c-71.09,16-158.09,31.27-262.16,45.07q-71.91,9.54-154.77,18.09c-150.44,15.44-328.54,28.13-536.56,36.67-5.89.25-11.81.47-17.74.71l-13.25.52c-32.91,1.27-65.32,6-97.54,8.77q-26.89-.32-53.45-.71-31.62-.46-62.73-1.09-12.2-.23-24.32-.51c-159.62-3.45-308.36-9.62-440.56-18q-52.45-3.32-101.33-7.07-41.43-3.18-80.07-6.67-28.63-2.58-55.65-5.32-10-1-19.84-2.06l-4.87-.52-1.83-.2-4.6-.5q-9.17-1-18.12-2c-2.39-.27-4.77-.55-7.13-.8l-9.08-1.06-6.44-.77-5.48-.65-7.83-1h-.24q-6.75-.83-13.35-1.68l-1.38-.18q-5.46-.69-10.81-1.41l-3.56-.47-3.37-.45-4.66-.63-2.56-.35-2.88-.4h0l-8.77-1.22-4.07-.58-4-.59-1.79-.27q-3.06-.43-6.08-.9c-1.43-.2-2.86-.42-4.28-.64l-1.4-.21-4.55-.7q-5.92-.9-11.68-1.83l-4.27-.7-1.18-.19-5.9-1-2.78-.47-5.53-.93-5.42-.94-4.49-.8-3.51-.62-2.62-.48-2.61-.48q-6.48-1.18-12.71-2.41c-1.45-.27-2.88-.56-4.32-.84-1.84-.36-3.66-.74-5.46-1.1-2.41-.48-4.79-1-7.12-1.47l-5.06-1.07c-2-.44-4-.88-6-1.34q-6.95-1.53-13.44-3.1l-2.16-.52-2.14-.53c-1.07-.26-2.16-.52-3.21-.79l-1.32-.33-2-.52-.74-.19c-1.49-.38-2.95-.77-4.39-1.15l-3.81-1c-4.38-1.19-8.57-2.41-12.6-3.62q17.36-6.29,36.84-12.72h0q12.54-4.16,25.94-8.37,14-4.39,28.89-8.86,17.25-5.14,35.71-10.35h0q6.24-1.76,12.63-3.53,23.67-6.57,49.16-13.2c177.2-46,417.59-93.41,692.35-130h0c64-8.55,129.93-16.52,197.3-23.78h2.14c3.27-.08,6.54-.17,9.81-.23h.25l6.56-.16,2.81-.07,3.77-.08,23.34-.47h0q15.23-.28,30.56-.53h1.62l4.2-.07,9-.12h.63l15.26-.19h.17c3.32-.05,6.64-.08,10-.11H2183c4.14-.05,8.28-.08,12.43-.12s8.27-.05,12.43-.07c3.88,0,7.78-.06,11.65-.09h58.91q8.19,0,16.34.06h2.59q8.25,0,16.45.11,8.53,0,17,.13H2333l17.68.2h.36l18,.23,18.28.29,18.1.32h.1l7.77.16,7.77.16q12.93.24,25.77.57h1.28l9,.23,7.38.19,1.59.05c2.1,0,4.2.1,6.29.16l6.21.18,4.59.14,4.59.13,4.47.13,1.6.05,3.19.1h1.64l8.13.25h1.31l2.06.07,4.63.15c1.55.06,3.09.11,4.64.15l4.43.15,3.06.11h1.37c1.55.06,3.1.12,4.64.16l5.42.2,5,.19,4.13.14h.84l2.74.1,1.3,0,1.52.06h.25l2.73.09,2.89.12,8.55.33,4.81.2h.2l4.93.2,2.23.1,2.21.09c1.83.09,3.65.15,5.47.23l11.51.5,8.23.38,2.55.1,2,.1h.41l2,.09h.1l2.13.1c2.88.13,5.76.26,8.61.41l11.54.56,2.84.14,1.74.09c1.71.07,3.43.16,5.14.26s3.41.18,5.13.25l2.28.12,2.3.11h.89l13.37.71,5.05.27,8.26.46,1.35.07h.34l2.94.17,2.93.16,2.84.16,2.85.16c1,.06,2,.12,2.94.16l2.94.17,4.13.25,1.58.09,1.58.09,3.55.22,4.55.27,4.54.28,9.21.57c3.07.18,6.13.38,9.18.57h1.31l3.72.24,4.2.27,1.27.08c3,.2,6,.39,9,.6l9.3.62,6.08.41,1.71.12,1.48.1,6.64.46,5.13.37,3.58.25c1,.06,1.93.13,2.89.21h.2l1.43.1.72,0,2,.15c1,.06,2,.14,3,.21l2,.15h0l3.88.28h0l3.68.28h.45l.67,0c1.2.08,2.39.18,3.59.27l3,.22h0l2.93.21.73.06h.28l1.66.13,1.71.13,19.25,1.5,2.05.15c.38,0,.77.06,1.16.09h.19l3.57.29,7.32.59,7,.57,8.85.73c3,.24,5.89.5,8.82.75,5.63.48,11.23,1,16.79,1.45l11.41,1,11.35,1c3.78.33,7.51.68,11.26,1l9.51.88,16.87,1.63c2.33.22,4.67.44,7,.68q11,1.08,21.9,2.19l8.15.85,8.1.84,3.72.39a5.24,5.24,0,0,1,1.11.12q5.65.58,11.26,1.21l3.63.38q6.16.66,12.28,1.35l7.91.88,7.84.89,4.63.53,4.61.52,9,1.06q18,2.1,35.48,4.28c1.13.13,2.28.28,3.42.43,1.36.16,2.71.34,4.06.51l7.38.93,3.78.48,1.77.23c2.55.33,5.1.64,7.62,1l3.41.45,12.72,1.68q14.45,2,28.52,3.91l14,2c4.61.67,9.2,1.35,13.76,2l13.57,2c2,.3,3.94.59,5.89.9l7.47,1.14,6.6,1,6.55,1,.82.13,11.72,1.87.42.07,6.4,1q12.22,2,24.05,4l2.18.38,4.93.86,1.85.31,4.46.79.55.1,1.09.19c2.07.38,4.13.74,6.18,1.1l10.36,1.88,3.42.63,3.87.72c6.07,1.12,12.05,2.27,17.93,3.39l8.52,1.67,7.56,1.5,7.46,1.51,7.34,1.51,9.84,2.07,8,1.73,3.49.77q5.84,1.27,11.52,2.57Z" transform="translate(-920.75 -360)"/><path class="cls-3" d="M3021.35,2548.36c0,70-598.72,126.82-1337.3,126.82-242.38,0-469.68-6.12-665.72-16.81q-36.42-2-71.38-4.18a31.46,31.46,0,0,1-20.06-8.75c-.36-.34-.71-.7-1.06-1.07s-.82-.92-1.2-1.39c-.18-.23-.36-.45-.53-.68h0c-.21-.29-.42-.57-.61-.86s-.56-.86-.81-1.3-.47-.88-.67-1.33q-.16-.34-.3-.69c-.08-.21-.18-.41-.24-.62v-.08a3.62,3.62,0,0,1-.17-.56,6.2,6.2,0,0,1-.24-.87,3.12,3.12,0,0,1-.09-.44.09.09,0,0,1,0-.07,1.91,1.91,0,0,1-.06-.33,12.82,12.82,0,0,1-.16-2v-.83a2.25,2.25,0,0,1,.06-.66h0a3.11,3.11,0,0,1,.07-.44v-.18a.68.68,0,0,1,.07-.36,3.73,3.73,0,0,0,.14-.66,4,4,0,0,1,.13-.46l.07-.26c.07-.22.14-.44.22-.65h0c.08-.22.16-.45.26-.67a13.61,13.61,0,0,1,.66-1.46c.14-.28.3-.56.46-.85s.34-.55.51-.84a27.51,27.51,0,0,1,1.86-2.57l.72-.86c.26-.29.51-.57.79-.86h0c.25-.25.47-.49.71-.74l.91-.9c.66-.62,1.35-1.26,2.1-1.9s1.26-1.07,1.94-1.6l.85-.68c.58-.44,1.19-.89,1.82-1.33,1.55-1.11,3.21-2.23,5-3.37l1.44-.89,1.5-.89c.5-.29,1-.61,1.56-.9l.79-.45c.25-.15.53-.3.8-.44,1.08-.61,2.19-1.2,3.34-1.8l1.67-.86c.9-.45,1.8-.92,2.73-1.38s1.89-.92,2.87-1.37c.47-.24,1-.46,1.45-.69l3-1.36,1.55-.68c1.25-.56,2.51-1.12,3.84-1.66l1.51-.64,2.47-1,2.06-.84,1.86-.74.74-.29c.25-.1.49-.2.75-.29l2-.77,5.06-1.91c1.73-.63,3.5-1.28,5.3-1.92l2.61-.92,1.93-.67c.81-.29,1.62-.56,2.45-.83,1.63-.57,3.29-1.14,5-1.69.85-.29,1.69-.55,2.55-.83l2.91-1h0l6-1.89c2-.62,4.07-1.26,6.16-1.89l6.35-1.89h0l3.25-.94,2.92-.84c1-.28,2.14-.63,3.22-.93l2.73-.75c1.15-.33,2.31-.65,3.49-1,.87-.25,1.74-.48,2.62-.72l3.76-1,5-1.33c3.42-.9,6.88-1.79,10.41-2.7l3.32-.83c4.59-1.15,9.3-2.31,14.09-3.46,3.73-.9,7.5-1.79,11.34-2.67,4.41-1,8.91-2.06,13.47-3.08.59-.14,1.2-.28,1.81-.4l1.81-.4,2.31-.52,2.34-.51c3.29-.73,6.62-1.44,10-2.16l.58-.13,7.4-1.55,4.41-.92q9.94-2.05,20.33-4.1l2.07-.42,2.09-.4q6.27-1.23,12.67-2.44l4.28-.8,4.31-.82,4.35-.81q13.74-2.54,28.1-5l9.64-1.65,7.45-1.27,4.69-.79c1.57-.26,3.15-.54,4.71-.78l4.75-.79,8.06-1.31,5.3-.86,5.39-.86,5.42-.85,4.91-.77,5-.77,10-1.52,10.11-1.51c2.53-.38,5.09-.77,7.64-1.14l7.72-1.12c4-.59,8-1.15,12-1.72l8.26-1.16,10-1.4,12.38-1.68,6.23-.84,12.58-1.66c2.11-.26,4.23-.54,6.34-.82,6.37-.81,12.79-1.64,19.25-2.44l13-1.61,6.24-.76,6.27-.76,6.29-.75,6.35-.75,3.23-.37c1.07-.13,2.16-.26,3.24-.37l8.72-1,8.78-1q21.38-2.43,43.39-4.73l9.08-1,4.27-.44,4.28-.43c1.12-.1,2.24-.22,3.37-.34l3.37-.35,13.57-1.34,6.15-.61h.66l4.43-.44,4.44-.42q16.18-1.56,32.66-3c3.53-.33,7.08-.64,10.65-1,4.43-.39,8.88-.79,13.35-1.17l13.43-1.15,12.21-1,21.66-1.75,7.27-.57,7.29-.57,17.52-1.33,6.71-.49c1.13-.1,2.24-.17,3.36-.26l3.36-.24,28.3-2q5.39-.39,10.8-.73l4.28-.29c1.41-.11,2.83-.2,4.26-.28l6.88-.45c2.3-.15,4.6-.31,6.91-.45l13.76-.87h0c4.6-.29,9.2-.56,13.84-.84q10.56-.64,21.22-1.25c4.69-.26,9.39-.53,14.1-.78l3.71-.21,11.13-.61,19.83-1h.92q14.33-.72,28.78-1.4l21.74-1,21.91-.92,12.78-.52c5.53-.22,11.06-.42,16.62-.62l3.71-.14,3.69-.14,2-.07c4.27-.16,8.55-.3,12.84-.45l22.34-.73c2.49-.09,5-.16,7.48-.24l19-.55c4.57-.12,9.17-.25,13.77-.36l4.69-.12h.15c.67,0,1.34,0,2-.06l10.05-.24q6.57-.17,13.16-.3,11.63-.27,23.33-.48h0q15.23-.3,30.56-.53l15.46-.22,15.44-.19c3.32,0,6.64-.08,10-.1h2.41l12.42-.11L2208,2458q12.06-.08,24.18-.12,12.9-.06,25.9,0,74.76,0,147.47,1.4,15.57.28,31,.65l10.3.24,10.26.25,10.26.27,20.39.58c1.5,0,3,.1,4.47.13l4.79.15,1.61.05,8.13.25H2508l20.19.67,4.64.17,5.42.19,10,.37,5.46.2h.35q2.82.09,5.61.21l8.56.34,4.81.2,5.13.21,4.45.18,5.46.23,11.51.5,8.23.38c1.66.06,3.32.15,5,.22l4.27.19,8.61.41,11.53.56,9.73.48,5.12.26,4.59.23h.89l13.37.71,5,.28,8.27.45,1.35.07h.34l5.87.33,5.69.32,5.88.34,4.13.24,3.16.19,3.54.21,9.09.54,18.4,1.15.83.06,8.4.53,1.27.08,9,.6,9.3.62,6.07.41,1.72.12,1.49.1,9.23.64,6.1.44,3.09.22c3.07.21,6.13.43,9.16.66l3.89.28,2.49.19,2.34.16,9.5.72.73.06,1.95.14,6.36.48,7.21.56c2.46.2,4.92.4,7.37.58l2.06.16,1.16.1h.2l10.89.88c2.32.19,4.63.37,6.94.57l8.86.73,8.82.74C2973.5,2505.92,3021.35,2528.55,3021.35,2548.36Z" transform="translate(-920.75 -360)"/><path class="cls-1" d="M1871.69,2506c0,36.34-78.14,69.11-203.35,92.22-116.11,21.44-272.7,34.59-445,34.59-39.06,0-77.31-.68-114.46-2-63.9-2.22-124.56-6.29-180.51-11.89.65-.62,1.36-1.26,2.1-1.9s1.26-1.07,1.93-1.6c.28-.22.58-.44.86-.68.59-.44,1.19-.89,1.82-1.33,1.55-1.12,3.24-2.23,5-3.36l1.43-.9c.5-.31,1-.61,1.5-.89s1-.61,1.56-.9l.79-.45c.25-.16.54-.3.8-.44,1.07-.6,2.2-1.2,3.34-1.8.54-.29,1.1-.57,1.67-.86.9-.45,1.8-.92,2.73-1.38l2.87-1.38,1.45-.68,3-1.36c.5-.21,1-.45,1.54-.68,1.25-.56,2.52-1.12,3.84-1.66.49-.23,1-.43,1.51-.64l2.47-1,2-.84,1.88-.74.73-.29.75-.29,2-.77,5.06-1.91c1.74-.63,3.5-1.28,5.3-1.92l2.61-.92c.63-.23,1.29-.45,1.93-.67.81-.29,1.62-.56,2.44-.83,1.64-.58,3.3-1.14,5-1.69.84-.29,1.69-.56,2.55-.83l2.9-1h0c2-.62,4-1.27,6-1.89s4.07-1.26,6.16-1.89l6.35-1.89h0l3.26-1c.94-.28,1.93-.55,2.91-.83s2.14-.62,3.23-.92l2.72-.77,3.49-.95c.87-.26,1.74-.49,2.61-.73,1.25-.35,2.5-.68,3.77-1l5-1.33q5.13-1.35,10.4-2.69c1.1-.29,2.21-.56,3.33-.84,4.59-1.16,9.3-2.31,14.09-3.46,3.73-.9,7.5-1.79,11.35-2.68q6.6-1.53,13.46-3.07l1.81-.4c.6-.15,1.21-.27,1.81-.4l2.31-.52,2.33-.52q5-1.08,10-2.15l.58-.13c2.44-.51,4.91-1,7.4-1.55l4.41-.92c6.62-1.37,13.41-2.75,20.32-4.1l2.08-.42,2.09-.4,12.67-2.44,4.28-.8,4.31-.82c1.45-.26,2.91-.53,4.35-.81q13.74-2.53,28.1-5c3.19-.55,6.4-1.11,9.63-1.65l7.46-1.28,4.69-.79c1.56-.26,3.14-.53,4.72-.78s3.15-.52,4.74-.79l8.06-1.31,5.3-.86,5.39-.86,5.42-.84c1.63-.27,3.26-.52,4.91-.78l5-.78,10-1.51c3.36-.52,6.73-1,10.11-1.51l7.64-1.14c2.57-.39,5.14-.76,7.72-1.13l12-1.72,8.27-1.16c3.32-.46,6.66-.93,10-1.38,4.09-.56,8.22-1.14,12.37-1.69l6.24-.83q6.24-.84,12.58-1.66l6.35-.83,19.24-2.44,13-1.62,6.23-.75,6.27-.76c2.09-.24,4.19-.51,6.29-.74s4.22-.51,6.35-.76l3.22-.37,3.25-.38,8.72-1,8.78-1q21.38-2.41,43.39-4.71l9.08-1,4.27-.44,4.28-.43,3.37-.34,3.37-.34q6.75-.69,13.57-1.35l6.15-.61h.67l4.42-.44,4.44-.42q16.18-1.56,32.66-3c3.53-.33,7.08-.64,10.65-1,4.43-.39,8.87-.79,13.34-1.17l13.44-1.15,12.22-1,21.65-1.74,7.28-.57,7.28-.58q8.74-.67,17.52-1.31c2.24-.17,4.47-.35,6.72-.5,1.12-.1,2.23-.17,3.35-.26l3.36-.24,28.29-2c3.6-.26,7.21-.5,10.81-.73l4.28-.3c1.41-.09,2.83-.19,4.25-.27l6.89-.45c2.3-.16,4.6-.3,6.91-.45l13.76-.87h0l13.84-.85c7-.43,14.11-.84,21.22-1.24l14.1-.79,3.7-.2,11.14-.61h0a94,94,0,0,1,14.78,15.46h0a53.89,53.89,0,0,1,5.33,8.79A31.2,31.2,0,0,1,1871.69,2506Z" transform="translate(-920.75 -360)"/><path class="cls-8" d="M2301.38,2563.05c-144,0-281.74,1.46-408.43,4.14h0c-422.59,8.95-722.23,31.34-722.23,57.57,0,21,192.94,39.62,487.55,50.76,146.8-23.75,238.42-57.41,238.42-94.76a25.08,25.08,0,0,0-.79-6.1,24.61,24.61,0,0,1,.8,6.1c0,37.35-91.63,71-238.42,94.76,182.57,6.91,404.17,10.95,643.1,10.95,624.44,0,1130.65-27.63,1130.65-61.71S2925.82,2563.05,2301.38,2563.05Z" transform="translate(-920.75 -360)"/><path class="cls-9" d="M3381.84,749.49V2635.58H2491.18V1241a491.58,491.58,0,0,1,454.51-490.15q18.33-1.36,37-1.38Z" transform="translate(-920.75 -360)"/><path class="cls-10" d="M2727.5,2635.58H2491.18V1592.39c73.14,87.23,125.08,192.63,158.89,301.86,45,145.25,59.91,298,68.48,449.83Q2726.8,2489.69,2727.5,2635.58Z" transform="translate(-920.75 -360)"/><path class="cls-11" d="M2726.46,936a2.8,2.8,0,0,1-2.48-1.2,2.49,2.49,0,0,1-.07-2.7l46.79-101.3a2.59,2.59,0,0,1,2.56-1.66h1.5a2.71,2.71,0,0,1,1.73.44,3,3,0,0,1,.83,1.22l46.34,101.26a2.49,2.49,0,0,1-.07,2.7,2.82,2.82,0,0,1-2.49,1.2H2808a4.52,4.52,0,0,1-2.63-.67,5.59,5.59,0,0,1-1.73-2.34l-7.37-16.25h-45l-7.35,16.3a5,5,0,0,1-1.51,2.11,4.22,4.22,0,0,1-2.86.9Zm62.45-36-15-33.1h-.45l-14.8,33.1Z" transform="translate(-920.75 -360)"/><path class="cls-11" d="M2847.14,848.7h-23a2.83,2.83,0,0,1-2.86-2.8V833.5a2.82,2.82,0,0,1,2.82-2.83h65.75a2.83,2.83,0,0,1,2.83,2.83v12.33a2.86,2.86,0,0,1-2.83,2.87h-23v84.41a2.83,2.83,0,0,1-2.77,2.89H2850a2.82,2.82,0,0,1-2.85-2.79V848.7Z" transform="translate(-920.75 -360)"/><path class="cls-11" d="M2917.55,831.4a2.86,2.86,0,0,1,.83-1.58,2.52,2.52,0,0,1,1.88-.68h2.41a2.64,2.64,0,0,1,2.56,1.5l33.1,71h.45l33.1-71a2.64,2.64,0,0,1,2.56-1.5h2.4a2.53,2.53,0,0,1,1.89.68,2.85,2.85,0,0,1,.82,1.58l17.76,101.1a3,3,0,0,1-.45,2.56,2.8,2.8,0,0,1-2.26.9h-13.69a2.47,2.47,0,0,1-1.81-.74,4.63,4.63,0,0,1-1-1.51l-8.88-57h-.45l-26.33,59.13a2.45,2.45,0,0,1-2.56,1.65h-2.71a2.59,2.59,0,0,1-2.55-1.65L2928,876.71h-.45l-8.73,57a3,3,0,0,1-.9,1.51,2.47,2.47,0,0,1-1.8.74h-13.54c-2.21,0-3.17-1.15-2.86-3.46Z" transform="translate(-920.75 -360)"/><path class="cls-12" d="M3381.85,772.41V2635.58H3179.56V749.49h179.37A22.92,22.92,0,0,1,3381.85,772.41Z" transform="translate(-920.75 -360)"/><polygon class="cls-13" points="2161.58 2275.58 1900.71 2275.58 1570.43 1593.35 1570.43 1054.52 1627.78 1172.98 1627.78 1298.44 1688.52 1298.44 2161.58 2275.58"/><path class="cls-12" d="M3112.08,974.71v683.73H2548.53V1100a125.24,125.24,0,0,1,125.24-125.24Z" transform="translate(-920.75 -360)"/><polygon class="cls-14" points="2191.33 614.71 2191.33 1298.44 1627.78 1298.44 1753.24 1183.1 1753.24 614.71 2191.33 614.71"/><polygon class="cls-15" points="2123.43 1049.34 1899.81 1049.34 1782.98 614.71 2006.6 614.71 2123.43 1049.34"/><polygon class="cls-15" points="2128.74 1069.09 1920.18 1125.15 1899.81 1049.34 2123.43 1049.34 2128.74 1069.09"/><path class="cls-11" d="M3112.08,1055.48v281.43a5,5,0,0,1-5,5H2797.29a54.55,54.55,0,0,1-54.55-54.55h0V1105.08a54.55,54.55,0,0,1,54.55-54.55h309.83A5,5,0,0,1,3112.08,1055.48Z" transform="translate(-920.75 -360)"/><path class="cls-9" d="M2764.39,1074.11h-55.65v27.57h55.65a13.79,13.79,0,1,0,.74-27.57Z" transform="translate(-920.75 -360)"/><path class="cls-9" d="M2764.39,1132.6h-55.65v27.58h55.65a13.79,13.79,0,0,0,0-27.58Z" transform="translate(-920.75 -360)"/><path class="cls-9" d="M2764.39,1196.2h-55.65v27.58h55.65a13.79,13.79,0,0,0,0-27.58Z" transform="translate(-920.75 -360)"/><path class="cls-9" d="M2764.39,1254.7h-55.65v27.57h55.65a13.79,13.79,0,1,0,.74-27.57Z" transform="translate(-920.75 -360)"/><rect class="cls-11" x="1753.24" y="1049.34" width="438.08" height="133.76"/><circle class="cls-9" cx="1809.22" cy="1116.21" r="30.15"/><path class="cls-12" d="M2961.5,1438.44h150.57v76.32H2961.5a34.1,34.1,0,0,1-34.1-34.1h0v-8.13A34.1,34.1,0,0,1,2961.5,1438.44Z" transform="translate(-920.75 -360)"/><path class="cls-16" d="M2957.8,1464.13h143.77a10.5,10.5,0,0,1,10.5,10.5h0a10.5,10.5,0,0,1-10.5,10.5H2957.8a10.5,10.5,0,0,1-10.5-10.5h0A10.5,10.5,0,0,1,2957.8,1464.13Z" transform="translate(-920.75 -360)"/><rect class="cls-12" x="1856.41" y="1086.58" width="116.42" height="60.04" rx="26.82"/><rect class="cls-11" x="1954.33" y="1000.14" width="104.67" height="22.03" rx="9.84"/><rect class="cls-12" x="1627.78" y="1337.49" width="563.54" height="132.15" rx="59.04"/><rect class="cls-9" x="1724.89" y="1366.93" width="360.37" height="73.03" rx="32.63"/><rect class="cls-16" x="1756.12" y="1392.81" width="296.15" height="21.52" rx="9.61"/><g class="cls-17"><path class="cls-14" d="M3119.88,1084.09v10.79h-331a5.4,5.4,0,1,1-.46-10.79h331.46Z" transform="translate(-920.75 -360)"/><path class="cls-14" d="M3119.88,1121.3v10.79h-331a5.4,5.4,0,1,1-.46-10.79h331.46Z" transform="translate(-920.75 -360)"/><path class="cls-14" d="M3119.88,1148.21V1159h-331a5.39,5.39,0,0,1,0-10.78h331Z" transform="translate(-920.75 -360)"/><path class="cls-14" d="M3119.88,1185.4v10.79h-331a5.4,5.4,0,1,1-.46-10.79h331.46Z" transform="translate(-920.75 -360)"/><path class="cls-14" d="M3119.88,1212.31v10.8h-331a5.4,5.4,0,0,1,0-10.8Z" transform="translate(-920.75 -360)"/><path class="cls-14" d="M3119.88,1249.51v10.79h-331a5.4,5.4,0,1,1-.46-10.79h331.46Z" transform="translate(-920.75 -360)"/><path class="cls-14" d="M3119.88,1276.42v10.79h-331a5.4,5.4,0,1,1-.46-10.79h331.46Z" transform="translate(-920.75 -360)"/><path class="cls-14" d="M3119.88,1313.62v10.79h-331a5.4,5.4,0,1,1-.46-10.79h331.46Z" transform="translate(-920.75 -360)"/></g><polygon class="cls-9" points="1379.83 178.33 1446.75 430.98 1493.75 338.05 1580.14 562.53 1492.21 208.53 1454.79 344.08 1379.83 178.33"/><polygon class="cls-9" points="1734.06 0 1632.63 240.89 1726.63 196.05 1657.83 426.53 1804.55 92.58 1692.1 177.01 1734.06 0"/><polygon class="cls-18" points="2461.1 1853.86 2461.1 2154.14 2461.1 2275.58 2258.81 2209.32 2258.81 1557.47 2461.1 1853.86"/><path class="cls-13" d="M3179.56,944.42V1234l-67.48-139.39V974.71h-58L2945.69,750.86q18.33-1.35,37-1.37h102.48Z" transform="translate(-920.75 -360)"/><path class="cls-13" d="M2723.15,974.71h-49.38A125.24,125.24,0,0,0,2548.53,1100v166l-50.84-105a491,491,0,0,1,171.23-298.16Z" transform="translate(-920.75 -360)"/><polygon class="cls-13" points="2258.81 1557.47 2258.81 2209.32 1817.83 1298.44 2133.41 1298.44 2258.81 1557.47"/><polygon class="cls-18" points="2461.1 883.32 2461.1 1172.85 2258.81 873.95 2258.81 584.42 2461.1 883.32"/><path class="cls-11" d="M2951.7,1758.39c-21.34,24.84-42.88,60.68-60.54,105.78q-3.82,9.78-7.4,20.14c-.69,2-1.38,4-2.05,6.09a346,346,0,0,0-11.24,43.8q-1.95,10.18-3.45,20.61c-1.48,10.19-2.65,20.54-3.59,31q-.94,10.35-1.59,20.84c-1.07,16.87-1.67,34-2.09,51.25q-.24,10.47-.44,21h0q-.29,15.64-.57,31.36c-.14,7-.29,14-.5,21-.47,17.11-1.15,34.22-2.32,51.22q-.71,10.45-1.68,20.84c-1,10.38-2.2,20.72-3.7,31q-1.5,10.35-3.44,20.62-2.19,11.67-5,23.17c-1.4,5.7-3.83,15.52-6.83,26.87-1.71,6.46-3.61,13.4-5.62,20.37-7.7,26.75-17,53.71-23.23,53.71h-254s33.67-6.18,59.68-80.38c2.2-6.27,4.34-13,6.4-20.28a487.71,487.71,0,0,0,11.22-50.13q1.71-9.87,3.23-20.64,2.06-14.64,3.7-31,1-10.07,1.84-20.81,1.85-23.84,2.71-51.17.33-10.24.48-21,.15-10.4.16-21.27v-10.15q.06-10.76.23-21,.45-27.39,1.66-51.3.53-10.79,1.2-20.89,1.11-16.41,2.53-31.13,1-10.82,2.25-20.76c2.32-19.1,5.07-35.84,8.14-50.53q2.28-11,4.8-20.44c27.84-105.35,73.73-77.77,73.73-77.77Z" transform="translate(-920.75 -360)"/><path class="cls-1" d="M2891.16,1864.17q-3.82,9.78-7.4,20.14l-225.9-27.71q2.28-11,4.8-20.44Z" transform="translate(-920.75 -360)"/><path class="cls-1" d="M2870.47,1934.2q-1.95,10.18-3.45,20.61l-219.55-26.92q1-10.82,2.25-20.76Z" transform="translate(-920.75 -360)"/><path class="cls-1" d="M2863.43,1985.81q-.94,10.35-1.59,20.84l-218.1-26.74q.53-10.79,1.2-20.89Z" transform="translate(-920.75 -360)"/><path class="cls-1" d="M2859.75,2057.9q-.24,10.47-.44,21l-217.46-26.66q.06-10.75.23-21Z" transform="translate(-920.75 -360)"/><path class="cls-1" d="M2858.74,2110.25c-.14,7-.29,14-.5,21l-217-26.61q.33-10.24.48-21Z" transform="translate(-920.75 -360)"/><path class="cls-1" d="M2855.92,2182.47q-.71,10.46-1.68,20.84l-217.6-26.69q1-10.07,1.84-20.81Z" transform="translate(-920.75 -360)"/><path class="cls-1" d="M2850.54,2234.29q-1.5,10.35-3.44,20.62l-217.39-26.67q1.71-9.87,3.23-20.64Z" transform="translate(-920.75 -360)"/><path class="cls-1" d="M2835.27,2305c-1.71,6.46-3.61,13.4-5.62,20.37l-217.56-26.67c2.2-6.27,4.34-13,6.4-20.28Z" transform="translate(-920.75 -360)"/><ellipse class="cls-19" cx="1195.37" cy="680.48" rx="59.94" ry="179.43"/><ellipse class="cls-9" cx="2139.15" cy="878.26" rx="39.45" ry="34.98" transform="translate(-1092.67 439.12) rotate(-20.36)"/><path class="cls-19" d="M2329.11,994a61.53,61.53,0,0,1-7.18,16.73h0c-.7,1.13-1.45,2.24-2.24,3.32a7.66,7.66,0,0,1-3.22,2.15c-4.53,1.94-12.31,3-17.76,2.79h-.07a20.11,20.11,0,0,1-3-.34h0a7.17,7.17,0,0,1-1.86-.58c-4.59-2.28-8.12-6.2-11.37-10.17l-.19-.23c-8.23-10.11-15.66-22-18.3-34.43a43,43,0,0,1-.58-15.58,1.1,1.1,0,0,1,.07-.47c.07-.16,0-.26.06-.39s0-.15,0-.22c2.53-14.23,12.62-25.9,23.26-35.69a217.43,217.43,0,0,1,23.47-18.78c1.41-1,2.82-1.94,4.25-2.87a5.69,5.69,0,0,0,1.77-1.85,8.33,8.33,0,0,0,1-4q1.94,4.35,3.56,8.77h1.14q1.17,5.08,2.35,10.3c.37,1.64.73,3.3,1.09,4.95.6,2.81,1.19,5.64,1.75,8.48q.9,4.5,1.69,9C2332.35,955.6,2333.89,976.36,2329.11,994Z" transform="translate(-920.75 -360)"/><path class="cls-20" d="M2845.3,1540.61c-2.58,22.18-39.73,31.84-61.19,38.56-2.94.93-5.58,1.79-7.79,2.62-35.08,13.19-54.5,12.47-89-4.78h0c-14-7-26.93-15.24-30.08-22.11-4.41-9.65-.75-25.52,6.21-33.51l12.73-14.63c3.6-4.15,23.44-14.12,28.64-12.28,11,3.9,22.67,3.19,34.42,2,6.19-.62,12.39-1.37,18.52-1.64a100.87,100.87,0,0,1,14.85.52c18.21,1.9,68.84,18.67,72.59,41.26A14,14,0,0,1,2845.3,1540.61Z" transform="translate(-920.75 -360)"/><path class="cls-21" d="M2784.11,1579.17c-2.94.93-5.58,1.79-7.79,2.62-35.08,13.19-54.5,12.47-89-4.78h0c-14-7-26.93-15.24-30.08-22.11-4.41-9.65-.75-25.52,6.21-33.51l12.73-14.63c3.6-4.15,23.44-14.12,28.64-12.28,11,3.9,22.67,3.19,34.42,2a166.3,166.3,0,0,1,20.18,24.58A170.36,170.36,0,0,1,2784.11,1579.17Z" transform="translate(-920.75 -360)"/><path class="cls-7" d="M2212.32,1294.18l119.58,104.41,100,87.3a59.24,59.24,0,0,0,16.3,10.11l184.58,76.14a60.24,60.24,0,0,0,11.39,3.42A59,59,0,0,0,2677.82,1463l-80.5-33.2-101-41.65a58.93,58.93,0,0,1-15.5-9.41l-26.86-22.6-171.69-144.52a54.12,54.12,0,0,0-70,82.57h.05Z" transform="translate(-920.75 -360)"/><path class="cls-14" d="M2331.9,1398.59l100,87.3a59.24,59.24,0,0,0,16.3,10.11l184.58,76.14a60.24,60.24,0,0,0,11.39,3.42,498.51,498.51,0,0,0-28.27-106.36,268.88,268.88,0,0,0-18.58-39.41l-101-41.65a58.93,58.93,0,0,1-15.5-9.41l-26.86-22.6c-37.76-3.41-75.91-2.33-113.87-1.21-2.42.07-5.37.48-6.29,2.73s3.2,4.13,3.66,2.14C2335.58,1373.48,2333.52,1386.32,2331.9,1398.59Z" transform="translate(-920.75 -360)"/><path class="cls-14" d="M2247.26,2125l-92.68,28.79c-35.69,11.11-66.54-27.17-60.76-75.38l100.49-838.11c3.8-31.69,23.51-57,47.24-60.8,51.88,32.6,94.91,82.26,126.16,143.3,24.33,47.54,41.54,102,50.21,160.62.44,2.91.85,5.81,1.24,8.74q2.78,20.77,4.09,42.19l15.17,246.78q.84,13.56.75,27v2C2437.69,1956.77,2357.59,2090.74,2247.26,2125Z" transform="translate(-920.75 -360)"/><polygon class="cls-21" points="1302.09 2127.04 1307.61 2216.29 1420.56 2241.93 1414.41 2089.47 1302.09 2127.04"/><path d="M2235.33,2655.09l67.68-3.57c2.52-.13,4.35-3.54,4.11-7.59l-1.38-23.18c-.12-2-1.19-3.61-2.44-3.64-27.92-.73-54.68-3.33-72.38-14.18-1.6-1-3.2.9-3,3.62l2.46,41.45C2230.58,2652,2232.81,2655.23,2235.33,2655.09Z" transform="translate(-920.75 -360)"/><path class="cls-22" d="M2503.81,2611.68s-55.42,34.73-102,37.2-64.36-22.39-100.43-22.08h-5.6c-7.3,0-14.91,0-22.41-.29-18.42-.67-36.15-2.77-46.76-8.71-5.89-3.3-9.61-7.77-10-13.85-1.14-19.33-1.68-41.71,3.77-54.85a2,2,0,0,1,2.6-1.11,1.94,1.94,0,0,1,.4.22,95.77,95.77,0,0,0,14.53,8.55c37.94,18.31,90.27,18,94.39,18.54l3.11.39-2.16-14.29h-.17c.38-4.34,2.13-18.62,9.06-24.7a4.15,4.15,0,0,1,2.62-1.12c8.51-.45,50.34,37.34,68.35,47.53,17.54,9.93,31.07,11.36,48.83,10.42,2.47-.14,5-.31,7.68-.51.63-.06,1.28-.11,1.91-.14C2492.09,2591.82,2503.09,2599.71,2503.81,2611.68Z" transform="translate(-920.75 -360)"/><polygon class="cls-23" points="1446.07 1495.43 1443.74 1547.37 1441.38 1599.8 1437.32 1690.28 1420.98 2054.55 1418.29 2114.35 1416.41 2156.26 1387.6 2157.32 1342.52 2158.97 1303 2164.23 1302.86 2160.42 1301.34 2118.84 1300.51 2103.27 1285.19 1815.1 1284.72 1806.39 1280.51 1727.16 1284.55 1582.95 1247.98 1392.53 1240.6 1354.14 1441.67 1317.12 1446.07 1495.43"/><rect class="cls-21" x="2128.45" y="1116.68" width="128.49" height="112.47" transform="translate(-153.76 2850.31) rotate(-83.16)"/><path class="cls-20" d="M2082,1052.3a25.13,25.13,0,0,0,35.57,21.56,103.82,103.82,0,0,0,206.67-18.37l-2.75-54.45-5.32-105-58,2.93-122.88,6.22-26.51,1.34,2.65,52.37h0l3.46,68.21a25,25,0,0,0-9.09-1.22,4.39,4.39,0,0,0-.72.07l-.89.08a5.06,5.06,0,0,0-.87.12l-.87.14c-.42.08-.85.17-1.26.27a2.62,2.62,0,0,0-.67.16l-.59.17c-.29.08-.56.17-.82.26l-.2.07c-.64.21-1.26.45-1.87.72a24.67,24.67,0,0,0-4.66,2.65h0c-.33.24-.67.48-1,.75s-.55.45-.81.68a24.6,24.6,0,0,0-1.94,1.88c-.07.08-.15.16-.21.24l-.25.27A25.07,25.07,0,0,0,2082,1052.3Z" transform="translate(-920.75 -360)"/><path class="cls-24" d="M2082,1052.3a25.13,25.13,0,0,0,35.57,21.56,103.89,103.89,0,0,0,79,87.91,103.77,103.77,0,0,0,69.65-103.35l-4.3-84.93L2258.14,899h0l-122.88,6.23-26.51,1.34,2.65,52.37h0l3.46,68.21a25,25,0,0,0-9.09-1.22,4.39,4.39,0,0,0-.72.07l-.89.08a5.06,5.06,0,0,0-.87.12l-.87.14c-.42.08-.85.17-1.26.27a2.62,2.62,0,0,0-.67.16l-.59.17c-.29.08-.56.17-.82.26l-.2.07c-.64.21-1.26.45-1.87.72a24.67,24.67,0,0,0-4.66,2.65h0c-.33.24-.67.48-1,.75s-.55.45-.81.68a24.6,24.6,0,0,0-1.94,1.88c-.07.08-.15.16-.21.24l-.25.27A25.1,25.1,0,0,0,2082,1052.3Z" transform="translate(-920.75 -360)"/><path class="cls-25" d="M2244.31,1090v15.35a26.22,26.22,0,0,1-52.43,0V1090a26.22,26.22,0,1,1,52.43-1C2244.32,1089.32,2244.32,1089.66,2244.31,1090Z" transform="translate(-920.75 -360)"/><path class="cls-11" d="M2239.1,1074.28a13.54,13.54,0,0,1-6.58,1.75l-25.88.29a13.71,13.71,0,0,1-8.78-3,26.19,26.19,0,0,1,41.24,1Z" transform="translate(-920.75 -360)"/><path class="cls-11" d="M2234.93,1125.41a26.2,26.2,0,0,1-33.66,0A26.18,26.18,0,0,1,2234.93,1125.41Z" transform="translate(-920.75 -360)"/><circle class="cls-25" cx="1374.3" cy="671.68" r="8.8"/><circle class="cls-25" cx="1283.86" cy="676.26" r="8.8"/><path class="cls-25" d="M2167,1013.62a4.6,4.6,0,0,1,3.09-8.65l43,13.41a4.6,4.6,0,0,1-2.73,8.78l-43-13.42A2.16,2.16,0,0,1,2167,1013.62Z" transform="translate(-920.75 -360)"/><path class="cls-25" d="M2313,1012.35l-.42.17-31.86,11.59a4.6,4.6,0,0,1-3.14-8.64l31.86-11.59a4.6,4.6,0,0,1,3.56,8.47Z" transform="translate(-920.75 -360)"/><path class="cls-24" d="M2763.49,1398.29c-6.38,40.27-60.56,56.55-99.25,56.07a110,110,0,0,1-15.91-1.28c-18.85-3-37.87-10.4-56.46-6.11-5.76,1.33-25.67-11.73-29-16.6q-5.88-8.55-11.75-17.14c-6.44-9.38-8.39-26.73-2.51-36.46,4.21-6.93,19-14.11,34.76-19.86,16.14-5.89,33.22-10.28,40.78-11.4,22.17-3.27,46.1-5.5,68.57-4.4C2724.84,1342.69,2769.91,1357.65,2763.49,1398.29Z" transform="translate(-920.75 -360)"/><path class="cls-20" d="M2664.24,1454.36a110,110,0,0,1-15.91-1.28c-18.85-3-37.87-10.4-56.46-6.11-5.76,1.33-25.67-11.73-29-16.6q-5.88-8.55-11.75-17.14c-6.44-9.38-8.39-26.73-2.51-36.46,4.21-6.93,19-14.11,34.76-19.86a110.64,110.64,0,0,1,44.24,19.64C2651.48,1394.58,2666.75,1424.68,2664.24,1454.36Z" transform="translate(-920.75 -360)"/><path class="cls-3" d="M2547.67,1367.6c30-10.89,63.62.94,74.51,31h0c10.76,29.64-7.31,57.1-36.75,68.38Z" transform="translate(-920.75 -360)"/><path class="cls-11" d="M2369.1,1652.88q-3,12.24-6.68,24.24c-9.06,29-23.56,80.68-51.87,97-24.84,14.35-70.89,8-97.57,4.8l-158.38-19-30.6-3.62,61.47-512.74c3.66-30.42,22.43-55.15,47.37-66.75a64,64,0,0,0,6.8,17A62,62,0,0,0,2186,1224.6a61.26,61.26,0,0,0,29.78-3.79,63.83,63.83,0,0,0,32.6-28.91c2.77-5,40.6,40.74,46.86,49.61a8.38,8.38,0,0,1,.64,1c33.12,53.87,55.08,113.88,69.29,175.39q2.94,12.72,5.45,25.49,2.68,13.54,4.7,27.42C2384,1530.35,2383.44,1593.43,2369.1,1652.88Z" transform="translate(-920.75 -360)"/><path class="cls-9" d="M2375.34,1470.76c-8.2,15.27-18.08,29.54-30.29,41.81-2.65-1.58-7.18-5.62-7.1-8.71a713,713,0,0,0-42.69-262.35,8.38,8.38,0,0,1,.64,1c33.12,53.87,55.08,113.88,69.29,175.39q2.94,12.72,5.45,25.49Q2373.32,1456.88,2375.34,1470.76Z" transform="translate(-920.75 -360)"/><path class="cls-26" d="M2058.91,1744.17l101.24,4.61s4.09,166.64-107.8,144.57Z" transform="translate(-920.75 -360)"/><polygon class="cls-21" points="1048.45 2081.1 1022.04 2172.09 1119.42 2235.44 1167.62 2081.1 1048.45 2081.1"/><path class="cls-27" d="M2359.21,1706.56c-9,48.06-55.7,92-91.74,117.1-38.89,27-38.52,75.41-38.52,75.41l-2.87,100.56c-1.12,39.2,2.25,80.3-.4,118.95-1,14.57-6.72,29.51-13.6,44.07-2,4.19-4,8.35-6.14,12.45-4.74,9.35-9.54,18.44-13.41,27.07l-44.62,99.66c-22.51,50.29-45.07,100.72-61.41,153.33-3.92,12.61-7.86,26-17.51,35-17.07,16-59.1-.13-80.48-2.69l-32.68-3.92,13.37-42.44,60.38-191.73,8.18-26,4-12.74q3-9.42,5.25-19a274.9,274.9,0,0,0,7.38-70.12l-8.89-373.23-.25-10.69c1.89-.16,6.07-.71,11.67-1.48,25.67-3.49,81.21-11.47,82.82-8,5.62,12,16.39,19.79,29,24.48,10.47,3.93,22.21,5.72,33.27,6.15,59.8,2.27,124.51-25.85,158.29-77.16A85.37,85.37,0,0,1,2359.21,1706.56Z" transform="translate(-920.75 -360)"/><path class="cls-14" d="M2132.43,1179.32l-80.82,369.85a255.61,255.61,0,0,1-83-48.53q-7.39-6.44-14.27-13.39a260,260,0,0,1-23.64-27.49,249,249,0,0,1-23.79-38.88c-7.16-14.56-13-31.18-8.48-46.74,4.4-15.07,17.46-25.72,29.82-35.38l121-94.44h0l20.61-16.1Z" transform="translate(-920.75 -360)"/><path class="cls-23" d="M2359.21,1706.56c-9,48.06-55.7,92-91.74,117.1-38.89,27-38.52,75.41-38.52,75.41l-2.87,100.56c-1.12,39.2,2.25,80.3-.4,118.95-1,14.57-6.72,29.51-13.6,44.07q-3.28,1.89-6.61,3.74c-52.22,29.12-108.3,49.69-167.71,57l4-12.74q3-9.42,5.25-19a274.9,274.9,0,0,0,7.38-70.12l-8.89-373.23q5.64-6.15,11.42-12.17c25.67-3.49,81.21-11.47,82.82-8,5.62,12,16.39,19.79,29,24.48,10.47,3.93,22.21,5.72,33.27,6.15,59.8,2.27,124.51-25.85,158.29-77.16A85.64,85.64,0,0,1,2359.21,1706.56Z" transform="translate(-920.75 -360)"/><path class="cls-22" d="M2366.82,1855.43l-2.33,51.94-2.36,52.43-4.06,90.48c-44.2,42.83-93.06,81.94-146,112.37,6.88-14.56,12.6-29.5,13.6-44.07,2.65-38.65-.72-79.75.4-118.95,1.38-48.73,4.59-96.84-12-143.23a883.7,883.7,0,0,0-34.43-82.73c-1.64-3.44-23.93-58.49-18.29-59.53l201.07-37Z" transform="translate(-920.75 -360)"/><path class="cls-9" d="M2231,1248.26c10.51-9.78,28.77-5.45,38.21,5.37s12.19,25.81,13.9,40.07c4.46,37.22,4.29,74.82,3.77,112.3" transform="translate(-920.75 -360)"/><rect class="cls-9" x="1275.65" y="1302.4" width="181.38" height="29.44" rx="13.15"/><path class="cls-7" d="M2321.37,1533.34c.07,15.24-.36,30.47-1.2,45.62q-1.23,22.11-3.07,44.08c-9.64,116.35-31,230.18-50.25,345.53-16.7,100.45-60.08,187.69-168,209.63L2044,2189.34c-16.69,3.38-30.72,6.24-30.72,6.24a48.9,48.9,0,0,1-38.16-8c-1.26-.88-2.48-1.83-3.65-2.83a49,49,0,0,1-17-43.39L2014.24,1724l16.64-116.36,55.84-390.34a46.65,46.65,0,0,1,42.27-40.94,325.11,325.11,0,0,1,121.63,103.32C2303.54,1354,2321,1443.82,2321.37,1533.34Z" transform="translate(-920.75 -360)"/><path class="cls-14" d="M2321.37,1533.35c.07,15.23-.36,30.47-1.2,45.61q-1.22,22.11-3.06,44.08c-41,3.8-81.42-17.15-103.44-56.48L2103.58,1351.5l-6.23-12.17c-5.38-9.3-8-21.41-8.12-34.19-.26-22,6.74-46,19.2-61.18l.39-.33a58.35,58.35,0,0,1,8.36-5.56,54.08,54.08,0,0,1,8.7-3.86,58.07,58.07,0,0,1,64.51,18.62l111.62,140c.5,2.05,1,4.07,1.41,6.12,2.12,9.68,3.79,19.52,5,29.46Z" transform="translate(-920.75 -360)"/><path class="cls-7" d="M2355.66,1556.92a111.76,111.76,0,0,1-135.3-46.05l-120.05-196.29a58,58,0,0,1,18-80l.07,0h0a58,58,0,0,1,80,18l.05.08,103.66,164.08a45.45,45.45,0,0,0,53.93,18.44L2532.8,1371a55.15,55.15,0,0,1,70.66,33h0a55.14,55.14,0,0,1-32.12,70.32Z" transform="translate(-920.75 -360)"/><path class="cls-21" d="M2109.64,1041.13a13.15,13.15,0,0,1,4,5.35c1.86,3.77,3.5,8.21,1.84,12.08-1.81,4.21-6.85,6-11.42,6.42s-10-.65-11.77-4.83c.52,1.23,5.45-3.91,5.77-4.53,1.9-3.65-.52-5.8-.07-9.22C2098.64,1041.1,2104.35,1037.48,2109.64,1041.13Z" transform="translate(-920.75 -360)"/><path class="cls-20" d="M2111.4,958.91h0l20.5,77.47,18.82-44.12a31.48,31.48,0,0,1,32.53-19,347.66,347.66,0,0,0,78.65.16c30.11-3.38,48.38-9.49,50-8.66,3.08,1.53,9.63,38.77,9.51,36.21l-5.32-105-58,2.93h0l-122.88,6.23Z" transform="translate(-920.75 -360)"/><path class="cls-28" d="M2329.56,934.82l-.8.07a62.28,62.28,0,0,0-10.58,2c-18.53,5.12-33.87,17.48-54.62,20.77l-.29.05-2.13.32c-36.25,5.3-78.17,1.75-100,3.51a83.74,83.74,0,0,0-8.74,1c-1.4.25-2.21.51-2.28.79v.07c-.24.87-2.79,9.83-6.08,21.77-3,10.81-6.55,24-9.55,35.87-.53,2.13-1,4.19-1.55,6.2a27.2,27.2,0,0,0-1,9.15h0v.06c.61,4.63-4,2.54-9.82-1.63l-.76-.56c-3.59-2.59-7-5.21-10.3-7.9l-.18-.13c-2.5-2.06-4.91-4.17-7.19-6.34a88.53,88.53,0,0,1-10.2-11.43c-.43-.58-.86-1.18-1.27-1.77s-.82-1.2-1.22-1.81c-29.82-45.55,5.69-99.93,44.82-126.64,21.36-14.58,45-26.69,70.28-32.58,26.39-6.13,58.84-1.93,82.37,12,13.36,7.88,22.36,21.36,28.75,35.79q1.94,4.35,3.56,8.77c1.27,3.45,2.43,6.91,3.49,10.3.34,1.11.68,2.22,1,3.32.1.32.19.65.27,1A149.16,149.16,0,0,1,2329.56,934.82Z" transform="translate(-920.75 -360)"/><path class="cls-28" d="M2132.93,1027.18a26.59,26.59,0,0,0-1,9.22c.62,4.64-4,2.55-9.82-1.62-8.08-5.83-18.36-15.67-19.63-16.85a103.68,103.68,0,0,1-9-9.51,65.11,65.11,0,0,1-12.76-33.94,87.85,87.85,0,0,1-.22-12.67c19.74,6.75,69.63,1.53,69.63,1.53C2149.59,965.12,2139.22,1001.58,2132.93,1027.18Z" transform="translate(-920.75 -360)"/><path class="cls-28" d="M2138,904.63h143.87v22.92a69,69,0,0,1-69,69H2138V904.63Z" transform="translate(-920.75 -360)"/><path class="cls-28" d="M2329.11,994h-9.23a65.92,65.92,0,0,1-14.16-2.24,67.39,67.39,0,0,1-38.92-28.46c-1.17-1.81-2.24-3.67-3.24-5.6l-.22-.42c-.11-.19-.19-.38-.28-.57q-1.23-2.44-2.24-5h0a67.17,67.17,0,0,1-4.73-24.82V902.14h65.8q1.17,5.08,2.35,10.3c.34,1.11.68,2.22,1,3.32.1.32.19.65.27,1l-.18.67c.6,2.81,1.19,5.64,1.75,8.48q.9,4.5,1.69,9C2332.35,955.6,2333.89,976.36,2329.11,994Z" transform="translate(-920.75 -360)"/><path class="cls-19" d="M2137.55,977.27a178.52,178.52,0,0,0-3.08,43.71c-.53,2.13-1,4.19-1.55,6.2a27.2,27.2,0,0,0-1,9.15h0v.06c.61,4.63-4,2.54-9.82-1.63l-.76-.56c-3.59-2.59-7-5.21-10.3-7.9-8.79-13.38-4.61-23.12.89-39.44a211.3,211.3,0,0,1,18-39.32c6.85-11.65,18.24-19.82,23.92-32.28a2.07,2.07,0,0,0,.15-.34C2154.89,935,2141.3,957.27,2137.55,977.27Z" transform="translate(-920.75 -360)"/><path class="cls-19" d="M2305.72,991.7a67.39,67.39,0,0,1-38.92-28.46,260.83,260.83,0,0,1,2.39-60.9C2271.24,932.83,2284.6,967.31,2305.72,991.7Z" transform="translate(-920.75 -360)"/><path d="M1921.45,2613.14l65.06,19c2.42.72,5.35-2.08,6.56-6.2l6.91-23.62c.6-2.05.16-4-1-4.45-26.06-10.06-50.36-21.6-63.2-38.35-1.16-1.52-3.34-.17-4.15,2.59l-12.35,42.23C1918.06,2608.5,1919,2612.44,1921.45,2613.14Z" transform="translate(-920.75 -360)"/><path class="cls-23" d="M2189.86,2659.48s-3.47.87-9.36,2.05c-16.87,3.35-53.59,9.2-85.47,4.2a115.69,115.69,0,0,1-14.5-3.18c-42.81-12.49-51.94-41.13-82.39-53.92-1.43-.6-2.92-1.18-4.46-1.7l-5.28-1.83-.25-.09c-5.67-2-11.52-4.08-17.3-6.33-.55-.2-1.09-.41-1.62-.62-2.75-1.08-5.47-2.18-8.13-3.32l-2.18-.95q-2.52-1.1-4.93-2.22l-1.46-.69-1-.5-1-.51c-2-1-4-2-5.93-3.09l-.94-.53-.94-.54-.91-.53c-.59-.34-1.17-.69-1.74-1l-.1-.07-1.42-.9-1.12-.73c-.55-.38-1.1-.75-1.63-1.13l-1.57-1.14c-.26-.19-.51-.38-.75-.58-.5-.39-1-.77-1.47-1.16l-1-.82-1.07-1c-.43-.4-.84-.8-1.25-1.2l-.59-.6-.12-.12c-.26-.29-.54-.57-.79-.87s-.51-.57-.75-.86c-4.4-5.27-6.31-11-4.48-17.17,5.77-19.69,13.17-42.23,23-53.53a2,2,0,0,1,2.81-.28,1.71,1.71,0,0,1,.37.39c6.87,10.58,16.45,19.88,26.88,27.88,28.43,21.85,63.12,34,66.2,35.58l2.78,1.44,3-15h-.15c1.68-3.75,7.2-15.06,14.54-20.11a14.79,14.79,0,0,1,2.74-1.54,4.1,4.1,0,0,1,2.86-.26c8.18,2.4,34.23,54.13,47.6,70.33,13,15.79,25.24,21.73,42.33,26.72,2.37.69,4.84,1.37,7.41,2.06.63.15,1.24.32,1.85.5a49.16,49.16,0,0,1,14.34,6.5C2189.38,2642.61,2192.39,2650.89,2189.86,2659.48Z" transform="translate(-920.75 -360)"/><path class="cls-14" d="M2065.88,1853.48c86.9-41,100.36-71.5,153.65-151.44.28,54,.27,130.23-9.66,183.3S2179.06,1990.7,2142,2030c-11.1,11.79-24.14,22.62-39.82,26.69s-34.4-.19-43.52-13.58" transform="translate(-920.75 -360)"/><path class="cls-3" d="M1975.15,2187.61c-1.26-.88-2.48-1.83-3.65-2.83a49,49,0,0,1-17-43.39L2014.24,1724C2044.28,1878.09,2030.73,2040.78,1975.15,2187.61Z" transform="translate(-920.75 -360)"/><path class="cls-7" d="M2049.21,1244.31c-9.66,87.23-43.29,171.69-94.89,242.94a260,260,0,0,1-23.64-27.49,248.56,248.56,0,0,1-23.79-38.88c-7.16-14.56-13-31.18-8.48-46.74,4.4-15.07,17.46-25.72,29.82-35.38l121-94.44Z" transform="translate(-920.75 -360)"/><path class="cls-3" d="M2032.65,1257.23a345.75,345.75,0,0,1-71.94,125.23,340,340,0,0,1-50.18,45.5q-1.89-3.51-3.64-7.08c-7.16-14.56-13-31.18-8.48-46.74,4.4-15.07,17.46-25.72,29.82-35.38Z" transform="translate(-920.75 -360)"/><path class="cls-27" d="M1988.15,2605c-23.74-8.28-50.69-18.74-61.75-32-4.4-5.27-6.31-11-4.48-17.17,5.77-19.69,13.17-42.23,23-53.53a2,2,0,0,1,2.81-.28,1.71,1.71,0,0,1,.37.39c6.87,10.58,16.45,19.88,26.88,27.88A641.21,641.21,0,0,0,1987.7,2603C1987.82,2603.63,1988,2604.33,1988.15,2605Z" transform="translate(-920.75 -360)"/><path class="cls-23" d="M2273.33,2626.54c-18.42-.67-36.15-2.77-46.76-8.71-5.89-3.3-9.61-7.77-10-13.85-1.14-19.33-1.68-41.71,3.77-54.85a2,2,0,0,1,2.6-1.11,1.94,1.94,0,0,1,.4.22,95.77,95.77,0,0,0,14.53,8.55A273.68,273.68,0,0,0,2273.33,2626.54Z" transform="translate(-920.75 -360)"/><path class="cls-29" d="M2180.5,2661.53c-16.87,3.35-53.59,9.2-85.47,4.2q-4.58-5.52-9-11.19c-9-11.69-17.63-24.13-21.87-38.29-4.16-13.88-3.92-28.65-3.64-43.15l.78-40.94a15,15,0,0,1,2.74-1.54,4.1,4.1,0,0,1,2.86-.26c8.18,2.4,34.23,54.13,47.6,70.33,13,15.79,25.24,21.73,42.33,26.72,2.37.69,4.84,1.37,7.41,2.06.63.15,1.24.32,1.85.5a49.16,49.16,0,0,1,14.34,6.5C2180.65,2644.76,2180.64,2653.12,2180.5,2661.53Z" transform="translate(-920.75 -360)"/><path class="cls-19" d="M1518.37,1075c24.21-33,25.79-82,17.6-122.13-7.94-5.7-14.45,7.32-22.61,12.7a207.24,207.24,0,0,0-26.42,20.63c-10.2,9.38-19.86,20.57-22.21,34.22-3,17.52,6.64,34.71,17.87,48.49,3.14,3.85,6.56,7.68,11,9.9S1515.42,1079,1518.37,1075Z" transform="translate(-920.75 -360)"/><path class="cls-23" d="M1467.9,2632.08c-.3-1.52-.29-2.25-2.51-2.63a1,1,0,0,0,0-.24,15,15,0,0,0-.37-4.43c-6.25-28.73-62.09-35.21-82.9-46.92-24.82-14-54.48-45-60.63-73.77-5.29-24.81-14.76-53.43-21.24-35.81l-89-8.57c-.86-1.28-.9-2.49-4.61-2.28-7.92.44-14.18,7.25-18.47,15.05l-.31-.22c-1.48,3.53-2.94,7.08-4.4,10.62-.71,1.65-1.46,3.42-1.84,4.42q-4.92,11.88-9.85,23.78-1.83,4.44-3.68,8.89c-.71,1.72-1.42,3.45-2.13,5.16l-17.26,41.64a59.72,59.72,0,0,0-6.25,17.16c-.45,2.15-.78,2.47,5.9,5,24.54,9.44,46.06,17.7,65.78,24.91,83.24,30.41,134.61,42.06,247.27,44.51,7.23.16,6.73-.28,7.1-2.46A62.35,62.35,0,0,0,1467.9,2632.08Zm-258.61-117.92a1.6,1.6,0,0,0-.1.23c-.14-.07-.29-.12-.43-.18Z" transform="translate(-920.75 -360)"/><path class="cls-30" d="M1740,1873.4V1892a6.24,6.24,0,0,1-12.48,0v-18.6a53.27,53.27,0,0,0-106.54,0V1892a6.25,6.25,0,0,1-12.49,0v-18.6a64.08,64.08,0,0,1,.9-10.8A65.75,65.75,0,0,1,1740,1873.4Z" transform="translate(-920.75 -360)"/><path class="cls-31" d="M1729.3,1837.47a66,66,0,0,1-9.73,8,53.25,53.25,0,0,0-97.81,18.93,78.14,78.14,0,0,1-12.36-1.77,65.73,65.73,0,0,1,119.9-25.13Z" transform="translate(-920.75 -360)"/><path class="cls-30" d="M1786.52,1957.21v148a79.67,79.67,0,0,1-79.58,79.76h-69.32a79.76,79.76,0,0,1-79.76-79.76h0v-148a79.65,79.65,0,0,1,79.55-79.75h69.36A79.77,79.77,0,0,1,1786.52,1957.21Z" transform="translate(-920.75 -360)"/><path class="cls-32" d="M1786.52,1957.21v148a79.77,79.77,0,0,1-64.54,78.31c-76.56-77.55-123.13-184.57-127.4-293.45a79.12,79.12,0,0,1,30.54-11.63,80.43,80.43,0,0,1,12.5-1h69.15A79.76,79.76,0,0,1,1786.52,1957.21Z" transform="translate(-920.75 -360)"/><path class="cls-12" d="M1786.52,1957.21v58.36a259.82,259.82,0,0,1-38.65-4.16c-31.41-5.74-62.48-17.31-86.5-38.33s-40.13-52.51-37.65-84.34a94.22,94.22,0,0,1,1.4-10.31,80.43,80.43,0,0,1,12.5-1h69.15a79.76,79.76,0,0,1,79.75,79.77Z" transform="translate(-920.75 -360)"/><path class="cls-20" d="M1711.65,1825.74a36.76,36.76,0,0,1-1.59,5c-7.76,19.55-30.92,26.12-51.79,19.87-16.65-5-29.17-18.35-35.38-34.26-.44-1.11-.84-2.24-1.22-3.38-4.31-13.17-8.17-22.77-17.62-32.91-6.44-6.92-13.93-14-15-23.33a20.57,20.57,0,0,1,.31-6.55c1-4.7,4.09-9.46,8.19-13.41,4.52-4.37,10.2-7.74,15.37-8.93l18-4.15c15.18-3.5,33.5,8.39,48.16,20.49,6.27,5.17,11.88,10.38,16.28,14.45C1714.49,1776.27,1717.33,1801.78,1711.65,1825.74Z" transform="translate(-920.75 -360)"/><path class="cls-21" d="M1679.11,1744.22c-.15.79-.32,1.59-.49,2.38-4.09,18.06-14.9,34-28,47.08a217.69,217.69,0,0,1-27.7,22.71c-.44-1.11-.84-2.24-1.22-3.38-4.31-13.17-8.17-22.77-17.62-32.91-6.44-6.92-13.93-14-15-23.33a98.73,98.73,0,0,1,8.5-20c4.52-4.37,10.2-7.74,15.37-8.93l18-4.15C1646.13,1720.23,1664.45,1732.12,1679.11,1744.22Z" transform="translate(-920.75 -360)"/><path class="cls-23" d="M1392.53,1300l33.66,147.49,28.15,123.33a56.42,56.42,0,0,0,6.91,16.94l99.61,162.13a57.06,57.06,0,0,0,6.86,9,56.27,56.27,0,0,0,89-67.92l-43.44-70.71-54.47-88.67a56,56,0,0,1-6.68-15.94l-8-32.47-51.35-207.62A51.59,51.59,0,1,0,1392.53,1300Z" transform="translate(-920.75 -360)"/><path class="cls-22" d="M1329.78,1981.7a46.67,46.67,0,0,0,39.84,10.3s13.38-2.73,29.29-6l52.2-10.61c164.9-33.51,165.89-229.87,173.23-362.11.8-14.43,1.21-29,1.14-43.47-.35-85.31-17-170.93-67.42-241.76a309.53,309.53,0,0,0-115.92-98.46,44.47,44.47,0,0,0-40.28,39l-53.21,372-35,299.72A46.71,46.71,0,0,0,1329.78,1981.7Z" transform="translate(-920.75 -360)"/><polygon class="cls-14" points="774.65 2120.59 748.07 2127.55 706.48 2138.43 639.7 2155.91 628.75 2114.03 537.86 1766.72 508.41 1654.24 444.75 1410.95 643.57 1377.18 665.18 1499.76 673.78 1548.55 682.47 1597.8 757.8 2025.04 767.7 2081.21 770.8 2098.78 774.65 2120.59"/><path class="cls-14" d="M1564.32,1737.18c-29.9,54.38-65.53,88.39-95.7,109.35-37.07,25.77-36.72,71.87-36.72,71.87l-2.74,95.84-3.52,123.81q-.18,6.36-.59,12.69a374.13,374.13,0,0,1-16.38,88.61l-59.3,189.35-20.53,65.55-126.07-15.11-31.16-3.74,12.74-40.44,57.55-182.72,11.63-36.92q2.84-9,5-18.13a261.38,261.38,0,0,0,7-66.83l-8.71-365.87Z" transform="translate(-920.75 -360)"/><path class="cls-33" d="M1585.93,1859.75c-2.57,108.94-52,205.38-127.32,267l-29.45-112.48-3.52,123.81q-.18,6.36-.59,12.69a304,304,0,0,1-161.45,46.5h-5.07a261.42,261.42,0,0,0,7-66.83l-8.71-365.87,307.47-27.31Z" transform="translate(-920.75 -360)"/><rect class="cls-21" x="1336.09" y="1172.77" width="122.45" height="107.19" transform="translate(-907.49 2107.68) rotate(-83.16)"/><path class="cls-20" d="M1291.81,1111.42a23.95,23.95,0,0,0,33.9,20.55,98.94,98.94,0,0,0,197-17.51l-2.63-51.89L1515,962.51l-55.26,2.8-117.11,5.92-25.26,1.28,2.53,49.91h0l3.3,65a23.58,23.58,0,0,0-8.66-1.17,4,4,0,0,0-.69.06l-.85.08-.83.12-.82.13c-.41.08-.81.16-1.21.26l-.63.15-.57.17q-.4.1-.78.24l-.19.06c-.61.21-1.2.44-1.78.69a23.46,23.46,0,0,0-4.44,2.53h0c-.32.23-.63.46-.94.71s-.53.43-.77.65a20.94,20.94,0,0,0-1.85,1.8,1,1,0,0,0-.2.22l-.24.26A23.82,23.82,0,0,0,1291.81,1111.42Z" transform="translate(-920.75 -360)"/><path class="cls-24" d="M1291.81,1111.42a23.95,23.95,0,0,0,33.9,20.55,99,99,0,0,0,75.32,83.78,98.87,98.87,0,0,0,66.38-98.5l-4.09-80.93-3.6-71h0l-117.11,5.93-25.26,1.28,2.53,49.91h0l3.3,65a23.58,23.58,0,0,0-8.66-1.17,4,4,0,0,0-.69.06l-.85.08-.83.12-.82.13c-.41.08-.81.16-1.21.26l-.63.15-.57.17q-.4.1-.78.24l-.19.06c-.61.21-1.2.44-1.78.69a23.46,23.46,0,0,0-4.44,2.53h0c-.32.23-.63.46-.94.71s-.53.43-.77.65a20.94,20.94,0,0,0-1.85,1.8,1,1,0,0,0-.2.22l-.24.26A23.85,23.85,0,0,0,1291.81,1111.42Z" transform="translate(-920.75 -360)"/><path class="cls-25" d="M1449.29,1172.38v7.14h-46.17v-7.14a22.67,22.67,0,0,1,2-9.46,23.08,23.08,0,0,1,37.38-6.85,23.3,23.3,0,0,1,6.79,16.31Z" transform="translate(-920.75 -360)"/><path class="cls-11" d="M1446.82,1162a13.11,13.11,0,0,1-8.74,3.45l-24.66.28a13,13,0,0,1-8.27-2.82,23.08,23.08,0,0,1,37.38-6.85A22.69,22.69,0,0,1,1446.82,1162Z" transform="translate(-920.75 -360)"/><circle class="cls-25" cx="565.76" cy="742.35" r="8.39"/><circle class="cls-25" cx="490.84" cy="744.52" r="8.39"/><path class="cls-25" d="M1375.56,1082.06a4.38,4.38,0,0,1,2.29-8.45l41.89,9.5a4.38,4.38,0,1,1-1.94,8.55l-41.89-9.5Z" transform="translate(-920.75 -360)"/><path class="cls-25" d="M1512,1086.77a2.17,2.17,0,0,1-.42.11l-31.6,6.67a4.38,4.38,0,0,1-1.81-8.57l31.61-6.67a4.38,4.38,0,0,1,2.22,8.46Z" transform="translate(-920.75 -360)"/><path class="cls-9" d="M1583.17,1687.83c-7.16,46.26-26.66,86.39-68.56,107.66-2.54,1.29-5.18,2.53-7.89,3.67a1.39,1.39,0,0,1-.28.12c-25.83,10.9-62.37,7.94-89.76,4.66l-150.93-18.09-29.18-3.5,58.58-488.65c3.49-29,21.38-52.57,45.14-63.62a61.25,61.25,0,0,0,6.48,16.15,59.12,59.12,0,0,0,44.23,29.4,58.43,58.43,0,0,0,28.37-3.62,60.75,60.75,0,0,0,31.07-27.55c2.75-5,41.94,42.77,45.26,48.19,31.57,51.34,52.5,108.53,66,167.15q2.79,12.12,5.18,24.29c7.87,40.09,18.84,95.36,19.63,149.1A326.45,326.45,0,0,1,1583.17,1687.83Z" transform="translate(-920.75 -360)"/><path class="cls-34" d="M1586.56,1633.19a121.81,121.81,0,0,0-11.67,5.94c-11.22,7.95-15.11,13.82-16.21,22.31-.57,4.36-.41,9.41-.12,15.79,1.85,41.9-17.9,86.08-44,118.26l-1.5,1.84q-3.16,1-6.39,1.83c-26.28,7-56.44,8.81-90,4.78l-150.93-18.09,46.67-389.29,104.92,205c24,42.92,24.58,43.38,69.17,31.24-.22-5.94-66-87-29.42-50.22,51.82-107.24,7.33-193.17-61.94-280a55.39,55.39,0,0,0-61.48-17.74,53.37,53.37,0,0,0-8.29,3.68l1.21-10.06a44.42,44.42,0,0,1,20.18-32.17,59.12,59.12,0,0,0,44.23,29.4,58.43,58.43,0,0,0,28.37-3.62,309.81,309.81,0,0,1,113.73,179.52q1.2,5.46,2.2,11a43.06,43.06,0,0,0,26.45-2.71q2.79,12.12,5.18,24.29C1574.8,1524.18,1585.77,1579.45,1586.56,1633.19Z" transform="translate(-920.75 -360)"/><path class="cls-26" d="M1269.85,1770.78l96.49,4.4S1370.23,1934,1263.6,1913Z" transform="translate(-920.75 -360)"/><path class="cls-23" d="M1520,1569.86c.06,14.53-.35,29-1.15,43.47-2.21,39.91-3.85,85.68-9.59,131-13.26,105-48.53,207.67-163.66,231.11l-52.2,10.61-29.28,5.94a47,47,0,0,1-56-51.63l35.05-299.71,21.6-151,17.65-123.35,14-97.63a44.47,44.47,0,0,1,40.28-39,309.69,309.69,0,0,1,115.91,98.47c38.87,54.59,57.68,118,64.41,183.21C1519,1530.72,1519.9,1550.3,1520,1569.86Z" transform="translate(-920.75 -360)"/><path class="cls-35" d="M1520,1569.86c.06,14.53-.35,29-1.15,43.47-2.21,39.91-3.85,85.68-9.59,131a139.88,139.88,0,0,1-69.69,17.58c-40.18-.59-79.4-18.49-107.94-46.79-41.87-41.52-59.72-101.89-64.82-160.63-1.87-21.58-2.24-43.23-2-64.89l17.65-123.35c1.38-9.69,53.06-37.41,61.64-42.75,37.41-23.31,34.89,25,42.16,55.42,5.37,22.49,4.09,38,18.79,59.86,25.52,37.91,67,64.58,112,72.5C1519,1530.72,1519.9,1550.3,1520,1569.86Z" transform="translate(-920.75 -360)"/><path class="cls-24" d="M1725.05,1448.62c-26.21-3-54.32,2.54-78.71,9.17-11.85,3.22-116.57,35.52-116.33,38.29l8,92.45c33.69-9.44,65.49-21.48,98-34.46,17.31-6.92,36.18-14,54.16-9,21.14,5.83,30.84,11.18,52.7,3.58,16.14-5.61,33.83-15.4,41.08-31.75,6.51-14.67.55-39.74-11.67-49.58C1758.33,1456.12,1742.09,1450.56,1725.05,1448.62Z" transform="translate(-920.75 -360)"/><path class="cls-23" d="M1388.26,1637.54c-66.69,4.92-116.22-40-129.44-102.66-12.19-57.82-11-118.93-10.48-178,.41-48.27,8.3-110.13,67.78-121.51h0c32.88-6.29,62.38,19.83,63.14,57.1,1.16,56.42-7.7,128.59.59,186.45,3.64,25.46,14.8,33.82,40.76,29.94,57.16-8.55,46.46-16.27,102.19-27.53,36.11-7.3,60.94,15.38,66.59,46.32h0c5.59,30.55-7,64.46-44.18,73.35C1473.78,1618.11,1459.74,1632.27,1388.26,1637.54Z" transform="translate(-920.75 -360)"/><path class="cls-21" d="M1318.2,1100.78a12.68,12.68,0,0,1,3.77,5.09c1.76,3.6,3.33,7.83,1.75,11.51-1.73,4-6.53,5.72-10.89,6.12s-9.52-.62-11.22-4.6c.5,1.17,5.2-3.72,5.51-4.31,1.8-3.48-.5-5.54-.07-8.79C1307.72,1100.75,1313.15,1097.3,1318.2,1100.78Z" transform="translate(-920.75 -360)"/><path class="cls-33" d="M1349.37,2428.7l-20.53,65.55-126.07-15.11q7.67-21.27,13.93-43.19A972.36,972.36,0,0,0,1349.37,2428.7Z" transform="translate(-920.75 -360)"/><path class="cls-22" d="M1860,2521.49c-.86-1.13-1.15-1.75-3.13-1.17a13.86,13.86,0,0,0-2.16-3.72c-16.67-21.27-65.46-4.3-87.37-5.65-26.13-1.61-63.08-15.4-79.69-36.78-14.31-18.41-33.6-38.3-31.91-21.13l-77.09,28.54c-1.23-.71-1.75-1.69-4.73,0-6.38,3.53-8.83,11.67-9.26,19.85l-.35-.06c.2,3.52.4,7,.61,10.55.08,1.65.17,3.41.25,4.38q.69,11.82,1.37,23.63h0q1.61,27.66,3.2,55.32a54.57,54.57,0,0,0,1.69,16.69c.49,2,.34,2.36,6.9,1.81,125.71-10.5,170.28-14.58,286.81-67.84,6-2.77,5.45-2.93,4.89-4.88A57.24,57.24,0,0,0,1860,2521.49Zm-261.18,5.92v.23h-.43Z" transform="translate(-920.75 -360)"/><path class="cls-33" d="M1695.4,2480.59l-135,35.32-11-41.88L1660,2397.79q10.66,18.42,22.87,36.06c1.7,2.45,3.55,4.94,5.52,7.36Z" transform="translate(-920.75 -360)"/><path class="cls-20" d="M1319.88,1022.42h0l19.54,73.83,17.94-42a30,30,0,0,1,31-18.07,331.75,331.75,0,0,0,75,.16c28.68-3.23,46.1-9,47.67-8.26,2.93,1.46,9.17,37,9,34.51l-5-100.08-55.26,2.8h0l-117.11,5.93Z" transform="translate(-920.75 -360)"/><path class="cls-28" d="M1442,1021.9l-3,.15c.38-.45.76-.9,1.12-1.36A21.67,21.67,0,0,0,1442,1021.9Z" transform="translate(-920.75 -360)"/><path class="cls-36" d="M1216.7,2436q-6.24,21.9-13.93,43.19l-31.16-3.74,12.74-40.44Q1200.52,2435.72,1216.7,2436Z" transform="translate(-920.75 -360)"/><path class="cls-7" d="M1241.91,2254.48A661.65,661.65,0,0,1,1216.7,2436q-16.18-.24-32.35-1l57.55-182.72C1241.91,2253,1241.91,2253.73,1241.91,2254.48Z" transform="translate(-920.75 -360)"/><path class="cls-36" d="M1688.45,2441.21c-2-2.42-3.82-4.91-5.52-7.36q-12.23-17.62-22.87-36.06l18.49-12.75Z" transform="translate(-920.75 -360)"/><path class="cls-7" d="M1678.55,2385l-18.49,12.75c-84-145.1-96.75-324.79-65.53-489.24l8.69,49.25Z" transform="translate(-920.75 -360)"/><path class="cls-28" d="M1537.53,957.67c-5.68-40.77-31.49-55.67-63.3-56.74a52.28,52.28,0,0,0-73.26,10c-.39.52-.78,1.05-1.15,1.58a48.53,48.53,0,0,0-75.45,40.38c0,.62,0,1.24.05,1.86h-.05a41.76,41.76,0,0,0-33.78,66.33,63.64,63.64,0,0,0,12.18,48.54c7,9.5,16.51,17.35,27.28,25.11,5.5,4,10,6,9.36,1.55a25.59,25.59,0,0,1,1-8.79c6-24.39,15.89-59.14,16.37-60.83v-.08c.06-.25.75-.49,2-.71a55.38,55.38,0,0,0,78.3-1.7c.66-.69,1.3-1.39,1.92-2.11.38-.45.76-.9,1.12-1.36.63.42,1.25.83,1.88,1.21a62.33,62.33,0,0,0,94.45-46.56A42.06,42.06,0,0,0,1537.53,957.67Z" transform="translate(-920.75 -360)"/><path class="cls-19" d="M1340.39,1087.48a25.35,25.35,0,0,0-1,8.79c.59,4.42-3.85,2.43-9.36-1.54-7.7-5.56-17.49-14.94-18.71-16.07a99,99,0,0,1-8.57-9.05,62,62,0,0,1-12.16-32.35,81.2,81.2,0,0,1-.21-12.08c18.81,6.43,66.36,1.46,66.36,1.46C1356.27,1028.34,1346.39,1063.09,1340.39,1087.48Z" transform="translate(-920.75 -360)"/><path class="cls-34" d="M1647.94,1527.43c0,6.55-.21,13.61-.83,21.21a14.87,14.87,0,0,1-9.82,12.73l-24,8.63a3.11,3.11,0,0,1-4-1.85,3,3,0,0,1-.16-1.52c.51-3.68,1.19-9.08,1.76-15.34,1.59-17.17,2.31-40.78-3.61-53.08q-.76-1.59-1.62-3a46,46,0,0,0-21.27-18.7,2.61,2.61,0,0,1,.14-4.82l19.81-7.57a27.2,27.2,0,0,1,32.27,10,39.86,39.86,0,0,1,3,5.28C1644.27,1489.4,1647.8,1505.46,1647.94,1527.43Z" transform="translate(-920.75 -360)"/><path class="cls-12" d="M1639.54,1479.39a157.79,157.79,0,0,1-33.91,15.79,46,46,0,0,0-21.27-18.7,2.61,2.61,0,0,1,.14-4.82l19.81-7.57a27.2,27.2,0,0,1,32.27,10A39.83,39.83,0,0,1,1639.54,1479.39Z" transform="translate(-920.75 -360)"/><path class="cls-12" d="M1647.94,1527.43c0,6.55-.21,13.61-.83,21.21a14.87,14.87,0,0,1-9.82,12.73l-24,8.63a3.11,3.11,0,0,1-4-1.85,3,3,0,0,1-.16-1.52c.51-3.68,1.19-9.08,1.76-15.34C1624.08,1544.33,1637.91,1536.85,1647.94,1527.43Z" transform="translate(-920.75 -360)"/><ellipse class="cls-14" cx="1604.7" cy="1473.56" rx="34.65" ry="10.13" transform="translate(-1278.17 166.7) rotate(-16.8)"/><rect class="cls-14" x="1568.68" y="1464.31" width="69.29" height="9.45" transform="translate(-1276.92 166.11) rotate(-16.8)"/><path class="cls-27" d="M1604.84,1474.32c-1.93.58-3.84,1.11-5.71,1.57-10.64,2.64-20,3.33-25.5,2-2.67-.63-4.41-1.72-4.89-3.3-1.56-5.17,11-13.59,28.39-19.14.62-.19,1.23-.39,1.85-.57,9.27-2.8,18-4.22,24.55-4.24s10.75,1.28,11.55,3.92C1636.7,1460,1623.16,1468.79,1604.84,1474.32Z" transform="translate(-920.75 -360)"/><path class="cls-37" d="M1623.53,1450.69q-12.06,12.74-24.4,25.2c-10.64,2.64-20,3.33-25.5,2l23.5-22.44c.62-.19,1.23-.39,1.85-.57C1608.25,1452.13,1617,1450.71,1623.53,1450.69Z" transform="translate(-920.75 -360)"/><path class="cls-22" d="M1468.49,2655.93c-.37,2.18.13,2.62-7.1,2.46-112.66-2.45-164-14.1-247.27-44.51-19.72-7.21-41.24-15.47-65.78-24.91-6.68-2.57-6.35-2.89-5.9-5a59.72,59.72,0,0,1,6.25-17.16l17.26-41.64,3,1.83c89.71,54.38,191.86,87.9,296.38,102.19a1,1,0,0,1,0,.24c2.22.38,2.21,1.11,2.51,2.63A62.46,62.46,0,0,1,1468.49,2655.93Z" transform="translate(-920.75 -360)"/><path class="cls-27" d="M1214.12,2613.88c-19.72-7.21-41.24-15.47-65.78-24.91-6.68-2.57-6.35-2.89-5.9-5a59.72,59.72,0,0,1,6.25-17.16l17.26-41.64c.71-1.71,1.42-3.44,2.13-5.16q.39,3.52,1,7A155.7,155.7,0,0,0,1214.12,2613.88Z" transform="translate(-920.75 -360)"/></g></svg>