<?xml version="1.0" encoding="utf-8"?>
<!-- Generator: Adobe Illustrator 23.0.3, SVG Export Plug-In . SVG Version: 6.00 Build 0)  -->
<svg version="1.1" id="Layer_1" xmlns="http://www.w3.org/2000/svg" xmlns:xlink="http://www.w3.org/1999/xlink" x="0px" y="0px"
	 viewBox="0 0 4680 3120" style="enable-background:new 0 0 4680 3120;" xml:space="preserve">
<style type="text/css">
	.st0{fill:#C8E9F1;}
	.st1{opacity:0.3;fill:#FFFFFF;enable-background:new    ;}
	.st2{opacity:0.4;fill:#72D6E5;enable-background:new    ;}
	.st3{opacity:0.52;}
	.st4{fill:#009FC4;}
	.st5{fill:#FFFFFF;}
	.st6{fill:#72D6E5;}
	.st7{fill:#FFB699;}
	.st8{fill:#008196;}
	.st9{fill:#0A6D77;}
	.st10{fill:#521213;}
	.st11{fill:#F5785C;}
	.st12{fill:#840F20;}
	.st13{fill:#FF9E83;}
	.st14{fill:#FF8E69;}
	.st15{fill:#FC9F7E;}
	.st16{fill:#642425;}
	.st17{fill:#5CA6B1;}
	.st18{opacity:0.58;}
	.st19{fill:#D6F4F4;}
	.st20{fill:#FFCAB0;}
	.st21{fill:#C2172A;}
	.st22{fill:#89454E;}
	.st23{fill:#E5EBFF;}
	.st24{fill:#004F66;}
	.st25{fill:#FFA710;}
	.st26{fill:#FF6A0D;}
	.st27{fill:#35424A;}
	.st28{fill:#FFBC5A;}
	.st29{opacity:5.000000e-02;}
	.st30{fill:#FEFEFE;}
	.st31{opacity:0.4;}
	.st32{opacity:0.27;}
	.st33{opacity:0.39;fill:#FF6A0D;enable-background:new    ;}
	.st34{opacity:0.2;}
	.st35{fill:#00D6BC;}
	.st36{fill:#008C7E;}
	.st37{fill:#00B1A0;}
	.st38{fill:#095996;}
	.st39{opacity:0.49;fill:#004F66;enable-background:new    ;}
	.st40{opacity:0.72;fill:#FF6A0D;enable-background:new    ;}
	.st41{fill:#FFC300;}
	.st42{fill:#FFAD00;}
	.st43{fill:#00213E;}
	.st44{opacity:0.26;fill:#FEFEFE;enable-background:new    ;}
</style>
<title>08</title>
<g id="_08">
	<path class="st0" d="M3671.5,1323.3c0,19.5-15.8,35.3-35.3,35.3s-35.3-15.8-35.3-35.3c0-19.5,15.8-35.3,35.3-35.3
		S3671.5,1303.8,3671.5,1323.3L3671.5,1323.3z"/>
	<path class="st0" d="M3536,1247.3c0,36.5-29.5,66-66,66s-66-29.5-66-66s29.5-66,66-66l0,0C3506.5,1181.3,3536,1210.8,3536,1247.3z"
		/>
	<path class="st0" d="M3861.4,2031.3c0,249.2-151.2,463.1-366.9,555c-14.7,6.3-29.7,12-45.1,17.1c-45.3,15.1-92.3,24.8-139.9,28.7
		c-16.8,1.4-33.9,2.1-51.1,2.1c-97.4,0.2-193.4-23.4-279.7-68.7c-45.5,19.8-92.2,36.9-139.7,51.2c-5.4,1.6-10.8,3.3-16.2,4.8
		c-135.4,39.3-287.6,61.4-448.6,61.4c-149,0-290.5-18.9-418.1-52.9c-31.6-8.4-62.4-17.8-92.2-28c-86.3,34.6-178.2,53.1-271.2,54.4
		c-4.1,0.1-8.2,0.1-12.4,0.1c-6,0-12-0.1-18-0.2c-412.4-9.5-743.7-346.8-743.7-761.5c0-335.1,216.4-619.6,517-721.5
		c1.3-6.7,2.7-13.3,4.1-19.9c0.4-2.1,0.9-4.3,1.4-6.4c0.6-2.7,1.2-5.5,1.9-8.2l0.2-0.8v-0.1c0.3-1.3,0.6-2.7,0.9-4
		c6.1-25.6,13.2-50.8,21.3-75.7c6-18.7,12.6-37.1,19.7-55.3c2.8-7.1,5.6-14.2,8.5-21.2c0.9-2.3,1.9-4.5,2.9-6.8
		c2.4-5.6,4.8-11.2,7.3-16.7c3-6.7,6.1-13.4,9.2-20c3.1-6.5,6.2-13,9.4-19.4c15.2-30.6,32-60.3,50.3-89.2
		c15.2-24,31.3-47.3,48.4-69.8c4.3-5.6,8.6-11.2,13-16.7c145-183.1,352.1-314.8,589.5-363.1c66.6-13.5,134.4-20.3,202.3-20.3
		c369.2,0,692.1,198.2,868,494c10.7,18,20.9,36.3,30.4,55c70.9,138,110.9,294.5,110.9,460.4c0,21.4-0.7,42.6-2,63.7
		c98.8,12.3,193,48.9,274.1,106.7C3761.2,1649,3861.4,1828.5,3861.4,2031.3z"/>
	<path class="st1" d="M2695.3,1457.1c0,517.1-302,963.7-739.2,1173c-31.6-8.4-62.4-17.8-92.2-28c-86.3,34.6-178.2,53.1-271.2,54.4
		c-4.1,0.1-8.2,0.1-12.4,0.1c-420.7,0-761.7-341-761.7-761.7c0-335.1,216.4-619.6,517-721.5c1.3-6.7,2.7-13.3,4.1-19.9
		c0.5-2.1,0.9-4.2,1.4-6.4c0.6-2.7,1.2-5.5,1.9-8.2l0.2-0.7v-0.1c0.3-1.3,0.6-2.7,1-4c6.1-25.6,13.2-50.9,21.2-75.7
		c6-18.7,12.6-37.1,19.7-55.3c2.8-7.1,5.6-14.2,8.5-21.2c0.9-2.3,1.9-4.5,2.9-6.8c2.4-5.6,4.8-11.2,7.3-16.7c3-6.7,6.1-13.4,9.2-20
		c3.1-6.5,6.2-13,9.4-19.4c15.3-30.6,32-60.3,50.3-89.2c15.2-24,31.3-47.3,48.5-69.8c4.3-5.6,8.6-11.2,13-16.7
		c145-183.1,352.1-314.8,589.5-363.1C2468.6,614,2695.3,1009.1,2695.3,1457.1z"/>
	<path class="st2" d="M3607.6,1539.7c-81.1-57.8-175.3-94.4-274.2-106.7c1.3-21.1,2-42.3,2-63.7c0-165.8-40-322.3-110.9-460.4
		c-9.6-18.7-19.8-37-30.4-55c-17.4,13.6-28.4,33.9-28.4,56.4c0,32,22.2,59.3,53.3,69.8v83c0,47.8,31.2,90.1,76.9,104.2v17.3h-18
		c-3.1,0-6.1,0.2-9.2,0.6c-0.8,0.1-1.5,0.2-2.3,0.3c-6,0.9-11.9,2.6-17.5,5c-27.5,11.8-45.4,38.8-45.7,68.7l-6.1,45.2l0,0
		c0.3-1,0.7-1.9,1.1-2.9l-0.2,1.6c-2.3,8.2-4.6,16.4-7.1,24.7c-11.9,40.4-26.1,81.1-51.7,114.3c-2.4,3.2-5,6.2-7.8,9
		c-13.3,13.4-25,14.3-39.6,4.3c-38.1-26.2-47.8-75.3-73.4-113.2c-4.5-6.6-10.6-12-17.7-15.7c-2.3-5.1-4.8-9.9-6.6-13.7
		c-4.8-10.1-12.3-24.7-18.1-32c-3.2-4-6.3-7.7-9.6-11.2c-12.8-13.8-26.4-23.7-44.1-30.8c0.2-14.8-2.9-29.4-9-42.9l0,0
		c-6.1-13.5-9.2-28.1-9-42.9c0-4.1,0.3-8.3,0.9-12.4l3.8-28.5c0.1-0.5,0.1-1,0.1-1.6c0-6.4-5.2-11.5-11.6-11.4
		c-5.7,0-10.5,4.3-11.3,9.9l-3.8,28.5c-2.5,18.8-10.3,36.6-22.4,51.2c-1.9,2.3-3.7,4.6-5.3,7c-9.1,13.2-14.9,28.3-17,44.1l-1.5,11.1
		c-6.7,6.9-11.2,15.6-12.9,25c-3,15.3-0.6,26.3,4.9,35.1l-9.9,73.9l-0.3,1.9c-0.8,6.3,3.6,12.1,9.9,12.9c0,0,0,0,0,0l20.9,2.8
		l40.1,5.4c0.5,0.1,0.9,0.1,1.4,0.1h0.4c0.3,0,0.6,0,0.9-0.1l0.5-0.1c0.3,0,0.7-0.1,1-0.2c0.1,0,0.2,0,0.3-0.1
		c0.4-0.1,0.8-0.2,1.2-0.4c0.2,0,0.3-0.1,0.4-0.2c0.3-0.1,0.5-0.2,0.8-0.4l0.4-0.2c0.3-0.2,0.6-0.4,0.9-0.6l0.2-0.2
		c0.3-0.3,0.7-0.5,1-0.8c0.1-0.1,0.2-0.2,0.3-0.3c0.2-0.2,0.4-0.4,0.6-0.7c0-0.1,0.1-0.1,0.2-0.2l0.1-0.2c0.2-0.3,0.5-0.7,0.7-1
		l0.1-0.1c0.2-0.4,0.4-0.8,0.6-1.2c0.1-0.1,0.1-0.2,0.1-0.3c0.1-0.3,0.3-0.7,0.4-1c0-0.1,0.1-0.3,0.1-0.4c0.1-0.5,0.2-0.9,0.3-1.4
		l4.6-34.1c2.8,1.7,5.5,3.5,8.3,5.6c-1.4,12.2,2.1,25.8,11.8,40.8c40.6,62.4,57.1,118.7,123,158.9c19.7,12,38,19.3,55.6,21.9
		c18.6,2.9,37.7,0.2,54.9-7.7l-12.1,89.4l-6.3,46.5c-6.1,5.4-12,11.1-17.5,16.9c-23.2,24.6-46.4,68.7-12,94.8
		c4.4,3.4,9.4,6,14.7,7.7v16.3c-6.7-6.9-8.2-11-8.2-11l-60.8-48.2l-7.2-2.1c-4.6-2.4-8.9-5.2-12.9-8.5c-8.4-6.6-12.8-11.9-15-15.2
		l-2.1-3.8l-60.8-48.2l-1.5-0.1c-2.5-0.4-8.4-2.3-18.6-10.5c-13.1-10.4-16.5-17.5-17-18.7l-0.1-0.2l-44.8-35.5
		c-20.2-16-46-17-62.1,3.2c-13.2,16.7-15.5,42.5-4.6,60h-856.2l-0.1-1.1h375.9v-101.6h-381.2l-0.1-2.3h129.1v-15.5l-15.2-61.2h93.2
		v-0.4h61.7c4.1,0,7.8-2.3,9.6-6c11.6,0.3,23-2.9,32.7-9.3v92.5h32.5v-81.2c22.7,18.8,50.9,29.8,75.1,47.3c0.8,0.5,1.5,1.1,2.3,1.7
		c25.6,19.2,74.9,26.4,98.8,0.2c9.6-10.5,12.8-26,10.4-40c-8.3-47.9-63.2-82.4-108.8-93.1c-3.3-0.8-6.5-1.4-9.7-2
		c-21.4-3.5-42.7-3.4-63.6-6.2v-41.6h99.9c4.5,0,8.2-3.7,8.2-8.2V1328c0-4.5-3.7-8.2-8.2-8.2h-168.6v-68.3c0-5.9-4.8-10.7-10.7-10.7
		h-225.2l-38.2-83.4l-0.2-0.5l-45.6-99.5l-3.7,1.4c-1.4-1.7-3-3.3-4.6-4.9c-4.3-4.2-9.1-7.8-14.3-10.9c23.8-16.7,39-43,41.5-72
		l9-103.1l0.1-0.2l1.7-1.2c42.7-28.7,30-92.5,3.3-127.9c-3.8-5-7.9-9.7-12.4-14c-35.1-33.9-87.4-47.2-135.1-43.6
		c-7.3,0.6-14.6,1.7-21.8,3.5c-11.7-26.5-42.4-38.8-69.2-27.6l-57,23.7c-27.1,11.3-40,42.5-28.7,69.6l6.8,16.3
		c5.7,13.7,16.9,24.4,30.9,29.5c-1.2,3.8-2.2,7.7-3,11.6c-10.8,51.7-6.7,108.2,20.5,153.5c4.2,6.9,8.8,13.4,14,19.6
		c17.7,21.1,41.9,39.3,67.8,45.8c1.9,2.2,4,4.4,6.1,6.4v9c-8.8,2.2-17.5,4.8-26.1,7.9c-2.1,0.8-4.2,1.6-6.3,2.4
		c-1.5,0.6-3,1.2-4.5,1.8l-1,0.4c-3.4,1.4-6.7,2.9-10,4.5s-6.5,3.2-9.8,4.9c-0.4,0.2-0.7,0.4-1.1,0.6c-1.1,0.6-2.3,1.2-3.4,1.8
		c-6.7,3.7-13.2,7.7-19.6,12s-12.4,8.8-18.3,13.6c-11.8,9.6-22.7,20.3-32.6,31.8c-0.8,0.9-1.6,1.9-2.4,2.8c-3.3,3.3-6.2,7-8.7,10.9
		c-0.1,0.1-0.1,0.2-0.2,0.3l0,0l-0.1,0.1c-9.6,12.9-18,26.8-25,41.3l0,0l-93.3,154c-35.8,60.6-19.4,138.4,37.7,179.5
		c0,0,10.4,7.5,26.7,19.2l-0.3,16.6l-2.3,159.8l-0.1,7.9H1502c-10.6,0-20.8,4.5-28,12.2c-7.5,8-11.7,18.6-11.6,29.6
		c0,23.1,17.7,41.8,39.6,41.8h35.6v745.6c0,37.2,30.2,67.4,67.4,67.4c0,0,0,0,0,0h-14.7c-15.5,0-28.1,12.6-28.1,28.1c0,0,0,0,0,0v20
		c0,15.5,12.6,28.1,28.1,28.1l0,0h1234.5c15.5,0,28.1-12.6,28.1-28.1v-20c0-8.6-3.9-16.7-10.6-22c-1.1-0.9-2.2-1.6-3.4-2.3
		c-4.3-2.5-9.1-3.8-14.1-3.8h-14.7c37.3,0,67.4-30.2,67.4-67.4v-658.3l26.4,12.1h-2c-7.3,0-13.2,5.9-13.2,13.2v17.6
		c0,7.3,5.9,13.2,13.2,13.2h6l57.4,195.6c2.1,7,9.7,12.7,16.9,12.7h217.2v278.3c0,20,9.9,38.7,26.4,49.9v38.2
		c-4.2,0.2-7.5,7.6-7.5,7.6c-31.6,41.1-79,64.2-115.7,76.6c62.4,20.1,127.5,30.3,193,30.3c4.6,0,9.2,0,13.8-0.2
		c62.9-1.3,125.3-12.1,184.9-32v-50.6l-0.5,0.1c-0.9-7.6-2.7-12.8-5-16.2c-1.7-2.8-4.3-4.8-7.4-5.9c-0.6-0.2-1.1-0.2-1.7-0.3v-47
		c14.2-13.4,22.2-32.1,22.2-51.6v-550.2c0.7,0,1.4,0,2.1,0c40.8,0,73.9-33.1,73.9-73.9c0,0,0,0,0,0v-179.9
		C3598.8,1601.4,3609.4,1570.8,3607.6,1539.7z M2228.6,1396.5h27.1v24.6c-1.5-0.8-3-1.5-4.6-2.2l-22.5-9.4V1396.5z M1984.7,1534.6
		l15.2,61.2h-51.6l-1.9-37.6l-1.2-23.6H1984.7z M2911.3,1800h1.2l1.6,1.3L2911.3,1800z M3199.5,1899.3h-11.8l-32.1-25.4
		c-0.1,0-0.3,0-0.4,0v-32.9c15-2.2,30.4-8.8,44.3-17.3V1899.3z M3348.5,2479c2.7,2.8,5.7,5.3,8.9,7.5v40.8c-0.8,0.1-1.6,0.5-2.3,1
		c-2.1-6.8-4.4-9.7-6.6-10.3V2479z"/>
	<g class="st3">
		<path class="st4" d="M1998.7,919.1L1998.7,919.1c0,10.7-8.7,19.4-19.4,19.4c0,0,0,0,0,0H1413c3.1-6.5,6.2-13,9.4-19.4h50.3v-19.4
			h44c0,10.7,8.7,19.4,19.4,19.4c0,0,0,0,0,0h25.4c10.7,0,19.4-8.7,19.4-19.4h10.6c0,10.7,8.7,19.4,19.4,19.4h25.4
			c10.7,0,19.4-8.7,19.4-19.4l0,0h127c0,10.7,8.7,19.4,19.4,19.4l0,0h25.4c10.7,0,19.4-8.7,19.4-19.4l0,0h10.6
			c0,10.7,8.7,19.4,19.4,19.4l0,0h25.4c10.7,0,19.4-8.7,19.4-19.4c0,0,0,0,0,0h57.3C1990,899.7,1998.7,908.4,1998.7,919.1z"/>
		<path class="st4" d="M1998.7,1134.2L1998.7,1134.2c0,10.7-8.7,19.4-19.4,19.4c0,0,0,0,0,0h-632.8c-2.9,0-5.3-2.4-5.3-5.3
			c0-0.4,0-0.8,0.1-1.1c0.7-3,1.3-5.9,2-8.9c0.6-2.4,2.7-4.1,5.2-4.1h44.2c2.9,0,5.3-2.4,5.3-5.3v0v-8.8c0-2.9,2.4-5.3,5.3-5.3h0
			l0,0c2.9,0,5.3,2.4,5.3,5.3v0v8.8c0,2.9,2.4,5.3,5.3,5.3h0h53.6c2.9,0,5.3-2.4,5.3-5.3c0,0,0,0,0,0v-8.8c0-2.9,2.4-5.3,5.3-5.3h0
			h33.4c2.9,0,5.3,2.4,5.3,5.3c0,0,0,0,0,0v8.8c0,2.9,2.4,5.3,5.3,5.3h0h53.6c2.9,0,5.3-2.4,5.3-5.3v0v-8.8c0-2.9,2.4-5.3,5.3-5.3h0
			l0,0c2.9,0,5.3,2.4,5.3,5.3c0,0,0,0,0,0v8.8c0,2.9,2.4,5.3,5.3,5.3h0h53.6c2.9,0,5.3-2.4,5.3-5.3v0v-8.8c0-2.9,2.4-5.3,5.3-5.3h0
			h116.4c2.9,0,5.3,2.4,5.3,5.3v0v8.8c0,2.9,2.4,5.3,5.3,5.3c0,0,0,0,0,0h53.6c2.9,0,5.3-2.4,5.3-5.3v0v-8.8c0-2.9,2.4-5.3,5.3-5.3
			h0l0,0c2.9,0,5.3,2.4,5.3,5.3v0v8.8c0,2.9,2.4,5.3,5.3,5.3h0h53.6c2.9,0,5.3-2.4,5.3-5.3v0v-8.8c0-2.9,2.4-5.3,5.3-5.3h0h52
			C1990,1114.7,1998.7,1123.4,1998.7,1134.2C1998.7,1134.2,1998.7,1134.2,1998.7,1134.2z"/>
		<path class="st5" d="M1472.8,829.9v89.2h-50.3C1437.7,888.5,1454.5,858.7,1472.8,829.9z"/>
		<path class="st6" d="M1561.6,919.1c10.7,0,19.4-8.7,19.4-19.4l0,0V770.8l-9.4-8.1v3.4h-45.4v-3.5l-9.4,8.2v128.8l0,0
			c0,10.7,8.7,19.4,19.4,19.4l0,0L1561.6,919.1z"/>
		<path class="st6" d="M1579.6,743.4v16.7h-8v-1.3h-45.4v1.3h-5c4.3-5.6,8.6-11.2,13-16.7H1579.6z"/>
		<polygon class="st6" points="1571.6,766.2 1571.6,762.7 1571.6,760.1 1571.6,758.8 1526.2,758.8 1526.2,760.1 1526.2,762.7 
			1526.2,766.2 		"/>
		<path class="st6" d="M1636.5,919.1c10.7,0,19.4-8.7,19.4-19.4c0,0,0,0,0,0l0,0V770.8l-9.4-8.1v3.4h-45.4v-3.5l-9.4,8.2v128.8l0,0
			c0,10.7,8.7,19.4,19.4,19.4H1636.5z"/>
		<polygon class="st6" points="1646.4,758.8 1646.4,760.1 1654.5,760.1 1654.5,743.4 1593,743.4 1593,760.1 1601.1,760.1 
			1601.1,758.8 		"/>
		<polygon class="st6" points="1646.4,766.2 1646.4,762.7 1646.4,760.1 1646.4,758.8 1601.1,758.8 1601.1,760.1 1601.1,762.7 
			1601.1,766.2 		"/>
		<path class="st6" d="M1827.7,919.1c10.7,0,19.4-8.7,19.4-19.4l0,0l0,0V770.8l-9.4-8.1v3.4h-45.4v-3.5l-9.4,8.2v128.8l0,0
			c0,10.7,8.7,19.4,19.4,19.4L1827.7,919.1z"/>
		<path class="st6" d="M1837.7,758.8v1.2l0,0c4.4,0,8-3.6,8-8v-0.6c0-4.4-3.6-8-8-8h-45.4c-4.4,0-8,3.6-8,8v0.5c0,4.4,3.6,8,8,8l0,0
			v-1.2L1837.7,758.8z"/>
		<polygon class="st6" points="1837.7,766.2 1837.7,762.7 1837.7,760.1 1837.7,758.8 1792.3,758.8 1792.3,760.1 1792.3,762.7 
			1792.3,766.2 		"/>
		<path class="st5" d="M1902.6,919.1c10.7,0,19.4-8.7,19.4-19.4c0,0,0,0,0,0l0,0V770.8l-9.4-8.1v3.4h-45.4v-3.5l-9.4,8.2v128.8l0,0
			c0,10.7,8.7,19.4,19.4,19.4l0,0L1902.6,919.1z"/>
		<polygon class="st6" points="1912.5,758.8 1912.5,760.1 1920.6,760.1 1920.6,743.4 1859.1,743.4 1859.1,760.1 1867.2,760.1 
			1867.2,758.8 		"/>
		<polygon class="st6" points="1912.5,766.2 1912.5,762.7 1912.5,760.1 1912.5,758.8 1867.2,758.8 1867.2,760.1 1867.2,762.7 
			1867.2,766.2 		"/>
		<path class="st6" d="M1365.5,1058.5v75.7h-21.2C1350.3,1108.5,1357.4,1083.3,1365.5,1058.5z"/>
		<path class="st5" d="M1506.1,986v128.3c0,0.2,0,0.3,0,0.5c-0.3,10.8-9.1,19.4-19.9,19.4h-81.1c-11,0-19.9-8.9-19.9-19.9v-111
			c2.8-7.1,5.6-14.2,8.5-21.2l9.2-4.3v3.5h85.5v-3.4L1506.1,986z"/>
		<path class="st5" d="M1503.5,958.5v16.7h-15.1V974h-85.5v1.3h-6.3c2.4-5.6,4.8-11.2,7.3-16.7L1503.5,958.5z"/>
		<polygon class="st6" points="1488.4,981.3 1488.4,977.8 1488.4,975.2 1488.4,974 1402.9,974 1402.9,975.2 1402.9,977.8 
			1402.9,981.3 		"/>
		<path class="st6" d="M1626.9,1134.2c11,0,19.9-8.9,19.9-19.9l0,0V986l-17.8-8.1v3.4h-85.5v-3.5l-6.2,2.8
			c-7.1,3.3-11.6,10.3-11.6,18.1v115.5l0,0c0,11,8.9,19.9,19.9,19.9L1626.9,1134.2z"/>
		<polygon class="st6" points="1629.1,974 1629.1,975.2 1644.2,975.2 1644.2,958.5 1528.4,958.5 1528.4,975.2 1543.6,975.2 
			1543.6,974 		"/>
		<polygon class="st6" points="1629.1,981.3 1629.1,977.8 1629.1,975.2 1629.1,974 1543.6,974 1543.6,975.2 1543.6,977.8 
			1543.6,981.3 		"/>
		<path class="st6" d="M1767.6,1134.2c11,0,19.9-8.9,19.9-19.9l0,0V986.8c0-0.5-0.3-1-0.8-1.2l-15.1-6.9c-0.7-0.3-1.5,0-1.8,0.7
			c-0.1,0.2-0.1,0.4-0.1,0.5l0,0c0,0.7-0.6,1.3-1.3,1.3c0,0,0,0,0,0h-82.8c-0.7,0-1.3-0.6-1.3-1.3v-0.1c0-0.7-0.6-1.3-1.3-1.3
			c-0.2,0-0.4,0-0.6,0.1l-15.1,7c-0.5,0.2-0.8,0.7-0.8,1.2v127.4l0,0c0,11,8.9,19.9,19.9,19.9c0,0,0,0,0,0L1767.6,1134.2z"/>
		<polygon class="st6" points="1769.7,974 1769.7,975.2 1784.9,975.2 1784.9,958.5 1669.1,958.5 1669.1,975.2 1684.3,975.2 
			1684.3,974 		"/>
		<polygon class="st6" points="1769.7,981.3 1769.7,977.8 1769.7,975.2 1769.7,974 1684.3,974 1684.3,975.2 1684.3,977.8 
			1684.3,981.3 		"/>
		<path class="st5" d="M1908.2,1134.2c11,0,19.9-8.9,19.9-19.9l0,0V986l-17.8-8.1v3.4h-85.5v-3.5l-17.8,8.2v128.3l0,0
			c0,11,8.9,19.9,19.9,19.9c0,0,0,0,0,0L1908.2,1134.2z"/>
		<polygon class="st6" points="1910.4,974 1910.4,975.2 1925.6,975.2 1925.6,958.5 1809.8,958.5 1809.8,975.2 1824.9,975.2 
			1824.9,974 		"/>
		<polygon class="st7" points="1910.4,981.3 1910.4,977.8 1910.4,975.2 1910.4,974 1824.9,974 1824.9,975.2 1824.9,977.8 
			1824.9,981.3 		"/>
	</g>
	<path class="st8" d="M3720.4,2633.8c0,22.2-60.5,43.1-166.8,61.2c-227.2,38.8-663.3,65-1164,65c-21,0-41.9,0-62.7-0.1
		c-32.1-0.2-63.9-0.4-95.4-0.8c-17.9-0.2-35.6-0.4-53.2-0.7c-21-0.3-41.8-0.7-62.4-1.1c-8.1-0.1-16.2-0.3-24.2-0.5
		c-158.8-3.4-306.9-9.6-438.4-17.9c-34.8-2.2-68.4-4.5-100.8-7c-27.5-2.1-54-4.3-79.7-6.6c-19-1.7-37.5-3.5-55.4-5.3
		c-6.7-0.7-13.2-1.4-19.7-2.1c-1.6-0.2-3.2-0.3-4.8-0.5l-1.8-0.2l-4.6-0.5c-6.1-0.6-12.1-1.3-18-2c-2.4-0.3-4.7-0.6-7.1-0.8l-9-1.1
		l-6.4-0.8l-5.5-0.7l-7.8-1h-0.2c-4.5-0.6-8.9-1.1-13.3-1.7c-0.5-0.1-0.9-0.1-1.4-0.2l-10.8-1.4l-3.6-0.5l-3.3-0.4l-4.6-0.6
		c-0.8-0.1-1.7-0.2-2.6-0.4l-2.9-0.4l-4.6-0.6l-4.1-0.6l-4-0.6l-4-0.6l-1.8-0.3l-1.7-0.3l-4.3-0.6l-4.3-0.6l-1.4-0.2l-4.5-0.7
		c-3.9-0.6-7.8-1.2-11.6-1.8c-1-0.2-2.1-0.3-3.1-0.5l-1.2-0.2l-1.2-0.2l-5.9-1l-1.1-0.2l-1.7-0.3l-5.5-0.9l-5.4-0.9l-4.5-0.8
		c-1.2-0.2-2.3-0.4-3.5-0.6l-2.6-0.5l-2.6-0.5c-4.3-0.8-8.5-1.6-12.6-2.4l-4.3-0.8l-5.4-1.1c-2.4-0.5-4.8-1-7.1-1.5l-5-1.1
		c-2-0.4-4-0.9-6-1.3c-4.6-1-9.1-2.1-13.4-3.1l-2.1-0.5l-2.1-0.5l-3.2-0.8l-1.3-0.3l-1.3-0.3l-0.7-0.2l-0.7-0.2l-4.4-1.1l-3.8-1
		c-4.4-1.2-8.5-2.4-12.5-3.6c-18.6-5.6-33.2-11.4-43.3-17.4c-4-2.3-7.7-5-11-8.1c-0.3-0.4-0.7-0.7-1-1.1s-0.8-0.9-1.2-1.4
		c0,0-0.1-0.1-0.1-0.1l-0.4-0.6l0,0c-0.1-0.1-0.2-0.3-0.3-0.4s-0.2-0.3-0.3-0.4s-0.3-0.4-0.4-0.6c-0.1-0.2-0.3-0.4-0.4-0.6
		c-0.1-0.2-0.2-0.4-0.3-0.6l-0.3-0.7c-0.1-0.2-0.2-0.4-0.2-0.5c0-0.1-0.1-0.1-0.1-0.2c-0.1-0.2-0.2-0.4-0.2-0.6c0,0,0-0.1,0-0.1
		c-0.1-0.2-0.1-0.4-0.2-0.6c-0.1-0.3-0.2-0.6-0.2-0.9c0-0.1-0.1-0.3-0.1-0.4c0,0,0,0,0-0.1c0-0.1,0-0.1,0-0.2v-0.2
		c0-0.3-0.1-0.6-0.1-0.9l0,0c0-0.3-0.1-0.6-0.1-1s0-0.5,0-0.8s0-0.4,0.1-0.6v-0.1c0-0.1,0-0.2,0-0.3c0,0,0-0.1,0-0.1
		c0-0.1,0-0.1,0-0.2c0,0,0-0.1,0-0.1v-0.1c0,0,0-0.1,0-0.1c0-0.1,0-0.1,0.1-0.2c0-0.1,0.1-0.3,0.1-0.4c0-0.2,0.1-0.3,0.1-0.5
		l0.1-0.3c0.1-0.2,0.1-0.4,0.2-0.6l0,0c0.1-0.2,0.2-0.4,0.3-0.6l0.1-0.2c0.2-0.4,0.4-0.8,0.6-1.3l0.1-0.3c0,0,0.1-0.1,0.1-0.1
		l0.2-0.4l0.2-0.3l0.4-0.6c0.6-0.9,1.2-1.7,1.8-2.6c0.2-0.3,0.5-0.6,0.7-0.9c0.1-0.1,0.1-0.1,0.2-0.2l0.4-0.4
		c0.1-0.1,0.1-0.1,0.2-0.2l0,0l0.4-0.4l0.3-0.4l0.9-0.9l0,0l0.5-0.5c0.2-0.1,0.3-0.3,0.5-0.5l0.1-0.1c0.3-0.3,0.7-0.6,1-0.9l0.9-0.8
		c0.3-0.3,0.7-0.5,1-0.8l0.4-0.3l0.4-0.3c0.6-0.4,1.2-0.9,1.8-1.3c0.8-0.6,1.6-1.1,2.4-1.7s1.7-1.1,2.6-1.7l1.4-0.9l1.1-0.7l0.4-0.2
		l0.8-0.5l0.3-0.2l0.5-0.3l0.4-0.2l0.4-0.2l0.4-0.2l0.4-0.2l1.6-0.9l1.7-0.9l0.8-0.4l0.8-0.4c0.9-0.4,1.8-0.9,2.7-1.4l1.4-0.7
		l1.4-0.7l1.4-0.7c1-0.4,2-0.9,3-1.4c0.3-0.1,0.5-0.2,0.8-0.3l0.8-0.4c0.3-0.1,0.5-0.2,0.8-0.3c1-0.4,2-0.9,3-1.3l0,0l1.1-0.5
		l0.4-0.2l1.2-0.5l1.3-0.5l2-0.8h0.1l0.4-0.1l0.5-0.2l0.9-0.4l0.4-0.1l0.4-0.1l0.8-0.3l1-0.4l1-0.4c0.8-0.3,1.7-0.6,2.5-0.9l2.6-1
		l2.6-0.9l2.7-1l2.6-0.9l1-0.3l1-0.3l2.4-0.8c0.7-0.2,1.4-0.5,2.1-0.7l0.8-0.3c0.7-0.3,1.4-0.5,2.1-0.7s1.7-0.5,2.5-0.8l2.9-0.9l0,0
		c1.9-0.6,3.9-1.3,6-1.9l6.1-1.9l3.1-0.9l3.2-0.9l0,0l0.6-0.2c0.9-0.3,1.7-0.5,2.6-0.8l1.4-0.4l1.4-0.4c1.1-0.3,2.1-0.6,3.2-0.9l0,0
		c0.3-0.1,0.6-0.2,0.9-0.3l0.5-0.1l1.3-0.4l1.7-0.5l1.7-0.5l0,0c0.9-0.3,1.7-0.5,2.6-0.7l0.9-0.3l0.9-0.3l0.9-0.2l0.9-0.3l2.5-0.6
		l2.5-0.7l5.7-1.5l4.7-1.2c0.6-0.1,1.1-0.3,1.7-0.4s1.1-0.3,1.7-0.4c2.3-0.6,4.6-1.1,6.9-1.7l7.1-1.7l2.8-0.7c2-0.5,4-0.9,6-1.4
		l2.4-0.6l3.3-0.8c2.8-0.6,5.6-1.3,8.4-1.9l1.7-0.4l0.4-0.1c0.4-0.1,0.9-0.2,1.3-0.3l0.3-0.1l0.6-0.1l0.9-0.2l1.2-0.3l1.1-0.3
		l1.2-0.3l1.2-0.3c1.6-0.4,3.3-0.7,4.9-1.1l5-1.1l0.3-0.1l0.3-0.1c2.2-0.4,4.5-0.9,6.7-1.4l0.6-0.1l4.4-0.9l2.7-0.6
		c5.7-1.2,11.6-2.4,17.5-3.5l0.4-0.1h0.1h0.2l1.4-0.3c0.7-0.1,1.4-0.3,2.1-0.4l12.6-2.4l3.2-0.6l1.1-0.2c0.7-0.1,1.4-0.3,2.1-0.4
		l2.2-0.4l4.3-0.8c5.7-1,11.5-2.1,17.3-3.1l10.6-1.9c1.6-0.3,3.2-0.5,4.8-0.8l4.8-0.8l7.4-1.3l4.7-0.8l2.3-0.4l2.3-0.4l2.3-0.4
		l2.4-0.4l0.6-0.1c2.5-0.4,4.9-0.8,7.5-1.2l5.3-0.9l5.4-0.8l2.7-0.4l2.7-0.4l4.9-0.8c1.6-0.3,3.3-0.5,4.9-0.8l9.9-1.5
		c1.7-0.3,3.3-0.5,5-0.8l5-0.8l1.9-0.3l3.8-0.6l1.9-0.3c1.3-0.2,2.6-0.4,3.8-0.6l3.8-0.6l12-1.7l4.7-0.6c1.2-0.2,2.3-0.3,3.5-0.5
		h0.1c3.3-0.5,6.6-0.9,10-1.4c4.1-0.6,8.2-1.1,12.3-1.7l6.2-0.8l12.5-1.6l6.3-0.8l9.5-1.2l4.8-0.6l4.8-0.6l6.4-0.8l6.5-0.8l0.5-0.1
		l2.6-0.3l3.1-0.4l6.2-0.8l3.3-0.4l3-0.3l6.3-0.8l3.2-0.4l1.6-0.2c0.5-0.1,1.1-0.1,1.6-0.2c1.4-0.2,2.9-0.4,4.3-0.5l4.4-0.5l4.4-0.5
		l4.4-0.5l5.3-0.6c10.7-1.2,21.5-2.4,32.4-3.5l5.5-0.6c1.5-0.2,3-0.3,4.5-0.5s3-0.3,4.5-0.5s2.8-0.3,4.3-0.4h0.2l1.9-0.2l2.1-0.2
		l3.4-0.3l1.7-0.2l1.7-0.2l6.8-0.7l6.8-0.7l6.1-0.6h0.3h0.2h0.2l1.1-0.1l0.9-0.1l2.4-0.2l4.4-0.4c5.4-0.5,10.8-1,16.2-1.5
		s10.9-1,16.3-1.5l5.3-0.5l5.3-0.5l6.6-0.6l6.7-0.6l6.7-0.6l6.7-0.6c2-0.2,4-0.3,6.1-0.5l6.1-0.5l21.6-1.8l3.8-0.3l3.5-0.3l3.6-0.3
		l3.6-0.3l8.7-0.7l8.7-0.6l3.3-0.3l3.3-0.3l2.5-0.2l0.8-0.1l1.7-0.1l1.7-0.1l10.5-0.8l10.6-0.8l7.1-0.5l5.4-0.4l5.4-0.4
		c1.4-0.1,2.8-0.2,4.3-0.3l2.1-0.1l2.1-0.1l6.8-0.4l6.9-0.4l6.8-0.4l6.8-0.4l0,0c2.3-0.1,4.6-0.3,6.9-0.4l6.9-0.4l11.1-0.7
		c3.3-0.2,6.6-0.4,10-0.6l7-0.4c2.3-0.1,4.7-0.3,7-0.4l3.7-0.2l0,0l3.7-0.2c2.5-0.1,4.9-0.3,7.4-0.4c6.5-0.4,13.1-0.7,19.7-1h0.9
		c9.5-0.5,19.1-1,28.6-1.4c3.6-0.2,7.2-0.3,10.8-0.5l2.6-0.1l8.2-0.4l10.9-0.5l10.9-0.5l6.4-0.3l6.4-0.3l16.6-0.6
		c0.6,0,1.2-0.1,1.8-0.1l1.9-0.1l3.7-0.1l2-0.1l6.4-0.2l6.4-0.2l10.8-0.4l11.5-0.4l7.4-0.2l18.9-0.6l13.7-0.4h2.3l2.5-0.1
		c0.7,0,1.4,0,2,0c3.3-0.1,6.5-0.2,9.8-0.2h0.2c2.2,0,4.4-0.1,6.5-0.1l2.8-0.1l3.8-0.1l23.2-0.5l0,0c10.1-0.2,20.2-0.4,30.4-0.5h1.6
		l4.2-0.1l9-0.1h0.6c5.1-0.1,10.1-0.1,15.2-0.2h0.2c3.3,0,6.6-0.1,9.9-0.1h2.4l12.4-0.1c4.1,0,8.2-0.1,12.4-0.1l11.6-0.1h12.5
		c3.2,0,6.4,0,9.7,0h16.1c6.2,0,12.4,0,18.6,0h1.6c5.4,0,10.9,0,16.3,0.1h2.6c5.5,0,10.9,0.1,16.4,0.1l16.9,0.1h2.1l17.6,0.2h0.4
		c6,0.1,11.9,0.1,17.9,0.2l9,0.1c3,0,6.1,0.1,9.2,0.1l9.1,0.2l9,0.2l7.7,0.1l7.7,0.2c8.6,0.2,17.1,0.4,25.6,0.6h1.3l8.9,0.2
		c2.4,0.1,4.9,0.1,7.3,0.2h1.6h1.3l5,0.1l6.2,0.2l4.6,0.1l4.6,0.1l4.4,0.1h1.6h0.8l2.4,0.1h0.6h1l8.1,0.3h0.6h0.7l2,0.1
		c1.5,0,3.1,0.1,4.6,0.1l4.6,0.1l4.4,0.2l3,0.1h1.4l4.6,0.2l5.4,0.2c1.7,0.1,3.4,0.1,5,0.2c1.4,0,2.7,0.1,4.1,0.1h1.1l2.5,0.1
		l1.3,0.1h1.4h0.4c1.9,0.1,3.7,0.1,5.6,0.2l8.5,0.3l4.8,0.2h0.2l4.9,0.2l2.2,0.1l2.2,0.1c1.8,0.1,3.6,0.2,5.4,0.2
		c3.8,0.2,7.6,0.3,11.4,0.5c2.7,0.1,5.5,0.2,8.2,0.4l2.5,0.1l2,0.1h0.4l2,0.1h0.1l2.1,0.1c2.9,0.1,5.7,0.3,8.6,0.4l11.5,0.6l2.8,0.1
		l2.7,0.1h0.7h0.7l2.8,0.1l1.1,0.1l4,0.2l2.3,0.1l2.3,0.1h0.8h0.1l13.3,0.7l5,0.3l8.2,0.4l1.4,0.1h0.3l2.9,0.2
		c1,0.1,1.9,0.1,2.9,0.2l2.8,0.2l2.8,0.2l2.9,0.2l2.9,0.2l4.1,0.2l1.6,0.1l1.6,0.1l3.5,0.2l4.5,0.3l4.5,0.3l9.2,0.6l9.1,0.6h0.2h0.2
		h0.4h0.5l3.7,0.2l4.2,0.3c0.4,0,0.8,0.1,1.3,0.1l9,0.6l9.3,0.6c2,0.1,4,0.3,6,0.4l1.7,0.1l1.5,0.1l6.6,0.5l5.1,0.4l3.6,0.2l2.9,0.2
		h0.2l1.4,0.1c0.2,0,0.5,0,0.7,0l0.7,0.1l1.3,0.1l1.4,0.1l1.5,0.1l2,0.1l0,0l3.9,0.3l0,0c0.8,0,1.6,0.1,2.4,0.2l1.2,0.1l4.7,0.4
		l2.9,0.2l0,0c1,0.1,1.9,0.1,2.9,0.2l0.7,0.1h0.3l1.7,0.1c0.6,0,1.1,0.1,1.7,0.1l4.6,0.4l7.2,0.6l3.7,0.3l3.7,0.3
		c0.7,0,1.4,0.1,2,0.1c0.4,0,0.8,0.1,1.2,0.1h0.2l3.6,0.3l7.3,0.6l6.9,0.6l8.8,0.7l8.8,0.7c5.6,0.5,11.2,1,16.7,1.4l11.4,1l11.3,1
		l11.2,1l9.5,0.9c5.6,0.5,11.2,1.1,16.8,1.6l7,0.7l1.7,0.2c6.7,0.7,13.4,1.3,20.1,2c2.7,0.3,5.4,0.6,8.1,0.8l8.1,0.8
		c1.2,0.1,2.5,0.3,3.7,0.4l1.1,0.1l2.6,0.3l3.5,0.4c1.7,0.2,3.4,0.4,5.2,0.6l3.6,0.4l4.3,0.5l7.9,0.9c2.6,0.3,5.2,0.6,7.9,0.9
		l7.8,0.9l4.6,0.5l4.6,0.5l9,1.1c11.9,1.4,23.7,2.8,35.3,4.3c1.1,0.1,2.3,0.3,3.4,0.4l4,0.5l7.3,0.9l3.8,0.5l1.8,0.2
		c2.5,0.3,5.1,0.6,7.6,1l3.4,0.4l5.4,0.7l7.2,0.9c9.6,1.3,19.1,2.6,28.4,3.9l13.9,2l13.7,2c4.5,0.7,9,1.3,13.5,2
		c0.8,0.1,1.5,0.2,2.3,0.3c1.2,0.2,2.4,0.4,3.6,0.6l7.4,1.1l6.6,1l6.5,1l0.8,0.1l7.3,1.1c1.5,0.2,2.9,0.5,4.4,0.7l0.4,0.1l6.4,1
		c8.1,1.3,16.1,2.7,23.9,4l2.2,0.4l1.2,0.2l3.7,0.6l1.8,0.3l3.9,0.7l0.6,0.1c0.2,0,0.4,0.1,0.6,0.1l1.1,0.2l6.1,1.1l10.3,1.9
		l3.4,0.6c1.3,0.2,2.6,0.5,3.9,0.7c6,1.1,12,2.3,17.9,3.4l8.5,1.7l7.5,1.5c2.5,0.5,5,1,7.4,1.5l7.3,1.5l9.8,2.1l8,1.7l3.5,0.8
		c3.9,0.9,7.7,1.7,11.5,2.6l2.1,0.5c19.6,4.5,37.7,8.9,54.3,13.4c11.8,3.2,22.7,6.4,32.9,9.6
		C3689.1,2600,3720.4,2617.8,3720.4,2633.8z"/>
	<path class="st4" d="M3544.6,2558.9c-9.7,9.6-24,19.3-43.2,29c-21.1,10.8-48.2,21.5-81.4,32.1c-22.1,7.1-47.1,14.1-74.8,21
		c-11.8,2.9-24.1,5.9-36.9,8.7c-70.7,15.9-157.3,31.1-260.9,44.9c-47.7,6.3-99,12.3-154,18c-149.7,15.4-326.9,28-533.9,36.5
		c-5.9,0.3-11.8,0.5-17.7,0.7c-4.4,0.2-8.8,0.4-13.2,0.5c-32.8,1.3-65,6-97.1,8.7c-17.9-0.2-35.6-0.4-53.2-0.7
		c-21-0.3-41.8-0.7-62.4-1.1c-8.1-0.1-16.2-0.3-24.2-0.5c-158.8-3.4-306.9-9.6-438.4-17.9c-34.8-2.2-68.4-4.5-100.8-7
		c-27.5-2.1-54-4.3-79.7-6.6c-19-1.7-37.5-3.5-55.4-5.3c-6.7-0.7-13.2-1.4-19.7-2.1c-1.6-0.2-3.2-0.3-4.8-0.5l-1.8-0.2l-4.6-0.5
		c-6.1-0.6-12.1-1.3-18-2c-2.4-0.3-4.7-0.6-7.1-0.8l-9-1.1l-6.4-0.8l-5.5-0.7l-7.8-1h-0.2c-4.5-0.6-8.9-1.1-13.3-1.7
		c-0.5-0.1-0.9-0.1-1.4-0.2c-3.6-0.5-7.2-0.9-10.8-1.4l-3.6-0.5l-3.3-0.4l-4.6-0.6c-0.8-0.1-1.7-0.2-2.6-0.4l-2.9-0.4l0,0l-8.7-1.2
		l-4-0.6l-4-0.6l-1.8-0.3l-6-0.9l-4.3-0.6l-1.4-0.2l-4.5-0.7c-3.9-0.6-7.8-1.2-11.6-1.8l-4.3-0.7l-1.2-0.2l-5.9-1l-2.8-0.5l-5.5-0.9
		l-5.4-0.9l-4.5-0.8c-1.2-0.2-2.3-0.4-3.5-0.6l-2.6-0.5l-2.6-0.5c-4.3-0.8-8.5-1.6-12.6-2.4l-4.3-0.8l-5.4-1.1
		c-2.4-0.5-4.8-1-7.1-1.5l-5-1.1c-2-0.4-4-0.9-6-1.3c-4.6-1-9.1-2.1-13.4-3.1l-2.1-0.5l-2.1-0.5l-3.2-0.8l-1.3-0.3l-2-0.5l-0.7-0.2
		l-4.4-1.1l-3.8-1c-4.4-1.2-8.5-2.4-12.5-3.6c11.5-4.2,23.7-8.4,36.7-12.7l0,0c8.3-2.7,16.9-5.5,25.8-8.3c9.3-2.9,18.9-5.8,28.8-8.8
		c11.5-3.4,23.3-6.9,35.5-10.3l0,0c4.1-1.2,8.3-2.3,12.6-3.5c15.7-4.4,32-8.7,48.9-13.1c176.4-45.9,415.6-93,689.1-129.5l0,0
		c63.7-8.5,129.3-16.4,196.4-23.7h0.1c0.7,0,1.4,0,2,0c3.3-0.1,6.5-0.2,9.8-0.2h0.2c2.2,0,4.4-0.1,6.5-0.1l2.8-0.1l3.8-0.1l23.2-0.5
		l0,0c10.1-0.2,20.2-0.4,30.4-0.5h1.6l4.2-0.1l9-0.1h0.6c5.1-0.1,10.1-0.1,15.2-0.2h0.2c3.3,0,6.6-0.1,9.9-0.1h2.4l12.4-0.1
		c4.1,0,8.2-0.1,12.4-0.1l11.6-0.1h12.5c3.2,0,6.4,0,9.7,0h16.1c6.2,0,12.4,0,18.6,0h1.6c5.4,0,10.9,0,16.3,0.1h2.6
		c5.5,0,10.9,0.1,16.4,0.1l16.9,0.1h2.1l17.6,0.2h0.4c6,0.1,11.9,0.1,17.9,0.2s12.1,0.2,18.2,0.3l18,0.3h0.1l7.7,0.2l7.7,0.2
		c8.6,0.2,17.1,0.4,25.6,0.6h1.3l8.9,0.2c2.4,0.1,4.9,0.1,7.3,0.2h1.6l6.3,0.2l6.2,0.2l4.6,0.1l4.6,0.1l4.4,0.1h1.6l3.2,0.1h0.6h1
		l8.1,0.3h0.6h0.7l2,0.1c1.5,0,3.1,0.1,4.6,0.1l4.6,0.1l4.4,0.1l3,0.1h1.4l4.6,0.2l5.4,0.2c1.7,0.1,3.4,0.1,5,0.2
		c1.4,0,2.7,0.1,4.1,0.1h0.8l2.7,0.1l1.3,0.1l1.5,0.1h0.2l2.7,0.1l2.9,0.1l8.5,0.3l4.8,0.2h0.2l4.9,0.2l2.2,0.1l2.2,0.1
		c1.8,0.1,3.6,0.2,5.4,0.2c3.8,0.2,7.6,0.3,11.4,0.5c2.7,0.1,5.5,0.2,8.2,0.4l2.5,0.1l2,0.1h0.4l2,0.1h0.1l2.1,0.1
		c2.9,0.1,5.7,0.3,8.6,0.4l11.5,0.6l2.8,0.1l1.7,0.1c1.7,0.1,3.4,0.2,5.1,0.3l5.1,0.3l2.3,0.1l2.3,0.1h0.8h0.1l13.3,0.7l5,0.3
		l8.2,0.4l1.4,0.1h0.3l2.9,0.2c1,0.1,1.9,0.1,2.9,0.2l2.8,0.2l2.8,0.2l2.9,0.2l2.9,0.2l4.1,0.2l1.6,0.1l1.6,0.1l3.5,0.2l4.5,0.3
		l4.5,0.3l9.2,0.6l9.1,0.6h0.2h0.2h0.4h0.5l3.7,0.2l4.2,0.3c0.4,0,0.8,0.1,1.3,0.1l9,0.6l9.3,0.6c2,0.1,4,0.3,6,0.4l1.7,0.1l1.5,0.1
		l6.6,0.5l5.1,0.4l3.6,0.2l2.9,0.2h0.2l1.4,0.1c0.2,0,0.5,0,0.7,0l2,0.1l3,0.2l2,0.1l0,0l3.9,0.3l0,0c1.2,0.1,2.4,0.2,3.7,0.3h0.4
		l0.7,0.1l3.6,0.3l2.9,0.2l0,0c1,0.1,1.9,0.1,2.9,0.2l0.7,0.1h0.3l1.7,0.1c0.6,0,1.1,0.1,1.7,0.1c6.4,0.5,12.8,1,19.1,1.5
		c0.7,0,1.4,0.1,2,0.1c0.4,0,0.8,0.1,1.2,0.1h0.2l3.6,0.3l7.3,0.6l6.9,0.6l8.8,0.7l8.8,0.7c5.6,0.5,11.2,1,16.7,1.4l11.4,1l11.3,1
		l11.2,1l9.5,0.9c5.6,0.5,11.2,1.1,16.8,1.6l7,0.7c7.3,0.7,14.6,1.4,21.8,2.2c2.7,0.3,5.4,0.6,8.1,0.8l8.1,0.8
		c1.2,0.1,2.5,0.3,3.7,0.4l1.1,0.1l11.2,1.2l3.6,0.4c4.1,0.4,8.2,0.9,12.2,1.3c2.6,0.3,5.2,0.6,7.9,0.9l7.8,0.9l4.6,0.5l4.6,0.5
		l9,1.1c11.9,1.4,23.7,2.8,35.3,4.3c1.1,0.1,2.3,0.3,3.4,0.4l4,0.5l7.3,0.9l3.8,0.5l1.8,0.2c2.5,0.3,5.1,0.6,7.6,1l3.4,0.4l12.7,1.7
		c9.6,1.3,19.1,2.6,28.4,3.9l13.9,2l13.7,2c4.5,0.7,9,1.3,13.5,2c2,0.3,3.9,0.6,5.9,0.9l7.4,1.1l6.6,1l6.5,1l0.8,0.1
		c3.9,0.6,7.8,1.2,11.7,1.9l0.4,0.1l6.4,1c8.1,1.3,16.1,2.7,23.9,4l2.2,0.4l4.9,0.9l1.8,0.3l4.4,0.8c0.2,0,0.4,0.1,0.6,0.1l1.1,0.2
		l6.1,1.1l10.3,1.9l3.4,0.6c1.3,0.2,2.6,0.5,3.9,0.7c6,1.1,12,2.3,17.9,3.4l8.5,1.7l7.5,1.5c2.5,0.5,5,1,7.4,1.5l7.3,1.5l9.8,2.1
		l8,1.7l3.5,0.8c3.9,0.9,7.7,1.7,11.5,2.6L3544.6,2558.9z"/>
	<path class="st6" d="M3149.3,2549.4c0,69.7-595.8,126.2-1330.8,126.2c-241.2,0-467.4-6.1-662.5-16.7c-24.2-1.3-47.8-2.7-71-4.2
		c-7.5-0.4-14.6-3.5-20-8.7c-0.4-0.4-0.7-0.7-1-1.1s-0.8-0.9-1.2-1.4c-0.2-0.2-0.4-0.4-0.5-0.7l0,0c-0.2-0.3-0.4-0.6-0.6-0.9
		c-0.3-0.4-0.6-0.8-0.8-1.3c-0.2-0.4-0.5-0.9-0.7-1.3l-0.3-0.7c-0.1-0.2-0.2-0.4-0.2-0.6c0,0,0-0.1,0-0.1c-0.1-0.2-0.1-0.4-0.2-0.6
		c-0.1-0.3-0.2-0.6-0.2-0.9c0-0.1-0.1-0.3-0.1-0.4c0,0,0,0,0-0.1c0-0.1,0-0.2-0.1-0.3c-0.1-0.6-0.2-1.3-0.2-1.9c0-0.3,0-0.5,0-0.8
		c0-0.2,0-0.4,0-0.7l0,0c0-0.1,0-0.3,0.1-0.4c0-0.1,0-0.1,0-0.2c0-0.1,0-0.2,0.1-0.4c0-0.2,0.1-0.4,0.1-0.7s0.1-0.3,0.1-0.5
		s0.1-0.2,0.1-0.3s0.1-0.4,0.2-0.6l0,0c0.1-0.2,0.2-0.4,0.3-0.7c0.2-0.5,0.4-0.9,0.7-1.4c0.1-0.3,0.3-0.6,0.5-0.8l0.5-0.9
		c0.6-0.9,1.2-1.7,1.8-2.6l0.7-0.9l0.8-0.9l0,0l0.7-0.7l0.9-0.9c0.7-0.6,1.3-1.3,2.1-1.9s1.3-1.1,1.9-1.6l0.9-0.7
		c0.6-0.4,1.2-0.9,1.8-1.3c1.6-1.1,3.2-2.2,5-3.4l1.4-0.9l1.5-0.9c0.5-0.3,1-0.6,1.6-0.9l0.8-0.4c0.3-0.1,0.5-0.3,0.8-0.4
		c1.1-0.6,2.2-1.2,3.3-1.8c0.6-0.3,1.1-0.6,1.7-0.9l2.7-1.4c0.9-0.4,1.9-0.9,2.9-1.4l1.4-0.7l3-1.4c0.5-0.2,1-0.5,1.5-0.7
		c1.3-0.6,2.5-1.1,3.8-1.6c0.5-0.2,1-0.4,1.5-0.6c0.8-0.3,1.6-0.7,2.5-1l2-0.8l1.9-0.7c0.3-0.1,0.5-0.2,0.7-0.3l0.8-0.3l2-0.8l5-1.9
		c1.7-0.6,3.5-1.3,5.3-1.9c0.9-0.3,1.7-0.6,2.6-0.9l1.9-0.7c0.8-0.3,1.6-0.6,2.4-0.8c1.6-0.6,3.3-1.1,5-1.7c0.8-0.3,1.7-0.6,2.6-0.8
		l2.9-0.9l0,0c2-0.6,3.9-1.3,6-1.9s4-1.3,6.1-1.9l6.3-1.9l0,0l3.2-0.9c0.9-0.3,1.9-0.6,2.9-0.8l3.2-0.9l2.7-0.8
		c1.2-0.3,2.3-0.6,3.5-1c0.9-0.3,1.7-0.5,2.6-0.7c1.2-0.4,2.5-0.7,3.7-1l5-1.3l10.3-2.7l3.3-0.8c4.6-1.1,9.3-2.3,14-3.4
		c3.7-0.9,7.5-1.8,11.3-2.7c4.4-1,8.9-2,13.4-3.1c0.6-0.1,1.2-0.3,1.8-0.4l1.8-0.4l2.3-0.5l2.3-0.5c3.3-0.7,6.6-1.5,9.9-2.1l0.6-0.1
		l7.4-1.6l4.4-0.9c6.6-1.3,13.3-2.7,20.2-4.1l2.1-0.4c0.7-0.1,1.4-0.3,2.1-0.4l12.6-2.4l4.3-0.8l4.3-0.8c1.4-0.3,2.9-0.5,4.3-0.8
		c9.1-1.7,18.5-3.4,28-5c3.2-0.6,6.4-1.1,9.6-1.6l7.4-1.3l4.7-0.8l4.7-0.8l4.7-0.8l8-1.3l5.3-0.9l5.4-0.9l5.4-0.8l4.9-0.8l4.9-0.8
		l9.9-1.5c3.3-0.5,6.7-1,10.1-1.5l7.6-1.1l7.7-1.1c4-0.6,7.9-1.1,12-1.7l8.2-1.2l9.9-1.4c4.1-0.6,8.2-1.1,12.3-1.7l6.2-0.8
		c4.2-0.6,8.3-1.1,12.5-1.6l6.3-0.8c6.3-0.8,12.7-1.6,19.2-2.4c4.3-0.5,8.6-1.1,12.9-1.6c2-0.3,4.1-0.5,6.2-0.8l6.2-0.8l6.3-0.7
		l6.3-0.8l3.2-0.4l3.2-0.4l8.7-1l8.8-1c14.2-1.6,28.6-3.2,43.2-4.7l9-0.9l4.3-0.4c1.4-0.1,2.8-0.3,4.3-0.4l3.3-0.3l3.3-0.4l13.5-1.3
		l6.1-0.6h0.3h0.3c1.5-0.2,2.9-0.3,4.4-0.4l4.4-0.4c10.7-1,21.6-2,32.5-3l10.6-0.9c4.4-0.4,8.8-0.8,13.3-1.2
		c4.4-0.4,8.9-0.8,13.4-1.1l12.2-1l21.6-1.8l7.2-0.6l7.3-0.6c5.8-0.5,11.6-0.9,17.4-1.3l6.7-0.5c1.1-0.1,2.2-0.2,3.3-0.3
		s2.2-0.2,3.3-0.2c9.3-0.7,18.7-1.3,28.2-2c3.6-0.2,7.2-0.5,10.8-0.7l4.3-0.3c1.4-0.1,2.8-0.2,4.2-0.3l6.8-0.4l6.9-0.4l13.7-0.9l0,0
		c4.6-0.3,9.2-0.6,13.8-0.8c7-0.4,14-0.8,21.1-1.2c4.7-0.3,9.3-0.5,14-0.8l3.7-0.2l11.1-0.6l19.7-1h0.9c9.5-0.5,19.1-1,28.6-1.4
		c7.2-0.3,14.4-0.7,21.6-1c7.2-0.3,14.5-0.6,21.8-0.9l12.7-0.5c5.5-0.2,11-0.4,16.6-0.6l3.7-0.1l3.7-0.1l2-0.1
		c4.3-0.2,8.5-0.3,12.8-0.4l22.2-0.7l7.4-0.2l18.9-0.6l13.7-0.4l4.7-0.1h0.1c0.7,0,1.3-0.1,2-0.1l10-0.2c4.3-0.1,8.7-0.2,13.1-0.3
		c7.7-0.2,15.5-0.3,23.2-0.5l0,0c10.1-0.2,20.2-0.4,30.4-0.5l15.4-0.2c5.1-0.1,10.2-0.1,15.4-0.2c3.3,0,6.6-0.1,9.9-0.1h2.4
		c4.1,0,8.2-0.1,12.4-0.1l12.4-0.1c8-0.1,16-0.1,24.1-0.1c8.6,0,17.2,0,25.8,0c49.6,0,98.5,0.5,146.8,1.4
		c10.3,0.2,20.6,0.4,30.9,0.6l10.3,0.2l10.2,0.3l10.2,0.3c6.8,0.2,13.5,0.4,20.3,0.6l4.4,0.1c1.6,0.1,3.2,0.1,4.8,0.1h1.6l8.1,0.3
		c0.4,0,0.9,0,1.3,0.1l20.1,0.7l4.6,0.2l5.4,0.2c3.3,0.1,6.7,0.2,10,0.4l5.4,0.2h0.4c1.9,0.1,3.7,0.1,5.6,0.2l8.5,0.3l4.8,0.2
		l5.1,0.2l4.4,0.2l5.4,0.2c3.8,0.2,7.6,0.3,11.4,0.5c2.7,0.1,5.5,0.2,8.2,0.4l4.9,0.2l4.3,0.2l8.6,0.4l11.5,0.6l9.7,0.5l5.1,0.3
		l4.6,0.2h0.9l13.3,0.7l5,0.3l8.2,0.4l1.3,0.1h0.3l5.8,0.3l5.7,0.3l5.9,0.3l4.1,0.3c1.1,0.1,2.1,0.1,3.1,0.2l3.5,0.2l9,0.5l18.3,1.1
		l0.8,0.1c2.8,0.2,5.6,0.4,8.4,0.5l1.3,0.1l9,0.6l9.3,0.6l6,0.4l1.7,0.1l1.5,0.1l9.2,0.6l6.1,0.4l3.1,0.2c3.1,0.2,6.1,0.4,9.1,0.7
		l3.9,0.3l2.5,0.2l2.3,0.2c3.1,0.2,6.3,0.5,9.4,0.7l0.7,0.1l1.9,0.1l6.3,0.5l7.2,0.6c2.4,0.2,4.9,0.4,7.3,0.6l2,0.2
		c0.4,0,0.8,0.1,1.2,0.1c0.1,0,0.1,0,0.2,0c3.6,0.3,7.2,0.6,10.8,0.9c2.3,0.2,4.6,0.4,6.9,0.6l8.8,0.7l8.8,0.7
		C3101.7,2507.2,3149.3,2529.7,3149.3,2549.4z"/>
	<path class="st0" d="M2005.2,2507.2c0,36.2-77.8,68.8-202.4,91.8c-115.5,21.3-271.4,34.4-442.8,34.4c-38.9,0-76.9-0.7-113.9-2
		c-63.6-2.2-124-6.3-179.6-11.8c0.7-0.6,1.3-1.3,2.1-1.9s1.3-1.1,1.9-1.6l0.8-0.7c0.6-0.4,1.2-0.9,1.8-1.3c1.5-1.1,3.2-2.2,5-3.4
		l1.4-0.9c0.5-0.3,1-0.6,1.5-0.9s1-0.6,1.5-0.9l0.8-0.4c0.3-0.1,0.5-0.3,0.8-0.4c1.1-0.6,2.2-1.2,3.3-1.8l1.7-0.9
		c0.9-0.4,1.8-0.9,2.7-1.4l2.9-1.4l1.4-0.7c1-0.4,2-0.9,3-1.4c0.5-0.2,1-0.4,1.5-0.7c1.2-0.6,2.5-1.1,3.8-1.6c0.5-0.2,1-0.4,1.5-0.6
		l2.5-1l2-0.8l1.9-0.7l0.7-0.3l0.8-0.3l2-0.8l5-1.9c1.7-0.6,3.5-1.3,5.3-1.9c0.9-0.3,1.7-0.6,2.6-0.9c0.6-0.2,1.3-0.4,1.9-0.7
		c0.8-0.3,1.6-0.6,2.4-0.8c1.6-0.6,3.3-1.1,5-1.7c0.8-0.3,1.7-0.6,2.5-0.8l2.9-0.9l0,0c2-0.6,3.9-1.3,6-1.9l6.1-1.9
		c2.1-0.6,4.2-1.3,6.3-1.9l0,0l3.2-0.9c0.9-0.3,1.9-0.6,2.9-0.8l3.2-0.9c0.9-0.3,1.8-0.5,2.7-0.8c1.2-0.3,2.3-0.6,3.5-1
		c0.9-0.3,1.7-0.5,2.6-0.7l3.8-1l5-1.3c3.4-0.9,6.8-1.8,10.3-2.7c1.1-0.3,2.2-0.6,3.3-0.8c4.6-1.1,9.2-2.3,14-3.4
		c3.7-0.9,7.5-1.8,11.3-2.7c4.4-1,8.9-2,13.4-3.1l1.8-0.4c0.6-0.1,1.2-0.3,1.8-0.4l2.3-0.5l2.3-0.5l9.9-2.1l0.6-0.1l7.4-1.6l4.4-0.9
		c6.6-1.4,13.3-2.7,20.2-4.1c0.7-0.1,1.4-0.3,2.1-0.4l2.1-0.4l12.6-2.4l4.3-0.8l4.3-0.8c1.4-0.3,2.9-0.5,4.3-0.8
		c9.1-1.7,18.5-3.4,28-5c3.2-0.6,6.4-1.1,9.6-1.6l7.4-1.3l4.7-0.8c1.6-0.3,3.1-0.5,4.7-0.8s3.1-0.5,4.7-0.8l8-1.3l5.3-0.9l5.4-0.9
		l5.4-0.8l4.9-0.8l4.9-0.8l9.9-1.5c3.3-0.5,6.7-1,10.1-1.5l7.6-1.1c2.6-0.4,5.1-0.8,7.7-1.1l12-1.7l8.2-1.1c3.3-0.5,6.6-0.9,10-1.4
		c4.1-0.6,8.2-1.1,12.3-1.7l6.2-0.8l12.5-1.6l6.3-0.8c6.3-0.8,12.7-1.6,19.2-2.4l12.9-1.6c2-0.3,4.1-0.5,6.2-0.8l6.2-0.8
		c2.1-0.2,4.2-0.5,6.3-0.7s4.2-0.5,6.3-0.8l3.2-0.4l3.2-0.4l8.7-1l8.8-1c14.2-1.6,28.6-3.2,43.2-4.7l9-0.9c1.4-0.1,2.8-0.3,4.3-0.4
		l4.3-0.4l3.3-0.3l3.3-0.3c4.5-0.5,9-0.9,13.5-1.3l6.1-0.6h0.3h0.3l4.4-0.4l4.4-0.4c10.7-1,21.6-2,32.5-3c3.5-0.3,7-0.6,10.6-1
		c4.4-0.4,8.8-0.8,13.3-1.2l13.4-1.1l12.2-1l21.6-1.7l7.2-0.6l7.3-0.6c5.8-0.5,11.6-0.9,17.4-1.3l6.7-0.5c1.1-0.1,2.2-0.2,3.3-0.3
		l3.3-0.3c9.3-0.7,18.7-1.3,28.2-2l10.8-0.7c1.4-0.1,2.8-0.2,4.3-0.3s2.8-0.2,4.2-0.3l6.8-0.4l6.9-0.4l13.7-0.9l0,0
		c4.6-0.3,9.2-0.6,13.8-0.8c7-0.4,14-0.8,21.1-1.2l14-0.8l3.7-0.2c3.7-0.2,7.4-0.4,11.1-0.6l0,0c5.5,4.6,10.4,9.7,14.7,15.4l0,0
		c2,2.7,3.8,5.6,5.2,8.7C2004,2498.1,2005.1,2502.6,2005.2,2507.2z"/>
	<path class="st9" d="M2490.1,2564c-136,0-266.1,1.5-385.7,4.1l0,0c-399.1,8.9-682.1,31.2-682.1,57.3c0,20.9,182.2,39.4,460.5,50.5
		c138.7-23.6,225.2-57.1,225.2-94.3c0-2-0.3-4.1-0.8-6.1c0.5,2,0.7,4,0.8,6.1c0,37.2-86.5,70.7-225.2,94.3
		c172.4,6.9,381.7,10.9,607.4,10.9c589.7,0,1067.8-27.5,1067.8-61.4S3079.9,2564,2490.1,2564z"/>
	<path class="st10" d="M1578.7,667.6l55.5-23.1c26.7-11.1,57.3,1.5,68.4,28.1l6.5,15.7c11.1,26.7-1.5,57.3-28.1,68.4l-55.5,23.1
		c-26.7,11.1-57.3-1.5-68.4-28.1l-6.5-15.7C1539.4,709.3,1552,678.7,1578.7,667.6z"/>
	<path class="st11" d="M1684.5,1999.1l52.5,549.8l189.8-25.5l-22.5-17.9c-46.5-37-72.6-94-70.1-153.4l18.6-436L1684.5,1999.1z"/>
	<path d="M1733.9,2586.3l63.6-0.3c2.4,0,4.3-3.3,4.2-7.3l-0.1-23.1c0-2-0.9-3.6-2.1-3.7c-26.1-2.1-51.1-5.9-67.1-17.6
		c-1.4-1.1-3.1,0.7-3,3.4l0.2,41.3C1729.6,2583,1731.5,2586.3,1733.9,2586.3z"/>
	<path class="st12" d="M1728.6,2548.8c15.2,9,45.7,11.2,72.2,12.3l5.9,0.2c38,1.4,55.2,27,104.3,26.8s109.4-32,109.4-32
		c-0.1-11.9-11.2-20.3-32.8-20.2c-0.7,0-1.3,0-2,0c-2.8,0.1-5.5,0.1-8.1,0.1c-18.7,0.1-32.9-2-50.8-12.7
		c-18.3-11-31.1-36.3-40.1-36.3c-1,0-2,0.4-2.8,1c-7.6,5.7-10.3,19.8-10.9,24.1h0.2l1.4,14.3l-3.2-0.5c-4.9-0.8-104.3-17.8-142-46.3
		c-1-0.7-2.3-0.5-3,0.4c-0.1,0.1-0.1,0.2-0.2,0.3c-6.5,12.8-7.2,35-7.1,54.3C1719,2540.6,1722.6,2545.3,1728.6,2548.8z"/>
	<path class="st13" d="M1571.6,1999.1l9.9,104.1l42.5,445.6l189.9-25.5l-22.5-17.9c-46.5-37-72.6-94-70-153.5l8.4-196.8l7.7-179.6
		l2.5-59.5l-86.8,42.8L1571.6,1999.1z"/>
	<path class="st14" d="M1571.6,1999.1l9.9,104.1c24.7,14.7,51.1,26.4,78.5,35.1c22.8,7.2,46.1,12.9,69.7,16.9l7.7-179.6
		c-12.2-5-24.8-8.9-37.8-11.6c-15.3-3.1-30.9-4.8-46.5-5.1L1571.6,1999.1z"/>
	<path d="M1621,2586.3l63.6-0.3c2.4,0,4.3-3.3,4.2-7.3l-0.1-23.1c0-2-0.9-3.6-2.1-3.7c-26.1-2.1-51.1-5.9-67.1-17.6
		c-1.5-1.1-3,0.7-3,3.4l0.2,41.3C1616.7,2583,1618.6,2586.3,1621,2586.3z"/>
	<path class="st12" d="M1615.7,2548.8c15.2,9,45.7,11.2,72.2,12.3l5.9,0.2c38,1.4,55.2,27,104.3,26.8s109.4-32,109.4-32
		c0-11.9-11.2-20.3-32.8-20.2c-0.7,0-1.3,0-2,0c-2.8,0.1-5.5,0.1-8.1,0.1c-18.7,0.1-32.9-2-50.8-12.7c-18.4-11-31.1-36.3-40.1-36.3
		c-1,0-2,0.4-2.8,1c-7.6,5.7-10.3,19.8-10.9,24.1h0.2l1.5,14.3l-3.3-0.5c-4.9-0.8-104.3-17.8-142-46.3c-1-0.7-2.3-0.5-3,0.4
		c-0.1,0.1-0.1,0.2-0.2,0.3c-6.5,12.8-7.2,35-7.1,54.3C1606.1,2540.6,1609.7,2545.3,1615.7,2548.8z"/>
	<path class="st7" d="M2170.7,1409.5c0.2,2,0.3,4,0.5,5.9c1.9,21,4.3,35.5,14.5,53.3c1.3,2.2,2.7,4.5,4.2,6.9
		c23.2,35.2,62.8,46.7,95.1,70.1l2.3,1.7c25.1,18.8,73.3,25.8,96.8,0.2c9.4-10.3,12.6-25.4,10.2-39.2
		c-8.1-46.9-61.9-80.7-106.6-91.2c-3.2-0.8-6.4-1.4-9.4-1.9c-26-4.3-51.8-3.1-77-8.6c-7-1.5-13.8-3.6-20.4-6.2
		c-0.5-0.2-1-0.4-1.5-0.6c-1.6-0.7-3.4-0.8-5.1-0.3C2170.7,1401,2170.4,1405.8,2170.7,1409.5z"/>
	<path class="st15" d="M2179.3,1399.9c-3.5,4.7-6.2,10-8.1,15.6c-6,18.6,1.1,36.6,14.5,53.3c1.6,2,3.4,4,5.1,6
		c26.9,29.8,71.9,54.9,94.2,70.9c0.8,0.6,1.5,1.1,2.3,1.7c25.1,18.8,73.3,25.8,96.8,0.2c9.4-10.3,12.6-25.4,10.2-39.2
		c-8.1-46.9-61.9-80.7-106.6-91.2c-13.4,9.3-23.1,23.9-25.8,40c-0.8,4.7-1.1,9.6-3.5,13.8c-7.5,12.8-39.7-35.5-57.1-64.3
		c-7-1.5-13.8-3.6-20.4-6.2C2180.3,1400.3,2179.8,1400.1,2179.3,1399.9z"/>
	<path class="st5" d="M2204.8,1441.8c0,30.7-25,55.6-55.7,55.6c-6.4,0-12.8-1.1-18.9-3.3c-54.2-19.6-136.9-49.4-191.4-68.7
		c-28.8-10.2-49.8-17.4-54.6-18.6c-7.9-2-35.6-49.3-65.3-106.4c-24.5-47.3-50.2-101.4-67-142.2c-13-31.6-20.5-55.3-18-61.8
		c5.3-13.8,35.3-30.5,61.3-42.8c21.4-10.1,40.2-17.2,40.2-17.2l44.6,97.5l0.2,0.5l62.2,136c8.9,19.5,24.9,35,44.7,43.3l183.4,76.8
		C2191.3,1399.1,2204.8,1419.4,2204.8,1441.8z"/>
	<path class="st16" d="M1618.3,961.4c18.4,21.9,44,40.6,71,45.9c49.8,9.7,27-25.5,47.9-55.6c6.3-9,14.9-18.2,21.6-24.6
		c15.1-14.6,34-26.5,51-39c3.7-2.7,7.5-5.5,11.2-8.2c14.4-10.4,28.8-20.6,43.5-30.5c41.8-28.1,29.4-90.5,3.2-125.3
		c-3.7-4.9-7.8-9.4-12.2-13.7c-34.4-33.1-85.6-46.2-132.3-42.6c-65.8,5-125.5,60.1-138.9,123.9c-10.6,50.7-6.6,106,20.1,150.3
		C1608.6,948.9,1613.2,955.3,1618.3,961.4z"/>
	<path class="st17" d="M1665,1029.2c35.1,45.7,100.6,54.2,146.2,19.1c5.9-4.5,11.3-9.7,16.1-15.3c-14.8-14.5-35-22-55.6-20.7
		l-36.4,2.3C1711.2,1016.1,1687.6,1021,1665,1029.2z"/>
	<rect x="1690.6" y="1009.7" class="st15" width="115.8" height="115.8"/>
	<g class="st18">
		<path class="st19" d="M1938.8,1425.4c-28.8-10.2-49.8-17.4-54.6-18.6c-7.9-2-35.6-49.3-65.3-106.4c-24.5-47.3-50.2-101.4-67-142.2
			c7.6-33.8,20.4-66.2,37.9-96c1.7-2.9,3.5-5.7,5.3-8.6c21.4-10.1,40.2-17.2,40.2-17.2l44.6,97.5
			C1888.3,1232.9,1908,1330.8,1938.8,1425.4z"/>
	</g>
	<path class="st5" d="M1899.7,2058.7h-275.8c-73.6,0-133.3-59.7-133.3-133.3c0-0.6,0-1.3,0-1.9l1.6-109.6l0.3-21.9l1.7-117.9
		l2.3-156.5l0.2-16.3l3.5-240.1c0.5-36.5,9-72.4,24.8-105.3l0,0c6.9-14.2,15.1-27.8,24.5-40.4v-0.1c2.8-3.8,5.7-7.4,8.7-11l2.3-2.7
		c19.5-22.7,42.9-41.8,69.1-56.3c1.5-0.8,2.9-1.6,4.4-2.4c6.6-3.5,13.4-6.7,20.3-9.6c1.5-0.6,2.9-1.2,4.4-1.8c2-0.8,4.1-1.6,6.2-2.3
		c32.7,42.6,92.5,53.3,138,24.8c0.1-0.1,0.3-0.2,0.5-0.3c2.1-1.3,4.1-2.7,6.1-4.2s4.1-3.2,6.1-4.9c4.2-3.6,8-7.5,11.6-11.7
		c2.4,2.3,4.7,4.9,6.7,7.5c9.2,11.8,14.5,26.1,15.2,41l1.2,22.9l0.7,12.3l1.8,34l0.4,7.8l4.9,94.9l8.8,169.8l5.3,103.7l3.5,67.8
		l2.2,42.1l2.8,53.3l0.7,14.1L1899.7,2058.7z"/>
	<path class="st7" d="M1866.9,804l-13,147.8c-4.7,53.1-51.5,92.3-104.6,87.6c-50.2-4.4-88.5-46.7-88-97.1
		c-12.4,3.7-25.4-3.3-29.1-15.6c-3.7-12.4,3.3-25.4,15.6-29.1c2.8-0.9,5.8-1.2,8.8-0.9c2.9,0.2,5.6,1,8.2,2.3l9.8-111.8L1866.9,804z
		"/>
	<path class="st20" d="M1813.2,799.2l-12.9,147.8c-3.7,42.8-35.3,77.9-77.3,86.3c-37.5-14.6-62-50.8-61.5-91
		c-12.4,3.7-25.4-3.3-29.1-15.6c-3.7-12.4,3.3-25.4,15.6-29.1c2.8-0.9,5.8-1.2,8.8-0.9c2.9,0.2,5.6,1,8.2,2.3l9.8-111.8
		L1813.2,799.2z"/>
	<polygon class="st21" points="1892.4,1892.6 1891.2,1892.6 1892.4,1916 	"/>
	<polygon class="st21" points="1891.2,1892.6 1881.4,1704.3 1891.1,1892.6 	"/>
	<path class="st16" d="M1597.7,778.9l66.5,119.6c0,0,94.5,3.5,132.1-90.8l0.1,0.5c1.4,4.9,14.5,44.9,66.1,43.4l22.6-47.2l-39.4-53.2
		l-96-53.6L1597.7,778.9z"/>
	<path class="st22" d="M1664.8,898.9c0,0,94.5,2.9,131.5-91.7l-17.3-29.9C1779,777.4,1771.8,865.9,1664.8,898.9z"/>
	<circle class="st16" cx="1826.9" cy="909.3" r="9.4"/>
	<circle class="st16" cx="1743.3" cy="909.3" r="9.4"/>
	<path class="st16" d="M1716.5,888.6h0.3l48.3-1c2.1,0.1,3.9-1.6,3.9-3.7c0.1-2.1-1.6-3.9-3.7-3.9c-0.1,0-0.2,0-0.4,0l-48.3,1
		c-2.1,0-3.8,1.8-3.7,3.9C1713,886.9,1714.5,888.5,1716.5,888.6L1716.5,888.6z"/>
	<path class="st16" d="M1850.2,889.3c2.1-0.5,3.3-2.5,2.9-4.6c-0.4-1.8-2-3-3.9-3l-36.3,1.1c-2.1,0-3.8,1.7-3.9,3.8
		c0,2.1,1.7,3.8,3.8,3.9c0.1,0,0.2,0,0.3,0l36.3-1.1C1849.7,889.4,1850,889.3,1850.2,889.3z"/>
	<path class="st16" d="M1834.2,913.6c0.5,0,0.9-0.3,1.2-0.7c2.3-4.6,2.3-10,0-14.5c-0.3-0.6-1.1-0.9-1.7-0.5
		c-0.6,0.3-0.9,1.1-0.5,1.7c0,0,0,0,0,0.1c1.9,3.9,1.9,8.3,0,12.2c-0.3,0.6,0,1.4,0.6,1.7c0,0,0,0,0,0
		C1833.9,913.6,1834,913.6,1834.2,913.6z"/>
	<path class="st16" d="M1750.8,912.1c0.6,0,1.2-0.4,1.3-1.1c0.9-5.1-0.6-10.2-4.1-14c-0.5-0.5-1.3-0.5-1.8,0s-0.5,1.3,0,1.8
		c0,0,0,0,0.1,0.1c2.9,3.2,4.1,7.5,3.4,11.7c-0.1,0.7,0.4,1.3,1.1,1.5L1750.8,912.1z"/>
	<path class="st16" d="M1755.6,1008.4L1755.6,1008.4c-13.1,0-23.8-10.6-23.8-23.7c0,0,0,0,0,0v-14.5h47.5v14.5
		C1779.4,997.7,1768.7,1008.4,1755.6,1008.4C1755.6,1008.4,1755.6,1008.4,1755.6,1008.4z"/>
	<path class="st5" d="M1733.1,970.2h40.7l0,0v2.5c0,5.4-4.4,9.8-9.8,9.8h-21c-5.4,0-9.8-4.4-9.8-9.8L1733.1,970.2L1733.1,970.2z"/>
	<path class="st23" d="M1877.9,1636.9c-38.3,17.8-80.1,27-122.3,24.2l-49,15c-12.7-18.6-25.2-37.5-37.1-56.7
		c21.3,4.6,43.6-2.3,58.5-18.3l1-1.1c22.7-24.1,21.5-62.1-2.6-84.8c-1.5-1.4-3-2.7-4.7-4l-54.4-41.7l-88.2-67.5c-0.5-3-1-6-1.5-9.1
		c-3.5-23-5.1-46.3-4.7-69.7l37.1-60.1c5.5-8.8,14-16.9,17.3-26.4c4.8-13.8,4.9-31.6,5.8-46.1c1.3-23.3,0.4-47.3-5-70.1
		c6.1-10.8,12.7-21.2,19.8-31.4c10.4-15,21.8-29.2,34.1-42.6c34.6,28.1,83.2,31.1,121,7.4c0.1-0.1,0.3-0.2,0.5-0.3
		c2.1-1.3,4.1-2.7,6.1-4.2s4.1-3.2,6.1-4.9c4.2-3.6,8-7.5,11.6-11.7c2.4,2.3,4.7,4.9,6.7,7.5c9.2,11.8,14.5,26.1,15.2,41l1.2,22.9
		l0.7,12.3l1.8,34l0.4,7.8l4.9,94.9l8.8,169.8l5.3,103.7l3.5,67.8L1877.9,1636.9z"/>
	<path class="st24" d="M1858.1,1253.4l-4.9-0.5v-94.4l-0.4-7.8l-1.8-34l-0.6-12.3l-1.2-22.9c-0.7-14.9-6-29.2-15.2-41V1162
		c0,44.5-36.1,80.5-80.5,80.5c-2.7,0-5.4-0.1-8.1-0.4l-18.5-1.9c-41.1-4.1-72.5-38.8-72.5-80.1v-126.8c-7,2.9-13.7,6.1-20.3,9.6
		c-1.5,0.8-3,1.6-4.4,2.4v185.2l-72.4-7.3V1916h320.4L1858.1,1253.4z"/>
	<path class="st7" d="M1705.2,1617.7c29.4,39.3,86.6,74.7,127.5,67.2c3.9-0.7,7.7-1.9,11.4-3.4c74.3-32.3-19.8-131.4-92.2-147.7
		c-15.3-3.4-29.7-3.2-41.2,2.2C1675.8,1552.2,1681.5,1586.1,1705.2,1617.7z"/>
	<path class="st15" d="M1705.2,1617.7c29.4,39.3,86.6,74.7,127.5,67.2c-9.3-32.7-28.4-67.9-39.4-90.8
		c-11.6-24.1-25.8-41.7-41.4-60.3c-15.3-3.4-29.7-3.2-41.2,2.2C1675.8,1552.2,1681.5,1586.1,1705.2,1617.7z"/>
	<g class="st18">
		<path class="st24" d="M1780,1504.7c-31.6-24-63.3-48.2-90.4-77.2s-49.5-63.3-59.1-101.8c-9-36.2-6.2-74.3-0.7-111.1
			c-26.2,33.8-62.3,70.3-80.7,108.9c-11.2,23.5-21,48.6-20.5,74.7c1,55.4,49.9,101.1,103.6,114.7S1727.1,1521.1,1780,1504.7z"/>
	</g>
	<path class="st5" d="M1728.9,1600l-1,1.1c-21.2,22.8-56,26.2-81.3,8.1l-65.7-47.3c-55.1-39.7-110.4-79.5-110.4-79.5
		c-55.9-40.3-71.9-116.5-36.9-175.8l116-191.6c14-23.1,59.6-49.6,72.8-13.1c2.2,6.1,4.1,12.4,5.5,18.7c5.4,22.9,6.3,46.8,5,70.1
		c-0.8,14.5-1,32.3-5.8,46.1c-3.3,9.5-11.9,17.5-17.3,26.4l-37,60.1c-5.9,9.5-11.7,19-17.6,28.4c-7.5,12.5-4.5,28.7,7.1,37.5
		l16.7,12.8l88.2,67.5l54.4,41.7c26.3,20.1,31.3,57.8,11.2,84.1C1731.7,1597,1730.4,1598.5,1728.9,1600L1728.9,1600z"/>
	<path class="st23" d="M1610.1,1263.3l-37.1,60.1c1.2-71.1,20.2-140.8,55.2-202.7c5.4,22.9,6.3,46.8,5,70.1
		c-0.8,14.5-1,32.3-5.8,46.1C1624.1,1246.4,1615.5,1254.4,1610.1,1263.3z"/>
	<path class="st23" d="M1728.9,1600l-1,1.1c-14.9,16-37.1,22.9-58.5,18.3c-41.8-67.6-76.6-139.7-90.3-217.3l88.2,67.5l54.4,41.7
		c26.3,20.1,31.3,57.8,11.2,84.1C1731.7,1597,1730.4,1598.5,1728.9,1600L1728.9,1600z"/>
	<path class="st19" d="M1581,1561.9l65.6,47.3c25.3,18.2,60.1,14.7,81.3-8.1l1-1.1c11.9-12.6,17.7-29.8,16-47.1
		c-7.1,5.2-15.5,8.8-23.9,11.6C1675.9,1580.1,1625.7,1578.4,1581,1561.9z"/>
	<path class="st24" d="M1679.4,1174.1h47.3c4.8,0,8.7,3.9,8.7,8.7v2.3c0,4.8-3.9,8.7-8.7,8.7h-47.3c-4.8,0-8.7-3.9-8.7-8.7v-2.3
		C1670.7,1178,1674.6,1174.1,1679.4,1174.1z"/>
	<path class="st25" d="M2784.1,1763.6v730.1c0,36.5-29.5,66-66,66c0,0,0,0-0.1,0H1538.1c-36.5,0-66-29.5-66-66v-730.1H2784.1z"/>
	<path class="st26" d="M1523.7,2559.7h1208.8c15.2,0,27.5,12.3,27.5,27.5v19.6c0,15.2-12.3,27.5-27.5,27.5H1523.7
		c-15.2,0-27.5-12.3-27.5-27.5v-19.6C1496.2,2572,1508.5,2559.7,1523.7,2559.7z"/>
	<rect x="1437.3" y="1710.6" class="st27" width="1381.5" height="24.1"/>
	<path class="st28" d="M2857.7,1722.7c0.1,10.7-4,21.1-11.3,28.9c-7.1,7.6-17,12-27.4,12H1437.2c-21.4,0-38.7-18.3-38.7-40.9
		c-0.1-10.7,4-21.1,11.3-28.9c7.1-7.6,17-12,27.4-12H2819C2840.4,1681.8,2857.7,1700.1,2857.7,1722.7z"/>
	<rect x="1472.1" y="1763.6" class="st26" width="1312" height="28.4"/>
	<path class="st26" d="M2629.5,2565.1L2629.5,2565.1c3,0,5.4-2.5,5.4-5.5c-2.1-211.6-6.2-761.8-0.8-793.2c1.5-2.4,0.9-5.5-1.4-7.2
		c-1.7-1.3-3.9-1.5-5.8-0.5c-3.3,1.7-3.6,4.9-4.2,14.1c-0.4,5.9-0.7,14.7-0.9,25.9c-0.5,20.9-0.8,51.5-1,90.8
		c-0.3,66.2-0.2,158.3,0.4,273.6c1,196.3,2.9,394.7,2.9,396.6C2624.1,2562.7,2626.5,2565.1,2629.5,2565.1z"/>
	<path class="st26" d="M1630.2,2565.1L1630.2,2565.1c3,0,5.4-2.5,5.4-5.5c0,0,0,0,0,0c-2.1-211.6-6.2-761.8-0.8-793.2
		c1.5-2.4,0.9-5.5-1.4-7.2c-1.7-1.3-3.9-1.5-5.8-0.5c-3.3,1.7-3.6,4.9-4.2,14.1c-0.4,5.9-0.7,14.7-0.9,25.9
		c-0.5,20.9-0.8,51.5-1,90.8c-0.3,66.2-0.2,158.3,0.4,273.6c1,196.3,2.9,394.7,2.9,396.6C1624.7,2562.8,1627.2,2565.2,1630.2,2565.1
		z"/>
	<g class="st29">
		<polygon class="st30" points="2375.9,2634.3 2034.7,2634.3 2060.1,2559.7 2401.3,2559.7 		"/>
	</g>
	<g class="st29">
		<polygon class="st30" points="1890.3,2634.3 1717.8,2634.3 1743.2,2559.7 1915.6,2559.7 		"/>
	</g>
	<g class="st29">
		<polygon class="st30" points="2155.3,1763.6 2496.5,1763.6 2471.1,1681.8 2130,1681.8 		"/>
	</g>
	<g class="st29">
		<polygon class="st30" points="1831.6,1763.6 2004,1763.6 1978.7,1681.8 1806.2,1681.8 		"/>
	</g>
	<path class="st26" d="M1683.5,2513.3h-4.7c-9.6,0-17.4-7.8-17.4-17.4v-50c0-9.6,7.8-17.4,17.4-17.4h4.7c9.6,0,17.4,7.8,17.4,17.4
		v50C1700.9,2505.4,1693.1,2513.3,1683.5,2513.3z"/>
	<path class="st26" d="M1759,2513.3h-4.7c-9.6,0-17.4-7.8-17.4-17.4v-50c0-9.6,7.8-17.4,17.4-17.4h4.7c9.6,0,17.4,7.8,17.4,17.4v50
		C1776.5,2505.4,1768.7,2513.3,1759,2513.3z"/>
	<path class="st26" d="M1834.5,2513.3h-4.7c-9.6,0-17.4-7.8-17.4-17.4v-50c0-9.6,7.8-17.4,17.4-17.4h4.7c9.6,0,17.4,7.8,17.4,17.4
		v50C1852,2505.4,1844.2,2513.3,1834.5,2513.3z"/>
	<path class="st26" d="M1910.1,2513.3h-4.7c-9.6,0-17.4-7.8-17.4-17.4v-50c0-9.6,7.8-17.4,17.4-17.4h4.7c9.6,0,17.4,7.8,17.4,17.4
		v50C1927.5,2505.4,1919.7,2513.3,1910.1,2513.3z"/>
	<path class="st26" d="M1985.6,2513.3h-4.7c-9.6,0-17.4-7.8-17.4-17.4v-50c0-9.6,7.8-17.4,17.4-17.4h4.7c9.6,0,17.4,7.8,17.4,17.4
		v50C2003.1,2505.4,1995.2,2513.3,1985.6,2513.3z"/>
	<rect x="1691.1" y="1581.1" class="st6" width="557.2" height="99.5"/>
	<path class="st24" d="M1990.4,1563.7h-153.1c-4.2,0-7.6,3.4-7.6,7.6l0,0c0,4.2,3.4,7.6,7.6,7.6h153.1V1563.7z"/>
	<path class="st4" d="M1686.3,1216h443.2c1.1,0,1.9,0.9,1.9,1.9v283.4c0,1.1-0.9,1.9-1.9,1.9h-443.2c-1.1,0-1.9-0.9-1.9-1.9V1218
		C1684.4,1216.9,1685.2,1216,1686.3,1216z"/>
	<path class="st6" d="M2148.6,1226.5v266.4c0,5.8-4.7,10.4-10.4,10.4h-426.2c-5.7,0-10.4-4.7-10.4-10.4c0,0,0,0,0,0v-266.4
		c0-5.7,4.6-10.4,10.3-10.5c0,0,0,0,0.1,0h426.2C2143.9,1216,2148.6,1220.7,2148.6,1226.5z"/>
	<path class="st4" d="M2073.7,1468.6h-297.3c-2.2,0-4,1.8-4,4v31.2h305.4v-31.1c0-2.2-1.8-4-4-4
		C2073.8,1468.6,2073.7,1468.6,2073.7,1468.6z"/>
	<path class="st24" d="M1992.8,1578.9h-68.2v-15.2l-27.7-111.6c-4.1-16.7,6.1-33.7,22.8-37.8c2.5-0.6,5-0.9,7.5-0.9l0,0
		c14.3,0,26.8,9.8,30.3,23.7L1992.8,1578.9z"/>
	<path class="st4" d="M2001.3,1578.9h-64.2v-15.2l-27.7-111.6c-4.2-16.7,6-33.6,22.8-37.8c2.5-0.6,5-0.9,7.5-0.9l0,0
		c14.3,0,26.8,9.8,30.3,23.7l31.4,126.6L2001.3,1578.9z"/>
	<rect x="1937.1" y="1563.7" class="st6" width="64.2" height="15.2"/>
	<rect x="1691.1" y="1581.1" class="st4" width="121.3" height="99.5"/>
	<g class="st31">
		<polygon class="st30" points="1998.3,1680.7 1887.7,1680.7 1915.7,1581.1 2026.2,1581.1 		"/>
	</g>
	<g class="st31">
		<polygon class="st30" points="2149.6,1680.7 2093.7,1680.7 2121.6,1581.1 2177.5,1581.1 		"/>
	</g>
	<rect x="2179.6" y="1368.4" class="st4" width="31.9" height="210.4"/>
	<path class="st4" d="M2070.9,1293.4h236c0.9,0,1.6,0.7,1.6,1.6v71.8c0,0.9-0.7,1.6-1.6,1.6h-236c-0.9,0-1.6-0.7-1.6-1.6V1295
		C2069.3,1294.1,2070,1293.4,2070.9,1293.4z"/>
	<path class="st24" d="M2082.5,1301.4v59.1c0,4.4,3.6,8,8,8h223.3c4.4,0,8-3.6,8-8v-59.1c0-4.4-3.6-8-8-8h-223.3
		C2086,1293.4,2082.5,1297,2082.5,1301.4z"/>
	<rect x="2175.1" y="1368.4" class="st24" width="40.9" height="45.7"/>
	<g class="st32">
		<polygon class="st30" points="2114.8,1368.5 2225.3,1368.5 2246.4,1293.3 2135.9,1293.3 		"/>
	</g>
	<g class="st31">
		<path class="st30" d="M2291.1,1368.5h22.7c4.4,0,8-3.6,8-8v-59.1c0-4.4-3.6-8-8-8h-1.6L2291.1,1368.5z"/>
	</g>
	<path class="st33" d="M2857.7,1722.7c0.1,10.7-4,21.1-11.3,28.9c-7.1,7.6-17,12-27.4,12h-34.9v730.1c0,36.5-29.5,66-66,66
		c0,0,0,0-0.1,0h-400.6c0-1.3,0.1-2.6,0.1-4c7.4-274.2,75.4-546.8,198-792.2c13.8-27.6,28.3-54.9,43.5-81.8h260
		C2840.4,1681.8,2857.7,1700.1,2857.7,1722.7z"/>
	<g class="st34">
		<polygon class="st30" points="2429.9,2555.8 2088.7,2555.8 2174.9,1763.6 2516.1,1763.6 		"/>
	</g>
	<g class="st34">
		<polygon class="st30" points="1926.6,2555.8 1701.9,2555.8 1788.2,1763.6 2012.8,1763.6 		"/>
	</g>
	<path class="st2" d="M2837.6,612.8c-96.3-96.2-252.3-96.2-348.5,0.1c-35.9,36-59.9,82.2-68.5,132.3l-22.1-71.2
		c-1.9-6.3-8.4-10.1-14.8-8.5c-6.5,1.7-10.4,8.3-8.7,14.9c0.1,0.2,0.1,0.4,0.2,0.6l42.6,136.8c1.8,5.8,7.5,9.3,13.5,8.4
		c0.9-0.2,1.9-0.4,2.8-0.8c19.1,105.4,108.4,186.4,217.7,192.9c-0.6,2.3-0.4,4.8,0.5,7c2.1,4.9,6.9,8.1,12.2,8
		c136.1-0.5,246-111.2,245.5-247.2C2909.6,721.1,2883.6,658.8,2837.6,612.8z"/>
	<circle class="st6" cx="2576" cy="747.9" r="235.6"/>
	<path class="st5" d="M2430.5,793.1h37.1c0.9,0,1.7,0.3,2.4,0.9c0.6,0.6,1,1.4,1,2.3v12c0,1.8-1.5,3.3-3.4,3.4h-68.5
		c-0.9,0-1.7-0.4-2.3-1c-0.6-0.6-0.9-1.5-0.9-2.4v-1.7c0-0.8,0.2-1.6,0.5-2.4c0.1-0.2,0.2-0.5,0.4-0.7c0.2-0.5,0.5-0.9,0.9-1.3
		c2.8-3.5,6.1-7.6,9.8-12.4l11.9-15.2c4.1-5.2,8-10.2,11.7-15.2l9.9-13c2.5-3,4.7-6.3,6.4-9.9c1.5-2.9,2.3-6.1,2.4-9.4
		c0-2-0.4-3.9-1.1-5.7c-0.7-1.9-1.9-3.6-3.4-5.1c-1.7-1.5-3.6-2.8-5.7-3.5c-1.4-0.5-2.9-0.9-4.4-1.1c-4.6-0.6-9.3,0.2-13.4,2.4
		c-0.6,0.3-1.1,0.6-1.6,0.9c-1.6,1-3.1,2.1-4.6,3.3c-1.3,1.2-2.5,2.3-3.5,3.3c-1.7,1.7-3.3,1.7-4.7,0l-8.4-8.3
		c-1.2-1.3-1.3-3.2-0.2-4.5c2.8-3.2,5.9-6.1,9.4-8.4c3.3-2.4,6.9-4.4,10.7-5.9c4.5-1.8,9.3-2.8,14.1-2.7c5.6-0.1,11.2,0.9,16.5,2.8
		c4.5,1.7,8.7,4.2,12.2,7.5c3.3,3.1,5.8,6.8,7.5,11c1.7,4.2,2.6,8.8,2.5,13.3c0.1,5.1-1,10.1-3.3,14.6c-2.5,4.6-5.3,9.1-8.4,13.4
		c-1.8,2.6-3.9,5.5-6.4,8.8c-2.5,3.3-5,6.6-7.7,10c-2.7,3.4-5.3,6.8-8,10.1c-2.7,3.4-5.1,6.5-7.4,9.5L2430.5,793.1z"/>
	<path class="st5" d="M2490.4,786.5c-1.8,0-3.3-1.5-3.4-3.4v-11c-0.1-2.2,0.7-4.3,2.2-5.9l59.8-72.5c0.5-0.6,1.1-1.1,1.8-1.4
		c0.8-0.3,1.7-0.5,2.6-0.4h8.3c1.9,0,3.3,1.5,3.4,3.4V760c0,4.7,3.8,8.5,8.5,8.5h5.4c0.9,0,1.8,0.3,2.4,0.8c0.6,0.6,0.9,1.4,0.9,2.2
		v11.7c0,0.9-0.3,1.7-0.9,2.4c-0.6,0.7-1.5,1-2.4,1h-5.3c-4.7,0-8.5,3.8-8.5,8.5c0,0,0,0,0,0.1l0.1,13.2c0,1.9-1.5,3.3-3.4,3.4
		h-14.3c-1.8,0-3.3-1.5-3.4-3.4V795c0-4.7-3.8-8.5-8.5-8.5L2490.4,786.5z M2510.3,768.9h25.9c4.7,0,8.5-3.8,8.5-8.5v-33.5h-0.3
		l-34.1,41.7L2510.3,768.9z"/>
	<path class="st5" d="M2632.1,695.7c0.3-1.4,1.6-2.3,3-2.2h12.1c1-0.1,2.1,0.4,2.7,1.2c0.6,0.9,0.7,2,0.3,3l-32.9,111.7
		c-0.3,0.6-0.7,1.1-1.3,1.5c-0.5,0.4-1.1,0.6-1.8,0.7h-12.3c-1,0.1-2-0.4-2.6-1.2c-0.6-0.9-0.8-2-0.4-3L2632.1,695.7z"/>
	<path class="st5" d="M2715.7,712.2H2670c-0.9,0-1.7-0.4-2.3-1c-0.6-0.6-0.9-1.5-0.9-2.4v-12.2c0-1.7,1.4-3.2,3.1-3.2
		c0,0,0.1,0,0.1,0h72.4c0.9,0,1.7,0.3,2.4,0.9c0.6,0.6,1,1.4,1,2.3c0,0.3,0,0.7-0.1,1c-0.1,0.5-0.3,1-0.6,1.5l-51.1,107.7
		c-0.6,1.3-1.4,2.5-2.4,3.5c-1,0.9-2.2,1.3-3.5,1.3h-13c-1,0-2-0.2-2.9-0.6c-0.9-0.4-1.4-1.3-1.4-2.8c0-1.2,0.3-2.4,0.8-3.5l44-92.1
		L2715.7,712.2z"/>
	<path class="st5" d="M2573.8,998.1c-6.7,0.2-12.4-5.1-12.5-11.8c-0.2-6.7,5.1-12.4,11.8-12.5c0.2,0,0.5,0,0.7,0
		c122.4,0,222-99.6,222-222s-99.6-222-222-222s-222,99.6-222,222v27.2c0,6.7-5.5,12.2-12.2,12.2c-5.3,0-10.1-3.5-11.6-8.6
		l-42.6-136.8c-1.8-6.5,1.9-13.2,8.4-15.1c6.3-1.8,12.8,1.7,14.9,7.8l22.3,71.6c23-134.1,150.4-224.2,284.5-201.2
		c134.1,23,224.2,150.4,201.2,284.5C2796.3,911.6,2693.8,998.1,2573.8,998.1z"/>
	<ellipse class="st10" cx="3302.6" cy="998.6" rx="79.9" ry="79"/>
	<path class="st7" d="M2910.2,1323.3c-2.4,14.7-13.2,22.6-25.2,27.7c-7.3,3.1-12.6,3.6-20.9,6.3c-4.9,1.6-16.9,0.6-25.2-1.8
		c-3.5-1-6.4-2.2-7.7-3.6c-14.9-14.8-28.3-19.7-44.9-28.4c-4.3-2.2-6.5-2.5-10.2-5.2c-24.9-17.9-53-28.6-45.4-67.6
		c7.7-39.4,56.2-51,91.5-38.5c20.1,7.1,34.9,17.4,48.7,32.3c3.2,3.4,6.3,7.1,9.4,11c5.7,7.2,13,21.5,17.7,31.4
		C2902.6,1296.4,2911.9,1312.8,2910.2,1323.3z"/>
	<path class="st15" d="M2871,1244.5c-4.4,38.5-15.2,76-32,111c-3.5-1-6.4-2.2-7.7-3.6c-14.9-14.8-28.3-19.7-44.9-28.4
		c-4.3-2.2-6.5-2.5-10.2-5.2c-24.9-17.9-53-28.6-45.4-67.6c7.7-39.4,56.2-51,91.5-38.5C2842.4,1219.3,2857.1,1229.5,2871,1244.5z"/>
	<path class="st6" d="M2826.9,1226.4l-19.3,143.9c-0.8,6.2-6.5,10.5-12.6,9.7c0,0,0,0,0,0l-39.3-5.3l-20.4-2.7
		c-6.2-0.8-10.5-6.5-9.7-12.6c0,0,0,0,0,0l0.3-1.9l11.2-83.9l7.8-58.1c2.1-15.5,7.8-30.3,16.7-43.2c1.6-2.4,3.4-4.7,5.2-6.9
		c11.9-14.3,19.5-31.7,21.9-50.1l3.7-27.9c0.8-6.2,6.5-10.5,12.7-9.7c6.2,0.8,10.5,6.5,9.7,12.7l-3.7,27.9
		c-2.5,18.4,0.3,37.2,8,54.1l0,0C2826.7,1189.2,2829.4,1208,2826.9,1226.4z"/>
	<path class="st5" d="M3185.7,1208C3185.7,1206.8,3185.7,1205.4,3185.7,1208z"/>
	<path class="st35" d="M3219.3,1291.5c-18.4,61.3-56.9,169.9-109.7,224c-5.5,5.6-11.2,11-17.2,16c-27.7,23-55.4,32.5-85.6,27.9
		c-17.2-2.6-35.1-9.7-54.4-21.5c-64.5-39.4-80.7-94.5-120.5-155.6c-20.7-31.8-12.7-57.2,11.3-76.8c24.4-19.8,62.4-14.1,78.7,10
		c25.1,37.2,34.6,85.2,71.9,110.8c14.2,9.8,25.7,9,38.7-4.2c2.7-2.8,5.3-5.7,7.6-8.8c25.1-32.6,39-72.4,50.6-112
		c5.6-19.1,10.7-38.2,16.3-56.3c11.3-36.6,48-52,78.7-35.9S3237.7,1230.2,3219.3,1291.5z"/>
	<path d="M3103.7,2529.9c-1.1,3.2,51.1,73.8,51.1,73.8h-158l21.8-36.9L3103.7,2529.9z"/>
	<polygon points="3269.3,2497.5 3269.3,2540.8 3229.8,2540.8 3232.8,2529.9 3224.4,2525.4 3233.4,2506.3 	"/>
	<g id="c65_sport_shoes">
		<path d="M3261.7,2594.7c4.1,0,7.5,1.3,7.5,2.9v24c0,1.6-3.4,2.9-7.5,2.9h-316.1c-4.1,0-7.5-1.3-7.5-2.9v-24c0-1.6,3.4-2.9,7.5-2.9
			H3261.7z"/>
		<rect x="3125.2" y="2398.3" class="st11" width="120" height="131.6"/>
		<path class="st36" d="M3148.2,2515.8c37.5-2.2,74.6-14.3,103.2-38.7c1.5-1.3,3.6-1.7,5.4-1c5.5,1.8,12.1,8.2,12.5,29v9.5h-37v15.3
			h37v73.8h-134l-33.7-58.4c-1.4-2.4-4-3.9-6.7-3.9l0,0c-4.3,0-7.8,3.5-7.8,7.8c0,1.3,0.3,2.6,1,3.7l27.9,50.7h-21.3l-24-39.4h-18.9
			l23.1,39.4h-21.1l-11.1-19.7h-16.4l10.9,19.7h-98.9c0,0-26.8-32,12.9-41.5c0,0,109.7-13.9,166.8-88.2c0,0,15.2-33.6,20.9,42.4
			L3148.2,2515.8z"/>
	</g>
	<path d="M3230.5,2529.9c-1.1,3.2,51.1,73.8,51.1,73.8h-158l21.8-36.9L3230.5,2529.9z"/>
	<path d="M3388.6,2601.6c4.1,0,7.5,1.3,7.5,2.9v24c0,1.6-3.4,2.9-7.5,2.9h-316.2c-4.1,0-7.5-1.3-7.5-2.9v-24c0-1.6,3.4-2.9,7.5-2.9
		H3388.6z"/>
	<rect x="3253.9" y="2398.3" class="st11" width="120" height="131.6"/>
	<path class="st37" d="M3051.3,2594.7c1.5,3.2,3.4,6.2,5.6,8.9l0,0h98.9l-4.9-9l0,0c-1.9-3.5-0.7-7.9,2.8-9.8
		c1.1-0.6,2.3-0.9,3.5-0.9l0,0c2.6,0,5,1.4,6.3,3.7l4,7.1l5.1,9h21.1l-5.3-9l-10.6-18.1c-2.3-3.9-1-8.9,2.9-11.2
		c1.3-0.7,2.7-1.1,4.1-1.1l0,0c2.9,0,5.5,1.5,7,3.9l16.1,26.5l5.5,9h21.3l-4.9-9l-22.9-41.8c-2.1-3.8-0.7-8.5,3.1-10.6
		c1.1-0.6,2.4-1,3.7-1l0,0c2.8,0,5.3,1.5,6.7,3.9l28.6,49.4l5.2,9h134v-62.8l0,0v-43.3l-0.5,0.1l0,0c-1.7-15-7.3-20-12.1-21.6
		c-1.7-0.6-3.5-0.3-5,0.7c-9,6.5-18.5,12.4-28.3,17.7c-3.9,2.1-7.8,4-11.8,5.8c-9.8,4.5-20,8.1-30.5,10.8
		c-6.3,1.6-12.6,2.8-19.1,3.6c-3.3,0.4-6.6,0.7-9.9,0.9l-8,0.5l-3.6,0.2l-1.9,0.1c-0.7-8.9-1.5-16.3-2.4-22.4
		c-6.7-46.1-18.5-20-18.5-20c-12.2,15.7-26.9,29.4-43.3,40.6c-16.2,11.1-33.6,20.3-51.8,27.6c-3.1,1.3-6.1,2.4-9.1,3.5
		c-5.1,1.9-10.2,3.6-14.9,5.2c-27.5,8.8-47.6,11.3-47.6,11.3C3043.7,2568.4,3046.4,2584.5,3051.3,2594.7z M3351.1,2529.8v-0.3
		l0.5,0.3H3351.1z"/>
	<path class="st24" d="M3200.3,2439.3h-42.1c-32.5,0-58.9-26.4-58.9-58.9c0,0,0,0,0,0v-676.7c0-2.5,2.1-4.6,4.6-4.6c0,0,0,0,0,0
		h141.3c2.5,0,4.6,2,4.6,4.6c0,0,0,0,0,0v686.2C3249.8,2417.1,3227.6,2439.3,3200.3,2439.3L3200.3,2439.3z"/>
	<path class="st4" d="M3395.6,1757.4v621.8c0,38.5-31.1,69.7-69.6,69.7c0,0-0.1,0-0.1,0h-31.4c-38.5,0-69.7-31.2-69.7-69.7v-518.5
		c0,0-30.1-10.2-66.6-42.6c-0.9-0.8-1.9-1.7-2.8-2.5s-1.8-1.7-2.8-2.6l-1.5-1.4c-0.9-0.9-1.8-1.8-2.7-2.7c-2.9-2.8-5.8-5.7-8.7-8.8
		c-1.4-1.4-2.7-2.9-4.1-4.4l-1.7-1.8l-0.6-0.7c-0.8-0.8-1.5-1.7-2.3-2.6l0,0c-0.8-0.9-1.5-1.7-2.3-2.6c-2.3-2.7-4.5-5.4-6.8-8.3
		l-2.3-2.9c-0.1-0.1-0.2-0.2-0.3-0.3l-2-2.6c-0.6-0.7-1.1-1.4-1.6-2.2c-1.2-1.6-2.4-3.2-3.6-4.8c-0.9-1.3-1.9-2.7-2.9-4
		c-4.1-5.9-8.1-12.1-12.1-18.6l-1.9-3.2c-2.4-4.1-4.8-8.3-7.1-12.7l-0.9-1.8c-0.4-0.8-0.9-1.7-1.3-2.5l-1.3-2.5l-1.3-2.6
		c-0.8-1.5-1.6-3.1-2.3-4.7l-0.2-0.5l-1.2-2.5l-0.2-0.4c-0.4-0.8-0.8-1.6-1.1-2.4s-0.8-1.8-1.3-2.7s-0.8-1.8-1.2-2.7
		s-0.8-1.8-1.2-2.8c-1.6-3.7-3.2-7.5-4.8-11.4L3395.6,1757.4z"/>
	<path class="st38" d="M3338.5,1813.4v634.4c4-0.7,8-1.8,11.8-3.3v-631.1c0-3.3-2.6-5.9-5.9-5.9
		C3341.1,1807.5,3338.5,1810.1,3338.5,1813.4z"/>
	<g class="st18">
		<path class="st39" d="M3395.6,1757.4v121.1c-81.9,9.5-176.7-44.3-237.4-60.4c-0.9-0.8-1.9-1.7-2.8-2.5s-1.8-1.7-2.8-2.6l-1.5-1.4
			c-0.9-0.9-1.8-1.8-2.7-2.7c-2.9-2.8-5.8-5.7-8.7-8.8c-0.8-0.9-1.6-1.7-2.4-2.6c-0.4-0.4-0.7-0.8-1.1-1.2c-0.2-0.2-0.4-0.4-0.6-0.6
			l-1.7-1.8l-0.6-0.7c-0.8-0.8-1.5-1.7-2.3-2.6l0,0c-0.8-0.9-1.5-1.7-2.3-2.6c-2.3-2.7-4.6-5.4-6.8-8.3l-2.3-2.9
			c-0.1-0.1-0.2-0.2-0.3-0.3l-2-2.6c-0.6-0.7-1.1-1.4-1.6-2.2c-1.2-1.6-2.4-3.2-3.6-4.8c-0.9-1.3-1.9-2.7-2.9-4
			c-4.1-5.9-8.1-12.1-12.1-18.6l-1.9-3.2c-2.4-4.1-4.8-8.3-7.1-12.7l-0.9-1.8c-0.4-0.8-0.9-1.7-1.3-2.5l-1.3-2.5l-1.3-2.6
			c-0.8-1.5-1.6-3.1-2.3-4.7l-0.2-0.5l-1.2-2.5l-0.2-0.4c-0.4-0.8-0.8-1.6-1.1-2.4s-0.8-1.8-1.3-2.7s-0.8-1.8-1.2-2.7
			s-0.8-1.8-1.2-2.8c-1.6-3.7-3.2-7.5-4.8-11.4L3395.6,1757.4z"/>
	</g>
	<path class="st10" d="M3179.4,1161.7c3,12.6,8.7,24.4,16.8,34.5c12.1,14.8,28.8,23.9,47.2,23.9h11.8c30.2,0,55.7-24.5,64-58.1
		c-0.6-0.1-1.2-0.2-1.8-0.3c-2.4-0.4-4.9-0.5-7.4-0.6h-120.8C3185.9,1161.2,3182.6,1161.4,3179.4,1161.7z"/>
	<rect x="3193.6" y="1096.7" class="st15" width="115.6" height="132.1"/>
	<path class="st7" d="M3367,1026.3c0,14.3-11.6,25.8-25.8,25.8c-3.3,0-6.5-0.6-9.6-1.8c-4.4,58.8-55.7,102.9-114.4,98.5
		c-55.7-4.2-98.8-50.7-98.8-106.6V878h213.5v124.2c3-1.1,6.1-1.7,9.3-1.7c0.3,0,0.5,0,0.8,0s0.7,0,1,0h0.5c0.3,0,0.5,0,0.8,0.1
		c0.5,0,1,0.1,1.5,0.2c0.3,0.1,0.7,0.1,1,0.2s0.9,0.2,1.4,0.3c0.8,0.2,1.7,0.5,2.5,0.8c0.5,0.2,1.1,0.4,1.6,0.7l0.7,0.4h0.1l0.7,0.4
		l0.8,0.4l0.7,0.5l1,0.7l0,0l0.9,0.7l0.1,0.1c0.3,0.3,0.7,0.5,1,0.8s0.6,0.6,0.9,0.9c0.1,0.1,0.2,0.2,0.2,0.2
		c0.1,0.1,0.2,0.2,0.3,0.3C3364.4,1013,3367,1019.5,3367,1026.3z"/>
	<path class="st20" d="M3367,1026.3c0,14.3-11.6,25.8-25.8,25.8c-3.3,0-6.5-0.6-9.6-1.8c-3.4,44.3-33.9,81.9-76.6,94.4
		c-45.6-13.2-77-55-77-102.5V878h153.8v124.2c3-1.1,6.1-1.7,9.3-1.7c0.3,0,0.5,0,0.8,0s0.7,0,1,0h0.5c0.3,0,0.5,0,0.8,0.1
		c0.5,0,1,0.1,1.5,0.2c0.3,0.1,0.7,0.1,1,0.2s0.9,0.2,1.4,0.3c0.8,0.2,1.7,0.5,2.5,0.8c0.5,0.2,1.1,0.4,1.6,0.7l0.7,0.4h0.1l0.7,0.4
		l0.8,0.4l0.7,0.5l1,0.7l0,0l0.9,0.7l0.1,0.1c0.3,0.3,0.7,0.5,1,0.8s0.6,0.6,0.9,0.9c0.1,0.1,0.2,0.2,0.2,0.2
		c0.1,0.1,0.2,0.2,0.3,0.3C3364.3,1013,3367,1019.5,3367,1026.3z"/>
	<path class="st16" d="M3235.7,1091.6L3235.7,1091.6c0.1,9.2-7.2,16.9-16.5,17.1c-9.2,0.1-16.8-7.2-17-16.5c0-0.1,0-0.2,0-0.3
		c0-5.6,4.6-10.2,10.2-10.2h13.5C3231.3,1081.8,3235.7,1086.2,3235.7,1091.6L3235.7,1091.6z"/>
	<circle class="st16" cx="3147" cy="1016.2" r="9.1"/>
	<circle class="st16" cx="3240.1" cy="1016.2" r="9.1"/>
	<path class="st16" d="M3275.9,1005.8c2.6,0,4.7-2.2,4.7-4.8c0-2.4-1.9-4.4-4.3-4.7l-46.2-3.8c-2.6-0.1-4.8,1.9-4.9,4.6
		c-0.1,2.4,1.7,4.6,4.1,4.9l46.2,3.8L3275.9,1005.8z"/>
	<path class="st16" d="M3125.5,1006.2c0.2,0,0.3,0,0.5,0l34.7-3.4c2.6-0.2,4.6-2.4,4.4-5c-0.2-2.6-2.4-4.6-5-4.4c-0.1,0-0.2,0-0.3,0
		l-34.7,3.4c-2.6,0.2-4.5,2.5-4.3,5.1C3121,1004.4,3123.1,1006.3,3125.5,1006.2L3125.5,1006.2z"/>
	<path class="st37" d="M3111.5,1494.3c-5.6,12.8-12,25.2-19.2,37.2c-27.7,23-55.4,32.5-85.6,27.9c6.7-21.2,12-42.7,15.8-64.6
		c4.3-24,7.3-48.3,10-72.6c2.7-2.8,5.3-5.7,7.6-8.8c25.1-32.6,39-72.4,50.6-112c12.9,8.7,22.3,23.1,28.5,37.8
		C3139.6,1388.3,3132.7,1445.5,3111.5,1494.3z"/>
	<path class="st35" d="M3467,1302v374.3c0,52.6-42.7,95.3-95.3,95.3c0,0,0,0,0,0h-260.8c-38.7,0-70.2-31.4-70.1-70.2
		c0-3.1,0.2-6.3,0.6-9.4l7.1-52.6l49-361.5l6-44.3c0-35.7,25.9-66.1,61.2-71.6c0.8-0.1,1.5-0.2,2.3-0.3c3-0.4,6-0.6,9-0.6h13.6
		c-2.5,0-4.9,0.2-7.4,0.6c-0.6,0.1-1.2,0.2-1.8,0.3c0.8,3.1,1.7,6.1,2.7,9c5.8,16.1,15.6,29.6,28,38.3c9.7,6.9,21.3,10.7,33.2,10.8
		h11.8c17.8,0,33.9-8.5,45.8-22.3c0.5-0.5,0.9-1.1,1.4-1.6c8.1-10.1,13.9-21.9,16.8-34.5c-3.2-0.3-6.5-0.5-9.8-0.5h13.3
		c4,0,8,0.2,11.9,0.5h2.4c5.4,0.5,10.7,1.2,15.9,2.3C3419.7,1177.2,3467,1235,3467,1302z"/>
	<path class="st28" d="M3179.7,1162.7c0.8,3.1,1.7,6.1,2.7,9c-24.9,13.5-63.5,43.7-85.6,106.8l0,0l6-44.3c0-35.7,26-66,61.2-71.5
		c0.8-0.1,1.5-0.2,2.3-0.3c3-0.4,6-0.6,9-0.6h13.6c-2.5,0-4.9,0.2-7.4,0.6C3181,1162.5,3180.4,1162.6,3179.7,1162.7z"/>
	<path class="st21" d="M3395.5,1241.5c6.1,3,11.6,6.9,16.3,11.7c0.1,0.1,0.2,0.3,0.4,0.4c-2.5-4-5.5-7.6-9-10.7
		C3401.1,1240.9,3398.1,1240.4,3395.5,1241.5z"/>
	<path class="st37" d="M3439,1343.1v400.7c-17.8,17.8-42,27.8-67.2,27.8h-196.1c-6-11.8-9.2-24.7-9.3-37.9l3.4-131.9l8.7-333.7
		c1-39.2,33.1-70.5,72.4-70.5h45c2.1,0,4.2,0.1,6.3,0.2C3379,1202.4,3439,1266.1,3439,1343.1z"/>
	<path class="st25" d="M3470,1306.7v461.4c0,40-32.4,72.4-72.4,72.4c0,0,0,0,0,0c-51.9,0-121.8-27.6-163.8-68.8
		c-1.6-1.6-3.2-3.2-4.8-4.9c-19.4-20.6-31.7-44.3-31.7-69.5l3.4-131.9l8.7-333.7c1-39.2,33.1-70.5,72.4-70.5h45
		C3406.3,1162.5,3470,1227.3,3470,1306.7z"/>
	<path class="st37" d="M3229,1766.7c-18,3.2-36.3,4.9-54.6,4.9h-63.5c-10.5,0-20.9-2.3-30.3-6.9l-17.7-12.2
		c-16.6-15.5-24.6-38.1-21.5-60.6l7.1-52.6l15.2-11.5c25.8-19.4,54.6-34.6,85.1-45l51.9-17.6l-3.4,131.9
		C3197.4,1722.4,3209.7,1746.1,3229,1766.7z"/>
	<path class="st40" d="M3470,1359.9v303.6c-8.3,1.3-14,2.3-15,2.6l-139.7,71.5c-27.2,13.9-56.3,23.7-86.3,29.1
		c-19.4-20.6-31.7-44.3-31.7-69.5l3.4-131.9l100.4-34c21-6.5,34.6-26.8,32.7-48.6l-17.1-198.8c-2.9-32.8,21.4-61.7,54.2-64.6
		c0.2,0,0.5,0,0.7-0.1l0,0c20.1,2.5,42.3,15.5,57.6,32.1c8.9,9.6,15.6,20.5,18.1,31.2l19.6,66.8L3470,1359.9z"/>
	<path class="st21" d="M3429.3,1251.3c-11-21.3-33.7-34-57.6-32.1C3391.7,1221.8,3413.9,1234.7,3429.3,1251.3z"/>
	<path class="st28" d="M2727.2,1691.4l412.2,326.9l56.7-71.6l-43.8-34.8c0,0-5.6,0.9-19.7-10.4s-16.8-18.6-16.8-18.6l-59.5-47.2
		c0,0-5.3,1.1-20.8-11.2s-15.7-17.7-15.7-17.7l-59.6-47.2l-24.1-7l-12.3-21.9l-59.5-47.2l-25.7-1.7l-10.8-27.2l-43.8-34.8
		L2727.2,1691.4z"/>
	<path class="st41" d="M3132.1,1954.2c-15.7,19.7-12.4,48.5,7.4,64.1c0,0,0,0,0,0c19.7,15.7,51.9,8.1,67.6-11.7s9-44.2-10.8-59.9
		C3176.4,1931.1,3147.7,1934.5,3132.1,1954.2z"/>
	<path class="st41" d="M2723.2,1623c-15.7,19.8-15.8,52.8,4,68.4c19.7,15.8,48.4,12.6,64.2-7.1c15.8-19.7,12.6-48.4-7.1-64.2
		c-0.1-0.1-0.2-0.2-0.3-0.3C2764.2,1604.2,2738.9,1603.2,2723.2,1623z"/>
	<path class="st42" d="M3099.5,1941.2c-10.1-8-2.7-34,16.4-58.1c0,0,2.6,7.3,16.8,18.6s19.7,10.4,19.7,10.4
		C3133.3,1936.2,3109.6,1949.2,3099.5,1941.2z"/>
	<path class="st42" d="M3003.5,1865.1c-10.1-8-2.8-34,16.4-58.1c0,0,2.6,7.3,16.8,18.5s19.7,10.4,19.7,10.4
		C3037.2,1860,3013.6,1873.1,3003.5,1865.1z"/>
	<path class="st25" d="M2907.5,1788.9c-10.1-8-2.7-34,16.4-58.1c0,0,2.6,7.3,16.8,18.6s19.7,10.4,19.7,10.4
		C2941.2,1783.8,2917.6,1796.9,2907.5,1788.9z"/>
	<path class="st25" d="M2811.4,1712.8c-10.1-8-2.8-34,16.4-58.1c0,0,2.6,7.3,16.7,18.6s19.7,10.4,19.7,10.4
		C2845.2,1707.7,2821.5,1720.8,2811.4,1712.8z"/>
	<path class="st28" d="M2679.2,1800.9l478.3,219.2l38-83l-50.9-23.3c0,0-5.2,2.2-21.6-5.4s-20.7-14-20.7-14l-69.1-31.7
		c0,0-4.8,2.3-22.9-6s-19.4-13.4-19.4-13.4l-69.1-31.7l-25.1-1.1l-17.2-18.3l-69.1-31.7l-25.4,4.4l-16.9-23.9l-50.9-23.3
		L2679.2,1800.9z"/>
	<path class="st41" d="M3135,1959.5c-10.5,22.9-0.4,50,22.5,60.5c22.9,10.5,52.3-4.5,62.8-27.5s-1.9-45-24.8-55.6
		C3172.6,1926.5,3145.5,1936.6,3135,1959.5C3135,1959.5,3135,1959.5,3135,1959.5z"/>
	<path class="st41" d="M2659,1735.4c-10.5,22.9-2.7,55,20.2,65.5c22.6,11.3,50,2.2,61.3-20.4c11.3-22.6,2.2-50-20.4-61.3
		c-0.9-0.5-1.9-0.9-2.9-1.3C2694.3,1707.3,2669.5,1712.4,2659,1735.4z"/>
	<path class="st42" d="M3100.3,1954.7c-11.7-5.4-10.8-32.4,2-60.3c0,0,4.3,6.5,20.7,14s21.6,5.4,21.6,5.4
		C3131.9,1941.7,3112,1960,3100.3,1954.7z"/>
	<path class="st42" d="M2988.9,1903.6c-11.7-5.3-10.8-32.4,2-60.3c0,0,4.3,6.5,20.7,14s21.6,5.4,21.6,5.4
		C3020.4,1890.6,3000.6,1909,2988.9,1903.6z"/>
	<path class="st25" d="M2877.5,1852.6c-11.7-5.3-10.8-32.4,2-60.3c0,0,4.3,6.5,20.7,14s21.6,5.4,21.6,5.4
		C2909,1839.6,2889.2,1857.9,2877.5,1852.6z"/>
	<path class="st25" d="M2766.1,1801.5c-11.7-5.3-10.8-32.4,2-60.3c0,0,4.2,6.5,20.7,14s21.6,5.4,21.6,5.4
		C2797.6,1788.5,2777.7,1806.9,2766.1,1801.5z"/>
	<rect x="3027.9" y="1719.8" class="st4" width="28" height="162.6"/>
	<path class="st6" d="M2870.1,2095.4c2,6.8,9.5,12.4,16.6,12.4h310.5c7.1,0,14.6-5.6,16.6-12.4l57.4-195.6c2-6.8-2.2-12.4-9.3-12.4
		H2822c-7.1,0-11.3,5.6-9.3,12.4L2870.1,2095.4z"/>
	<path class="st4" d="M2808,1860.8h467.9c7.1,0,12.9,5.8,12.9,12.9v17.2c0,7.1-5.8,12.9-12.9,12.9H2808c-7.1,0-12.9-5.8-12.9-12.9
		v-17.2C2795,1866.6,2800.8,1860.8,2808,1860.8z"/>
	<path class="st4" d="M2910.3,1939.5c6.1,0,11.1,4.9,11.1,11c0,0,0,0,0,0v110.8c0,6.1-5,11.1-11.1,11c-6.1,0-11-4.9-11-11v-110.8
		C2899.2,1944.4,2904.1,1939.5,2910.3,1939.5C2910.3,1939.5,2910.3,1939.5,2910.3,1939.5z"/>
	<path class="st4" d="M2974.9,1939.5c6.1,0,11.1,5,11.1,11.1l0,0v110.8c0,6.1-5,11.1-11.1,11c-6.1,0-11-5-11-11v-110.8
		C2963.8,1944.4,2968.8,1939.5,2974.9,1939.5z"/>
	<path class="st4" d="M3039.5,1939.5c6.1,0,11.1,5,11.1,11.1v110.8c0,6.1-4.9,11.1-11,11.1c-6.1,0-11.1-4.9-11.1-11c0,0,0,0,0-0.1
		v-110.8C3028.4,1944.4,3033.4,1939.5,3039.5,1939.5C3039.5,1939.5,3039.5,1939.5,3039.5,1939.5z"/>
	<path class="st4" d="M3104.1,1939.5c6.1,0,11.1,5,11.1,11.1v110.8c-0.2,6.1-5.3,10.9-11.4,10.7c-5.9-0.2-10.6-4.9-10.7-10.7v-110.8
		C3093,1944.4,3098,1939.5,3104.1,1939.5C3104.1,1939.5,3104.1,1939.5,3104.1,1939.5z"/>
	<path class="st4" d="M3168.7,1939.5c6.1,0,11.1,5,11.1,11.1v110.8c0,6.1-5,11.1-11.1,11c-6.1,0-11-5-11-11v-110.8
		C3157.6,1944.4,3162.6,1939.5,3168.7,1939.5C3168.7,1939.5,3168.7,1939.5,3168.7,1939.5z"/>
	<path class="st35" d="M3007.4,1882.4c0,19,15.4,34.5,34.5,34.5c19,0,34.5-15.4,34.5-34.5c0-19-15.4-34.5-34.5-34.5l0,0
		C3022.9,1847.9,3007.4,1863.3,3007.4,1882.4z"/>
	<path class="st43" d="M3027.9,1882.4c0,7.7,6.3,14,14,14s14-6.3,14-14s-6.3-14-14-14l0,0
		C3034.2,1868.4,3027.9,1874.6,3027.9,1882.4z"/>
	<path class="st4" d="M3027.9,1882.4c0,7.7,6.3,14,14,14s14-6.3,14-14s-6.3-14-14-14l0,0C3034.2,1868.4,3027.9,1874.6,3027.9,1882.4
		z"/>
	<path class="st4" d="M3027.9,1719.8c0,3.7,6.3,6.7,14,6.7s14-3,14-6.7s-6.3-6.7-14-6.7S3027.9,1716.1,3027.9,1719.8z"/>
	<path class="st20" d="M3013.5,1794.3c33.4,25.3,85.2-1.2,113.5-29.1c3.9-3.8,7.6-7.9,10.9-12.3c11.8-15.7,20.7-34.7,37.5-44.8
		c5.2-3.1,10.7-27,9.7-33c-1.2-7-2.3-14.1-3.5-21.1c-1.9-11.5-12.8-25.8-24.1-28.8c-8.1-2.2-24.2,3.1-39.9,10
		c-16.2,7.1-31.9,16-38.4,20.6c-18.8,13.4-38.1,28.8-54,45.6C3002.5,1725.5,2979.8,1768.7,3013.5,1794.3z"/>
	<path class="st7" d="M3127,1765.2c3.9-3.8,7.6-7.9,10.9-12.3c11.8-15.7,20.7-34.7,37.5-44.8c5.2-3.1,10.7-27,9.7-33
		c-1.2-7-2.3-14.1-3.5-21.1c-1.9-11.5-12.8-25.8-24.1-28.8c-8.1-2.2-24.2,3.1-39.9,10c-9.6,13.8-16,29.5-18.8,46.1
		C3093.9,1711.7,3104,1744.9,3127,1765.2z"/>
	<path class="st21" d="M3151.6,1617.8c-30,13.3-46.5,46-33.2,76l0,0c13.1,29.6,46.1,37.1,76,24.5L3151.6,1617.8z"/>
	<path class="st35" d="M3428.9,1621.3l-218.8,92.4c-28.9,12.1-62.1-1.4-74.3-30.3c-12-28.4,1-61.2,29.2-73.8l176.7-78.4
		c20.1-8.9,31.2-30.6,26.8-52.1l-40-195.5c-0.8-3.9-1.2-8-1.2-12c0-33,26.8-59.7,59.8-59.6c25.1,0,47.5,15.8,56.1,39.4
		c1,2.7,1.8,5.5,2.3,8.3l50.8,231.1C3508.3,1544.9,3479.9,1599.8,3428.9,1621.3z"/>
	<path class="st37" d="M3428.8,1621.2l-218.8,92.4c-7,3-14.5,4.5-22.1,4.5c-2.7,0-5.3-0.2-8-0.6c89.4-32.6,172-86.9,220.7-166.8
		c33.9-55.6,45.6-120.8,47.2-185.1c0.2-9-1.6-65.4-4.7-114.4c1,2.7,1.7,5.5,2.3,8.3l50.8,231.1
		C3508.2,1544.7,3479.8,1599.6,3428.8,1621.2z"/>
	<path class="st15" d="M3337.9,1016.3c-1.8,1.4-2.9,3.6-3.8,5.7c-1.7,4-3.2,8.6-1.3,12.5c2.1,4.2,7.4,5.8,12.1,6s10.2-1.2,11.8-5.6
		c-0.5,1.3-5.8-3.7-6.2-4.3c-2.1-3.7,0.2-6-0.4-9.5C3349.2,1015.7,3343.2,1012.3,3337.9,1016.3z"/>
	<path class="st7" d="M3357.1,1006c-9.9,4.9-20.8,7.5-31.8,7.5c-37.1,0-67.2-28.1-67.2-62.7c0-2.3,0.1-4.6,0.4-6.9
		c-15.7,8-34.4,7.2-49.3-2.1c-7.6,12.1-18.4,21.9-31.2,28.3c-12,6-25.2,9.1-38.6,9.1c-7.1,0-14.2-0.9-21.1-2.6V878h213.5v124.2
		c3-1.1,6.1-1.7,9.3-1.7c0.3,0,0.5,0,0.8,0s0.7,0,1,0h0.5c0.3,0,0.5,0,0.8,0.1c0.5,0,1,0.1,1.5,0.2c0.3,0.1,0.7,0.1,1,0.2
		s0.9,0.2,1.4,0.3c0.8,0.2,1.7,0.5,2.5,0.8c0.5,0.2,1.1,0.4,1.6,0.7l0.7,0.4h0.1l0.7,0.4l0.8,0.4l0.7,0.5l1,0.7l0,0L3357.1,1006z"/>
	<path class="st10" d="M3379.2,892.5c2.9-7.1,4.4-14.7,4.4-22.3c0-34.6-30.1-62.7-67.2-62.7h-0.7c-13.4-23.2-40-39-70.8-39
		c-36.9,0-67.9,22.8-77.1,53.8c-7.1-1.8-14.3-2.7-21.6-2.7c-44.1,0-79.9,32.7-79.9,72.9s35.8,72.9,79.9,72.9
		c30,0,56.1-15.1,69.8-37.4c14.9,9.3,33.6,10.1,49.3,2.1c-0.3,2.3-0.4,4.6-0.4,6.9c0,34.6,30.1,62.7,67.2,62.7s67.2-28.1,67.2-62.7
		C3399.2,919.7,3391.5,903.9,3379.2,892.5z"/>
	<path class="st4" d="M2826.9,1226.4l-19.3,143.9c-0.8,6.2-6.5,10.5-12.6,9.7l-59.8-8c-6.2-0.8-10.5-6.5-9.7-12.6c0,0,0,0,0,0
		l0.3-1.9c20.7-78.2,49-154.3,84.3-227.1c-0.2,14.5,2.9,28.8,8.8,42l0,0C2826.6,1189.3,2829.4,1208,2826.9,1226.4z"/>
	<path class="st44" d="M2805.3,1375.9c-2.5,3.1-6.4,4.7-10.3,4.1l-39.3-5.3c-5.9-33.8-12.1-67.5-18.6-101.2l7.8-58.1
		c2.1-15.5,7.8-30.3,16.7-43.2C2777.3,1239.8,2798.4,1307.2,2805.3,1375.9z"/>
	<path class="st0" d="M1346,812.7c0,19.5-15.8,35.3-35.3,35.3c-19.5,0-35.3-15.8-35.3-35.3c0-19.5,15.8-35.3,35.3-35.3
		C1330.2,777.4,1346,793.2,1346,812.7C1346,812.7,1346,812.7,1346,812.7z"/>
	<path class="st0" d="M1289.2,1038.1c0,36.5-29.5,66-66,66s-66-29.5-66-66s29.5-66,66-66S1289.2,1001.7,1289.2,1038.1L1289.2,1038.1
		z"/>
</g>
</svg>
