<svg id="Layer_1" data-name="Layer 1" xmlns="http://www.w3.org/2000/svg" viewBox="0 0 3373.27 2400.05"><defs><style>.cls-1{fill:#c8e9f1;}.cls-2{opacity:0.4;}.cls-3,.cls-4{fill:#72d6e5;}.cls-4{opacity:0.73;}.cls-18,.cls-24,.cls-25,.cls-37,.cls-4,.cls-5{isolation:isolate;}.cls-16,.cls-5{fill:#fff;}.cls-5{opacity:0.3;}.cls-6{fill:#c0dbeb;}.cls-7{opacity:0.62;}.cls-25,.cls-8{fill:#004f66;}.cls-9{fill:#3c3c3b;}.cls-10,.cls-24{fill:#ff6a0d;}.cls-11{fill:#878787;}.cls-12{fill:#b2b2b2;}.cls-13{fill:#9d9d9c;}.cls-14{fill:#575756;}.cls-15{fill:#8df;}.cls-17{fill:#009fc4;}.cls-18,.cls-37{fill:#fefefe;}.cls-18{opacity:0.24;}.cls-19{fill:#008196;}.cls-20{fill:#0a6d77;}.cls-21{fill:#ffbc5a;}.cls-22{fill:#ffa710;}.cls-23{fill:#00d6bc;}.cls-24{opacity:0.5;}.cls-25{opacity:0.44;}.cls-26{fill:#fc9f7e;}.cls-27{fill:#008c7e;}.cls-28{fill:#095996;}.cls-29{fill:#197daf;}.cls-30{fill:#00b1a0;}.cls-31{fill:#f5785c;}.cls-32{fill:#ff9e83;}.cls-33{fill:#ff8e69;}.cls-34{fill:#d6f4f4;}.cls-35{fill:#642425;}.cls-36{fill:#89454e;}.cls-37{opacity:0.48;}.cls-38{fill:#ffcab0;}.cls-39{fill:#ffb699;}.cls-40{fill:#c2172a;}</style></defs><title>9</title><g id="_09" data-name=" 09"><path class="cls-1" d="M3982.8,2075.05a952.53,952.53,0,0,1-102.29,429.77q-16.29,32.28-34.86,63.28-9.77,16.3-20.15,32.19a1002.89,1002.89,0,0,1-60.91,83.6c-304.67,41-807.71,67.77-1376.7,67.77q-39.88,0-79.29-.17c-4,0-8,0-12-.07q-22.41-.11-44.66-.29-32.13-.24-63.91-.6-33.18-.39-66-.88-8.94-9.3-17.66-18.81c-1.08-1.16-2.14-2.34-3.2-3.5q-31.93-35.21-60.43-73.15-4.87-6.49-9.63-13.07c-1.9-2.58-3.75-5.17-5.6-7.76q-31.47,1.74-63.37,1.76-22.62,0-45.05-.89c-.32.73-.63,1.45-1,2.18-1,2.27-2,4.52-3,6.77-1.16,2.58-2.34,5.16-3.56,7.72a553.48,553.48,0,0,1-55.09,92.56c-142-4.49-275.5-10.73-397.8-18.44q-66-4.17-127.54-8.91-52.14-4-100.78-8.38-36-3.26-70-6.7-12.64-1.28-25-2.6l-6.14-.64-2.29-.26c-2-.2-3.88-.42-5.8-.63-7.7-.8-15.3-1.66-22.81-2.53l-9-1L1075.9,2692c-2.71-.31-5.4-.63-8.1-1-2.31-.27-4.62-.56-6.9-.81-3.3-.42-6.59-.82-9.85-1.22h-.3c-5.66-.72-11.27-1.42-16.81-2.14l-1.73-.21-13.61-1.78-4.48-.59c-1.41-.19-2.83-.37-4.24-.57l-5.86-.79-3.22-.45c-1.22-.16-2.42-.31-3.64-.5h0l-2.94-.41-8.1-1.14-5.12-.73-5.08-.73-2.25-.35c-1.65-.24-3.3-.47-4.93-.73-.91-.12-1.81-.25-2.71-.4l-5.4-.8-1.76-.27-5.72-.88c-5-.74-9.87-1.53-14.7-2.31-1.81-.3-3.6-.57-5.38-.87l-1.49-.23-7.41-1.23-1.36-.22-2.16-.37-7-1.18-1.19-.2q-10.51-20.41-19.37-41.79-4.41-10.62-8.38-21.48-3.53-9.59-6.68-19.36a552.43,552.43,0,0,1-18.17-72.35h0a556.78,556.78,0,0,1,115.68-449.7c-96-166.84-151-360.33-151-566.65,0-196.92,50-382.14,138.08-543.67q9.6-17.6,19.77-34.82,28.38-47.93,61.19-92.73,9.53-13,19.43-25.79,4.7-6,9.45-12,6.43-8.07,13-16,8-9.69,16.28-19.23,6.72-7.79,13.62-15.46a1143,1143,0,0,1,102.5-100.66q17.23-14.93,35.07-29.17a1139,1139,0,0,1,119-83.18q18.15-11.05,36.73-21.43a1131,1131,0,0,1,451.77-139q18.28-1.6,36.74-2.65,32.22-1.8,64.88-1.82a1133.32,1133.32,0,0,1,655,207.43q37.13,26.19,72,55.22,20.28,16.86,39.77,34.66a1142.77,1142.77,0,0,1,212.73,261.56q24.75,41.79,46,85.84,2.47,5.1,4.87,10.24,11.64,24.75,22.09,50.17c1.27,3.13,2.55,6.27,3.81,9.41q44,4,87,11.33,17.85,3,35.49,6.62c3.81.78,7.61,1.56,11.41,2.38s7.33,1.59,11,2.41a1108.64,1108.64,0,0,1,142,42q17.52,6.48,34.72,13.54,14.88,6.06,29.51,12.58,7.1,3.14,14.14,6.38l4.1,1.89q23,10.73,45.4,22.47h0l5.89,3.11q6.24,3.3,12.4,6.7,7.29,4,14.53,8.11a1069,1069,0,0,1,174.52,123.69C3851.06,1521.33,3982.8,1783.71,3982.8,2075.05Z" transform="translate(-653.35 -359.95)"/><g class="cls-2"><path class="cls-3" d="M3105.4,1135.49v-49.63q-42.95-7.3-87-11.33c-1.26-3.14-2.54-6.28-3.81-9.41q-10.46-25.39-22.09-50.17-2.4-5.15-4.87-10.24-21.16-44-46-85.84A1142.56,1142.56,0,0,0,2729,657.31q-19.47-17.79-39.77-34.66-34.84-29-72-55.22V1358.3L2470,1380a58.24,58.24,0,0,1-38.23-7.54,352.74,352.74,0,0,0-107-246.58l-5.93-15.67a74.35,74.35,0,0,0-82-47c-1.5-.75-3-1.52-4.53-2.25a61.5,61.5,0,0,1,11.4,1.18c-.06,0-3.23-3-7.9-7.43a80.42,80.42,0,0,0-28.78-17.48v-52l2.22-.71a113.88,113.88,0,0,0,78-108.09V761.14a63,63,0,0,0-11.56-123.43A50.88,50.88,0,0,0,2198,594.24c-1.36.85-2.68,1.75-3.95,2.73a89,89,0,0,0-109.93,12.34A63,63,0,0,0,2020.8,670a89,89,0,0,0-25.37,110.24,63.06,63.06,0,0,0,39.37,94.47,89,89,0,0,0,36.35,51.45,112.84,112.84,0,0,0,12.64,20.29v79.19c-1.34,0-2.69-.06-4-.06H2078a118.77,118.77,0,0,0-118.75,118.75v30.87c-37.51,3.4-127.75,21.39-177.44,114.28a225.29,225.29,0,0,0-31.92,116v145.9h-228.4c-1.21,0-2.4,0-3.59.08a69.07,69.07,0,0,0-65.46,69v976.45A100.65,100.65,0,0,0,1553,2697.42h207.53a100.67,100.67,0,0,0,100.65-100V2326.86l32.24-37.41,76.37-88.61v169.58a41.72,41.72,0,0,0,7.06,23.19,30,30,0,0,0-7.2,19.53v3.41a30.13,30.13,0,0,0,22.73,29.21l-2.83,41.91c-7.9,1.62-14.9,7.62-20.15,14.72-.14-.11-.27-.21-.4-.33-2.19,3.89-4.4,7.79-6.61,11.66-1.06,1.81-2.18,3.73-2.74,4.83l-14.71,26c-1.85,3.28-3.91,6.48-6.09,9.61-10,14.25-22.49,27.13-30.13,42.63-11.53,23.4-9.18,27.43,7.37,39.63,1.22.91,2.52,1.85,3.9,2.86,35.12,25.58,77.09,48.82,117,67.58a382.21,382.21,0,0,0,67.36,24c47.76,12.36,97.62,17,147.55,20.29q17.71,1.18,35.4,2.22c9.07.55,8.9.05,9.26-1.93a3.43,3.43,0,0,1,.17-.78,61.62,61.62,0,0,0,1.65-24.73l3-.2s11.23-22.65,5.35-36.35c-2.8-6.54-9.48-11.06-23.13-10.1-28.47-4.57-52.56-10.22-73-18.8h124.5c4.33,0,7.9-1.56,7.9-3.47v-21.88c1.05-1.42,27.51-39.09-13.69-50.44,0,0-110.65-16.1-171.91-101.23l-2.92-21.16,2.56-6.12c15.17,3.3,31.16-3.86,37.44-17.58l1.44-3.14a28,28,0,0,0,2.31-15.66,60.68,60.68,0,0,0,20.47-25.8l128.53-309.87a157.36,157.36,0,0,0,12.11-60.4v-395a353.3,353.3,0,0,0,51.4-94,143.78,143.78,0,0,0,27.49-1.86l178.95-29.64v415l-52.74-22.79-80.13-34.63v-73.69a60.54,60.54,0,1,0-121.07-1.55c0,.52,0,1,0,1.55V2210.8a60.54,60.54,0,0,0,121.07,1.55c0-.52,0-1,0-1.55V2162l142,164.79v270.8a99.75,99.75,0,0,0,99.73,99.75h209.32c2,0,3.95-.06,5.91-.18l1.76-.13c.81-.05,1.61-.13,2.4-.2h.14l2.5-.29c.83-.11,1.66-.23,2.48-.36l2.34-.37c1.09-.2,2.18-.4,3.24-.63.58-.12,1.17-.26,1.76-.4.8-.17,1.61-.38,2.39-.59,1.47-.36,2.92-.77,4.35-1.2,1.69-.54,3.37-1.09,5-1.71.77-.27,1.52-.56,2.28-.86s1.5-.6,2.25-.92c1.52-.63,3-1.3,4.47-2,.79-.38,1.58-.79,2.36-1.19l1.9-1c.71-.39,1.41-.78,2.1-1.18s1.39-.8,2.08-1.23,1.36-.83,2-1.26l1.63-1.06,1.55-1.06c1-.71,2-1.44,3-2.18.5-.38,1-.75,1.48-1.15,1.32-1,2.62-2.09,3.9-3.18.42-.39.85-.76,1.25-1.14,1-.9,2-1.83,3-2.78.39-.36.78-.74,1.13-1.13a95.33,95.33,0,0,0,7.78-8.78c.5-.63,1-1.26,1.46-1.91s1.16-1.56,1.72-2.35c.36-.51.72-1,1.06-1.55s.89-1.33,1.32-2,.86-1.37,1.28-2,.83-1.38,1.23-2.07.79-1.4,1.16-2.11.76-1.42,1.13-2.13.73-1.44,1.08-2.17.69-1.46,1-2.19c1-2.15,1.87-4.35,2.7-6.57v-.17c.29-.78.55-1.54.82-2.33s.58-1.73.85-2.61c.2-.68.41-1.37.6-2.06s.43-1.58.65-2.37.4-1.6.58-2.41c.15-.58.26-1.16.39-1.75s.22-1,.33-1.57a2.58,2.58,0,0,1,.12-.59c.1-.57.2-1.16.3-1.75s.18-1.1.25-1.68c.15-.81.26-1.66.36-2.48.07-.59.15-1.19.2-1.79.13-1.08.25-2.15.32-3.24.06-.72.1-1.44.13-2.15.11-1.82.16-3.67.16-5.52V2158.55a173.73,173.73,0,0,0,57.43-73.73c1.52-3.69,2.89-7.45,4.16-11.28a170.28,170.28,0,0,0,7.27-32c.13-.88.23-1.77.33-2.67a174.22,174.22,0,0,0,1.09-19.65V1163.41h0v-27.92ZM1969.82,2118.38l-89.91,104.33-18.7-92.16V1980.91L1969.82,1934Zm0-243-108.61,46.92V1726.23h98v22.43c3.55,1.16,7.07,2.25,10.6,3.3Zm656.51,369-142-164.79v-160l93.16,40.24L2617.2,1977v42.26a174.23,174.23,0,0,0,1.1,19.65,172.07,172.07,0,0,0,8,36Z" transform="translate(-653.35 -359.95)"/><path class="cls-4" d="M3640.55,1337.74v681.71c0,1.74,0,3.43-.08,5.14a22.09,22.09,0,0,1-.11,2.71c-.11.89-.09,1.8-.14,2.69a6.06,6.06,0,0,1-.08,1.21,9.56,9.56,0,0,0-.1,1.17q-.23,3.27-.6,6.5c-.13,1-.24,2-.37,3-.26,2-.56,4-.88,6s-.68,4-1.09,5.89q-1.36,6.84-3.28,13.45c-.19.63-.37,1.26-.56,1.88-.47,1.59-1,3.17-1.49,4.75-.62,1.85-1.26,3.71-1.95,5.53s-1.39,3.67-2.12,5.47h0c-.63,1.58-1.3,3.13-2,4.69-.18.41-.36.83-.56,1.23-.52,1.19-1.08,2.38-1.67,3.54-.46,1-.91,1.91-1.4,2.86a.35.35,0,0,1-.06.14c-.52,1-1,2-1.56,3l-.07.11c-.48.89-1,1.81-1.47,2.68-.7,1.32-1.45,2.63-2.22,3.9-.36.62-.72,1.24-1.1,1.84q-2.06,3.42-4.29,6.72c-.59.89-1.18,1.75-1.79,2.61s-1,1.52-1.61,2.27c-.67,1-1.38,1.91-2.09,2.84l-1.91,2.51c-.65.83-1.29,1.63-2,2.45-3.06,3.77-6.28,7.43-9.67,10.93-.48.51-1,1-1.5,1.55-2,2-4,4-6.07,5.88-.77.71-1.56,1.42-2.34,2.1s-1.86,1.64-2.81,2.44-2.2,1.87-3.32,2.75q-2.8,2.29-5.67,4.41a5.32,5.32,0,0,1-.47.36c-1.76,1.29-3.57,2.56-5.39,3.81l-3,2c-1,.67-2,1.31-3,1.94s-1.75,1.07-2.65,1.62c-.58.36-1.13.69-1.71,1l-1.45.83a4.82,4.82,0,0,1-.5.27l-2.94,1.62q-4.07,2.21-8.23,4.16c-.52.27-1.06.5-1.61.75-1.63.77-3.29,1.49-5,2.19-.26.11-.51.23-.77.33-2.41,1-4.85,2-7.3,2.84-.63.23-1.28.44-1.91.69-1.06.37-2.12.74-3.2,1.07-.38.15-.76.26-1.13.39l-2.75.85a173.72,173.72,0,0,1-17.11,4.23c-2.14.41-4.3.78-6.47,1.13-1.09.16-2.16.32-3.27.46s-2.18.3-3.26.41c-1.28.15-2.56.28-3.85.39-.67.07-1.36.14-2,.19l-1.36.11-1.28.09c-.83.06-1.68.1-2.51.14-.48,0-1,.06-1.52.06-1.22.07-2.43.1-3.65.13s-2.59,0-3.88,0H3321.71c-2.92-.06-5.86-.19-8.76-.4l-2.65-.23c-.76-.06-1.49-.12-2.25-.2-1.47-.15-2.91-.3-4.35-.49h-.3c-1.23-.16-2.47-.32-3.67-.51a5.53,5.53,0,0,1-.83-.11c-1.42-.23-2.84-.46-4.26-.72s-2.94-.54-4.4-.86c-.75-.14-1.49-.3-2.24-.47-1.42-.32-2.82-.63-4.23-1l-1.78-.44-.17-.05c-1.49-.39-3-.79-4.45-1.22-3.38-1-6.74-2.06-10-3.25-1-.33-2-.7-2.89-1.06s-1.61-.61-2.4-.92c-1.07-.42-2.12-.85-3.18-1.29-.49-.22-1-.42-1.48-.63l-.44-.19-1.38-.6-1.89-.85c-.94-.43-1.9-.87-2.81-1.32-1.09-.51-2.16-1-3.23-1.59-4.26-2.13-8.4-4.46-12.45-6.94q-1.5-.93-3-1.89a16.86,16.86,0,0,1-1.49-1h0c-.49-.32-1-.65-1.44-1-1-.66-2-1.34-2.94-2q-2.89-2-5.73-4.17c-.94-.72-1.87-1.45-2.8-2.18-1.72-1.36-3.4-2.77-5.08-4.2-.73-.62-1.44-1.25-2.15-1.9l-1.76-1.59c-.59-.53-1.21-1.1-1.79-1.66-.78-.73-1.55-1.46-2.31-2.21s-1.54-1.51-2.28-2.27c-1-1-2-2-2.93-3-.79-.83-1.56-1.68-2.33-2.53L3195,2133l-1.6-1.9c-.22-.24-.42-.47-.63-.73-.48-.59-1-1.15-1.44-1.73l-.67-.85c-.56-.67-1.08-1.33-1.61-2-1.3-1.67-2.56-3.33-3.8-5q-2.79-3.83-5.35-7.81-3.43-5.29-6.46-10.88c-2-3.72-3.9-7.5-5.67-11.39-.9-1.92-1.73-3.87-2.55-5.85-.31-.82-.65-1.64-1-2.44-.93-2.41-1.83-4.84-2.66-7.31-.35-1.06-.72-2.14-1.05-3.21s-.67-2.18-1-3.27c-.19-.61-.36-1.19-.52-1.8-.34-1.19-.67-2.38-1-3.55-.62-2.33-1.16-4.66-1.68-7-.27-1.29-.54-2.59-.79-3.88-.44-2.22-.81-4.46-1.17-6.69s-.65-4.52-.89-6.8a174.25,174.25,0,0,1-1.12-19.65V1094.86q5.51,1.19,11,2.41,8.6,18.92,16.53,38.22c1.31,3.18,2.61,6.39,3.9,9.59q38,3.47,75.17,9.34,25.13,3.94,49.82,9a1128,1128,0,0,1,124.48,32.72h0l5.89,3.11q6.24,3.3,12.4,6.7,7.29,4,14.53,8.11A1068.48,1068.48,0,0,1,3640.55,1337.74Z" transform="translate(-653.35 -359.95)"/></g><path class="cls-5" d="M2740.2,1485.67c0,511.93-252.15,965-639,1241.67q-31.93-35.21-60.43-73.15-4.87-6.49-9.63-13.07c-1.9-2.58-3.75-5.17-5.6-7.76q-31.47,1.74-63.37,1.76-22.62,0-45.05-.89-1.93,4.5-4,8.95c-1.16,2.58-2.34,5.16-3.56,7.72a553.48,553.48,0,0,1-55.09,92.56c-142-4.49-275.5-10.73-397.8-18.44q-66-4.17-127.54-8.91-52.14-4-100.78-8.38-36-3.26-70-6.7-12.64-1.28-25-2.6l-6.14-.64-2.29-.26c-2-.2-3.88-.42-5.8-.63-7.7-.8-15.3-1.66-22.81-2.53l-9-1L1075.9,2692c-2.71-.31-5.4-.63-8.1-1-2.31-.27-4.62-.56-6.9-.81-3.3-.42-6.59-.82-9.85-1.22h-.3c-5.66-.72-11.27-1.42-16.81-2.14l-1.73-.21-13.61-1.78-4.48-.59c-1.41-.19-2.83-.37-4.24-.57l-5.86-.79-3.22-.45c-1.22-.16-2.42-.31-3.64-.5h0l-2.94-.41-8.1-1.14-5.12-.73-5.08-.73-2.25-.35c-1.65-.24-3.3-.47-4.93-.73-.91-.12-1.81-.25-2.71-.4l-5.4-.8-1.76-.27-5.72-.88c-5-.74-9.87-1.53-14.7-2.31-1.81-.3-3.6-.57-5.38-.87l-1.49-.23-7.41-1.23-1.36-.22-2.16-.37-7-1.18-1.19-.2q-10.51-20.41-19.37-41.79-4.41-10.62-8.38-21.48-3.53-9.59-6.68-19.36a552.43,552.43,0,0,1-18.17-72.35h0a556.78,556.78,0,0,1,115.68-449.7c-96-166.84-151-360.33-151-566.65,0-196.92,50-382.14,138.08-543.67q9.6-17.6,19.77-34.82,28.38-47.93,61.19-92.73,9.53-13,19.43-25.79,4.7-6,9.45-12,6.43-8.07,13-16,8-9.69,16.28-19.23,6.72-7.79,13.62-15.46a1143,1143,0,0,1,102.5-100.66q17.23-14.93,35.07-29.17a1139,1139,0,0,1,119-83.18q18.15-11.05,36.73-21.43a1131,1131,0,0,1,451.77-139q18.28-1.6,36.74-2.65,32.22-1.8,64.88-1.82a1136.92,1136.92,0,0,1,334.18,49.89C2570.66,685.73,2740.2,1065.9,2740.2,1485.67Z" transform="translate(-653.35 -359.95)"/><path class="cls-6" d="M3466,1214.05v717.21c0,1.7,0,3.37-.09,5h0c0,.89,0,1.76-.1,2.65s-.08,1.76-.14,2.64a6.46,6.46,0,0,1-.07,1.17,11.3,11.3,0,0,0-.09,1.17c-.16,2.13-.36,4.26-.6,6.36q-.16,1.49-.36,2.94c-.26,2-.54,3.92-.86,5.85s-.67,3.87-1.06,5.78q-1.35,6.69-3.23,13.18c-.17.62-.36,1.23-.54,1.84q-.69,2.34-1.46,4.64c-.61,1.82-1.24,3.64-1.91,5.44s-1.36,3.58-2.08,5.35h0c-.62,1.55-1.28,3.07-2,4.59-.17.41-.36.82-.54,1.22-.52,1.16-1.07,2.32-1.64,3.47q-.66,1.4-1.38,2.79a.21.21,0,0,1,0,.13c-.51,1-1,2-1.54,3a.24.24,0,0,1-.07.12c-.46.87-.93,1.76-1.43,2.62-.69,1.29-1.42,2.57-2.18,3.83-.35.6-.71,1.2-1.08,1.79-1.33,2.24-2.74,4.43-4.2,6.6-.57.86-1.15,1.7-1.75,2.55s-1,1.49-1.58,2.22c-.66,1-1.34,1.87-2,2.79s-1.24,1.64-1.88,2.45l-1.9,2.41q-4.5,5.55-9.47,10.69c-.48.52-1,1-1.47,1.52q-2.89,3-6,5.77c-.74.7-1.52,1.39-2.28,2.06-.91.81-1.83,1.61-2.75,2.4-1.07.92-2.16,1.82-3.27,2.69-1.82,1.48-3.67,2.91-5.55,4.32-.16.12-.3.23-.46.33h0c-1.73,1.27-3.5,2.51-5.27,3.75-1,.66-1.95,1.3-2.94,2s-2,1.27-3,1.89l-2.59,1.59c-.56.35-1.12.68-1.68,1s-.93.55-1.42.82a4.67,4.67,0,0,1-.49.27q-1.44.83-2.88,1.59-4,2.16-8.06,4.08c-.51.25-1,.48-1.58.73-1.6.76-3.22,1.46-4.86,2.15l-.76.31q-3.54,1.5-7.15,2.79l-1.87.67c-1,.37-2.08.73-3.14,1.06l-1.1.37-2.7.84a166.62,166.62,0,0,1-16.76,4.14c-2.09.4-4.22.77-6.34,1.1-1.06.16-2.12.32-3.2.46s-2.13.29-3.21.4c-1.25.15-2.49.28-3.76.39-.66.07-1.33.13-2,.17-.45,0-.89.09-1.35.12l-1.25.08-2.45.15c-.49,0-1,0-1.49,0-1.19.08-2.4.11-3.59.13s-2.52.05-3.78.05h-139c-1.25,0-2.5,0-3.73-.05-2.87,0-5.74-.18-8.57-.4l-2.61-.21c-.75-.06-1.47-.12-2.2-.2-1.43-.15-2.85-.31-4.26-.49h-.3c-1.2-.16-2.41-.32-3.6-.5a2.84,2.84,0,0,1-.81-.12c-1.4-.21-2.79-.44-4.18-.7s-2.87-.53-4.3-.83c-.73-.14-1.46-.3-2.19-.47-1.39-.31-2.77-.62-4.15-1l-1.75-.44h-.17c-1.45-.38-2.9-.78-4.34-1.19q-5-1.44-9.86-3.19c-.94-.33-1.9-.68-2.84-1-.78-.29-1.57-.59-2.35-.91-1-.4-2.08-.81-3.11-1.26-.49-.2-1-.4-1.45-.62a3.38,3.38,0,0,1-.44-.18c-.46-.19-.9-.39-1.35-.59-.62-.27-1.23-.54-1.85-.83-.92-.42-1.85-.85-2.75-1.29-1.06-.5-2.11-1-3.16-1.55q-6.26-3.14-12.2-6.81c-1-.6-2-1.22-2.95-1.85-.49-.3-1-.62-1.47-.95h0c-.47-.3-.93-.63-1.41-.93-1-.64-1.92-1.3-2.86-2-1.91-1.32-3.78-2.68-5.63-4.1-.91-.71-1.83-1.42-2.73-2.14-1.7-1.33-3.34-2.71-5-4.12-.72-.6-1.42-1.22-2.11-1.85s-1.16-1-1.73-1.56-1.18-1.08-1.75-1.62c-.76-.72-1.52-1.43-2.27-2.17s-1.5-1.47-2.24-2.22c-1-1-1.92-2-2.86-3-.78-.81-1.52-1.63-2.28-2.46s-1.41-1.57-2.11-2.37c-.53-.62-1.06-1.23-1.58-1.85-.21-.24-.41-.47-.61-.72-.48-.57-1-1.13-1.41-1.7-.23-.27-.44-.55-.66-.83-.54-.66-1.06-1.31-1.58-2-1.27-1.62-2.51-3.26-3.73-4.94q-2.73-3.73-5.23-7.65-3.37-5.19-6.34-10.66t-5.55-11.15c-.89-1.9-1.7-3.8-2.49-5.74l-1-2.39c-.92-2.36-1.8-4.75-2.61-7.16-.35-1-.71-2.09-1-3.16s-.66-2.13-1-3.19c-.19-.59-.36-1.18-.52-1.77-.33-1.16-.66-2.32-1-3.48-.6-2.28-1.15-4.56-1.65-6.87-.27-1.26-.53-2.52-.77-3.79-.43-2.18-.8-4.37-1.15-6.56s-.63-4.43-.87-6.66a169.68,169.68,0,0,1-1.09-19.26V1004.71q2.48,5.1,4.87,10.24,11.64,24.75,22.09,50.17c1.27,3.13,2.55,6.27,3.81,9.41q37.21,3.39,73.66,9.15,24.62,3.87,48.82,8.8a1110.7,1110.7,0,0,1,164.43,46.79h3.73a42.18,42.18,0,0,1,31,13.54q14.88,6.06,29.51,12.58,7.1,3.13,14.14,6.38l4.1,1.89q26.05,12.15,51.31,25.58,6.24,3.3,12.4,6.7Q3458.79,1209.92,3466,1214.05Z" transform="translate(-653.35 -359.95)"/><path class="cls-6" d="M2941.68,918.87V1931a169.67,169.67,0,0,1-1.08,19.26c-.1.88-.2,1.75-.31,2.61a166.8,166.8,0,0,1-7.13,31.36q-1.85,5.63-4.07,11A169.77,169.77,0,0,1,2772,2100.75H2633a169.66,169.66,0,0,1-169.7-169.62V476.1a1137.86,1137.86,0,0,1,225.88,146.55q20.28,16.86,39.77,34.66A1142.77,1142.77,0,0,1,2941.68,918.87Z" transform="translate(-653.35 -359.95)"/><g class="cls-7"><path class="cls-8" d="M2941.68,918.87V1931a169.67,169.67,0,0,1-1.08,19.26c-.1.88-.2,1.75-.31,2.61a166.8,166.8,0,0,1-7.13,31.36q-1.85,5.63-4.07,11A169.77,169.77,0,0,1,2772,2100.75H2633a169.66,169.66,0,0,1-169.7-169.62V476.1a1137.86,1137.86,0,0,1,225.88,146.55q20.28,16.86,39.77,34.66A1142.77,1142.77,0,0,1,2941.68,918.87Z" transform="translate(-653.35 -359.95)"/><path class="cls-9" d="M3466,1214.05v717.21c0,1.7,0,3.37-.09,5h0c0,.89,0,1.76-.1,2.65s-.08,1.76-.14,2.64a6.46,6.46,0,0,1-.07,1.17,11.3,11.3,0,0,0-.09,1.17c-.16,2.13-.36,4.26-.6,6.36q-.16,1.49-.36,2.94c-.26,2-.54,3.92-.86,5.85s-.67,3.87-1.06,5.78q-1.35,6.69-3.23,13.18c-.17.62-.36,1.23-.54,1.84q-.69,2.34-1.46,4.64c-.61,1.82-1.24,3.64-1.91,5.44s-1.36,3.58-2.08,5.35h0c-.62,1.55-1.28,3.07-2,4.59-.17.41-.36.82-.54,1.22-.52,1.16-1.07,2.32-1.64,3.47q-.66,1.4-1.38,2.79a.21.21,0,0,1,0,.13c-.51,1-1,2-1.54,3a.24.24,0,0,1-.07.12c-.46.87-.93,1.76-1.43,2.62-.69,1.29-1.42,2.57-2.18,3.83-.35.6-.71,1.2-1.08,1.79-1.33,2.24-2.74,4.43-4.2,6.6-.57.86-1.15,1.7-1.75,2.55s-1,1.49-1.58,2.22c-.66,1-1.34,1.87-2,2.79s-1.24,1.64-1.88,2.45l-1.9,2.41q-4.5,5.55-9.47,10.69c-.48.52-1,1-1.47,1.52q-2.89,3-6,5.77c-.74.7-1.52,1.39-2.28,2.06-.91.81-1.83,1.61-2.75,2.4-1.07.92-2.16,1.82-3.27,2.69-1.82,1.48-3.67,2.91-5.55,4.32-.16.12-.3.23-.46.33h0c-1.73,1.27-3.5,2.51-5.27,3.75-1,.66-1.95,1.3-2.94,2s-2,1.27-3,1.89l-2.59,1.59c-.56.35-1.12.68-1.68,1s-.93.55-1.42.82a4.67,4.67,0,0,1-.49.27q-1.44.83-2.88,1.59-4,2.16-8.06,4.08c-.51.25-1,.48-1.58.73-1.6.76-3.22,1.46-4.86,2.15l-.76.31q-3.54,1.5-7.15,2.79l-1.87.67c-1,.37-2.08.73-3.14,1.06l-1.1.37-2.7.84a166.62,166.62,0,0,1-16.76,4.14c-2.09.4-4.22.77-6.34,1.1-1.06.16-2.12.32-3.2.46s-2.13.29-3.21.4c-1.25.15-2.49.28-3.76.39-.66.07-1.33.13-2,.17-.45,0-.89.09-1.35.12l-1.25.08-2.45.15c-.49,0-1,0-1.49,0-1.19.08-2.4.11-3.59.13s-2.52.05-3.78.05h-139c-1.25,0-2.5,0-3.73-.05-2.87,0-5.74-.18-8.57-.4l-2.61-.21c-.75-.06-1.47-.12-2.2-.2-1.43-.15-2.85-.31-4.26-.49h-.3c-1.2-.16-2.41-.32-3.6-.5a2.84,2.84,0,0,1-.81-.12c-1.4-.21-2.79-.44-4.18-.7s-2.87-.53-4.3-.83c-.73-.14-1.46-.3-2.19-.47-1.39-.31-2.77-.62-4.15-1l-1.75-.44h-.17c-1.45-.38-2.9-.78-4.34-1.19q-5-1.44-9.86-3.19c-.94-.33-1.9-.68-2.84-1-.78-.29-1.57-.59-2.35-.91-1-.4-2.08-.81-3.11-1.26-.49-.2-1-.4-1.45-.62a3.38,3.38,0,0,1-.44-.18c-.46-.19-.9-.39-1.35-.59-.62-.27-1.23-.54-1.85-.83-.92-.42-1.85-.85-2.75-1.29-1.06-.5-2.11-1-3.16-1.55q-6.26-3.14-12.2-6.81c-1-.6-2-1.22-2.95-1.85-.49-.3-1-.62-1.47-.95h0c-.47-.3-.93-.63-1.41-.93-1-.64-1.92-1.3-2.86-2-1.91-1.32-3.78-2.68-5.63-4.1-.91-.71-1.83-1.42-2.73-2.14-1.7-1.33-3.34-2.71-5-4.12-.72-.6-1.42-1.22-2.11-1.85s-1.16-1-1.73-1.56-1.18-1.08-1.75-1.62c-.76-.72-1.52-1.43-2.27-2.17s-1.5-1.47-2.24-2.22c-1-1-1.92-2-2.86-3-.78-.81-1.52-1.63-2.28-2.46s-1.41-1.57-2.11-2.37c-.53-.62-1.06-1.23-1.58-1.85-.21-.24-.41-.47-.61-.72-.48-.57-1-1.13-1.41-1.7-.23-.27-.44-.55-.66-.83-.54-.66-1.06-1.31-1.58-2-1.27-1.62-2.51-3.26-3.73-4.94q-2.73-3.73-5.23-7.65-3.37-5.19-6.34-10.66t-5.55-11.15c-.89-1.9-1.7-3.8-2.49-5.74l-1-2.39c-.92-2.36-1.8-4.75-2.61-7.16-.35-1-.71-2.09-1-3.16s-.66-2.13-1-3.19c-.19-.59-.36-1.18-.52-1.77-.33-1.16-.66-2.32-1-3.48-.6-2.28-1.15-4.56-1.65-6.87-.27-1.26-.53-2.52-.77-3.79-.43-2.18-.8-4.37-1.15-6.56s-.63-4.43-.87-6.66a169.68,169.68,0,0,1-1.09-19.26V1004.71q2.48,5.1,4.87,10.24,11.64,24.75,22.09,50.17c1.27,3.13,2.55,6.27,3.81,9.41q37.21,3.39,73.66,9.15,24.62,3.87,48.82,8.8a1110.7,1110.7,0,0,1,164.43,46.79h3.73a42.18,42.18,0,0,1,31,13.54q14.88,6.06,29.51,12.58,7.1,3.13,14.14,6.38l4.1,1.89q7,3.27,14,6.65,18.86,9.12,37.31,18.93,6.24,3.3,12.4,6.7l1.94,1.06Q3459.77,1210.46,3466,1214.05Z" transform="translate(-653.35 -359.95)"/><path class="cls-9" d="M2843.43,1921.78H2709.49a42.14,42.14,0,0,1-31.2-13.81l-9.56-10.52,256.41-94.16-58.6,104.92A26.47,26.47,0,0,1,2843.43,1921.78Z" transform="translate(-653.35 -359.95)"/><rect class="cls-9" x="2178.14" y="1400.15" width="110.19" height="100.16"/><rect class="cls-9" x="2334.29" y="1400.15" width="478.39" height="100.16"/><path class="cls-10" d="M2941.68,1692.69v93.7h-18.4a46.22,46.22,0,0,0-39.54,22.17l-7.9,12.83L2852,1860.27l-10,16.22a44.45,44.45,0,0,1-37.76,21H2668.79v-204.8Z" transform="translate(-653.35 -359.95)"/><rect class="cls-10" x="2334.29" y="1332.74" width="478.39" height="93.7"/><path class="cls-11" d="M2941.68,1810.36V1931a169.67,169.67,0,0,1-1.08,19.26c-.1.88-.2,1.75-.31,2.61a166.8,166.8,0,0,1-7.13,31.36,96.17,96.17,0,0,1-48.3-108.85h0a96.26,96.26,0,0,1,56.82-65Z" transform="translate(-653.35 -359.95)"/><path class="cls-11" d="M3073.89,1899.3c0,2.19-.07,4.37-.23,6.54a95.16,95.16,0,0,1-14.41,44.45c-1.39,2.2-2.85,4.33-4.4,6.4a96.66,96.66,0,0,1-20.29,20.1,95.57,95.57,0,0,1-35.28,16.12c-.93-2.35-1.79-4.73-2.62-7.14-.35-1-.71-2.09-1-3.16s-.66-2.13-1-3.19c-.19-.59-.36-1.18-.52-1.77-.33-1.16-.66-2.32-1-3.48q-.9-3.4-1.65-6.87c-.27-1.26-.53-2.52-.77-3.79-.43-2.18-.8-4.37-1.15-6.56s-.63-4.43-.87-6.66a169.68,169.68,0,0,1-1.09-19.26V1803.78a95.83,95.83,0,0,1,63,32.91,10.3,10.3,0,0,1,.8,1,95.65,95.65,0,0,1,20.52,42.49c.19.93.36,1.85.52,2.77A96.38,96.38,0,0,1,3073.89,1899.3Z" transform="translate(-653.35 -359.95)"/><path class="cls-12" d="M2941.68,1844.74V1931a169.67,169.67,0,0,1-1.08,19.26c-.1.88-.2,1.75-.31,2.61-1.19-.83-2.36-1.69-3.47-2.61a65.46,65.46,0,0,1,4.86-105.55Z" transform="translate(-653.35 -359.95)"/><path class="cls-12" d="M3043.36,1899.3a65.3,65.3,0,0,1-16.93,43.94c-.56.61-1.12,1.22-1.71,1.8a61.22,61.22,0,0,1-5.78,5.25,65,65,0,0,1-28.19,13.22c-.43-2.18-.8-4.37-1.15-6.56s-.63-4.43-.87-6.66a169.68,169.68,0,0,1-1.09-19.26v-96.5c1,.15,2,.33,3,.51a65.55,65.55,0,0,1,52.73,64.26Z" transform="translate(-653.35 -359.95)"/><path class="cls-11" d="M3427.6,1899.3a96,96,0,1,1-96-96A96,96,0,0,1,3427.6,1899.3Z" transform="translate(-653.35 -359.95)"/><path class="cls-13" d="M3397.08,1899.3a65.49,65.49,0,1,1-65.49-65.49h0A65.49,65.49,0,0,1,3397.08,1899.3Z" transform="translate(-653.35 -359.95)"/><rect class="cls-9" x="2389.99" y="1477.69" width="225.77" height="45.25"/><path class="cls-14" d="M3353.43,1848.68v44a28.64,28.64,0,0,1-5.52,16.67h0a39.52,39.52,0,0,1-14.42,12.16L3285.66,1946l-8.46,4.33-16.63,8.51c-1,.51-2.08,1-3.14,1.46a54.41,54.41,0,0,1-21,4.17h-152.9a53.73,53.73,0,0,1-22.9-5l-5.78-2.74-13.51-6.4-14.91-7-2.66-1.26-36.13-17.13v-80l5.78-.77,16-2.17,38.64-5.2h2.61l207.38.91h11.07l31.22,4.1h0l27.74,3.63Z" transform="translate(-653.35 -359.95)"/><path class="cls-9" d="M3466,1803.29v128c0,1.7,0,3.36-.07,5H3451v-133Z" transform="translate(-653.35 -359.95)"/><path class="cls-9" d="M3255.73,1893a12.85,12.85,0,0,1-12.85,12.85H3064.6a12.85,12.85,0,0,1-12.86-12.84h0a12.86,12.86,0,0,1,12.86-12.86h178.27a12.86,12.86,0,0,1,12.86,12.86Z" transform="translate(-653.35 -359.95)"/><path class="cls-3" d="M2941.68,1015v691.54h-272.9V1063.07a48,48,0,0,1,47.93-48.07h225Z" transform="translate(-653.35 -359.95)"/><path class="cls-1" d="M3466,1214.05v492.44H2987.64V1015h4.87q11.64,24.75,22.09,50.17c1.27,3.13,2.55,6.27,3.81,9.41q37.22,3.39,73.66,9.15,24.61,3.87,48.82,8.8a1110.7,1110.7,0,0,1,164.43,46.79h3.73a42.18,42.18,0,0,1,31,13.54q14.88,6.06,29.51,12.58,7.09,3.13,14.14,6.38l4.1,1.89q7,3.27,14,6.65,18.85,9.12,37.31,18.93,6.24,3.3,12.4,6.7l1.94,1.06Q3459.77,1210.46,3466,1214.05Z" transform="translate(-653.35 -359.95)"/><rect class="cls-13" x="2015.42" y="705.18" width="272.91" height="27.36"/><path class="cls-13" d="M3140.89,1092.48H2987.64v-27.36h27c1.27,3.13,2.55,6.27,3.81,9.41q37.22,3.39,73.66,9.15Q3116.7,1087.55,3140.89,1092.48Z" transform="translate(-653.35 -359.95)"/><path class="cls-15" d="M2749.2,1152.22h116.57a29.4,29.4,0,0,1,29.4,29.4v230.46a29.41,29.41,0,0,1-29.41,29.41H2749.2a29.4,29.4,0,0,1-29.4-29.4V1181.62A29.42,29.42,0,0,1,2749.2,1152.22Z" transform="translate(-653.35 -359.95)"/><path class="cls-16" d="M2865.78,1139.27H2749.19a42.39,42.39,0,0,0-42.36,42.36v230.46a42.39,42.39,0,0,0,42.36,42.36h116.59a41.25,41.25,0,0,0,6.75-.55,42.4,42.4,0,0,0,35.58-41.81V1181.63A42.39,42.39,0,0,0,2865.78,1139.27Zm16.43,272.82a16.46,16.46,0,0,1-16.43,16.46H2749.19a16.46,16.46,0,0,1-16.44-16.46V1181.63a16.48,16.48,0,0,1,16.44-16.46h116.59a16.47,16.47,0,0,1,16.43,16.46Z" transform="translate(-653.35 -359.95)"/><path class="cls-1" d="M2749.2,1152.22h116.57a29.4,29.4,0,0,1,29.4,29.4v230.46a29.41,29.41,0,0,1-29.41,29.41H2749.2a29.4,29.4,0,0,1-29.4-29.4V1181.62A29.42,29.42,0,0,1,2749.2,1152.22Z" transform="translate(-653.35 -359.95)"/><path class="cls-16" d="M2865.78,1139.27H2749.19a42.39,42.39,0,0,0-42.36,42.36v230.46a42.39,42.39,0,0,0,42.36,42.36h116.59a41.25,41.25,0,0,0,6.75-.55,42.4,42.4,0,0,0,35.58-41.81V1181.63A42.39,42.39,0,0,0,2865.78,1139.27Zm16.43,272.82a16.46,16.46,0,0,1-16.43,16.46H2749.19a16.46,16.46,0,0,1-16.44-16.46V1181.63a16.48,16.48,0,0,1,16.44-16.46h116.59a16.47,16.47,0,0,1,16.43,16.46Z" transform="translate(-653.35 -359.95)"/><path class="cls-16" d="M3383.69,1171.77V1689a14.14,14.14,0,0,1-14.14-14.14V1165.39Q3376.65,1168.53,3383.69,1171.77Z" transform="translate(-653.35 -359.95)"/><path class="cls-1" d="M3453.44,1207v221.45a19,19,0,0,1-19,19h-13.58a19,19,0,0,1-19-19V1180.31q18.85,9.12,37.31,18.93,6.24,3.3,12.4,6.7Z" transform="translate(-653.35 -359.95)"/><rect class="cls-1" x="2352.71" y="792.27" width="332.4" height="289.27" rx="29.41"/><path class="cls-16" d="M3340,1152.81a42.18,42.18,0,0,0-31-13.54H3035.4a42.39,42.39,0,0,0-42.33,42.36v230.46a42.39,42.39,0,0,0,42.33,42.36H3309a42.39,42.39,0,0,0,42.33-42.36V1181.63A42.2,42.2,0,0,0,3340,1152.81Zm-14.54,259.28a16.48,16.48,0,0,1-16.45,16.46h-273.6a16.48,16.48,0,0,1-16.44-16.46V1181.63a16.48,16.48,0,0,1,16.44-16.46H3309a16.48,16.48,0,0,1,16.45,16.46Z" transform="translate(-653.35 -359.95)"/><rect class="cls-16" x="2352.72" y="854.58" width="332.38" height="25.9"/><path class="cls-3" d="M2941.68,1744.87V1931a169.67,169.67,0,0,1-1.08,19.26c-.1.88-.2,1.75-.31,2.61a166.8,166.8,0,0,1-7.13,31.36q-1.85,5.63-4.07,11H2475.9a170.09,170.09,0,0,1-12.6-64.28V1744.87Z" transform="translate(-653.35 -359.95)"/><path class="cls-1" d="M3466,1744.87v186.39c0,1.7,0,3.36-.07,5,0,.89-.06,1.78-.12,2.65s-.08,1.76-.14,2.64a6.46,6.46,0,0,1-.07,1.17,11.3,11.3,0,0,0-.09,1.17c-.16,2.13-.36,4.26-.6,6.36q-.16,1.49-.36,2.94c-.26,2-.54,3.92-.86,5.85s-.67,3.87-1.06,5.78q-1.35,6.69-3.23,13.18c-.17.62-.36,1.23-.54,1.84q-.69,2.34-1.46,4.64c-.61,1.82-1.24,3.64-1.91,5.44s-1.36,3.58-2.08,5.35h-453.2c-.33-.79-.64-1.58-1-2.4-.93-2.35-1.79-4.73-2.62-7.14-.35-1-.71-2.09-1-3.16s-.66-2.13-1-3.19c-.19-.59-.36-1.18-.52-1.77-.33-1.16-.66-2.32-1-3.48-.6-2.28-1.15-4.56-1.65-6.87-.27-1.26-.53-2.52-.77-3.79-.43-2.18-.8-4.37-1.15-6.56s-.63-4.43-.87-6.66a169.68,169.68,0,0,1-1.09-19.26V1744.87Z" transform="translate(-653.35 -359.95)"/><path class="cls-17" d="M2940.6,1950.29c-.1.88-.2,1.75-.31,2.61a166.8,166.8,0,0,1-7.13,31.36q-1.85,5.63-4.07,11A169.78,169.78,0,0,1,2772,2100.75H2633a169.55,169.55,0,0,1-168.62-150.46Z" transform="translate(-653.35 -359.95)"/><path class="cls-17" d="M3464.94,1950.29q-.17,1.49-.36,2.94c-.26,2-.54,3.92-.86,5.85s-.67,3.87-1.06,5.78q-1.35,6.69-3.23,13.18c-.17.62-.36,1.23-.54,1.84q-.69,2.34-1.46,4.64c-.61,1.82-1.24,3.64-1.91,5.44s-1.36,3.58-2.08,5.35h0c-.62,1.55-1.28,3.07-2,4.59-.17.41-.36.82-.54,1.22-.52,1.16-1.07,2.32-1.64,3.47q-.66,1.4-1.38,2.79a.21.21,0,0,1-.05.13c-.51,1-1,2-1.54,3a.29.29,0,0,1-.07.12c-.46.87-.93,1.76-1.43,2.62-.69,1.29-1.42,2.57-2.18,3.83-.35.6-.71,1.2-1.08,1.79-1.33,2.24-2.74,4.43-4.2,6.6-.57.86-1.15,1.7-1.75,2.55s-1,1.49-1.58,2.22c-.66,1-1.34,1.87-2.05,2.79s-1.24,1.64-1.88,2.45l-1.9,2.41q-4.5,5.55-9.47,10.69c-.48.52-1,1-1.47,1.52q-2.89,3-6,5.77c-.74.7-1.52,1.39-2.28,2.06s-1.83,1.61-2.75,2.4-2.16,1.82-3.27,2.69c-1.82,1.5-3.67,2.93-5.55,4.32a5,5,0,0,1-.46.34c-1.73,1.27-3.5,2.51-5.27,3.75-1,.66-2,1.3-2.94,2s-2,1.27-3,1.89l-2.59,1.59c-.56.35-1.12.68-1.68,1s-.93.55-1.42.82a4.67,4.67,0,0,1-.49.27q-1.44.83-2.88,1.59-4,2.16-8.06,4.08c-.51.25-1,.48-1.58.73-1.6.76-3.22,1.46-4.86,2.15l-.76.31q-3.54,1.5-7.15,2.79l-1.87.67c-1,.37-2.08.73-3.14,1.06l-1.1.37-2.7.84a166.62,166.62,0,0,1-16.76,4.14c-2.09.4-4.22.77-6.34,1.1-1.06.16-2.12.32-3.2.46s-2.13.29-3.21.4c-1.25.15-2.49.28-3.76.39-.66.07-1.33.13-2,.17-.45,0-.89.09-1.35.12l-1.25.08-2.45.15c-.49,0-1,.05-1.49.05-1.19.08-2.4.11-3.59.13s-2.52,0-3.78,0h-139c-1.25,0-2.5,0-3.73,0-2.87,0-5.74-.18-8.57-.4l-2.61-.21c-.75-.06-1.47-.12-2.2-.2-1.43-.15-2.85-.31-4.26-.49h-.3c-1.2-.16-2.41-.32-3.6-.5a2.84,2.84,0,0,1-.81-.12c-1.4-.21-2.79-.44-4.18-.7s-2.87-.53-4.3-.83c-.73-.14-1.46-.3-2.19-.47-1.39-.31-2.77-.62-4.15-1l-1.75-.44h-.17c-1.45-.38-2.9-.78-4.34-1.19q-5-1.44-9.86-3.19c-.94-.33-1.9-.68-2.84-1-.78-.29-1.57-.59-2.35-.91-1-.4-2.08-.81-3.11-1.26-.49-.2-1-.4-1.45-.62a3.38,3.38,0,0,1-.44-.18c-.46-.19-.9-.39-1.35-.59-.62-.27-1.23-.54-1.85-.83-.92-.42-1.85-.85-2.75-1.29-1.06-.5-2.11-1-3.16-1.55q-6.25-3.14-12.2-6.81c-1-.6-2-1.22-2.95-1.85-.49-.3-1-.62-1.47-1h0c-.47-.3-.93-.63-1.41-.93-1-.64-1.92-1.3-2.86-2-1.91-1.32-3.78-2.68-5.63-4.1-.91-.71-1.83-1.42-2.73-2.14-1.7-1.33-3.34-2.71-5-4.12-.72-.6-1.42-1.22-2.11-1.85s-1.16-1-1.73-1.56-1.18-1.08-1.75-1.62c-.76-.72-1.52-1.43-2.27-2.17s-1.5-1.47-2.24-2.22c-1-1-1.92-2-2.86-3-.78-.81-1.52-1.63-2.28-2.46s-1.41-1.57-2.11-2.37c-.53-.62-1.06-1.23-1.58-1.85-.21-.24-.41-.47-.61-.72-.48-.57-.95-1.13-1.41-1.7-.23-.27-.44-.55-.66-.83-.54-.66-1.06-1.31-1.58-2-1.27-1.62-2.51-3.26-3.73-4.94q-2.7-3.73-5.23-7.65c-2.24-3.47-4.34-7-6.34-10.66s-3.83-7.35-5.55-11.15c-.86-1.91-1.69-3.82-2.48-5.75-.33-.79-.64-1.58-1-2.4-.93-2.35-1.79-4.73-2.62-7.14-.35-1-.71-2.09-1-3.16s-.66-2.13-1-3.19c-.19-.59-.36-1.18-.52-1.77-.33-1.16-.66-2.32-1-3.48-.6-2.28-1.15-4.56-1.65-6.87-.27-1.26-.53-2.52-.77-3.79-.43-2.18-.8-4.37-1.15-6.56s-.63-4.43-.87-6.66Z" transform="translate(-653.35 -359.95)"/><path class="cls-3" d="M2729,657.31a880.6,880.6,0,0,0-93.07,32.88,912.84,912.84,0,0,0-172.58,95.29V476.1a1137.86,1137.86,0,0,1,225.88,146.55Q2709.46,639.51,2729,657.31Z" transform="translate(-653.35 -359.95)"/><path class="cls-17" d="M2689.18,622.65H2463.3V476.1a1137.86,1137.86,0,0,1,225.88,146.55Z" transform="translate(-653.35 -359.95)"/></g><path class="cls-18" d="M2872.53,1453.9l69.15,223.15v254a169.67,169.67,0,0,1-1.08,19.26c-.1.88-.2,1.75-.31,2.61a166.8,166.8,0,0,1-7.13,31.36q-1.85,5.63-4.07,11A169.76,169.76,0,0,1,2772,2100.75h-42.07l-32.67-105.44-14-45-63.66-205.42L2463.3,1240.34V476.1a1134.12,1134.12,0,0,1,129.33,74.49L2615,622.65l20.92,67.54L2736.52,1015l15.54,50.17,8.48,27.36,14.49,46.79,8,25.9,81.61,263.38,4,12.79Z" transform="translate(-653.35 -359.95)"/><path class="cls-18" d="M3466,1214.05v717.21c0,1.7,0,3.36-.07,5,0,.89-.06,1.78-.12,2.65s-.08,1.76-.14,2.64a6.46,6.46,0,0,1-.07,1.17,11.3,11.3,0,0,0-.09,1.17c-.16,2.13-.36,4.26-.6,6.36q-.16,1.49-.36,2.94c-.26,2-.54,3.92-.86,5.85s-.67,3.87-1.06,5.78q-1.35,6.69-3.23,13.18c-.17.62-.36,1.23-.54,1.84q-.69,2.34-1.46,4.64c-.61,1.82-1.24,3.64-1.91,5.44s-1.36,3.58-2.08,5.35h0c-.62,1.55-1.28,3.07-2,4.59-.17.41-.36.82-.54,1.22-.52,1.16-1.07,2.32-1.64,3.47q-.66,1.4-1.38,2.79a.21.21,0,0,1,0,.13c-.51,1-1,2-1.54,3a.24.24,0,0,1-.07.12c-.46.87-.93,1.76-1.43,2.62-.69,1.29-1.42,2.57-2.18,3.83-.35.6-.71,1.2-1.08,1.79-1.33,2.24-2.74,4.43-4.2,6.6-.57.86-1.15,1.7-1.75,2.55s-1,1.49-1.58,2.22c-.66,1-1.34,1.87-2,2.79s-1.24,1.64-1.88,2.45l-1.9,2.41q-4.5,5.55-9.47,10.69c-.48.52-1,1-1.47,1.52q-2.89,3-6,5.77c-.74.7-1.52,1.39-2.28,2.06-.91.81-1.83,1.61-2.75,2.4-1.07.92-2.16,1.82-3.27,2.69-1.82,1.5-3.67,2.93-5.55,4.32a5,5,0,0,1-.46.34h0l-22.42-72.34-2.73-8.82-9.16-29.54-2.07-6.66-12.69-41-15.2-49-4.62-14.9-3.45-11.19-9.16-29.54-5.65-18.25-8.15-26.29-4.72-15.23L3285,1706.5l-4.27-13.8L3207,1454.45l-4-13-4-12.94-58.3-188.12-8-25.9-15.3-49.36-4-13-4-13-14.5-46.79-2.74-8.8q24.62,3.87,48.82,8.8a1110.7,1110.7,0,0,1,164.43,46.79h3.73a42.18,42.18,0,0,1,31,13.54q14.88,6.06,29.51,12.58,7.09,3.13,14.14,6.38l4.1,1.89q26.06,12.15,51.31,25.58,6.24,3.3,12.4,6.7Z" transform="translate(-653.35 -359.95)"/><path class="cls-19" d="M4026.62,2600.4c0,28.09-76.55,54.47-211,77.42-29.16,5-61.06,9.78-95.49,14.41-304.66,41-807.7,67.77-1376.7,67.77q-39.87,0-79.28-.17-60.9-.3-120.6-1-33.2-.39-66-.88h-1.3q-39.8-.6-78.94-1.38-15.36-.3-30.63-.63-79.85-1.74-156.68-4.17c-142-4.49-275.5-10.73-397.8-18.44q-66-4.18-127.54-8.91-52.14-4-100.78-8.39-36-3.24-70-6.69-12.64-1.28-25-2.6c-2-.2-4.11-.43-6.14-.65l-2.3-.25c-2-.2-3.87-.42-5.79-.63-7.7-.81-15.3-1.67-22.81-2.53l-9-1-11.43-1.33c-2.71-.32-5.41-.63-8.1-1-2.31-.27-4.62-.56-6.9-.82l-9.85-1.22h-.3l-16.81-2.13c-.57-.06-1.15-.13-1.73-.22q-6.87-.87-13.61-1.78c-1.49-.2-3-.4-4.48-.58l-4.24-.58-5.87-.79c-1.07-.14-2.13-.28-3.21-.44s-2.42-.32-3.64-.5h0c-1-.15-2-.27-2.94-.42l-8.1-1.13-5.12-.73-5.08-.73-2.25-.35c-.73-.1-1.48-.21-2.21-.33l-2.72-.4-2.72-.4-5.39-.8-1.76-.28c-1.91-.28-3.83-.57-5.72-.87-5-.75-9.87-1.54-14.7-2.31-1.81-.3-3.6-.57-5.38-.87l-1.49-.23c-2.49-.42-5-.82-7.41-1.24l-1.37-.21-2.15-.37c-2.33-.41-4.64-.78-7-1.18l-1.19-.2-5.64-1-5.65-1-4.4-.79c-1.12-.2-2.22-.4-3.31-.62s-2.2-.38-3.29-.6q-8.14-1.49-16-3l-5.45-1.06-6.87-1.38q-4.5-.9-9-1.85l-6.36-1.35-7.6-1.68q-8.73-1.93-16.92-3.9l-2.71-.66c-.91-.21-1.81-.44-2.7-.66l-4-1-1.67-.42-.81-.21c-.59-.14-1.17-.3-1.74-.45l-.93-.23c-1.88-.48-3.71-1-5.52-1.44-1.62-.43-3.21-.86-4.81-1.31q-8.25-2.25-15.84-4.54c-23.55-7.13-41.93-14.49-54.78-22a73.66,73.66,0,0,1-12.55-9c-.47-.43-.94-.86-1.4-1.3h0c-.45-.43-.89-.89-1.32-1.36l-.79-.86c-.26-.29-.49-.57-.73-.86s-.45-.57-.68-.88h0c-.13-.17-.26-.36-.37-.53s-.26-.36-.38-.55l-.12-.17c-.15-.21-.29-.43-.42-.64l-.5-.82c-.15-.27-.29-.55-.43-.82h0c-.15-.29-.29-.56-.4-.83s-.21-.46-.31-.68a1.24,1.24,0,0,0-.1-.2c-.05-.13-.1-.26-.14-.39a1.56,1.56,0,0,0-.13-.38c0-.13,0-.09,0-.12s-.09-.24-.12-.34-.08-.23-.11-.35a5.36,5.36,0,0,1-.14-.54,1.67,1.67,0,0,0-.08-.3,1.13,1.13,0,0,1,0-.26,3.5,3.5,0,0,1-.13-.56.14.14,0,0,1,0-.09.74.74,0,0,1,0-.21v-.2a9.26,9.26,0,0,1-.13-1.18h0c0-.42-.07-.82-.07-1.23v-1.05a2.69,2.69,0,0,1,.08-.83h0a.74.74,0,0,1,0-.21v-.2h0a.29.29,0,0,1,0-.13.49.49,0,0,1,0-.17v-.06a.21.21,0,0,0,0-.11v-.19a.33.33,0,0,1,0-.14,2.56,2.56,0,0,1,0-.27,5.07,5.07,0,0,1,.13-.56,1.94,1.94,0,0,1,.16-.57c.06-.18.06-.23.09-.33s.08-.28.13-.42l.15-.39v0a3.45,3.45,0,0,1,.14-.42,3.69,3.69,0,0,1,.17-.42c.09-.23.19-.47.3-.7a3.1,3.1,0,0,1,.15-.31,6.16,6.16,0,0,1,.39-.82c.08-.19.18-.36.27-.55s.2-.34.3-.53.07-.11.1-.16l.33-.53c.07-.12.16-.24.23-.37a3.42,3.42,0,0,1,.26-.4,3.34,3.34,0,0,1,.25-.4c.28-.42.56-.82.86-1.22a13.24,13.24,0,0,1,1-1.2l.92-1.1.11-.12.12-.12c.16-.19.33-.37.5-.56l.14-.16a.52.52,0,0,0,.1-.11h0c.16-.16.32-.32.46-.48l.45-.46,1.13-1.13h0l.25-.24,1-.95,1.36-1.2c.58-.49,1.18-1,1.81-1.51l.63-.52.55-.4.53-.44c.37-.28.74-.56,1.13-.83s.76-.58,1.15-.85l1.5-1.05,1.57-1.06c.53-.34,1.06-.7,1.6-1h0c.54-.36,1.1-.7,1.66-1.06l1.81-1.13.44-.28c.17-.1.33-.2.49-.28h0c.1-.05.21-.13.33-.18s.41-.25.63-.36l1.39-.82.56-.33.49-.27a4.82,4.82,0,0,1,.5-.27c.23-.15.49-.28.73-.41l.29-.14c.67-.39,1.36-.77,2.06-1.15l2.14-1.14.51-.26c.52-.26,1-.53,1.58-.82l3.44-1.73c.59-.29,1.19-.58,1.8-.86l1.82-.88.44-.2.46-.21c.3-.15.62-.29.92-.45l1.27-.57c.69-.3,1.4-.63,2.11-1l.36-.18h0l1-.41,1-.45.47-.2,1.91-.83c.8-.36,1.62-.7,2.45-1.05.62-.28,1.27-.54,1.91-.8l3.1-1.29.47-.2c.7-.27,1.41-.57,2.11-.86.39-.16.79-.32,1.19-.46l1.18-.47.22-.09h.08a.44.44,0,0,1,.15,0c.16-.08.32-.13.46-.19a8.34,8.34,0,0,1,1-.36c.8-.33,1.62-.64,2.47-1l6.36-2.41c2.2-.79,4.41-1.61,6.69-2.41.53-.2,1.07-.39,1.62-.58.27-.1.56-.2.83-.28s.54-.2.83-.29l1.2-.43c.41-.16.82-.29,1.22-.44l3.09-1.07c.43-.12.87-.28,1.32-.43l1.34-.45.48-.16c.31-.12.63-.22.94-.33.72-.25,1.45-.49,2.2-.73l1.6-.52c.53-.17,1.06-.34,1.59-.53l1.84-.59c.6-.18,1.22-.39,1.84-.6h0l7.53-2.38q3.79-1.18,7.76-2.38l4-1.19,4-1.18h0l.31-.1a3.5,3.5,0,0,0,.46-.14l3.31-1c.41-.11.84-.24,1.25-.34l2.43-.69,4-1.16h0l1.48-.42.24-.07a.76.76,0,0,0,.2-.06c.49-.15,1-.28,1.51-.43l1.7-.45,2.68-.74c.55-.15,1.09-.31,1.64-.45.39-.12.77-.22,1.16-.32l.49-.13,1.19-.33.6-.17c.19-.06.39-.12.57-.16l1.18-.31.6-.16.6-.17,1-.28c.27-.07.56-.14.85-.23l1.23-.31,3.17-.85c4.3-1.13,8.65-2.25,13.09-3.38l4.19-1.06,8.77-2.18,9-2.17c1.89-.46,3.8-.92,5.72-1.36l4.37-1,1.51-.35c.89-.23,1.75-.43,2.64-.64l4.18-1,6.38-1.45,2.13-.47h0l2.13-.47,2.16-.49.28-.07.29-.06.85-.19c.28-.07.57-.12.85-.18l.31-.09.68-.14.72-.16.57-.13c.49-.11,1-.23,1.47-.31s1-.22,1.45-.33l2.92-.65,6.27-1.36c2.09-.46,4.2-.9,6.32-1.36l.36-.07.37-.09,2.81-.59c1.35-.29,2.7-.57,4.06-.84l1.64-.35.8-.17,2.77-.57c.92-.21,1.85-.39,2.79-.58,1.14-.24,2.28-.49,3.43-.72l2.85-.58q6.33-1.32,12.8-2.58l1.62-.33,4.87-1,.33-.06h.5c.61-.13,1.19-.26,1.8-.37.44-.07.87-.16,1.3-.24l1.32-.26,7.93-1.55,8-1.54c1.34-.24,2.69-.5,4-.76l1.35-.25,2.69-.51c.92-.15,1.82-.33,2.73-.5l2.74-.51,2.74-.51,5.42-1,3.27-.59,2.19-.4,2-.36,4.64-.83,4.43-.8,2.82-.5,3.87-.68c2.24-.39,4.49-.79,6.74-1.17l6.06-1,6.08-1.06,9.39-1.59c2-.33,3.93-.68,5.91-1l5.92-1,6-1,.4-.07.3-.06c3.11-.5,6.27-1,9.44-1.53,1.66-.27,3.34-.55,5-.8l1.66-.28.35-.05c1.53-.23,3-.49,4.6-.74h0c.61-.08,1.22-.18,1.83-.28,1.13-.19,2.27-.36,3.4-.53l3.41-.56,1.42-.22.71-.1,4-.64,3.13-.49,3.13-.47,2.69-.43,3.56-.53,6.29-1,3.17-.47,3.17-.47,1.85-.29,1.35-.2,3.2-.47c.37-.06.74-.12,1.12-.16l1.44-.22,4.64-.68,2.4-.36c3.23-.49,6.46-1,9.73-1.42q7.5-1.09,15.1-2.17c2.22-.3,4.44-.61,6.68-.94l3.66-.52h.07l12.59-1.75c5.15-.7,10.35-1.42,15.57-2.12l7.11-1,.75-.1,15.82-2.09,8-1,2-.26,5.44-.69,11-1.39,5.84-.73,16.36-2c2-.23,3.91-.49,5.88-.72.64-.08,1.3-.17,2-.24l2.51-.3a6.66,6.66,0,0,0,1-.12l.43-.05,3.94-.48c2.64-.31,5.28-.63,7.93-.93s5.31-.64,8-1c.66-.07,1.35-.14,2-.23l2-.24c.67-.09,1.36-.16,2-.23l2-.25,5.47-.63,5.5-.64c1.84-.2,3.67-.4,5.52-.62l5.54-.63c2.24-.26,4.49-.5,6.74-.75q10.13-1.14,20.36-2.25,6.83-.75,13.7-1.47,5.16-.57,10.35-1.09l3.46-.36,2.83-.3h0a9.39,9.39,0,0,1,1-.1l1.38-.16,2.35-.25,3.88-.4c1.78-.17,3.57-.37,5.38-.56l2.68-.27,2.7-.29,2.78-.25h.4a7.6,7.6,0,0,0,1.06-.1l2.13-.23c.7,0,1.42-.14,2.12-.21l4.26-.43,4.27-.43c2.84-.29,5.69-.56,8.55-.83,2.56-.25,5.15-.52,7.74-.76h.85a2.32,2.32,0,0,0,.64-.06l1.91-.18,3-.3h0l5.58-.53h0l10.2-1c3.41-.33,6.82-.64,10.25-1s6.87-.64,10.31-1,6.89-.63,10.34-.93l6.68-.62c2.24-.2,4.48-.4,6.71-.58q8.37-.77,16.81-1.48c2.8-.26,5.62-.49,8.43-.73s5.65-.5,8.48-.73c1.27-.12,2.55-.22,3.84-.32l3.83-.33,7.7-.64c4.53-.38,9.06-.74,13.59-1.11l13.67-1.1,2.38-.19,2.38-.19c1.45-.1,2.93-.22,4.39-.35l4.6-.35c1.52-.11,3.06-.23,4.58-.36l11-.83,1.61-.11c3.14-.25,6.28-.48,9.44-.71l4.23-.31,1.2-.1c1-.09,2-.16,3-.23l1.2-.09h.49l1.51-.11,1-.07,1.06-.09a4.78,4.78,0,0,0,1.07-.08l1.06-.08a5.35,5.35,0,0,0,1.06-.07c4.43-.33,8.86-.64,13.31-1l6.66-.47c2-.16,4.06-.3,6.1-.43,3.17-.24,6.35-.45,9.52-.66,2.28-.16,4.55-.32,6.81-.46h.5l6.3-.44c1.81-.13,3.58-.25,5.39-.36l2.67-.17,1.36-.09c.44,0,.87-.06,1.32-.07l4.07-.27,4.06-.28h.53c1.46-.1,2.9-.2,4.36-.28.72-.06,1.45-.1,2.16-.13s1.45-.1,2.18-.14l8.65-.55,8.68-.56h0l8.68-.53c2.91-.17,5.82-.34,8.73-.53,8.88-.54,17.77-1.06,26.72-1.56,5.89-.33,11.81-.68,17.75-1l4.64-.26,9.35-.52,4.68-.25,12.46-.65,12.49-.65h1.16q18-.93,36.22-1.78c7.55-.34,15.08-.69,22.65-1l4.73-.22,6.87-.29,7.41-.31,13.27-.58,8-.31c2.67-.12,5.33-.23,8-.32l10.44-.4,10.5-.4c.76,0,1.53-.06,2.3-.07a22.88,22.88,0,0,0,2.34-.09l4.65-.17,2.52-.09c5.38-.2,10.77-.38,16.16-.57l28.12-.92,9.41-.28c8-.23,15.92-.46,23.93-.71,5.77-.14,11.55-.31,17.34-.45l4.5-.12h1.57l2.58-.06c4.2-.1,8.43-.2,12.64-.32,2.76,0,5.53-.13,8.28-.18,1.18,0,2.35-.07,3.54-.1l4.73-.09h.32c9.68-.21,19.34-.4,29.07-.6h0l19.2-.34q9.61-.18,19.26-.32h3.32l16.1-.23,19.43-.23c4.19-.07,8.36-.1,12.56-.14h3c5.19-.06,10.41-.1,15.63-.14l15.65-.1c4.89,0,9.79-.07,14.67-.12h15.77q14.22-.06,28.54,0h29.7l20.56.07h3.26c6.91,0,13.82.07,20.71.14,7.17,0,14.31.11,21.45.17h2.71q11.16.09,22.26.24h.45l22.62.29,11.41.19,14.4.23,14.61.26,5.48.11,3.91.07,3.92.07,11.73.23q16.27.33,32.44.73h1.62c1.6,0,3.22.07,4.84.13l6.46.15,9.27.23c.68,0,1.34,0,2,.06a1.71,1.71,0,0,1,.32,0h2.69l11.46.31h1.26l2.91.09c2.89.1,5.77.17,8.65.26l5.62.17c.68,0,1.34,0,2,0,.5,0,1,.05,1.52.06l2.5.07h2l10.23.32c.55,0,1.1,0,1.64,0l2.6.09,5.84.19c1.95.07,3.88.13,5.83.18l5.57.19c1.29.06,2.56.09,3.85.14a17,17,0,0,1,1.74.06l2.91.11c1,.05,2,.08,2.93.11l6.82.24c2.12.07,4.23.14,6.35.23l5.19.19,1.35.05a11.25,11.25,0,0,1,1.44.06l1.72.06h3.87a16.19,16.19,0,0,1,1.71.06l3.25.13,2.11.09,3.51.13,7.26.28c2,.07,4,.16,6,.25l2.64.11c1.27,0,2.55.09,3.81.15l2.8.12c1,0,1.86.09,2.8.12l6.88.29c4.83.21,9.66.41,14.48.63,3.46.14,6.91.31,10.36.47l3.21.13h1.27l1.27.06h.51l2.57.1,2.81.13,10.84.51c4.85.23,9.68.48,14.5.7l1.8.09,1.78.09,1.71.08,1.71.08.84,0h.83l3.57.19,1,.05h.36l1.86.09,3.23.17,2.88.14,1,0,1.92.08c.33,0,.66.05,1,.06h.14l16.82.9,6.36.35,10.39.57,1.7.09h.44l2.18.11,1.51.1c1.23.07,2.46.15,3.69.2,2.4.15,4.78.28,7.16.4l5.55.32,1.85.1,5.21.32,4,.23,4.46.27,11.44.69,11.6.71,11.56.72h1.33a1.5,1.5,0,0,1,.3,0l1.78.11c2.74.17,5.48.34,8.2.53.41,0,.79.06,1.2.07h.4l11.38.76,11.7.77c2.56.16,5.11.34,7.65.52l2.16.15c.63,0,1.26.09,1.87.12l8.34.59,3.27.23,3.19.24,2.25.14,2.25.16,3.88.29,3.55.24,1,.07.7.06.92.06.9.06,1.49.13,2.94.21,2.46.17,2.45.19h0l1.07.07,2,.16,1.54.11,1.42.1c1.5.1,3,.23,4.51.35,1.24.08,2.49.18,3.72.27h0l3.68.27.92.07h.34c.3,0,.6.06.9.07h.15l1,.09c.72,0,1.44.1,2.15.16,2,.16,3.92.3,5.87.44,3,.25,6.06.48,9.08.71l7,.55,2.3.19,2.59.19,1.46.11h.24c1.51.11,3,.24,4.49.37l9.22.74c2.93.23,5.84.48,8.73.72l11.16.92c3.71.3,7.4.63,11.1.93,7.08.62,14.12,1.21,21.12,1.84,4.82.41,9.59.84,14.36,1.26l14.29,1.29,14.17,1.3,12,1.12,21.24,2c2.94.29,5.88.55,8.8.85l2.18.21,11.65,1.17c4.6.46,9.17.91,13.73,1.39,3.43.34,6.84.7,10.26,1.06s6.81.72,10.21,1.06c1.56.16,3.12.32,4.67.5a12.83,12.83,0,0,1,1.39.14l1.72.19,1.55.14,2.07.23,8.84,1,4.56.47,5.5.61,4.38.46,5.58.63,10,1.11,9.87,1.12,5.84.67c1.92.22,3.87.45,5.79.65l11.39,1.33q22.62,2.64,44.65,5.39c1.42.17,2.87.36,4.3.55,1.72.2,3.41.43,5.12.63l9.28,1.17c1.58.2,3.17.42,4.76.61l2.22.28c3.21.42,6.43.82,9.6,1.24l4.28.57c2.3.3,4.59.6,6.89.92l1.14.14c2.69.34,5.34.69,8,1,12.12,1.65,24.11,3.27,35.89,4.93,5.91.83,11.76,1.66,17.6,2.5s11.57,1.69,17.32,2.5,11.43,1.73,17.08,2.57l2.9.43c1.52.23,3,.48,4.51.7l9.4,1.44,8.31,1.29,8.25,1.3,1,.16c3.07.47,6.14,1,9.18,1.45,1.86.32,3.72.6,5.57.92l.53.08c2.7.43,5.38.86,8.06,1.31q15.39,2.52,30.27,5.09l2.74.47,6.21,1.08,2.33.4,4.91.85a3.18,3.18,0,0,1,.71.14,4.48,4.48,0,0,0,.69.11l1.37.26,7.77,1.38,13,2.35c1.43.27,2.88.55,4.32.8l4.86.91c7.64,1.4,15.15,2.85,22.57,4.27l10.71,2.11,9.52,1.88c3.17.63,6.28,1.27,9.39,1.9s6.18,1.28,9.24,1.91c4.17.86,8.29,1.74,12.39,2.6l10.11,2.18c1.49.31,2.94.64,4.4,1,4.9,1.07,9.72,2.16,14.5,3.24l2.71.61q16.45,3.75,31.82,7.53,19.29,4.71,36.79,9.48,22.3,6.08,41.62,12.16C3986.93,2557.59,4026.62,2580.15,4026.62,2600.4Z" transform="translate(-653.35 -359.95)"/><path class="cls-17" d="M3804.28,2505.62c-12.25,12.09-30.36,24.38-54.62,36.7q-16.6,8.46-37.1,16.91h0q-29,11.91-65.82,23.76-42,13.44-94.59,26.57-22.37,5.59-46.71,11.07-61.79,13.92-136.47,27.15h0q-87.57,15.45-193.46,29.57-90.5,12-194.78,22.77c-189.36,19.43-413.5,35.41-675.32,46.15q-11.14.46-22.34.89c-5.54.23-11.1.44-16.67.66-41.42,1.6-82.22,7.52-122.76,11q-33.19-.39-66-.88h-1.3q-39.8-.6-78.94-1.38-15.36-.3-30.63-.63-79.85-1.74-156.68-4.17c-142-4.49-275.5-10.73-397.8-18.44q-66-4.18-127.54-8.91-52.14-4-100.78-8.39-36-3.24-70-6.69-12.65-1.27-25-2.6c-2-.2-4.11-.43-6.14-.65l-2.3-.25c-2-.2-3.87-.42-5.79-.63-7.7-.81-15.3-1.67-22.81-2.53l-9-1-11.43-1.33c-2.71-.32-5.41-.63-8.1-1-2.31-.27-4.62-.56-6.9-.82l-9.85-1.22h-.3l-16.81-2.13c-.57-.06-1.15-.13-1.73-.22q-6.87-.87-13.61-1.78c-1.49-.2-3-.4-4.48-.58l-4.24-.58-5.87-.79c-1.07-.14-2.13-.28-3.21-.44s-2.42-.32-3.64-.5h0c-1-.15-2-.27-2.94-.42l-8.1-1.13-5.12-.73-5.08-.73-2.25-.35c-1.65-.24-3.3-.47-4.93-.73l-2.72-.4-5.39-.8-1.76-.28c-1.91-.28-3.83-.57-5.72-.87-5-.75-9.87-1.54-14.7-2.31-1.81-.3-3.6-.57-5.38-.87l-1.49-.23c-2.49-.42-5-.82-7.41-1.24-1.18-.18-2.36-.38-3.52-.58-2.33-.41-4.64-.78-7-1.18l-1.19-.2-5.64-1-5.65-1-4.4-.79c-1.12-.2-2.22-.4-3.31-.62s-2.2-.38-3.29-.6q-8.14-1.48-16-3l-5.45-1.06-6.87-1.38q-4.5-.9-9-1.85l-6.36-1.35-7.6-1.68q-8.73-1.93-16.92-3.9l-2.71-.66c-.91-.21-1.81-.44-2.7-.66l-4-1-1.67-.42-.81-.21c-.59-.14-1.17-.3-1.74-.45l-.93-.23c-1.88-.48-3.71-1-5.52-1.44-1.62-.43-3.21-.86-4.81-1.31q-8.25-2.25-15.84-4.54,21.82-7.92,46.36-16h0q15.76-5.22,32.64-10.52,11.94-3.76,24.42-7.56l12-3.6q21.72-6.46,45-13h0c5.23-1.48,10.54-3,15.89-4.45q29.8-8.28,61.88-16.62c223.08-58,525.7-117.57,871.5-163.73h0c80.58-10.77,163.53-20.79,248.32-29.93h.18l2.58-.06c4.2-.1,8.43-.2,12.64-.32,2.76,0,5.53-.13,8.28-.18,1.18,0,2.35-.07,3.54-.1l4.73-.09h.32c9.68-.21,19.34-.4,29.07-.6h0l19.2-.34q9.62-.18,19.26-.32H2198l16.1-.23,19.43-.23c4.19-.07,8.36-.1,12.56-.14h3c5.19-.06,10.41-.1,15.63-.14l15.65-.1c4.89,0,9.79-.07,14.67-.12h15.77q14.22-.06,28.54,0H2369l20.56.07h3.26c6.91,0,13.82.07,20.71.14,7.17,0,14.31.11,21.45.17h2.71q11.16.11,22.26.24h.45l22.62.29,23,.36c.93,0,1.88,0,2.81.06l14.61.26c1.82,0,3.66.07,5.48.1,1.3,0,2.61,0,3.91.08l3.92.07,11.73.23q16.27.33,32.44.73h1.62c1.6,0,3.22.07,4.84.13l6.46.15,9.27.23c.68,0,1.34,0,2,.06a1.71,1.71,0,0,1,.32,0h1.3l1.39,0,11.46.31h1.26l2.91.09c2.89.1,5.77.17,8.65.26l5.62.17c.68,0,1.34,0,2,.05.5,0,1,.05,1.52.06l2.5.07h2l10.23.32c.55,0,1.1,0,1.64.05l2.6.09,5.84.19c1.95.07,3.88.13,5.83.18l5.57.19c1.29.06,2.56.09,3.85.14a17,17,0,0,1,1.74.06l2.91.11c1,.05,2,.08,2.93.11l6.82.24c2.12.07,4.23.14,6.35.23l5.19.19a7.74,7.74,0,0,1,1.07.05,16.57,16.57,0,0,1,1.72.06l1.72.06H2716a16.19,16.19,0,0,1,1.71.06c.56.06,1.14,0,1.72.06H2721l2.11.09,3.51.13,7.26.28c2,.07,4,.16,6,.25l2.64.11c1.27,0,2.55.09,3.81.15l2.8.12c1,0,1.86.09,2.8.12l6.88.29c4.83.21,9.66.41,14.48.63,3.46.14,6.91.31,10.36.47l3.21.13h1.27l1.27.06h.51l2.57.1,2.81.13,10.84.51c4.85.23,9.68.48,14.5.7l1.8.09,1.78.09,1.71.08h.49l2.06.1,4.4.23,1.37.07,1.86.09,3.23.17,2.88.14,1,.05,1.92.08c.33,0,.66.05,1,.06a.33.33,0,0,0,.14,0q8.44.42,16.82.88l6.36.35,10.39.57,1.7.09h.44l2.18.11,1.51.1c1.23.07,2.46.15,3.69.2,2.4.15,4.78.28,7.16.4l5.55.32,1.85.1,5.21.32,4,.23,4.46.27,11.44.69,11.6.71,11.56.72h1.63l1.78.11c2.74.17,5.48.34,8.2.53.41,0,.79.06,1.2.07a2.67,2.67,0,0,0,.4,0l11.38.76,11.7.77c2.56.16,5.11.34,7.65.52l2.16.15c.63,0,1.26.09,1.87.12l8.34.59,3.27.23,3.19.24,2.25.14,2.25.16,3.88.29,3.55.24,1,.07.7.06c1.11.07,2.21.16,3.31.25l2.94.21,2.46.17,2.45.19h0l1.07.07,2,.16,1.54.11h.57l.85.07c1.5.1,3,.23,4.51.35,1.24.08,2.49.18,3.72.27h0l3.68.27.92.07h.34c.3,0,.6.06.9.07h.15l1,.09c.72,0,1.44.1,2.15.16l21.92,1.7,2.3.19,2.59.19,1.46.11h.24c1.51.12,3,.23,4.49.36l9.22.74c2.93.23,5.84.48,8.73.72l11.16.92c3.71.3,7.4.63,11.1.93,7.08.62,14.12,1.21,21.12,1.84,4.82.41,9.59.84,14.36,1.26l14.29,1.29,14.17,1.3,12,1.12,21.24,2.05c2.94.29,5.88.55,8.8.85l2.18.21,11.65,1.17c4.6.46,9.17.91,13.73,1.39,3.43.34,6.84.7,10.26,1.06s6.81.72,10.21,1.06c1.56.16,3.12.32,4.67.5a12.83,12.83,0,0,1,1.39.14l1.72.19,3.62.37,8.84,1,4.56.47,9.88,1.07,5.58.63,10,1.11,9.87,1.12,5.84.67c1.92.22,3.87.45,5.79.65l11.39,1.33q22.62,2.64,44.65,5.39c1.42.17,2.87.36,4.3.55,1.72.2,3.41.43,5.12.63l9.28,1.17c1.58.2,3.17.42,4.76.61l2.22.28c3.21.42,6.43.82,9.6,1.24l4.28.57c2.69.34,5.37.7,8,1.06s5.34.69,8,1.05c12.12,1.65,24.11,3.27,35.89,4.93,5.91.83,11.76,1.66,17.6,2.5s11.57,1.69,17.32,2.5,11.43,1.73,17.08,2.57l2.9.43c1.52.23,3,.48,4.51.7l9.4,1.44,8.31,1.29,8.25,1.3,1,.16,14.75,2.37.53.08c2.7.43,5.38.86,8.06,1.31q15.39,2.52,30.27,5.09l2.74.47,6.21,1.08,2.33.4,5.62,1c.23,0,.46.09.69.11l1.37.26,7.77,1.38,13,2.35c1.43.27,2.88.55,4.32.8l4.86.91c7.64,1.4,15.15,2.85,22.57,4.27l10.71,2.11,9.52,1.88c3.17.63,6.28,1.27,9.39,1.9s6.18,1.28,9.24,1.91c4.17.86,8.29,1.74,12.39,2.6l10.11,2.18c1.49.31,2.94.64,4.4,1,4.9,1.07,9.72,2.16,14.5,3.24Z" transform="translate(-653.35 -359.95)"/><path class="cls-3" d="M3304.24,2493.62c0,88.15-753.56,159.62-1683.14,159.62-305.07,0-591.15-7.7-837.89-21.16q-45.84-2.49-89.84-5.26a39.62,39.62,0,0,1-25.25-11c-.46-.44-.89-.89-1.33-1.36s-1-1.15-1.51-1.74l-.67-.86h0c-.27-.37-.53-.72-.76-1.09-.36-.53-.69-1.07-1-1.63s-.59-1.11-.84-1.67c-.14-.29-.27-.58-.38-.87s-.22-.52-.3-.78a.17.17,0,0,1,0-.1c-.09-.25-.16-.47-.22-.7a8.48,8.48,0,0,1-.29-1.1,4.88,4.88,0,0,1-.12-.55v-.09a2,2,0,0,1-.08-.43,15.47,15.47,0,0,1-.2-2.45v-1a2.82,2.82,0,0,1,.08-.83h0a3.31,3.31,0,0,1,.08-.55v-.22a3.58,3.58,0,0,1,.09-.45q.08-.42.18-.84a2.1,2.1,0,0,1,.16-.58,2,2,0,0,0,.08-.32c.09-.28.18-.56.28-.82h0c.1-.28.2-.56.32-.84.23-.61.53-1.21.83-1.84.18-.35.38-.7.59-1.06l.64-1.07a31.94,31.94,0,0,1,2.34-3.23l.9-1.08c.32-.37.65-.72,1-1.08h0l.89-.93c.36-.37.74-.75,1.14-1.13.83-.79,1.71-1.59,2.64-2.39s1.59-1.35,2.44-2l1.08-.85c.73-.55,1.49-1.12,2.28-1.68,2-1.4,4.08-2.8,6.34-4.24l1.82-1.12c.62-.38,1.24-.76,1.88-1.13s1.29-.76,2-1.12l1-.57c.32-.19.67-.38,1-.56,1.36-.76,2.76-1.5,4.21-2.26.69-.37,1.39-.72,2.1-1.08,1.13-.57,2.27-1.16,3.44-1.74s2.38-1.15,3.61-1.72c.6-.3,1.21-.57,1.82-.87,1.23-.55,2.47-1.12,3.74-1.71.65-.27,1.29-.57,2-.86,1.57-.7,3.17-1.4,4.83-2.09.63-.28,1.26-.54,1.9-.8l3.11-1.29,2.59-1c.78-.31,1.56-.63,2.35-.93.31-.14.62-.25.92-.37l1-.37,2.47-1,6.37-2.41c2.18-.79,4.4-1.61,6.67-2.41,1.08-.4,2.17-.78,3.28-1.16l2.43-.84c1-.37,2-.7,3.08-1.06,2.06-.71,4.15-1.43,6.29-2.11,1.06-.37,2.13-.71,3.21-1.06l3.65-1.19h0c2.47-.79,5-1.6,7.52-2.39s5.13-1.59,7.76-2.38l8-2.38h0l4.09-1.18c1.2-.37,2.44-.7,3.67-1.06l4.06-1.16c1.16-.33,2.29-.65,3.43-1,1.45-.41,2.91-.82,4.39-1.22,1.09-.32,2.19-.61,3.3-.9,1.56-.44,3.14-.86,4.73-1.29l6.3-1.68,13.09-3.39,4.18-1.05q8.68-2.17,17.74-4.36c4.69-1.12,9.44-2.25,14.28-3.36q8.32-2,17-3.87c.74-.17,1.5-.35,2.28-.51l2.28-.5,2.9-.65,2.94-.65c4.15-.92,8.34-1.81,12.58-2.71l.73-.17,9.31-2,5.55-1.16q12.52-2.58,25.59-5.16l2.61-.52c.88-.16,1.74-.34,2.63-.51q7.89-1.54,15.94-3.07l5.4-1c1.79-.34,3.61-.69,5.42-1s3.65-.67,5.48-1q17.29-3.2,35.36-6.34l12.12-2.07c3.12-.54,6.24-1.08,9.39-1.61l5.9-1c2-.32,4-.67,5.93-1l6-1,10.14-1.66c2.22-.36,4.45-.73,6.68-1.08l6.78-1.08c2.26-.35,4.54-.7,6.82-1.07l6.18-1,6.24-1q6.23-1,12.55-1.91c4.22-.65,8.46-1.27,12.73-1.9,3.18-.48,6.4-1,9.61-1.43s6.46-1,9.72-1.42q7.51-1.09,15.11-2.16l10.4-1.47,12.6-1.75c5.15-.7,10.34-1.42,15.57-2.12l7.85-1.05,15.84-2.09,8-1c8-1,16.08-2.06,24.22-3.06l16.37-2,7.84-.95,7.89-1,7.92-.94,8-.94,4.06-.47,4.08-.47,11-1.29,11.06-1.24q26.89-3,54.6-5.94c3.8-.4,7.6-.81,11.43-1.2l5.38-.56,5.39-.54,4.24-.42,4.23-.44,17.09-1.7c2.57-.24,5.15-.51,7.74-.76h.83l5.57-.55,5.6-.53q20.36-2,41.1-3.83c4.44-.41,8.91-.8,13.4-1.2l16.8-1.47c5.61-.5,11.25-1,16.91-1.45l15.37-1.3q13.56-1.11,27.26-2.21l9.15-.71,9.18-.72q11-.85,22-1.66c2.82-.21,5.62-.43,8.44-.63,1.42-.12,2.82-.21,4.23-.32l4.23-.31q17.71-1.29,35.61-2.51,6.79-.48,13.61-.92l5.37-.37c1.79-.13,3.57-.25,5.37-.35l8.66-.57,8.69-.56,17.32-1.09h0q8.68-.55,17.42-1.07,13.3-.81,26.71-1.56l17.75-1,4.67-.27,14-.76,25-1.3h1.15q18-.93,36.22-1.77c9.11-.42,18.21-.83,27.37-1.23s18.35-.79,27.57-1.17l16.09-.64q10.44-.42,20.92-.79l4.67-.17,4.64-.18,2.51-.09c5.38-.2,10.77-.38,16.17-.57l28.12-.92,9.41-.29,23.94-.7c5.75-.15,11.54-.31,17.33-.45l5.9-.15h.19c.85,0,1.7-.06,2.56-.07l12.65-.31L2127,2382q14.64-.33,29.37-.6h0q19.16-.37,38.46-.67l19.46-.28q9.7-.14,19.43-.23,6.27-.09,12.56-.13h3c5.2-.06,10.41-.1,15.63-.15l15.65-.1q15.19-.1,30.44-.16,16.23-.08,32.59-.05,94.1,0,185.62,1.76,19.59.38,39,.82l13,.3,12.92.32,12.9.34q12.87.35,25.67.73c1.89.06,3.76.12,5.63.16l6,.19c.67,0,1.34,0,2,.06l10.23.32c.55,0,1.09.05,1.65.06l25.41.85,5.84.2,6.83.25,12.61.47,6.87.25h.43c2.37.07,4.72.16,7.08.26l10.76.42,6,.25,6.46.26,5.6.24,6.88.29q7.26.3,14.48.63c3.46.14,6.91.31,10.36.47,2.09.08,4.18.19,6.25.27l5.38.25c3.63.16,7.23.34,10.84.51l14.51.7,12.25.62,6.44.32,5.77.29a7.14,7.14,0,0,1,1.13.06l16.83.89,6.34.35,10.41.57,1.69.09h.44l7.38.41,7.16.41,7.41.42,5.2.31,4,.23,4.46.26,11.44.69,23.16,1.45,1,.07,10.58.67,1.59.11,11.38.74,11.71.79c2.55.16,5.1.34,7.64.51l2.16.15,1.87.13,11.62.8,7.68.56c1.3.09,2.6.17,3.89.28q5.79.39,11.53.83l4.89.35,3.13.23,3,.21,12,.9.92.08,2.46.17,8,.62,9.07.7,9.28.73,2.58.2a14.1,14.1,0,0,1,1.47.12h.24l13.71,1.11c2.92.24,5.83.47,8.74.72l11.15.92,11.1.94C3244,2440.22,3304.24,2468.69,3304.24,2493.62Z" transform="translate(-653.35 -359.95)"/><path class="cls-1" d="M1857.26,2440.25c0,45.74-98.35,87-255.94,116.07-146.13,27-343.22,43.53-560,43.53-49.16,0-97.31-.85-144.06-2.48-80.42-2.8-156.78-7.93-227.2-15q1.25-1.18,2.64-2.4c.78-.66,1.59-1.34,2.44-2l1.08-.85c.74-.55,1.5-1.12,2.29-1.67,2-1.42,4.08-2.82,6.34-4.24l1.8-1.13c.63-.38,1.24-.76,1.9-1.12s1.27-.76,2-1.13l1-.57c.31-.19.67-.38,1-.55,1.35-.76,2.77-1.51,4.21-2.27l2.1-1.09,3.44-1.73c1.18-.58,2.38-1.15,3.61-1.73l1.82-.86c1.23-.55,2.47-1.12,3.75-1.71.64-.27,1.28-.56,1.94-.86,1.57-.7,3.17-1.4,4.83-2.09.63-.28,1.27-.54,1.91-.8l3.1-1.29,2.59-1.06,2.35-.93.93-.36c.32-.13.62-.25.94-.36l2.47-1,6.37-2.4c2.19-.79,4.4-1.61,6.67-2.41,1.08-.4,2.18-.78,3.28-1.16.8-.29,1.63-.56,2.44-.85,1-.36,2-.7,3.07-1,2.06-.73,4.15-1.44,6.29-2.13,1.06-.37,2.13-.7,3.21-1l3.65-1.21h0L775,2534l7.76-2.38,8-2.38h0l4.09-1.19,3.67-1c1.35-.4,2.7-.79,4.06-1.17l3.43-1c1.45-.4,2.92-.81,4.39-1.2,1.09-.32,2.19-.62,3.29-.91,1.58-.44,3.15-.86,4.75-1.29,2.07-.56,4.18-1.12,6.29-1.67,4.3-1.13,8.65-2.25,13.09-3.4l4.19-1.05q8.67-2.17,17.73-4.35c4.7-1.13,9.44-2.25,14.28-3.37q8.33-1.93,17-3.87c.74-.17,1.5-.35,2.27-.51l2.29-.5,2.9-.65,2.94-.65q6.22-1.36,12.58-2.72l.73-.16,9.31-2,5.56-1.16q12.5-2.58,25.57-5.16c.89-.17,1.76-.34,2.62-.53l2.63-.5,15.94-3.07,5.39-1,5.42-1c1.83-.33,3.67-.68,5.48-1q17.29-3.21,35.36-6.34l12.13-2.08c3.12-.54,6.24-1.08,9.39-1.61l5.9-1c2-.32,4-.67,5.94-1l6-1,10.14-1.66,6.67-1.08q3.39-.52,6.78-1.08l6.82-1.06,6.19-1,6.24-1q6.23-1,12.55-1.91t12.73-1.9l9.61-1.43c3.23-.49,6.46-1,9.72-1.43l15.1-2.16,10.41-1.46,12.6-1.75c5.15-.7,10.35-1.42,15.57-2.12l7.85-1,15.83-2.09c2.66-.34,5.32-.68,8-1,8-1,16.09-2,24.22-3.06l16.37-2,7.84-1,7.89-1c2.63-.3,5.28-.63,7.93-.93s5.31-.64,8-1l4-.46,4.08-.47,11-1.29,11.06-1.24q26.9-3,54.6-5.94c3.8-.4,7.61-.81,11.43-1.2l5.38-.56,5.39-.54c1.4-.13,2.82-.28,4.24-.43l4.24-.43q8.49-.87,17.08-1.69l7.74-.77h.84l5.56-.55,5.6-.53q20.37-2,41.1-3.82c4.44-.42,8.91-.81,13.4-1.21l16.8-1.47,16.91-1.45,15.37-1.3,27.26-2.2,9.16-.72,9.17-.72q11-.86,22-1.66c2.83-.21,5.63-.43,8.46-.63,1.41-.12,2.81-.21,4.21-.32l4.24-.3q17.71-1.32,35.61-2.52,6.8-.48,13.6-.93l5.38-.36c1.79-.13,3.57-.25,5.36-.35,2.9-.2,5.78-.38,8.67-.56s5.78-.39,8.7-.57l17.31-1.09h0q8.67-.56,17.41-1.07,13.31-.81,26.72-1.56l17.74-1,4.66-.26c4.67-.24,9.33-.51,14-.76h0a119.39,119.39,0,0,1,18.6,19.46h0a64.57,64.57,0,0,1,6.71,11.06A39.13,39.13,0,0,1,1857.26,2440.25Z" transform="translate(-653.35 -359.95)"/><path class="cls-20" d="M2403.69,2527.51c-147.87,0-289.27,1.84-419.35,5.22h0c-433.9,11.26-741.56,39.44-741.56,72.45,0,26.48,198.11,49.86,500.6,63.89,150.73-29.88,244.8-72.26,244.8-119.26a38.16,38.16,0,0,0-.82-7.68,37.38,37.38,0,0,1,.82,7.68c0,47-94.08,89.37-244.79,119.27,187.45,8.69,415,13.77,660.3,13.77,641.15,0,1160.91-34.77,1160.91-77.67S3044.84,2527.51,2403.69,2527.51Z" transform="translate(-653.35 -359.95)"/><rect class="cls-10" x="1670.14" y="1804.56" width="261.62" height="52.71" transform="translate(-1231.7 504.22) rotate(-23.36)"/><polygon class="cls-10" points="1262.76 1647.96 1208.38 1711.06 1100.82 1835.86 1069.23 1872.51 1034.31 1913.02 1021.41 1901.91 994.36 1878.6 1012.43 1857.64 1069.23 1791.73 1087.56 1770.48 1087.56 1770.47 1208.38 1630.26 1222.81 1613.53 1262.76 1647.96"/><path class="cls-17" d="M1980.36,1703.73v415.16a59.31,59.31,0,1,1-118.62,0v-415.2a59.31,59.31,0,0,1,118.62,0Z" transform="translate(-653.35 -359.95)"/><polygon class="cls-10" points="1871.06 1498.65 1861.42 1520.97 1850.17 1547.05 1818.92 1533.56 1771.05 1512.87 1679.77 1473.43 1610 1443.29 1630.91 1394.89 1679.77 1416 1758.28 1449.93 1818.92 1476.13 1871.06 1498.65"/><rect class="cls-10" x="2386.56" y="1948.31" width="52.74" height="349.92" transform="translate(-1454.36 1729.87) rotate(-40.75)"/><path class="cls-17" d="M2333.12,1703.73v415.16a59.32,59.32,0,0,1-118.64,0V1703.73a59.32,59.32,0,0,1,118.64,0Z" transform="translate(-653.35 -359.95)"/><path class="cls-21" d="M1722.58,1540.19v957.34a98.62,98.62,0,0,1-98.61,98H1420.63A98.55,98.55,0,0,1,1322,2497V1540.19a67.66,67.66,0,0,1,64.14-67.57c1.16-.06,2.34-.09,3.51-.09H1654.9A67.67,67.67,0,0,1,1722.58,1540.19Z" transform="translate(-653.35 -359.95)"/><path class="cls-22" d="M1722.58,1880.92v616.61a98.62,98.62,0,0,1-98.61,98H1420.63A98.55,98.55,0,0,1,1322,2497v-616.1Z" transform="translate(-653.35 -359.95)"/><path class="cls-14" d="M1627.71,1572.54a9.66,9.66,0,0,0-8.15-4.43H1425a9.71,9.71,0,0,0-9.71,9.7v106.87a9.73,9.73,0,0,0,9.71,9.72h194.53a9.75,9.75,0,0,0,9.73-9.72V1577.81A9.58,9.58,0,0,0,1627.71,1572.54Z" transform="translate(-653.35 -359.95)"/><rect class="cls-16" x="752.25" y="1198.43" width="233.38" height="145.72" rx="19.43"/><path class="cls-8" d="M1428.5,1618.07h187.61a13.18,13.18,0,0,1,13.18,13.18h0a13.18,13.18,0,0,1-13.18,13.18H1428.5a13.18,13.18,0,0,1-13.18-13.18h0A13.18,13.18,0,0,1,1428.5,1618.07Z" transform="translate(-653.35 -359.95)"/><circle class="cls-10" cx="810.5" cy="1428.2" r="29.6"/><circle class="cls-23" cx="927.39" cy="1428.2" r="29.6"/><path class="cls-21" d="M2872.81,1540.19v957.63c0,1.8,0,3.61-.16,5.4,0,.71-.07,1.41-.13,2.11-.07,1.06-.17,2.12-.3,3.17a14.81,14.81,0,0,1-.2,1.76c-.1.81-.21,1.63-.34,2.43-.07.56-.17,1.1-.26,1.65l-.3,1.7a5.15,5.15,0,0,1-.11.59c-.11.52-.2,1-.32,1.54s-.24,1.14-.39,1.72c-.17.79-.37,1.56-.57,2.35s-.4,1.55-.63,2.32-.39,1.35-.59,2c-.27.86-.54,1.72-.83,2.57s-.52,1.51-.8,2.27a.49.49,0,0,0-.06.17q-1.21,3.27-2.64,6.44c-.33.71-.66,1.43-1,2.15s-.71,1.42-1.07,2.12-.71,1.41-1.1,2.09-.76,1.38-1.15,2.07-.79,1.36-1.2,2-.82,1.35-1.25,2-.85,1.32-1.29,2-.69,1-1,1.52c-.54.78-1.1,1.55-1.67,2.31s-1,1.25-1.44,1.87a94.1,94.1,0,0,1-7.61,8.6c-.36.37-.73.75-1.12,1.1-1,.94-1.92,1.84-2.91,2.73-.4.37-.82.73-1.23,1.1-1.25,1.08-2.53,2.13-3.82,3.13-.49.39-1,.76-1.45,1.12-1,.73-2,1.45-3,2.13-.5.36-1,.71-1.52,1l-1.59,1c-.66.43-1.32.85-2,1.25s-1.35.82-2,1.21l-2.05,1.14-1.87,1c-.76.39-1.53.79-2.31,1.16-1.45.69-2.89,1.35-4.37,2-.73.31-1.46.61-2.21.9s-1.48.58-2.24.85c-1.62.6-3.25,1.14-4.91,1.66-1.41.43-2.83.83-4.26,1.19-.78.2-1.57.4-2.36.58-.57.14-1.14.27-1.72.38-1,.23-2.1.43-3.17.62-.76.13-1.51.26-2.29.37s-1.62.25-2.44.35-1.62.2-2.44.28H2785l-2.35.2-1.72.11c-1.92.12-3.84.17-5.79.17H2570a97.73,97.73,0,0,1-97.73-97.72V1540.19a67.67,67.67,0,0,1,67.67-67.66h265.22a67.65,67.65,0,0,1,67.65,67.65Z" transform="translate(-653.35 -359.95)"/><path class="cls-22" d="M2872.81,1880.92v616.9c0,1.8,0,3.61-.16,5.4,0,.71-.07,1.41-.13,2.11-.07,1.06-.17,2.12-.3,3.17a14.81,14.81,0,0,1-.2,1.76c-.1.81-.21,1.63-.34,2.43-.07.56-.17,1.1-.26,1.65l-.3,1.7a5.15,5.15,0,0,1-.11.59c-.11.52-.2,1-.32,1.54s-.24,1.14-.39,1.72c-.17.79-.37,1.56-.57,2.35s-.4,1.55-.63,2.32-.39,1.35-.59,2c-.27.86-.54,1.72-.83,2.57s-.52,1.51-.8,2.27a.49.49,0,0,0-.06.17q-1.21,3.27-2.64,6.44c-.33.71-.66,1.43-1,2.15s-.71,1.42-1.07,2.12-.71,1.41-1.1,2.09-.76,1.38-1.15,2.07-.79,1.36-1.2,2-.82,1.35-1.25,2-.85,1.32-1.29,2-.69,1-1,1.52c-.54.78-1.1,1.55-1.67,2.31s-1,1.25-1.44,1.87a94.1,94.1,0,0,1-7.61,8.6c-.36.37-.73.75-1.12,1.1-1,.94-1.92,1.84-2.91,2.73-.4.37-.82.73-1.23,1.1-1.25,1.08-2.53,2.13-3.82,3.13-.49.39-1,.76-1.45,1.12-1,.73-2,1.45-3,2.13-.5.36-1,.71-1.52,1l-1.59,1c-.66.43-1.32.85-2,1.25s-1.35.82-2,1.21l-2.05,1.14-1.87,1c-.76.39-1.53.79-2.31,1.16-1.45.69-2.89,1.35-4.37,2-.73.31-1.46.61-2.21.9s-1.48.58-2.24.85c-1.62.6-3.25,1.14-4.91,1.66-1.41.43-2.83.83-4.26,1.19-.78.2-1.57.4-2.36.58-.57.14-1.14.27-1.72.38-1,.23-2.1.43-3.17.62-.76.13-1.51.26-2.29.37s-1.62.25-2.44.35-1.62.2-2.44.28H2785l-2.35.2-1.72.11c-1.92.12-3.84.17-5.79.17H2570a97.73,97.73,0,0,1-97.73-97.72V1880.9Z" transform="translate(-653.35 -359.95)"/><path class="cls-14" d="M2769.82,1568.11H2575.27a9.72,9.72,0,0,0-9.7,9.7v106.87a9.73,9.73,0,0,0,9.7,9.72h194.55a9.73,9.73,0,0,0,9.71-9.72V1577.81A9.71,9.71,0,0,0,2769.82,1568.11Z" transform="translate(-653.35 -359.95)"/><rect class="cls-16" x="1902.5" y="1198.43" width="233.38" height="145.72" rx="19.43"/><path class="cls-8" d="M2578.74,1618.07h187.61a13.18,13.18,0,0,1,13.18,13.18h0a13.18,13.18,0,0,1-13.18,13.18H2578.74a13.18,13.18,0,0,1-13.18-13.18h0A13.18,13.18,0,0,1,2578.74,1618.07Z" transform="translate(-653.35 -359.95)"/><circle class="cls-10" cx="1960.75" cy="1428.2" r="29.6"/><circle class="cls-23" cx="2077.64" cy="1428.2" r="29.6"/><path class="cls-24" d="M1722.58,1880.92v616.61a98.62,98.62,0,0,1-98.61,98H1471.52c.16-244.61,50.36-489.32,145.81-714.62Z" transform="translate(-653.35 -359.95)"/><path class="cls-18" d="M1614,2595.54H1420.63a98.09,98.09,0,0,1-21.13-2.28L1322,2211.39v-671.2a67.66,67.66,0,0,1,64.14-67.57l20.22,99.7h0l8.93,44,1.71,8.42h0l3.44,16.92,10.7,52.72,2,9.71,12.35,60.84,10.49,51.72h0l13,64.23Z" transform="translate(-653.35 -359.95)"/><polygon class="cls-18" points="1100.82 1835.86 1069.23 1872.51 1069.23 2137.58 1021.41 1901.91 1012.43 1857.64 944.12 1520.97 931.25 1457.54 919.51 1399.68 908.25 1344.16 906.27 1334.45 896.13 1284.47 890.79 1258.12 880.65 1208.16 878.68 1198.43 861.26 1112.58 954.08 1112.58 971.65 1199.21 974.36 1212.59 975.94 1220.33 985.64 1268.18 1031.17 1492.56 1036.94 1520.97 1041.88 1545.36 1069.23 1680.17 1087.56 1770.47 1087.56 1770.48 1100.82 1835.86"/><path class="cls-22" d="M2575.93,1880.92H2472.27v-121.1A1110.37,1110.37,0,0,1,2575.93,1880.92Z" transform="translate(-653.35 -359.95)"/><path class="cls-22" d="M1615.72,1891.47h106.53v-121.1C1685.71,1797.37,1649.46,1822.08,1615.72,1891.47Z" transform="translate(-653.35 -359.95)"/><path class="cls-24" d="M2819.81,2584.73c-.76.39-1.53.79-2.31,1.16-1.45.69-2.89,1.35-4.37,2-.73.31-1.46.61-2.21.9s-1.48.58-2.24.85c-1.62.6-3.25,1.14-4.91,1.66-1.41.43-2.83.83-4.26,1.19-.78.2-1.57.4-2.36.58-.57.14-1.14.27-1.72.38-1,.23-2.1.43-3.17.62-.76.13-1.51.26-2.29.37s-1.62.25-2.44.35-1.62.2-2.44.28a.33.33,0,0,0-.14,0l-2.35.2-1.72.11c-1.92.12-3.84.17-5.79.17H2570a97.73,97.73,0,0,1-97.73-97.72v-616.9h103.66a1199.88,1199.88,0,0,1,151.25,273.72C2781.19,2291.74,2810.88,2437.48,2819.81,2584.73Z" transform="translate(-653.35 -359.95)"/><path class="cls-18" d="M2785,2595.06l-2.35.2-1.72.11c-1.92.12-3.84.17-5.79.17H2571l-65.94-325-21.43-105.64h0l-11.39-56.14V1540.19a67.67,67.67,0,0,1,67.67-67.66h17.28l17.41,85.87,2,9.71,10.14,50,5.33,26.35,10.15,50,2,9.71,11.05,54.47L2626.7,1815l13.38,66Z" transform="translate(-653.35 -359.95)"/><polygon class="cls-18" points="2219.46 1577.48 2219.46 2034.92 2115.18 1520.97 2100.24 1447.3 2091.01 1401.79 2079.32 1344.16 2077.34 1334.45 2067.2 1284.47 2061.85 1258.12 2051.72 1208.16 2049.75 1198.43 2032.33 1112.58 2125.15 1112.58 2208 1520.97 2219.46 1577.48"/><path class="cls-25" d="M1965.47,2158.18a59.3,59.3,0,0,1-103.73-39.29V1703.73a59.26,59.26,0,0,1,24.35-47.92C1936.73,1819.23,1968.62,1989.1,1965.47,2158.18Z" transform="translate(-653.35 -359.95)"/><path class="cls-25" d="M2333.12,1703.73v415.16A59.3,59.3,0,0,1,2234,2162.8a1582.87,1582.87,0,0,1,87.84-493.91A59,59,0,0,1,2333.12,1703.73Z" transform="translate(-653.35 -359.95)"/><path class="cls-3" d="M1408.74,503.44V655.09H1372V524.87Q1390.17,513.82,1408.74,503.44Z" transform="translate(-653.35 -359.95)"/><path class="cls-3" d="M1897.25,361.82V655.09h-36.74V364.47Q1878.8,362.86,1897.25,361.82Z" transform="translate(-653.35 -359.95)"/><path class="cls-3" d="M2376.63,642.61v279.7c0,19.09-18.57,34.56-41.5,34.56H979.47a48.21,48.21,0,0,1-16.81-3q9.6-17.6,19.77-34.82,28.38-47.92,61.19-92.73,9.53-13,19.43-25.79,4.7-6,9.45-12,6.43-8.07,13-16,8-9.69,16.28-19.23,6.72-7.78,13.62-15.46a1143,1143,0,0,1,102.5-100.66Q1235.14,622.26,1253,608H2335.13C2358.06,608.05,2376.63,623.52,2376.63,642.61Z" transform="translate(-653.35 -359.95)"/><path class="cls-16" d="M2346.24,671.78V893.14c0,19.09-18.57,34.56-41.5,34.56H1009.85a46.28,46.28,0,0,1-27.42-8.62q28.38-47.93,61.19-92.73,9.53-13,19.43-25.79,4.7-6,9.45-12,6.43-8.07,13-16,8-9.69,16.28-19.23,6.72-7.79,13.62-15.46a1143,1143,0,0,1,102.5-100.66H2304.74C2327.67,637.22,2346.24,652.69,2346.24,671.78Z" transform="translate(-653.35 -359.95)"/><path class="cls-17" d="M1099.68,787.23a36.89,36.89,0,0,0,9-5,35.14,35.14,0,0,0,6.94-7,32,32,0,0,0,4.56-8.45,28.41,28.41,0,0,0,1.65-9.79,31,31,0,0,0-2.53-12.56,31.78,31.78,0,0,0-3.86-6.59q-6.89,7.68-13.62,15.46a13.92,13.92,0,0,1,.58,4,14.84,14.84,0,0,1-1.2,5.91,16.34,16.34,0,0,1-3.21,4.84,14.75,14.75,0,0,1-4.71,3.3,13.88,13.88,0,0,1-5.68,1.19h-2.06q-6.58,7.94-13,16h7.14l19.89,39.6a4.73,4.73,0,0,0,.82.91,2.36,2.36,0,0,0,1.58.44h15.69a2.64,2.64,0,0,0,2.62-1.42,3.12,3.12,0,0,0-.09-2.91Zm-56.06,39.12v.34a2.8,2.8,0,0,0,2.76,2.84h13.83a2.78,2.78,0,0,0,2.81-2.82V800.56Q1053.17,813.33,1043.62,826.35Z" transform="translate(-653.35 -359.95)"/><path class="cls-17" d="M1164.41,793.8l14.65-32.89h.45l15,32.89ZM1229,825.64,1183,725a3,3,0,0,0-.82-1.21,2.75,2.75,0,0,0-1.72-.44H1179a2.57,2.57,0,0,0-2.53,1.65l-46.49,100.6a2.49,2.49,0,0,0,.07,2.7,2.79,2.79,0,0,0,2.46,1.19h13a4.23,4.23,0,0,0,2.84-.89,5.23,5.23,0,0,0,1.51-2.09l7.31-16.15h44.71l7.31,16.15a5.65,5.65,0,0,0,1.73,2.31,4.57,4.57,0,0,0,2.62.67h13a2.84,2.84,0,0,0,2.46-1.19A2.48,2.48,0,0,0,1229,825.64Z" transform="translate(-653.35 -359.95)"/><path class="cls-17" d="M1260.91,725.71a2.73,2.73,0,0,0-2-.83H1245a2.85,2.85,0,0,0-2.84,2.84v99a2.83,2.83,0,0,0,2.82,2.84h13.93a2.8,2.8,0,0,0,2.84-2.76V727.72A2.71,2.71,0,0,0,1260.91,725.71Z" transform="translate(-653.35 -359.95)"/><path class="cls-17" d="M1346.72,812.41a2.72,2.72,0,0,0-2-.82h-38.11V727.72a2.83,2.83,0,0,0-2.82-2.84H1290a2.83,2.83,0,0,0-2.83,2.83v99a2.7,2.7,0,0,0,.83,2,2.74,2.74,0,0,0,2,.82h54.72a2.8,2.8,0,0,0,2.84-2.76V814.43A2.75,2.75,0,0,0,1346.72,812.41Z" transform="translate(-653.35 -359.95)"/><path class="cls-17" d="M1471.62,725.85a2.84,2.84,0,0,0-2.39-1h-13.75a2.48,2.48,0,0,0-1.65.67,4.16,4.16,0,0,0-1,1.42l-15.24,59.66h-.6L1413,725a2.42,2.42,0,0,0-2.54-1.65h-2.7a2.4,2.4,0,0,0-2.53,1.65l-23.77,61.59h-.6L1365.34,727a4.16,4.16,0,0,0-1-1.42,2.48,2.48,0,0,0-1.65-.67h-13.75a2.56,2.56,0,0,0-2.9,2.19,2.53,2.53,0,0,0,.2,1.41L1374.51,829a3,3,0,0,0,1,1.5,2.58,2.58,0,0,0,1.64.59h2.39a2.65,2.65,0,0,0,1.73-.44,3.23,3.23,0,0,0,.81-1.19l26.47-67.73h.75l26.76,67.73a2.42,2.42,0,0,0,2.54,1.63h2.4a2.54,2.54,0,0,0,2.68-2.09L1472,728.51A2.87,2.87,0,0,0,1471.62,725.85Z" transform="translate(-653.35 -359.95)"/><path class="cls-17" d="M1569.39,825.64l-46-100.6a3,3,0,0,0-.82-1.21,2.75,2.75,0,0,0-1.72-.44h-1.49a2.57,2.57,0,0,0-2.55,1.65l-46.49,100.6a2.49,2.49,0,0,0,.07,2.7,2.79,2.79,0,0,0,2.46,1.19h13a4.23,4.23,0,0,0,2.84-.89,5.23,5.23,0,0,0,1.51-2.09l7.32-16.15h44.7l7.33,16.15a5.37,5.37,0,0,0,1.71,2.31,4.65,4.65,0,0,0,2.62.67h13a2.79,2.79,0,0,0,2.46-1.19A2.47,2.47,0,0,0,1569.39,825.64Zm-64.58-31.84,14.65-32.89h.45l14.95,32.89Z" transform="translate(-653.35 -359.95)"/><path class="cls-17" d="M1648.64,726.3a2.66,2.66,0,0,0-2.56-1.42h-15.4a2.48,2.48,0,0,0-1.49.46,3.58,3.58,0,0,0-.89.89l-23.92,34.38-23.92-34.38a3.8,3.8,0,0,0-.9-.89,2.48,2.48,0,0,0-1.49-.46h-15.26a2.64,2.64,0,0,0-2.54,1.42,2.79,2.79,0,0,0,.16,2.92l34.09,49.94v47.53a2.8,2.8,0,0,0,2.76,2.84h13.83a2.74,2.74,0,0,0,2-.82,2.7,2.7,0,0,0,.83-2V779l34.53-49.78A2.84,2.84,0,0,0,1648.64,726.3Z" transform="translate(-653.35 -359.95)"/><path class="cls-17" d="M1751.48,788.86a32.58,32.58,0,0,0-7.33-9.33,47.39,47.39,0,0,0-10.09-6.8c-3.73-1.89-7.4-3.6-11-5.09q-9.12-3.74-13.37-7.63a12,12,0,0,1-4.26-9.12,9.65,9.65,0,0,1,3.37-7.4c2.23-2,5.5-3,9.78-3a23.22,23.22,0,0,1,11.14,2.61q4.86,2.63,9.65,5.6a2.74,2.74,0,0,0,2.84.23,5.64,5.64,0,0,0,2.38-2l5.69-8.52a3.85,3.85,0,0,0,.52-2.69,3,3,0,0,0-1.42-2.24q-1.2-.9-3.82-2.55a48.2,48.2,0,0,0-6.49-3.29,63.09,63.09,0,0,0-8.91-2.91,43.65,43.65,0,0,0-10.68-1.27,40.31,40.31,0,0,0-15.33,2.62,30.64,30.64,0,0,0-10.38,6.74,26.22,26.22,0,0,0-6,9.28,28.27,28.27,0,0,0-2,10.11,27.34,27.34,0,0,0,2.39,11.69,31.23,31.23,0,0,0,6.36,9,41.75,41.75,0,0,0,9,6.74,91.55,91.55,0,0,0,10.31,5q9.43,3.89,14.22,8.09a12.76,12.76,0,0,1,4.77,9.88,10.43,10.43,0,0,1-3.89,8.16,14.25,14.25,0,0,1-9.7,3.37,26.07,26.07,0,0,1-12.64-2.91,89.86,89.86,0,0,1-10-6.36,4,4,0,0,0-2.61-.67,2.89,2.89,0,0,0-2.47,1.71l-5.37,9.26q-1.07,1.79-.75,2.67a3.79,3.79,0,0,0,1.49,1.77c1.09.89,2.54,2,4.33,3.35a39,39,0,0,0,6.66,3.84,46.68,46.68,0,0,0,9.42,3.12,56.21,56.21,0,0,0,12.47,1.25,39.38,39.38,0,0,0,14.29-2.46,34.2,34.2,0,0,0,10.84-6.57,28.94,28.94,0,0,0,6.87-9.42,27,27,0,0,0,2.39-11.15A26.49,26.49,0,0,0,1751.48,788.86Z" transform="translate(-653.35 -359.95)"/><path class="cls-17" d="M1834.22,725.71a2.73,2.73,0,0,0-2-.83h-65.34a2.82,2.82,0,0,0-2.84,2.8V740a2.8,2.8,0,0,0,2.76,2.84h23v83.87a2.8,2.8,0,0,0,2.76,2.84h14a2.82,2.82,0,0,0,2.85-2.79V742.82h22.88a2.83,2.83,0,0,0,2.84-2.82V727.72A2.77,2.77,0,0,0,1834.22,725.71Z" transform="translate(-653.35 -359.95)"/><path class="cls-17" d="M1931.78,825.64l-46-100.6a3,3,0,0,0-.82-1.21,2.69,2.69,0,0,0-1.72-.44h-1.5a2.59,2.59,0,0,0-2.54,1.65l-46.49,100.6a2.53,2.53,0,0,0,.07,2.7,2.81,2.81,0,0,0,2.47,1.19h13a4.28,4.28,0,0,0,2.84-.89,5,5,0,0,0,1.5-2.09l7.32-16.15h44.7l7.33,16.15a5.48,5.48,0,0,0,1.72,2.31,4.57,4.57,0,0,0,2.62.67h13a2.81,2.81,0,0,0,2.47-1.19A2.53,2.53,0,0,0,1931.78,825.64Zm-64.59-31.84,14.66-32.89h.44l15,32.89Z" transform="translate(-653.35 -359.95)"/><path class="cls-17" d="M1999.58,725.71a2.75,2.75,0,0,0-2-.83h-65.33a2.82,2.82,0,0,0-2.82,2.83V740a2.72,2.72,0,0,0,.82,2,2.78,2.78,0,0,0,2,.82h22.87v83.87a2.83,2.83,0,0,0,2.82,2.84h13.93a2.78,2.78,0,0,0,2-.82,2.72,2.72,0,0,0,.82-2V742.82h22.87a2.78,2.78,0,0,0,2.81-2.82V727.72A2.74,2.74,0,0,0,1999.58,725.71Z" transform="translate(-653.35 -359.95)"/><path class="cls-17" d="M2035.76,725.71a2.83,2.83,0,0,0-2-.83h-13.91a2.85,2.85,0,0,0-2.84,2.84v99a2.83,2.83,0,0,0,2.82,2.84h13.93a2.78,2.78,0,0,0,2.81-2.82v-99A2.76,2.76,0,0,0,2035.76,725.71Z" transform="translate(-653.35 -359.95)"/><path class="cls-17" d="M2159.16,756.28a52.75,52.75,0,0,0-11.51-17.12,55.78,55.78,0,0,0-17.12-11.51,53.79,53.79,0,1,0,0,99.19,53.61,53.61,0,0,0,28.63-70.56Zm-17.93,34.39a34.18,34.18,0,0,1-7.42,10.91,35.11,35.11,0,0,1-11,7.32A34.22,34.22,0,0,1,2078,764.05a35.4,35.4,0,0,1,7.32-11,35,35,0,0,1,10.92-7.48,33.34,33.34,0,0,1,26.6,0,35.76,35.76,0,0,1,11,7.48,35,35,0,0,1,7.42,11,34.42,34.42,0,0,1,0,26.62Z" transform="translate(-653.35 -359.95)"/><path class="cls-17" d="M2270.16,725.71a2.75,2.75,0,0,0-2-.83h-13.75a2.83,2.83,0,0,0-2.83,2.83v61.75h-.3l-61-65a3.53,3.53,0,0,0-2.53-1h-2.26a2.93,2.93,0,0,0-2,.74,2.49,2.49,0,0,0-.84,2V826.69a2.83,2.83,0,0,0,2.82,2.84h13.63a2.8,2.8,0,0,0,2.84-2.76V762.41h.3L2263.5,830a3.47,3.47,0,0,0,2.55,1h2.08a2.89,2.89,0,0,0,2-.74,2.55,2.55,0,0,0,.83-1.94V727.72A2.74,2.74,0,0,0,2270.16,725.71Z" transform="translate(-653.35 -359.95)"/><polygon class="cls-26" points="1199.81 1958.74 1187.97 2134.96 1374.52 2134.96 1335.31 1851.32 1199.81 1958.74"/><path class="cls-27" d="M2181.24,2485.08s-113.53-16.51-172.56-105.12c0,0-15.74-40-21.63,50.52l-13.93-.95c-37.71-2.57-72.39-20.79-103-46.23a5.16,5.16,0,0,0-5.18-.86c-4.94,1.87-10.75,7.91-12.48,25.75l-.48-.13v147.88c0,1.86,3.53,3.4,7.8,3.4h327.16c4.25,0,7.75-1.54,7.75-3.4v-21.45C2195.69,2533.1,2221.6,2496.2,2181.24,2485.08Zm-291-38.78v.31h-.5Z" transform="translate(-653.35 -359.95)"/><rect class="cls-28" x="1175.51" y="1927.51" width="193.97" height="62.46" rx="20.61"/><path class="cls-28" d="M2022.84,1500v775.14c0,24-21.07,43.53-47,43.53H1876.1c-26,0-47-19.48-47-43.53V1500a41.1,41.1,0,0,1,8.11-24.45,46.13,46.13,0,0,1,17.69-14.39,49.71,49.71,0,0,1,21.25-4.7h99.74c22.87,0,41.94,15.1,46.17,35.13A41,41,0,0,1,2022.84,1500Z" transform="translate(-653.35 -359.95)"/><path class="cls-29" d="M2210.66,1526v409.49a154.3,154.3,0,0,1-11.86,59.18l-125.93,303.61c-13.94,33.57-56.72,48-90.75,30.63l-20-10.21-39.26-20.06c-27.78-14.19-40.13-45.07-29-72.59l110.72-274.46-7.14-154.74-6.83-147.76s-38.83-12.19-85.74-50.76c-34.72-28.57-42.34-61.31-67.75-122.75q-3.76-9.11-8.11-19.09l25.8,4.7L2022,1491.6Z" transform="translate(-653.35 -359.95)"/><polygon class="cls-26" points="1231.62 1919.81 1170.46 2133.15 1298.32 2199.39 1298.95 2142.86 1374.52 1962.37 1231.62 1919.81"/><path class="cls-30" d="M1847.66,2457.41l-.15.26-.45-.29h0Zm311.5,130.25c-2.73-6.41-9.29-10.84-22.67-9.9-84.57-13.61-129.9-36.89-154-120.25-2-41-42.59,35.5-43.74,37.47a122.32,122.32,0,0,1-12.1-6.88c-34.39-22-49.81-61.48-67.5-95-.79-1.51-.83-3.14-5.44-3.46-9.93-.66-18.81,6.27-25.13,14.82l-.39-.33c-2.15,3.81-4.32,7.62-6.48,11.42-1,1.77-2.14,3.65-2.68,4.74q-7.21,12.71-14.42,25.45a111.62,111.62,0,0,1-6,9.42c-9.75,14-22,26.59-29.51,41.77-12.13,24.62-8.57,27.36,11,41.63,34.42,25.07,75.55,47.84,114.62,66.22,76.26,35.9,161.34,40.44,245.26,45.58,10,.6,8.56-.09,9.25-2.67a60.64,60.64,0,0,0,1.62-24.24c1,0,2-.12,3-.2.15,0,11.08-22.17,5.31-35.59Z" transform="translate(-653.35 -359.95)"/><path class="cls-27" d="M2153.92,2623.26c-1,.08-2,.15-3,.2a60.64,60.64,0,0,1-1.62,24.24c-.69,2.58.7,3.27-9.25,2.67-83.92-5.14-169-9.68-245.26-45.58-39.07-18.38-80.2-41.15-114.62-66.22-19.61-14.27-23.17-17-11-41.63,7.49-15.18,19.76-27.8,29.51-41.77,95.35,90.33,229.37,140.06,360.49,132.49C2164.93,2601.08,2154,2623.26,2153.92,2623.26Z" transform="translate(-653.35 -359.95)"/><path class="cls-29" d="M2007.26,2357.62l-119.78-47c-16.24-6.37-23.83-23.71-17-38.75l1.41-3.07c6.89-15,25.63-22.06,41.88-15.69l119.77,47c16.25,6.36,23.84,23.71,17,38.74l-1.41,3.08C2042.25,2357,2023.5,2364,2007.26,2357.62Z" transform="translate(-653.35 -359.95)"/><rect class="cls-31" x="1287.33" y="508.34" width="120.8" height="138.01"/><path class="cls-32" d="M1917.11,639.88V769.59l.32,50.25a111.62,111.62,0,0,0,144,98.1l2.18-.68a111.58,111.58,0,0,0,76.47-105.91V639.88Z" transform="translate(-653.35 -359.95)"/><path class="cls-33" d="M1917.11,676.05v93.54l.32,50.25a111.62,111.62,0,0,0,144,98.1l2.18-.68a111.11,111.11,0,0,0,24.48-69.75V676.05Z" transform="translate(-653.35 -359.95)"/><path class="cls-34" d="M1887.21,1483.87v116.31h130c139.95,0,253.4-113.46,253.4-253.41V1320l-139.89-195.38c30.55,50.43,7.1,116.14-24.88,165.68C2052.42,1373.11,1975.71,1440.57,1887.21,1483.87Z" transform="translate(-653.35 -359.95)"/><path class="cls-31" d="M2080.45,798.09h-20V749.44h20a17,17,0,0,1,17,17h0v14.69A17,17,0,0,1,2080.45,798.09Z" transform="translate(-653.35 -359.95)"/><path class="cls-35" d="M1854.1,717a61.79,61.79,0,0,0,38.57,92.57,87.16,87.16,0,0,0,168.91-43.07,86.21,86.21,0,0,0-3.58-11h.86a61.76,61.76,0,0,0,61.38-55c1,0,2,.08,3,.08a61.76,61.76,0,0,0,5.52-123.28,49.83,49.83,0,0,0-76.24-42.59,46.8,46.8,0,0,0-3.88,2.67,87.13,87.13,0,0,0-107.7,12.1,60.9,60.9,0,0,0-11.2,1A61.74,61.74,0,0,0,1879,609a87.15,87.15,0,0,0-24.85,108Z" transform="translate(-653.35 -359.95)"/><path class="cls-36" d="M1968,723a250.29,250.29,0,0,0,45.33,144.09A87.13,87.13,0,0,0,2058,755.53h.86a61.76,61.76,0,0,0,61.38-55c1,0,2,.08,3,.08a61.76,61.76,0,0,0,5.52-123.28,49.83,49.83,0,0,0-76.24-42.59A251,251,0,0,0,1968,723Z" transform="translate(-653.35 -359.95)"/><path class="cls-8" d="M1997.43,1796.83A584.71,584.71,0,0,1,1829,1726V1500a41.1,41.1,0,0,1,8.11-24.45c25.41,61.44,33,94.18,67.75,122.75,46.91,38.57,85.74,50.76,85.74,50.76Z" transform="translate(-653.35 -359.95)"/><path class="cls-28" d="M2210.66,1526v283.48a594.45,594.45,0,0,1-187.82-7q-12.81-2.54-25.41-5.65l-6.83-147.76s-38.83-12.19-85.74-50.76c-34.72-28.57-42.34-61.31-67.75-122.75q-3.77-9.11-8.11-19.09l25.8,4.7a49.71,49.71,0,0,1,21.25-4.7h99.74c22.87,0,41.94,15.1,46.17,35.13Z" transform="translate(-653.35 -359.95)"/><path class="cls-16" d="M2281.73,1304.16v34c0,229.19-222.36,406.45-463.11,327.81V1073.75A116.39,116.39,0,0,1,1935,957.4h0C2126.48,957.4,2281.73,1112.65,2281.73,1304.16Z" transform="translate(-653.35 -359.95)"/><path class="cls-8" d="M2823.35,1299.09l-20.27,47.84-41.19,97.18-7.36,17.38a17.17,17.17,0,0,1-22.5,9.14h0l-50.65-21.45-41.2-17.46a17.21,17.21,0,0,1-9.12-22.55l29-68.35,39.85-94a16.88,16.88,0,0,1,1.42-2.65,17.13,17.13,0,0,1,19.83-6.94c.43.13.86.3,1.27.47L2787,1265l27.3,11.56A17.2,17.2,0,0,1,2823.35,1299.09Z" transform="translate(-653.35 -359.95)"/><path class="cls-37" d="M2803.08,1346.93l-41.19,97.18-40.78-206.94c.43.13.86.3,1.27.47l64.55,27.35Z" transform="translate(-653.35 -359.95)"/><path class="cls-18" d="M2745.89,1470.41a17.08,17.08,0,0,1-13.88.21l-50.65-21.45L2660,1340.81l39.85-94a16.88,16.88,0,0,1,1.42-2.65Z" transform="translate(-653.35 -359.95)"/><path class="cls-38" d="M2829.91,1361.92c-18,48-88.78,54.37-136.29,44a138.54,138.54,0,0,1-19.26-5.57c-22.44-8.47-44-22.33-68-21.73-7.43.19-28.64-20.9-31.53-27.73q-5.09-12-10.16-24.07c-5.56-13.16-3.6-35,6.09-45.5,6.93-7.48,27-12.59,47.79-15.71,21.35-3.18,43.48-4.29,53.06-3.76,28.12,1.55,58.14,4.82,85.52,11.83C2796.32,1283.75,2848,1313.51,2829.91,1361.92Z" transform="translate(-653.35 -359.95)"/><path class="cls-39" d="M2693.62,1406a138.54,138.54,0,0,1-19.26-5.57c-22.44-8.47-44-22.33-68-21.73-7.43.19-28.64-20.9-31.53-27.73q-5.09-12-10.16-24.07c-5.56-13.16-3.6-35,6.09-45.5,6.93-7.48,27-12.59,47.79-15.71,18.84,8.14,36,19.92,49.52,35.31C2693,1329.17,2704.19,1370.07,2693.62,1406Z" transform="translate(-653.35 -359.95)"/><path class="cls-40" d="M2572,1269.83c39.69-5.85,78.08,17.17,83.93,56.85h0c5.78,39.2-23.37,68.45-62.45,74.92Z" transform="translate(-653.35 -359.95)"/><path class="cls-23" d="M2607.84,1391.58a66,66,0,0,1-7.89,5.82,69,69,0,0,1-25.71,9.77L2288,1454.57a140.37,140.37,0,0,1-155-90.74L2034.62,1092a74.37,74.37,0,0,1-3-10.12,72.93,72.93,0,0,1,139.44-41.52l86.32,228.07a57.11,57.11,0,0,0,61.74,36.28l233.7-34.47a69.3,69.3,0,0,1,55,121.34Z" transform="translate(-653.35 -359.95)"/><path class="cls-30" d="M2288,1454.36l286.28-47.4a69.36,69.36,0,0,0,25.71-9.77,68,68,0,0,0,7.89-5.82c-113.6,24.71-234.44,22.59-336.8-28.12-71.31-35.32-126-95-169.67-160.37-6.14-9.18-41.07-68.63-69.78-121.21a74.37,74.37,0,0,0,3,10.12L2133,1363.62A140.41,140.41,0,0,0,2288,1454.36Z" transform="translate(-653.35 -359.95)"/><path class="cls-30" d="M1869.33,1141.72V1610a34,34,0,0,1-34,34h-8.25a74.44,74.44,0,0,1-74.45-74.43h0v-240a221.83,221.83,0,0,1,115.93-195A32.33,32.33,0,0,1,1869.33,1141.72Z" transform="translate(-653.35 -359.95)"/><path class="cls-27" d="M2008.49,1141.72V1610a34,34,0,0,1-34,34H1835.34a34,34,0,0,0,34-34h0V1141.72a32.82,32.82,0,0,0-.76-7.12,220.84,220.84,0,0,1,105.93-26.87,34,34,0,0,1,34,34h0Z" transform="translate(-653.35 -359.95)"/><path class="cls-30" d="M1869.33,1141.72V1610a34,34,0,0,1-34,34h-147.4a74.45,74.45,0,0,1-74.45-74.43v-240c0-122.52,99.34-221.85,221.86-221.85a34,34,0,0,1,33.23,26.87A32.82,32.82,0,0,1,1869.33,1141.72Z" transform="translate(-653.35 -359.95)"/><path class="cls-27" d="M1890.49,1134.6s33.78-94,91.07-148.66c30.18-28.81,77.77-28.63,108.12,0,4.59,4.32,7.68,7.24,7.74,7.28.22.19-89.32-23.39-147.09,131.39S1890.49,1134.6,1890.49,1134.6Z" transform="translate(-653.35 -359.95)"/><path class="cls-27" d="M1894.49,1128c21.55,163.8-48.16,36.88-48.16,36.88s-14.24-98.86,10.72-174c.58-1.75,1.23-3.47,1.93-5.16a115.79,115.79,0,0,1,76-28.26h1.76C1912.14,977.48,1880.81,1024,1894.49,1128Z" transform="translate(-653.35 -359.95)"/><path class="cls-23" d="M1680.72,1325.11h97.4a89.1,89.1,0,0,0,83.66-58.38c21.62-58.94,66.32-139.9,146.71-129.49h0a46.17,46.17,0,0,0-44.54-34H1835.34s-153.41-5-206.39,149.15C1616.71,1288,1643.06,1325.11,1680.72,1325.11Z" transform="translate(-653.35 -359.95)"/><path class="cls-27" d="M2181.52,1428.9c-46.41,56.77-131.6,157.06-173,181.07-58.62,34-58.17-34.49-58.17-34.49l43.63-.92s98.62-130.06,146.4-194A139.91,139.91,0,0,0,2181.52,1428.9Z" transform="translate(-653.35 -359.95)"/><path class="cls-1" d="M3396,1024.4a44.64,44.64,0,1,1-44.64-44.65A44.65,44.65,0,0,1,3396,1024.4Z" transform="translate(-653.35 -359.95)"/><path class="cls-1" d="M3224.61,928.17a83.48,83.48,0,1,1-83.49-83.47h0A83.47,83.47,0,0,1,3224.61,928.17Z" transform="translate(-653.35 -359.95)"/><path class="cls-1" d="M744,1744.92a44.64,44.64,0,1,1-44.65-44.65A44.65,44.65,0,0,1,744,1744.92Z" transform="translate(-653.35 -359.95)"/><path class="cls-1" d="M820.31,2017.55a83.48,83.48,0,1,1-83.49-83.47h0a83.45,83.45,0,0,1,83.46,83.44Z" transform="translate(-653.35 -359.95)"/></g></svg>