<?xml version="1.0" encoding="utf-8"?>
<!-- Generator: Adobe Illustrator 23.0.3, SVG Export Plug-In . SVG Version: 6.00 Build 0)  -->
<svg version="1.1" id="Layer_1" xmlns="http://www.w3.org/2000/svg" xmlns:xlink="http://www.w3.org/1999/xlink" x="0px" y="0px"
	 viewBox="0 0 350 350" style="enable-background:new 0 0 350 350;" xml:space="preserve">
<style type="text/css">
	.st0{fill:none;}
	.st1{fill:#D4D4D4;}
	.st2{fill:#F2F2F2;}
	.st3{fill:#FFFFFF;}
	.st4{fill:#414242;}
	.st5{fill:#DFDFDF;}
	.st6{fill:#A4A4A4;}
	.st7{fill:#F1F1F1;}
	.st8{fill:#D5D5D5;}
	.st9{fill:#DEDEDE;}
	.st10{fill:#0F7CFF;}
	.st11{fill:#A3A3A3;}
	.st12{fill:#F3BA26;}
	.st13{fill:#F8E7CC;}
	.st14{fill:#404141;}
	.st15{fill:#DB9C17;}
	.st16{fill:#559DE5;}
	.st17{fill:#0666C6;}
	.st18{fill:#A2A2A2;}
	.st19{fill:#D3D3D3;}
	.st20{fill:#6F6FB2;}
	.st21{fill:#F6E5CC;}
	.st22{fill:#F2B92C;}
	.st23{fill:#178DC0;}
</style>
<rect x="-1" y="0.9" class="st0" width="350" height="349"/>
<path class="st1" d="M276.6,141.1l-12.8,5.7c-2.1,0.9-4.6,0.9-6.7,0l-12.5-5.7c-1.3-0.6-1.6-1.9-0.9-2.9c0.2-0.3,0.5-0.5,0.9-0.7
	l14.7-6.5c0.8-0.4,1.8-0.4,2.5,0l14.7,6.5c1.3,0.4,1.9,1.6,1.3,2.6C277.5,140.5,277.1,140.9,276.6,141.1z"/>
<path class="st2" d="M274.6,134.2l-16,7.2h-0.2l-15.7-7.2V134l15.8-7.1h0.2L274.6,134.2L274.6,134.2z"/>
<path class="st3" d="M274.4,136.7l-16,7.2h-0.2l-15.7-7.2v-0.1l15.8-7.1h0.2L274.4,136.7L274.4,136.7z"/>
<path class="st4" d="M258.4,141.8l-0.3-0.1l-15.8-7.3V134c0-0.1,0.2-0.3,0.3-0.4l16-7.1l0.3,0.1l16,7.2v0.3c0,0.1-0.2,0.3-0.3,0.4
	L258.4,141.8z M243.6,134.2l14.8,6.8l15.2-6.8l-15-6.8L243.6,134.2z"/>
<path class="st5" d="M242.6,134.2v2.5l0,0l15.7,7.2h0.2v-2.5l0,0L242.6,134.2L242.6,134.2z"/>
<path class="st4" d="M258.4,144.4h-0.3l-15.8-7.3v-2.9l0.5-0.3l0.3,0.1l15.8,7.3v2.9l-0.3,0.1L258.4,144.4z M243.1,136.6l14.8,6.8
	v-1.7l-14.8-6.8V136.6z"/>
<path class="st6" d="M274.6,134.3v2.5l0,0l-16,7.2h-0.2v-2.5l0,0C258.4,141.5,274.6,134.3,274.6,134.3z"/>
<path class="st4" d="M258.6,144.4l-0.3-0.1c-0.2-0.1-0.3-0.3-0.3-0.4v-2.7l0.3-0.1l16.3-7.3l0.3,0.1c0.2,0.1,0.3,0.3,0.3,0.4v2.8
	l-0.3,0.1L258.6,144.4z M258.9,141.6v1.7l15.2-6.8v-1.7L258.9,141.6z"/>
<path class="st6" d="M258.6,135.5L258.6,135.5c-1.9,0-3.4-1.2-3.4-2.7v-10.3c0-0.1,0.2-0.3,0.3-0.3h6.1c0.2,0,0.3,0.1,0.3,0.3v10.3
	c0.1,1.4-1.2,2.6-3,2.7C258.8,135.5,258.7,135.5,258.6,135.5z"/>
<path class="st4" d="M258.6,135.9c-2.1,0-3.8-1.3-3.9-3c0,0,0-0.1,0-0.1v-10.3c0-0.3,0.3-0.6,0.7-0.7c0,0,0.1,0,0.1,0h6.1
	c0.4,0,0.8,0.2,0.8,0.6c0,0,0,0.1,0,0.1v10.3c0,1.7-1.6,3-3.7,3.1C258.7,135.9,258.6,135.9,258.6,135.9z M255.7,122.6v10.3
	c0,1.3,1.3,2.3,2.9,2.3c1.6,0,2.9-1,2.9-2.3v-10.3H255.7z"/>
<path class="st7" d="M261.6,121.4h-6.1c-0.2,0-0.3,0.1-0.3,0.3v3.2c0,1.5,1.5,2.7,3.4,2.7s3.4-1.2,3.4-2.7v-3.2
	C262.1,121.5,261.9,121.4,261.6,121.4z"/>
<path class="st3" d="M261.8,119.9h-6.1c-0.2,0-0.3,0.1-0.3,0.3v3.2c0,1.5,1.5,2.7,3.4,2.7s3.4-1.2,3.4-2.7v-3.2
	C262.1,120,262,119.9,261.8,119.9z"/>
<path class="st4" d="M258.6,128c-2.1,0-3.8-1.3-3.9-3c0,0,0-0.1,0-0.1v-3.2c0-0.3,0.3-0.6,0.7-0.7c0,0,0.1,0,0.1,0h6.1
	c0.4,0,0.8,0.2,0.8,0.6c0,0,0,0.1,0,0.1v3.2c0.1,1.6-1.5,3-3.5,3.1C258.8,128,258.7,128,258.6,128z M255.7,121.8v3.2
	c0,1.3,1.3,2.3,2.9,2.3c1.6,0,2.9-1,2.9-2.3v-3.2H255.7z"/>
<ellipse class="st5" cx="258.7" cy="110.7" rx="17.2" ry="13.6"/>
<path class="st3" d="M274.1,104.6l-2.5-1.6c-3.2,3.9-8.6,6.3-14.5,6.3c-3.3,0-6.5-0.7-9.3-2.1c-3.3,4.1-3.6,9.3-0.8,13.6
	c3.1,2.4,7.4,3.8,11.8,3.7c9.6,0,17.3-6.2,17.2-13.8C275.9,108.5,275.3,106.5,274.1,104.6z"/>
<path class="st4" d="M258.7,124.7c-9.8,0-17.7-6.3-17.7-14s7.9-14,17.7-14s17.7,6.3,17.7,14C276.3,118.4,268.5,124.6,258.7,124.7z
	 M258.7,97.5c-9.2,0-16.7,5.9-16.7,13.2s7.5,13.2,16.7,13.2c9.2,0,16.7-5.9,16.7-13.2c0,0,0,0,0,0
	C275.3,103.4,267.9,97.6,258.7,97.5z"/>
<path class="st6" d="M270.4,100.7c0.1,0.7,0.2,1.5,0.2,2.3c0,7.5-7.7,13.6-17.2,13.6c-4.3,0-8.5-1.3-11.6-3.6
	c1.5,6.6,8.6,11.4,17,11.5c9.5,0,17.2-6.1,17.2-13.6C275.9,107,273.9,103.3,270.4,100.7z"/>
<path class="st4" d="M258.7,124.7c-8.7,0-16.1-5-17.4-11.7l0.5-1.5l0.3,1.2c3.1,2.3,7.1,3.5,11.3,3.5c9.2,0,16.6-5.8,16.7-13.1
	c0,0,0-0.1,0-0.1c0-0.7,0-1.4-0.2-2.1l-0.2-1.1l1,0.8c7.2,5.2,7.7,13.9,1.1,19.6C268.6,123.1,263.8,124.8,258.7,124.7L258.7,124.7z
	 M242.4,113.9c2.3,7.1,11.3,11.4,20.3,9.6c7.4-1.5,12.6-6.7,12.6-12.8c0-3.3-1.5-6.5-4.4-8.9v1.2c0.1,7.6-7.6,13.9-17.3,14
	C249.5,117,245.6,115.9,242.4,113.9z"/>
<path class="st5" d="M270.5,98.8c0,5.2-5.4,8.1-12,8.1c-6.6,0-12-2.9-12-8.1c0-5.2,5.4-9.5,12-9.5C265.2,89.4,270.5,93.6,270.5,98.8
	L270.5,98.8z"/>
<path class="st3" d="M270.7,98.8c0-1.3-0.3-2.6-1-3.7c-4.2-4-11.8-4.6-16.9-1.3c-2.8,1.8-4.4,4.5-4.4,7.3c0,1,0.2,2,0.7,2.9
	c2.5,2,5.9,3,9.4,2.9C265.5,107,270.7,104,270.7,98.8z"/>
<path class="st4" d="M258.7,107.4c-7.4,0-12.3-3.5-12.3-8.5c0-5.4,5.6-9.8,12.5-9.7c6.8,0,12.3,4.5,12.3,9.9l0,0
	C271,103.9,266.2,107.4,258.7,107.4z M258.7,89.8c-6.3,0-11.4,4.1-11.5,9.1c0,5.3,5.7,7.7,11.5,7.7c5.7,0,11.5-2.4,11.5-7.7
	C270.2,93.8,265.1,89.8,258.7,89.8z"/>
<path class="st6" d="M261.3,89.6c1.5,1.6,2.4,3.6,2.4,5.6c0,5.2-5.4,8.1-12,8.1c-1.1,0-2.3-0.1-3.4-0.3c2,2.5,5.9,3.9,10.4,3.9
	c6.6,0,12-2.9,12-8.1C270.6,94.4,266.7,90.6,261.3,89.6z"/>
<path class="st4" d="M258.7,107.4c-4.9,0-8.8-1.5-10.8-4.1l-0.7-0.8l1.2,0.1c6.4,1.1,14.7-1.1,14.7-7.5c0-1.9-0.8-3.8-2.2-5.3
	l-0.8-0.8l1.2,0.3c5.7,1,9.8,5,9.8,9.6C271,103.9,266.2,107.4,258.7,107.4z M249.3,103.6c2.4,2,5.8,3.1,9.3,2.9
	c5.7,0,11.5-2.4,11.5-7.7c0-3.9-3.1-7.3-7.8-8.5c1.1,1.5,1.7,3.2,1.7,4.9c0,5.1-5.1,8.5-12.5,8.5C250.8,103.7,250,103.6,249.3,103.6
	z"/>
<path class="st8" d="M285.7,211.9L189.5,256c-4.5,2-10,2-14.5,0L25.9,187.6c-2.2-1-2.9-3.2-1.7-5c0.4-0.5,1-1,1.7-1.3L127.1,135
	c1.4-0.7,3.1-0.7,4.5,0l154.2,70.8c2.1,1,2.8,3.2,1.5,4.9C286.9,211.2,286.4,211.6,285.7,211.9z"/>
<path class="st2" d="M252,127.5l-96.2,44l0,0L38.7,117.6l0,0l96.2-44l0,0C134.9,73.6,252,127.5,252,127.5z"/>
<path class="st4" d="M156,171.9l-0.3-0.1L38,117.9v-0.5l0.3-0.1l96.4-44.1l0.3,0.1l117.4,53.9v0.5l-0.3,0.1L156,171.9z M39.7,117.6
	L155.8,171l95-43.5L134.7,74.2L39.7,117.6z"/>
<polygon class="st7" points="235.3,127.1 156.3,163.2 55.4,117 134.4,80.8 "/>
<polygon class="st3" points="59.1,115.2 156.3,159.8 231.4,125.4 134.4,80.8 "/>
<path class="st4" d="M156.3,163.8l-0.3-0.1L54,117l80.2-36.7l102.1,46.8L156.3,163.8z M56.4,117l99.9,45.7l77.8-35.6l-99.8-45.7
	L56.4,117z"/>
<path class="st5" d="M38.5,117.6l-0.2,58.5l0,0l117.1,53.7l0,0l0.2-58.5l0,0L38.5,117.6z"/>
<path class="st4" d="M155.8,230.6l-0.3-0.1L38,176.6v-0.3l0.2-58.8l0.7-0.3l0.3,0.1l117.4,53.9v0.3l-0.2,58.8L155.8,230.6z M39,176
	l116.1,53.3l0.2-57.6L39.2,118.4L39,176z"/>
<path class="st6" d="M252,127.5l-0.2,58.5l0,0l-96.2,44l0,0l0.2-58.5l0,0C155.8,171.5,252,127.5,252,127.5z"/>
<path class="st4" d="M155.8,230.6l-0.7-0.3V230l0.2-58.8l0.3-0.1L252,127l0.7,0.3v0.3l-0.2,58.8l-0.3,0.1L155.8,230.6z M156.5,171.6
	l-0.2,57.6l95-43.5l0.2-57.6L156.5,171.6z"/>
<polygon class="st6" points="134.4,80.8 134.4,85.9 60.7,119.5 55.4,117 "/>
<path class="st4" d="M60.7,120l-6.6-3.1L134.9,80v6L60.7,120z M56.4,117l4.2,2l73-33.3v-3.9L56.4,117z"/>
<polygon class="st9" points="134.4,80.8 134.4,85.9 229.9,129.6 235.3,127.1 "/>
<path class="st4" d="M229.9,130.2l-96.2-44v-6l102.8,47.1L229.9,130.2z M134.9,85.6l95,43.5l4.2-2l-99.2-45.5V85.6z"/>
<path class="st4" d="M244.6,127.9c-0.7,0.3-1.5,0.3-2.2,0c-0.7-0.3-0.7-0.7,0-0.9c0.7-0.3,1.5-0.3,2.2,0c0.3,0.1,0.5,0.4,0.3,0.7
	C244.9,127.8,244.7,127.9,244.6,127.9z"/>
<polygon class="st7" points="43.4,124.4 43.4,173.9 82,191.8 82.1,142.3 "/>
<path class="st4" d="M82.5,192.6l-39.8-18.3l0.2-50.7l39.8,18.3L82.5,192.6z M43.9,173.6l37.6,17.2v-48.3l-37.6-17.3V173.6z"/>
<polygon class="st10" points="61.9,153.9 61.9,173 76.9,179.8 76.9,160.7 "/>
<path class="st4" d="M75.2,182.4l-16-7.3V155l16,7.3V182.4z M60.2,174.4l13.8,6.4v-18l-13.8-6.3V174.4z"/>
<polygon class="st11" points="43.4,173.9 47.9,171.8 47.9,126.6 43.4,124.4 "/>
<path class="st4" d="M42.7,174l0.2-50.4l5.7,2.7V172l-5.1,2.4c-0.3,0.1-0.6,0-0.8-0.2C42.7,174.2,42.7,174.1,42.7,174z M43.9,125.2
	l-0.2,47.9l3.4-1.6v-44.7L43.9,125.2z"/>
<polygon class="st3" points="82,191.8 82,187.5 47.9,171.8 43.4,173.9 "/>
<path class="st4" d="M82.5,192.6l-39.6-18.3c-0.2-0.1-0.3-0.3-0.2-0.5c0-0.1,0.1-0.1,0.2-0.2l5.1-2.4l34.7,16L82.5,192.6z
	 M44.4,173.9l36.9,16.9v-3.2l-33.4-15.3L44.4,173.9z"/>
<path class="st12" d="M78.1,145.1l-3.9,1.7h-0.2l-22.4-10.4v-0.1l3.9-1.7h0.2L78.1,145C78.3,145,78.3,145,78.1,145.1z"/>
<path class="st13" d="M78.3,146.4l-3.9,1.7h-0.2l-22.4-10.4v-0.1l3.9-1.7h0.2l22.4,10.4V146.4z"/>
<path class="st4" d="M74.2,147.4l-0.3-0.1l-22.7-10.5v-0.3c0-0.1,0.2-0.4,0.3-0.4l4.2-1.9l0.3,0.1l22.7,10.5v0.3
	c0,0.1-0.2,0.4-0.3,0.4L74.2,147.4z M52.7,136.3l21.6,10l2.9-1.3l-21.6-10L52.7,136.3z"/>
<path class="st12" d="M51.5,136.4v8.8l22.4,10.4c0.1,0,0.2-0.1,0.2-0.1v-8.8L51.5,136.4z"/>
<polygon class="st14" points="54.2,137.9 54,146.7 55.2,146.7 55.2,137.9 "/>
<polygon class="st14" points="61.9,141.4 61.9,150.3 63.1,150.2 63.1,141.4 "/>
<path class="st4" d="M74.1,156.2c-0.2,0-0.2,0-0.3-0.1L51,145.5v-9.2l0.7-0.3l0.3,0.1l22.7,10.4v9.2l-0.3,0.3
	C74.3,156.1,74.2,156.2,74.1,156.2z M52.2,145l21.6,10v-7.9l-21.6-10V145z"/>
<path class="st15" d="M78.3,145.1v8.8l-3.9,1.7c-0.1,0-0.2-0.1-0.2-0.1v-8.8L78.3,145.1z"/>
<path class="st4" d="M74.4,156.2l-0.3-0.1c-0.2-0.1-0.3-0.3-0.3-0.4v-8.9l0.3-0.3l4.2-1.9l0.3,0.1c0.2,0.1,0.3,0.3,0.3,0.4v8.9
	l-0.3,0.3L74.4,156.2z M74.7,147.1v7.9l2.9-1.3v-7.9L74.7,147.1z"/>
<polygon class="st9" points="77.4,179.4 70.9,176.4 70.9,168.4 77.4,171.5 "/>
<polygon class="st3" points="79.6,177.9 72.9,174.8 72.9,166.8 79.6,169.9 "/>
<path class="st4" d="M78.1,180.2l-7.8-3.6v-8.9l7.8,3.6V180.2z M71.4,176.2l5.6,2.5v-6.8l-5.6-2.5V176.2z"/>
<polygon class="st7" points="111.6,156 111.6,205.5 150.2,223.2 150.4,173.8 "/>
<path class="st4" d="M150.9,224l-39.8-18.3l0.2-50.5l39.8,18.3L150.9,224z M112.1,205.2l37.6,17.2l0.2-48.4l-37.6-17.2L112.1,205.2z
	"/>
<polygon class="st10" points="127,164.6 127,192.6 148.7,202.7 148.9,174.7 "/>
<path class="st4" d="M146.9,204.8l-23.1-10.5v-29.1l23.1,10.5V204.8z M125.1,193.6l20.7,9.5v-26.9l-20.7-9.5V193.6z"/>
<polygon class="st11" points="111.6,205.5 116.2,203.4 116.2,158.2 111.6,156 "/>
<path class="st4" d="M111,205.5l0.2-50.3l5.7,2.7v45.7l-4.9,2.3C111.5,206,111,205.9,111,205.5z M112.3,156.8l-0.2,47.9l3.4-1.6
	v-44.7L112.3,156.8z"/>
<polygon class="st3" points="150.2,223.2 150.2,219 116.2,203.4 111.6,205.5 "/>
<path class="st4" d="M150.9,224l-39.6-18.1c-0.3-0.2-0.3-0.5-0.1-0.7c0,0,0.1-0.1,0.1-0.1l4.9-2.3l34.7,16V224z M112.8,205.5
	l36.9,16.9v-3.2l-33.5-15.3L112.8,205.5z"/>
<path class="st9" d="M122.9,181.9l7.4,3.3v-9.1l-7.4-3.3V181.9z"/>
<path class="st3" d="M125.1,179.9l7.4,3.3v-9.1l-7.4-3.3V179.9z"/>
<path class="st4" d="M130.8,186.2l-8.6-3.9v-10.1l8.6,3.9V186.2z M123.4,181.6l6.2,2.8v-8l-6.2-2.8V181.6z"/>
<path class="st9" d="M127.5,191.8l9.4,4.3v-11.5l-9.4-4.3V191.8z"/>
<path class="st3" d="M129.5,189.4l9.4,4.3v-11.5l-9.4-4.3V189.4z"/>
<path class="st4" d="M137.4,197l-10.6-4.8v-12.4l10.6,4.8V197z M128.2,191.5l8.3,3.7v-10.4l-8.3-3.7V191.5z"/>
<polygon class="st7" points="86.5,144.4 86.4,198.3 106.6,207.5 106.8,153.8 "/>
<path class="st4" d="M107.3,208.3l-21.4-9.7l0.2-54.9l21.4,9.9L107.3,208.3z M87,198l19,8.8l0.2-52.8L87,145.2L87,198z"/>
<path class="st11" d="M86.5,198.3l4.5-2.1v-49.6l-4.5-2.1V198.3z"/>
<path class="st4" d="M86.5,198.7l-0.7-0.3v-0.3l0.2-54.5l5.7,2.7l-0.2,50L86.5,198.7z M87,145.2l-0.2,52.3l3.4-1.6l0.2-49.1
	L87,145.2z"/>
<polygon class="st5" points="106.6,207.5 106.6,203.4 90.9,196 86.4,198.3 "/>
<path class="st4" d="M107.3,208.3l-21.9-10.1l5.7-2.8l16.2,7.5V208.3z M87.5,198.3l18.5,8.5v-3.2l-15.2-6.9L87.5,198.3z"/>
<path class="st10" d="M180.1,169.5l7.8,3.6l0.2,0.1l15.3,21.7V230c0,0.1-0.2,0.3-0.3,0.1l-23.1-10.7l-0.2-0.1l0.2-49.6
	C179.7,169.5,179.9,169.4,180.1,169.5z"/>
<path class="st4" d="M203,230.4c-0.2,0-0.3,0-0.3-0.1l-23.1-10.7c-0.2-0.1-0.3-0.3-0.3-0.5l0.2-49.6c0-0.2,0.1-0.4,0.3-0.5
	c0.3-0.1,0.6-0.1,0.8,0l0,0l7.8,3.6c0.2,0,0.2,0.1,0.3,0.3l15.3,21.7c0,0.1,0.1,0.2,0.2,0.3v34.9c0,0.2-0.1,0.4-0.3,0.5
	C203.5,230.4,203.3,230.4,203,230.4z M180.2,219l22.4,10.3V195l-15.2-21.6l-7.2-3.3V219z"/>
<path class="st10" d="M180.1,169.1l61.5-28.1h0.2l7.8,3.6c0.2,0.1,0.2,0.3,0,0.3L188,173h-0.2l-7.8-3.6
	C179.9,169.4,179.9,169.2,180.1,169.1z"/>
<path class="st16" d="M180.4,171.8l61.5-28.1h0.2l7.8,3.6c0.2,0.1,0.2,0.3,0,0.3l-61.5,28.1h-0.2l-7.8-3.6
	C180.2,172,180.2,171.9,180.4,171.8z"/>
<path class="st4" d="M188,173.5c-0.2,0-0.3,0-0.3-0.1l-7.8-3.6c-0.4-0.2-0.4-0.6-0.2-0.9c0-0.1,0.1-0.1,0.2-0.1l61.5-28.1
	c0.3-0.1,0.6-0.1,0.8,0l7.8,3.6c0.4,0.2,0.4,0.6,0.2,0.9c0,0.1-0.1,0.1-0.2,0.1l-61.5,28.1C188.3,173.4,188.1,173.5,188,173.5z
	 M180.9,169.2l7.1,3.2l60.8-27.7l-7.1-3.2L180.9,169.2z"/>
<path class="st10" d="M188,173.2l15.2,21.5c0,0.1,0.2,0.1,0.3,0.1l61.5-28.1c0.2,0,0.2-0.1,0.2-0.3L250,145c0-0.1-0.2-0.1-0.3-0.1
	L188.1,173C188,173,188,173.1,188,173.2z"/>
<path class="st4" d="M203.3,195.2h-0.2c-0.2,0-0.3-0.1-0.5-0.3l-15.2-21.5c-0.2-0.3,0-0.6,0.3-0.8l61.5-28.1c0.2-0.1,0.3-0.1,0.7,0
	c0.3,0.1,0.3,0.1,0.5,0.3l15.2,21.5c0.2,0.3,0,0.6-0.3,0.8l-61.5,28.1H203.3z M188.6,173.2l14.8,21.1l61-27.9l-14.8-21.1
	L188.6,173.2z"/>
<path class="st17" d="M203.5,194.8l61.5-28.1c0.2-0.1,0.3,0,0.3,0.1v34.9c0,0.1-0.1,0.1-0.2,0.1h0l-61.5,28c-0.2,0.1-0.3,0-0.3-0.1
	V195C203.3,194.9,203.4,194.8,203.5,194.8L203.5,194.8z"/>
<path class="st4" d="M203.5,230.4c-0.2,0-0.3,0-0.3-0.1c-0.2-0.1-0.3-0.3-0.3-0.5V195c0-0.2,0.1-0.4,0.3-0.5l0,0l61.5-28.1
	c0.3-0.1,0.6-0.1,0.8,0c0.2,0.1,0.3,0.3,0.3,0.5v34.9c0,0.2-0.1,0.4-0.3,0.5l-61.5,28C203.8,230.4,203.7,230.5,203.5,230.4z
	 M203.8,195.1v34.1l60.8-27.6v-34.4L203.8,195.1z"/>
<path class="st7" d="M197.9,196.7l-4,1.9l0,0l-10.4-4.7v-0.1l4-1.9l0,0L197.9,196.7z"/>
<path class="st3" d="M197.9,198.4l-4,1.9l0,0l-10.4-4.7v-0.1l4-1.9l0,0L197.9,198.4z"/>
<path class="st4" d="M193.9,199.1l-0.3-0.1l-10.6-4.8v-0.3c0-0.1,0.2-0.4,0.3-0.4l4.4-2l0.3,0.1l10.6,4.8v0.3c0,0.1-0.2,0.4-0.3,0.4
	L193.9,199.1z M184.4,193.8l9.4,4.3l3-1.5l-9.4-4.3L184.4,193.8z"/>
<path class="st5" d="M183.3,193.9v14.3l0,0l10.4,4.7h0.2v-14.3l0,0C193.9,198.6,183.3,193.9,183.3,193.9z"/>
<path class="st4" d="M193.7,213.4c-0.2,0-0.2,0-0.3-0.1l-10.6-4.8v-14.8l0.7-0.3l0.3,0.1l10.6,4.8v14.8l-0.3,0.1
	C193.9,213.4,193.9,213.4,193.7,213.4z M183.8,207.9l9.4,4.3v-13.3l-9.4-4.3V207.9z"/>
<path class="st18" d="M198.1,196.7V211l0,0l-4,1.9h-0.2v-14.3l0,0L198.1,196.7z"/>
<path class="st4" d="M193.9,213.5l-0.3-0.1c-0.2-0.1-0.3-0.3-0.3-0.4v-14.5l0.3-0.1l4.4-2l0.3,0.1c0.2,0.1,0.3,0.3,0.3,0.4v14.5
	l-0.3,0.1L193.9,213.5z M194.4,198.8v13.3l3-1.5v-13.3L194.4,198.8z"/>
<path class="st3" d="M224.9,195l-13.8,6.3l0,0l-2.2-1.1V200l13.8-6.3l0,0L224.9,195L224.9,195z"/>
<path class="st4" d="M211.2,201.8l-0.3-0.1l-2.5-1.2v-0.5l0.3-0.1l14-6.4l0.3,0.1l2.5,1.2v0.5l-0.3,0.1L211.2,201.8z M209.9,200.2
	l1.2,0.5l12.8-5.7l-1.2-0.5L209.9,200.2z"/>
<path class="st18" d="M211.1,201.4v18.5l0,0l13.8-6.3l0,0v-18.5l0,0L211.1,201.4L211.1,201.4z"/>
<path class="st4" d="M211.2,220.4l-0.7-0.3v-19.1l0.3-0.1l14-6.4l0.7,0.3v19.1l-0.3,0.1L211.2,220.4z M211.7,201.5v17.6l12.8-5.7
	v-17.6L211.7,201.5z"/>
<path class="st5" d="M211.1,219.9l-2.2-1.1l0,0v-18.5l0,0l2.2,1.1l0,0V219.9z"/>
<path class="st4" d="M211.1,220.4l-0.3-0.1l-2.5-1.2V200l0.7-0.3l0.3,0.1l2.5,1.2v19.1L211.1,220.4z M209.4,218.6l1.2,0.5v-17.6
	l-1.2-0.5V218.6z"/>
<path class="st18" d="M242.6,190.2l-3.7-1.7h-0.2l-7.2,3.3c0,0-0.2,0.1,0,0.1l2,1.7l0,0l6.1,5.6l0,0l2.7,18l1.3,9.3
	c0,0.1,0.1,0.1,0.2,0.1h0l7.2-3.3v-0.1l0.2-21.6C250.7,197,247.5,192.7,242.6,190.2z"/>
<path class="st4" d="M243.6,227.1h-0.3c-0.2-0.1-0.3-0.3-0.3-0.4l-1.3-9.3l-2.7-17.9l-5.9-5.6l-2-1.7c-0.2-0.1-0.2-0.3-0.2-0.5
	s0.2-0.3,0.3-0.4l7.2-3.3c0.2-0.1,0.5-0.1,0.7,0l3.7,1.7c5.2,2.7,8.4,7.1,8.8,12l-0.2,21.6c0,0.2-0.1,0.4-0.3,0.5l-7.2,3.3H243.6z
	 M232.1,191.9l1.7,1.5l6.1,5.7v0.1l2.7,18l1.2,8.8l6.4-2.9l0.2-21.3c-0.3-4.5-3.3-8.7-8.1-11.2l-3.5-1.6L232.1,191.9z"/>
<path class="st2" d="M250.7,199.6L250.7,199.6c-0.9-3.9-3.8-7.3-8.1-9.5l-3.7-1.7h-0.2l-7.2,3.3c0,0-0.2,0.1,0,0.1l2,1.7l0,0
	l6.1,5.6l0,0l0.7,3.7c0,0.1,0.1,0.1,0.2,0.1h0l1.9,0.3h0.2L250.7,199.6z"/>
<path class="st3" d="M249.1,202.2c1.2-0.5,1.7-1.6,1.2-2.5c-1.3-3.2-4-5.9-7.6-7.7l-3.7-1.7h-0.2l-7.2,3.3c0,0-0.2,0.1,0,0.1l2,1.7
	l0,0l6.1,5.6l0,0l0.7,3.7c0,0.1,0.1,0.1,0.2,0.1h0l1.9,0.3h0.2L249.1,202.2z"/>
<path class="st4" d="M242.4,203.9h-0.3l-1.9-0.3c-0.3,0-0.5-0.3-0.5-0.5l-0.7-3.6l-5.9-5.6l-2-1.7c-0.2-0.1-0.2-0.3-0.2-0.5
	c0-0.3,0.2-0.3,0.3-0.4l7.2-3.3c0.2-0.1,0.5-0.1,0.7,0l3.7,1.7c4.3,2.2,7.4,5.7,8.4,9.7c0,0.3,0,0.5-0.3,0.7l0,0L242.4,203.9z
	 M240.7,202.7l1.3,0.3l8.1-3.6c-1-3.6-3.8-6.8-7.8-8.8l-3.5-1.6l-6.6,2.9l1.7,1.5l6.1,5.7v0.1L240.7,202.7z"/>
<path class="st5" d="M243.2,226.7l-4.9-2.3v-0.1l0.2-21.6c-0.2-1.8-1.4-3.5-3.4-4.5l-3.7-1.7v-4.5c0-0.1,0.1-0.1,0.2-0.1h0l3.5,1.6
	c5,2.6,8.1,6.9,8.4,11.6l-0.2,21.6C243.4,226.6,243.3,226.7,243.2,226.7L243.2,226.7z"/>
<path class="st4" d="M243.2,227.1c-0.2,0-0.2,0-0.3-0.1l0,0l-4.9-2.3c-0.2-0.1-0.3-0.3-0.3-0.5l0.2-21.6c-0.1-1.7-1.3-3.2-3-4.1
	l-3.7-1.7c-0.2-0.1-0.3-0.3-0.3-0.5v-4.4c0-0.2,0.1-0.4,0.3-0.5c0.2-0.1,0.5-0.1,0.7,0l3.5,1.6c5.2,2.7,8.4,7.1,8.8,12l-0.2,21.5
	c0,0.2-0.1,0.4-0.3,0.5C243.6,227.1,243.4,227.1,243.2,227.1z M238.9,224.2l4,1.9l0.2-20.8c-0.3-4.5-3.3-8.7-8.1-11.2l-3-1.3v3.6
	l3.5,1.6c2.1,1.1,3.4,2.9,3.5,4.9L238.9,224.2z"/>
<path class="st18" d="M260.9,181.8l-3.9-1.7l0,0l-7.6,3.3l0,0l2.2,1.9l0,0l6.1,5.6l0,0l2.7,18l1.3,9.5l0,0l7.6-3.3l0,0l0.2-21.6
	C269.1,188.7,265.9,184.4,260.9,181.8z"/>
<path class="st4" d="M261.8,218.8l-0.5-0.3v-0.3l-1.3-9.5l-2.7-17.9l-5.9-5.6l-2.4-2l0.2-0.4l0.2-0.1l7.8-3.6l0.3,0.1l3.9,1.7
	c5.2,2.7,8.4,7.1,8.8,12l-0.2,21.9l-0.3,0.1L261.8,218.8z M250.5,183.5l1.7,1.5l6.2,5.9l2.7,18l1.2,8.8l6.6-2.9l0.2-21.3
	c-0.3-4.5-3.3-8.7-8.1-11.2l-3.5-1.6L250.5,183.5z"/>
<path class="st2" d="M269,191.2L269,191.2c-1-3.9-3.9-7.3-8.1-9.5l-3.9-1.7l0,0l-7.6,3.3l0,0l2.2,1.9l0,0l6.1,5.6l0,0l0.7,3.7l0,0
	l2,0.3l0,0L269,191.2z"/>
<path class="st3" d="M267.3,193.9c1.2-0.5,1.7-1.6,1.2-2.5c-1.3-3.2-4-6-7.6-7.7l-3.9-1.7l0,0l-7.6,3.3l0,0l2.2,1.9l0,0l6.1,5.6l0,0
	l0.7,3.7l0,0l2,0.3l0,0L267.3,193.9z"/>
<path class="st4" d="M260.6,195.5L260.6,195.5l-2.5-0.4v-0.3l-0.7-3.7l-5.9-5.6l-2.4-2l0.2-0.4l0.2-0.1l7.8-3.6l0.3,0.1l3.9,1.7
	c4.3,2.3,7.3,5.8,8.4,9.7l0.2,0.4l-0.3,0.1L260.6,195.5L260.6,195.5z M259.1,194.3l1.3,0.3l8.1-3.6c-1-3.6-3.8-6.8-7.8-8.8l-3.5-1.6
	l-6.6,2.9l1.7,1.5l6.2,5.9L259.1,194.3z"/>
<path class="st5" d="M261.8,218.3l-5.1-2.4l0,0l0.2-21.6c-0.2-1.8-1.4-3.5-3.4-4.5l-3.9-1.7l0,0v-4.7l0,0l3.9,1.7
	c5,2.6,8.1,6.9,8.4,11.6L261.8,218.3z"/>
<path class="st4" d="M261.8,218.8l-0.3-0.1l-5.4-2.5v-0.3l0.2-21.6c-0.1-1.7-1.3-3.2-3-4.1l-4-1.9v-5.2l0.5-0.3l0.3,0.1l3.9,1.7
	c5.2,2.7,8.4,7.1,8.8,12l-0.2,21.9L261.8,218.8z M257.2,215.8l4,1.9l0.2-20.8c-0.3-4.5-3.3-8.7-8.1-11.2l-3-1.3v3.6l3.5,1.6
	c2.1,1.1,3.4,2.9,3.5,4.9L257.2,215.8z"/>
<path class="st19" d="M24.5,177.9l-2.2,1.1c-1.1,0.5-2.6,0.5-3.7,0l-7.8-3.6c-0.7-0.3-0.8-1-0.4-1.6c0.1-0.1,0.2-0.2,0.4-0.3
	l3.4-1.6c0.4-0.1,0.9-0.1,1.3,0l8.9,4.1c0.8,0,1.4,0.3,1.4,0.9C25.9,177.6,25.3,178.1,24.5,177.9z"/>
<path class="st2" d="M21,157.9l-3.9,1.7l0,0l-7.4-3.5l0,0l3.9-1.7l0,0L21,157.9C21.2,157.8,21.2,157.9,21,157.9z"/>
<path class="st3" d="M21,159.2l-3.9,1.7l0,0l-7.4-3.5l0,0l3.9-1.7l0,0L21,159.2z"/>
<path class="st4" d="M17.3,160.2l-0.3-0.1l-7.8-3.5V156l0.3-0.1l4.2-1.9l0.3,0.1l7.8,3.6v0.5l-0.3,0.1L17.3,160.2z M10.9,156.2
	l6.2,2.9l2.7-1.3l-6.2-2.9L10.9,156.2z"/>
<path class="st5" d="M9.7,156.3v16.3l0,0l7.4,3.5l0,0v-16.3l0,0C17.1,159.8,9.7,156.3,9.7,156.3z"/>
<path class="st4" d="M17.1,176.4l-0.3-0.1L9,172.7v-16.8l0.7-0.3l0.3,0.1l7.8,3.5V176L17.1,176.4z M10.2,172.3l6.2,2.9V160l-6.2-2.9
	L10.2,172.3z"/>
<path class="st6" d="M21.2,157.9v16.3l0,0l-3.9,1.7l0,0v-16.3l0,0C17.3,159.6,21.2,157.9,21.2,157.9z"/>
<path class="st4" d="M17.3,176.4l-0.7-0.3v-16.8l0.3-0.1l4.2-1.9l0.7,0.3v16.8l-0.3,0.1L17.3,176.4z M17.8,159.9v15.2l2.7-1.3v-15.2
	L17.8,159.9z"/>
<path class="st19" d="M290.1,189.8l-2.2,1.1c-1.1,0.5-2.6,0.5-3.7,0l-7.8-3.6c-0.7-0.3-0.8-1-0.4-1.6c0.1-0.1,0.2-0.2,0.4-0.3
	l3.4-1.6c0.4-0.1,0.9-0.1,1.3,0l8.9,4.1c0.7,0.3,0.8,1,0.4,1.6C290.4,189.6,290.2,189.7,290.1,189.8z"/>
<path class="st2" d="M286.5,170.2l-3.9,1.7l0,0l-7.4-3.5l0,0l3.9-1.7l0,0L286.5,170.2z"/>
<path class="st3" d="M286.5,171.5l-3.9,1.7l0,0l-7.4-3.5l0,0l3.9-1.7l0,0L286.5,171.5z"/>
<path class="st4" d="M282.7,172.4l-0.3-0.1l-7.8-3.5v-0.5l0.3-0.1l4.2-1.9l0.3,0.1l7.8,3.6v0.5l-0.3,0.1L282.7,172.4z M276.4,168.6
	l6.2,2.9l2.7-1.3l-6.2-2.9L276.4,168.6z"/>
<path class="st5" d="M275.3,168.6v16.3l0,0l7.4,3.5l0,0V172l0,0L275.3,168.6z"/>
<path class="st4" d="M282.7,188.8l-0.3-0.1l-7.8-3.6v-16.8l0.7-0.3l0.3,0.1l7.8,3.5v16.8L282.7,188.8z M275.8,184.6l6.2,2.9v-15.2
	l-6.2-2.9V184.6z"/>
<path class="st6" d="M286.5,170.2v16.3l0,0l-3.9,1.7l0,0v-16.3l0,0L286.5,170.2z"/>
<path class="st4" d="M282.7,188.8l-0.7-0.3v-16.8l0.3-0.1l4.2-1.9l0.7,0.3v16.8l-0.3,0.1L282.7,188.8z M283.3,172.2v15.2l2.7-1.3
	v-15.2L283.3,172.2z"/>
<polygon class="st5" points="150.1,233.5 146,235.4 140.3,232.6 144.3,230.7 "/>
<path class="st4" d="M146,235.9l-6.9-3.3l5.2-2.4l6.9,3.3L146,235.9z M141.5,232.6l4.5,2.3l3-1.3l-4.5-2.3L141.5,232.6z"/>
<path class="st10" d="M140.3,232.6v7.7l0,0l5.7,2.7l0,0v-7.7l0,0L140.3,232.6z"/>
<path class="st4" d="M146,243.6l-0.3-0.1l-5.9-2.8v-8.3l0.7-0.3l0.3,0.1l5.9,2.8v8.3L146,243.6z M140.8,240l4.5,2.1v-6.7l-4.5-2.1
	V240z"/>
<path class="st20" d="M150.1,233.5v7.7l0,0l-4,1.9l0,0v-7.7l0,0L150.1,233.5z"/>
<path class="st4" d="M146,243.6l-0.7-0.3v-8.3l0.3-0.1l4.4-2l0.7,0.3v8.3l-0.3,0.1L146,243.6z M146.5,235.6v6.7l2.9-1.3v-6.7
	L146.5,235.6z"/>
<path class="st10" d="M159,203.2l-4,1.9l0,0l-22.7-10.5l0,0l4-1.9l0,0L159,203.2z"/>
<path class="st16" d="M159,204.7l-4,1.9l0,0L132.2,196l0,0l4-1.9l0,0L159,204.7z"/>
<path class="st4" d="M154.9,205.5l-0.3-0.1l-22.9-10.5v-0.5l0.3-0.1l4.4-2l0.3,0.1l22.9,10.7v0.5l-0.3,0.1L154.9,205.5z
	 M133.4,194.6l21.6,10l2.9-1.3l-21.6-10L133.4,194.6z"/>
<path class="st10" d="M132.2,194.6V230l0,0l22.6,10.5l0,0v-35.5l0,0L132.2,194.6z"/>
<path class="st4" d="M154.8,241l-0.3-0.1l-22.9-10.5v-36l0.5-0.3l0.3,0.1l22.9,10.7v36L154.8,241z M132.7,229.8l21.6,10v-34.4
	l-21.6-10V229.8z"/>
<path class="st21" d="M152.2,236.6l-17.5-8v-30.3l17.5,8V236.6z"/>
<path class="st4" d="M152.9,237.4l-18.7-8.5v-31.3l18.7,8.5V237.4z M135.2,228.3l16.5,7.6v-29.2l-16.5-7.6V228.3z"/>
<polygon class="st22" points="137.4,202.8 137.4,223.6 150.7,229.8 150.7,209 "/>
<path class="st4" d="M148.5,232.3l-14.5-6.7v-21.9l14.5,6.7V232.3z M135.2,225.1l12.1,5.6V211l-12.1-5.6V225.1z"/>
<path class="st20" d="M159,203.2v35.5l0,0l-4,1.9l0,0v-35.5l0,0L159,203.2z"/>
<path class="st4" d="M154.8,241l-0.7-0.3v-36l0.3-0.1l4.4-2l0.7,0.3v36l-0.3,0.1L154.8,241z M155.4,205.2v34.4l2.9-1.3v-34.4
	L155.4,205.2z"/>
<path class="st10" d="M188.1,133l-31.7,14.4l0,0l-31.8-14.5v-0.1l31.7-14.4l0,0C156.3,118.3,188.1,133,188.1,133z"/>
<path class="st23" d="M188.1,135.9l-31.7,14.4l0,0l-31.8-14.5v-0.1l31.8-14.4l0,0L188.1,135.9z"/>
<path class="st16" d="M127.8,134l28.6,13.1l0,0l28.6-13.1L156.5,121l0,0L127.8,134z"/>
<path class="st4" d="M156.5,147.9l-0.3-0.1l-32-14.7v-0.5l0.3-0.1l32-14.5l0.3,0.1l32,14.7v0.5l-0.3,0.1L156.5,147.9z M125.8,132.8
	l30.7,14l30.7-14l-30.7-14L125.8,132.8z"/>
<path class="st22" d="M167.9,127.6c6.4,2.9,6.4,7.6,0,10.5c-7.2,2.9-15.8,2.9-23.1,0c-6.4-2.9-6.4-7.6,0-10.5
	C152.1,124.7,160.7,124.7,167.9,127.6z"/>
<path class="st13" d="M144.8,133.5c-1.3,0.5-2.5,1.3-3.4,2.3c0.9,0.9,2.1,1.7,3.4,2.3c7.2,2.9,15.8,2.9,23.1,0
	c1.3-0.5,2.5-1.3,3.4-2.3c-0.9-0.9-2.1-1.7-3.4-2.3C160.7,130.6,152.1,130.6,144.8,133.5z"/>
<path class="st4" d="M156.5,140.8c-4.1,0-8.2-0.7-11.8-2.3c-3.2-1.5-5.1-3.5-5.1-5.7s1.9-4.1,5.1-5.7c7.5-2.9,16.3-2.9,23.8,0l0,0
	c3.2,1.5,5.1,3.5,5.1,5.7s-1.9,4.1-5.1,5.7C164.7,140.1,160.6,140.9,156.5,140.8z M156.5,125.9c-3.9-0.1-7.8,0.7-11.3,2.1
	c-2.9,1.2-4.5,2.9-4.5,4.8s1.5,3.6,4.5,4.9c7.1,2.8,15.5,2.8,22.6,0c2.9-1.3,4.5-3.1,4.5-4.9s-1.5-3.6-4.5-4.9
	C164.2,126.5,160.4,125.9,156.5,125.9z"/>
<path class="st14" d="M156.5,135.5c-0.8,0-1.5-0.1-2.2-0.4c-0.7-0.2-1.1-0.8-1.2-1.3c0-0.6,0.4-1.2,1.2-1.3c1.4-0.5,3-0.5,4.4,0
	c0.7,0.2,1.1,0.8,1.2,1.3c0,0.6-0.4,1.2-1.2,1.3C158,135.4,157.2,135.5,156.5,135.5z M156.5,133.1c-0.5,0-1,0.1-1.5,0.3
	c-0.3,0.1-0.3,0.3-0.3,0.4s0.2,0.3,0.3,0.4c0.9,0.4,2,0.4,2.9,0c0.3-0.1,0.3-0.3,0.3-0.4s-0.2-0.3-0.3-0.4
	C157.4,133.2,156.9,133.1,156.5,133.1z"/>
<path class="st10" d="M124.6,133v8.9l0,0l31.7,14.5h0.2v-8.9l0,0L124.6,133z"/>
<path class="st4" d="M156.3,157l-0.3-0.1l-32-14.7v-9.5l0.7-0.3l0.3,0.1l32,14.7v9.5L156.3,157z M125.1,141.6l30.7,14v-8l-30.7-14
	V141.6z"/>
<path class="st17" d="M188.3,133v8.9l0,0l-31.7,14.4h-0.2v-8.9l0,0C156.5,147.4,188.3,133,188.3,133z"/>
<path class="st4" d="M156.5,157l-0.7-0.3v-9.5l0.3-0.1l32-14.5l0.7,0.3v9.5l-0.3,0.1L156.5,157z M157,147.6v8l30.7-14v-8L157,147.6z
	"/>
<path class="st22" d="M167.9,127.6c-2.2-1-4.6-1.6-7.1-1.9v3.3c2.5,0.3,4.9,0.9,7.1,1.9c1.9,0.8,3.4,2.1,4.4,3.6
	C173.5,132.2,172.1,129.5,167.9,127.6z"/>
<path class="st4" d="M172.3,135.8l-0.5-1.1c-0.8-1.4-2.3-2.6-4-3.3c-2.1-0.9-4.5-1.6-6.9-1.9h-0.5v-4.3l0.7,0.1c2.5,0.3,5,1,7.2,2
	l0,0c4.2,2,5.9,4.8,4.5,7.6L172.3,135.8z M161.3,128.7c2.4,0.4,4.7,1,6.9,1.9c1.6,0.7,2.9,1.6,3.9,2.8c0.3-2-1.3-3.9-4.4-5.3l0,0
	c-1.9-0.9-4-1.5-6.2-1.7L161.3,128.7z"/>
<path class="st15" d="M160.8,125.6c-5.5-0.8-11.1-0.1-16,1.9c-4.2,1.9-5.6,4.5-4.4,6.9c0.9-1.5,2.5-2.8,4.4-3.6
	c4.9-2,10.6-2.6,16-1.9V125.6z"/>
<path class="st4" d="M141.5,135.8l-1.3-1.1c-1.3-2.7,0.3-5.6,4.5-7.6c5-2,10.8-2.7,16.3-2h0.5v4.3l-0.7-0.1
	c-5.3-0.7-10.8-0.1-15.7,1.9c-1.8,0.7-3.2,1.9-4,3.3L141.5,135.8z M156.5,125.9c-3.9,0-7.8,0.7-11.3,2.1c-3.2,1.5-4.7,3.3-4.4,5.3
	c1-1.2,2.3-2.1,3.9-2.8c4.8-2,10.3-2.7,15.7-2V126C159,125.9,157.8,125.9,156.5,125.9z"/>
<path class="st10" d="M160.8,95.4L111,118.2l0,0l-18.2-8.3v-0.1L142.5,87l0,0L160.8,95.4z"/>
<path class="st16" d="M160.8,97.8L111,120.6l0,0l-18.2-8.3v-0.1l49.7-22.8l0,0L160.8,97.8z"/>
<path class="st4" d="M111.1,118.7l-0.5-0.1l-18.5-8.4v-0.3c0-0.1,0.2-0.4,0.3-0.4l50-22.9l0.3,0.1l18.5,8.4v0.3
	c0,0.1-0.2,0.4-0.3,0.4L111.1,118.7z M93.8,109.9l17.2,7.7l48.7-22.4l-17.2-7.7L93.8,109.9z"/>
<path class="st10" d="M92.6,110v4.9l0,0l18.2,8.3h0.2v-4.9l0,0L92.6,110z"/>
<path class="st4" d="M111,123.6c-0.2,0-0.2,0-0.3-0.1l-18.5-8.4v-5.5l0.7-0.3l0.3,0.1l18.5,8.4v5.5l-0.3,0.1
	C111.2,123.6,111.1,123.6,111,123.6z M93.1,114.7l17.2,7.7v-4l-17.2-7.7V114.7z"/>
<path class="st17" d="M160.8,95.4v4.9l0,0l-49.7,22.9H111v-4.9l0,0L160.8,95.4z"/>
<path class="st4" d="M111.1,123.8l-0.3-0.1c-0.2-0.1-0.3-0.3-0.3-0.4V118l0.3-0.1l50-23.1l0.3,0.1c0.2,0.1,0.3,0.3,0.3,0.4v5.2
	l-0.3,0.1L111.1,123.8z M111.6,118.4v4l48.7-22.4v-4L111.6,118.4z"/>
<path class="st1" d="M231.4,249.6l-26.3,12c-3.1,1.3-6.8,1.3-9.9,0l-26.3-12c-1.9-0.9-2.5-2.8-1.3-4.3c0.3-0.4,0.8-0.8,1.3-1
	l29.3-13.3c1.2-0.5,2.7-0.5,3.9,0l29.2,13.3c1.9,0.8,2.6,2.7,1.6,4.2C232.5,248.9,232,249.4,231.4,249.6z"/>
<path class="st2" d="M225.5,232.7L194,247.1h-0.2l-31.5-14.4c-0.2,0-0.2-0.1,0-0.3l31.5-14.4h0.2l31.5,14.4
	C225.7,232.4,225.7,232.6,225.5,232.7z"/>
<path class="st3" d="M225.5,235L194,249.4h-0.2L162.4,235c-0.2,0-0.2-0.1,0-0.3l31.5-14.4h0.2l31.5,14.4
	C225.7,234.8,225.7,235,225.5,235z"/>
<path class="st4" d="M193.9,247.5c-0.2,0-0.3,0-0.3-0.1L162,233c-0.4-0.2-0.4-0.6-0.2-0.9c0-0.1,0.1-0.1,0.2-0.1l31.5-14.4
	c0.2-0.1,0.5-0.1,0.7,0l31.5,14.4c0.4,0.2,0.4,0.6,0.2,0.9c0,0.1-0.1,0.1-0.2,0.1l0,0l-31.5,14.4C194.2,247.5,194,247.5,193.9,247.5
	z M163.2,232.4l30.7,14l30.7-14L194,218.6L163.2,232.4z"/>
<path class="st5" d="M205.5,227.2c6.4,2.9,6.4,7.6,0,10.5c-7.2,2.9-15.8,2.9-23.1,0c-6.4-2.9-6.4-7.6,0-10.5
	C189.7,224.3,198.2,224.3,205.5,227.2z"/>
<path class="st5" d="M205.3,234.3c6.4,2.9,6.4,7.6,0,10.5c-7.2,2.9-15.8,2.9-23.1,0c-6.4-2.9-6.4-7.6,0-10.5
	C188.6,231.4,198.9,231.4,205.3,234.3z"/>
<path class="st3" d="M205.2,233.8c-7.2-2.9-15.8-2.9-23.1,0c-1.1,0.5-2.1,1.1-3,1.9c0.9,1,2.1,1.8,3.5,2.4c7.2,2.9,15.8,2.9,23.1,0
	c1.1-0.5,2.1-1.1,3-1.9C207.8,235.1,206.6,234.3,205.2,233.8z"/>
<path class="st4" d="M193.9,240.4c-4.1,0-8.2-0.7-11.8-2.3c-3.2-1.5-5.1-3.5-5.1-5.7c0-2.3,1.9-4.1,5.1-5.7c7.5-2.9,16.3-2.9,23.8,0
	l0,0c3.2,1.5,5.1,3.5,5.1,5.7c0,2.3-1.9,4.1-5.1,5.7C202.1,239.7,198,240.5,193.9,240.4z M194,225.5c-3.9-0.1-7.8,0.7-11.3,2.1
	c-2.9,1.3-4.5,3.1-4.5,4.9s1.5,3.6,4.5,4.9c7.1,2.8,15.5,2.8,22.6,0c2.9-1.3,4.5-3.1,4.5-4.9s-1.5-3.6-4.5-4.9l0,0
	C201.9,226.2,198,225.4,194,225.5z"/>
<path class="st14" d="M193.9,235.2c-0.8,0-1.6-0.1-2.4-0.4c-0.7-0.3-1.2-0.8-1.2-1.5c0.1-0.6,0.5-1.1,1.2-1.5c1.5-0.7,3.3-0.7,4.7,0
	c0.7,0.3,1.2,0.8,1.2,1.5c-0.1,0.6-0.5,1.1-1.2,1.5C195.5,235.1,194.7,235.3,193.9,235.2z M193.9,232.7c-0.6,0-1.1,0.1-1.7,0.3
	c-0.3,0.1-0.5,0.3-0.5,0.4s0.2,0.3,0.5,0.4c1.1,0.4,2.3,0.4,3.4,0c0.3-0.1,0.5-0.3,0.5-0.4s-0.2-0.3-0.5-0.4l0,0
	C195,232.8,194.4,232.7,193.9,232.7z"/>
<path class="st5" d="M162.2,232.7v8.9l31.5,14.4c0.2,0,0.2,0,0.2-0.1V247l-31.5-14.4C162.2,232.6,162.2,232.6,162.2,232.7z"/>
<path class="st4" d="M193.7,256.4c-0.2,0-0.2,0-0.3-0.1l-31.5-14.4c-0.2-0.1-0.3-0.3-0.3-0.5v-8.8c0-0.2,0.1-0.4,0.3-0.5
	c0.2-0.1,0.5-0.1,0.7,0l31.5,14.4c0.2,0.1,0.3,0.3,0.3,0.5v8.8c0,0.2-0.1,0.4-0.3,0.5C194,256.4,193.9,256.4,193.7,256.4z
	 M162.7,241.2l30.7,14v-8l-30.7-14V241.2z"/>
<path class="st11" d="M225.7,232.7v8.9L194.2,256c-0.2,0-0.2,0-0.2-0.1V247l31.5-14.4C225.6,232.6,225.7,232.6,225.7,232.7z"/>
<path class="st4" d="M194,256.4c-0.2,0-0.2,0-0.3-0.1c-0.2-0.1-0.3-0.3-0.3-0.5V247c0-0.2,0.1-0.4,0.3-0.5l31.5-14.4
	c0.2-0.1,0.5-0.1,0.7,0c0.2,0.1,0.3,0.3,0.3,0.5v8.8c0,0.2-0.1,0.4-0.3,0.5l-31.5,14.4C194.4,256.4,194.2,256.4,194,256.4z
	 M194.5,247.4v8l30.7-14v-8L194.5,247.4z"/>
<path class="st3" d="M205.5,227.2c-2.2-1-4.6-1.6-7.1-1.9v3.3c2.5,0.3,4.9,0.9,7.1,1.9c1.9,0.8,3.4,2.1,4.4,3.6
	C211.1,231.8,209.7,229.1,205.5,227.2z"/>
<path class="st4" d="M209.4,235.4v-0.9c-0.8-1.4-2.3-2.6-4-3.3c-2.1-0.9-4.5-1.6-6.9-1.9h-0.5V225l0.7,0.1c2.5,0.3,5,1,7.2,2l0,0
	c4.2,1.9,5.9,4.8,4.5,7.6L209.4,235.4z M198.9,228.3c2.4,0.4,4.7,1,6.9,1.9c1.6,0.7,2.9,1.6,3.9,2.8c0.3-2-1.3-3.9-4.4-5.3l0,0
	c-1.9-0.9-4-1.5-6.2-1.7L198.9,228.3z"/>
<path class="st11" d="M198.4,225.4c-5.5-0.8-11.1-0.1-16,1.9c-4.2,1.9-5.6,4.5-4.4,6.9c0.9-1.5,2.5-2.8,4.4-3.6
	c4.9-2,10.6-2.6,16-1.9V225.4z"/>
<path class="st4" d="M178.9,235.4l-1.3-0.9c-1.3-2.7,0.3-5.6,4.5-7.6c5-2,10.8-2.7,16.3-2h0.5v4.3l-0.7-0.1
	c-5.3-0.7-10.8-0.1-15.7,1.9c-1.8,0.7-3.2,1.9-4,3.3L178.9,235.4z M194,225.5c-3.9,0-7.8,0.7-11.3,2.1c-3.2,1.5-4.7,3.3-4.4,5.3
	c1-1.2,2.3-2.1,3.9-2.7c4.8-2,10.3-2.7,15.7-2v-2.5C196.6,225.6,195.3,225.5,194,225.5L194,225.5z"/>
<path class="st1" d="M345,178l-20.2,9.1c-2.7,1.2-6,1.2-8.8,0l-15.3-6.9c-1.2-0.6-1.6-1.8-0.9-2.7c0.2-0.3,0.5-0.6,0.9-0.7
	l23.4-10.5c0.8-0.4,1.8-0.4,2.5,0l18.5,8.3c1.2,0.7,1.5,2.1,0.6,3.1C345.6,177.7,345.3,177.9,345,178z"/>
<path class="st10" d="M340.5,167l-23.1,10.4h-0.2l-19-8.5v-0.1l23.1-10.4h0.2L340.5,167z"/>
<path class="st16" d="M340.5,169.5l-23.1,10.4h-0.2l-19-8.5v-0.1l23.1-10.4h0.2L340.5,169.5L340.5,169.5z"/>
<path class="st4" d="M317.6,177.9l-0.3-0.1l-19.4-8.7v-0.4c0-0.2,0.2-0.4,0.3-0.5l23.3-10.5l0.3,0.1l19.4,8.8v0.4
	c0,0.2-0.2,0.4-0.3,0.5L317.6,177.9z M299.5,168.7l18,8.1l22.1-9.9l-18-8.1L299.5,168.7z"/>
<path class="st10" d="M298.2,168.8v5.1l0,0l19,8.5h0.2v-5.1l0,0L298.2,168.8L298.2,168.8z"/>
<path class="st4" d="M317.4,183.1c-0.2,0-0.2,0-0.3-0.1l-19.4-8.7v-5.7l0.7-0.4l0.3,0.1l19.4,8.7v5.7l-0.3,0.3
	C317.6,183,317.5,183.1,317.4,183.1z M298.8,173.8l18,8.1v-4.1l-18-8.1V173.8z"/>
<path class="st17" d="M340.6,167.1v5.1l0,0l-23.1,10.4h-0.2v-5.1l0,0C317.4,177.5,340.6,167.1,340.6,167.1z"/>
<path class="st4" d="M317.6,183.1l-0.3-0.1c-0.2-0.1-0.3-0.3-0.3-0.5v-5.3l0.3-0.3l23.3-10.5l0.3,0.1c0.2,0.1,0.3,0.3,0.3,0.5v5.3
	l-0.3,0.3L317.6,183.1z M318.1,177.6v4.1l22.1-9.9v-4.1L318.1,177.6z"/>
<path class="st4" d="M318.6,173.8c-0.7,0.3-1.5,0.3-2.2,0c-0.4-0.1-0.6-0.4-0.5-0.7c0.1-0.2,0.2-0.3,0.5-0.4c0.7-0.3,1.5-0.3,2.2,0
	C319.2,173.1,319.2,173.5,318.6,173.8z"/>
<ellipse class="st4" cx="321.2" cy="162.4" rx="1.5" ry="0.7"/>
</svg>
