<?xml version="1.0" encoding="utf-8"?>
<!-- Generator: Adobe Illustrator 25.2.1, SVG Export Plug-In . SVG Version: 6.00 Build 0)  -->
<svg version="1.1" id="Layer_1" xmlns="http://www.w3.org/2000/svg" xmlns:xlink="http://www.w3.org/1999/xlink" x="0px" y="0px"
	 viewBox="0 0 350 350" style="enable-background:new 0 0 350 350;" xml:space="preserve">
<style type="text/css">
	.st0{fill:#FFBE19;}
	.st1{fill:#424243;}
	.st2{fill:#F0F1F1;}
	.st3{opacity:0.48;}
	.st4{fill:#9ED1E3;}
	.st5{fill:#435E7D;}
	.st6{fill:#0063FF;}
	.st7{fill:#0F7CFF;}
	.st8{fill:#2B3D4D;}
	.st9{opacity:0.18;}
	.st10{fill:#272525;}
	.st11{fill:#CFD0D2;}
</style>
<path class="st0" d="M59.1,203.1c-3.2-5.9-6.7-16.8-15.4-16.6c-9.7,0.2-11.2,10.3-14.6,16.6c-2,3.7-4.1,7.7-3.8,11.8
	c0.4,5.5,6.4,9.3,12,9.3h13.6c5.6,0,11.7-3.8,12-9.3C63.2,210.8,61.1,206.8,59.1,203.1z"/>
<path class="st1" d="M60.8,202.1c-3.6-6.7-6.8-16.6-15.7-17.5c-4.2-0.4-8.4,1.3-11.1,4.6c-2.6,3.2-3.9,7.2-5.6,10.9
	c-2.3,5.1-6,10.2-4.9,16.1c0.9,4.8,5.3,8.2,9.9,9.4c3.1,0.8,6.6,0.5,9.8,0.5h7.1c4.8,0,9.7-1.7,12.6-5.7
	C67.2,214.7,63.8,207.7,60.8,202.1z M59.5,218.6c-2.2,2.7-5.8,3.7-9.1,3.8c-4.3,0-8.6,0.1-13,0c-3.6-0.1-7.7-1.7-9.5-5
	c-2.5-4.6,1.3-10,3.3-14.1c2.7-5.3,4.4-13.8,11.5-14.7c8.5-1,11.6,9.7,14.8,15.6C59.7,208.3,63.1,214.2,59.5,218.6z"/>
<rect x="26.6" y="233.9" class="st2" width="36.3" height="24.3"/>
<path class="st1" d="M62.9,256.3H26.6l1.9,1.9v-24.3l-1.9,1.9h36.3l-1.9-1.9v24.3c0,2.5,3.9,2.5,3.9,0v-24.3c-0.1-1-0.9-1.8-1.9-1.9
	H26.7c-1,0.1-1.8,0.9-1.9,1.9v24.3c0.1,1,0.9,1.8,1.9,1.9H63C65.4,260.2,65.4,256.3,62.9,256.3z"/>
<path class="st1" d="M42.9,213.6c0,6.8-0.1,13.5-0.1,20.3c0,2.5,3.9,2.5,3.9,0c0-6.8,0.1-13.5,0.1-20.3
	C46.8,211.1,43,211.1,42.9,213.6z"/>
<path class="st1" d="M294.9,223.8v33.5c0,2.5,3.9,2.5,3.9,0v-33.5C298.7,221.3,294.9,221.3,294.9,223.8z"/>
<rect x="266.9" y="216" class="st0" width="58.9" height="8.3"/>
<path class="st1" d="M266.9,225.3h58.9c0.6,0,1-0.4,1-1V216c0-0.6-0.4-1-1-1h-58.9c-0.6,0-1,0.4-1,1v8.3c0.2,0.5,0.7,0.8,1.3,0.6
	c0.3-0.1,0.5-0.3,0.6-0.6V216l-1,1h58.9l-1-1v8.3l1-1h-58.9C265.7,223.3,265.7,225.3,266.9,225.3z"/>
<rect x="283.9" y="255.3" class="st1" width="25.7" height="3.8"/>
<rect x="245.1" y="234.3" class="st2" width="31" height="6.4"/>
<path class="st1" d="M245.1,241.7h31c0.6,0,1-0.4,1-1v-6.4c0-0.6-0.4-1-1-1h-31c-0.6,0-1,0.4-1,1v6.4c0.2,0.5,0.7,0.8,1.3,0.6
	c0.3-0.1,0.5-0.3,0.6-0.6v-6.4l-1,1h31l-1-1v6.4l1-1h-31C243.9,239.7,243.9,241.7,245.1,241.7z"/>
<rect x="244" y="199.8" class="st1" width="4.7" height="60.2"/>
<rect x="272.6" y="240.5" class="st1" width="3.5" height="19.4"/>
<g class="st3">
	<path class="st1" d="M114.4,293.2H53.2c-0.9,0-1.7-0.7-1.7-1.7c0,0,0,0,0,0v-1.4c0-0.9,0.7-1.7,1.7-1.7c0,0,0,0,0,0h61.2
		c0.9,0,1.7,0.7,1.7,1.7c0,0,0,0,0,0v1.4C116.1,292.4,115.4,293.2,114.4,293.2C114.4,293.2,114.4,293.2,114.4,293.2z"/>
</g>
<rect x="54" y="68.6" class="st2" width="183.8" height="184.7"/>
<path class="st1" d="M237.8,251.3H61.5c-2.3,0-4.9-0.4-7.2,0H54l1.9,1.9V76.1c0-2.3,0.4-4.9,0-7.2v-0.3L54,70.5h176.3
	c2.3,0,4.9,0.4,7.2,0h0.3l-1.9-1.9v161.8c0,7.5-0.3,15,0,22.5v0.3c0,2.5,3.9,2.5,3.9,0V91.4c0-7.5,0.3-15,0-22.5v-0.3
	c-0.1-1-0.9-1.8-1.9-1.9H76.8c-7.4,0-14.9-0.3-22.4,0h-0.3c-1,0.1-1.8,0.9-1.9,1.9v161.8c0,7.5-0.3,15,0,22.5v0.3
	c0.1,1,0.9,1.8,1.9,1.9h161.1c7.4,0,14.9,0.3,22.4,0h0.3C240.3,255.2,240.3,251.3,237.8,251.3z"/>
<rect x="39.9" y="253.3" class="st2" width="211.7" height="10.5"/>
<path class="st1" d="M41.9,263.8v-10.5l-1.9,1.9h203c2.6,0,5.6,0.4,8.2,0h0.4l-1.9-1.9v10.5c0,2.5,3.9,2.5,3.9,0v-10.5
	c-0.1-1-0.9-1.8-1.9-1.9H66.1c-8.5,0-17.1-0.3-25.7,0H40c-1,0.1-1.8,0.9-1.9,1.9v10.5C38,266.3,41.9,266.3,41.9,263.8z"/>
<rect x="67.2" y="154" class="st4" width="50.1" height="89"/>
<path class="st1" d="M117.3,152H67.2c-1,0.1-1.8,0.9-1.9,1.9v89c0.1,1,0.9,1.8,1.9,1.9h50.1c0.5,0,1-0.2,1.3-0.5l0.1-0.1l0,0
	c0.3-0.3,0.5-0.8,0.5-1.3v-89C119.1,152.9,118.3,152.1,117.3,152z M73.4,241.1H69V156h46.3v85.1H73.4z"/>
<g class="st3">
	<path class="st1" d="M134.9,274h-95c-0.8,0-1.5-0.7-1.5-1.5v-0.3c0-0.8,0.7-1.5,1.5-1.5h95c0.8,0,1.5,0.7,1.5,1.5v0.3
		C136.4,273.3,135.7,274,134.9,274z"/>
</g>
<g class="st3">
	<path class="st1" d="M237.3,281.3H123.6c-0.9,0-1.6-0.7-1.6-1.6c0,0,0,0,0,0v-1.1c0-0.9,0.7-1.6,1.6-1.6c0,0,0,0,0,0h113.7
		c0.9,0,1.6,0.7,1.6,1.6c0,0,0,0,0,0v1.1C238.9,280.6,238.2,281.3,237.3,281.3C237.3,281.3,237.3,281.3,237.3,281.3z"/>
</g>
<g class="st3">
	<path class="st1" d="M250.1,281.3h-6.3c-0.9,0-1.6-0.7-1.6-1.6c0,0,0,0,0,0v-1.1c0-0.9,0.7-1.6,1.6-1.6c0,0,0,0,0,0h6.3
		c0.9,0,1.6,0.7,1.6,1.6c0,0,0,0,0,0v1.1C251.6,280.6,251,281.2,250.1,281.3z"/>
</g>
<rect x="68.9" y="224.9" class="st2" width="47.4" height="17.3"/>
<path class="st1" d="M117.2,224.9c0-0.6-0.4-1-1-1H68.8c-0.6,0-1,0.4-1,1v17.3c0,0.6,0.4,1,1,1h47.4c0.2,0,0.4-0.1,0.6-0.2l0.1-0.1
	v-0.1c0.1-0.2,0.2-0.4,0.2-0.6C117.2,236.4,117.2,230.6,117.2,224.9z M74.7,241.2h-4.9v-15.3h45.4v15.3H74.7z"/>
<path class="st2" d="M108.2,179l-19.9,25.6c-0.8,1,0.6,2.4,1.4,1.4l19.9-25.6C110.4,179.4,109,178.1,108.2,179z"/>
<path class="st2" d="M95.9,181c-4.1,5.3-8.2,10.6-12.4,15.9c-0.8,1,0.6,2.4,1.4,1.4c4.1-5.3,8.2-10.6,12.4-15.9
	C98.1,181.4,96.7,180,95.9,181z"/>
<rect x="174.2" y="154" class="st4" width="50.1" height="88.8"/>
<path class="st1" d="M224.3,240.9h-50.1l1.9,1.9V154l-1.9,1.9h50.1l-1.9-1.9v88.8c0,2.5,3.9,2.5,3.9,0V154c-0.1-1-0.9-1.8-1.9-1.9
	h-50.1c-1,0.1-1.8,0.9-1.9,1.9v88.8c0.1,1,0.9,1.8,1.9,1.9h50.1C226.8,244.8,226.8,240.9,224.3,240.9z"/>
<rect x="175.9" y="224" class="st2" width="47.4" height="18.1"/>
<path class="st1" d="M223.3,241.2h-47.4l1,1v-18.1l-1,1h47.4l-1-1v18.1c0.2,0.5,0.7,0.8,1.3,0.6c0.3-0.1,0.5-0.3,0.6-0.6v-18.1
	c0-0.6-0.4-1-1-1h-47.4c-0.6,0-1,0.4-1,1v18.1c0,0.6,0.4,1,1,1h47.4c0.6,0,1-0.4,1.1-1S223.9,241.2,223.3,241.2z"/>
<rect x="128.9" y="154" class="st5" width="33.3" height="98.6"/>
<path class="st1" d="M162.2,250.7h-33.4l1.9,1.9V154l-1.9,1.9h33.4l-1.9-1.9v98.6c0,2.5,3.9,2.5,3.9,0V154c-0.1-1-0.9-1.8-1.9-1.9
	h-33.4c-1,0.1-1.8,0.9-1.9,1.9v98.6c0.1,1,0.9,1.8,1.9,1.9h33.4C164.7,254.6,164.7,250.7,162.2,250.7z"/>
<rect x="44.3" y="58.9" class="st6" width="203.5" height="9.7"/>
<path class="st1" d="M247.8,57H69.4c-8.2,0-16.5-0.3-24.7,0h-0.4c-1,0.1-1.8,0.9-1.9,1.9v9.7c0.1,1,0.9,1.8,1.9,1.9h178.4
	c8.2,0,16.5,0.3,24.7,0h0.4c1-0.1,1.8-0.9,1.9-1.9v-9.7c0-2.5-3.9-2.5-3.9,0v9.7l1.9-1.9H52.6c-2.6,0-5.5-0.4-8,0h-0.4l1.9,1.9v-9.7
	l-1.9,1.9h178.4c8.2,0,16.5,0.3,24.7,0h0.4c1,0,1.9-0.8,2-1.8C249.7,57.9,248.8,57,247.8,57z"/>
<polygon class="st7" points="237.8,145.4 269.1,177 238.7,177 "/>
<path class="st1" d="M236.5,146.8c9.1,9.2,18.2,18.4,27.4,27.6l3.9,3.9c0.5-1.1,0.9-2.2,1.4-3.3h-30.4l1.9,1.9
	c-0.3-10.5-0.5-21-0.8-31.5c-0.1-2.5-3.9-2.5-3.9,0c0.3,10.5,0.5,21,0.8,31.5c0.1,1,0.9,1.8,1.9,1.9h30.4c1.1-0.1,1.9-1,1.9-2.1
	c0-0.4-0.2-0.9-0.5-1.2c-9.1-9.2-18.2-18.4-27.4-27.6l-3.9-3.9C237.5,142.3,234.7,145,236.5,146.8z"/>
<rect x="134.5" y="226.2" class="st8" width="21.3" height="21.5"/>
<rect x="134.5" y="163.1" class="st8" width="21.3" height="59.3"/>
<path class="st2" d="M207.8,171.6c-8.2,10.5-16.4,21-24.5,31.5c-1.2,1.5-2.3,3-3.5,4.5c-0.8,1,0.6,2.4,1.4,1.4
	c8.2-10.5,16.4-21,24.5-31.5c1.2-1.5,2.3-3,3.5-4.5C209.9,172,208.6,170.7,207.8,171.6z"/>
<path class="st2" d="M210.7,181c-5.4,6.9-10.7,13.8-16.1,20.6c-0.8,1,0.6,2.4,1.4,1.4c5.4-6.9,10.7-13.8,16.1-20.6
	C212.9,181.4,211.5,180,210.7,181z"/>
<path class="st2" d="M215.4,166.2c0,0,2-26.6-18.5-29.1c12.3-0.9,24.1,4.9,30.8,15.3c0,0,10.6,18.9-2.9,21.3
	C224.8,173.7,216.8,174.1,215.4,166.2z"/>
<path class="st1" d="M216.3,166.2c0.6-8.8-1.7-19.6-8.7-25.6c-3.1-2.5-6.8-4.1-10.7-4.5v1.9c9-1.2,18.9,2.9,25.2,9.1
	c3.2,3.1,5.6,6.9,7.1,11.1c1.4,3.9,3,10.1-1,13.1c-1.6,1.2-3.7,1.7-5.7,1.2c-3.2-0.7-5.7-3.2-6.3-6.5c-0.2-1.2-2.1-0.7-1.9,0.5
	c1,5,5.4,8.5,10.5,8.2c6.3-0.6,8.3-6.6,7.4-12.1c-1.9-12-11.4-21.6-22.9-25.1c-4-1.3-8.3-1.8-12.5-1.4c-0.5,0.2-0.8,0.7-0.6,1.3
	c0.1,0.3,0.3,0.5,0.6,0.6c13.4,1.8,18.4,16.2,17.5,28.1c0,0.6,0.4,1,0.9,1S216.3,166.8,216.3,166.2z"/>
<path class="st6" d="M196.5,137.1c0,0-15.6,2.5-13.5,29.1c0,0,0.5,7.5-9.6,7.5s-5.8-15.4-4.3-18.3S177.2,140.1,196.5,137.1z"/>
<path class="st1" d="M196.3,136.2c-3,0.5-5.9,2.6-8,4.8c-6,6.5-6.8,16.1-6.3,24.5c0.3,2.2-0.6,4.3-2.4,5.6c-3.1,2.2-9.4,2.6-11-1.5
	c-1.3-3.2-0.5-7.3,0.3-10.5c0.6-2,1.4-3.9,2.5-5.6c5.6-8.9,15.3-13.8,25.4-15.5C198,137.9,197.5,136,196.3,136.2
	c-9.9,1.6-19.3,6.2-25.3,14.5c-3.5,4.6-5.3,10.4-5,16.2c0.3,3.5,1.9,6.9,5.6,7.6c3.9,0.8,9-0.4,11.2-3.9c1.7-2.7,1-5.5,1-8.5
	c-0.1-5.2,0.6-10.7,2.9-15.4c1.9-3.8,5.6-7.9,10-8.7C198,137.9,197.5,136,196.3,136.2z"/>
<path class="st2" d="M199.2,166.2l-2.3-29.1c0,0-15.1,1.8-13.9,29.1c0.5,4.2,3.9,7.4,8.1,7.5C198.6,174.2,199.2,166.2,199.2,166.2z"
	/>
<path class="st1" d="M200.2,166.2c-0.8-9.7-1.5-19.4-2.3-29.1c0-0.6-0.4-1-1-1c-5.6,0.7-9.9,5.8-12,10.7c-2.6,6.2-3.5,12.9-2.8,19.5
	c0.5,4.6,4.4,8.2,9,8.3C196.1,175,199.8,171.1,200.2,166.2c0.1-1.2-1.8-1.2-1.9,0c-0.3,3.6-3,6.7-6.9,6.5c-4.1-0.1-7.4-3.4-7.4-7.5
	c-0.3-8.7,0.9-20.4,9.1-25.5c0.9-0.5,1.8-1,2.8-1.3c0.3-0.1,0.7-0.1,0.9-0.2s0.7-0.1,0.1,0l-1-1c0.8,9.7,1.5,19.4,2.3,29.1
	C198.3,167.5,200.3,167.5,200.2,166.2z"/>
<path class="st6" d="M207.3,173.7c0,0-7.5-0.3-8.1-7.5s-2.3-29.1-2.3-29.1s17.7-1.4,18.5,29.1C215.4,166.2,215.4,173,207.3,173.7z"
	/>
<path class="st1" d="M207.3,172.8c-2.7-0.1-5.1-1.6-6.4-3.9c-0.8-1.7-0.8-3.8-0.9-5.7s-0.3-4.1-0.5-6.1c-0.5-6.6-1-13.2-1.6-19.9
	l-1,1c2.9,0,5.8,1,8.1,2.8c7.3,5.4,9,15.9,9.3,24.4C214.5,169.6,211.5,172.3,207.3,172.8c-1.2,0.1-1.2,2.1,0,1.9
	c4.3-0.5,8.2-2.8,8.9-7.4c0.2-2.2,0.1-4.5-0.3-6.7c-0.3-3-0.8-5.9-1.7-8.8c-2-6.7-6.3-13.1-13.3-15.1c-1.3-0.5-2.7-0.7-4.1-0.6
	c-0.6,0-1,0.4-1,1c0.4,5.3,0.8,10.7,1.3,16c0.3,3.6,0.6,7.2,0.8,10.7c0.2,3.1,0.5,6.2,3,8.4c1.7,1.5,3.9,2.3,6.2,2.4
	c0.5,0.1,1-0.2,1.1-0.7c0.1-0.5-0.2-1-0.7-1.1C207.4,172.8,207.4,172.8,207.3,172.8z"/>
<g class="st9">
	<path class="st10" d="M215.7,167.8c2,6.5,9.1,6.2,9.1,6.2c4.3-0.8,6.2-3.2,6.7-6.2H215.7z"/>
	<path class="st10" d="M173.5,174c7.5,0,9.1-4.1,9.5-6.2h-15.9C167.5,171.2,169.1,174,173.5,174z"/>
	<path class="st10" d="M191.1,174c5.6,0.3,7.3-4,7.9-6.2h-15.7C184.2,171.4,187.4,174,191.1,174z"/>
	<path class="st10" d="M207.3,174c5.9-0.6,7.5-4.2,7.9-6.2h-15.8C200.7,173.7,207.3,174,207.3,174z"/>
</g>
<path class="st11" d="M76.2,92.6H61.7c-1.1,0-2-0.9-2-2v-3c0-1.1,0.9-2,2-2h14.5c1.1,0,2,0.9,2,2v3C78.2,91.7,77.3,92.6,76.2,92.6z"
	/>
<path class="st1" d="M75.4,93H62.6c-1.7,0-3.2-1.4-3.2-3.1c0,0,0-0.1,0-0.1v-1.4c0-1.7,1.4-3.2,3.1-3.2c0,0,0.1,0,0.1,0h12.8
	c1.7,0,3.2,1.4,3.2,3.1c0,0,0,0.1,0,0.1v1.4C78.6,91.6,77.2,93,75.4,93z M62.6,86c-1.3,0-2.4,1.1-2.4,2.4v1.4c0,1.3,1.1,2.4,2.4,2.4
	h12.8c1.3,0,2.4-1.1,2.4-2.4v-1.4c0-1.3-1.1-2.4-2.4-2.4H62.6z"/>
<path class="st11" d="M85.4,82.8H71c-1.1,0-2-0.9-2-2v-3c0-1.1,0.9-2,2-2h14.5c1.1,0,2,0.9,2,2v3C87.4,81.9,86.5,82.8,85.4,82.8z"/>
<path class="st1" d="M84.6,83.2H71.8c-1.7,0-3.2-1.4-3.2-3.1c0,0,0-0.1,0-0.1v-1.4c0-1.7,1.4-3.2,3.1-3.2c0,0,0.1,0,0.1,0h12.8
	c1.7,0,3.2,1.4,3.2,3.1c0,0,0,0.1,0,0.1V80C87.8,81.7,86.4,83.2,84.6,83.2C84.7,83.2,84.6,83.2,84.6,83.2z M71.8,76.2
	c-1.3,0-2.4,1.1-2.4,2.4V80c0,1.3,1.1,2.4,2.4,2.4h12.8c1.3,0,2.4-1.1,2.4-2.4v-1.4c0-1.3-1.1-2.4-2.4-2.4H71.8z"/>
<path class="st11" d="M74.3,134H59.8c-1.1,0-2-0.9-2-2v-3c0-1.1,0.9-2,2-2h14.5c1.1,0,2,0.9,2,2v3C76.3,133.1,75.4,134,74.3,134z"/>
<path class="st1" d="M73.4,134.3H60.6c-1.7,0-3.2-1.4-3.2-3.1c0,0,0-0.1,0-0.1v-1.4c0-1.7,1.4-3.2,3.1-3.2c0,0,0.1,0,0.1,0h12.8
	c1.7,0,3.2,1.4,3.2,3.1c0,0,0,0.1,0,0.1v1.4C76.6,132.8,75.2,134.3,73.4,134.3C73.5,134.3,73.4,134.3,73.4,134.3z M60.6,127.3
	c-1.3,0-2.4,1.1-2.4,2.4v1.4c0,1.3,1.1,2.4,2.4,2.4h12.8c1.3,0,2.4-1.1,2.4-2.4v-1.4c0-1.3-1.1-2.4-2.4-2.4L60.6,127.3z"/>
<path class="st11" d="M99.2,134H84.8c-1.1,0-2-0.9-2-2v-3c0-1.1,0.9-2,2-2h14.5c1.1,0,2,0.9,2,2v3C101.2,133.1,100.3,134,99.2,134z"
	/>
<path class="st1" d="M98.4,134.3H85.6c-1.7,0-3.2-1.4-3.2-3.1c0,0,0-0.1,0-0.1v-1.4c0-1.7,1.4-3.2,3.1-3.2c0,0,0.1,0,0.1,0h12.8
	c1.7,0,3.2,1.4,3.2,3.1c0,0,0,0.1,0,0.1v1.4C101.6,132.8,100.2,134.3,98.4,134.3C98.5,134.3,98.4,134.3,98.4,134.3z M85.6,127.3
	c-1.3,0-2.4,1.1-2.4,2.4v1.4c0,1.3,1.1,2.4,2.4,2.4h12.8c1.3,0,2.4-1.1,2.4-2.4v-1.4c0-1.3-1.1-2.4-2.4-2.4L85.6,127.3z"/>
<path class="st11" d="M236.1,126.9h-6.7c-1.5,0-2.8,1.3-2.8,2.8v1.4c0,1.5,1.3,2.8,2.8,2.8l0,0h6.7V126.9z"/>
<path class="st1" d="M236.5,134.3h-7c-1.7,0-3.2-1.4-3.2-3.1c0,0,0-0.1,0-0.1v-1.4c0-1.7,1.4-3.2,3.1-3.2c0,0,0.1,0,0.1,0h7V134.3z
	 M229.5,127.3c-1.3,0-2.4,1.1-2.4,2.4v1.4c0,1.3,1.1,2.4,2.4,2.4h6.3v-6.3h-6.3V127.3z"/>
<path class="st11" d="M236.1,243.9h-5c-1.2,0-2.1,1-2.1,2.2c0,0,0,0.1,0,0.1v1.1c0,1.2,0.9,2.2,2.1,2.3h5V243.9z"/>
<path class="st1" d="M236.5,250h-5.4c-1.4,0-2.5-1.2-2.5-2.7c0,0,0,0,0,0v-1.1c-0.1-1.4,1-2.6,2.5-2.7c0,0,0,0,0,0h5.4V250z
	 M231.1,244.3c-1,0.1-1.8,0.9-1.7,1.9c0,0,0,0,0,0v1.1c0,1,0.7,1.8,1.7,1.9h4.7v-4.9H231.1z"/>
<path class="st11" d="M230.5,124.1H216c-1.1,0-2-0.9-2-2v-3c0-1.1,0.9-2,2-2h14.5c1.1,0,2,0.9,2,2v3c0,1.1-0.8,2-1.9,2
	C230.6,124.1,230.5,124.1,230.5,124.1z"/>
<path class="st1" d="M229.7,124.5h-12.8c-1.7,0-3.2-1.4-3.2-3.1c0,0,0-0.1,0-0.1v-1.4c0-1.7,1.4-3.2,3.1-3.2c0,0,0.1,0,0.1,0h12.8
	c1.7,0,3.2,1.4,3.2,3.1c0,0,0,0.1,0,0.1v1.4C232.9,123,231.5,124.5,229.7,124.5C229.8,124.5,229.7,124.5,229.7,124.5z M216.9,117.5
	c-1.3,0-2.4,1.1-2.4,2.4v1.4c0,1.3,1.1,2.4,2.4,2.4h12.8c1.3,0,2.4-1.1,2.4-2.4v-1.4c0-1.3-1.1-2.4-2.4-2.4H216.9z"/>
<path class="st11" d="M236.1,84.2h-6.7c-1.5,0-2.8,1.3-2.8,2.8v0v1.4c0,1.5,1.3,2.8,2.8,2.8l0,0h6.7V84.2z"/>
<path class="st1" d="M236.5,91.6h-7c-1.7,0-3.2-1.4-3.2-3.1c0,0,0-0.1,0-0.1V87c0-1.7,1.4-3.2,3.1-3.2c0,0,0.1,0,0.1,0h7V91.6z
	 M229.5,84.6c-1.3,0-2.4,1.1-2.4,2.4v1.4c0,1.3,1.1,2.4,2.4,2.4h6.3v-6.3L229.5,84.6L229.5,84.6z"/>
<path class="st11" d="M230.5,81.4H216c-1.1,0-2-0.9-2-2v-3c0-1.1,0.9-2,2-2h14.5c1.1,0,2,0.9,2,2v3c0,1.1-0.8,2-1.9,2
	C230.6,81.4,230.5,81.4,230.5,81.4z"/>
<path class="st1" d="M229.7,81.8h-12.8c-1.7,0-3.2-1.4-3.2-3.1c0,0,0-0.1,0-0.1v-1.4c0-1.7,1.4-3.2,3.1-3.2c0,0,0.1,0,0.1,0h12.8
	c1.7,0,3.2,1.4,3.2,3.1c0,0,0,0.1,0,0.1v1.4C232.9,80.3,231.5,81.8,229.7,81.8C229.8,81.8,229.7,81.8,229.7,81.8z M216.9,74.8
	c-1.3,0-2.4,1.1-2.4,2.4v1.4c0,1.3,1.1,2.4,2.4,2.4h12.8c1.3,0,2.4-1.1,2.4-2.4v-1.4c0-1.3-1.1-2.4-2.4-2.4L216.9,74.8z"/>
<path class="st11" d="M214.5,100.8H200c-1.1,0-2-0.9-2-2v-3c0-1.1,0.9-2,2-2h14.5c1.1,0,2,0.9,2,2v3
	C216.5,99.9,215.6,100.8,214.5,100.8z"/>
<path class="st1" d="M213.7,101.2h-12.8c-1.7,0-3.2-1.4-3.2-3.1c0,0,0-0.1,0-0.1v-1.4c0-1.7,1.4-3.2,3.1-3.2c0,0,0.1,0,0.1,0h12.8
	c1.7,0,3.2,1.4,3.2,3.1c0,0,0,0.1,0,0.1V98C216.9,99.7,215.5,101.2,213.7,101.2C213.8,101.2,213.7,101.2,213.7,101.2z M200.9,94.2
	c-1.3,0-2.4,1.1-2.4,2.4V98c0,1.3,1.1,2.4,2.4,2.4h12.8c1.3,0,2.4-1.1,2.4-2.4v-1.4c0-1.3-1.1-2.4-2.4-2.4H200.9z"/>
<path class="st11" d="M85.5,145.4H71c-1.1,0-2-0.9-2-2v-3c0-1.1,0.9-2,2-2h14.5c1.1,0,2,0.9,2,2v3C87.5,144.5,86.6,145.4,85.5,145.4
	z"/>
<path class="st1" d="M84.6,145.8H71.8c-1.7,0-3.2-1.4-3.2-3.1c0,0,0-0.1,0-0.1v-1.4c0-1.7,1.4-3.2,3.1-3.2c0,0,0.1,0,0.1,0h12.8
	c1.7,0,3.2,1.4,3.2,3.1c0,0,0,0.1,0,0.1v1.4C87.8,144.3,86.4,145.8,84.6,145.8C84.7,145.8,84.6,145.8,84.6,145.8z M71.8,138.8
	c-1.3,0-2.4,1.1-2.4,2.4v1.4c0,1.3,1.1,2.4,2.4,2.4h12.8c1.3,0,2.4-1.1,2.4-2.4v-1.4c0-1.3-1.1-2.4-2.4-2.4H71.8z"/>
<path class="st2" d="M108.2,166.2c0,0,2-26.6-18.5-29.1c12.3-0.9,24.1,4.9,30.8,15.3c0,0,10.6,18.9-2.9,21.3
	C117.6,173.7,109.6,174.1,108.2,166.2z"/>
<path class="st1" d="M109.2,166.2c0.6-8.8-1.7-19.6-8.7-25.6c-3.1-2.5-6.8-4.1-10.7-4.5v1.9c9-1.2,18.9,2.9,25.2,9.1
	c3.2,3.1,5.6,6.9,7.1,11.1c1.4,3.9,3,10.1-1,13.1c-1.6,1.2-3.7,1.7-5.7,1.2c-3.2-0.7-5.7-3.2-6.3-6.5c-0.2-1.2-2.1-0.7-1.9,0.5
	c1,5,5.4,8.5,10.5,8.2c6.3-0.6,8.3-6.6,7.4-12.1c-1.9-12-11.4-21.6-22.9-25.1c-4-1.3-8.3-1.8-12.5-1.4c-0.5,0.2-0.8,0.7-0.6,1.3
	c0.1,0.3,0.3,0.5,0.6,0.6c13.4,1.8,18.4,16.2,17.5,28.1c0,0.6,0.4,1,1,1C108.7,167.2,109.2,166.8,109.2,166.2z"/>
<path class="st6" d="M89.3,137.1c0,0-15.6,2.5-13.5,29.1c0,0,0.5,7.5-9.6,7.5s-5.8-15.4-4.3-18.3S70.1,140.1,89.3,137.1z"/>
<path class="st1" d="M89.1,136.2c-3,0.5-5.9,2.6-8,4.8c-6,6.5-6.8,16.1-6.3,24.5c0.3,2.2-0.6,4.3-2.4,5.6c-3.1,2.2-9.4,2.6-11-1.5
	c-1.3-3.2-0.5-7.3,0.3-10.5c0.6-2,1.4-3.9,2.5-5.6c5.6-8.9,15.3-13.8,25.4-15.5C90.8,137.9,90.3,136,89.1,136.2
	c-9.9,1.6-19.3,6.2-25.3,14.5c-3.5,4.6-5.3,10.4-5,16.2c0.3,3.5,1.9,6.9,5.6,7.6c3.9,0.8,9-0.4,11.2-3.9c1.7-2.7,1-5.5,1-8.5
	c-0.1-5.2,0.6-10.7,2.9-15.4c1.9-3.8,5.6-7.9,10-8.7C90.8,137.9,90.3,136,89.1,136.2z"/>
<path class="st2" d="M92,166.2l-2.3-29.1c0,0-15.1,1.8-13.9,29.1c0.5,4.2,3.9,7.4,8.1,7.5C91.4,174.2,92,166.2,92,166.2z"/>
<path class="st1" d="M93,166.2c-0.8-9.7-1.5-19.4-2.3-29.1c0-0.6-0.4-1-1-1c-5.6,0.7-9.9,5.8-12,10.7c-2.6,6.2-3.5,12.9-2.8,19.5
	c0.5,4.6,4.4,8.2,9,8.3C89,175,92.6,171.1,93,166.2c0.1-1.2-1.8-1.2-1.9,0c-0.3,3.6-3,6.7-6.9,6.5c-4.1-0.1-7.4-3.4-7.4-7.5
	c-0.3-8.7,0.9-20.4,9.1-25.5c0.9-0.5,1.8-1,2.8-1.3c0.3-0.1,0.7-0.1,0.9-0.2s0.7-0.1,0.1,0l-1-1c0.8,9.7,1.5,19.4,2.3,29.1
	C91.1,167.5,93.1,167.5,93,166.2z"/>
<path class="st6" d="M100.1,173.7c0,0-7.5-0.3-8.1-7.5s-2.3-29.1-2.3-29.1s17.7-1.4,18.5,29.1C108.2,166.2,108.3,173,100.1,173.7z"
	/>
<path class="st1" d="M100.1,172.8c-2.7-0.1-5.1-1.6-6.4-3.9c-0.8-1.7-0.8-3.8-0.9-5.7s-0.3-4.1-0.5-6.1c-0.5-6.6-1-13.2-1.6-19.9
	l-1,1c2.9,0,5.8,1,8.1,2.8c7.3,5.4,9,15.9,9.3,24.4C107.4,169.6,104.3,172.3,100.1,172.8c-1.2,0.1-1.2,2.1,0,1.9
	c4.3-0.5,8.2-2.8,8.9-7.4c0.2-2.2,0.1-4.5-0.3-6.7c-0.3-3-0.8-5.9-1.7-8.8c-2-6.7-6.3-13.1-13.3-15.1c-1.3-0.5-2.7-0.7-4.1-0.6
	c-0.6,0-1,0.4-1,1c0.4,5.3,0.8,10.7,1.3,16c0.3,3.6,0.6,7.2,0.8,10.7c0.2,3.1,0.5,6.2,3,8.4c1.7,1.5,3.9,2.3,6.2,2.4
	c0.5,0.1,1-0.2,1.1-0.7c0.1-0.5-0.2-1-0.7-1.1C100.2,172.8,100.2,172.8,100.1,172.8z"/>
<g class="st9">
	<path class="st10" d="M109,168.2c2,6.5,9.1,6.2,9.1,6.2c4.3-0.8,6.2-3.2,6.7-6.2H109z"/>
	<path class="st10" d="M66.7,174.4c7.5,0,9.1-4.1,9.5-6.2H60.3C60.7,171.6,62.4,174.4,66.7,174.4z"/>
	<path class="st10" d="M84.4,174.4c5.6,0.3,7.3-4,7.9-6.2H76.6C77.1,170.3,78.9,174.1,84.4,174.4z"/>
	<path class="st10" d="M100.6,174.4c5.9-0.6,7.5-4.2,7.9-6.2H92.7C94,174.1,100.6,174.4,100.6,174.4z"/>
</g>
<rect x="44.1" y="100.8" class="st7" width="203.7" height="9.7"/>
<path class="st1" d="M247.8,98.9H69.3c-8.2,0-16.6-0.3-24.8,0h-0.3c-1,0.1-1.8,0.9-1.9,1.9v9.7c0.1,1,0.9,1.8,1.9,1.9h178.5
	c8.2,0,16.6,0.3,24.8,0h0.3c1-0.1,1.8-0.9,1.9-1.9v-9.7c0-2.5-3.9-2.5-3.9,0v9.7l1.9-1.9H52.4c-2.6,0-5.5-0.4-8,0h-0.3l1.9,1.9v-9.7
	l-1.9,1.9h178.5c8.2,0,16.6,0.3,24.8,0h0.3c1,0,1.9-0.8,1.9-1.9S248.8,98.9,247.8,98.9z"/>
<rect x="121.3" y="253.3" class="st11" width="50.6" height="5"/>
<path class="st1" d="M172.6,258.8h-51.8v-6.1h51.8V258.8z M121.9,257.6h49.5v-3.8h-49.5L121.9,257.6z"/>
<rect x="121.3" y="262.6" class="st11" width="50.6" height="4.1"/>
<path class="st1" d="M172.6,267.3h-51.8V262h51.8V267.3z M121.9,266.2h49.5v-3h-49.5L121.9,266.2z"/>
<path class="st0" d="M118.5,223.8c-2.9-5.4-6.1-15.4-14.1-15.3c-8.9,0.2-10.2,9.5-13.4,15.3c-1.9,3.4-3.8,7.1-3.5,10.9
	c0.3,5,5.8,8.6,11,8.6h12.4c5.1,0,10.6-3.5,11-8.6C122.2,230.9,120.3,227.2,118.5,223.8z"/>
<path class="st1" d="M120.2,222.8c-3.4-6.3-6.4-15.6-14.8-16.2c-4-0.3-7.8,1.5-10.2,4.7c-2.3,2.9-3.4,6.5-4.9,9.8
	c-2.1,4.7-5.4,9.4-4.4,14.8c0.9,4.5,5,7.7,9.3,8.8c2.9,0.7,6,0.4,8.9,0.4h6.5c4.6,0.1,8.9-1.9,11.7-5.5
	C125.9,234.3,122.9,227.9,120.2,222.8c-1.2-2.2-4.5-0.2-3.3,2c2,3.7,5,9,2,12.9c-2,2.6-5.3,3.6-8.5,3.6H98.8c-3.2,0-6.8-1.4-8.5-4.2
	c-2.5-4.2,0.9-9.3,2.8-13c2.4-4.8,3.9-12.7,10.3-13.5c7.7-1,10.6,9,13.4,14.3C118,227,121.3,225,120.2,222.8z"/>
<rect x="88.2" y="249.2" class="st2" width="33.1" height="22.2"/>
<path class="st1" d="M121.3,269.4H88.2l1.9,1.9v-22.2l-1.9,1.9h33.1l-1.9-1.9v22.2c0,2.5,3.9,2.5,3.9,0v-22.2
	c-0.1-1-0.9-1.8-1.9-1.9H88.3c-1,0.1-1.8,0.9-1.9,1.9v22.2c0.1,1,0.9,1.8,1.9,1.9h33.1C123.8,273.3,123.8,269.4,121.3,269.4z"/>
<path class="st0" d="M200.7,224.3c-2.9-5.3-6.1-15-14.1-14.9c-8.9,0.2-10.2,9.2-13.4,14.9c-1.9,3.3-3.8,6.9-3.5,10.6
	c0.3,4.9,5.8,8.3,11,8.3h12.4c5.1,0,10.6-3.4,11-8.3C204.5,231.2,202.6,227.7,200.7,224.3z"/>
<path class="st1" d="M202.4,223.3c-3.5-6.3-6.5-15.4-15-15.8c-4-0.2-7.8,1.6-10.1,4.8c-2.3,3-3.4,6.6-5.1,10
	c-2.2,4.4-5.4,9.2-4.1,14.4c1.1,4.4,5.5,7.4,9.7,8.2c2.8,0.3,5.7,0.4,8.5,0.3h6.5c4.4,0,8.9-1.7,11.6-5.4
	C208.2,234.6,205.1,228.3,202.4,223.3c-1.2-2.2-4.6-0.2-3.3,2c1.9,3.5,5,8.5,2.2,12.3c-1.9,2.6-5.3,3.7-8.4,3.7h-11.6
	c-3.1,0-6.5-1.1-8.4-3.7c-2.8-3.8,0.3-8.8,2.2-12.3c2.6-4.8,4-12.8,10.4-13.8c7.8-1.3,10.8,8.5,13.7,13.8
	C200.2,227.5,203.6,225.5,202.4,223.3z"/>
<rect x="170.4" y="249.2" class="st2" width="33.1" height="22.2"/>
<path class="st1" d="M203.6,269.4h-33.1l1.9,1.9v-22.2l-1.9,1.9h33.1l-1.9-1.9v22.2c0,2.5,3.9,2.5,3.9,0v-22.2
	c-0.1-1-0.9-1.8-1.9-1.9h-33.1c-1,0.1-1.8,0.9-1.9,1.9v22.2c0.1,1,0.9,1.8,1.9,1.9h33.1C206.1,273.3,206.1,269.4,203.6,269.4z"/>
<path class="st1" d="M102.8,235.8v13.3c0,2.5,3.9,2.5,3.9,0v-13.3C106.7,233.3,102.8,233.3,102.8,235.8z"/>
<path class="st1" d="M185.1,235.8v13.3c0,2.5,3.9,2.5,3.9,0v-13.3C188.9,233.3,185.1,233.3,185.1,235.8z"/>
</svg>
