<svg id="Layer_1" data-name="Layer 1" xmlns="http://www.w3.org/2000/svg" viewBox="0 0 3098 2400"><defs><style>.cls-1{fill:#d6f4f4;}.cls-10,.cls-11,.cls-14,.cls-2{fill:#fff;}.cls-2{opacity:0.3;}.cls-11,.cls-14,.cls-2,.cls-26,.cls-3,.cls-40,.cls-42,.cls-43{isolation:isolate;}.cls-3,.cls-4,.cls-43{fill:#91d1d1;}.cls-3,.cls-30,.cls-40{opacity:0.4;}.cls-5{fill:#e3e6f4;}.cls-6{fill:#5ca6b1;}.cls-7{fill:#7ebac4;}.cls-8{fill:#4c969b;}.cls-9{opacity:0.76;}.cls-11{opacity:0.52;}.cls-12,.cls-42{opacity:0.48;}.cls-13,.cls-26,.cls-40{fill:#fefefe;}.cls-14,.cls-26{opacity:0.38;}.cls-15{fill:#66ade1;}.cls-16{fill:#521213;}.cls-17{fill:#f5785c;}.cls-18{fill:#840f20;}.cls-19{fill:#ff9e83;}.cls-20{fill:#ff8e69;}.cls-21{fill:#ef6273;}.cls-22{fill:#642425;}.cls-23{fill:#dc4652;}.cls-24{fill:#c2172a;}.cls-25{fill:#89454e;}.cls-27{fill:#095996;}.cls-28{fill:#4ca2d3;}.cls-29{fill:#197daf;}.cls-31{fill:#00bfa3;}.cls-32{fill:#008c7e;}.cls-33{fill:#35424a;}.cls-34{fill:#00d6bc;}.cls-35{opacity:0.1;}.cls-36{fill:#44ad8c;}.cls-37{opacity:0.05;}.cls-38{opacity:0.68;}.cls-39{fill:#ffba55;}.cls-41{fill:#ffa710;}.cls-42{fill:#ff6a0d;}.cls-43{opacity:0.21;}</style></defs><title>4</title><g id="_04" data-name=" 04"><path class="cls-1" d="M3889,2046.33c0,5.65-.06,11.29-.21,16.91-4.47,181.31-80.74,344.81-201.45,463.14q-8,7.88-16.31,15.47a677.25,677.25,0,0,1-61.19,49.89c-2.15,1.55-4.32,3.09-6.49,4.62q-13.17,9.29-26.79,17.93l-3.79,2.4q-15.37,9.58-31.3,18.41a670,670,0,0,1-86.87,40.19q-6.9,2.63-13.88,5.09a666.33,666.33,0,0,1-71.81,20.92,674.86,674.86,0,0,1-152.18,17.29q-25.71,0-50.94-1.91a670.14,670.14,0,0,1-112.26-18q-7.34-1.83-14.58-3.82h0c-2.8-.75-5.58-1.54-8.37-2.35a667.12,667.12,0,0,1-119.43-47.21q-4.62-2.37-9.19-4.8-24.28-12.87-47.35-27.64-23.49-15.06-45.64-32c-1.24-.93-2.48-1.88-3.7-2.83q-11.47-8.9-22.54-18.26c-3.74,6-7.52,12.05-11.39,18-.53.82-1,1.64-1.6,2.46q-14.76,22.7-30.62,44.57-5.73,7.92-11.59,15.7c-.72,1-1.45,1.93-2.19,2.9l-.27.35q-22.71,29.94-47.44,58.23c-.45.53-.91,1-1.37,1.57q-9.24,10.53-18.76,20.82l-3.73,4h0c-2.82,3-5.64,6-8.51,9l-14.2.27q-57.18,1.08-115.89,1.73-21.9.26-44,.43h-.06q-20.52.18-41.17.3-11,.08-22.07.12-35.09.15-70.52.16c-221.07,0-430.93-4.54-619.8-12.7-292.52-12.62-534.66-33.92-690-60.42q-7.06-8.78-13.92-17.73-4.35-5.64-8.6-11.33-3-3.93-5.86-7.89-6.49-8.85-12.81-17.83-19.26-27.36-36.82-55.95-5-8.21-9.94-16.51A1069.93,1069.93,0,0,1,823.44,2257.3q-9.93-39.42-16.9-80a1074.83,1074.83,0,0,1-14.46-135q-1.07-24-1.07-48.25a1081.25,1081.25,0,0,1,13.77-172.52q6.51-40.5,16-80,7.61-31.66,17.06-62.57,11.26-36.8,25-72.44A1068.53,1068.53,0,0,1,931,1463q23.37-41.16,50.22-80a1079.13,1079.13,0,0,1,108.28-132.8q28.41-29.7,59-57.17a1079.5,1079.5,0,0,1,228.15-157c2-1,4-2.07,6-3.07,5-2.55,10.15-5.07,15.24-7.54q16.14-39.06,35.21-76.51,7.38-14.5,15.18-28.77a1077.33,1077.33,0,0,1,109.48-162.78q34-41.77,72-80,8-8.12,16.29-16A1081.79,1081.79,0,0,1,1747.33,575q31.73-23.81,65.22-45.31l.71-.44q33.3-21.36,68.28-40.28a1068.9,1068.9,0,0,1,335.35-114.68,1082.73,1082.73,0,0,1,173-14.3h2.94q9.8,0,19.53.18c5.44.09,10.87.24,16.29.41q11.22.36,22.38,1,25.36,1.37,50.39,3.87A1068.82,1068.82,0,0,1,2927.32,502q8.19,4.69,16.29,9.52,9.73,5.81,19.31,11.8a1081.67,1081.67,0,0,1,230.68,194q11.67,13,22.91,26.38,10,11.79,19.54,23.91,23.19,29.16,44.3,59.93l.28.38A1071,1071,0,0,1,3468.85,1423a667.09,667.09,0,0,1,62.7,29.25c208.26,110.58,351.45,327.46,357.25,578.29Q3889,2038.39,3889,2046.33Z" transform="translate(-791 -359.99)"/><path class="cls-2" d="M2859.55,1316.67c0,693.6-489.59,1272.85-1142,1411-292.52-12.62-534.66-33.92-690-60.42q-7.06-8.77-13.92-17.73-4.35-5.64-8.6-11.33-3-3.93-5.86-7.89-6.49-8.85-12.81-17.83-19.26-27.36-36.82-55.95-5-8.2-9.94-16.51A1069.87,1069.87,0,0,1,823.44,2257.3q-9.93-39.42-16.9-80a1074.83,1074.83,0,0,1-14.46-135q-1.07-24-1.07-48.25a1081.25,1081.25,0,0,1,13.77-172.52q6.51-40.5,16-80,7.61-31.66,17.06-62.57,11.26-36.8,25-72.44A1068.53,1068.53,0,0,1,931,1463q23.37-41.16,50.22-80a1079.13,1079.13,0,0,1,108.28-132.8q28.41-29.7,59-57.17a1079.5,1079.5,0,0,1,228.15-157c2-1,4-2.07,6-3.07,5-2.55,10.15-5.07,15.24-7.54q16.14-39.06,35.21-76.51,7.38-14.5,15.18-28.77a1077.33,1077.33,0,0,1,109.48-162.78q34-41.77,72-80,8-8.12,16.29-16A1081.79,1081.79,0,0,1,1747.33,575q31.73-23.81,65.22-45.31l.71-.44q33.3-21.36,68.28-40.28a1068.9,1068.9,0,0,1,335.35-114.68,1082.73,1082.73,0,0,1,173-14.3h2.94q9.8,0,19.53.18c5.44.09,10.87.24,16.29.41q11.22.36,22.38,1,25.36,1.37,50.39,3.87C2724.37,619.33,2859.55,952.21,2859.55,1316.67Z" transform="translate(-791 -359.99)"/><path class="cls-1" d="M3549.06,1110.46a37.83,37.83,0,1,1-37.84-37.84,37.83,37.83,0,0,1,37.84,37.84Z" transform="translate(-791 -359.99)"/><path class="cls-1" d="M3640.26,1324.54a70.76,70.76,0,1,1-70.78-70.74h0a70.73,70.73,0,0,1,70.74,70.72Z" transform="translate(-791 -359.99)"/><path class="cls-1" d="M1228.87,984.6a70.75,70.75,0,1,0-20.64-97.9h0a70.3,70.3,0,0,0,19.91,97.41Z" transform="translate(-791 -359.99)"/><circle class="cls-1" cx="346.55" cy="696.24" r="37.84"/><path class="cls-3" d="M804.77,1821.55A1082.41,1082.41,0,0,0,791,1994.07q0,24.26,1.07,48.25h28v135h17.79v-135H954.78v135h17.79v-135h116.9v135h17.79V2027.75h116.91v149.58H1242V2027.75h116.91v149.58h17.78v-116.8h57.43l1.73-16c1.06-33.76,1.2-60.89-.66-66.15,0,0,2.75,3.73,6.7,10.14l8.37-77.49s7.91-8,30.16-14.45c8.81,7.27,19.65,14.22,41.44,14.22,10,0,22.23-1.45,37.63-5,0,0,20.55-6.38,17.28-22.44,81.16,6.25,67.39,46.79,78.85,116.83l-.14,66.35L1657,2075h106v102.34h49.59V1821.55Zm16-80h17.07V1679q-9.42,30.91-17,62.58ZM931,1463a1067.67,1067.67,0,0,0-68.08,143.54h91.89v135H972.6v-135h116.9v135h17.79V1592H1224.2v149.58H1242V1592h116.91v149.58h17.78V1624.79h116.92v116.79h17.79V1612.91h116.9v128.67h17.79V1639.24H1763v102.34h49.59V1463ZM823.44,2257.3A1069.78,1069.78,0,0,0,939.59,2540q4.9,8.3,9.94,16.51,17.55,28.57,36.82,55.95,6.31,9,12.81,17.83c1.94,2.65,3.89,5.27,5.86,7.89h807.52V2257.3ZM1629.77,677.36h16.28v-16Q1637.82,669.24,1629.77,677.36ZM1747.34,575H1763V677.36h49.59V529.71Q1779.08,551.19,1747.34,575ZM1557.78,757.33A1078.58,1078.58,0,0,0,1448.3,920.11h45.27v112.82h17.79V908.24h116.9v124.69h17.79V934.57h117v98.36h49.59V757.33Zm-308.46,355.56a1081,1081,0,0,0-100.84,80.21q-30.59,27.45-59,57.17v132.8h17.79v-149.6h116.91v149.6H1242v-149.6h116.91v149.6h17.78V1266.26h116.92v116.81h17.79V1254.39h116.9v128.68h17.79V1280.72H1763v102.35h49.59V1112.89Z" transform="translate(-791 -359.99)"/><path class="cls-4" d="M1812.54,677.36v80H1557.78q34-41.77,72-80Z" transform="translate(-791 -359.99)"/><path class="cls-4" d="M1812.54,1032.93v80H1249.32A1073.18,1073.18,0,0,1,1376.65,1036v.91h116.92v-4h17.79v4h116.9v-4h17.79v4h117v-4Z" transform="translate(-791 -359.99)"/><path class="cls-4" d="M1812.54,1383.07v80H931q23.37-41.16,50.22-80Z" transform="translate(-791 -359.99)"/><path class="cls-4" d="M1493.57,920.11v112.82H1382.68q7.58-3.84,15.23-7.54,16.14-39.06,35.21-76.51,7.38-14.5,15.18-28.77Z" transform="translate(-791 -359.99)"/><rect class="cls-5" x="585.65" y="672.94" width="116.91" height="3.98"/><polygon class="cls-1" points="837.26 548.25 720.35 548.25 720.35 672.94 837.26 672.94 837.26 548.25 837.26 548.25"/><polygon class="cls-5" points="837.26 672.94 720.35 672.94 720.35 676.92 837.26 676.92 837.26 672.94 837.26 672.94"/><polygon class="cls-1" points="971.95 574.58 855.05 574.58 855.05 672.94 971.95 672.94 971.95 574.58 971.95 574.58"/><polygon class="cls-5" points="971.95 672.94 855.05 672.94 855.05 676.92 971.95 676.92 971.95 672.94 971.95 672.94"/><path class="cls-1" d="M1089.47,1250.27v132.8H981.19A1079.13,1079.13,0,0,1,1089.47,1250.27Z" transform="translate(-791 -359.99)"/><polygon class="cls-4" points="433.17 873.49 316.27 873.49 316.27 1023.07 433.17 1023.07 433.17 873.49 433.17 873.49"/><polygon class="cls-1" points="567.87 873.49 450.96 873.49 450.96 1023.07 567.87 1023.07 567.87 873.49 567.87 873.49"/><polygon class="cls-4" points="702.56 906.27 585.66 906.27 585.66 1023.07 702.56 1023.07 702.56 906.27 702.56 906.27"/><polygon class="cls-1" points="837.26 894.4 720.35 894.4 720.35 1023.07 837.26 1023.07 837.26 894.4 837.26 894.4"/><polygon class="cls-1" points="971.95 920.73 855.05 920.73 855.05 1023.07 971.95 1023.07 971.95 920.73 971.95 920.73"/><path class="cls-4" d="M1763,575V677.36H1646.1v-16A1080.33,1080.33,0,0,1,1747.34,575Z" transform="translate(-791 -359.99)"/><path class="cls-6" d="M3834.61,2618c0,25-68.11,48.47-187.69,68.88-255.59,43.6-746.34,73.11-1309.76,73.11q-35.47,0-70.53-.15-54.16-.27-107.3-.86-66-.74-130.09-2c-189.06-3.74-365-10.87-520.55-20.68-72.39-4.57-140.34-9.72-203.12-15.39q-32.08-2.88-62.32-6-11.24-1.12-22.21-2.3l-5.47-.58-2-.22-5.15-.56q-10.28-1.1-20.28-2.25l-8-.91-10.16-1.18-7.21-.85-6.14-.75-8.76-1.07h-.28q-15.1-1.89-29.56-3.81-1.5-.18-3-.39l-3-.4-6-.81-11.36-1.58c-3.08-.42-6.13-.86-9.16-1.29l-4.51-.65-4-.59-9.63-1.44-1.57-.24-5.09-.77q-6.63-1-13.08-2.06l-3.47-.57-2.64-.42q-3.33-.54-6.59-1.09l-1.22-.19-1.91-.33-6.18-1-6.08-1.05c-1.69-.29-3.37-.59-5-.9l-3.92-.7-2.94-.53c-1-.18-2-.35-2.92-.54q-7.26-1.32-14.23-2.69l-4.84-.95c-2.06-.4-4.1-.82-6.11-1.22l-8-1.65c-1.92-.41-3.81-.8-5.68-1.21-.87-.18-1.73-.38-2.58-.57-1.41-.29-2.8-.61-4.18-.91q-7.77-1.72-15-3.48l-2.42-.58-2.39-.59c-1.2-.3-2.42-.59-3.6-.9l-2.93-.74c-.55-.14-1.1-.27-1.65-.42-1.66-.42-3.3-.86-4.92-1.29l-4.25-1.14q-7.37-2-14.11-4.06c-21-6.34-37.3-12.88-48.73-19.56a62.26,62.26,0,0,1-12.42-9.16c-.4-.39-.79-.79-1.18-1.21s-.93-1-1.35-1.55c-.2-.25-.4-.5-.59-.76h0a9.68,9.68,0,0,1-.67-1,16.87,16.87,0,0,1-.92-1.45,16,16,0,0,1-.76-1.49c0-.13-.12-.26-.17-.39s-.12-.26-.18-.38a6.59,6.59,0,0,1-.24-.69v-.09c-.08-.22-.14-.42-.2-.62s-.18-.65-.25-1a2.68,2.68,0,0,1-.11-.49.11.11,0,0,1,0-.08v-.37a9.79,9.79,0,0,0-.12-1c0-.31,0-.76,0-1.14v-.92a2.52,2.52,0,0,1,.07-.75h0a2.54,2.54,0,0,1,0-.39v-.11a.61.61,0,0,1,0-.19.81.81,0,0,1,.07-.4c.07-.13.1-.5.17-.74a3.18,3.18,0,0,1,.14-.53,1,1,0,0,1,.08-.28,6.28,6.28,0,0,1,.25-.73h0c.09-.25.17-.49.28-.74.21-.55.47-1.07.75-1.64.15-.31.33-.63.51-.94l.58-.95a25.69,25.69,0,0,1,2.08-2.88l.79-1c.3-.33.58-.64.89-1h0l.8-.84,1-1h0c.73-.7,1.52-1.41,2.35-2.12s1.41-1.2,2.16-1.8l1-.75,2-1.49c1.74-1.26,3.63-2.5,5.64-3.77l1.61-1c.55-.33,1.1-.67,1.68-1s1.14-.68,1.74-1l.44-.24c.14-.09.29-.17.44-.25s.6-.34.9-.49c1.2-.68,2.46-1.35,3.74-2l1.87-1,3.06-1.54c1-.51,2.12-1,3.21-1.54.53-.25,1.08-.5,1.62-.77l3.34-1.52c.57-.24,1.13-.5,1.73-.76,1.39-.62,2.82-1.25,4.29-1.86.56-.25,1.13-.48,1.7-.71.9-.38,1.82-.77,2.76-1.15.76-.3,1.52-.62,2.3-.94l1.05-.41,1-.43.82-.31c.28-.12.56-.23.84-.32l2.2-.87,5.66-2.14c2-.7,3.92-1.43,5.94-2.14,1-.35,1.93-.69,2.92-1l1.08-.38,1.08-.39c.91-.31,1.82-.61,2.74-.94l2.77-.94,2.82-.94c.94-.32,1.9-.61,2.85-.94l3.26-1h0c2.19-.7,4.43-1.42,6.69-2.12l6.9-2.12,7.12-2.11h0c1.2-.37,2.4-.72,3.63-1.07l1.63-.46,1.64-.47c1.2-.36,2.4-.69,3.61-1l1.54-.44,1.51-.42,3.91-1.06c1-.29,1.94-.55,2.93-.81.7-.2,1.4-.4,2.1-.58l2.11-.58,2.8-.73c.93-.26,1.87-.5,2.81-.75.39-.1.77-.21,1.17-.3,3.44-.91,6.93-1.8,10.47-2.71l3.73-.95q7.71-1.93,15.78-3.87c3.12-.75,6.28-1.49,9.49-2.25l3.18-.75,3.73-.86h0l7.53-1.71,3.83-.87,2-.44c.34-.08.68-.17,1-.23s.68-.16,1-.23c.85-.2,1.72-.37,2.58-.57l2.61-.58q5.54-1.21,11.19-2.42a2.52,2.52,0,0,0,.65-.14c2.74-.58,5.5-1.17,8.29-1.74l4.94-1q11.11-2.33,22.75-4.6l.73-.13,1.6-.33c.79-.14,1.55-.29,2.34-.45,4.68-.9,9.4-1.82,14.18-2.73.8-.14,1.6-.3,2.4-.45l2.4-.46,4.82-.89,4.88-.91q15.39-2.85,31.46-5.64l5.37-.93q2.7-.48,5.41-.93l8.36-1.43,5.25-.88c1.75-.28,3.52-.59,5.28-.86s3.53-.59,5.31-.89c3-.49,6-1,9-1.47l5.94-1q3-.45,6-1c1-.15,2-.3,3-.47l3-.49,5.5-.85,5.56-.87c3.69-.57,7.42-1.13,11.16-1.69q2.82-.45,5.65-.85l5.68-.86,4.26-.62,4.29-.63q4.3-.66,8.65-1.27l13.43-1.93,4.63-.64,4.57-.66h.06l11.21-1.55c4.58-.62,9.21-1.27,13.85-1.89,2.32-.31,4.65-.63,7-.93,4.66-.63,9.36-1.24,14.08-1.86,2.37-.31,4.74-.61,7.11-.93l10.73-1.37,10.82-1.35q7.23-.92,14.56-1.82l3.48-.42,3.5-.43,7-.84c2.33-.27,4.69-.57,7-.83s4.72-.57,7.11-.86l3.61-.41,3.63-.43,9.76-1.14,9.84-1.1q23.92-2.7,48.58-5.28l10.17-1.07c1.58-.15,3.18-.33,4.79-.49l2.39-.24,2.39-.26,3.78-.37,3.77-.38,15.2-1.51,6.88-.68h.75c.82-.08,1.65-.17,2.48-.24l2.47-.24,5-.47q18.12-1.74,36.57-3.41,5.92-.55,11.92-1.07l14.94-1.31,15-1.3c2.27-.19,4.55-.37,6.82-.57l6.86-.58q12.06-1,24.25-2l8.14-.66,4.08-.31c1.36-.11,2.72-.22,4.08-.31,6.53-.51,13-1,19.61-1.48l3.76-.28,3.74-.29,3.78-.27,3.77-.28,23.72-1.7,8-.55,12.11-.82c1.6-.12,3.19-.22,4.78-.31s3.18-.22,4.77-.31c2.58-.18,5.14-.34,7.71-.5l7.74-.51q7.68-.47,15.41-1h0c5.15-.33,10.31-.63,15.49-.95q11.84-.72,23.77-1.39l15.79-.89,4.14-.22,4.16-.23c2.76-.15,5.53-.31,8.32-.45q11.06-.6,22.19-1.16h1q16-.82,32.23-1.58c5-.24,10-.47,15.1-.69l9.25-.41,12.25-.52,12.26-.52,7.17-.29,7.16-.29,18.62-.7c1.37-.06,2.75-.1,4.14-.14l4.13-.16,2.25-.07c4.77-.19,9.57-.34,14.37-.52l25-.82,8.36-.25,21.3-.62,15.42-.41,2.62-.06,2.78-.08c.78,0,1.53,0,2.3,0l11.25-.28,7.36-.17,7.36-.17q13.05-.29,26.14-.53h0q17.05-.33,34.22-.59h1.8c5.16-.09,10.32-.17,15.51-.23,5.76-.08,11.52-.14,17.29-.21,3.72-.06,7.44-.09,11.17-.12h2.7c4.63-.06,9.27-.09,13.92-.13s9.26-.07,13.91-.09c4.36-.05,8.72-.07,13.06-.1h65.86l18.29.07h2.91c6.14,0,12.29.07,18.41.12l19.09.15h2.41q9.93.09,19.79.22,10.29.1,20.54.26t20.45.33q10.23.15,20.38.36c5.81.11,11.62.21,17.4.34l17.34.38,11.52.27,11.5.29,8.25.2a17.84,17.84,0,0,1,1.79.06h1.44l5.61.14,6.95.2,10.28.31c1.67,0,3.34.08,5,.14l5.36.17h3.19l7.71.25,1.48.05,2.31.07,10.36.33,5,.18,3.44.12,1.53.05,5.2.19,6.07.22,4.55.16h1.06l4.67.17h1.19l5.86.22h.39c2.1.07,4.2.14,6.29.23l9.58.38,5.38.22,5.75.23,5,.21c2.05.1,4.09.18,6.13.26,4.3.19,8.59.36,12.89.56q4.61.2,9.21.42c1.71.06,3.4.15,5.1.23h.47l4.78.22c3.22.14,6.44.29,9.64.46h.3l12.61.61,3.12.15h.08c1,.06,2,.1,3,.14.51,0,1,.06,1.49.08l8.91.46c1.72.09,3.42.19,5.13.26l1,0,15,.79,5.64.31,9.26.51,1.51.08h.39l6.56.37c2.13.14,4.25.24,6.38.36l6.58.38,4.63.27,3.53.21,4,.24,10.18.61,20.6,1.28h.93c3.14.19,6.28.39,9.4.6l1.43.08,10.12.67,10.42.7c2.27.14,4.54.31,6.79.46l1.92.13,1.68.11,10.33.72c1,.07,1.89.13,2.83.21l4,.28c1.16.08,2.32.16,3.46.26l1.62.11,1.6.1c1,.08,2.07.16,3.1.22l1.71.13,2.23.17,4.36.32h0l2.74.2,6.65.5c2.21.16,4.42.31,6.61.49a3.73,3.73,0,0,1,.82.06h.31c.93.08,1.86.15,2.8.21,2.07.17,4.13.32,6.2.47l8.08.63c2.75.23,5.51.44,8.25.65l2.3.19,1.3.1h.22l4,.33c2.75.21,5.47.44,8.2.66l7.77.64,9.93.82,9.88.83c6.29.53,12.56,1.06,18.79,1.63l12.77,1.12,12.71,1.15,12.61,1.16,10.64,1,18.89,1.82,7.84.76,1.94.19q11.35,1.11,22.58,2.27l9.13.95,9.07,1,4.17.43,1.23.13,2.91.3,3.89.42c1.94.2,3.89.41,5.82.63,1.36.14,2.7.28,4.06.44l4.87.53,8.88,1,8.86,1,8.78,1,5.18.6,5.16.59,10.12,1.18q20.15,2.36,39.73,4.79h0l3.78.47,4.55.56,8.26,1,4.23.54,2,.25,8.54,1.11,3.8.5c2,.27,4.09.53,6.13.81l8.12,1.07q16.18,2.17,31.94,4.38l15.64,2.22c2.58.39,5.16.77,7.73,1.12l7.69,1.12,15.19,2.28,2.59.38,4.59.71,7.78,1.19,7.39,1.15,7.34,1.16.91.14,8.17,1.29,5,.81.47.08,7.16,1.17q13.7,2.25,26.94,4.53c1.29.21,2.56.44,3.82.66l4.14.71,2.07.36,4.37.76,1.24.23,1.22.22,6.92,1.23,11.6,2.1,3.83.71,4.33.8q10.2,1.89,20.08,3.81l3.31.64,6.23,1.22q8.52,1.68,16.81,3.37c2.77.56,5.5,1.13,8.23,1.7q5.57,1.14,11,2.32l9,1.93,3.91.85q7.78,1.71,15.31,3.43,33,7.52,61,15.14,19.86,5.4,37,10.81C3799.29,2579.92,3834.61,2600,3834.61,2618Z" transform="translate(-791 -359.99)"/><path class="cls-7" d="M3636.8,2533.69c-30.9,30.5-103.75,62.46-224.32,92.48q-19.91,5-41.56,9.84c-216.05,48.68-563.35,91.06-1067.67,111.79l-19.87.8-14.82.58c-36.86,1.42-73.15,6.7-109.23,9.81q-66-.73-130.09-2c-189.06-3.74-365-10.87-520.55-20.68-72.39-4.57-140.34-9.72-203.12-15.39q-32.08-2.88-62.32-6-11.24-1.12-22.21-2.3l-5.47-.58-2-.22-5.15-.56q-10.28-1.1-20.28-2.25l-8-.91-10.16-1.18-7.21-.85-6.14-.75-8.76-1.07h-.28q-16.69-2.07-32.58-4.2-15.12-2-29.51-4.08l-4.51-.65-13.6-2-1.57-.24-5.09-.77q-6.63-1-13.08-2.06c-2.06-.33-4.09-.65-6.11-1q-3.33-.54-6.59-1.09l-3.13-.52-6.18-1-6.08-1c-1.69-.29-3.37-.59-5-.9l-3.92-.7-2.94-.53c-1-.18-2-.35-2.92-.54q-7.26-1.32-14.23-2.69l-4.84-.95c-2.06-.4-4.1-.82-6.11-1.22l-8-1.65c-1.92-.41-3.81-.8-5.68-1.21l-6.76-1.48q-7.77-1.72-15-3.48l-2.42-.58q-5.43-1.3-10.57-2.65c-1.66-.42-3.3-.86-4.92-1.29l-4.25-1.14q-7.37-2-14.11-4.06,19.43-7,41.24-14.25h0q28.7-9.49,61.39-19.28,19.34-5.77,40-11.59h0q7-2,14.13-4,26.52-7.37,55-14.79C1318.15,2545,1587.37,2492,1895,2450.9h0c71.7-9.58,145.5-18.5,220.94-26.63h.15c.78,0,1.53,0,2.3-.05,3.75-.09,7.5-.2,11.25-.28l7.36-.17,3.14-.08,4.22-.09q13-.29,26.14-.53h0q17.05-.33,34.22-.59h1.8c5.18-.1,10.32-.18,15.51-.23,5.76-.08,11.52-.14,17.29-.21,3.72-.06,7.44-.09,11.17-.12h2.7c4.63-.06,9.27-.09,13.92-.13s9.26-.07,13.91-.09c4.36,0,8.72-.07,13.06-.1h65.86l18.29.07h2.91c6.14,0,12.29.07,18.41.12l19.09.15h2.41q20.25.2,40.33.48,29.29.4,58.23,1,20.26.4,40.36.94l8.25.2a17.84,17.84,0,0,1,1.79.06c2.35,0,4.71.12,7,.18l7,.2,10.28.31c1.67,0,3.34.08,5,.14,2.28.06,4.55.14,6.83.21h1.72c3.08.1,6.13.19,9.19.3l2.31.07,10.37.34,4.95.17,3.44.12,1.53.05,5.2.19,6.07.22,4.55.16h1.06l4.67.17h.94l1.82.07c1.48,0,2.95.11,4.41.16h.08q3.24.11,6.48.24l9.58.38,11.13.45,5,.21c2.05.1,4.09.18,6.13.26,4.3.19,8.59.36,12.89.56q4.61.19,9.21.42c1.71.06,3.4.15,5.1.23h.47l4.78.22c3.22.14,6.44.29,9.64.46h.3q6.32.29,12.61.61l3.12.15h.08c2.57.12,5.14.25,7.69.4,1.92.08,3.83.19,5.74.28,1.72.09,3.42.19,5.13.26l16,.84,5.64.31,9.26.51,1.51.08h.39l6.56.37,6.38.36c2.2.14,4.38.26,6.58.38l4.63.27,3.53.21,4,.24,10.18.61,20.6,1.28h.47l9.86.64,1.43.08,10.12.67,10.42.7c2.27.14,4.54.31,6.79.46l1.92.13,1.68.11c4.4.31,8.79.61,13.16.93l4,.28c1.16.08,2.32.16,3.46.26l1.62.11,6.41.45,2.23.17,4.36.32h0l5.37.39,4,.31c2.21.16,4.42.31,6.61.49a3.73,3.73,0,0,1,.82.06h.31c.93.08,1.86.15,2.8.21l22.53,1.75,2.3.19,1.3.1,4.21.34c2.75.21,5.47.44,8.2.66l7.77.64,9.93.82,9.88.83c6.29.53,12.56,1.06,18.79,1.63l12.77,1.12,12.71,1.15,12.61,1.16,10.64,1,18.89,1.82,7.84.76q12.34,1.22,24.52,2.46l9.13,1,9.07,1,4.17.43,1.23.13q6.33.66,12.62,1.35c1.36.14,2.7.28,4.06.44q6.9.74,13.75,1.51l8.86,1,8.78,1,5.18.6,5.16.59,10.12,1.18q20.14,2.35,39.73,4.79c1.28.15,2.56.31,3.83.48l4.55.56c4.18.53,8.35,1.05,12.49,1.59l2,.25c2.85.37,5.71.73,8.54,1.11l3.8.5q7.17.93,14.25,1.88,16.18,2.18,31.94,4.38l15.64,2.22,15.42,2.24,15.19,2.28c5,.75,10,1.52,15,2.28l7.39,1.15,7.34,1.16.91.14,13.13,2.1.47.08,7.16,1.17q13.7,2.25,26.94,4.53l8,1.37,2.07.36,5.61,1,1.22.22,6.92,1.23,11.6,2.1q4.11.75,8.16,1.51,10.2,1.89,20.08,3.81,13.47,2.59,26.35,5.23c2.77.56,5.5,1.13,8.23,1.7q5.57,1.14,11,2.32l9,1.93,3.91.85Q3629.27,2532,3636.8,2533.69Z" transform="translate(-791 -359.99)"/><path class="cls-4" d="M3191.93,2523c0,78.42-670.42,142-1497.44,142-271.41,0-525.93-6.85-745.44-18.82q-40.8-2.22-79.94-4.68a35.18,35.18,0,0,1-22.46-9.79c-.4-.39-.79-.79-1.18-1.21s-.92-1-1.34-1.54l-.6-.77h0a11.7,11.7,0,0,1-.68-1,16.77,16.77,0,0,1-.91-1.45c-.27-.48-.53-1-.75-1.48-.12-.26-.24-.52-.34-.78s-.19-.46-.26-.69v-.09a5,5,0,0,1-.19-.63,5.89,5.89,0,0,1-.26-1,2.78,2.78,0,0,1-.11-.5v-.07a2.32,2.32,0,0,1-.07-.38,13.39,13.39,0,0,1-.18-2.19V2617a2.45,2.45,0,0,1,.07-.74h0a4.29,4.29,0,0,1,.07-.5v-.19a1.77,1.77,0,0,1,.08-.4q.06-.37.15-.75a2.16,2.16,0,0,1,.15-.52c.05-.17.05-.19.08-.28.07-.25.15-.5.24-.73h0c.09-.25.18-.49.28-.74.21-.55.47-1.08.74-1.64.16-.31.34-.62.52-.95s.38-.62.57-1a32.2,32.2,0,0,1,2.08-2.87l.81-1,.88-1h0c.28-.28.52-.54.8-.83l1-1c.74-.7,1.52-1.42,2.35-2.13s1.42-1.2,2.17-1.79l1-.76c.65-.49,1.32-1,2-1.49,1.75-1.25,3.63-2.5,5.65-3.77.53-.33,1.06-.67,1.61-1s1.1-.68,1.68-1,1.14-.68,1.74-1l.88-.5.9-.5c1.21-.67,2.46-1.34,3.74-2,.61-.33,1.24-.64,1.87-1l3.06-1.55c1-.51,2.12-1,3.21-1.53l1.63-.77,3.32-1.52,1.73-.77c1.41-.62,2.82-1.25,4.3-1.86.56-.25,1.12-.48,1.69-.71l2.77-1.15,2.3-.93,2.1-.84.82-.32.84-.33c.72-.28,1.44-.57,2.2-.85,1.84-.71,3.74-1.42,5.67-2.15s3.91-1.43,5.92-2.14l2.93-1c.71-.26,1.44-.51,2.16-.75.91-.33,1.82-.63,2.74-.94,1.83-.67,3.7-1.3,5.59-1.89l2.86-.93c1-.31,2.16-.7,3.25-1.07h0l6.7-2.12c2.26-.7,4.56-1.41,6.9-2.11l7.11-2.12h0l3.64-1.06c1.07-.32,2.17-.62,3.27-.93l3.61-1,3.06-.85c1.28-.36,2.58-.73,3.9-1.08l2.93-.8c1.39-.39,2.8-.77,4.22-1.15,1.84-.49,3.71-1,5.6-1.49l11.65-3,3.71-.93q7.72-1.93,15.79-3.88c4.17-1,8.39-2,12.7-3q7.41-1.72,15.08-3.44l2-.46,2-.44,2.59-.58,2.61-.58c3.69-.82,7.42-1.61,11.19-2.41l.65-.15,8.28-1.74,4.94-1q11.15-2.3,22.77-4.58l2.32-.47,2.34-.46c4.68-.91,9.4-1.82,14.19-2.73l4.79-.89c1.6-.3,3.21-.62,4.83-.91l4.87-.91q15.39-2.85,31.46-5.65l10.79-1.84,8.35-1.43,5.25-.89,5.28-.87,5.31-.88,9-1.47c2-.33,4-.65,6-1l6-1,6.07-1,5.5-.87,5.55-.86c3.69-.57,7.42-1.15,11.16-1.71l11.33-1.69,8.55-1.27c2.87-.43,5.75-.84,8.65-1.26q6.67-1,13.44-1.92c3.07-.43,6.16-.88,9.25-1.3l11.21-1.56,13.86-1.89,7-.93c4.66-.63,9.36-1.24,14.09-1.86l7.1-.93,21.55-2.73q7.23-.92,14.56-1.8c2.31-.29,4.64-.58,7-.85l7-.86,7-.83,7.11-.84,3.61-.42,3.63-.42,9.76-1.14,9.84-1.1q23.92-2.71,48.58-5.3l10.17-1.06,4.78-.5,4.8-.48c1.25-.11,2.51-.24,3.77-.37l3.77-.39,15.19-1.51,6.89-.68h.74l5-.5,5-.46q18.1-1.74,36.56-3.41l11.93-1.07,14.94-1.31c5-.44,10-.86,15-1.29l13.67-1.15,24.26-2c2.72-.2,5.42-.42,8.14-.63l8.16-.64c6.53-.51,13-1,19.62-1.48l7.51-.56c1.26-.1,2.51-.18,3.76-.29s2.52-.18,3.77-.27q15.75-1.15,31.68-2.24,6-.42,12.1-.81c1.59-.11,3.18-.23,4.78-.33s3.18-.22,4.77-.31l7.71-.51c2.58-.17,5.15-.34,7.74-.49l15.4-1h0l15.49-.95q11.83-.72,23.76-1.39l15.8-.88,4.15-.24,12.46-.67,22.21-1.16h1q16-.81,32.23-1.57c8.1-.38,16.2-.74,24.35-1.09l24.53-1q7.14-.3,14.31-.57,9.29-.37,18.62-.71l4.14-.15,4.14-.16,2.23-.08c4.79-.18,9.58-.33,14.38-.5l25-.82,8.37-.26,21.29-.63,15.42-.4,5.25-.13h.17c.75,0,1.51,0,2.27-.06l11.26-.28,14.73-.34q13-.29,26.13-.53h0q17-.33,34.22-.6c5.76-.07,11.53-.17,17.31-.24s11.52-.15,17.29-.21q5.58-.08,11.17-.12h2.7q6.95-.09,13.91-.13l13.93-.1q13.5-.09,27.07-.14,14.46-.06,29,0,83.7,0,165.13,1.56,17.43.33,34.74.73l11.53.27,11.49.29,11.48.3,22.84.65,5,.14c1.8.07,3.58.12,5.36.17h1.8l9.1.29,1.47.05,22.61.75,5.2.19,6.07.22,11.22.41,6.11.22h.39c2.11.07,4.2.14,6.29.23l9.58.38,5.38.22,5.75.24,5,.2c2,.1,4.08.17,6.12.26l12.88.56c3.08.13,6.15.28,9.22.42l5.56.25,4.79.22c3.22.14,6.43.3,9.64.45l12.91.63,10.9.54,5.73.29,5.13.26,1,0,15,.79,5.64.32,9.26.5,1.51.08h.39l6.56.36,6.37.36,6.59.38,4.63.27,3.54.21,4,.24,10.18.61,20.6,1.28.93.07q4.71.29,9.41.6l1.42.09,10.12.66,10.41.7,6.8.46,1.93.13,1.66.12,10.34.71,6.83.49,3.46.25c3.43.24,6.85.48,10.26.74l4.35.31c.94.07,1.86.15,2.79.21l2.62.18,10.64.81a3.17,3.17,0,0,1,.81.07l2.19.15,7.12.55,8.07.62,8.26.65,2.3.18,1.3.11h.22q6.12.48,12.19,1c2.6.21,5.19.41,7.78.63l9.92.82,9.88.84C3138.35,2475.5,3191.93,2500.84,3191.93,2523Z" transform="translate(-791 -359.99)"/><path class="cls-1" d="M1904.6,2475.53c0,40.69-87.5,77.39-227.71,103.27-130,24-305.35,38.72-498.25,38.72-43.74,0-86.57-.75-128.17-2.2-71.54-2.5-139.48-7.06-202.12-13.32.73-.7,1.52-1.41,2.35-2.13.68-.59,1.41-1.2,2.16-1.8l1-.75,2-1.49c1.74-1.26,3.63-2.5,5.64-3.77l1.61-1c.55-.33,1.1-.67,1.68-1s1.14-.68,1.74-1c.28-.16.58-.34.88-.5s.6-.34.9-.49c1.2-.68,2.46-1.35,3.74-2l1.87-1,3.06-1.54c1-.51,2.12-1,3.21-1.54.53-.25,1.08-.5,1.62-.77,1.1-.49,2.2-1,3.34-1.52.57-.24,1.13-.5,1.73-.76,1.39-.62,2.82-1.25,4.29-1.86.56-.25,1.13-.48,1.7-.71.9-.38,1.82-.77,2.76-1.15.76-.3,1.52-.62,2.3-.94l2.1-.83.82-.32c.28-.12.56-.23.84-.32l2.2-.87,5.66-2.14c2-.7,3.92-1.43,5.94-2.14,1-.35,1.93-.69,2.92-1,.71-.26,1.44-.5,2.16-.76.91-.32,1.82-.62,2.74-.93,1.83-.67,3.7-1.3,5.59-1.89.94-.33,1.9-.62,2.86-.93l3.25-1.07h0c2.19-.7,4.43-1.42,6.69-2.12l6.9-2.12,7.12-2.11h0l3.64-1.06c1.06-.32,2.16-.62,3.26-.93l3.61-1c1-.29,2-.58,3-.85l3.91-1.07c1-.29,1.94-.55,2.93-.81,1.4-.4,2.8-.77,4.22-1.15,1.85-.49,3.72-1,5.6-1.49,3.82-1,7.69-2,11.64-3l3.73-.95q7.71-1.93,15.78-3.87c4.17-1,8.39-2,12.7-3q7.4-1.73,15.08-3.45l2-.44c.67-.14,1.36-.31,2-.45l2.58-.58,2.61-.58q5.54-1.22,11.19-2.42a2.52,2.52,0,0,0,.65-.14l8.29-1.74,4.94-1q11.12-2.3,22.75-4.59c.79-.15,1.57-.3,2.33-.47s1.55-.29,2.34-.45c4.68-.9,9.4-1.82,14.18-2.73l4.8-.9,4.82-.9,4.88-.91q15.39-2.85,31.46-5.64,5.35-.93,10.79-1.85l8.35-1.43c1.74-.3,3.49-.58,5.25-.89s3.52-.59,5.28-.86,3.53-.59,5.31-.89l9-1.47,5.94-1q3-.45,6-1c2-.37,4-.62,6.06-.94l5.5-.87,5.56-.87c3.69-.57,7.42-1.13,11.16-1.69s7.53-1.14,11.33-1.7c2.83-.42,5.69-.85,8.55-1.26s5.75-.86,8.65-1.27l13.43-1.93c3.08-.42,6.17-.86,9.26-1.3l11.21-1.55c4.58-.62,9.21-1.27,13.85-1.89,2.32-.31,4.65-.63,7-.93,4.66-.63,9.36-1.24,14.08-1.86l7.11-.93q10.68-1.37,21.55-2.72,7.23-.92,14.56-1.82c2.31-.28,4.64-.57,7-.84l7-.85c2.34-.28,4.69-.57,7-.83s4.72-.57,7.11-.86l3.61-.41,3.63-.42c3.24-.37,6.5-.76,9.76-1.15l9.84-1.1q23.92-2.7,48.58-5.28l10.17-1.07c1.58-.15,3.18-.33,4.79-.49l4.78-.48,3.78-.39,3.77-.38,15.2-1.51,6.88-.68h.75l5-.49,5-.47q18.12-1.74,36.57-3.41,5.93-.55,11.92-1.07l14.94-1.31c5-.44,10-.86,15-1.29,4.55-.38,9.1-.76,13.68-1.16q12.06-1,24.25-2l8.14-.64c2.71-.21,5.45-.44,8.16-.64,6.53-.51,13-1,19.61-1.48l7.53-.56c1.25-.11,2.5-.18,3.75-.28l3.77-.28q15.75-1.16,31.67-2.24l12.11-.82,4.78-.32c1.59-.11,3.18-.22,4.77-.31,2.58-.18,5.14-.34,7.71-.5l7.74-.51q7.68-.46,15.41-1h0c5.15-.33,10.31-.63,15.49-.95q11.84-.72,23.77-1.39l15.79-.89,4.14-.22,12.48-.68h0a105.72,105.72,0,0,1,16.7,17.26h0a58.55,58.55,0,0,1,6,9.84A35,35,0,0,1,1904.6,2475.53Z" transform="translate(-791 -359.99)"/><path class="cls-8" d="M2393,2577.39c-162.19,0-317.29,1.49-460,4.23h0c-475.91,9.15-813.37,32-813.37,58.84,0,21.5,217.3,40.49,549.08,51.88,165.33-24.27,268.51-58.68,268.51-96.85a23.05,23.05,0,0,0-.9-6.23,23.05,23.05,0,0,1,.9,6.23c0,38.17-103.19,72.58-268.5,96.85,205.61,7.06,455.18,11.18,724.25,11.18,703.23,0,1273.33-28.23,1273.33-63.06S3096.25,2577.39,2393,2577.39Z" transform="translate(-791 -359.99)"/><path class="cls-3" d="M3596.27,1649.06a39.73,39.73,0,0,0-28.87-12.63h-35.85V1452.2a672.17,672.17,0,0,0-62.7-29.25c-2.64-220.71-71.75-425.46-188.23-595.13V939.65a110.71,110.71,0,0,0,75.87,105.08l2.16.68v34.31a248.6,248.6,0,0,0-45.45,12.51l8.11-19.54L3248,1042.32l-40.22-16.65-37.7-15.6-15.53,37.5a170.44,170.44,0,0,0-37.21,13c-2.84,1.37-5.55,2.82-8.14,4.32-21.82,12.57-40.1,29-62.07,40.23-2,1-4,1.94-6,2.84H2735.2a2.19,2.19,0,0,0-2.2,2.18h0v31l-87.68-42.89-46.9-23a69.72,69.72,0,0,0-28.33-31.7,91.92,91.92,0,0,0,38.79-67.31l8.44-96.46h0l1.66-1.14c39.9-26.8,28.06-86.43,3.08-119.55A112.51,112.51,0,0,0,2610.45,746c-32.79-31.6-81.71-44.1-126.3-40.7-29.42,2.24-57.55,15-80.47,34.1-6.44-4.59-13.23-7-20.26-7-40.81,0-73.91,82.93-73.91,185.24,0,79.38,19.93,147.09,47.93,173.45a238.87,238.87,0,0,0-86.23,180.47l-3.54,244.77h0l-1.74,120.1h-155c-22.55,0-40.83,19.32-40.83,43.14a44.27,44.27,0,0,0,12,30.49,39.62,39.62,0,0,0,28.87,12.63h36.78v839.16h56a30.68,30.68,0,0,0-30.55,30.67v17.28a30.68,30.68,0,0,0,30.66,30.66h1316c4.61,0,8.44-1.45,8.44-3.2v-75.41h2.33V1722.69h36.77c22.55,0,40.84-19.3,40.84-43.12A44.24,44.24,0,0,0,3596.27,1649.06Zm-572.1-126.51h51.51a8.69,8.69,0,1,0,0-17.38h-27.34l89.09-64v81.56h-113.5Zm-326.62-190.63h5.15v-52.2H2733v84c-1.27,0-2.52,0-3.8.1l-31.65,1.92Zm0,162.8,39.39-3.56a63.66,63.66,0,0,0,50.35-33.25l1.06.23a194.26,194.26,0,0,0,54.49,3.39l36.66,50.18a94,94,0,0,0,9.42,11H2626.2l-1.11-21.44c9.4-.85,19-1.71,28.55-2.59l7.5-.68v22.14h36.41Zm-41.54-215v52.2h5.13V1368l-2.62.15-38.93,2.38-.77-30.65-2.07.12-3.11-60.27Zm-213-252.56c1.39.41,2.78.81,4.18,1.17,1.79,2.09,3.7,4.09,5.67,6v8.43q-8.52,2.12-16.79,4.81a210,210,0,0,0,7-20.41Zm837.3-199.72q-21.12-30.75-44.3-59.93v1a61.29,61.29,0,0,0,44.35,58.93Z" transform="translate(-791 -359.99)"/><g class="cls-9"><path class="cls-4" d="M2962.92,523.25V970.74h-573V360h2.94q9.79,0,19.53.17c5.45.1,10.87.25,16.29.42q11.22.36,22.38,1l6.55.37,3.49.22q10.09.63,20.13,1.45l6.68.56,4.46.4c1.58.14,3.15.28,4.72.45l4.6.44h0l2.87.3,4.51.48,6,.66q8.45.94,16.86,2l7.33,1q4.28.57,8.54,1.2l5.73.84h.27c1.88.29,3.76.57,5.63.87l5.61.88c3.77.59,7.54,1.23,11.31,1.88,1.45.24,2.9.51,4.36.76.68.11,1.34.23,2,.36l4.68.84,1.63.29c3.44.64,6.89,1.28,10.32,2,.34.06.68.12,1,.2l3.7.73c3.7.73,7.38,1.49,11.07,2.26l5.51,1.17,5.51,1.21a3.08,3.08,0,0,1,.73.16c1.27.27,2.54.56,3.81.85l1,.22,4.58,1.05,4.57,1.06L2650,391c1.44.34,2.87.7,4.31,1.06l3.38.85c1,.24,2,.5,3,.76l7.49,1.94c1.47.39,3,.78,4.44,1.19s3,.78,4.44,1.2l8.84,2.45c1,.27,2,.55,2.93.84,2,.56,3.93,1.12,5.87,1.69,2.89.83,5.78,1.69,8.65,2.56l8.16,2.48.47.16c2.08.63,4.14,1.29,6.21,1.94,1.09.34,2.17.68,3.27,1,1.59.5,3.19,1,4.78,1.54l2.67.88c1.91.62,3.81,1.26,5.71,1.89q9.08,3,18.06,6.22c2.44.86,4.88,1.74,7.31,2.62q7.22,2.61,14.39,5.34,2.7,1,5.4,2.07l3.72,1.44q5.34,2.07,10.64,4.22l3.47,1.4q13.66,5.55,27.14,11.46l5.62,2.48h0l7.05,3.17,8.2,3.76.52.24,6,2.8,12.4,6,2.91,1.43,5.9,2.92c2.29,1.14,4.58,2.3,6.85,3.46q10.28,5.22,20.41,10.66c1.12.6,2.25,1.2,3.36,1.81q2.91,1.56,5.8,3.16c.19.1.4.21.6.33,1.9,1,3.81,2.09,5.71,3.16,1.53.84,3.05,1.7,4.56,2.55l6.76,3.85q8.19,4.69,16.29,9.52c2.38,1.42,4.74,2.84,7.1,4.29Q2956.85,519.45,2962.92,523.25Z" transform="translate(-791 -359.99)"/><path class="cls-10" d="M2943.61,511.44V949.33H2412.36V360.17c5.45.1,10.87.25,16.29.42q11.22.36,22.38,1l6.55.37,3.49.22q10.09.63,20.13,1.45l6.68.56,4.46.4c1.58.14,3.15.28,4.72.45l4.6.44h.05l2.87.3,4.51.48,6,.66q8.44.94,16.86,2l7.33,1q4.28.57,8.54,1.2l5.73.84h.27c1.88.29,3.76.57,5.63.87l5.61.88c3.77.59,7.54,1.23,11.31,1.88,1.45.24,2.9.51,4.36.76.68.11,1.34.23,2,.36l4.68.84,1.63.29c3.44.64,6.89,1.28,10.32,2,.34.06.68.12,1,.2l3.7.73c3.7.73,7.38,1.49,11.07,2.26l5.51,1.17,5.51,1.21a3.08,3.08,0,0,1,.73.16c1.27.27,2.54.56,3.81.85l1,.22,4.58,1.05,4.57,1.06L2650,391c1.44.34,2.87.7,4.31,1.06l3.38.85c1,.24,2,.5,3,.76l7.49,1.94c1.47.39,3,.78,4.44,1.19s3,.78,4.44,1.2l8.84,2.45c1,.27,2,.55,2.93.84,2,.56,3.93,1.12,5.87,1.69,2.89.83,5.78,1.69,8.65,2.56l8.16,2.48.47.16c2.08.63,4.14,1.29,6.21,1.94,1.09.34,2.17.68,3.27,1,1.59.5,3.19,1,4.78,1.54l2.67.88c1.91.62,3.81,1.26,5.71,1.89q9.07,3,18.06,6.22c2.44.86,4.88,1.74,7.31,2.62q7.22,2.61,14.39,5.34,2.7,1,5.4,2.07l3.72,1.44q5.34,2.07,10.64,4.22l3.47,1.4q13.66,5.55,27.14,11.46l5.62,2.48h0l7,3.17,8.2,3.76.52.24,6,2.8,12.4,6,2.91,1.43,5.9,2.92c2.29,1.14,4.58,2.3,6.85,3.46q10.27,5.22,20.41,10.66c1.12.6,2.25,1.2,3.36,1.81q2.91,1.56,5.8,3.16l.6.33c1.9,1,3.81,2.09,5.71,3.16,1.53.84,3,1.7,4.56,2.55l6.76,3.85Q2935.52,506.63,2943.61,511.44Z" transform="translate(-791 -359.99)"/><path class="cls-11" d="M2920.87,503.41h-.57l-6,.61-1.46.16-1.54.16-1.62.16a8.09,8.09,0,0,0-.83.09l-1.72.18h0l-2.41.25c-2.55.26-5.29.53-8.21.84-.7.06-1.41.14-2.14.22l-6.11.62-1.18.12-.8.08-4.58.47-5.7.63-2.35.24-1,.1-3.62.37-1.86.18c-1.24.14-2.51.27-3.77.39l-33.92,3.43-3.81.38-7.77.79-8,.8c-2.68.27-5.39.53-8.12.82l-6.92.69c-3.21.31-6.44.64-9.71,1h0l-6.84.68-13.93,1.39-14.2,1.41-1.43.14-10.65,1.06-32.5,3.19-21.94,2.13-14.53,1.41-3.88.38-11.61,1.11-25.94,2.48-8.54.81c-11.35,1.07-22.53,2.12-33.44,3.13l-7.23.67-9.77.89-4.41.41-3.49.31-6.9.63c-1.13.1-2.27.19-3.4.3l-6.72.61-17.67,1.55-3.85.33-8.16.7-3.18.27q-9.81.84-18.72,1.55l-5,.41-5.44.42-2.64.21-10.88.81-3,.21-4,.28-6,.39-2.59.17-7,.39-2.1.1-1.32.07h-.78c-3.13.13-5.73.2-7.76.2-3.31,0-5.06-.19-5.06-.57V934.76h498.67v-432ZM2580.15,806a11.22,11.22,0,0,1,11.23,11.21h0v31.1a11.22,11.22,0,0,1-11.22,11.22H2487.6a11.22,11.22,0,0,1-11.23-11.21h0v-31.1A11.22,11.22,0,0,1,2487.59,806h24.68v-5.84a4.22,4.22,0,0,1,4.22-4.22h34.76a4.22,4.22,0,0,1,4.22,4.22V806Zm270.77-87.25a16.84,16.84,0,0,1,16.85,16.85h0V842.7a16.84,16.84,0,0,1-16.84,16.84h-81a16.83,16.83,0,0,1-16.84-16.82V735.56a16.84,16.84,0,0,1,16.83-16.85h0ZM2614.17,655a23.14,23.14,0,0,1,23.15-23.13h11.89V596.46a9,9,0,0,1,9-9h26.86a9,9,0,0,1,9,9V631.9H2706A23.14,23.14,0,0,1,2729.18,655V836.37a23.14,23.14,0,0,1-23.13,23.13h-68.77a23.14,23.14,0,0,1-23.15-23.13Z" transform="translate(-791 -359.99)"/><path class="cls-1" d="M2927.32,501.92v.82l-6.45.67h-.57l-6,.61-1.46.16-1.54.16-1.62.16a8.09,8.09,0,0,0-.83.09l-1.72.18h0l-2.41.25c-2.55.26-5.29.53-8.21.84-.7.06-1.41.14-2.14.22l-6.11.62-1.18.12-.8.08-4.58.47-5.7.63-2.35.24-1,.1-3.62.37-1.86.18-3.77.39-33.92,3.43-3.81.38-7.77.79-8,.8c-2.68.27-5.39.53-8.12.82l-6.92.69c-3.21.31-6.44.64-9.71,1h0l-6.84.68-13.93,1.39-14.2,1.41-1.43.14-10.65,1.06-32.5,3.19-21.94,2.13-14.53,1.41-3.88.38-11.61,1.11-25.94,2.48-8.54.81c-11.35,1.07-22.53,2.12-33.44,3.13l-7.23.67-9.77.89-4.41.41-3.49.31-6.9.63c-1.13.1-2.27.19-3.4.3l-6.72.61-17.67,1.55-3.85.33-8.16.7-3.18.27q-9.81.84-18.72,1.55l-5,.41-5.44.42c-.9.07-1.77.13-2.64.21l-10.88.81-3,.21-4,.28-6,.39-2.59.17-7,.39-2.1.1-1.32.07h-.78c-3.13.13-5.73.2-7.76.2-3.31,0-5.06-.19-5.06-.57V360.59q11.22.36,22.38,1l6.55.37,3.49.22q10.09.63,20.13,1.45l6.68.56,4.46.4c1.58.14,3.15.28,4.72.45l4.6.44h.05l2.87.3,4.51.48,6,.66q8.44.94,16.86,2l7.33,1q4.28.57,8.54,1.2l5.73.84h.27c1.88.29,3.76.57,5.63.87l5.61.88c3.77.59,7.54,1.23,11.31,1.88,1.45.24,2.9.51,4.36.76.68.11,1.34.23,2,.36l4.68.84,1.63.29c3.44.64,6.89,1.28,10.32,2,.34.06.68.12,1,.2l3.7.73c3.7.73,7.38,1.49,11.07,2.26l5.51,1.17,5.51,1.21a3.08,3.08,0,0,1,.73.16c1.27.27,2.54.56,3.81.85l1,.22,4.58,1.05,4.57,1.06L2650,391c1.44.34,2.87.7,4.31,1.06l3.38.85c1,.24,2,.5,3,.76l7.49,1.94c1.47.39,3,.78,4.44,1.19s3,.78,4.44,1.2l8.84,2.45c1,.27,2,.55,2.93.84,2,.56,3.93,1.12,5.87,1.69,2.89.83,5.78,1.69,8.65,2.56l8.16,2.48.47.16c2.08.63,4.14,1.29,6.21,1.94,1.09.34,2.17.68,3.27,1,1.59.5,3.19,1,4.78,1.54l2.67.88c1.91.62,3.81,1.26,5.71,1.89q9.07,3,18.06,6.22c2.44.86,4.88,1.74,7.31,2.62q7.22,2.61,14.39,5.34,2.7,1,5.4,2.07l3.72,1.44q5.34,2.07,10.64,4.22l3.47,1.4q13.66,5.55,27.14,11.46l5.62,2.48h0l7,3.17,8.2,3.76.52.24,6,2.8,12.4,6,2.91,1.43,5.9,2.92c2.29,1.14,4.58,2.3,6.85,3.46q10.27,5.22,20.41,10.66c1.12.6,2.25,1.2,3.36,1.81q2.91,1.56,5.8,3.16l.6.33c1.9,1,3.81,2.09,5.71,3.16,1.53.84,3,1.7,4.56,2.55Z" transform="translate(-791 -359.99)"/><path class="cls-4" d="M2850.92,718.71h-20.49a16.84,16.84,0,0,1,16.85,16.85h0v107.1a16.87,16.87,0,0,1-16.85,16.85h20.49a16.86,16.86,0,0,0,16.84-16.85V735.56a16.84,16.84,0,0,0-16.83-16.85Z" transform="translate(-791 -359.99)"/><path class="cls-1" d="M2830.43,718.71h-60.49a16.84,16.84,0,0,0-16.85,16.83V842.66a16.84,16.84,0,0,0,16.85,16.85h60.49a16.87,16.87,0,0,0,16.85-16.85V735.56a16.84,16.84,0,0,0-16.85-16.85Z" transform="translate(-791 -359.99)"/><path class="cls-1" d="M2704.74,631.9h-60.49c-9.31,0-16.85,12.19-16.85,27.23V832.27c0,15,7.54,27.24,16.85,27.24h60.49c9.3,0,16.85-12.2,16.85-27.24V659.13C2721.59,644.13,2714,631.9,2704.74,631.9Z" transform="translate(-791 -359.99)"/><path class="cls-4" d="M2580.15,806h-24.68v5.84a4.2,4.2,0,0,1-4.21,4.21h-34.77a4.2,4.2,0,0,1-4.21-4.19V806h-24.69a11.22,11.22,0,0,0-11.22,11.22v31.1a11.22,11.22,0,0,0,11.21,11.23h92.57a11.22,11.22,0,0,0,11.22-11.22h0V844h-115V821.2h115v-4A11.22,11.22,0,0,0,2580.15,806Z" transform="translate(-791 -359.99)"/><path class="cls-4" d="M2551.25,795.9h-34.76a4.2,4.2,0,0,0-4.21,4.21h0V811.8a4.2,4.2,0,0,0,4.19,4.21h34.78a4.2,4.2,0,0,0,4.22-4.2h0V800.12A4.22,4.22,0,0,0,2551.25,795.9Z" transform="translate(-791 -359.99)"/><polygon class="cls-1" points="1800.38 461.17 1800.38 461.17 1685.37 461.17 1685.37 483.97 1800.38 483.97 1800.38 461.17 1800.38 461.17"/><path class="cls-4" d="M2911.41,908.09H2445.7a2.9,2.9,0,1,1-.34-5.79h466a2.9,2.9,0,0,1,0,5.79Z" transform="translate(-791 -359.99)"/><path class="cls-4" d="M2911.41,919.51H2445.7a2.9,2.9,0,1,1-.34-5.79h466a2.9,2.9,0,0,1,0,5.79Z" transform="translate(-791 -359.99)"/><g class="cls-12"><path class="cls-13" d="M2774.3,429.57l-105.13,99L2428.65,755.06l-16.29,15.34-22.47,21.16V614.28l22.47-21.15,16.29-15.34L2461.3,547l159.92-150.59,10.45-9.84,4.58,1.05,4.57,1.06,9.13,2.2c1.44.34,2.87.7,4.31,1.06l3.38.85c1,.24,2,.5,3,.76l7.49,1.94c1.47.39,3,.78,4.44,1.19s3,.78,4.44,1.2l8.84,2.45c1,.27,2,.55,2.93.84,2,.56,3.93,1.12,5.87,1.69,2.89.83,5.78,1.69,8.65,2.56l8.16,2.48.47.16c2.08.63,4.14,1.29,6.21,1.94,1.09.34,2.17.68,3.27,1,1.59.5,3.19,1,4.78,1.54l2.67.88c1.91.62,3.81,1.26,5.71,1.89q9.07,3,18.06,6.22c2.44.86,4.88,1.74,7.31,2.62Q2767.13,426.84,2774.3,429.57Z" transform="translate(-791 -359.99)"/><path class="cls-13" d="M2950.71,515.73l-.4,94.08-6.7,6.3-16.29,15.35-5.44,5.13-87.21,82.12-.46.43-81.12,76.39L2729.18,818l-7.59,7.15-36.43,34.31-45.46,42.8-6.15,5.79-6,5.63-6.16,5.8-16.19,15.24-15.47,14.57L2567,970.74H2389.89V889.39l22.47-21.15,16.29-15.34,185.52-174.7,13.23-12.45,35.94-33.85,30.81-29,91-85.73h0L2846,459.83l6,2.8,12.4,6,2.91,1.43,5.9,2.92c2.29,1.14,4.58,2.3,6.85,3.46q10.27,5.22,20.41,10.66c1.12.6,2.25,1.2,3.36,1.81q2.91,1.56,5.8,3.16l.6.33c1.9,1,3.81,2.09,5.71,3.16,1.53.84,3.05,1.7,4.56,2.55l6.76,3.85q8.19,4.69,16.29,9.52C2946,512.86,2948.35,514.28,2950.71,515.73Z" transform="translate(-791 -359.99)"/><polygon class="cls-13" points="2157.97 565.12 2157.78 610.75 2109.5 610.75 2129.53 591.89 2132.24 589.34 2152.61 570.16 2157.97 565.12"/></g></g><path class="cls-14" d="M2854.66,1154.37v260.89c0,5.64-4.85,10.22-10.83,10.22H2401.71a10.49,10.49,0,0,1-10.77-10.2V1154.37a10.5,10.5,0,0,1,10.76-10.23h442.13C2849.81,1144.14,2854.66,1148.73,2854.66,1154.37Z" transform="translate(-791 -359.99)"/><path class="cls-15" d="M2794.3,1198.16H2476.67a5.9,5.9,0,0,1,0-11.79H2794.3a5.9,5.9,0,0,1,0,11.79Z" transform="translate(-791 -359.99)"/><path class="cls-15" d="M2792.72,1232h-225a5.89,5.89,0,1,1,0-11.78h225a5.89,5.89,0,1,1,0,11.78Z" transform="translate(-791 -359.99)"/><path class="cls-15" d="M2792.72,1273.06h-62.56a5.9,5.9,0,0,1,0-11.79h62.56a5.9,5.9,0,0,1,0,11.79Z" transform="translate(-791 -359.99)"/><path class="cls-15" d="M2711.49,1273.06h-62.56a5.9,5.9,0,0,1,0-11.79h62.56a5.9,5.9,0,0,1,0,11.79Z" transform="translate(-791 -359.99)"/><path class="cls-15" d="M2630.26,1273.06H2567.7a5.9,5.9,0,0,1,0-11.79h62.56a5.9,5.9,0,0,1,0,11.79Z" transform="translate(-791 -359.99)"/><ellipse class="cls-16" cx="1482.32" cy="586.74" rx="72.66" ry="182.11"/><path class="cls-17" d="M2335.87,1987.22l49.23,515.89,178.16-23.92-21.13-16.79a174.5,174.5,0,0,1-65.75-144l17.46-409.09Z" transform="translate(-791 -359.99)"/><path d="M2382.22,2538.23l59.69-.28c2.22,0,4-3.1,4-6.89l-.1-21.67c0-1.87-.88-3.41-2-3.5-24.52-1.93-47.92-5.56-63-16.47-1.36-1-2.86.7-2.85,3.23l.19,38.74C2378.19,2535.17,2380,2538.25,2382.22,2538.23Z" transform="translate(-791 -359.99)"/><path class="cls-18" d="M2377.3,2503.11c14.27,8.45,42.88,10.48,67.77,11.5l5.51.23c35.62,1.33,51.78,25.33,97.93,25.1s102.67-30.07,102.67-30.07c0-11.19-10.48-19-30.8-18.94h-1.89c-2.63.07-5.16.12-7.6.13-17.59.09-30.85-1.86-47.63-11.91-17.22-10.31-29.22-34.08-37.63-34a4.4,4.4,0,0,0-2.65.93c-7.17,5.34-9.65,18.59-10.25,22.61h.16l1.37,13.42-3.05-.51c-4.59-.77-97.9-16.68-133.3-43.48a2,2,0,0,0-2.8.38,1.65,1.65,0,0,0-.2.31c-6.09,12-6.74,32.89-6.66,51C2368.23,2495.43,2371.65,2499.77,2377.3,2503.11Z" transform="translate(-791 -359.99)"/><path class="cls-19" d="M2229.93,1987.21l9.32,97.72,39.91,418.19,178.17-23.92-21.14-16.8a174.5,174.5,0,0,1-65.75-144l7.88-184.63,7.2-168.58,2.38-55.87-81.44,40.18Z" transform="translate(-791 -359.99)"/><path class="cls-20" d="M2229.93,1987.21l9.32,97.72a354.57,354.57,0,0,0,73.67,33,481.44,481.44,0,0,0,65.4,15.82l7.2-168.58a198.69,198.69,0,0,0-35.44-10.92,234.21,234.21,0,0,0-43.62-4.77Z" transform="translate(-791 -359.99)"/><path d="M2276.29,2538.23,2336,2538c2.22,0,4-3.1,4-6.89l-.1-21.67c0-1.87-.88-3.41-2-3.5-24.52-1.93-47.93-5.56-63-16.47-1.37-1-2.86.7-2.85,3.23l.18,38.74C2272.26,2535.17,2274.07,2538.25,2276.29,2538.23Z" transform="translate(-791 -359.99)"/><path class="cls-18" d="M2271.36,2503.11c14.28,8.45,42.89,10.48,67.77,11.5l5.52.23c35.62,1.33,51.78,25.33,97.92,25.1s102.68-30.07,102.68-30.07c-.05-11.19-10.49-19-30.8-18.94h-1.9c-2.63.07-5.16.12-7.6.13-17.58.09-30.84-1.86-47.62-11.91-17.23-10.31-29.22-34.08-37.64-34a4.4,4.4,0,0,0-2.65.93c-7.16,5.34-9.64,18.59-10.25,22.61h.17l1.37,13.42-3-.51c-4.59-.77-97.9-16.68-133.3-43.48a2,2,0,0,0-2.81.31,3,3,0,0,0-.24.38c-6.09,12-6.74,32.89-6.65,51C2262.3,2495.43,2265.72,2499.77,2271.36,2503.11Z" transform="translate(-791 -359.99)"/><path class="cls-19" d="M2905.34,1151.24c1.34,1.38,2.63,2.71,3.9,4,13.9,14.13,24.26,23.22,42.2,30.08,2.26.86,4.62,1.69,7.15,2.49,37.81,11.75,73.37-3.45,110.7-5.71l2.63-.14c29.43-1.29,68.58-24.88,70.34-57.43.71-13.12-6-25.94-15.91-34.52-33.8-29.26-92.92-21.75-131.59-2.79-2.78,1.35-5.44,2.77-8,4.23-21.45,12.37-39.43,28.54-61,39.56a118.5,118.5,0,0,1-18.47,7.63c-.47.15-1,.3-1.43.47a7,7,0,0,0-3.92,2.82C2900.2,1145,2902.86,1148.69,2905.34,1151.24Z" transform="translate(-791 -359.99)"/><path class="cls-17" d="M2905.85,1139.1a51.58,51.58,0,0,0,3.39,16.13c6.73,17,22.59,25.91,42.2,30.08,2.39.51,4.83.94,7.31,1.32,37.26,5.59,84.84-3,110.54-4.54.91-.06,1.78-.1,2.63-.14,29.43-1.29,68.58-24.88,70.34-57.43.71-13.12-6-25.94-15.91-34.52-33.8-29.26-92.92-21.75-131.59-2.79-4.18,14.7-2.57,31.09,5,44.38,2.23,3.87,5,7.63,5.66,12.05,2.17,13.76-49.92-2.15-79.7-12.64a118.5,118.5,0,0,1-18.47,7.63Z" transform="translate(-791 -359.99)"/><path class="cls-21" d="M2402,1183.79c4.76,14.26,101.7,62.43,183.1,97.46,55.51,23.9,103.79,41.68,110.68,38.44,12.22-5.74,152.57-55.48,230.46-83a52.2,52.2,0,0,0,31.85-66.6c-.24-.68-.5-1.36-.77-2h0a52.21,52.21,0,0,0-63.38-30.61L2685,1199.78l-154.25-75.47L2440,1079.87S2394,1159.82,2402,1183.79Z" transform="translate(-791 -359.99)"/><path class="cls-22" d="M2273.75,1013.43c17.23,20.6,41.26,38.14,66.67,43.1,46.71,9.12,25.34-24,45-52.19,5.88-8.43,14-17,20.3-23.07,14.21-13.67,31.89-24.91,47.81-36.55q5.25-3.86,10.53-7.68c13.47-9.74,27.07-19.33,40.86-28.62,39.24-26.35,27.6-85,3-117.54A110.72,110.72,0,0,0,2496.51,778c-32.24-31.07-80.33-43.36-124.16-40-61.78,4.71-117.8,56.37-130.32,116.31-9.94,47.54-6.19,99.44,18.82,141.07A142.35,142.35,0,0,0,2273.75,1013.43Z" transform="translate(-791 -359.99)"/><path class="cls-23" d="M2402,1183.79c4.76,14.26,101.7,62.43,183.1,97.46a1013.18,1013.18,0,0,1-54.31-156.94L2440,1079.87S2394,1159.82,2402,1183.79Z" transform="translate(-791 -359.99)"/><path class="cls-24" d="M2317.64,1077a97.85,97.85,0,0,0,152.28,3.56,68.36,68.36,0,0,0-52.21-19.39l-34.18,2.13A235,235,0,0,0,2317.64,1077Z" transform="translate(-791 -359.99)"/><rect class="cls-17" x="1550.6" y="698.74" width="108.67" height="108.67"/><path class="cls-21" d="M2537.88,2043.16H2279.07A125.08,125.08,0,0,1,2154,1918.08c0-.6,0-1.21,0-1.82l1.49-102.82.29-20.58,3.73-257.55,3.49-240.64a235.16,235.16,0,0,1,125.63-204.76,229.92,229.92,0,0,1,23.23-10.68c1.91-.76,3.85-1.48,5.78-2.19a97.88,97.88,0,0,0,129.5,23.32l.43-.28c2-1.23,3.87-2.55,5.74-3.93s3.87-3,5.72-4.56a100.1,100.1,0,0,0,10.89-11,68.29,68.29,0,0,1,20.57,45.53l1.11,21.47.6,11.56,1.65,31.94,5,96.38,8.24,159.36,8.31,160.93,5.31,102.78Z" transform="translate(-791 -359.99)"/><path class="cls-20" d="M2507.08,865.67l-12.14,138.73a90.57,90.57,0,0,1-180.79-8.9,21.61,21.61,0,0,1-8.23.84,21.91,21.91,0,0,1,3.83-43.66,21.54,21.54,0,0,1,7.7,2.14l9.19-105Z" transform="translate(-791 -359.99)"/><path class="cls-19" d="M2456.63,861.26,2444.48,1000a90.58,90.58,0,0,1-72.59,81,90.65,90.65,0,0,1-57.74-85.45,21.61,21.61,0,0,1-8.23.84,21.91,21.91,0,1,1,3.83-43.66h0a21.54,21.54,0,0,1,7.7,2.14l9.19-105Z" transform="translate(-791 -359.99)"/><path class="cls-19" d="M2671.37,1478.11c48.75,10.55,116.27-.3,142.62-33.27a53,53,0,0,0,6.45-10.21c35.5-74.31-102.7-87.65-169.1-52-14.07,7.56-24.91,17.31-30.2,29.14C2605.19,1447.4,2632.26,1469.64,2671.37,1478.11Z" transform="translate(-791 -359.99)"/><path class="cls-17" d="M2671.37,1478.11c48.75,10.55,116.27-.3,142.62-33.27-28.88-18.93-67-33.23-90.68-43.47-25-10.79-47.53-14.82-72-18.75-14.07,7.56-24.91,17.31-30.2,29.14C2605.19,1447.4,2632.26,1469.64,2671.37,1478.11Z" transform="translate(-791 -359.99)"/><path class="cls-23" d="M2235.57,1281.25l19,193.75c12.64,68.83,79.44,262.57,149.14,256.27l110.35,3.2-9.37-372.64-97.3,5.9a29.1,29.1,0,0,1-30.45-24.07l-25.3-66.78a62.7,62.7,0,0,0-71.67-51.16l-5.82.92C2239.42,1232.2,2229.21,1246.63,2235.57,1281.25Z" transform="translate(-791 -359.99)"/><polygon class="cls-24" points="1739.96 1527.29 1738.83 1527.29 1739.96 1549.29 1739.96 1527.29"/><polygon class="cls-24" points="1738.83 1527.29 1729.69 1350.56 1738.82 1527.29 1738.83 1527.29"/><path class="cls-21" d="M2217.38,1195.6l38.51,224.4a135.42,135.42,0,0,0,145.36,110.4l137.69-12.4,81.89-7.39a62.78,62.78,0,0,0,57-60.3l.06-1.53a61,61,0,0,0-64.69-63.33l-69.48,4.22-134,8.14a29.12,29.12,0,0,1-30.45-24.08L2358,1242.19c-.56-3.41-1.21-7.35-1.94-11.87l-9.14-56.34a65.66,65.66,0,1,0-129.53,21.62h0Z" transform="translate(-791 -359.99)"/><polygon class="cls-24" points="2221.71 759.5 2258.54 774.76 2335.45 806.6 2370.41 821.07 2373.75 813.02 2404.33 739.17 2332.23 709.32 2292.69 692.94 2255.62 677.6 2237.28 721.91 2221.71 759.5"/><path class="cls-22" d="M2254.37,843l63.08,111.82s88.67,2.7,123.39-86l.12.46c1.36,4.58,13.91,42,62.27,40.33l20.91-44.4-37.26-49.7-90.39-49.69Z" transform="translate(-791 -359.99)"/><path class="cls-25" d="M2317.45,954.82s88.67,2.7,123.39-86l-16.31-28.07S2417.79,923.77,2317.45,954.82Z" transform="translate(-791 -359.99)"/><circle class="cls-22" cx="1678.56" cy="604.59" r="8.84"/><circle class="cls-22" cx="1600.09" cy="604.59" r="8.84"/><path class="cls-22" d="M2365.94,945.15h.31l45.28-.94a3.58,3.58,0,1,0-.14-7.16h0l-45.28.93a3.58,3.58,0,0,0-.17,7.16Z" transform="translate(-791 -359.99)"/><path class="cls-22" d="M2491.43,945.74a3.58,3.58,0,0,0-.89-7.08l-34,1a3.59,3.59,0,0,0,.22,7.17l34-1A3.73,3.73,0,0,0,2491.43,945.74Z" transform="translate(-791 -359.99)"/><path class="cls-22" d="M2476.37,968.58a1.21,1.21,0,0,0,1.08-.68,15.46,15.46,0,0,0,0-13.66,1.19,1.19,0,1,0-2.08,1.17,13,13,0,0,1,0,11.46,1.2,1.2,0,0,0,.56,1.59A1.16,1.16,0,0,0,2476.37,968.58Z" transform="translate(-791 -359.99)"/><path class="cls-22" d="M2398.17,967.19a1.19,1.19,0,0,0,1.17-1,15.42,15.42,0,0,0-3.88-13.1,1.2,1.2,0,0,0-1.66,1.72,13.05,13.05,0,0,1,3.19,11,1.18,1.18,0,0,0,1,1.36h.22Z" transform="translate(-791 -359.99)"/><path class="cls-23" d="M2538.94,1518l81.89-7.39a62.78,62.78,0,0,0,57-60.3l.06-1.53a60.84,60.84,0,0,0-19.11-46.81c-2,8.76-6.07,17-10.61,24.85C2623.91,1468.69,2584.21,1500.92,2538.94,1518Z" transform="translate(-791 -359.99)"/><polyline class="cls-26" points="2332.23 709.32 2292.69 692.94 2335.45 806.6 2370.41 821.07 2373.75 813.02"/><path class="cls-22" d="M2402.62,1057.52h0a22.29,22.29,0,0,1-22.29-22.29h0v-13.56h44.59v13.56a22.29,22.29,0,0,1-22.28,22.3Z" transform="translate(-791 -359.99)"/><path class="cls-10" d="M2381.46,1021.66h38.17v1.71a9.85,9.85,0,0,1-9.85,9.85H2391.3a9.85,9.85,0,0,1-9.85-9.85h0v-1.71Z" transform="translate(-791 -359.99)"/><path class="cls-24" d="M2307.78,1664.37a130.41,130.41,0,0,1-152,128.49l3.73-257.55a130.33,130.33,0,0,1,148.27,129.06Z" transform="translate(-791 -359.99)"/><path class="cls-24" d="M2447.78,1104.85a69.74,69.74,0,1,1-135.34-23.71c1.92-.77,3.85-1.49,5.79-2.2a97.88,97.88,0,0,0,129.5,23.32C2447.77,1103.13,2447.78,1104,2447.78,1104.85Z" transform="translate(-791 -359.99)"/><path class="cls-24" d="M2492.78,1161.06a53.47,53.47,0,0,1-44.63-59.07c2-1.24,3.87-2.56,5.74-3.94s3.87-3,5.72-4.56a97.52,97.52,0,0,0,10.89-11,68.23,68.23,0,0,1,20.58,45.52l1.1,21.48Z" transform="translate(-791 -359.99)"/><path class="cls-6" d="M1273.36,2189.88l-106.78,87.53a13.1,13.1,0,0,0-4.81,10.15V2431.1a13.12,13.12,0,0,0,12.9,13.13l773.13,14,109.84,42.91a13.13,13.13,0,0,0,9.84-24.35l-.29-.11-112-43.76a13.11,13.11,0,0,0-4.54-.9L1188,2418.21V2293.78l102-83.59a13.13,13.13,0,0,0-16.65-20.31h0Z" transform="translate(-791 -359.99)"/><circle class="cls-24" cx="368.3" cy="2196.28" r="87.53"/><circle class="cls-18" cx="368.3" cy="2196.28" r="58"/><circle class="cls-6" cx="368.28" cy="2196.16" r="40.27"/><circle class="cls-24" cx="1066.31" cy="2196.28" r="87.53"/><circle class="cls-18" cx="1066.31" cy="2196.28" r="58"/><path class="cls-6" d="M1817.05,2556.27a40.27,40.27,0,1,1,40.28,40.26h0A40.28,40.28,0,0,1,1817.05,2556.27Z" transform="translate(-791 -359.99)"/><path class="cls-6" d="M1862,2439.3l70.34,2.65c4.93.18,7.45,7.57,4.19,12.25L1861.38,2562c-3.65,5.24-10.46,1.7-10.16-5.28l4.76-110.49C1856.16,2442.27,1858.81,2439.18,1862,2439.3Z" transform="translate(-791 -359.99)"/><rect class="cls-7" x="1237" y="1726.72" width="296.16" height="416.96" transform="translate(-1440.27 340.37) rotate(-23.15)"/><path class="cls-6" d="M1181.54,2426.51l70.61,8.82c3.73.46,5.41,5.49,2.88,8.59l-90.47,110.7c-3.12,3.82-8.74.67-7.9-4.42l19.86-119.51A4.71,4.71,0,0,1,1181.54,2426.51Z" transform="translate(-791 -359.99)"/><path class="cls-4" d="M1378.6,1718.6l107.9,460.14a11.38,11.38,0,1,0,22.16-5.2l-107.91-460.13a11.37,11.37,0,0,0-22.15,5.19Z" transform="translate(-791 -359.99)"/><rect class="cls-10" x="1586.22" y="1948.17" width="170.99" height="209.13" transform="translate(-952.58 -217.07) rotate(-4.67)"/><path class="cls-10" d="M1795.61,2154.7l-51.46,5.68a14.42,14.42,0,0,1-15.91-12.75l-10-91.09a14.4,14.4,0,0,1,12.72-15.91h0l51.45-5.68a14.4,14.4,0,0,1,15.91,12.71v0l10.06,91.1a14.41,14.41,0,0,1-12.74,15.9Z" transform="translate(-791 -359.99)"/><path class="cls-7" d="M1778.18,2156.62l-51.45,5.68a14.4,14.4,0,0,1-15.91-12.72v0l-10.06-91.1a14.41,14.41,0,0,1,12.74-15.91h0l51.46-5.68a14.42,14.42,0,0,1,15.91,12.75l10.05,91.09a14.41,14.41,0,0,1-12.73,15.91Z" transform="translate(-791 -359.99)"/><path class="cls-4" d="M1123,1716.5l936.16,44.39-18,370.88-750.06,54.42L1119.14,1646a12.9,12.9,0,0,0-3.58-5.64l-112-104a13.13,13.13,0,1,0-18.34,18.79q.24.24.48.45l109.5,101.62,174,546.77a13.14,13.14,0,0,0,13.47,9.11l772-56a13.11,13.11,0,0,0,12.17-12.46L2086,1749a13.11,13.11,0,0,0-12.44-13.75h0l-949.28-45a13.12,13.12,0,1,0-1.25,26.22Z" transform="translate(-791 -359.99)"/><path class="cls-4" d="M1251.27,1712.7l119.67,482.8A11.38,11.38,0,0,0,1393,2190l-119.68-482.79a11.37,11.37,0,0,0-22.08,5.47h0Z" transform="translate(-791 -359.99)"/><path class="cls-4" d="M1515.55,1724.58l84.3,453.64a11.38,11.38,0,0,0,22.38-4.16l-84.3-453.63a11.38,11.38,0,0,0-22.38,4.15Z" transform="translate(-791 -359.99)"/><path class="cls-4" d="M1656.77,1730.91l65.3,431.73a11.38,11.38,0,0,0,22.5-3.4l-65.3-431.74a11.38,11.38,0,0,0-22.56,3l.06.37Z" transform="translate(-791 -359.99)"/><path class="cls-4" d="M1793.13,1736.53l31.54,418.26a11.38,11.38,0,0,0,22.73-1.2c0-.17,0-.34,0-.51l-31.54-418.26a11.38,11.38,0,0,0-22.69,1.71Z" transform="translate(-791 -359.99)"/><path class="cls-4" d="M1923.61,1742.6l25.92,399.24a11.38,11.38,0,0,0,22.71-1.47l-25.93-399.25a11.37,11.37,0,0,0-22.7,1.48Z" transform="translate(-791 -359.99)"/><path class="cls-4" d="M1182.47,1900l879.85,7.45a11.38,11.38,0,0,0,.19-22.76l-879.85-7.45a11.38,11.38,0,1,0-.19,22.76Z" transform="translate(-791 -359.99)"/><path class="cls-4" d="M1241.68,2073l818-31.34a11.38,11.38,0,0,0-.87-22.74l-818,31.34a11.38,11.38,0,0,0,.87,22.74Z" transform="translate(-791 -359.99)"/><path class="cls-6" d="M964.92,1542.57l57.3,50.55a15.75,15.75,0,0,0,21-23.49l-.15-.13-57.29-50.56a15.76,15.76,0,1,0-21.33,23.21Z" transform="translate(-791 -359.99)"/><path class="cls-6" d="M2057.18,1747.64l-19.25,395.61a15.75,15.75,0,1,0,31.47,1.54h0l19.26-395.62a15.76,15.76,0,0,0-31.48-1.53Z" transform="translate(-791 -359.99)"/><path class="cls-6" d="M1964.54,2366,1938,2440.71a13.13,13.13,0,0,0,24.75,8.79l26.52-74.67a13.13,13.13,0,0,0-24.74-8.79Z" transform="translate(-791 -359.99)"/><rect class="cls-10" x="1445.71" y="1101.06" width="98.41" height="194.77" rx="19.8"/><rect class="cls-6" x="1475.68" y="1063" width="38.46" height="76.12" rx="7.74"/><rect class="cls-4" x="1463.34" y="1129.54" width="63.91" height="98.41"/><path class="cls-20" d="M3338.11,1339.7a28.57,28.57,0,0,1-40.32-2.56c-.31-.35-.61-.71-.9-1.07l-105.53-132.31s-38.81-107.36-126.22-67.12c0,0-122.14,62.9,68.36,147.39l94.55,167.77a92.38,92.38,0,0,0,128.49,20.52" transform="translate(-791 -359.99)"/><rect class="cls-27" x="1755.32" y="942.69" width="35.8" height="236.38"/><rect class="cls-28" x="1646.19" y="858.34" width="268.81" height="84.35" rx="1.85"/><path class="cls-27" d="M2691.22,1227.32v66.37a9,9,0,0,1-8.95,9H2431.43a9,9,0,0,1-9-9v-66.37a9,9,0,0,1,9-9h250.84A9,9,0,0,1,2691.22,1227.32Z" transform="translate(-791 -359.99)"/><rect class="cls-29" x="1750.26" y="942.69" width="45.91" height="51.33"/><rect class="cls-15" x="1713.95" y="1181.6" width="625.94" height="111.8"/><rect class="cls-29" x="1825.96" y="773.83" width="502.2" height="322.68" rx="2.16"/><path class="cls-29" d="M3054.27,1417.49H2720.32a4.53,4.53,0,0,0-4.54,4.52h0v35h343v-35A4.53,4.53,0,0,0,3054.27,1417.49Z" transform="translate(-791 -359.99)"/><path class="cls-27" d="M2789.76,1541.42h76.55v-17.07L2897.36,1399a35.06,35.06,0,0,0-34-43.49h0a35,35,0,0,0-34,26.61Z" transform="translate(-791 -359.99)"/><path class="cls-27" d="M2780.19,1541.42h72.15v-17.07L2883.45,1399a35,35,0,0,0-34-43.49h0a35,35,0,0,0-34,26.61l-35.23,142.21Z" transform="translate(-791 -359.99)"/><path class="cls-15" d="M3138.39,1145.53V1444.8a11.73,11.73,0,0,1-11.73,11.73H2647.88a11.68,11.68,0,0,1-11.67-11.69V1145.53a11.68,11.68,0,0,1,11.63-11.73h478.82A11.73,11.73,0,0,1,3138.39,1145.53Z" transform="translate(-791 -359.99)"/><rect class="cls-29" x="2203.66" y="1181.6" width="136.23" height="111.8"/><g class="cls-30"><polygon class="cls-13" points="1994.81 1293.4 2118.97 1293.4 2087.6 1181.6 1963.43 1181.6 1994.81 1293.4"/></g><g class="cls-30"><polygon class="cls-13" points="1824.86 1293.4 1887.61 1293.4 1856.23 1181.6 1793.48 1181.6 1824.86 1293.4"/></g><path class="cls-29" d="M2781.85,1532.88a8.53,8.53,0,0,1,8.53-8.53h163.48a8.53,8.53,0,0,1,8.54,8.52h0a8.54,8.54,0,0,1-8.54,8.54H2790.38a8.53,8.53,0,0,1-8.53-8.53Z" transform="translate(-791 -359.99)"/><rect class="cls-31" x="1250.55" y="1378.19" width="1359.58" height="825"/><rect class="cls-32" x="1275.55" y="2203.19" width="1309.57" height="77.27" rx="27.57"/><rect class="cls-33" x="1214.54" y="1323.29" width="1431.58" height="25"/><path class="cls-34" d="M3477.42,1695.79c0,23.42-18,42.39-40.14,42.39H2005.38a38.9,38.9,0,0,1-28.38-12.41,43.55,43.55,0,0,1-11.76-30c0-23.42,18-42.41,40.14-42.41h1431.9a39,39,0,0,1,28.38,12.42A43.48,43.48,0,0,1,3477.42,1695.79Z" transform="translate(-791 -359.99)"/><rect class="cls-32" x="1250.55" y="1378.19" width="1359.58" height="29.47"/><g class="cls-35"><polygon class="cls-13" points="1617.63 2199.08 1971.17 2199.08 1881.83 1378.2 1528.28 1378.2 1617.63 2199.08"/></g><path class="cls-32" d="M2201.75,2568.79h-.06a5.61,5.61,0,0,1-5.55-5.66c2.15-219.24,6.43-789.38.85-822a5.6,5.6,0,0,1,1.42-7.47,5.73,5.73,0,0,1,6-.51c3.41,1.74,3.78,5.11,4.35,14.59.36,6.13.69,15.18,1,26.88.51,21.68.87,53.34,1,94.11.32,68.61.18,164-.42,283.46-1,203.41-3,409-3,411a5.61,5.61,0,0,1-5.62,5.6Z" transform="translate(-791 -359.99)"/><path class="cls-36" d="M3237.3,2568.79h-.05a5.61,5.61,0,0,1-5.55-5.66c2.14-219.24,6.42-789.38.85-822a5.6,5.6,0,0,1,1.42-7.47,5.69,5.69,0,0,1,6-.51c3.41,1.74,3.78,5.11,4.35,14.59.37,6.13.7,15.18,1,26.88.51,21.68.86,53.34,1,94.11.31,68.61.17,164-.42,283.46-1,203.41-3,409-3,411a5.61,5.61,0,0,1-5.62,5.6Z" transform="translate(-791 -359.99)"/><g class="cls-37"><polygon class="cls-13" points="1673.53 2280.46 2027.07 2280.46 2000.78 2203.19 1647.24 2203.19 1673.53 2280.46"/></g><g class="cls-37"><polygon class="cls-13" points="2176.77 2280.46 2355.45 2280.46 2329.16 2203.19 2150.47 2203.19 2176.77 2280.46"/></g><g class="cls-37"><polygon class="cls-13" points="1902.1 1378.16 1548.55 1378.16 1574.84 1293.4 1928.39 1293.4 1902.1 1378.16"/></g><g class="cls-37"><polygon class="cls-13" points="2237.57 1378.16 2058.88 1378.16 2085.17 1293.4 2263.86 1293.4 2237.57 1378.16"/></g><rect class="cls-36" x="2372.96" y="2067.08" width="41" height="87.94"/><rect class="cls-36" x="2294.69" y="2067.08" width="41" height="87.94"/><rect class="cls-32" x="2216.42" y="2067.08" width="41" height="87.94"/><rect class="cls-32" x="2138.16" y="2067.08" width="41" height="87.94"/><rect class="cls-32" x="2059.89" y="2067.08" width="41" height="87.94"/><g class="cls-38"><path class="cls-10" d="M3119.16,1164.72v260.89c0,5.64-4.85,10.22-10.83,10.22H2666.21a10.49,10.49,0,0,1-10.77-10.2V1164.72a10.49,10.49,0,0,1,10.75-10.22h442.14C3114.31,1154.5,3119.16,1159.08,3119.16,1164.72Z" transform="translate(-791 -359.99)"/><path class="cls-4" d="M3058.8,1208.51H2741.18a5.89,5.89,0,1,1,0-11.78H3058.8a5.89,5.89,0,0,1,0,11.78Z" transform="translate(-791 -359.99)"/><path class="cls-4" d="M3057.22,1242.34h-225a5.9,5.9,0,0,1,0-11.79h225a5.9,5.9,0,0,1,0,11.79Z" transform="translate(-791 -359.99)"/><path class="cls-39" d="M3057.22,1283.41h-62.56a5.9,5.9,0,0,1,0-11.79h62.56a5.9,5.9,0,0,1,0,11.79Z" transform="translate(-791 -359.99)"/><path class="cls-39" d="M2976,1283.41h-62.56a5.9,5.9,0,0,1,0-11.79H2976a5.9,5.9,0,0,1,0,11.79Z" transform="translate(-791 -359.99)"/><path class="cls-24" d="M2894.76,1283.41H2832.2a5.9,5.9,0,0,1,0-11.79h62.56a5.9,5.9,0,1,1,.48,11.79Z" transform="translate(-791 -359.99)"/></g><path d="M3216.66,2536.45c-1.2,3.5,56.26,81.13,56.26,81.13H3099.07l24-40.57Z" transform="translate(-791 -359.99)"/><polygon points="2607.83 2140.81 2607.83 2188.45 2564.39 2188.45 2567.69 2176.4 2558.4 2171.46 2568.39 2150.48 2607.83 2140.81"/><g id="c65_sport_shoes" data-name="c65 sport shoes"><path d="M3390.53,2607.71c4.54,0,8.3,1.41,8.3,3.16v26.44c0,1.72-3.76,3.15-8.3,3.15H3042.72c-4.52,0-8.24-1.43-8.24-3.15v-26.44c0-1.74,3.72-3.16,8.24-3.16Z" transform="translate(-791 -359.99)"/><path class="cls-16" d="M3270,2520.62c40.09-2.37,77-19.19,109.55-42.68a6.1,6.1,0,0,1,5.49-.79c6.05,2,13.32,9,13.79,32v10.49h-40.67v16.78h40.67v81.19H3251.38l-39.59-68.5h-19.41l37.62,68.5h-23.45l-26.39-43.29h-20.74l25.4,43.29H3161.6l-12.22-21.67h-18.07l12,21.65H3034.52s-29.51-35.19,14.23-45.66c0,0,120.69-15.24,183.45-97,0,0,16.74-37,23,46.63Z" transform="translate(-791 -359.99)"/></g><path d="M3085.62,2536.45c-1.19,3.5,56.26,81.13,56.26,81.13H2968l24-40.58Z" transform="translate(-791 -359.99)"/><g id="c65_sport_shoes-2" data-name="c65 sport shoes-2"><path class="cls-16" d="M3259.5,2607.71c4.54,0,8.29,1.41,8.29,3.16v26.44c0,1.72-3.75,3.15-8.29,3.15H2911.68c-4.52,0-8.24-1.43-8.24-3.15v-26.44c0-1.74,3.72-3.16,8.24-3.16Z" transform="translate(-791 -359.99)"/><path class="cls-22" d="M3139,2520.62c40.09-2.37,77-19.19,109.54-42.68a6.12,6.12,0,0,1,5.5-.79c6,2,13.31,9,13.78,32v10.49h-40.67v16.78h40.67v81.19H3120.34l-39.59-68.5h-19.4l37.61,68.5h-23.44l-26.4-43.29h-20.74l25.4,43.29h-23.22l-12.22-21.67h-18.07l12,21.65H2903.48s-29.51-35.19,14.23-45.66c0,0,120.69-15.24,183.46-97,0,0,16.73-37,23,46.63Z" transform="translate(-791 -359.99)"/></g><polygon points="2476.79 2140.81 2476.79 2188.45 2433.36 2188.45 2436.65 2176.4 2427.36 2171.46 2437.35 2150.48 2476.79 2140.81"/><rect class="cls-27" x="2441.02" y="1262.36" width="165.57" height="914.1"/><path class="cls-29" d="M3397.59,1622.35c-27.56,68.32-32.21,102-64.8,130.93-40.07,35.61-73.23,46.87-73.23,46.87v736.3h-188V1686.5Z" transform="translate(-791 -359.99)"/><path class="cls-27" d="M3127.93,2526.11a6.5,6.5,0,0,1-6.5-6.5h0V1748.12a6.5,6.5,0,1,1,13,0v771.49a6.5,6.5,0,0,1-6.5,6.5Z" transform="translate(-791 -359.99)"/><rect class="cls-17" x="2441.05" y="663.91" width="117.83" height="134.61"/><path class="cls-19" d="M3372.86,801.13V927.64l-.31,49a108.85,108.85,0,0,1-140.5,95.68l-2.12-.66a108.83,108.83,0,0,1-74.59-103.3V801.13Z" transform="translate(-791 -359.99)"/><path class="cls-20" d="M3372.86,836.4v91.24l-.31,49a108.85,108.85,0,0,1-140.5,95.68l-2.12-.66a108.28,108.28,0,0,1-23.88-68V836.4Z" transform="translate(-791 -359.99)"/><path class="cls-10" d="M3402,1218.21v519.55H3275.19c-136.5,0-247.16-110.66-247.16-247.16V1349.46c0-136.51,110.66-247.16,247.16-247.16h10.92A115.91,115.91,0,0,1,3402,1218.21Z" transform="translate(-791 -359.99)"/><path class="cls-40" d="M2636.21,1145.53l487.17-381.26S3327.73,1134,3186,1570.35l-538.12-113.82Z" transform="translate(-791 -359.99)"/><path class="cls-19" d="M3096,1402.86l-15.32,11-191.24,137.42A92.36,92.36,0,0,1,2761,1530.77l-89.21-122.11a287.41,287.41,0,0,1-55.32-164.4c-15.26-43.27,33.1-140.83,102.21-97.15s5.64,135.63,5.64,135.63L2829.83,1415a28.55,28.55,0,0,0,40.13,4.54q.55-.43,1.08-.9l71.63-63,7.24,2.23,128.8,39.64Z" transform="translate(-791 -359.99)"/><path class="cls-1" d="M3402,1624.32v113.44H3275.19c-136.5,0-247.16-110.66-247.16-247.16v-26.11l136.45-190.57c-29.8,49.19-6.93,113.28,24.26,161.6C3240.89,1516.29,3315.7,1582.09,3402,1624.32Z" transform="translate(-791 -359.99)"/><path class="cls-41" d="M3157.45,1333.38V2232h-5.09a137.78,137.78,0,0,1-137.79-137.77v-710Z" transform="translate(-791 -359.99)"/><path class="cls-17" d="M3080.72,1413.87l-191.24,137.42a92.31,92.31,0,0,1-97.1,6.64,739.83,739.83,0,0,1,157.53-200q20.3-18.18,41.94-34.75c30.3-.82,79.42,44,86.86,74.39.15.65.29,1.29.41,1.93A96.33,96.33,0,0,1,3080.72,1413.87Z" transform="translate(-791 -359.99)"/><rect class="cls-10" x="2899.38" y="1243.29" width="342.77" height="151.28" rx="69.18" transform="translate(-824.22 2197.68) rotate(-45)"/><path class="cls-41" d="M3284.62,1702.78a380.78,380.78,0,0,1-68.79-6.51c-54.34-10-92.59-27.7-94.2-28.45A9.84,9.84,0,0,1,3130,1650c.61.28,38.12,17.55,89.92,27,47.38,8.65,116.87,12.36,178.86-19.07a9.84,9.84,0,1,1,9.17,17.41l-.27.14C3371.93,1693.6,3330.18,1702.78,3284.62,1702.78Z" transform="translate(-791 -359.99)"/><path class="cls-17" d="M3218.7,908h14.36v47.46H3218.7a21.71,21.71,0,0,1-21.7-21.7v-4A21.71,21.71,0,0,1,3218.69,908Z" transform="translate(-791 -359.99)"/><path class="cls-22" d="M3434.32,876.37a60.26,60.26,0,0,1-37.62,90.29A85,85,0,0,1,3232.15,924a84.08,84.08,0,0,1,3.28-10h-.84a60.24,60.24,0,0,1-59.87-53.61c-1,0-2,.08-2.95.08a60.25,60.25,0,0,1-5.38-120.25,48.62,48.62,0,0,1,74.36-41.54c1.31.8,2.56,1.68,3.79,2.61A85,85,0,0,1,3349.59,713a60.21,60.21,0,0,1,60.49,58,85,85,0,0,1,24.24,105.36Z" transform="translate(-791 -359.99)"/><path class="cls-25" d="M3323.28,882.21a244.26,244.26,0,0,1-44.21,140.54,85,85,0,0,1-43.64-108.82h-.84a60.24,60.24,0,0,1-59.87-53.61c-1,0-2,.08-2.95.08a60.25,60.25,0,0,1-5.38-120.25,48.62,48.62,0,0,1,74.36-41.54A244.82,244.82,0,0,1,3323.28,882.21Z" transform="translate(-791 -359.99)"/><path class="cls-42" d="M3157.45,1683.28V2232h-5.09a137.78,137.78,0,0,1-137.79-137.77V1855.85C3054.92,1793.13,3103.46,1735.49,3157.45,1683.28Z" transform="translate(-791 -359.99)"/><path class="cls-15" d="M2435.56,1654.56l-79.18-1.84a9.59,9.59,0,0,1-9.38-9.79v0l.61-26.61a9.62,9.62,0,0,1,9.83-9.38l79.18,1.84a9.61,9.61,0,0,1,9.38,9.82l-.62,26.61A9.61,9.61,0,0,1,2435.56,1654.56Z" transform="translate(-791 -359.99)"/><rect class="cls-15" x="2388.5" y="1589.4" width="17.21" height="36.96" rx="3.61" transform="translate(-56.98 3607.03) rotate(-88.67)"/><rect class="cls-10" x="2386.83" y="1581.43" width="19.51" height="98.41" transform="translate(-80.24 3628.73) rotate(-88.67)"/><path class="cls-43" d="M1881.54,489V2564.2h-68.29V529.26Q1846.57,507.92,1881.54,489Z" transform="translate(-791 -359.99)"/></g></svg>