<svg id="Layer_1" data-name="Layer 1" xmlns="http://www.w3.org/2000/svg" viewBox="0 0 3370.39 2400"><defs><style>.cls-1{fill:#c8e9f1;}.cls-2,.cls-6{fill:#72d6e5;}.cls-2{opacity:0.4;}.cls-2,.cls-23,.cls-27,.cls-28,.cls-3,.cls-30,.cls-33{isolation:isolate;}.cls-26,.cls-3{fill:#fff;}.cls-3{opacity:0.3;}.cls-4{fill:#008196;}.cls-5{fill:#009fc4;}.cls-7{fill:#0a6d77;}.cls-8{fill:#642425;}.cls-9{fill:#f5785c;}.cls-10{fill:#840f20;}.cls-11{fill:#ff9e83;}.cls-12{fill:#ffcab0;}.cls-13{fill:#ffb699;}.cls-14{fill:#00d6bc;}.cls-15{fill:#00b1a0;}.cls-16,.cls-33{fill:#008c7e;}.cls-17{fill:#fc9f7e;}.cls-18{fill:#ff8e69;}.cls-19{fill:#eaa837;}.cls-20{fill:#ffa710;}.cls-21{fill:#c2172a;}.cls-22,.cls-27{fill:#ff6a0d;}.cls-23,.cls-28{fill:#fefefe;}.cls-23{opacity:0.38;}.cls-24{fill:#521213;}.cls-25{fill:#333435;}.cls-27{opacity:0.39;}.cls-28{opacity:0.2;}.cls-29,.cls-30{fill:#004f66;}.cls-30{opacity:0.44;}.cls-31{opacity:0.53;}.cls-32{fill:#fcf8f0;}.cls-33{opacity:0.68;}.cls-34{fill:#ffbc5a;}.cls-35{fill:#095996;}.cls-36{fill:#7c3006;}</style></defs><title>details6</title><g id="_07" data-name=" 07"><path class="cls-1" d="M3248,926.78c0,21.3-18.22,38.6-40.66,38.6s-40.65-17.3-40.65-38.6,18.22-38.59,40.65-38.59S3248,905.49,3248,926.78Z" transform="translate(-1.36 0)"/><path class="cls-1" d="M1404,175c0,21.29-18.23,38.59-40.66,38.59s-40.66-17.3-40.66-38.59,18.22-38.6,40.66-38.6h0C1385.73,136.38,1404,153.68,1404,175Z" transform="translate(-1.36 0)"/><path class="cls-1" d="M3283.38,1178.15c0,39.9-34,72.19-76,72.19s-76.05-32.29-76.05-72.19,34-72.19,76.05-72.19h0C3249.26,1106,3283.38,1138.26,3283.38,1178.15Z" transform="translate(-1.36 0)"/><path class="cls-1" d="M1276.51,350.16c0,39.89-34,72.19-76,72.19s-76-32.3-76-72.19,34-72.2,76-72.2h0C1242.48,278,1276.51,310.36,1276.51,350.16Z" transform="translate(-1.36 0)"/><path class="cls-1" d="M3371.76,1789.48c0,169.87-76.16,323-197.92,429.94h0q-20.53,18.15-42.87,34.4-19,13.95-39.18,26.39c-6.43,4-12.85,7.9-19.38,11.6-6.32,3.6-12.64,7.1-19.07,10.5a629.39,629.39,0,0,1-86.27,37.5h0c-1.15.1-2.21.3-3.26.4s-2,.3-2.95.4l-5.37.7-3.9.5-4.11.5-12.43,1.5c-.52.1-1.05.1-1.58.2l-15.27,1.8h-.32l-9,1-6.32.7-7.37.8-10.43,1.1-8.22.9c-6.84.8-13.79,1.5-20.75,2.19l-5.26.6-2.11.2-5.58.6c-7.48.8-15.06,1.5-22.75,2.2q-31,3-63.83,5.8c-29.5,2.5-60.15,5-91.85,7.3l-6.43-.9c-6.63-1-13.38-2.1-19.91-3.3a631.65,631.65,0,0,1-93.11-24.19q-25-8.55-49-19.1c-5-2.2-9.9-4.4-14.85-6.8l-5.06-2.4c-3.68-1.7-7.26-3.5-10.84-5.4a617.4,617.4,0,0,1-81.64-49.29,607.15,607.15,0,0,1-70.25,49.49l-8.53,5.1c-4,2.4-8.11,4.7-12.22,6.9-7.17,4-14.43,7.9-21.91,11.6-5.58,2.9-11.27,5.6-17.07,8.3q-6.32,3-12.64,5.7c-2.84,1.3-5.79,2.5-8.63,3.7a642.47,642.47,0,0,1-189.49,47.59c-20.23,1.9-40.66,2.8-61.41,2.9-13,0-25.7-.4-38.45-1.1A641.18,641.18,0,0,1,1722,2345c-3.58-1.6-7.06-3.2-10.64-4.8-15.59-7.2-30.86-15.1-45.71-23.5q-21.64-12.3-42.13-26.1a610.69,610.69,0,0,1-99.86-84.39c-6-6.3-11.9-12.8-17.69-19.39-9.59,6.7-19.17,13.29-29,19.69a958,958,0,0,1-231.83,110.29q-32.55,10.35-66.15,18.6c-7.59,1.9-15.27,3.6-23,5.3-12.22,2.7-24.55,5.1-37,7.3-16.11,2.9-32.33,5.3-48.76,7.39a1003,1003,0,0,1-338.54-14.79q-45.5-9.9-89.11-23.9l-7.58-2.5c-3.48-1.1-6.85-2.3-10.33-3.5a967.39,967.39,0,0,1-139.66-60.39q-34.29-18.15-66.78-38.9c-2.11-1.4-4.32-2.7-6.43-4.1Q391,2193.82,371,2179.23C146.3,2015.65,1.36,1758.28,1.36,1468.82c0-434.55,326.43-796.71,759.13-877.7a997,997,0,0,1,183.27-16.89q32.24,0,64,2a980.71,980.71,0,0,1,232,43q11.54-33.9,25.81-66.69c73.62-168.48,199.6-311.66,361.18-410.45C1773.77,52.19,1948.73,0,2136.64,0a997.36,997.36,0,0,1,173.48,15.1,984.3,984.3,0,0,1,134.51,33.79c16.22,5.3,32.23,11.1,48,17.2a959.66,959.66,0,0,1,101,46l4.43,2.4c18.64,9.9,36.86,20.5,54.66,31.6a932.57,932.57,0,0,1,215.51,184.78c3.58,4.1,7.06,8.3,10.54,12.5,125.34,151.88,200.13,343.25,200.13,551.23a853,853,0,0,1-78.27,357.35C3219.34,1342.53,3371.76,1549.11,3371.76,1789.48Z" transform="translate(-1.36 0)"/><path class="cls-2" d="M2957.28,2247.92c-4.32-9.8-8.53-19.6-12.85-29.4-.42-1.2-1.27-3-2.11-4.8-1.05-2.5-2.21-5-3.26-7.5l18.43-2.1L2941,2154.33l-33.6-101.39V1866.87c32.76-4.5,55.72-33,51.72-64.2l-48.35-343.55-3.47-274.47c0-26.3-21.28-48.19-49-50.39v-.2h23c14.32,0,26-11,26-24.7h0v-20.8c0-13.6-11.59-24.69-26-24.69h-33.6l-52-345.36c-3.27-25.7-25.07-45.7-52.25-48l-2.95,1.39-1.79-.8c-.21.7-.32,1.3-.53,2a24.18,24.18,0,0,1-2.31,1.1l-7.69-60.49a117.88,117.88,0,0,0,29.38-63.39c15.59,6.8,34,.3,41.19-14.5a28.41,28.41,0,0,0-4.85-31.69l-.31-.3c-.11-.1-.11-.2-.21-.3a24.23,24.23,0,0,0-2.43-2.2,8.7,8.7,0,0,0-1-.8,11.71,11.71,0,0,1-1.16-.9h0a31,31,0,0,0-5.68-3.1,21.25,21.25,0,0,0-2.32-.8.35.35,0,0,1-.21-.1c-.32-.1-.63-.2-1.06-.3l-.73-.2c-.32-.1-.53-.1-.85-.2l-1.58-.3-1.05-.2a3.78,3.78,0,0,0-1-.1c-.32,0-.74-.1-1.06-.1s-.63-.1-.94-.1a32,32,0,0,0-6.22.3,121.9,121.9,0,0,0,21.49-20.9h0c.63-.8,1.16-1.5,1.68-2.3.32-.5.74-1,1.06-1.5.1-.2.31-.4.42-.6,36.65-53.39-7.16-117.19-55.41-148.48-64.67-41.9-234.25-106.19-252.16,15a42.42,42.42,0,0,0-.53,8.1c-7.16,44.79-3.37,96,22.65,132.58l-2.74,52.29c-2.84,53.4,31.29,102.29,84.16,120.59q3.16,1,6.64,2.1l3.47,27.69a383.37,383.37,0,0,0-59.72,46.6L2308.75,907.89a69.43,69.43,0,0,1-13.27,8.39l-50.87-17.49a73.41,73.41,0,0,0-18.54-3.7l.1-.2a87.87,87.87,0,0,0-23.8-4.6c-6.22-2.8-13.17-5.5-20.33-8-19.91-6.9-41.08-12.1-50.35-13.4-27.39-3.8-57-6.5-84.79-5.2-15.8.7-34.13,4-50,10.6V867c0-14.7-12.54-26.5-27.92-26.5h-81.21c0-.5.11-1,.11-1.5V777.6h96.27c7.06,0,12.85-5.5,12.85-12.2h0V712.81c0-6.7-5.69-12.2-12.85-12.2H1755.76c-7,0-12.85,5.4-12.85,12.2h0V765.4c0,6.7,5.69,12.2,12.85,12.2H1852V839a7.57,7.57,0,0,0,.1,1.5H1730c-23.91,0-45.93,12-58,31.4l-43.82,70.29h-31.81a30.65,30.65,0,0,0,1.69-3.1c41.71-83-120.71-97.79-198.87-58.09a121.61,121.61,0,0,0-13.48,8,74.39,74.39,0,0,0-31.39-4.9l-81.74,4.7-46.45,2.7-3-54.8-6.21-114.18c33.18,15.4,69.94,31.29,104.28,45.29,65.3,26.7,122,46.5,130.08,42.9,14.32-6.4,179.38-61.89,270.91-92.59,24.12-8.1,40.45-29.5,41-53.79,43.39,11.59,84.26-4.7,127.24-7.2l3-.2c18-.7,39.18-8.3,55.62-20.5l8.53,3.3,41.08,16.2,3.89-9,35.92-82.49-84.79-33.3-46.45-18.3-43.61-17.09-17.9,41.19a202.3,202.3,0,0,0-43.08,14.3c-3.27,1.5-6.43,3.1-9.38,4.7-25.17,13.8-46.35,31.8-71.73,44.19-3.9,1.9-8,3.6-12.11,5.2a65.27,65.27,0,0,0-25.28,2l-245.53,69.59-181.38-84.28L1203,567.43a74.79,74.79,0,0,0-9.16-14.8q-14.22,32.7-25.81,66.69a981.66,981.66,0,0,0-232-43A294.73,294.73,0,0,0,906.9,600a44.89,44.89,0,0,1-5.37,2.7c1.36-.6,2.94-1.2,4.52-1.9-51.08,48.3-80.15,113.59-81.21,182l-.42,25.5-3.89,255.37H582.58c-14.32,0-26,11-26,24.69h0v20.8c0,13.6,11.58,24.7,26,24.7h27.28c-29.38,0-53.29,22.59-53.29,50.59V2290.11c0,27.9,23.8,50.5,53.19,50.6h663.9l1.9,4.3H1781l-1.79-4.3h245.11l1.68,4.3h243.85l140.51,34.89c4.21,1,8,.5,8.53-1.3l7.27-26.49,3.16-11.5h230.25c-20.12,7-43.08,11.4-69.62,14.3-14.22-1.8-21.07,2.89-24,9.89q10,1.8,19.91,3.3l6.42.9c31.71-2.3,62.26-4.7,91.85-7.3q32.86-2.85,63.83-5.8c7.69-.69,15.28-1.49,22.76-2.19l5.58-.6,2.11-.2,5.26-.6c7.06-.7,13.91-1.4,20.75-2.2l8.22-.9,10.43-1.1,7.37-.8,6.32-.7,8.95-1h.32c5.16-.6,10.32-1.2,15.27-1.8.53-.1,1-.1,1.58-.2l12.43-1.5,4.11-.5,3.9-.5,5.37-.7c.94-.1,2-.3,2.95-.4l3.26-.4h0a634.77,634.77,0,0,0,86.27-37.5C2973.08,2284.11,2965.18,2265.92,2957.28,2247.92ZM1266.82,1032.27l80.78-6.9,15.59-1.3c24.65-2.1,46.45-15.8,58.15-36.49l1.15.3c1.37.3,2.85.6,4.22.8V1064H1235.43l-.74-12.6-.84-16.2Zm798.51-25.5a71.47,71.47,0,0,0-40.13,38.7c-9.16,2-18.75,1.9-28.33,1.2V977.28C2022,991,2055.11,997,2082.08,996.67c3.48,0,7-.2,10.11-.4Zm244.16,54.2,8,2.9H2302ZM2908.83,2252c0-.1-.11-.2-.11-.3l.63.1Z" transform="translate(-1.36 0)"/><path class="cls-3" d="M2018.25,1076c0,589.43-395.2,1091.27-947.77,1279.75A998.39,998.39,0,0,1,642.83,2317c-6-1.9-11.9-3.9-17.9-5.9a967,967,0,0,1-139.67-60.39q-34.29-18.15-66.78-38.9c-2.11-1.4-4.32-2.7-6.43-4.1q-20.85-13.48-40.87-28.09C146.51,2016.15,1.68,1758.78,1.68,1469.32c0-434.55,326.42-796.7,759.12-877.69a1001.15,1001.15,0,0,1,344.44-3.8,981.7,981.7,0,0,1,134.82,32c67.52-198.27,206-366.35,387-477.14C1869.63,386,2018.25,714.51,2018.25,1076Z" transform="translate(-1.36 0)"/><path class="cls-4" d="M3207.34,2261.92c0,24.29-69.73,47.09-192.23,67-261.75,42.39-764.39,71.09-1341.4,71.09-24.23,0-48.35-.1-72.26-.1-37-.2-73.62-.4-109.86-.8q-30.81-.3-61.3-.8c-24.23-.3-48.14-.7-71.94-1.2l-27.91-.6c-183.07-3.8-353.6-10.5-505.17-19.5q-60.21-3.6-116.18-7.7c-31.71-2.3-62.26-4.7-91.85-7.3q-32.87-2.85-63.83-5.8c-7.69-.7-15.28-1.5-22.76-2.19l-5.58-.61-2.11-.19-5.26-.6c-7.06-.7-13.91-1.4-20.75-2.2l-8.22-.9-10.43-1.1-7.37-.8-6.32-.7-8.95-1h-.32l-15.27-1.8c-.53-.1-1.05-.1-1.58-.2l-12.43-1.5-4.11-.5-3.9-.5-5.37-.7c-.95-.1-2-.3-2.95-.4l-3.37-.4-5.37-.7-4.74-.6-4.63-.6-4.64-.6-2.1-.3-2-.3-4.95-.7c-1.68-.2-3.26-.5-4.95-.7l-1.58-.2-5.26-.8c-4.53-.7-9-1.3-13.38-2l-3.58-.6c-.42-.1-.95-.1-1.37-.2l-1.37-.2-6.74-1-1.27-.2-2-.3-6.32-1-6.21-1-5.16-.9c-1.37-.2-2.74-.4-4-.7l-3.05-.5-2.95-.5c-5-.9-9.8-1.7-14.54-2.6l-4.95-.9c-2.1-.4-4.21-.8-6.21-1.2-2.74-.5-5.48-1.1-8.22-1.6l-5.79-1.2c-2.32-.5-4.63-1-6.95-1.4-5.27-1.1-10.43-2.3-15.49-3.4l-2.42-.6-2.42-.6-3.69-.9a6.32,6.32,0,0,1-1.47-.4,6.4,6.4,0,0,1-1.48-.4l-.84-.2-.84-.2c-1.69-.4-3.37-.8-5.06-1.3l-4.32-1.1c-5.05-1.3-9.79-2.6-14.43-3.9-21.48-6.2-38.23-12.5-49.92-19a65.42,65.42,0,0,1-12.75-8.89l-1.26-1.2c-.42-.4-.95-1-1.37-1.5l-.11-.1-.52-.6h0l-.32-.5-.32-.5c-.21-.2-.31-.5-.52-.7a2.37,2.37,0,0,1-.42-.7c-.11-.2-.32-.5-.43-.7a2.15,2.15,0,0,1-.31-.7c0-.2-.21-.4-.32-.6l-.1-.2a1.35,1.35,0,0,1-.21-.7v-.1c-.11-.2-.11-.4-.21-.6a3.25,3.25,0,0,1-.21-1c0-.2-.11-.3-.11-.5v-.5a3.4,3.4,0,0,1-.1-1h0v-2a1.7,1.7,0,0,1,.1-.7v-.1a.7.7,0,0,1,.11-.4v-.7a.37.37,0,0,1,.1-.3c0-.2.11-.3.11-.5s.1-.3.1-.5.11-.2.11-.3.1-.5.21-.7v-.1c.1-.2.21-.5.31-.7s0-.1.11-.2a8.61,8.61,0,0,1,.74-1.4c0-.1.1-.2.21-.3s.1-.1.1-.2l.32-.5c0-.1.1-.2.21-.3l.42-.6a27.71,27.71,0,0,1,2.11-2.8l.84-.9.21-.2.42-.5.21-.2h0l.42-.4.42-.4,1.06-1h0c.21-.2.31-.4.52-.5a1.17,1.17,0,0,0,.53-.5l.11-.1,1.16-.9,1-.9,1.16-.9.52-.4.53-.4c.63-.5,1.37-1,2.11-1.5s1.79-1.2,2.74-1.8,2-1.2,2.95-1.8l1.68-1a7.93,7.93,0,0,1,1.26-.7l.43-.2.84-.5.31-.2.53-.3.42-.2c.11-.1.32-.2.42-.3l.43-.2.42-.2,1.89-1,1.9-1,1-.5.94-.5,3.16-1.5,1.58-.8,1.69-.7c.53-.3,1-.5,1.68-.8l3.48-1.5a2.12,2.12,0,0,0,.84-.4l.85-.4.84-.4c1.16-.5,2.32-1,3.47-1.4h0l1.27-.5.42-.2c.42-.2.95-.4,1.37-.6l1.47-.6,2.32-.9h.11l.42-.2.52-.2,1.06-.4.42-.1.42-.1c.32-.1.53-.2.84-.3l1.06-.4,1.16-.4,2.84-1,3-1.1,3-1c1.06-.4,2-.7,3.06-1.1l2.95-1,1.05-.4,1.16-.4,2.84-.9,2.43-.8.84-.3c.84-.3,1.58-.5,2.42-.8l3-.9,3.37-1h0c2.21-.7,4.53-1.39,6.85-2.09s4.63-1.4,7-2.1l3.59-1,3.68-1h0l.74-.2c1.05-.3,2-.6,3.05-.8l1.69-.4,1.68-.4c1.27-.3,2.43-.7,3.69-1h0l1-.3a1,1,0,0,1,.53-.1l1.58-.4c.63-.2,1.37-.3,2-.5a14.62,14.62,0,0,1,2-.5h0c.95-.3,2-.5,2.95-.8l1.06-.3c.31-.1.73-.2,1.05-.3s.74-.2,1.05-.3l1.06-.3,2.84-.7,2.84-.7,6.53-1.6,5.38-1.3,1.89-.5,1.9-.5c2.63-.6,5.27-1.3,8-1.9s5.38-1.3,8.22-1.9l3.27-.7c2.31-.5,4.63-1,6.95-1.6l2.84-.6,3.79-.8c3.16-.7,6.43-1.4,9.69-2.1l2-.4.53-.1,1.58-.3.42-.1.63-.1c.32-.1.74-.1,1.06-.2l1.37-.3c.42-.1.84-.2,1.37-.3l1.37-.3,1.37-.3,5.68-1.2,5.8-1.2.31-.1.32-.1c2.53-.5,5.16-1,7.79-1.5a1.89,1.89,0,0,1,.74-.1l5.06-1,3.16-.6q9.94-1.95,20.22-3.9l.53-.1h.31l1.58-.3,2.42-.4,14.54-2.7,3.69-.7,1.26-.2,2.42-.4,2.43-.4,5.05-.9c6.53-1.2,13.27-2.3,20-3.4l12.21-2,5.48-.9,5.58-.9,8.54-1.4,5.37-.9,2.74-.4,2.73-.4,2.74-.4,2.74-.4.63-.1c2.85-.4,5.69-.9,8.64-1.3l6.11-.9,6.21-.9,3.06-.5,3-.5,5.59-.8c1.89-.3,3.79-.5,5.68-.8,3.8-.6,7.59-1.1,11.49-1.6l5.79-.8,5.79-.8,2.21-.3,4.43-.6,2.21-.3,4.42-.6,4.43-.6,13.8-1.9,5.37-.7,4-.6h.11l11.48-1.5,14.22-1.8,7.16-.9,14.43-1.8,7.27-.9c3.68-.4,7.37-.9,11-1.3l5.58-.7,5.59-.6,7.37-.9,7.48-.89.63-.11,3-.39,3.58-.4,7.16-.8,3.8-.4,3.47-.4c2.42-.3,4.85-.6,7.27-.8l3.69-.4,1.89-.2c.63-.1,1.27-.1,1.9-.2l5-.6,5-.6,5.06-.5,5.06-.5,6.11-.6q18.48-2,37.28-3.9l6.32-.6,5.16-.5,5.27-.5c1.58-.1,3.27-.3,5-.5h.21c.74-.1,1.48-.1,2.21-.2l2.43-.3,3.89-.4,1.9-.2,1.9-.2,7.79-.8,7.8-.7,7-.6H863l1.27-.1,1-.1,2.74-.3,5.06-.5,18.64-1.7c6.21-.5,12.53-1.1,18.85-1.6l6.11-.5,6.11-.5,7.69-.6,7.69-.6,7.69-.6,7.69-.6,7-.6,7.06-.6c8.22-.7,16.54-1.3,24.86-1.9l4.32-.3,4-.3,4.21-.3,4.22-.3,10-.7,10.11-.7,3.9-.3,3.79-.3,3-.2,1-.1c.63,0,1.26-.1,1.9-.1l1.89-.1,12.11-.8,12.22-.8,8.11-.5,6.22-.4,6.21-.4,5-.3,2.43-.1a20.41,20.41,0,0,1,2.42-.1l7.9-.5,7.9-.5c2.63-.1,5.27-.3,7.9-.5l7.9-.5h0c2.63-.2,5.26-.3,7.9-.4l8-.5c4.22-.2,8.54-.5,12.85-.7l11.48-.6,8.12-.4,8.11-.4,4.21-.2h0l4.21-.2,8.53-.4c7.59-.4,15.17-.8,22.76-1.1h1.05l33-1.5c4.11-.2,8.32-.4,12.43-.5l3-.1c3.16-.1,6.32-.3,9.48-.4l12.54-.5,12.53-.5,7.37-.3,7.38-.3c6.32-.2,12.64-.5,19.06-.7l2.11-.1,2.1-.1,4.22-.1c.74,0,1.58-.1,2.32-.1l7.37-.3,7.37-.3,12.43-.4,13.27-.4,8.53-.3,21.81-.6,15.8-.4,2.74-.1c.94,0,1.89-.1,2.84-.1a17.25,17.25,0,0,0,2.32-.1l11.27-.3h.31l7.48-.2,3.27-.1,4.32-.1c9-.2,17.8-.4,26.75-.5h0l35.08-.6h1.89l4.85-.1,10.32-.1h.74l17.48-.2h.21l11.48-.1h2.74l14.22-.1c4.74,0,9.48-.1,14.22-.1l13.38-.1h67.41c6.22,0,12.54,0,18.75.1h3c6.32,0,12.64.1,18.85.1,6.53,0,13.07.1,19.6.1h2.52c6.74.1,13.59.1,20.33.2h.42l20.65.3c3.48,0,7,.1,10.43.2s7.05.1,10.53.2l10.43.2,10.43.2,9,.2,9,.2,29.6.6h1.47l10.33.2c2.84.1,5.68.1,8.42.2l1.79.1h1.48l5.69.1,7.16.2,5.27.1,5.26.1c1.69.1,3.37.1,5.16.1l1.79.1h1l2.74.1h1.9l9.37.3h1.48l2.31.1c1.79,0,3.58.1,5.27.2l5.27.2,5.05.2,3.48.1,1.58.1,5.37.2,6.21.2,5.8.2c1.58,0,3.16.1,4.74.2h1.26l2.85.1,1.47.1,1.58.1h.42c2.11.1,4.32.1,6.43.2l9.79.4,5.48.2h.21l5.69.2,2.53.1,2.52.1,6.22.3,13.16.6,9.48.4c.95,0,2,.1,2.95.1l2.32.1h.42l2.32.1h.1l2.43.1c3.26.1,6.63.3,9.9.4l13.27.6,3.27.1,3,.1h1.47l3.27.2,1.37.1,4.53.2,2.63.1,2.64.1h1l15.38.8,5.79.3,9.48.5a8.39,8.39,0,0,1,1.58.1h.42c1.16,0,2.21.1,3.37.2s2.21.1,3.37.2l3.27.2c1,.1,2.21.1,3.26.2s2.21.1,3.37.2l3.37.2,4.74.3,1.79.1,1.8.1,4.1.2,5.16.3,5.27.3,10.53.6,10.54.6h1.37l4.31.3,4.85.3,1.47.1c3.48.2,7,.4,10.43.7l10.64.7c2.32.1,4.64.3,6.95.4l2,.1,1.69.1,7.58.5,5.9.4,4.11.3,3.27.2h.21l1.68.1h.84c.32,0,.53.1.85.1l1.47.1,1.69.1,1.79.1,2.21.2h0l4.42.3h0l2.85.2,1.37.1,5.37.4,3.37.2h0l3.37.2a2.39,2.39,0,0,1,.84.1h.32l1.89.1,2,.1,5.37.4,8.32.6,4.21.3,4.21.3,2.32.2,1.37.1h.21l4.11.3,8.43.6,8,.6c3.37.3,6.74.5,10.11.8l10.12.8c6.42.5,12.85,1,19.27,1.6l13.06,1.1,13.06,1.1,13.28,1.1,10.95,1,19.38,1.8c2.63.2,5.37.5,8,.7a13.69,13.69,0,0,1,2,.2c7.69.7,15.48,1.5,23.17,2.2l9.37.9,9.27.9c1.48.1,2.85.3,4.32.4.42,0,.84.1,1.27.1l3,.3c1.36.1,2.63.3,4,.4l6,.6,4.21.4,5,.5c3.05.3,6.1.6,9.05,1l9.06.9,9,1,5.26.6,5.27.6,10.43,1.1c13.8,1.5,27.28,3.1,40.65,4.7l3.9.5,4.64.6,8.42,1,4.32.5,2,.3c3,.4,5.9.7,8.75,1.1l3.89.5,6.22.8,8.32,1c11.06,1.4,21.91,2.8,32.76,4.3l16,2.09c5.26.7,10.53,1.5,15.8,2.2s10.42,1.5,15.59,2.2a23.88,23.88,0,0,1,2.63.4l4.11.6,8.53,1.3c2.53.4,5.05.7,7.58,1.1l7.48,1.1,1,.1c2.74.4,5.58.8,8.32,1.3l5.06.8.52.1c2.43.4,4.85.8,7.38,1.1,9.37,1.5,18.53,2.9,27.59,4.4l2.53.4,1.37.3,4.21.7,2.11.3,4.53.7.63.1.63.1c.42.1.85.1,1.27.2l7.05,1.2,11.91,2,3.89.7c1.48.3,2.95.5,4.43.8,6.95,1.2,13.8,2.5,20.54,3.7l9.79,1.8,8.64,1.6,8.53,1.6c2.85.5,5.69,1.1,8.43,1.6,3.79.8,7.58,1.5,11.27,2.3l9.16,1.9,4,.8c4.42.9,8.84,1.9,13.16,2.8l2.53.5q33.81,7.35,62.57,14.7,20.37,5.25,37.92,10.5C3171.1,2224.92,3207.34,2244.42,3207.34,2261.92Z" transform="translate(-1.36 0)"/><path class="cls-5" d="M3004.68,2179.93c-11.17,10.5-27.7,21.09-49.82,31.79-24.34,11.8-55.51,23.5-93.75,35.2-25.49,7.8-54.25,15.4-86.16,23-13.59,3.2-27.81,6.39-42.55,9.59-81.53,17.4-181.28,34-300.62,49.1q-82.47,10.35-177.48,19.7c-172.54,16.79-376.77,30.59-615.35,39.89-6.74.3-13.59.5-20.33.8l-15.17.6c-37.7,1.4-74.89,6.5-111.86,9.6q-30.81-.3-61.3-.8c-24.23-.3-48.14-.7-71.94-1.2l-27.91-.6c-183.07-3.8-353.71-10.5-505.28-19.5q-60.2-3.6-116.18-7.7c-31.7-2.3-62.25-4.7-91.85-7.3q-32.86-2.85-63.83-5.79c-7.69-.7-15.27-1.5-22.75-2.2l-5.58-.6-2.11-.2-5.27-.6c-7.05-.7-13.9-1.4-20.75-2.2l-8.21-.9-10.43-1.1-7.37-.8-6.32-.7-9-1h-.31c-5.16-.6-10.33-1.2-15.28-1.8-.52-.1-1-.1-1.58-.2l-12.43-1.5-4.1-.5-3.9-.5-5.37-.7c-.95-.1-2-.3-2.95-.4s-2.21-.3-3.27-.4h0c-3.37-.4-6.74-.9-10.11-1.3l-4.63-.6-4.64-.6-2.1-.3-7-1c-1.68-.2-3.26-.5-4.95-.7l-1.58-.2-5.26-.8c-4.53-.7-9-1.3-13.38-2l-4.95-.8-1.37-.2-6.74-1-3.16-.5-6.32-1-6.22-1-5.16-.9c-1.37-.2-2.74-.4-4-.7l-3.05-.5-2.95-.5c-4.95-.9-9.8-1.7-14.54-2.6l-5-.9c-2.11-.4-4.21-.8-6.21-1.2-2.74-.5-5.48-1.1-8.22-1.6l-5.79-1.2c-2.32-.5-4.64-1-7-1.4-5.26-1.1-10.42-2.3-15.48-3.4l-2.42-.6-2.42-.6-3.69-.9a6.4,6.4,0,0,1-1.48-.4c-.84-.2-1.58-.4-2.31-.6l-.85-.2c-1.68-.4-3.37-.8-5-1.3l-4.32-1.1c-5.06-1.3-9.8-2.6-14.43-3.9,13.27-4.6,27.39-9.2,42.24-13.9h0c9.58-3,19.48-6.1,29.7-9.1,10.74-3.19,21.7-6.39,33.18-9.59,13.17-3.7,26.86-7.5,41-11.3h0c4.74-1.3,9.59-2.6,14.54-3.8q27.18-7.2,56.35-14.4c203.29-50.19,479.05-101.69,794.1-141.58h0c73.41-9.3,149-18,226.25-25.9h.1a17.18,17.18,0,0,0,2.32-.1l11.27-.3h.32l7.47-.2,3.27-.1,4.32-.1c9-.2,17.8-.4,26.75-.5h0l35.08-.6h1.89l4.85-.1,10.32-.1h.74l17.48-.2h.22l11.48-.1h2.74l14.21-.1c4.74,0,9.48-.1,14.22-.1l13.38-.1h67.41c6.22,0,12.54,0,18.75.1h2.95c6.32,0,12.64.1,18.86.1,6.53,0,13.06.1,19.59.1h2.53c6.74.1,13.58.1,20.33.2h.42l20.64.3,21,.3,20.75.4h.11l9,.2,9,.2,29.6.6h1.48l10.32.2c2.84.1,5.69.1,8.43.2l1.79.1c2.42,0,4.84.1,7.26.2l7.17.2,5.26.1,5.27.1c1.69.1,3.37.1,5.16.1l1.79.1,3.69.1h1.89l9.38.3h1.47l2.32.1c1.79,0,3.58.1,5.27.2l5.26.2,5.06.2,3.48.1,1.58.1,5.37.2,6.21.2,5.8.2c1.58,0,3.16.1,4.74.2h.94l3.16.1,1.48.1,1.79.1h.31c1.06,0,2.11.1,3.16.1l3.27.1,9.8.4,5.47.2h.21l5.69.2,2.53.1,2.53.1,6.21.3,13.17.6,9.48.4c.95,0,2,.1,2.95.1l2.31.1h.43l2.31.1h.11l2.42.1c3.27.1,6.64.3,9.9.4l13.27.6,3.27.1,2,.1,5.9.3,5.9.3,2.63.1,2.63.1H2132l15.38.8,5.79.3,9.48.5a8.39,8.39,0,0,1,1.58.1h.42c1.16,0,2.21.1,3.37.2s2.21.1,3.37.2l3.27.2c1,.1,2.21.1,3.26.2s2.21.1,3.37.2l3.37.2,4.74.3,1.79.1,1.79.1,4.11.2,5.16.3,5.27.3,10.53.6,10.54.6H2230l4.32.3,4.85.3,1.47.1c3.48.2,7,.4,10.43.7l10.64.7c2.32.1,4.63.3,6.95.4l2,.1,1.69.1,7.58.5,5.9.4,4.11.3,3.26.2h.21l1.69.1h.84l2.32.2,3.48.2,2.21.2h0l4.42.3h0l4.21.3h1.27l4.11.3,3.37.2h0l3.37.2a2.45,2.45,0,0,1,.84.1h.32l1.89.1,2,.1c7.38.5,14.75,1.1,22.12,1.6l2.32.2,1.37.1h.21l4.11.3,8.42.6,8,.6c3.37.3,6.74.5,10.11.8l10.11.8c6.43.5,12.85,1,19.28,1.6l13.06,1.1,13.06,1.1,13.17,1.3,11,1,19.38,1.8c2.64.2,5.38.5,8,.7l25.07,2.4,9.37.9,9.27.9c1.48.1,2.85.3,4.32.4.42,0,.84.1,1.26.1l13,1.3,4.21.4,14.12,1.5,9.06.9,8.95,1,5.27.6,5.26.6,10.43,1.1c13.8,1.5,27.28,3.1,40.66,4.7l3.89.5,4.64.6,8.43,1,4.31.5,2,.3c3,.4,5.89.7,8.74,1.1l3.9.5,14.64,1.8c11.06,1.4,21.91,2.8,32.75,4.3l16,2.1c5.26.7,10.53,1.5,15.79,2.2s10.43,1.49,15.59,2.19l6.74,1,8.54,1.3c2.52.4,5.05.7,7.58,1.1l7.48,1.1,1,.1c4.53.7,8.95,1.4,13.48,2l.53.1c2.42.4,4.84.8,7.37,1.1,9.37,1.5,18.54,2.9,27.6,4.4l2.52.4,5.69.9,2.11.3,5.16.9.63.1c.42.1.84.1,1.27.2l7.05,1.2,11.91,2,3.89.7c1.48.3,2.95.5,4.43.8,6.95,1.2,13.79,2.5,20.54,3.7l9.79,1.8,8.64,1.6,8.53,1.6c2.84.5,5.69,1.1,8.43,1.6,3.79.8,7.58,1.5,11.27,2.3l9.16,1.9,4,.8c4.43.9,8.85,1.9,13.17,2.8Z" transform="translate(-1.36 0)"/><path class="cls-6" d="M2549.12,2169.63c0,76.29-686.66,138.08-1533.63,138.08-278,0-538.66-6.7-763.44-18.3-27.91-1.4-55.19-3-81.84-4.6a37,37,0,0,1-23-9.49l-1.27-1.2c-.42-.4-.94-1-1.37-1.5l-.63-.7h0c-.21-.3-.52-.6-.73-.9-.32-.5-.64-.9-.95-1.4s-.53-1-.74-1.4a6.63,6.63,0,0,1-.32-.8,4.79,4.79,0,0,1-.31-.7v-.1c-.11-.2-.11-.4-.21-.6s-.21-.7-.32-1-.1-.3-.1-.5v-.1a.7.7,0,0,0-.11-.4,14.94,14.94,0,0,1-.21-2.1v-.9a1.36,1.36,0,0,1,.11-.7h0a.9.9,0,0,1,.1-.5v-.2a.56.56,0,0,1,.11-.4,1.71,1.71,0,0,1,.21-.7c0-.2.1-.3.1-.5s0-.2.11-.3a1.88,1.88,0,0,0,.21-.7h0c.1-.2.21-.5.31-.7.21-.5.53-1.1.74-1.6.21-.3.32-.6.53-.9l.63-.9a27.71,27.71,0,0,1,2.11-2.8l.84-.9a7.54,7.54,0,0,1,.95-.9h0l.84-.8,1.05-1c.74-.7,1.58-1.4,2.43-2.1a26.5,26.5,0,0,1,2.21-1.7l1-.7c.63-.5,1.36-1,2.1-1.5,1.79-1.2,3.69-2.4,5.8-3.7l1.68-1,1.69-1c.63-.3,1.15-.7,1.79-1,.31-.2.63-.3.94-.5s.64-.3.95-.5c1.27-.6,2.53-1.3,3.79-2l1.9-.9,3.16-1.5,3.27-1.5,1.68-.7,3.37-1.5,1.79-.8c1.48-.6,2.85-1.2,4.43-1.8l1.79-.7c.94-.4,1.89-.8,2.84-1.1.74-.3,1.58-.6,2.32-.9a18.74,18.74,0,0,1,2.1-.8l.85-.3.84-.3,2.21-.8,5.8-2.1c2-.7,4-1.4,6.1-2.1.95-.3,2-.7,2.95-1l2.22-.7,2.84-.9,5.69-1.8c1-.3,1.89-.6,3-.9l3.37-1h0c2.21-.7,4.53-1.4,6.84-2.1s4.64-1.4,7.06-2.1l7.27-2.1h0l3.69-1c1.05-.3,2.21-.6,3.37-.89s2.42-.7,3.68-1l3.16-.8c1.37-.4,2.64-.7,4-1,1.05-.3,2-.5,3.05-.8,1.37-.4,2.84-.8,4.32-1.1l5.69-1.5,11.9-2.9,3.79-.9c5.27-1.2,10.64-2.5,16.12-3.8,4.31-1,8.63-1.9,12.95-2.9,5.06-1.1,10.22-2.3,15.49-3.4.73-.1,1.37-.3,2.1-.4s1.37-.3,2.11-.4l2.63-.6,2.64-.6c3.79-.8,7.58-1.6,11.48-2.4l.63-.1,8.43-1.7,5.05-1c7.59-1.5,15.38-3,23.28-4.5l2.42-.5,2.42-.4c4.85-.9,9.59-1.8,14.54-2.7l4.95-.9,4.95-.9c1.69-.3,3.37-.6,4.95-.9,10.54-1.8,21.28-3.7,32.23-5.5l11.06-1.8,8.54-1.4,5.37-.9c1.79-.3,3.58-.6,5.37-.8s3.58-.6,5.48-.9l9.27-1.4,6.1-.9,6.22-.9,6.21-.9,5.59-.8,5.68-.8c3.8-.6,7.59-1.1,11.49-1.6s7.68-1.1,11.58-1.6l8.74-1.2,8.85-1.2,13.8-1.9,9.48-1.3,11.48-1.5,14.22-1.8,7.16-.9,14.43-1.8,7.27-.89q10.9-1.35,22.12-2.7l15-1.8c2.42-.3,4.74-.6,7.16-.8l7.16-.8,7.17-.8,7.26-.8c1.27-.1,2.43-.3,3.69-.4l3.69-.4,10-1.1,10.12-1.1c16.32-1.8,33-3.5,49.71-5.1l10.43-1,5-.5,5-.5,3.9-.4,3.9-.4,15.58-1.5,7.06-.6h.74l5.06-.5,5.05-.4c12.32-1.1,24.86-2.2,37.5-3.3,4.11-.4,8.11-.7,12.22-1l15.27-1.3c5.06-.4,10.22-.8,15.38-1.3l14-1.1c8.21-.7,16.53-1.3,24.86-1.9l8.32-.6,8.32-.6c6.63-.5,13.38-1,20.12-1.4,2.52-.2,5.16-.4,7.69-.5l3.89-.3,3.9-.3c10.74-.7,21.59-1.5,32.44-2.2,4.11-.3,8.22-.5,12.43-.8l5-.3,4.85-.3,7.9-.5c2.63-.2,5.26-.3,7.9-.5l15.8-1h0l15.9-.9c8.11-.5,16.22-.9,24.33-1.4l16.22-.9,4.22-.2,12.74-.7c7.59-.4,15.17-.8,22.75-1.1H1228l33-1.5c8.32-.4,16.64-.7,25-1.1s16.75-.7,25.07-1l14.64-.6c6.32-.2,12.64-.5,19.06-.7l4.22-.1,4.21-.2,2.32-.1c4.95-.2,9.79-.3,14.75-.5l25.59-.8,8.53-.3,21.81-.6c5.26-.1,10.53-.3,15.8-.4l5.37-.1h.21c.74,0,1.58-.1,2.32-.1l11.48-.3,15.06-.3c9-.2,17.8-.4,26.75-.5h0l35.08-.6,17.69-.2,17.7-.2c3.79,0,7.58-.1,11.48-.1h2.74c4.74-.1,9.48-.1,14.22-.1s9.48-.1,14.22-.1c9.27-.1,18.43-.1,27.7-.1h29.7q85.8,0,169.17,1.5c11.9.2,23.8.4,35.6.7l11.8.3,11.79.3,11.8.3,23.38.6,5.16.1,5.48.2h1.9l9.37.3a7.37,7.37,0,0,1,1.48.1c7.69.2,15.48.5,23.17.7l5.37.2,6.22.2,11.48.4,6.21.2h.42c2.22.1,4.32.1,6.43.2l9.79.4,5.48.2,5.9.2,5.06.2,6.21.3c4.42.2,8.85.4,13.17.5l9.48.4,5.68.2,4.85.2,9.9.4,13.27.6,11.17.5,5.9.3,5.26.3,1.06.1,15.38.8,5.79.3,9.48.5,1.58.1h.42l6.74.4,6.53.4,6.74.4,4.74.3,3.58.2,4.11.2,10.43.6,21.06,1.3.95.1,9.69.6,1.48.1,10.43.6,10.63.7c2.32.1,4.64.3,7,.4l2,.1,1.68.1c3.58.2,7.06.5,10.54.7l7,.5c1.16.1,2.42.1,3.58.2,3.47.2,7.06.5,10.53.7l4.43.3,2.84.2,2.74.2c3.58.3,7.27.5,10.85.8l.84.1,2.21.1,7.27.5,8.32.6,8.43.6,2.32.2,1.36.1h.22l12.53,1,8,.6,10.12.8,10.11.8C2494.24,2123.43,2549.12,2148,2549.12,2169.63Z" transform="translate(-1.36 0)"/><path class="cls-1" d="M1230.58,2123.43c0,39.6-89.64,75.29-233.2,100.39-133.14,23.4-312.73,37.7-510.33,37.7-44.77,0-88.69-.7-131.25-2.1-73.31-2.4-142.83-6.9-207-12.9.74-.7,1.58-1.4,2.42-2.1s1.48-1.2,2.21-1.7c.32-.2.63-.5.95-.7.74-.5,1.37-1,2.11-1.4,1.79-1.2,3.68-2.4,5.79-3.7l1.69-1c.52-.3,1.15-.7,1.68-1s1.16-.6,1.79-1c.32-.2.63-.3.95-.5s.63-.3,1-.5c1.26-.7,2.53-1.3,3.79-2l1.9-.9,3.16-1.5c1.05-.5,2.21-1,3.26-1.5l1.69-.8c1.15-.5,2.21-1,3.37-1.5l1.79-.8c1.47-.6,2.84-1.2,4.42-1.8.53-.2,1.16-.5,1.79-.7l2.85-1.1,2.31-.9,2.11-.8c.32-.1.53-.2.84-.3s.53-.2.84-.3l2.22-.8c1.89-.7,3.79-1.4,5.79-2.1s4-1.4,6.11-2.1l2.95-1a18.81,18.81,0,0,1,2.21-.7l2.84-.9,5.69-1.8c.95-.3,1.9-.6,2.95-.9l3.37-1h0c2.21-.7,4.53-1.4,6.85-2.1l7.06-2.1,7.26-2.1h0l3.69-1c1-.3,2.21-.6,3.37-.9l3.69-1c1-.3,2.1-.6,3.16-.8,1.37-.4,2.63-.7,4-1,.95-.3,2-.5,2.95-.8l4.32-1.1,5.69-1.4c3.89-1,7.9-1.89,11.9-2.89l3.79-.9c5.27-1.2,10.64-2.5,16.12-3.8,4.31-1,8.63-2,12.95-2.9,5.06-1.1,10.22-2.2,15.49-3.4l2.1-.4a15.67,15.67,0,0,1,2.11-.4l2.63-.6,2.64-.6c3.79-.8,7.58-1.6,11.48-2.4l.63-.1,8.53-1.7,5.06-1c7.58-1.5,15.37-3,23.27-4.5.85-.1,1.58-.3,2.43-.4l2.42-.4c4.84-.9,9.58-1.8,14.54-2.7l4.95-.9,4.95-.9,5-.9c10.53-1.9,21.27-3.7,32.23-5.5l11.06-1.8,8.53-1.4,5.37-.9,5.37-.8c1.79-.3,3.59-.6,5.48-.9l9.27-1.4,6.11-.9c2-.3,4.11-.6,6.21-.9l6.22-.9,5.58-.9,5.69-.8c3.79-.6,7.58-1.1,11.48-1.6s7.69-1.1,11.59-1.6l8.74-1.2,8.85-1.2,13.8-1.9,9.48-1.3,11.48-1.5,14.22-1.8,7.16-.9,14.43-1.8,7.27-.9c7.26-.9,14.64-1.8,22.12-2.6l14.95-1.8c2.32-.3,4.74-.6,7.17-.8l7.16-.8c2.42-.3,4.84-.6,7.27-.79s4.84-.6,7.26-.8l3.69-.4,3.69-.4c3.37-.4,6.63-.7,10-1.1l10.12-1.1c16.32-1.7,33-3.5,49.71-5.1,3.48-.4,6.95-.7,10.43-1.1,1.58-.1,3.27-.3,5-.5l5-.5,3.9-.4,3.9-.4,15.58-1.5c2.32-.2,4.74-.4,7.06-.7H863l5.06-.5,5.06-.5c12.32-1.1,24.85-2.2,37.49-3.3,4-.4,8.11-.7,12.22-1l15.28-1.3,15.37-1.3c4.64-.4,9.38-.7,14-1.1l24.86-1.9,8.32-.6,8.32-.6c6.64-.5,13.38-1,20.12-1.4,2.53-.2,5.16-.4,7.69-.5l3.9-.3,3.9-.3c10.74-.8,21.59-1.5,32.44-2.2,4.11-.3,8.21-.5,12.43-.8l5-.3,4.84-.3,7.9-.5c2.64-.2,5.27-.3,7.9-.5l15.8-1h0l15.91-.9c8.11-.5,16.22-.9,24.33-1.4l16.11-.9,4.22-.2c4.21-.2,8.53-.4,12.74-.7h0a104.9,104.9,0,0,1,17,16.8h0a57.34,57.34,0,0,1,6.11,9.6A34.7,34.7,0,0,1,1230.58,2123.43Z" transform="translate(-1.36 0)"/><path class="cls-7" d="M1789.47,2185.63c-156.73,0-306.62,1.6-444.5,4.5h0c-460,9.79-786.09,34.09-786.09,62.69,0,22.89,210,43.09,530.66,55.29,159.79-25.9,259.54-62.49,259.54-103.19a28,28,0,0,0-.84-6.6,28.7,28.7,0,0,1,.84,6.6c0,40.7-99.75,77.29-259.54,103.19,198.76,7.5,439.87,11.9,699.93,11.9,679.6,0,1230.59-30.1,1230.59-67.19S2469.07,2185.63,1789.47,2185.63Z" transform="translate(-1.36 0)"/><path class="cls-8" d="M944.08,341c-23.7,24.19-22.23,62.09,3.26,84.59a64.9,64.9,0,0,0,25.6,13.69c3.79,26,24.86,46.7,52.14,51a70.64,70.64,0,0,0,10.32.8c34.87,0,63.1-26.8,63.1-59.9,0-20.49-11.06-39.59-29.29-50.59a64.79,64.79,0,0,0-16.53-7,58.34,58.34,0,0,0-14.86-31.29c36.87,8,74.68-8.9,91.64-40.9a70,70,0,0,0,19.81,3.8c13.69,30.4,50.87,44.4,82.79,31.4s46.76-48.3,33.07-78.59c-9.59-21.3-31.28-35.4-55.62-36.2l-.1-.2c-13.9-30.3-51-44.19-83-31a61.9,61.9,0,0,0-20.65,13.8c-36.13-26-87.63-19.29-115,15a76.67,76.67,0,0,0-12.43,22.2c-34.23,6.2-56.56,37.59-50,70.09a60.72,60.72,0,0,0,15.8,29.3Z" transform="translate(-1.36 0)"/><path class="cls-9" d="M1049.94,1503.51l54,536.93,195.39-24.89-23.17-17.5c-47.93-36.2-74.68-91.89-72-149.88l19.17-425.75Z" transform="translate(-1.36 0)"/><path d="M1100.81,2077l65.41-.3c2.43,0,4.43-3.2,4.32-7.2l-.1-22.6c0-1.9-1-3.6-2.22-3.6-26.85-2-52.56-5.8-69.09-17.09-1.48-1-3.16.7-3.16,3.4l.21,40.29C1096.39,2073.84,1098.39,2077,1100.81,2077Z" transform="translate(-1.36 0)"/><path class="cls-10" d="M1095.44,2040.44c15.7,8.8,47,10.9,74.26,12l6.11.2c39.08,1.4,56.77,26.4,107.33,26.1s112.6-31.3,112.6-31.3c-.1-11.6-11.48-19.79-33.81-19.69h-2.11c-2.84.1-5.69.1-8.32.1-19.27.1-33.81-1.9-52.24-12.4-18.86-10.7-32-35.5-41.29-35.4a5.18,5.18,0,0,0-3,1c-7.9,5.6-10.54,19.4-11.27,23.5h.21l1.47,14-3.26-.6c-5.06-.8-107.34-17.4-146.2-45.3a2.4,2.4,0,0,0-3.16.4c-.11.1-.11.2-.21.3-6.64,12.5-7.38,34.2-7.27,53C1085.43,2032.45,1089.23,2037,1095.44,2040.44Z" transform="translate(-1.36 0)"/><path class="cls-11" d="M933.86,1503.51l10.22,101.69,43.71,435.24,195.39-24.89-23.17-17.5c-47.93-36.2-74.68-91.89-72-149.88L1096.6,1656l7.9-175.48,2.63-58.19-89.32,41.8Z" transform="translate(-1.36 0)"/><path d="M984.63,2077l65.41-.3c2.43,0,4.43-3.2,4.32-7.2l-.1-22.6c0-1.9-1-3.6-2.11-3.6-26.86-2-52.56-5.8-69.1-17.09-1.47-1-3.16.7-3.16,3.4l.21,40.29C980.21,2073.84,982.21,2077,984.63,2077Z" transform="translate(-1.36 0)"/><path class="cls-10" d="M979.26,2040.44c15.59,8.8,47,10.9,74.26,12l6,.2c39.08,1.4,56.78,26.4,107.34,26.1s112.59-31.3,112.59-31.3c-.1-11.6-11.48-19.79-33.81-19.69h-2.1c-2.85.1-5.69.1-8.32.1-19.28.1-33.82-1.9-52.25-12.4-18.85-10.7-32-35.5-41.29-35.4a5.21,5.21,0,0,0-3,1c-7.9,5.6-10.53,19.4-11.27,23.5h.21l1.48,14-3.37-.5c-5.06-.8-107.34-17.4-146.2-45.3a2.4,2.4,0,0,0-3.16.4c-.11.1-.11.2-.21.3-6.64,12.5-7.38,34.2-7.27,53C969.25,2032.45,973.05,2037,979.26,2040.44Z" transform="translate(-1.36 0)"/><path class="cls-12" d="M1674.34,633.42c1.48,1.4,2.85,2.8,4.32,4.2,15.27,14.7,26.65,24.2,46.24,31.3,2.53.9,5.06,1.8,7.8,2.6,41.5,12.19,80.47-3.6,121.34-5.9l2.84-.2c32.23-1.3,75.21-25.9,77.1-59.8.85-13.7-6.53-27-17.48-35.89-37.08-30.5-101.86-22.6-144.31-2.9-3,1.4-6,2.9-8.74,4.4-23.49,12.9-43.18,29.69-66.88,41.19a133.75,133.75,0,0,1-20.23,7.9c-.52.2-1,.3-1.58.5a8,8,0,0,0-4.32,2.9C1668.76,626.92,1671.6,630.72,1674.34,633.42Z" transform="translate(-1.36 0)"/><path class="cls-13" d="M1675,620.72a54.11,54.11,0,0,0,3.69,16.8c7.37,17.7,24.75,27,46.24,31.3,2.63.5,5.27,1,8,1.4,40.87,5.79,93-3.1,121.23-4.7.95-.1,2-.1,2.85-.2,32.23-1.3,75.2-25.9,77.1-59.8.84-13.7-6.53-27-17.49-35.89-37.07-30.5-101.85-22.6-144.3-2.9a57.76,57.76,0,0,0,5.48,46.19c2.42,4,5.47,7.9,6.21,12.5,2.42,14.3-54.77-2.2-87.42-13.2a133.75,133.75,0,0,1-20.23,7.9A2.79,2.79,0,0,1,1675,620.72Z" transform="translate(-1.36 0)"/><path class="cls-14" d="M1122.51,667.32c5.27,14.79,111.55,65,200.76,101.38,60.88,24.9,113.76,43.4,121.34,40,13.38-6,167.27-57.79,252.69-86.39,29.81-10,45.4-41,35-69.29a16.71,16.71,0,0,0-.84-2.1h0c-11.06-26.1-41.18-39.9-69.52-31.9l-229.09,64.89-169.17-78.59L1164.12,559C1164.12,559.13,1113.66,642.32,1122.51,667.32Z" transform="translate(-1.36 0)"/><path class="cls-15" d="M1122.51,667.32c5.27,14.79,111.55,65,200.76,101.38a1012.52,1012.52,0,0,1-59.51-163.38L1164.22,559C1164.12,559.13,1113.66,642.32,1122.51,667.32Z" transform="translate(-1.36 0)"/><path class="cls-16" d="M1030,556.23c36.13,44.59,103.44,53,150.41,18.7a104.55,104.55,0,0,0,16.54-15,77.33,77.33,0,0,0-57.19-20.2l-37.5,2.2A267.91,267.91,0,0,0,1030,556.23Z" transform="translate(-1.36 0)"/><rect class="cls-17" x="1054.89" y="537.13" width="119.13" height="113.09"/><path class="cls-14" d="M984.11,1561.7h287.34l-18.85-346.15-5.8-107-5-90.79-4.21-76.69L1234.48,884l-5.79-108.79-7.9-145.58-1.16-22.4a69.24,69.24,0,0,0-22.54-47.29,113.41,113.41,0,0,1-11.91,11.4c-2,1.7-4.1,3.2-6.32,4.8-47,33-113.12,24.09-148.72-19.8-100.6,34.79-168,124.88-169.59,226.47l-.31,23.8-7.9,516.13-1.69,107C849.39,1501,909,1559.9,984.11,1561.7Z" transform="translate(-1.36 0)"/><path class="cls-18" d="M933.86,1503.51l10.22,101.69a401.22,401.22,0,0,0,80.79,34.29,546.7,546.7,0,0,0,71.73,16.5l7.9-175.48a236.51,236.51,0,0,0-38.87-11.39,263.64,263.64,0,0,0-47.82-5Z" transform="translate(-1.36 0)"/><path class="cls-19" d="M987.69,1561.8h283.76l-8.85-162.28H1017.28s8.33-92.88,18.65-207.67c-72.68,19.8-136.51,66.49-183.8,130.78l-1.69,107c-1.16,71.89,59.41,131.08,135.14,132.08C986.32,1561.7,987.05,1561.8,987.69,1561.8Z" transform="translate(-1.36 0)"/><path class="cls-13" d="M1254.18,318.16l-14.44,157.08c-5.16,56.39-57.51,98.19-116.91,93.29-56.36-4.6-99.44-49.7-98.7-103.39-13.8,4-28.44-3.5-32.65-16.6s3.69-27,17.48-31a29.79,29.79,0,0,1,9.9-1A28.83,28.83,0,0,1,1028,419l11-118.69Z" transform="translate(-1.36 0)"/><path class="cls-12" d="M1194,313.16,1179.5,470.24c-4.22,45.49-39.5,82.79-86.59,91.69-41.92-15.5-69.41-54.09-68.88-96.79-13.8,4-28.44-3.5-32.66-16.6s3.69-27,17.49-31a29.79,29.79,0,0,1,9.9-1,28.7,28.7,0,0,1,9.16,2.4L1039,300.26Z" transform="translate(-1.36 0)"/><path class="cls-13" d="M1417.86,973.58c53.51,11,127.45-.3,156.42-34.6a55,55,0,0,0,7-10.6C1620.2,851,1468.74,837.09,1396,874.29c-15.38,7.9-27.28,18-33.07,30.3C1345.29,941.68,1375,964.78,1417.86,973.58Z" transform="translate(-1.36 0)"/><path class="cls-17" d="M1417.86,973.58c53.51,11,127.45-.3,156.42-34.6-31.71-19.7-73.42-34.59-99.44-45.29-27.38-11.2-52.13-15.4-78.89-19.5-15.38,7.9-27.28,18-33.07,30.3C1345.29,941.68,1375,964.78,1417.86,973.58Z" transform="translate(-1.36 0)"/><path class="cls-14" d="M984.11,1561.7c127.13-71.79,212.34-203.47,212.34-354a392.37,392.37,0,0,0-44.66-182.18h0l-30,2.6c-76.47,6.5-145.46-43.29-159.36-114.89l-14-77.69a444.55,444.55,0,0,0-88.16-29l-7.9,516.13-1.69,107C849.49,1501,909,1559.8,984.11,1561.7Z" transform="translate(-1.36 0)"/><path class="cls-20" d="M940,768.7l20.86,201.68c13.9,71.69,87.11,139.28,163.58,132.68l121,5.5-9.06-167.48-106.8,6.1c-16.22.9-30.65-9.8-33.39-25.1l-28.86-158c-6.43-35.19-41.5-58.89-78.58-53.29l-6.42,1C944.18,717.71,933,732.71,940,768.7Z" transform="translate(-1.36 0)"/><polygon class="cls-21" points="1262.5 1399.53 1261.24 1399.53 1262.5 1422.42 1262.5 1399.53"/><path class="cls-10" d="M1017.28,1399.52H1262.6l-10-184a298,298,0,0,0-216.67-23.8C1025.61,1306.54,1017.28,1399.52,1017.28,1399.52Z" transform="translate(-1.36 0)"/><path class="cls-21" d="M1262.6,1399.52l-10-184Z" transform="translate(-1.36 0)"/><path class="cls-15" d="M1084.38,778.3c0,16.4,10.22,22,26.54,27.3s34.24,3.7,51.2.5c23.48-4.4,47.5-12.2,64.25-28.5.84-.8,1.58-1.6,2.42-2.4l-7.9-145.58c-5.16-8.7-10.64-17.2-16-25.7-6.74-10.7-13.59-21.49-19.7-32.59a71.87,71.87,0,0,1-6.32,4.8l.85,3.4C1197.3,640.32,1187.71,800.7,1084.38,778.3Z" transform="translate(-1.36 0)"/><path class="cls-20" d="M931.86,614.72c23.81-10.3,78.16-25.69,98.49-2.1,18.75,21.8,29.38,49.8,33.49,77.39,3.9,25.4,12.85,47.8,10.53,74.19,0,.1-10.11,112-21.69,241.77-2.43,26.2-4.85,53.2-7.17,80.09-3.26,36-6.53,71.79-9.48,105.79a298,298,0,0,1,216.67,23.8l-4.84-89.19L1241.11,1002l-21.59-394.75L1197,559.93V736s-15.06,85.09-100,32.79c-4.42-38.29-9.06-76.89-20.33-114-8-26.5-21-58-50.87-68-15.17-5-32.23-3.3-47.4.5C959.46,591.92,949.24,607.12,931.86,614.72Z" transform="translate(-1.36 0)"/><path class="cls-20" d="M1045.51,1086.06a507.47,507.47,0,0,0,202.35,40.4L1241.11,1002a123.63,123.63,0,0,0-42.23-15.19c-43.82-7.8-89.64,1.5-133.35-7.2l-12.75,26.49C1050.36,1032.17,1047.83,1059.07,1045.51,1086.06Z" transform="translate(-1.36 0)"/><path class="cls-22" d="M1076.9,768.6c25.81,61.6,80.16,111.79,145.78,134.59-20.75-5.8-43.82,3.5-63.83,11.09a127.34,127.34,0,0,1-44.55,8.4c-19.39.2-40.56-5.1-51.41-20.29-13.69-19.3-5.58-45.2,2.95-67l7.59-19.19" transform="translate(-1.36 0)"/><path class="cls-15" d="M948.19,835.49l14,77.69c13.9,71.6,83,121.49,159.36,114.89l30-2.6C1108.29,942.28,1036.67,875.29,948.19,835.49Z" transform="translate(-1.36 0)"/><path class="cls-14" d="M920.06,679.61l28.23,156c88.38,39.8,160.11,106.79,203.5,190h0l120.92-10.4c31.92-2.7,63.73-5.5,89.75-7.7,34.54-3,61.3-29.89,62.56-62.79l.11-1.6c1.47-35.09-27.28-64.59-64.15-66a50.55,50.55,0,0,0-6.74.1l-76.15,4.4-146.94,8.5c-16.22.9-30.55-9.9-33.39-25.1l-23.39-136.88c-.63-3.6-1.36-7.7-2.1-12.4l-10-58.59c-6.53-37.2-43.61-62.4-82.89-56.2s-65.84,41.5-59.31,78.69Z" transform="translate(-1.36 0)"/><polygon class="cls-22" points="1790.74 600.33 1831.08 616.22 1915.45 649.42 1953.79 664.42 1957.48 656.02 1990.97 579.23 1911.98 548.13 1868.58 531.03 1827.92 515.14 1807.8 561.23 1790.74 600.33"/><ellipse class="cls-8" cx="1208.05" cy="430.15" rx="10.53" ry="10"/><ellipse class="cls-8" cx="1114.41" cy="430.15" rx="10.53" ry="10"/><path class="cls-8" d="M1086,408.85h.42l53.93-2.3a4.11,4.11,0,1,0-.21-8.2h-.21l-54,2.3a4.21,4.21,0,0,0-4.11,4.3,4.41,4.41,0,0,0,4.21,3.9Z" transform="translate(-1.36 0)"/><path class="cls-8" d="M1234.58,412.35a4.06,4.06,0,0,0,.42-8.1l-40.13-5.7a4.28,4.28,0,0,0-5.16,3,4.05,4.05,0,0,0,3.16,4.9,1.64,1.64,0,0,0,.74.1l40.24,5.7A1.62,1.62,0,0,0,1234.58,412.35Z" transform="translate(-1.36 0)"/><path class="cls-8" d="M1217.63,434.74a1.37,1.37,0,0,0,1.26-.8,16.76,16.76,0,0,0,0-15.49,1.36,1.36,0,0,0-1.9-.5,1.22,1.22,0,0,0-.52,1.8,14.18,14.18,0,0,1,0,13,1.37,1.37,0,0,0,.63,1.8h0C1217.2,434.64,1217.41,434.64,1217.63,434.74Z" transform="translate(-1.36 0)"/><path class="cls-8" d="M1124.3,433.14a1.35,1.35,0,0,0,1.37-1.1,16.85,16.85,0,0,0-4.63-14.79,1.52,1.52,0,0,0-2,0,1.33,1.33,0,0,0,0,1.9h0a14.19,14.19,0,0,1,3.79,12.49,1.35,1.35,0,0,0,1.16,1.5h.31Z" transform="translate(-1.36 0)"/><path class="cls-15" d="M1272.61,1015.07l89.74-7.7c34.55-3,61.3-29.89,62.46-62.79l.11-1.6a61.8,61.8,0,0,0-21-48.69c-2.22,9.1-6.64,17.8-11.59,25.89C1365.83,963.88,1322.32,997.37,1272.61,1015.07Z" transform="translate(-1.36 0)"/><path class="cls-23" d="M1869.94,531l46.87,118.29,38.35,15.1,3.68-8.4c-14.85-36.1-30.86-74.19-45.5-108Z" transform="translate(-1.36 0)"/><path class="cls-23" d="M1792.1,600.32l40.45,15.9c-7.79-18.7-15.69-37.29-23.28-55Z" transform="translate(-1.36 0)"/><path class="cls-8" d="M989.79,376c1.37,11.7,5,23.8,13.8,32.1a49.94,49.94,0,0,0,7.69,6.2c5.48,3.4,10.74,3.8,17.49-1.2,18.43-1.9,32.33-16.1,40.55-32.4a80.93,80.93,0,0,0,4.53-10.7,140.53,140.53,0,0,0,5-18.3c4.53,11.3,16,18.8,28.75,18.8h40.66c13.27,0,25.07-8.1,29.28-20.1,4.22,12,16,20.1,29.29,20.1h31.07c17.06,0,30.86-13.1,30.86-29.29h0v-38.6a27.43,27.43,0,0,0-.42-5.1c-2.63-14-15.38-24.2-30.34-24.2h-31.07c-13.27,0-25.07,8.1-29.28,20.1-4.21-12-16-20.1-29.28-20.1h-40.66a31.2,31.2,0,0,0-26.75,14.8c-.43-5.2-.85-10.3-1.27-15.5-.21-1.8-.31-3.49-.53-5.19-13.16-3.4-32.75,2.5-44.45,9.19s-21,16.8-28,27.9A110.31,110.31,0,0,0,989.79,376Z" transform="translate(-1.36 0)"/><path class="cls-24" d="M1011.28,414.15c5.48,3.4,10.74,3.8,17.49-1.2,18.43-1.9,32.33-16.1,40.55-32.4a80.93,80.93,0,0,0,4.53-10.7,140.53,140.53,0,0,0,5-18.3c4.53,11.3,16,18.8,28.75,18.8h40.66c13.27,0,25.07-8.1,29.28-20.09,4.22,12,16,20.09,29.29,20.09h31.07c17.06,0,30.86-13.1,30.86-29.29h0v-38.6a27.43,27.43,0,0,0-.42-5.1c9.16-31.89-10.64-64.89-44.24-73.59a68.7,68.7,0,0,0-14.22-2.1l-.1-.2C1100.5,226.37,1013.81,310.46,1011.28,414.15Z" transform="translate(-1.36 0)"/><path class="cls-25" d="M1148.42,509.74c0,7.69-6.53,13.89-14.64,13.89h-9.69c-8.11,0-14.64-6.2-14.64-13.89v-13.9h24.33c8.11,0,14.64,6.2,14.64,13.9Z" transform="translate(-1.36 0)"/><path class="cls-26" d="M1144.53,499.34c-.85,3.2-4.64,5.6-9.06,5.6h-13c-5.06,0-9.27-3.2-9.27-7.1v-2h20.54A17.66,17.66,0,0,1,1144.53,499.34Z" transform="translate(-1.36 0)"/><path class="cls-16" d="M925,676.21a66.29,66.29,0,0,0,.64,9.1l13.16,97.89c1.06,7.8,8.53,13.2,16.65,12.3L991,791.2l83.53-10.1c8.22-1,14-8.1,13-15.8h0l-13.17-97.88c-5.27-39-42.77-66.6-83.84-61.6-37.29,4.4-65.42,34.6-65.42,70.39Z" transform="translate(-1.36 0)"/><path class="cls-15" d="M973.15,676.21a66.27,66.27,0,0,0,.63,9.1L987,783.2a14,14,0,0,0,4,8l83.53-10.1c8.22-1,14-8,13-15.8v-.1l-13.17-97.88c-3.58-27-23.07-49.6-50.24-58.4C993.69,618.72,973.26,645.72,973.15,676.21Z" transform="translate(-1.36 0)"/><path class="cls-26" d="M985.69,735.31c5.47,4.6,12.32,7.3,21.17,6.9-2.32-3.1-4-5.5-5.8-7.8-5.58-7.2-7.47-15.2-3.37-23.5,7.8-15.5,3.16-28.6-6.53-41.09-2.31-3-4.32-3-7.58-1.3a25.81,25.81,0,0,0-13.48,15.59C964,704.31,969.46,721.41,985.69,735.31Z" transform="translate(-1.36 0)"/><path class="cls-26" d="M1012.12,738.61c2.22,2.2,4.32,2.7,7.59,1.7,10.43-3.1,15.69-10.1,17.59-18.7,3.9-18.4-1-34.8-14.54-48.5-6.53-6.49-15.06-9.89-27-7.19,2.42,3.5,4.11,6.59,6.32,9.29,7.69,9.7,8.63,20.4,4.11,31.8C1001.59,718.81,1002.85,729.41,1012.12,738.61Z" transform="translate(-1.36 0)"/><path class="cls-26" d="M1880.9,1030v3.3c0,6.7,5.68,12.1,12.74,12.1h415.64c7.06,0,12.74-5.4,12.74-12.1h0V1030H2220.91c4.84-3.8,7.37-9.8,7.26-17.7-.21-14.2,4.22-27.29,9.27-40.39,5.69-14.6,12.12-28.9,16.75-43.7a74.2,74.2,0,0,0,3.48-26.29c-.63-15-11-24.3-24.33-30.8-3.27-1.6-5.27-3.3-6-7.1-1.79-9.2-10.22-15.2-20.43-15.3-8-.2-16.12-.1-24.23-.2-.1,0-.31-.2-.84-.4,5.9-9.4,5.58-15.2-.84-20.19a17.94,17.94,0,0,0-4.53-2.5h-14.12a16.1,16.1,0,0,0-5,2.8c-6.11,5.09-6.21,10.89.11,20.49h-17.38c-3.48,0-6.95-.2-10.43.1a20.41,20.41,0,0,0-19.07,20c-.21,11.1-.21,22.3-.31,33.4,0,.1-.21.3-1,1.2-4.74-4-10.12-7.6-14.22-12.1-7.17-7.8-15-7.7-23.81-3.3-3.05,1.5-6.32,2.7-9.27,4.4-1.47.8-3.58,2.4-3.58,3.6s2,3.2,3.48,3.7c12.11,4.3,18,13.79,23,24.09a105.28,105.28,0,0,1,4,11.4c3.58,10.6,9.38,19.9,18.75,27,1.69,1.3,2.74,4.3,2.84,6.5.21,14.4.11,28.79.11,43.29,0,7.5,2,13.1,5.9,17a9.12,9.12,0,0,0,1.47,1.3h-67.73c20.86-11.7,35.71-33.6,38.24-59.79a8.22,8.22,0,0,0-2.21-6.3,8.85,8.85,0,0,0-6.53-2.8H1950.94a9.05,9.05,0,0,0-6.63,2.8,7.84,7.84,0,0,0-2.22,6.3c.21,1.8.43,3.7.74,5.6-7.9-1-14.32.9-17.27,5.3-2.74,4-2.43,9.4,1,15.29,3.16,5.6,8.63,11,15.48,15.2,7.69,4.7,16.22,7.3,23.28,7.1a74.59,74.59,0,0,0,15.16,11.3H1880.9Zm348.22-137.18c7.69,1.8,10.75,6,11,14.6.21,12.29-3.37,23.79-8.64,34.79a21.21,21.21,0,0,1-2.32,3.1Z" transform="translate(-1.36 0)"/><path class="cls-6" d="M1880.9,1030v3.3c0,6.7,5.68,12.1,12.74,12.1h197A78.94,78.94,0,0,0,2099,1030h-48.88a75.25,75.25,0,0,0,34.66-42.59,80.08,80.08,0,0,0,3.58-17.1,8.22,8.22,0,0,0-2.21-6.3,9.7,9.7,0,0,0-6.53-2.8H1950.94a9.05,9.05,0,0,0-6.63,2.8,7.84,7.84,0,0,0-2.22,6.3c.21,1.8.43,3.7.74,5.6-7.9-1-14.32.9-17.27,5.3-2.74,4-2.43,9.4.94,15.29,3.16,5.6,8.64,11,15.49,15.2,7.69,4.7,16.22,7.3,23.28,7.1a74.59,74.59,0,0,0,15.16,11.3H1880.9Z" transform="translate(-1.36 0)"/><path class="cls-26" d="M2049.53,1017.87c2.95,1.8,10.43.9,13.7-.4s5.37-3.8,7.37-6.3a99.28,99.28,0,0,0,14.32-23.79,79.48,79.48,0,0,0,3.58-17.1,8.19,8.19,0,0,0-2.21-6.3,9.05,9.05,0,0,0-6.63-2.8h-17.8A141.08,141.08,0,0,1,2049.53,1017.87Z" transform="translate(-1.36 0)"/><path class="cls-5" d="M1880.9,1030v3.3c0,6.7,5.68,12.1,12.74,12.1h169.9c-32.86-20-58-49.5-71.73-84.19h-40.87a9.05,9.05,0,0,0-6.63,2.8,7.84,7.84,0,0,0-2.22,6.3c.21,1.8.43,3.7.74,5.6-7.9-1-14.32.9-17.27,5.3-2.74,4-2.43,9.4,1,15.29,3.16,5.6,8.63,11,15.48,15.2,7.69,4.7,16.22,7.3,23.28,7.1a74.59,74.59,0,0,0,15.16,11.3H1880.9Z" transform="translate(-1.36 0)"/><path class="cls-6" d="M2058.8,895.79c0,1.3,2,3.2,3.48,3.7,12.11,4.3,18,13.79,23,24.09a103.17,103.17,0,0,1,4,11.4c3.58,10.6,9.38,19.9,18.75,27,1.69,1.3,2.74,4.3,2.85,6.5.21,14.4.1,28.79.1,43.29,0,7.5,2,13.1,5.9,17l18.22.5c21.17.6,42.45,1.3,63.31,1.8.42-67.09-10.54-136.58-19.28-204.47a24.33,24.33,0,0,0-2.32-1.1h-14.11a16,16,0,0,0-4.95,2.8c-6.11,5.09-6.22,10.89.1,20.49h-17.38c-3.47,0-6.95-.2-10.42.1-9.8.8-17.7,8-18.86,17.3a24.54,24.54,0,0,0-.21,2.7c-.21,11.1-.21,22.3-.31,33.4,0,.1-.22.3-1.06,1.2-4.74-4-10.11-7.6-14.22-12.1-7.16-7.8-14.95-7.7-23.8-3.3-3.06,1.5-6.32,2.7-9.27,4.4C2060.8,893,2058.7,894.59,2058.8,895.79Z" transform="translate(-1.36 0)"/><path class="cls-5" d="M2058.8,895.79c0,1.3,2,3.2,3.48,3.7,12.11,4.3,18,13.79,23,24.09a103.17,103.17,0,0,1,4,11.4c3.58,10.6,9.38,19.9,18.75,27,1.69,1.3,2.74,4.3,2.85,6.5.21,14.4.1,28.79.1,43.29,0,7.5,2,13.1,5.9,17l18.22.5c10.11-.2,20.12-.6,30.44.6,2.43-58.29-17.48-117-54.14-163.68a24.54,24.54,0,0,0-.21,2.7c-.21,11.1-.21,22.3-.31,33.4,0,.1-.21.3-1.06,1.2-4.74-4-10.11-7.6-14.22-12.1-7.16-7.8-14.95-7.7-23.8-3.3-3.06,1.5-6.32,2.7-9.27,4.4C2060.8,893,2058.7,894.59,2058.8,895.79Z" transform="translate(-1.36 0)"/><path class="cls-22" d="M634.51,1044.57H2778.43c13.37,0,24.22,10.3,24.22,23V1087c0,12.7-10.85,23-24.22,23H634.51c-13.38,0-24.23-10.3-24.23-23v-19.39C610.28,1055,621.13,1044.57,634.51,1044.57Z" transform="translate(-1.36 0)"/><path class="cls-20" d="M610.28,1157.25V2188.43c0,26,22.23,47.09,49.72,47.09H2753c27.39,0,49.72-21.1,49.72-47.09h0V1157.25c0-26-22.23-47.09-49.72-47.09H660C632.51,1110.06,610.28,1131.16,610.28,1157.25Z" transform="translate(-1.36 0)"/><path class="cls-27" d="M1786.41,1838.47a977.8,977.8,0,0,0,43.72,289.76c1.26,4,2.53,8,3.79,11.9,4.21,13.2,8.74,26.2,13.59,39.2,1.37,3.7,2.74,7.3,4.21,11,5.79,15.19,12,30.29,18.64,45.09H2753c27.39,0,49.72-21.1,49.72-47.09h0V1157.25c0-26-22.23-47.09-49.72-47.09H2106q-23.22,21.9-45.08,45.09c-3.37,3.6-6.85,7.3-10.11,11a1058,1058,0,0,0-83.11,103.29c-2.42,3.4-4.74,6.8-7.16,10.2C1850.46,1440.52,1786.41,1632.4,1786.41,1838.47Z" transform="translate(-1.36 0)"/><path class="cls-27" d="M610.28,1203.75v984.68c0,26,22.23,47.09,49.72,47.09H834.32q6.64-18.15,12.64-36.6c.95-2.8,1.79-5.69,2.74-8.49.32-1.1.74-2.3,1.06-3.4.73-2.5,1.58-5,2.31-7.5,3.9-13,7.59-26,11-39.2,1.05-4,2-7.9,3-11.9a983.87,983.87,0,0,0,27.59-231.17c0-206.07-64-398-174.11-558.73-2.32-3.4-4.74-6.8-7.16-10.2a1021.87,1021.87,0,0,0-83.11-103.28l-7-7.5c-1-1.1-2.11-2.3-3.16-3.4-2.63-2.8-5.37-5.6-8-8.4h0Z" transform="translate(-1.36 0)"/><path class="cls-22" d="M2757.25,1169.15V2176.43c0,1.6-.94,3-2.1,3H612.39c-1.16,0-2.11,1.3-2.11,3v5c0,1.6,1,3,2.11,3H2762.94c1.16,0,2.11-1.3,2.11-3V1158.15c0-1.7-1-3-2.11-3H612.39c-1.16,0-2.11,1.3-2.11,3v5c0,1.7,1,3,2.11,3H2755.25C2756.41,1166.15,2757.25,1167.55,2757.25,1169.15Z" transform="translate(-1.36 0)"/><path class="cls-22" d="M2049.43,1274.24v797.1c0,1.6,1,3,2.1,3h0c24.23,0,43.82,28.2,43.82,62.89h0c0,1.6,1,3,2.11,3h578.27c1.16,0,2.1-1.3,2.1-3h0c0-34.79,19.6-62.89,43.82-62.89h0c1.16,0,2.11-1.3,2.11-3v-797.1c0-1.7-1-3-2.11-3h0c-24.22,0-43.82-28.2-43.82-62.89h0c0-1.6-.94-3-2.1-3H2097.46c-1.16,0-2.11,1.3-2.11,3h0c0,34.79-19.59,62.89-43.82,62.89h0C2050.38,1271.34,2049.43,1272.64,2049.43,1274.24Zm8.32,11.5c0-1.5.74-2.8,1.79-3,22.86-3.9,41-30,43.82-62.79.1-1.5,1-2.6,2.1-2.6h562.37c1.05,0,2,1.1,2.1,2.6,2.74,32.79,20.86,58.89,43.72,62.79,1,.2,1.79,1.5,1.79,3v774.2c0,1.5-.74,2.8-1.79,3-22.86,3.9-41,30-43.72,62.79-.1,1.5-1,2.6-2.1,2.6H2105.46c-1.05,0-2-1.1-2.1-2.6-2.74-32.79-21-58.89-43.82-62.79-1.05-.2-1.79-1.5-1.79-3Z" transform="translate(-1.36 0)"/><path class="cls-22" d="M1305.89,1274.24v797.1c0,1.6.95,3,2.11,3h0c24.23,0,43.82,28.2,43.82,62.89h0c0,1.6,1,3,2.1,3h578.27c1.16,0,2.11-1.3,2.11-3h0c0-34.79,19.59-62.89,43.82-62.89h0c1.16,0,2.1-1.3,2.1-3v-797.1c0-1.7-.94-3-2.1-3h0a30.88,30.88,0,0,1-10.43-1.8c-19.17-6.7-33.5-31.5-33.5-61.19h0c0-1.6-.94-3-2.1-3H1353.82c-1.16,0-2.11,1.3-2.11,3h0c0,34.79-19.59,62.89-43.82,62.89h0A3,3,0,0,0,1305.89,1274.24Zm8.32,11.5c0-1.5.74-2.8,1.79-3,22.86-3.9,41.08-30,43.82-62.79.11-1.5,1.06-2.6,2.11-2.6h562.36c1.06,0,2,1.1,2.11,2.6,2.32,28.09,16,51.29,34.34,59.79a38.51,38.51,0,0,0,9.48,3c1,.2,1.79,1.5,1.79,3v774.2c0,1.5-.74,2.8-1.79,3-22.86,3.9-41.08,30-43.71,62.79-.11,1.5-1.06,2.6-2.11,2.6H1362c-1,0-2-1.1-2.1-2.6-2.74-32.79-21-58.89-43.82-62.79-1-.2-1.79-1.5-1.79-3Z" transform="translate(-1.36 0)"/><path class="cls-22" d="M1228.26,1285.74v774.1c0,1.5-.73,2.8-1.79,3-22.85,3.9-41.08,30-43.81,62.89-.11,1.5-1.06,2.6-2.11,2.6H618.18c-1,0-1.89-1.1-2-2.6a85.28,85.28,0,0,0-1.89-12.59c-.74-3.2-4-2.4-4,.89v23.2c0,1.6,1,3,2.11,3h576.27a1.78,1.78,0,0,0,1.47-.9,3.81,3.81,0,0,0,.64-2.1c0-17.4,5-33.09,12.85-44.49s18.85-18.4,31-18.4c1.16,0,2.11-1.3,2.11-3v-797.1a3.8,3.8,0,0,0-.63-2.1,2.06,2.06,0,0,0-1.48-.9c-12.11,0-23.06-7.1-31-18.4s-12.85-27.09-12.85-44.49c0-1.6-1-3-2.11-3H612.39a.67.67,0,0,0-.42.1h0a3,3,0,0,0-1.69,2.9v23.19c0,3.4,3.38,4.2,4,.9a84.64,84.64,0,0,0,1.89-12.69c.11-1.5,1.06-2.6,2.11-2.6h562.36c1.06,0,2,1.1,2.11,2.6,2.74,32.89,21,59,43.82,62.89C1227.53,1282.94,1228.26,1284.24,1228.26,1285.74Z" transform="translate(-1.36 0)"/><polygon class="cls-28" points="1528.15 1110.06 1979.39 2239.52 2320.34 2239.52 1900.28 1110.06 1528.15 1110.06"/><polygon class="cls-28" points="774.08 1110.06 1279.46 2239.52 1750.92 2239.52 1288.94 1110.06 774.08 1110.06"/><path class="cls-5" d="M1421.76,965v79.79h531.71V931.18H1457.25c-19.59,0-35.49,15.1-35.49,33.8Z" transform="translate(-1.36 0)"/><path class="cls-5" d="M1609.46,931.18h344.12V861c0-13.7-11.7-24.7-26-24.7h-223c-22.22,0-42.87,11.1-54.14,29.3Z" transform="translate(-1.36 0)"/><path class="cls-29" d="M1716.58,717.31V766.4c0,6.3,5.37,11.4,12,11.4h213c6.63,0,12-5.1,12-11.4V717.31a11.69,11.69,0,0,0-11.91-11.4h-213C1722,705.91,1716.58,711,1716.58,717.31Z" transform="translate(-1.36 0)"/><path class="cls-5" d="M1818.33,748.21v86.68a6,6,0,0,0,.11,1.4c.84,8.7,9,15.2,18.11,14.4,8.11-.7,14.54-6.8,15.17-14.4,0-.5.11-.9.11-1.4V748.21c.21-8.8-7.06-16.1-16.33-16.3s-17,6.7-17.17,15.5Z" transform="translate(-1.36 0)"/><path class="cls-30" d="M1611.25,1044.77h342.33V861.09c0-13.7-11.7-24.7-26-24.7h-75.73c0-.5.1-.9.1-1.4V777.8h89.74c6.64,0,12-5.1,12-11.4V717.31a11.68,11.68,0,0,0-11.9-11.4H1825.39A568,568,0,0,1,1800,777.7h18.54v57.19a6,6,0,0,0,.11,1.4h-47.51a825.25,825.25,0,0,1-62.46,94.89C1678.66,970.78,1645.69,1008.37,1611.25,1044.77Z" transform="translate(-1.36 0)"/><path class="cls-29" d="M1609.46,931.18v48h-187.6c0-26.5,22.65-48,50.56-48Z" transform="translate(-1.36 0)"/><path class="cls-26" d="M737.42,885.69v24.1a5.09,5.09,0,0,0,5.27,5H754l.63,10.4c-3.48,1.2-5.69,3.4-5.48,5.8l8.43,88.49a5.71,5.71,0,0,0,3.05,4l.74,12.6c.32,6,6,10.6,12.85,10.6h72.05c6.63,0,12.32-4.5,12.85-10.3l1.16-13.3a5.42,5.42,0,0,0,2.42-3.4l12.53-88.49c.32-2.6-2.21-5-6.11-6.2l.95-10.2h10.22a5.09,5.09,0,0,0,5.27-5v-24.1a5.09,5.09,0,0,0-5.27-5h-8.64v-10.3A4.56,4.56,0,0,0,867,866H757.43a4.56,4.56,0,0,0-4.63,4.4h0v10.3H742.69C739.63,880.79,737.31,883,737.42,885.69Z" transform="translate(-1.36 0)"/><path class="cls-5" d="M880.14,880.79h-8.63v-10.3a4.57,4.57,0,0,0-4.64-4.4H757.33a4.57,4.57,0,0,0-4.64,4.4h0v10.3H742.58a5.09,5.09,0,0,0-5.27,5v24.1a5.09,5.09,0,0,0,5.27,5h11.27l.63,10.4c-3.47,1.2-5.68,3.4-5.47,5.8l5.68,59.3,2.74,29.09a5.75,5.75,0,0,0,3.06,4l.73,12.6c.32,5.9,6,10.6,12.85,10.6h72c6.64,0,12.33-4.5,12.85-10.3l1.16-13.3a5.38,5.38,0,0,0,2.42-3.4l12.54-88.49c.31-2.6-2.21-5-6.11-6.2l.95-10.2h10.21a5.09,5.09,0,0,0,5.27-5v-24.1A5.21,5.21,0,0,0,880.14,880.79Zm-61.93,75.59c-1-2.4-1.69-4.9-2.63-7.9,9.16.3,14.53,4.3,17.9,10.2,6.95,12.4,7.06,25.1.42,37.59a18.48,18.48,0,0,1-16.53,10.2c-2.53.1-4-.6-5.06-2.6-4.74-8.4-3.48-16.19,2.32-23.79,5.47-7.5,7-15.3,3.58-23.7Zm-10.53,24.9c-4.74,5.2-5.06,11.29-2.43,17.49.85,2,1.48,4,2.53,6.7a21.65,21.65,0,0,1-13.8-8.9c-8.85-13.09-9.16-26.39-.63-39.69a20,20,0,0,1,13-8.7c2.63-.6,4.1-.2,5.16,2.4,4.42,10.8,5,21-3.79,30.7ZM854.34,1036c-.32,3.5-3.9,6.3-8.22,6.3h-72c-4.31,0-7.9-2.8-8.21-6.5l-.63-10.6a18.77,18.77,0,0,0,4,.4h81.42a22.37,22.37,0,0,0,4.53-.5Zm10.11-111.79H760.91a9,9,0,0,0-1.69.1l-.63-9.5h106.7Z" transform="translate(-1.36 0)"/><path class="cls-6" d="M830.64,866.09a486.76,486.76,0,0,0-36,48.69c-2,3.1-4,6.3-6,9.4a477.61,477.61,0,0,0-34,66.2l-5.69-59.3c-.21-2.4,2-4.6,5.48-5.8l-.63-10.4H742.48a5.09,5.09,0,0,1-5.27-5v-24.1a5.09,5.09,0,0,1,5.27-5h10.11v-10.3a4.56,4.56,0,0,1,4.63-4.4h73.42Z" transform="translate(-1.36 0)"/><path class="cls-6" d="M2928.21,899.69H2820.87V705.31a12.5,12.5,0,0,1,12.75-12.2h81.74a12.43,12.43,0,0,1,12.74,12.2l.11,194.38Z" transform="translate(-1.36 0)"/><path class="cls-6" d="M2868.91,331.16v372h10.53V343.66C2876,339.46,2872.38,335.26,2868.91,331.16Z" transform="translate(-1.36 0)"/><rect class="cls-26" x="2819.51" y="875.59" width="107.33" height="7.1"/><g class="cls-31"><path class="cls-6" d="M2339.83,112.38h71.52c20.64,0,37.39-16,37.28-35.59a32.41,32.41,0,0,0-.31-4.5l-3.16-23.1A981,981,0,0,0,2310.65,15.4l-7.9,56.89c-2.63,19.5,11.8,37.29,32.23,39.79A39.47,39.47,0,0,0,2339.83,112.38Z" transform="translate(-1.36 0)"/><path class="cls-5" d="M1936.83,128.88v3.3c0,7.8,6.74,14.1,14.85,14.1h701.61q-26.7-16.65-54.66-31.6H1951.68c-8.22,0-14.85,6.4-14.85,14.2Z" transform="translate(-1.36 0)"/><path class="cls-5" d="M2472.75,453.14H1950.84c-7.69,0-13.91-5.9-13.91-13.2v-5.1c0-7.29,6.22-13.19,13.91-13.19h521.91c7.69,0,13.91,5.9,13.91,13.19v5.1C2486.66,447.24,2480.44,453.14,2472.75,453.14Z" transform="translate(-1.36 0)"/><path class="cls-32" d="M2410.08,361.45s-34.34-28,14.22-28,14.22,28,14.22,28l17.49,60.2h-63.52Z" transform="translate(-1.36 0)"/><path class="cls-26" d="M2328.13,361.45s-34.33-28,14.22-28,14.22,28,14.22,28l17.49,60.2h-63.41Z" transform="translate(-1.36 0)"/><path class="cls-6" d="M2227,215.57v-31h18.64v31a75,75,0,0,0,12.53,41.4h0a74.66,74.66,0,0,1,12.54,41.39V421.55h-68.68V298.36A74.9,74.9,0,0,1,2214.59,257h0A75.47,75.47,0,0,0,2227,215.57Z" transform="translate(-1.36 0)"/><path class="cls-6" d="M2224.28,188.48h24.33a5.53,5.53,0,0,0,5.69-5.4h0a5.53,5.53,0,0,0-5.69-5.4h-24.33a5.53,5.53,0,0,0-5.69,5.4h0a5.53,5.53,0,0,0,5.69,5.4Z" transform="translate(-1.36 0)"/><path class="cls-6" d="M2134,215.57v-31h18.64v31a74.93,74.93,0,0,0,12.54,41.4h0a74.73,74.73,0,0,1,12.53,41.39V421.55H2109V298.36A74.9,74.9,0,0,1,2121.58,257h0A75.47,75.47,0,0,0,2134,215.57Z" transform="translate(-1.36 0)"/><path class="cls-6" d="M2131.16,188.48h24.34a5.52,5.52,0,0,0,5.68-5.4h0a5.52,5.52,0,0,0-5.68-5.4h-24.34a5.52,5.52,0,0,0-5.68,5.4h0a5.52,5.52,0,0,0,5.68,5.4Z" transform="translate(-1.36 0)"/></g><path class="cls-24" d="M2421.56,460c-29.91-38.69-31.91-96.39-21.8-143.48,9.8-6.7,17.91,8.6,28,14.9a254.33,254.33,0,0,1,32.65,24.19c12.64,11,24.54,24.2,27.49,40.2,3.79,20.6-8.21,40.79-22.12,57-3.89,4.5-8.11,9-13.59,11.6S2425.14,464.74,2421.56,460Z" transform="translate(-1.36 0)"/><path d="M2665.62,2204.32c11.9,20,62,48.7,83.63,61.5-62.15,23.79-127.77,38-195,32.39a329.23,329.23,0,0,0,24-39.09C2610.42,2245.62,2638.33,2225,2665.62,2204.32Z" transform="translate(-1.36 0)"/><g id="c65_sport_shoes" data-name="c65 sport shoes"><path d="M2865.64,2206.82c8.11-3,8.32-2.4,9.8-.1a72.71,72.71,0,0,1,11.16,25.6c.53,2.5,1,2.9-7.27,5.9-158.52,57.89-214.87,78-387.3,81.49-9,.2-8.32-.3-8.74-2.9-1.79-9.8-1.37-18.1.73-28,.53-2.6.32-3.3,9-3.5C2660.67,2281.31,2710.59,2263.52,2865.64,2206.82Z" transform="translate(-1.36 0)"/><path class="cls-5" d="M2801.49,2086.44c1.06-1.5,1.16-2.9,5.69-2.7,12.64.7,21.8,13.7,26.86,25.7.53,1.4,3.48,7.59,4.21,9.59-13.69,5.2-27.49,10.2-41.18,15.5,2.32,5.3,4.63,10.7,6.95,16.1,13.69-5.2,27.49-10.4,41.29-15.4l33.92,77.69c-51.93,18.9-101.33,43.5-153.15,61.5-21.91-17.4-42-36.7-61.94-56.1-6.64,1.6-13.38,3.1-20,4.5,18.54,20.6,38.34,40.2,58.77,59-8.42,2.6-17.17,4.9-25.8,6.7-13.49-12.3-26.55-24.69-39.29-37.59-7.27,1.1-14.43,2.4-21.7,3.3,11.9,13.4,24,26.59,36.44,39.39-8.53,1.7-17.38,2.4-26,3.6-5.9-6.6-11.8-13.3-17.28-20.3-6.63.4-13.16,1-19.8.9,5.37,7.4,10.43,13.8,16.33,21.7-43.08-.6-78.05,0-125.45-6.8-.11,0-20.23-48.79,19.59-43.69,83.11-9.1,129.14-33.3,165.16-110.49,6.53-29.09,18.22-62.79,26.23-42.09Z" transform="translate(-1.36 0)"/></g><path d="M2830.46,2101.14q10,22.79,19.91,45.59c-14.75,5.4-29.5,10.8-44.14,16.4l-1.68-12.7c-3.79-.4-7.59-.8-11.38-1.1q.63-12,1.27-24C2806.44,2117.13,2818.45,2109.24,2830.46,2101.14Z" transform="translate(-1.36 0)"/><path class="cls-13" d="M1801.69,1049.37c3,24.79,46.87,35.69,72.15,43.19,3.48,1,6.64,2,9.16,2.9,41.4,14.8,64.26,14,104.91-5.3h0c16.44-7.9,31.71-17.1,35.5-24.79,5.16-10.8.84-28.6-7.37-37.5-5-5.5-10-10.9-15-16.4-4.21-4.7-27.7-15.8-33.81-13.8-13,4.4-26.76,3.6-40.55,2.3-7.27-.7-14.64-1.5-21.81-1.8a127.69,127.69,0,0,0-17.48.6c-21.49,2.1-81.21,20.9-85.64,46.2A15.53,15.53,0,0,0,1801.69,1049.37Z" transform="translate(-1.36 0)"/><path class="cls-17" d="M1873.84,1092.56c3.48,1,6.64,2,9.16,2.9,41.4,14.8,64.26,14,104.91-5.3h0c16.44-7.9,31.71-17.1,35.5-24.79,5.16-10.8.84-28.6-7.37-37.5-5-5.5-10-10.9-15-16.4-4.21-4.7-27.7-15.8-33.81-13.8-13,4.4-26.76,3.6-40.55,2.3a182.84,182.84,0,0,0-23.81,27.5A186.42,186.42,0,0,0,1873.84,1092.56Z" transform="translate(-1.36 0)"/><path class="cls-26" d="M2548.07,773.6,2407,890.49l-117.87,97.79a69.6,69.6,0,0,1-19.27,11.29l-217.72,85.19a72.62,72.62,0,0,1-26.55,5c-38.44,0-69.62-29.59-69.62-66.09,0-26.8,17-50.89,43.08-61.09l94.9-37.2,119-46.59a69.9,69.9,0,0,0,18.32-10.5L2263,843l202.45-161.78c26.86-21.59,67.2-18.49,90,7s19.59,63.69-7.37,85.39Z" transform="translate(-1.36 0)"/><path class="cls-1" d="M2407.13,890.49l-117.86,97.79A69.51,69.51,0,0,1,2270,999.57l-217.72,85.19a69,69,0,0,1-13.48,3.8,535.56,535.56,0,0,1,33.28-119.08c6.22-15.1,13.28-30.2,21.91-44.1l119-46.59a70.21,70.21,0,0,0,18.32-10.6l31.71-25.3c44.55-3.8,89.53-2.6,134.3-1.4,2.84.1,6.32.5,7.37,3.1s-3.79,4.6-4.32,2.4C2402.81,862.29,2405.24,876.69,2407.13,890.49Z" transform="translate(-1.36 0)"/><path class="cls-29" d="M2506.88,1703.59l109.34,32.19c42.13,12.4,78.47-30.39,71.62-84.39l-118.5-938.08c-4.53-35.5-27.7-63.89-55.72-68.09-61.19,36.49-111.86,92.09-148.73,160.38-28.65,53.19-49,114.18-59.19,179.78-.53,3.3-1,6.49-1.48,9.79-2.21,15.5-3.79,31.2-4.84,47.2l-17.91,276.26q-.94,15.15-.95,30.3v2.3C2282.31,1515.21,2376.8,1665.19,2506.88,1703.59Z" transform="translate(-1.36 0)"/><path d="M2203.11,2135.33c-2,3.1,28,90,28,90l-152.83-38,31.81-33.6Z" transform="translate(-1.36 0)"/><polygon points="2371.33 2140.93 2358.79 2186.63 2320.56 2177.13 2326.66 2166.33 2319.82 2159.53 2334.14 2141.63 2371.33 2140.93"/><g id="c65_sport_shoes-2" data-name="c65 sport shoes-2"><path d="M2337.19,2241.52c4,1,6.95,3.2,6.43,4.9l-6.95,25.3c-.43,1.6-4.11,2.2-8.11,1.2l-305.78-76c-4-1-6.85-3.19-6.43-4.79l7-25.3c.43-1.7,4.11-2.2,8.12-1.2Z" transform="translate(-1.36 0)"/><path class="cls-5" d="M2233,2079.74c35.81,6.5,93.85,50.49,128.71,35.1a5.36,5.36,0,0,1,5.06.39c4.85,3.2,9.38,11.6,3.69,33.6l-2.74,10.1L2332,2150l-4.42,16.1,35.81,8.9L2342,2252.72l-129.67-32.2-16.74-74.19-17.07-4.2,15,73.79-20.64-5.1-11.8-47.19-18.22-4.5,10.95,47-20.43-5.1-5.06-23.39-15.9-3.9,4.84,23.3-95.64-23.8s-16.64-40.1,24.54-40.6c0,0,110.18,11.7,186.86-52.89Z" transform="translate(-1.36 0)"/></g><polygon class="cls-15" points="2201.11 2110.94 2233.97 2119.14 2285.48 2131.93 2368.06 2152.43 2381.65 2103.24 2494.14 1695.29 2530.48 1563.2 2609.27 1277.44 2363.32 1237.75 2336.57 1381.73 2325.93 1439.02 2315.18 1496.91 2221.97 1998.75 2209.75 2064.64 2205.85 2085.34 2201.11 2110.94"/><path class="cls-15" d="M2364.68,1237.74c37,63.9,81.11,103.79,118.4,128.49,45.82,30.29,45.39,84.39,45.39,84.39l3.37,112.58,4.32,145.39c.11,5,.42,9.89.74,14.89a419.42,419.42,0,0,0,20.33,104.09L2630.65,2050l25.38,77,156-17.79,38.55-4.4-15.8-47.5-71.21-214.57-14.43-43.4c-2.31-7-4.42-14.09-6.21-21.29a294,294,0,0,1-8.74-78.49l10.74-429.75Z" transform="translate(-1.36 0)"/><path class="cls-33" d="M2337.93,1381.73c3.16,128,64.25,241.17,157.58,313.56L2532,1563.2l4.32,145.39c.1,5,.42,9.89.74,14.89a391.29,391.29,0,0,0,199.7,54.6c2.11,0,4.22,0,6.32-.1a294.85,294.85,0,0,1-8.74-78.49L2745,1269.74l-380.46-32.1Z" transform="translate(-1.36 0)"/><polygon class="cls-17" points="2495.23 573.64 2626.9 558.65 2644.94 701.41 2513.27 716.41 2495.23 573.64"/><path class="cls-13" d="M2701.85,502.84c-.84,15.49-14.75,27.39-31.07,26.69a30.56,30.56,0,0,1-10.85-2.5c-8.53,63.7-69.84,108.69-136.93,100.59-63.52-7.7-110.07-60.49-106.81-121.18l3.27-61L2425.78,328l68.36,3.3,144.83,6.9,31.28,1.5-3.16,58.59h0L2663,474.64a32.42,32.42,0,0,1,10.75-1.4,2.45,2.45,0,0,1,.84.1l1,.1,1.06.1,1.05.2,1.47.3a2.63,2.63,0,0,1,.85.2l.73.2.95.3.21.1a18.92,18.92,0,0,1,2.21.8,28.58,28.58,0,0,1,5.48,3h0c.42.3.74.5,1.16.8a8,8,0,0,1,.95.8c.84.7,1.58,1.4,2.31,2.1.11.1.22.2.22.3l.31.3A26.89,26.89,0,0,1,2701.85,502.84Z" transform="translate(-1.36 0)"/><path class="cls-12" d="M2701.85,502.84c-.84,15.49-14.75,27.39-31.07,26.69a30.56,30.56,0,0,1-10.85-2.5c-6.43,48-43.61,87.19-93.22,98.39-51.51-16.9-84.9-64.09-82.16-115.68l5.06-95.09,4.42-83.39h0l144.94,7,31.28,1.5-3.16,58.59h0L2663,474.74a32.42,32.42,0,0,1,10.75-1.4,2.45,2.45,0,0,1,.84.1l1,.1,1.06.1,1.05.2,1.47.3a2.63,2.63,0,0,1,.85.2l.73.2.95.3.21.1a18.92,18.92,0,0,1,2.21.8,28.58,28.58,0,0,1,5.48,3h0c.42.3.74.5,1.16.8a8,8,0,0,1,.95.8c.84.7,1.58,1.4,2.31,2.1.11.1.22.2.22.3l.31.3A27.06,27.06,0,0,1,2701.85,502.84Z" transform="translate(-1.36 0)"/><path class="cls-8" d="M2497.3,557.73c0,12.5,14.95,23.1,33.91,24,19.38.9,35.71-8.7,36.34-21.5v-.7c0-7.5-6.21-13.7-14.11-14.1l-40.55-2c-8.22-.4-15.17,5.6-15.59,13.4h0Z" transform="translate(-1.36 0)"/><path class="cls-26" d="M2503.09,546.53a16.14,16.14,0,0,0,15.8,12.3l30.55.3a16.34,16.34,0,0,0,14.74-8.6,15.15,15.15,0,0,0-10.64-5l-40.55-2A14.67,14.67,0,0,0,2503.09,546.53Z" transform="translate(-1.36 0)"/><ellipse class="cls-8" cx="2449.17" cy="479.74" rx="10.43" ry="9.9"/><ellipse class="cls-8" cx="2555.87" cy="484.84" rx="10.43" ry="9.9"/><path class="cls-8" d="M2600.52,469.84a5.16,5.16,0,0,0,.53-10.3l-52.88-4.8a5.51,5.51,0,0,0-5.9,4.7,5.21,5.21,0,0,0,4.85,5.5l52.87,4.8Z" transform="translate(-1.36 0)"/><path class="cls-8" d="M2430.73,467.24h.52l39.71-4.3a5.16,5.16,0,0,0,4.74-5.7,5.3,5.3,0,0,0-6-4.5L2430,457a5.32,5.32,0,0,0-4.74,5.8,5.47,5.47,0,0,0,5.48,4.4Z" transform="translate(-1.36 0)"/><path class="cls-12" d="M1898.17,890.09c7.48,45.09,71.42,63.29,117,62.79a130.28,130.28,0,0,0,18.75-1.4c22.23-3.4,44.66-11.6,66.57-6.8,6.74,1.5,30.23-13.1,34.24-18.6q6.95-9.6,13.9-19.19c7.58-10.5,9.9-29.9,2.95-40.8-4.95-7.8-22.44-15.8-41-22.2-19.06-6.6-39.18-11.5-48-12.79-26.12-3.7-54.35-6.2-80.89-4.9C1943.78,827.9,1890.59,844.59,1898.17,890.09Z" transform="translate(-1.36 0)"/><path class="cls-13" d="M2015.19,952.88a130.28,130.28,0,0,0,18.75-1.4c22.23-3.4,44.66-11.6,66.57-6.8,6.74,1.5,30.23-13.1,34.24-18.6q6.95-9.6,13.9-19.19c7.58-10.5,9.9-29.9,2.95-40.8-4.95-7.8-22.44-15.8-41-22.2a134.31,134.31,0,0,0-52.13,22C2030.26,886,2012.25,919.68,2015.19,952.88Z" transform="translate(-1.36 0)"/><path class="cls-6" d="M2152.65,855.79c-35.39-12.2-75,1-87.84,34.7h0c-12.64,33.19,8.63,63.89,43.29,76.49Z" transform="translate(-1.36 0)"/><path class="cls-34" d="M2341.3,1179.85c8.85,54.29,33,101.49,84.9,126.49,3.16,1.5,6.42,3,9.79,4.3.11.1.21.1.32.2,31.91,12.79,77.21,9.29,111,5.49L2734.08,1295l36.13-4.1L2697.74,717a94.58,94.58,0,0,0-55.82-74.69,69.44,69.44,0,0,1-8,19c-17.91,29.89-56.14,42.79-89.85,30.29a74,74,0,0,1-38.44-32.39c-3.37-5.8-51.93,50.29-56,56.59-39.08,60.29-65,127.48-81.74,196.27-2.31,9.5-4.42,19-6.42,28.5-9.69,47.1-23.28,112-24.33,175.08A375,375,0,0,0,2341.3,1179.85Z" transform="translate(-1.36 0)"/><path class="cls-20" d="M2337.09,1115.66c7,3.2,12.64,5.8,14.43,7,13.9,9.3,18.75,16.2,20,26.2.74,5.09.53,11.09.11,18.59-2.32,49.2,22.12,101.09,54.35,138.89.63.7,1.26,1.4,1.89,2.2q4,1.2,7.9,2.1c32.55,8.29,69.84,10.39,111.44,5.59L2734,1294.94l-57.73-457.25-129.87,240.77c-29.7,50.4-30.44,51-85.63,36.7.31-7,81.73-102.19,36.44-59-64.15-126-9.06-226.87,76.68-328.86,18.12-21.6,48.67-29.9,76.05-20.8a70.63,70.63,0,0,1,10.22,4.3l-1.48-11.8a51.65,51.65,0,0,0-25-37.79c-17.91,29.89-56.14,42.79-89.85,30.29-71.62,52.3-121.44,127-140.72,210.88-1,4.3-1.9,8.59-2.74,12.89a56.54,56.54,0,0,1-32.76-3.2c-2.31,9.5-4.42,19-6.42,28.5C2351.73,987.58,2338.14,1052.57,2337.09,1115.66Z" transform="translate(-1.36 0)"/><path class="cls-35" d="M2729,1277.24l-119.35,5.2s-4.84,186.48,127.14,161.78Z" transform="translate(-1.36 0)"/><path class="cls-26" d="M2832,1770.48a60,60,0,0,1-49.3,12.1l-36.23-7-64.57-12.5c-127.34-24.6-178.43-122.19-198.13-234.67-22.64-129.09-47.92-256.57-59.3-386.75-1.47-16.4-2.63-32.9-3.58-49.4-.95-17-1.47-34-1.37-51.09.42-100.19,21.07-200.78,83.42-284,37-49.29,86.27-89,143.47-115.58,25.91,2.2,46.76,21.3,49.82,45.79l65.83,436.95,90.06,597.42C2854.47,1740.28,2846.89,1758.48,2832,1770.48Z" transform="translate(-1.36 0)"/><path class="cls-6" d="M2678.89,1465.92a740.64,740.64,0,0,0,67.62,309.66l36.23,7c31.5,6.1,62.15-13.2,68.57-43.1a51.3,51.3,0,0,0,.74-17.5L2762,1124.56A740,740,0,0,0,2678.89,1465.92Z" transform="translate(-1.36 0)"/><path class="cls-1" d="M2419.46,1041.27c-.11,17.1.42,34.09,1.47,51.09,1,16.5,2.21,32.9,3.58,49.3,48.35,4.3,96-19.2,122-63.2l129.76-240.67,7.38-13.59c6.32-10.4,9.37-24,9.58-38.3.32-24.6-7.9-51.49-22.64-68.49l-.42-.4a70.56,70.56,0,0,0-9.91-6.2,64.6,64.6,0,0,0-10.21-4.3c-27.49-9.1-57.94-.7-76.05,20.8L2442.31,884c-.63,2.3-1.16,4.6-1.68,6.8a309.49,309.49,0,0,0-5.9,33Z" transform="translate(-1.36 0)"/><path class="cls-26" d="M2379.11,1067.67c59.31,21.59,126.4-.1,159.58-51.6L2680.26,796.4c20.22-30.3,10.64-70.49-21.28-89.69h0c-31.92-19.2-74.26-10.1-94.38,20.2L2442.31,910.59c-13.48,20.19-39.92,28.79-63.62,20.69l-208.34-71.79c-33.81-11.6-71.1,4.9-83.32,37h0c-12.11,31.69,4.74,66.69,37.92,78.69Z" transform="translate(-1.36 0)"/><path class="cls-17" d="M2669.2,490.34c-2.22,1.4-3.48,3.7-4.64,6-2.21,4.2-4.11,9.2-2.21,13.5,2.11,4.69,8.11,6.69,13.48,7.19s11.8-.7,13.91-5.4c-.64,1.4-6.43-4.39-6.85-5.09-2.21-4.1.63-6.5.11-10.3A8.72,8.72,0,0,0,2669.2,490.34Z" transform="translate(-1.36 0)"/><path class="cls-29" d="M2630.65,2050l25.38,77,156-17.79c-6.32-16.7-12.12-33.6-17.28-50.7A1266.72,1266.72,0,0,1,2630.65,2050Z" transform="translate(-1.36 0)"/><path class="cls-29" d="M2202.47,2110.94l167,41.49,13.59-49.19-136.82-89.59c-8.85,14.4-18.23,28.49-28.34,42.39-2.1,2.9-4.42,5.8-6.84,8.6Z" transform="translate(-1.36 0)"/><path class="cls-13" d="M2667.09,398.25h0L2643,484.94l-22.23-49.4c-6.42-14.39-22-23-38.34-21.19a429.62,429.62,0,0,1-92.79.2c-35.5-3.8-57-10.6-59-9.7-3.58,1.7-11.37,43.39-11.16,40.49l6.32-117.48,68.36,3.3h0l144.93,7Z" transform="translate(-1.36 0)"/><path class="cls-36" d="M2483.39,395.25c41.5,4.4,83.42,2.8,125,5.9a101.18,101.18,0,0,1,10.32,1.1c1.69.3,2.64.6,2.74.9v.1c.63,2,12.85,42.79,20.23,71.49,1.05,4.2,1.58,7.7,1.15,10.3-.73,5.2,4.74,2.8,11.59-1.8,13.27-9.1,25.07-18.3,33.81-29.5,40.24-51.79-2.53-115.08-49.92-145.78-61.62-40-223.62-101.29-240.58,14.3C2391.23,367,2444.42,391.15,2483.39,395.25Z" transform="translate(-1.36 0)"/><path class="cls-24" d="M2641.71,474.74c1.05,4.2,1.58,7.7,1.15,10.3-.73,5.2,4.74,2.8,11.59-1.8,9.59-6.5,21.7-17.5,23.17-18.9a128.23,128.23,0,0,0,10.64-10.6,70.65,70.65,0,0,0,15.06-38,105.22,105.22,0,0,0,.32-14.2c-23.28,7.5-82.16,1.7-82.16,1.7C2622.11,405.25,2634.33,446,2641.71,474.74Z" transform="translate(-1.36 0)"/><path class="cls-5" d="M2794.75,2058.54c5.16,17.2,10.85,34.1,17.28,50.7l38.55-4.4-15.8-47.5C2821.4,2057.94,2808.13,2058.34,2794.75,2058.54Z" transform="translate(-1.36 0)"/><path class="cls-14" d="M2763.57,1845.37a739.92,739.92,0,0,0,31.18,213.17c13.38-.2,26.65-.6,40-1.2l-71.21-214.57Z" transform="translate(-1.36 0)"/><path class="cls-5" d="M2211.11,2064.64c2.42-2.9,4.74-5.8,6.85-8.6,10.11-13.8,19.48-27.89,28.33-42.39l-22.86-15Z" transform="translate(-1.36 0)"/><path class="cls-14" d="M2223.33,1998.75l22.86,15c104-170.38,119.76-381.45,81.1-574.63L2316.55,1497Z" transform="translate(-1.36 0)"/></g></svg>