<svg id="Layer_1" data-name="Layer 1" xmlns="http://www.w3.org/2000/svg" xmlns:xlink="http://www.w3.org/1999/xlink" viewBox="0 0 3373.12 2662.88"><defs><style>.cls-1{fill:none;}.cls-2{fill:#d6f4f4;}.cls-10,.cls-3{fill:#fff;}.cls-3{opacity:0.3;}.cls-11,.cls-12,.cls-27,.cls-3,.cls-4{isolation:isolate;}.cls-4,.cls-7{fill:#91d1d1;}.cls-4{opacity:0.4;}.cls-5{fill:#5ca6b1;}.cls-6{fill:#7ebac4;}.cls-11,.cls-8{fill:#4c969b;}.cls-9{fill:#8edaea;}.cls-11{opacity:0.2;}.cls-12,.cls-26{fill:#44ad8c;}.cls-12{opacity:0.22;}.cls-13{fill:#521213;}.cls-14{fill:#c2172a;}.cls-15{fill:#f5785c;}.cls-16{fill:#840f20;}.cls-17{fill:#095996;}.cls-18{fill:#197daf;}.cls-19{fill:#ff8e69;}.cls-20{fill:#ff9e83;}.cls-21{fill:#642425;}.cls-22{fill:#00d6bc;}.cls-23{fill:#00bfa3;}.cls-24{opacity:0.43;}.cls-25{clip-path:url(#clip-path);}.cls-27,.cls-37{fill:#fefefe;}.cls-27,.cls-38{opacity:0.48;}.cls-28{fill:#359b79;}.cls-29{fill:#ffbc5a;}.cls-30{fill:#eaa837;}.cls-31{fill:#ffa710;}.cls-32{fill:#044768;}.cls-33{fill:#89454e;}.cls-34{opacity:0.89;}.cls-35{fill:#05517f;}.cls-36{fill:#66ade1;}</style><clipPath id="clip-path" transform="translate(0 262.88)"><path class="cls-1" d="M1180.79,568l800.47,570.5c35.84,25.57,87.35,19.52,115.23-13.34h0L2418,744.67c27.74-32.86,21.24-80.3-14.47-105.75L1603.06,68.41c-35.84-25.57-87.35-19.51-115.22,13.35h0L1166.32,462.28C1138.44,495.14,1145,542.47,1180.79,568Z"/></clipPath></defs><title>details1</title><g id="_02" data-name=" 02"><ellipse class="cls-2" cx="399.44" cy="1013.38" rx="41.15" ry="37.79"/><path class="cls-2" d="M3373.12,1634.13c0,199.29-58.94,385.91-161.82,545.94a1085.47,1085.47,0,0,1-95.84,127.29c-278.24,43.63-812.55,73.13-1426,73.13q-38.62,0-76.86-.12c-8,0-16.06,0-24-.11q-46.78-.33-92.79-.78-63.91-.67-126.24-1.8l-15.4-.22c-4.51-4.38-8.89-8.64-13.27-13a1088.06,1088.06,0,0,1-73.55-80.64l-.26-.33q-33.25-40.38-62.53-83.67c-117.48,91.4-263.5,146.36-417.09,156.9-18.32,1.23-36.77,1.91-55.49,1.91a796.17,796.17,0,0,1-165.67-17.28c-91.59-19.51-178.28-55.17-255.27-105-2.39-1.57-4.78-3-7-4.6a718.27,718.27,0,0,1-84.43-65.38C88.14,2048.07,5,1884.56.27,1703.21.13,1697.61,0,1692,0,1686.28c0-5.27.13-10.54.27-15.81,6.9-275.33,194.07-509.61,457.18-607.52,3.32-258.61,106.06-495.25,274.79-679.29,8.09-9,16.46-17.72,25-26.35a1136.49,1136.49,0,0,1,107.93-97C1055.34,109.79,1298.67,14.58,1565.89,1.57c21-1,42.08-1.57,63.32-1.57A1275.17,1275.17,0,0,1,1820.9,14.35a1254.91,1254.91,0,0,1,229.39,57.2c270.8,95.89,493.29,281.5,623.78,517.35,13.81,24.89,26.68,50.46,38.37,76.48A1185.48,1185.48,0,0,1,2984,833.05C3222.85,1030.2,3373.12,1316.07,3373.12,1634.13Z" transform="translate(0 262.88)"/><ellipse class="cls-2" cx="335.98" cy="1227.48" rx="76.99" ry="70.77"/><path class="cls-3" d="M2415.35,1129c0,279-88.15,539-240.41,757.91-145.09,208.71-347.27,378.72-586.35,493.23q-46.78-.33-92.79-.79-63.91-.66-126.24-1.79c-5.44-6.39-10.89-12.79-16.2-19.18q-35.64-43.07-66.77-89.38c-6.37,4.93-12.88,9.87-19.38,14.58l-.27-.34q-33.24-40.36-62.52-83.66c-117.48,91.4-263.5,146.35-417.09,156.9-18.32,1.23-36.77,1.9-55.49,1.9a796.69,796.69,0,0,1-165.67-17.27c-91.6-19.51-178.28-55.18-255.28-105-2.38-1.57-4.77-3-7-4.6a719.34,719.34,0,0,1-84.43-65.38C88,2047.85,4.91,1884.34.13,1703.1c.27-10.88.27-21.76,0-32.75C7,1395,194.21,1160.75,457.32,1062.84c3.31-258.62,106.06-495.25,274.78-679.29,9-8.75,17.26-17.5,25-26.35a1135,1135,0,0,1,107.92-97c190.23-150.4,433.56-245.61,700.65-258.62C1586.6.56,1607.71,0,1629,0a1275.27,1275.27,0,0,1,191.69,14.35A1496,1496,0,0,1,2055.2,221.49q32.46,35.34,62.39,72.79c144.56,180.22,240,389.61,278.51,610.77A1307.05,1307.05,0,0,1,2415.35,1129Z" transform="translate(0 262.88)"/><path class="cls-2" d="M2884.34,624.67C2848.63,646,2801,636.78,2777.75,604s-13.15-76.6,22.43-97.91,83.37-12.11,106.6,20.64h0c23.23,32.41,13.54,76-21.77,97.45A2.68,2.68,0,0,1,2884.34,624.67Z" transform="translate(0 262.88)"/><ellipse class="cls-2" cx="2983.77" cy="959.22" rx="41.15" ry="37.79"/><path class="cls-4" d="M2673.94,589a222.44,222.44,0,0,0-25.22,25.12L2579,653.72c-2-18.17-11-35.1-25.22-47.78l-.4-.33-.66-.56c-1.86-1.57-3.85-3.14-5.84-4.6L2266.4,400.6l-134.74-96.11-13.93-10.21L2052,246.62l3.46-25.13,4.38-32.18.26-62.81a152.79,152.79,0,0,0-10-54.95,1242.8,1242.8,0,0,0-229.39-57.2A1288.46,1288.46,0,0,0,1629.08,0c-21.24,0-42.35.56-63.32,1.57-267.09,13.12-510.42,108.34-700.64,258.62l-1.6,344.18-.26,47.89-.8,162.39-.53,108.23-.79,175.74h0l-.8,171.81c-38.63,38.92-70,96.22-83.37,180.67-133.54.11-208.68,15.93-223,50.92a21.71,21.71,0,0,0-1.73,11.21h-1.86l14.21,53.39c.26.78.53,1.68.79,2.69h0c-35.71,8.3-57.34,20.86-64.25,37.9a21.85,21.85,0,0,0-1.72,11.22h-1.86l9.95,37.35h0c-75.13,6.39-118.41,21.75-128.89,47.43a21.75,21.75,0,0,0-1.73,11.22H375l14.21,53.38c5.44,20.19,22.56,63.37,52.43,72.23a451.66,451.66,0,0,0,62.53,13.45l7.56,28.72c.93,3.47,2.13,7.62,3.85,12.22-44.07,12.9-76.06,14.8-76.06,14.8H511a38.74,38.74,0,0,0-9.69,13.69,21.69,21.69,0,0,0-1.73,11.21h-1.86l14.2,53.38a143.21,143.21,0,0,0,7.17,20.64c-8.76,5.72-14.6,12.45-17.65,20a21.73,21.73,0,0,0-1.73,11.22H497.8L512,2092.71c5.17,19.51,21.37,60.22,49.25,71.1a25.85,25.85,0,0,0,3.32,1.12c38.36,11.44,106.33,23.67,209.47,21.09,37-.9,73.28-1.91,104.08-3.81,26.55-1.69,49-4,64.38-7.63.66-.11,1.19-.34,1.72-.45,4.52,2.47,9.16,4.82,13.94,6.95a194.37,194.37,0,0,0,79.52,17.16l831.8,3.48c2.52,0,4.91,0,7.43-.11a191.26,191.26,0,0,0,92.53-26.92c5-.11,10.35-.11,15.53-.22,69-1.69,135.27-3.7,168.45-11.44,44.47-10.32,56.42-67.29,58.68-96.67l.93-13.13,150.93,59c4,1.57,7.83,1.46,8.5-.11l11.15-24.11,26.28-57,12.21-26.24,4.39-9.65,3.45-7.63h-.14l16.6-36,237.75-514.76-18.45,144.67a405,405,0,0,0,2.65,120.79l40.09,230.46,13.81,79.85,12.74.34c-1.86,4-3.72,8.3-5.31,12.34-49.12,71.55-100.22,89.15-186.64,86.8-40-10.54-27.08,40.6-27,40.6l2.92.78a65.31,65.31,0,0,0-3.72,23.55c.14,2.58-.66,3,8.5,4,177.22,20.19,238.15,8.08,409.66-27.47,8.89-1.8,8.63-2.25,8.36-4.83a64,64,0,0,0-4.78-21c-6.37-23-12.61-45.87-19-68.86l-8.1-29.49c-.26-1.13-.79-3-1.33-4.83-.66-2.46-1.32-5-2.12-7.51l18.32.45-8.63-49.24-47-267.47a283.43,283.43,0,0,1,.53-100.94l56-301.12c26.55-5.83,45.53-27.25,46.33-52.37l11.68-413.16c-81.51-67.29-173-123.7-271.6-167.67C2700.62,639.36,2687.74,613.91,2673.94,589ZM2379.5,2006.24l.14-.22.39.45Zm-80.31-180.33L2264,1923.36a252.6,252.6,0,0,1-49.11,13.35l.26-3.14c7.3-13.23,2.13-24.11-10.62-33-7.56-5.27-17.65-9.76-29.6-13.68-34.12-11.33-82.57-17.61-123.06-21.2l2-444,.8-171.14,111.77-120.45c21.11-.45,41.42-8.19,56.55-21.64a86.86,86.86,0,0,0,8.1-8.3l164.87-195,40-47.33,27.61-6.39,56.82,29.27-24.43,81.87c-2.12,6.84-3.71,13.68-5.17,20.63-.14.57-.14,1-.27,1.57-12.08,63.82,4.65,129.31,46.46,181.46Zm571.48,230.35h0c-.13,0-.4.11-.53.11s-.13-.22-.13-.33Z" transform="translate(0 262.88)"/><path class="cls-5" d="M3325.73,2258c0,25-74.21,48.45-204.3,68.86-278.24,43.62-812.55,73.12-1426,73.12q-38.62,0-76.86-.11c-39.29-.23-78.32-.45-116.81-.9q-71.9-.67-141.65-2c-205.89-3.7-397.44-10.88-566.7-20.63-78.85-4.6-152.79-9.76-221.15-15.37-23.23-1.91-45.93-3.92-67.84-5.94-8.1-.79-16.19-1.46-24.16-2.36l-6-.56-2.13-.22-5.57-.56c-7.43-.79-14.87-1.46-22-2.25l-8.76-.89-11-1.24-7.83-.89-6.64-.79-9.55-1.12h-.27c-11-1.24-21.64-2.58-32.26-3.81-1.06-.12-2.12-.23-3.32-.34l-3.31-.45-6.51-.78-12.34-1.57-10-1.35-4.91-.67-4.38-.56L313,2333.16l-1.73-.23-5.57-.78-14.21-2-3.71-.56-2.92-.45-7.17-1.12-1.33-.22-2.12-.34-6.77-1-6.64-1c-1.86-.34-3.72-.56-5.44-.9l-4.25-.67-3.19-.56c-1.06-.22-2.12-.34-3.18-.56q-8-1.35-15.53-2.69l-5.31-.9-6.64-1.23-8.76-1.69c-2.13-.44-4.12-.78-6.24-1.23-.93-.22-1.86-.34-2.79-.56-1.59-.34-3.05-.67-4.51-.9-5.58-1.12-11.15-2.35-16.46-3.47l-2.66-.57-2.65-.56c-1.33-.33-2.66-.56-3.85-.89s-2.13-.45-3.19-.79a10.7,10.7,0,0,1-1.86-.45c-1.86-.45-3.58-.89-5.31-1.34l-4.64-1.12c-5.31-1.35-10.49-2.7-15.4-4-22.84-6.39-40.62-12.9-53.1-19.52a64.74,64.74,0,0,1-13.54-9.19c-.4-.34-.8-.79-1.33-1.24a17.3,17.3,0,0,1-1.46-1.57,4.48,4.48,0,0,1-.66-.78h0l-.8-1c-.4-.45-.66-1-1.06-1.46a8.12,8.12,0,0,1-.8-1.46l-.13-.33-.13-.34c-.14-.22-.14-.45-.27-.67v-.11c-.13-.23-.13-.45-.26-.68a2.67,2.67,0,0,1-.27-1c0-.11-.13-.33-.13-.44v-.57c0-.33-.14-.67-.14-1v-2.81h0v-.67a.71.71,0,0,1,.14-.45c.13-.11.13-.45.13-.78s.13-.34.13-.57,0-.22.14-.22c.13-.22.13-.45.26-.67h0c.13-.23.13-.45.27-.79l.79-1.68a7.67,7.67,0,0,1,.53-.9l.67-.89a26.66,26.66,0,0,1,2.25-2.92l.93-1c.27-.34.67-.67.93-1h0l.8-.78,1.06-1h0c.8-.68,1.59-1.46,2.52-2.13s1.6-1.24,2.39-1.8l1.06-.78,2.13-1.46c1.86-1.24,4-2.47,6.11-3.81l1.72-1c.66-.34,1.2-.68,1.86-1s1.19-.68,1.86-1l.53-.23a.73.73,0,0,1,.53-.22,5.8,5.8,0,0,1,.93-.45c1.33-.67,2.65-1.34,4.11-2l2-1,3.31-1.57c1.07-.56,2.26-1,3.46-1.57l1.72-.78c1.2-.56,2.39-1,3.59-1.57l1.85-.79c1.46-.67,3.06-1.23,4.65-1.9.66-.23,1.2-.45,1.86-.68l3.05-1.12,2.52-.9,1.07-.44,1.19-.45.93-.34c.27-.11.66-.22.93-.34l2.39-.89,6.24-2.13c2.12-.68,4.25-1.46,6.5-2.13l3.19-1,1.19-.34,1.2-.34c.93-.33,2-.56,2.92-.89a22.21,22.21,0,0,1,3.05-.9l3.06-.9c1.06-.33,2.12-.56,3.05-.9l3.58-1h0c2.39-.68,4.78-1.46,7.3-2.14l7.57-2.13,7.7-2.13h0c1.33-.33,2.65-.67,4-1.12l1.73-.45,1.72-.45,4-1,1.72-.45,1.59-.45,4.25-1c1.06-.34,2.13-.56,3.19-.79a18.63,18.63,0,0,1,2.26-.56l2.25-.56,3.06-.78,3.05-.79,1.33-.33c3.71-.9,7.56-1.8,11.41-2.7l4.12-.89c5.57-1.24,11.28-2.58,17.12-3.93l10.36-2.24,3.45-.79,4.11-.89h0l8.23-1.69,4.12-.89,2.12-.45a3.74,3.74,0,0,1,1.06-.23,3,3,0,0,0,1.07-.22c.93-.22,1.85-.34,2.78-.56l2.79-.56c4-.79,8.1-1.57,12.21-2.47a6.62,6.62,0,0,0,.67-.11c3.05-.56,6-1.12,9-1.79l5.45-1c8.1-1.57,16.33-3.14,24.82-4.6l.8-.11,1.72-.34,2.53-.45c5-.9,10.22-1.79,15.39-2.69l2.66-.45,2.65-.45,5.31-.9,5.31-.89c11.16-1.91,22.57-3.82,34.25-5.61,2-.34,3.85-.56,5.84-.9s4-.67,5.85-.89l9.15-1.46,5.71-.9c1.86-.22,3.85-.56,5.71-.9s3.85-.56,5.84-.89c3.32-.45,6.51-1,9.83-1.46l6.5-1c2.12-.34,4.38-.67,6.5-1,1.07-.11,2.13-.34,3.32-.45l3.32-.45,6-.89,6.1-.9c4-.56,8.1-1.12,12.21-1.68,2-.34,4.12-.57,6.11-.9l6.24-.9,4.65-.67,4.64-.67c3.19-.45,6.24-.9,9.43-1.24l14.6-1.91,5-.67,4.92-.67H568l12.21-1.57c5-.67,10-1.23,15.13-1.91,2.53-.33,5-.67,7.57-.89l15.27-1.91,7.7-.9,11.68-1.34,11.95-1.46c5.31-.56,10.48-1.24,15.79-1.8l3.85-.45,3.85-.44c2.52-.23,5.05-.56,7.57-.79s5-.56,7.7-.78,5.18-.56,7.7-.9l4-.45,4-.45,10.62-1.12,10.76-1.12c17.39-1.8,35-3.59,52.83-5.27l11-1.12c1.72-.12,3.45-.34,5.17-.45l2.66-.23,2.65-.22,4.12-.34,4.11-.33c5.45-.56,11-1,16.6-1.46l7.56-.67h.8a21.92,21.92,0,0,1,2.66-.23l2.65-.22,5.44-.45,39.83-3.37c4.38-.33,8.63-.78,13-1.12l16.33-1.34L929.1,2090c2.53-.22,4.91-.34,7.44-.56s4.91-.34,7.43-.56c8.76-.67,17.52-1.35,26.42-1.91l8.89-.67,4.38-.34,4.38-.33c7.17-.56,14.21-1,21.38-1.46l4.11-.23,4.12-.33,4.11-.23,4.12-.22,25.88-1.68,8.76-.56,13.15-.79,5.17-.33,5.18-.34c2.79-.23,5.58-.34,8.36-.45l8.37-.56,16.72-1h0c5.58-.34,11.29-.67,16.86-.9l25.89-1.34c5.71-.34,11.41-.56,17.25-.9l4.52-.22,4.51-.23c3-.11,6-.33,9-.45,8-.45,16.06-.78,24.16-1.12h1.06c11.68-.56,23.36-1.12,35-1.57l16.46-.67,10.08-.45,13.28-.56,13.41-.56,7.83-.34,7.83-.33,20.31-.68c1.46-.11,3.06-.11,4.52-.11l4.51-.11,2.39-.11c5.17-.23,10.48-.34,15.66-.56l27.22-.79,9.15-.22,23.24-.68c5.57-.11,11.15-.22,16.72-.45l2.92-.11,3.06-.11h2.52l12.21-.22,8-.23c2.65-.11,5.31-.11,8-.11,9.43-.23,19-.34,28.41-.56h0c12.34-.23,24.82-.45,37.3-.56h2c5.58-.11,11.29-.11,16.86-.23,6.24-.11,12.48-.11,18.85-.22,4,0,8.1-.11,12.21-.11h2.92c5.05-.12,10.09-.12,15.14-.12s10.09-.11,15.13-.11l14.2-.11h71.69c6.63,0,13.27,0,19.91.11h3.19c6.63,0,13.4.11,20,.11l20.84.12h2.66c7.17.11,14.33.11,21.5.22,7.44.11,14.87.11,22.3.23l22.31.33,22.16.34,19,.33,18.85.34c4.11.11,8.36.23,12.61.23l12.48.33,9,.23a12,12,0,0,1,2,.11h1.6l6.1.11,7.57.23,11.15.33c1.86,0,3.59.11,5.44.11s3.85.12,5.84.23h3.46l8.36.22h1.59l2.52.11,11.29.34,5.44.23,3.72.11h1.72l5.71.22,6.64.23,4.91.11h1.2l5,.22h1.33l6.37.23h.4l6.9.22,10.49.34,5.84.22,6.24.23,5.44.22c2.12.11,4.51.22,6.64.22,4.64.23,9.29.34,14.07.57l10.09.44c1.86.12,3.71.12,5.57.23h.53l5.18.22c3.45.11,7,.34,10.49.45h.26l13.81.56,3.45.11h.13a29.61,29.61,0,0,0,3.32.12c.53,0,1.06.11,1.6.11,3.31.22,6.5.33,9.69.45,1.85.11,3.71.22,5.57.22h1.06l16.33.79,6.11.33,10.09.56,1.59.12h.4l7.17.33,6.9.34,7.17.34,5,.22,3.85.22c1.46.12,2.92.12,4.38.23l11,.56,22.43,1.23h1.07c3.45.23,6.77.45,10.22.56l1.59.12,11,.67,11.28.67c2.52.11,4.91.34,7.44.45a13.69,13.69,0,0,0,2.12.11l1.86.11,11.28.68c1.06.11,2.13.11,3.06.22l4.38.23c1.32.11,2.52.11,3.71.22l1.73.11,1.72.11,3.32.23,1.86.11,2.39.23,4.78.33h0l2.92.23,7.3.44c2.39.12,4.78.34,7.17.45l.93.12h.26l3.06.22c2.25.22,4.51.34,6.77.45l8.76.67,9,.67,2.52.23,1.46.11h.26l4.39.34,8.89.67,8.5.67,10.75.79,10.75.78c6.9.56,13.67,1,20.44,1.69l13.94,1.12,13.81,1.12,13.8,1.12,11.55,1,20.58,1.79c2.79.23,5.71.45,8.49.79l2.13.22c8.23.79,16.46,1.46,24.56,2.25,3.31.33,6.63.67,10,.89l9.83,1,4.51.45c.4,0,.93.11,1.33.11l3.18.34,4.25.45,6.37.67c1.46.11,2.92.23,4.38.45l5.31.56,9.69,1,9.69,1,9.56,1,5.58.56,5.57.56,11,1.23c14.6,1.57,29.07,3.14,43.28,4.83h0l4.11.44c1.59.23,3.32.34,4.91.56l9,1,4.65.56,2.12.23,9.29,1.12,4.12.45,6.64.78,8.89,1.13c11.68,1.45,23.36,2.91,34.78,4.37l17,2.24c2.79.45,5.58.79,8.36,1.12s5.58.79,8.37,1.13c5.57.78,11,1.57,16.59,2.24l2.79.33,5,.68,8.5,1.23,8.1,1.12,8,1.12.93.12,8.89,1.34,5.45.79.53.11,7.83,1.12c10,1.46,19.78,3,29.34,4.49,1.46.22,2.79.45,4.11.67l4.52.67,2.25.34,4.78.78,1.33.23,1.33.22,7.56,1.24,12.61,2.13,4.12.67,4.78.79c7.43,1.23,14.73,2.58,21.9,3.81l3.59.67c2.25.45,4.51.79,6.77,1.24q9.36,1.68,18.32,3.36c3,.56,6,1.12,8.89,1.68q6.18,1.18,11.95,2.36l9.82,1.9,4.25.9c5.71,1.12,11.15,2.24,16.72,3.48q35.85,7.56,66.38,15.14,21.71,5.39,40.22,10.76C3287.23,2219.89,3325.73,2240.07,3325.73,2258Z" transform="translate(0 262.88)"/><path class="cls-6" d="M3110.41,2173.68c-33.58,30.51-113,62.47-244.25,92.53-14.47,3.36-29.61,6.61-45.27,9.86-235.23,48.68-613.43,91.07-1162.47,111.82l-21.64.78-16.2.56c-40.09,1.46-79.64,6.73-118.94,9.76q-71.88-.67-141.64-2c-205.89-3.7-397.45-10.88-566.7-20.63-78.85-4.6-152.79-9.76-221.16-15.37-23.23-1.9-45.93-3.92-67.83-5.94-8.1-.79-16.2-1.46-24.16-2.36l-6-.56-2.12-.22-5.57-.56c-7.44-.79-14.87-1.46-22-2.25l-8.76-.89-11-1.24-7.83-.89-6.64-.79-9.56-1.12h-.26c-12.08-1.35-23.9-2.8-35.45-4.15-11-1.35-21.63-2.69-32.12-4l-4.91-.67c-5.05-.67-10-1.35-14.87-2l-1.73-.22-5.57-.79c-4.78-.67-9.56-1.34-14.21-2l-6.63-1-7.17-1.12-3.45-.56-6.77-1-6.64-1c-1.86-.33-3.72-.56-5.44-.89l-4.25-.68-3.19-.56c-1.06-.22-2.12-.34-3.18-.56q-8-1.35-15.53-2.69l-5.31-.9-6.64-1.23-8.76-1.68c-2.13-.45-4.12-.79-6.24-1.24-2.52-.45-4.91-1-7.3-1.46-5.58-1.12-11.15-2.35-16.46-3.47l-2.66-.56q-6-1.35-11.55-2.69c-1.86-.45-3.58-.9-5.31-1.35l-4.64-1.12c-5.31-1.35-10.49-2.69-15.4-4,14.07-4.71,29.07-9.42,44.87-14.24h0c20.84-6.28,43.14-12.79,66.9-19.29,14.07-3.82,28.54-7.74,43.54-11.55h0c5.05-1.35,10.22-2.7,15.4-4,19.25-4.94,39.16-9.87,59.87-14.8,216.11-51.59,509.22-104.64,844.28-145.69h0q117.08-14.3,240.54-26.58H1457c4.12-.11,8.23-.22,12.21-.22l8-.22,3.45-.12,4.65-.11c9.42-.22,19-.34,28.4-.56h0c12.35-.22,24.83-.45,37.31-.56h2c5.57-.11,11.28-.23,16.86-.23,6.23-.11,12.47-.11,18.85-.22,4,0,8.09-.11,12.21-.11h2.92c5-.11,10.09-.11,15.13-.11s10.09-.12,15.14-.12l14.2-.11H1720c6.64,0,13.28,0,19.91.11h3.19c6.64,0,13.41.12,20.05.12l20.84.11h2.65c14.74.11,29.34.33,43.94.45,21.24.22,42.35.56,63.46,1,14.73.22,29.33.56,43.93.89l9,.23a12,12,0,0,1,2,.11c2.52,0,5.18.11,7.57.22l7.57.23,11.15.33c1.85,0,3.58.12,5.44.12l7.43.22H1990l10,.34,2.52.11,11.28.34,5.45.22,3.71.11h1.73l5.71.23,6.63.22,4.92.11h1.19l5.05.23h1.06l2,.11c1.59,0,3.18.11,4.78.11h.13l7,.23,10.48.33,12.08.45,5.45.23c2.12.11,4.51.22,6.63.22,4.65.22,9.3.34,14.08.56l10.08.45c1.86.11,3.72.11,5.58.22h.53l5.18.23c3.45.11,7,.33,10.48.45h.27c4.65.22,9.16.45,13.81.56l3.45.11h.13c2.79.11,5.58.22,8.36.45,2.13.11,4.12.22,6.24.22,1.86.11,3.72.23,5.58.23l17.39.78,6.1.34,10.09.56,1.6.11h.39l7.17.34,6.91.33,7.16.34,5.05.22,3.85.23c1.46.11,2.92.11,4.38.22l11,.56,22.43,1.24h.53l10.75.67,1.6.11,11,.68,11.28.67c2.52.11,4.91.34,7.43.45a13.82,13.82,0,0,0,2.13.11l1.86.11c4.77.34,9.55.56,14.33.9l4.38.22c1.33.12,2.53.12,3.72.23l1.73.11,7,.45,2.39.22,4.78.34h0l5.84.34,4.38.33c2.39.11,4.78.34,7.17.45l.93.11h.26l3.06.23,24.56,1.79,2.52.23,1.46.11,4.64.33,8.9.68,8.49.67,10.76.79,10.75.78c6.9.56,13.67,1,20.44,1.68l13.94,1.12,13.81,1.13,13.8,1.12,11.55,1,20.58,1.79c2.79.23,5.71.45,8.49.79,8.9.78,17.79,1.57,26.69,2.46,3.31.34,6.63.68,10,.9l9.82,1,4.52.45c.4,0,.93.11,1.33.11l13.67,1.35c1.46.11,2.92.22,4.38.44,5,.45,10,1,15,1.46l9.69,1,9.56,1,5.57.56,5.58.56,11,1.24c14.6,1.57,29.07,3.14,43.27,4.82,1.46.11,2.79.34,4.12.45,1.59.22,3.32.33,4.91.56l13.54,1.57,2.12.22c3.06.34,6.24.79,9.3,1.12l4.11.45c5.18.68,10.36,1.24,15.53,1.91,11.69,1.46,23.37,2.92,34.78,4.37l17,2.25,16.72,2.24c5.58.78,11,1.57,16.59,2.24s10.89,1.57,16.33,2.24l8.1,1.13,8,1.12.92.11,14.34,2.13.53.11,7.83,1.12c10,1.46,19.78,3,29.34,4.49l8.76,1.35,2.26.33,6.11,1,1.32.23,7.57,1.23,12.61,2.13c2.92.45,6,1,8.9,1.46,7.43,1.23,14.73,2.58,21.9,3.81,9.82,1.68,19.38,3.48,28.67,5.27,3.06.56,6,1.12,8.9,1.68q6.16,1.18,11.94,2.36l9.83,1.91,4.24.89A167.5,167.5,0,0,0,3110.41,2173.68Z" transform="translate(0 262.88)"/><path class="cls-7" d="M2626,2163c0,78.39-730,142-1630.41,142-295.5,0-572.68-6.84-811.62-18.84-29.6-1.46-58.68-3-87.08-4.71a40,40,0,0,1-24.43-9.76,13.55,13.55,0,0,1-1.33-1.23,20.45,20.45,0,0,1-1.46-1.57c-.26-.23-.4-.56-.66-.79h0a4.32,4.32,0,0,1-.67-1,5.74,5.74,0,0,1-.92-1.46c-.27-.44-.54-1-.8-1.45-.13-.23-.27-.56-.4-.79a1.44,1.44,0,0,1-.26-.67v-.11c-.14-.23-.14-.45-.27-.68a2.87,2.87,0,0,1-.27-1c0-.11-.13-.33-.13-.44V2260a12.45,12.45,0,0,1-.13-2.25v-1.68h0c0-.22,0-.33.13-.45v-.22a.75.75,0,0,1,.13-.45c0-.22.14-.45.14-.78a4.57,4.57,0,0,0,.13-.57c0-.22,0-.22.13-.33a5.12,5.12,0,0,0,.27-.79h0a6.43,6.43,0,0,0,.26-.78l.8-1.68a6,6,0,0,1,.53-.9,2.48,2.48,0,0,1,.66-.9c.67-1,1.47-1.9,2.26-2.91l.93-1c.27-.34.66-.68.93-1h0l.8-.79,1.06-1c.79-.67,1.59-1.46,2.52-2.13s1.59-1.23,2.39-1.79l1.06-.79,2.13-1.46c1.85-1.23,4-2.46,6.1-3.81l1.73-1c.66-.33,1.19-.67,1.86-1s1.19-.67,1.86-1l.92-.44a3.44,3.44,0,0,1,.93-.45c1.33-.68,2.66-1.35,4.12-2l2-1,3.32-1.57c1.19-.56,2.26-1,3.45-1.57l1.73-.79,3.58-1.57,1.86-.78c1.46-.67,3-1.23,4.64-1.91l1.86-.67c.93-.34,2-.79,3.06-1.12l2.52-.9,2.26-.78.92-.34c.27-.11.67-.22.93-.34.8-.33,1.6-.56,2.39-.89l6.24-2.14c2.13-.67,4.25-1.45,6.51-2.13l3.18-1c.8-.22,1.6-.56,2.39-.78a29.62,29.62,0,0,1,2.92-.9c2-.67,4-1.34,6.11-1.9,1.06-.34,2.12-.68,3.05-.9s2.39-.67,3.59-1.12h0l7.3-2.13c2.52-.68,4.91-1.46,7.56-2.13s5.18-1.46,7.7-2.13h0l4-1c1.19-.34,2.39-.68,3.58-.9l4-1,3.32-.9c1.46-.33,2.79-.78,4.25-1.12,1.06-.22,2.12-.56,3.19-.78,1.46-.34,3-.79,4.64-1.13,2-.44,4.12-1,6.11-1.45l12.74-3,4.12-.9c5.57-1.23,11.28-2.58,17.12-3.92,4.51-1,9.16-2,13.81-3,5.44-1.12,10.88-2.25,16.46-3.48.66-.11,1.46-.34,2.12-.45l2.13-.45,2.78-.56,2.79-.56c4-.78,8.1-1.57,12.21-2.35l.67-.11,9-1.8c1.73-.34,3.59-.67,5.45-1,8.09-1.57,16.33-3,24.82-4.6l2.52-.45,2.53-.44c5-.9,10.22-1.8,15.39-2.7l5.18-.89c1.73-.34,3.45-.68,5.31-.9l5.31-.9c11.15-1.9,22.57-3.81,34.25-5.6l11.68-1.8,9-1.46,5.71-.89c1.86-.23,3.85-.57,5.71-.9l5.84-.9,9.82-1.46c2.12-.33,4.38-.67,6.5-1l6.51-1,6.64-.89,6-.9,6.11-.9c4-.56,8.09-1.12,12.21-1.68l12.34-1.68,9.3-1.24c3.18-.44,6.24-.78,9.42-1.23,4.91-.67,9.69-1.34,14.6-1.91l10.09-1.34,12.22-1.57,15.13-1.91,7.57-.89c5-.68,10.22-1.24,15.39-1.91l7.7-.9q11.55-1.35,23.5-2.69c5.31-.56,10.49-1.23,15.8-1.79,2.52-.34,5-.57,7.56-.9l7.57-.9,7.57-.78,7.7-.79,4-.45c1.33-.11,2.65-.33,4-.45l10.62-1.12,10.75-1.12c17.39-1.79,35-3.59,52.84-5.27l11-1.12,5.17-.45,5.18-.45c1.33-.11,2.79-.22,4.11-.34l4.12-.33c5.44-.56,11-1,16.59-1.46l7.57-.67h.8l5.44-.45,5.44-.45q19.71-1.68,39.83-3.36l13-1.13,16.32-1.34,16.33-1.35L944,2089l26.42-2,8.89-.67,8.89-.67c7.17-.56,14.21-1,21.38-1.46l8.23-.56,4.11-.34c1.33-.11,2.79-.22,4.12-.22,11.41-.79,23-1.46,34.51-2.25,4.38-.22,8.76-.56,13.14-.78l5.18-.34,5.18-.33,8.36-.56c2.79-.23,5.58-.34,8.36-.45l16.73-1h0l16.86-.9,25.89-1.35c5.7-.33,11.41-.56,17.25-.89l4.52-.23,13.54-.67,24.16-1.12h1.06c11.55-.56,23.36-1,35-1.57,8.76-.34,17.66-.79,26.55-1.12l26.69-1c5.17-.23,10.35-.34,15.53-.56l20.31-.68,4.51-.11,4.51-.11,2.39-.11c5.18-.23,10.49-.34,15.67-.45l27.21-.79,9.16-.22,23.23-.67,16.73-.45,5.71-.11h.13a18.65,18.65,0,0,0,2.52-.12l12.21-.22,16.07-.34c9.42-.22,19-.33,28.4-.56h0c12.35-.22,24.7-.45,37.31-.56l18.85-.22c6.24-.11,12.47-.11,18.85-.23,4,0,8.09-.11,12.21-.11h2.92c5-.11,10.09-.11,15.13-.11s10.09-.11,15.14-.11c9.82-.12,19.64-.12,29.47-.12h31.59q91.2,0,179.74,1.57c12.61.23,25.22.45,37.83.79l12.61.22,12.48.34,12.48.34,24.82.67,5.45.11c2,.11,3.85.11,5.84.23h2l10,.33h1.59l24.56.79,5.7.22,6.64.23,12.21.44,6.64.23h.4c2.26.11,4.51.11,6.9.22l10.49.34,5.84.22,6.24.23c1.86.11,3.58.11,5.44.22,2.13.11,4.38.11,6.64.23l14.07.56c3.32.11,6.64.22,10.09.45l6.11.22,5.17.22c3.46.12,7,.34,10.49.45l14.07.68,11.82.56,6.24.33,5.57.23H2182l16.33.78,6.11.34,10.09.45,1.59.11h.4l7.17.34,6.9.33,7.17.34,5,.22,3.85.23,4.38.22,11,.56,22.43,1.24,1.07.11c3.45.22,6.77.45,10.22.56l1.59.11,11,.67,11.28.68,7.44.45,2.12.11,1.86.11,11.28.67,7.44.45,3.71.23c3.72.22,7.44.44,11.15.78l4.78.34,3.06.22,2.78.23,11.55.78a3.09,3.09,0,0,1,.93.11l2.39.12,7.7.56,8.76.67,9,.67,2.52.23,1.46.11h.27l13.27,1c2.79.22,5.58.45,8.5.67l10.75.79,10.75.78C2567.61,2115.48,2626,2140.82,2626,2163Z" transform="translate(0 262.88)"/><path class="cls-2" d="M1224.33,2115.59c0,40.71-95.31,77.38-248,103.29-141.51,24-332.53,38.69-542.54,38.69-47.66,0-94.25-.79-139.52-2.24-77.92-2.47-151.86-7.07-220.09-13.35.79-.67,1.59-1.46,2.52-2.13s1.59-1.23,2.39-1.79l1.06-.79,2.12-1.46c1.86-1.23,4-2.46,6.11-3.81l1.73-1c.66-.34,1.19-.67,1.85-1s1.2-.67,1.86-1c.27-.11.67-.33.93-.45s.67-.33.93-.44c1.33-.68,2.66-1.35,4.12-2l2-1,3.32-1.57c1.06-.56,2.25-1,3.45-1.57l1.72-.79,3.59-1.57,1.86-.78c1.46-.68,3-1.24,4.64-1.91.67-.22,1.2-.45,1.86-.67l3-1.12,2.53-.9,2.25-.79.93-.33c.27-.11.67-.23.93-.34l2.39-.9,6.24-2.13c2.12-.67,4.25-1.45,6.5-2.13l3.19-1a20.16,20.16,0,0,0,2.39-.78,29.62,29.62,0,0,1,2.92-.9c2-.67,4-1.23,6.11-1.91,1.06-.33,2.12-.67,3.05-.89l3.58-1.12h0c2.39-.68,4.78-1.46,7.31-2.14l7.56-2.13,7.7-2.13h0l4-1c1.2-.33,2.39-.67,3.59-.89l4-1c1.06-.34,2.12-.56,3.32-.9l4.25-1.12c1.06-.34,2.12-.56,3.18-.79,1.46-.44,3.06-.78,4.65-1.12l6.11-1.46q6.17-1.5,12.74-3l4.11-.9c5.58-1.23,11.29-2.58,17.13-3.93,4.51-1,9.16-2,13.8-3,5.31-1.13,10.89-2.25,16.47-3.48l2.12-.45a14.57,14.57,0,0,1,2.12-.45l2.79-.56,2.79-.56c4-.78,8.1-1.57,12.21-2.47a6.33,6.33,0,0,0,.66-.11l9-1.79,5.44-1c8.1-1.57,16.33-3,24.83-4.6.79-.11,1.72-.34,2.52-.45l2.52-.45,15.4-2.69,5.18-.9c1.72-.33,3.45-.56,5.31-.89l5.31-.9c11.15-1.91,22.57-3.81,34.25-5.61,3.85-.56,7.83-1.23,11.68-1.79l9-1.46c1.85-.34,3.85-.56,5.7-.9s3.85-.56,5.71-.9,3.85-.56,5.84-.89l9.83-1.46,6.5-1,6.51-1c2.12-.34,4.38-.67,6.63-.9l6-.89,6.1-.9c4-.56,8.1-1.12,12.22-1.68l12.34-1.69,9.29-1.23c3.19-.45,6.24-.9,9.43-1.23l14.6-1.91,10.09-1.34,12.21-1.57c5-.68,10-1.24,15.14-1.91,2.52-.34,5-.67,7.56-.9l15.27-1.91,7.7-.89q11.55-1.35,23.49-2.69c5.31-.56,10.49-1.24,15.8-1.8,2.52-.22,5-.56,7.57-.78l7.56-.9c2.53-.22,5-.56,7.7-.79s5.18-.56,7.7-.89l4-.45,4-.45,10.62-1.12,10.75-1.12c17.39-1.8,35-3.59,52.83-5.27l11-1.13c1.73-.11,3.45-.33,5.18-.44l5.18-.45,4.11-.34,4.12-.34c5.44-.56,11-1,16.59-1.45l7.57-.68h.79l5.45-.44,5.44-.45q19.71-1.68,39.82-3.37c4.38-.33,8.63-.78,13-1.12l16.33-1.35,16.33-1.34c4.91-.34,10-.79,14.87-1.12,8.76-.68,17.52-1.35,26.41-1.91l8.9-.67,8.89-.67c7.17-.57,14.21-1,21.37-1.46l8.23-.56c1.33-.12,2.79-.23,4.12-.23l4.11-.22c11.42-.79,23-1.57,34.52-2.24l13.14-.79,5.18-.34,5.18-.33c2.78-.23,5.57-.34,8.36-.45l8.36-.56,16.73-1h0c5.57-.34,11.28-.67,16.86-.9l25.88-1.34c5.71-.34,11.42-.57,17.26-.9l4.51-.23,13.54-.67h0a106.44,106.44,0,0,1,18.19,17.27h0a57.84,57.84,0,0,1,6.5,9.87A25.91,25.91,0,0,1,1224.33,2115.59Z" transform="translate(0 262.88)"/><path class="cls-8" d="M1872.14,2118.17c-138.59,0-271.07,1.46-392.93,4.26h0c-406.61,9.2-694.8,32-694.8,58.88,0,21.53,185.58,40.48,469,51.92,141.25-24.22,229.39-58.65,229.39-96.78a25.49,25.49,0,0,0-.79-6.28,24.85,24.85,0,0,1,.79,6.28c0,38.13-88.14,72.56-229.39,96.78,175.63,7.07,388.82,11.22,618.74,11.22,600.69,0,1087.74-28.26,1087.74-63S2472.83,2118.17,1872.14,2118.17Z" transform="translate(0 262.88)"/><path class="cls-9" d="M901.89,2033.61l-1.2,15.81-2,27.48c-.26,3.14-.66,6.73-1.06,10.43h0c-4,29.94-17.52,74.69-56,83.66-15,3.48-36.9,5.72-62.79,7.4-29.87,1.91-65.18,2.81-101.29,3.7-100.35,2.47-166.59-9.42-203.9-20.52-1.06-.34-2.12-.67-3.18-1.12-27.08-10.66-42.88-50.24-47.92-69.2l-13.81-51.92h1.86l36-.45,19.92-.23h0l29.07-.33,211.2-2.47,143.5-1.68,32.52-.34,15.53-.22Z" transform="translate(0 262.88)"/><path class="cls-2" d="M900.83,2049.53c-2.53,4.6-6.64,9.65-12.48,14.92-32.53,29.38-118.94,33.76-172.57,36.33l-4.12.23c-68.9,3.36-138.85-1.12-204.83-14-36-6.95-93.06-21.08-96-47.66a21.87,21.87,0,0,1,1.73-10.88c3.05-7.29,8.76-13.8,17.26-19.4,16.59-11,43.41-18.84,80.44-23.78q61.53-8.07,160.23-5.94c5.31.11,18.72.56,36.64,1.57,26.68,1.57,63.32,4.59,97.83,10.09,34.91,5.72,67.7,14,85.36,26.13l.26.23C902.82,2026,907.86,2036.52,900.83,2049.53Z" transform="translate(0 262.88)"/><path class="cls-10" d="M467.54,2039.55c-21-17.94,30.4-41.38,165-43.06s211.2,20.29,219.7,40.82C863.13,2064.11,521.17,2085.76,467.54,2039.55Z" transform="translate(0 262.88)"/><path class="cls-9" d="M901.89,1931.21l-1.2,15.82-2,27.47a180.88,180.88,0,0,1-8.49,42.62,127,127,0,0,1-7.17,16.71c-8.76,16.38-21.77,30.17-41.42,34.77-27.21,6.28-77,8.75-132,10.32-10.49.33-21.24.56-32,.78-100.36,2.47-166.6-9.42-203.9-20.52C463,2056,454,2048.3,446.7,2038.88a130.47,130.47,0,0,1-17-30,153.3,153.3,0,0,1-6.9-20.07L409,1936.93h1.85l36-.44,19.91-.23,240.41-2.8,143.5-1.68,32.52-.34Z" transform="translate(0 262.88)"/><path class="cls-2" d="M900.83,1947.14c-2.53,4.6-6.64,9.64-12.48,14.92-17.13,15.47-49.25,24-83.5,29-32.26,4.71-66.37,6.28-92.13,7.52l-1.06.11c-1.46.11-3,.11-4.51.22a897,897,0,0,1-104.21-1.46,823.33,823.33,0,0,1-92.66-12c-1.06-.22-2.25-.44-3.45-.67-36-7-93.06-21.08-96-47.66a22.49,22.49,0,0,1,1.73-11c3.05-7.29,8.76-13.8,17.26-19.4,16.59-11,43.41-18.85,80.44-23.78q61.53-8.07,160.23-5.94c5.31.11,18.72.56,36.64,1.57,26.68,1.57,63.32,4.48,97.83,10.09,34.91,5.61,67.7,14,85.36,26.13l.26.22C902.82,1923.59,907.86,1934.13,900.83,1947.14Z" transform="translate(0 262.88)"/><path class="cls-10" d="M467.54,1937.16c-21-18,30.4-41.38,165-43.07s211.2,20.3,219.7,40.83C863.13,1961.72,521.17,1983.36,467.54,1937.16Z" transform="translate(0 262.88)"/><path class="cls-9" d="M901.89,1828.82l-1.2,15.82-2,27.47a180.88,180.88,0,0,1-8.49,42.62,127,127,0,0,1-7.17,16.71c-8.76,16.37-21.77,30.28-41.42,34.77C814,1972.6,763,1975,707,1976.64c-9.69.22-19.51.56-29.33.78-100.36,2.47-166.6-9.42-203.9-20.52C463,1953.64,454,1946,446.7,1936.6a130.68,130.68,0,0,1-17-29.95,159.09,159.09,0,0,1-6.9-20.07l-7.43-28L409,1834.65h1.85l55.89-.67,240.41-2.8,50.18-.56,93.32-1.13Z" transform="translate(0 262.88)"/><path class="cls-2" d="M901.89,1842.5c-.4.68-.67,1.46-1.06,2.25-2.53,4.6-6.64,9.64-12.48,14.91-17.13,15.48-49.25,24-83.5,29-32.26,4.71-66.37,6.28-92.13,7.51h-.93c-1.46.12-3,.12-4.51.23-23.1,1-46.33,1.12-69.56.33-11.55-.33-23.1-1-34.65-1.79h0a827.83,827.83,0,0,1-92.66-12l-3.45-.67c-21.24-4.15-49.78-10.66-70.22-20.86-14.2-7.07-24.56-15.82-25.75-26.81a22.39,22.39,0,0,1,1.72-11c7.57-18.61,33.19-31.74,76.07-39.7h0c43.14-8,103.81-11,181.86-9.42,4.12.11,13.54.34,26.15,1h0c3.32.23,6.77.34,10.49.56,19.38,1.12,44.2,3,69.43,6.17,8.76,1,17.39,2.24,26,3.59,36,5.72,69.95,14.13,88,26.69,5.44,3.81,9.56,8,11.68,12.67A21.28,21.28,0,0,1,901.89,1842.5Z" transform="translate(0 262.88)"/><path class="cls-10" d="M467.54,1834.77c-21-18,30.4-41.39,165-43.07s211.2,20.3,219.7,40.82C863.13,1859.33,521.17,1881.08,467.54,1834.77Z" transform="translate(0 262.88)"/><path class="cls-9" d="M782.55,1717.57l-1.2,15.92-2,27.37c-.13,2.47-.4,5.27-.79,8.07-.54,4.15-1.2,8.64-2.13,13.35a169.06,169.06,0,0,1-4.64,18.17,107.58,107.58,0,0,1-14.61,30.17c-8.36,11.66-19.64,20.86-34.91,24.33-4.51,1-9.69,2-15.27,2.81-9.82,1.45-21.1,2.69-33.58,3.58-32.52,2.58-73.28,3.71-115.09,4.72-48.32,1.23-88.81-1-121.87-4.72-7.43-.89-14.47-1.79-21.24-2.8a446.93,446.93,0,0,1-60.79-13c-29.08-8.63-45.8-50.58-51.11-70.32l-13.81-51.92h1.86l55.89-.67,92.39-1.13L707,1718.35l24.16-.22Z" transform="translate(0 262.88)"/><path class="cls-2" d="M771,1701.2c-46.73-32.42-199.12-37.57-220.1-38-155.58-3.26-242.53,11.66-257.93,49.12-13.8,33.76,53.63,50.69,94.39,58.54,66,12.79,135.93,17.27,204.83,13.91,53.1-2.58,143.37-6.4,176.82-36.56C791,1728.34,788,1713,771,1701.2Z" transform="translate(0 262.88)"/><path class="cls-10" d="M348.2,1723.4c-21-17.94,30.4-41.38,165-43.06s211.2,20.3,219.7,40.82C743.79,1748.07,401.83,1769.61,348.2,1723.4Z" transform="translate(0 262.88)"/><path class="cls-9" d="M901.89,1624.15l-1.2,15.81h0l-1.32,17.27-.8,10.1c-1.33,17.94-6.37,46.31-20.71,67.62-8.49,12.68-20.31,22.77-36.5,26.58l-4.39,1c-14.86,3-35,5-58.67,6.51-19.12,1.23-40.49,2-62.79,2.69h0l-8.76.22c-9.69.23-19.38.56-29.34.79-100.36,2.46-166.6-9.42-203.9-20.53a35.87,35.87,0,0,1-7.57-3.14c-10.88-5.72-19.77-16.15-26.68-27.47a157.4,157.4,0,0,1-15.79-35.78c-.4-1.46-.8-2.8-1.07-4l-4.11-15.59-9.69-36.33h1.86l55.88-.67h0l31.2-.34,209.21-2.47,143.5-1.68Z" transform="translate(0 262.88)"/><path class="cls-2" d="M890.47,1607.78c-46.73-32.42-199.12-37.69-220.09-38-155.58-3.26-242.53,11.66-257.93,49.12-13.81,33.76,53.63,50.69,94.38,58.54,66,12.79,135.93,17.27,204.83,14,53.1-2.58,143.37-6.39,176.82-36.56C910.38,1634.92,907.33,1619.55,890.47,1607.78Z" transform="translate(0 262.88)"/><path class="cls-10" d="M467.54,1630.09c-21-17.94,30.4-41.38,165-43.06s211.2,20.3,219.7,40.82C863.13,1654.54,521.17,1676.19,467.54,1630.09Z" transform="translate(0 262.88)"/><path class="cls-9" d="M953.53,1521.76l-1.2,15.81-2,27.36c-2,27.14-12.61,78.62-50.84,92.3a38.83,38.83,0,0,1-6.24,1.8q-6.37,1.52-14.34,2.69c-35,5.38-91.19,7-149.74,8.52q-11.34.35-22.3.34c-88,.34-147.22-10.54-181.6-20.86l-1.06-.34c-10.49-3.47-19.25-11.21-26.42-20.52a123.9,123.9,0,0,1-14.07-23.66A179.19,179.19,0,0,1,475,1582a23.94,23.94,0,0,1-.66-2.58l-13.81-51.92h1.86l55.89-.68L707,1524.56l195-2.24Z" transform="translate(0 262.88)"/><path class="cls-2" d="M952.33,1537.57c-2.52,4.6-6.64,9.64-12.48,14.92-22.3,20.18-70,28.48-115,32.63-22.43,2-44.2,3-61.86,3.93-12.08.56-24.29.89-36.5,1-6.51,0-13.14,0-19.65-.12-21.24-.22-42.48-1.34-63.58-3.14A835.29,835.29,0,0,1,558.2,1575c-4.38-.9-9-1.8-13.93-2.92-35.18-7.74-79.52-21.42-82.18-44.75a22.51,22.51,0,0,1,1.73-11c14.87-36.22,96.77-51.36,243.06-49.34,4.91.11,9.83.11,14.87.22,21,.45,173.37,5.61,220.1,38C954.46,1514,959.37,1524.67,952.33,1537.57Z" transform="translate(0 262.88)"/><path class="cls-10" d="M519,1527.59c-21-17.95,30.4-41.38,165-43.07s211.2,20.3,219.7,40.71C914.76,1552.15,572.81,1573.79,519,1527.59Z" transform="translate(0 262.88)"/><path class="cls-5" d="M1587.4,2028.11l13.8,51.93c5.31,19.74,22,61.68,51.11,70.31,37.3,11.11,103.41,23.11,203.9,20.53,67.31-1.68,131.56-3.59,164-11.22,43.27-10.09,55-65.49,57.08-94.09l3.32-43.29Z" transform="translate(0 262.88)"/><path class="cls-7" d="M2069.14,2006.13c-46.73-32.41-199.12-37.68-220.1-38-155.58-3.25-242.53,11.67-257.93,49.12-13.8,33.76,53.63,50.69,94.39,58.55,66,12.78,135.93,17.27,204.83,13.9,53.1-2.58,143.37-6.39,176.69-36.56C2089.05,2033.16,2086,2017.91,2069.14,2006.13Z" transform="translate(0 262.88)"/><path class="cls-10" d="M1646.21,2028.34c-21-17.95,30.39-41.39,165-43.07s211.2,20.3,219.7,40.82C2041.79,2052.9,1699.84,2074.54,1646.21,2028.34Z" transform="translate(0 262.88)"/><path class="cls-5" d="M1588.73,1926.28l13.8,51.93c5.31,19.73,22,61.68,51.11,70.31,37.3,11.11,103.41,23.11,203.9,20.53,67.3-1.69,131.55-3.59,163.94-11.11,43.28-10,55-65.49,57.08-94.09l3.19-43.29Z" transform="translate(0 262.88)"/><path class="cls-6" d="M2070.33,1904.3c-46.72-32.41-199.12-37.68-220.09-38-155.58-3.25-242.53,11.66-257.93,49.12-13.81,33.76,53.63,50.69,94.38,58.54,66,12.79,135.94,17.27,204.83,13.91,53.1-2.58,143.37-6.39,176.69-36.56C2090.38,1931.44,2087.33,1916.07,2070.33,1904.3Z" transform="translate(0 262.88)"/><path class="cls-2" d="M1647.4,1926.5c-21-17.94,30.4-41.38,165-43.06s211.2,20.3,219.69,40.82C2043.12,1951.07,1701.16,1972.71,1647.4,1926.5Z" transform="translate(0 262.88)"/><path class="cls-8" d="M841.62,1761.53l-4.38,1,40.89-27.48C869.63,1747.63,857.82,1757.72,841.62,1761.53Z" transform="translate(0 262.88)"/><path class="cls-11" d="M902.15,1825.23l-.26,17.27-1.46,82.1h0l-.13,6.73-.27,17h0l-.13,11.22h0l-1.06,65.05h0l-.14,9-.4,19.85-.53,33.87h0c-4,29.94-17.52,74.69-56,83.66-15,3.48-36.9,5.72-62.79,7.4-29.86,1.91-65.18,2.81-101.28,3.7-100.36,2.47-166.6-9.42-203.9-20.52-1.07-.34-2.13-.67-3.19-1.12l15.93-77.83,3.85-19,2.39-11.88,2.79-13.46,6-29.16,4.78-23.44.27-1.12,23-15.48,14.6-9.87,36.11-24.33,57-38.25,4-2.69h0l25.49-17.16,23.89-16h0l1.86-1.23,42.75-28.71,33.45-22.54,10-6.73h0l23.49-15.81c36,5.72,70,14.13,88,26.69C895.91,1816.37,900,1820.64,902.15,1825.23Z" transform="translate(0 262.88)"/><path class="cls-12" d="M1021.63,1532.07l-2,27.37c-2,27.14-12.62,78.62-50.85,92.3l-.79,10.09c-2.13,28.6-13.81,84.11-57.08,94.09-15.14,3.48-37,5.84-63.19,7.41-.53,4.15-1.2,8.63-2.13,13.34,44.87,5.5,91.6,14.81,114,30.4,12.48,8.63,17.39,19.17,10.36,32.18l-2,27.48a181.4,181.4,0,0,1-8.5,42.62l.27.22c12.47,8.64,17.39,19.18,10.35,32.19l-2,27.47a180.39,180.39,0,0,1-8.5,42.62l.27.22c12.48,8.64,17.39,19.18,10.35,32.19l-2,27.48c-2.12,28.6-13.8,84-57.08,94.09-15,3.48-36.9,5.72-62.79,7.4-29.47-19.06-51.64-46.31-63.19-77.72a137.67,137.67,0,0,1-6.1-21.75,127,127,0,0,1-2-14.13c-.4-4.49-.67-9-.67-13.57V1467.92c0-2.13,0-4.26.13-6.28,4.92.12,9.83.12,14.87.23,21,.45,173.37,5.61,220.1,38C1023.75,1508.52,1028.8,1519.18,1021.63,1532.07Z" transform="translate(0 262.88)"/><path class="cls-13" d="M2596.55,373.91c-23.9-41.39-27.88-92.08-10.49-136.15,10.75-5.16,27.35,5.49,36.37,13a247.65,247.65,0,0,1,28.81,27.81c10.88,12.34,20.71,26.58,21.24,42.5.53,20.3-14.47,38.25-30.8,52-4.51,3.81-9.42,7.63-15.4,9.42S2599.47,379,2596.55,373.91Z" transform="translate(0 262.88)"/><path d="M2571.86,2089.23c8.76,20.86,54.42,55.29,73.94,70.55-65.58,14.69-133.28,19.51-199.39,5a330.51,330.51,0,0,0,29.87-34.54C2510.53,2121.76,2541.46,2105.49,2571.86,2089.23Z" transform="translate(0 262.88)"/><g id="c65_sport_shoes" data-name="c65 sport shoes"><path d="M2771,2118.5c8.49-1.79,8.76-1.12,9.82,1.24a65.22,65.22,0,0,1,7.17,26.13c.13,2.47.53,2.92-8.23,4.71-166.87,34.54-226.2,46.43-398.78,26.8-9-1-8.23-1.46-8.36-4-.26-9.76,1.46-17.72,5.05-26.92.92-2.47.79-3.14,9.42-2.13C2555.13,2162.8,2607.7,2152.37,2771,2118.5Z" transform="translate(0 262.88)"/><path class="cls-14" d="M2725.44,1993.68c1.33-1.34,1.6-2.69,6.11-1.79,12.48,2.35,19.65,16.15,22.83,28.37.4,1.35,2.26,7.74,2.79,9.87-14.47,3.14-28.94,6.17-43.41,9.42,1.46,5.5,3.06,11,4.52,16.49,14.47-3.26,29.07-6.28,43.54-9.31,7.3,26.47,14.6,53.05,21.9,79.51-54.69,11.22-107.79,28.38-162.22,38.81-19.25-19.74-36.37-41.05-53.1-62.47q-10.35,1-20.7,1.68c15.26,22.32,32,44,49.51,64.82-8.89,1.35-17.79,2.47-26.81,3q-17.33-20.36-33.46-41.49c-7.43.11-14.73.33-22.17.22q14.74,21.7,30.27,42.95c-8.76.45-17.65,0-26.55-.11-4.91-7.18-9.69-14.47-14.2-22-6.64-.56-13.28-.78-19.92-1.79,4.25,7.85,8.24,14.69,13,23.1-42.87-6.39-77.79-10.43-124-23.33,0,0-12.75-49.79,26.28-39.48,84.16,2.36,133.94-14.8,181.6-84.44,11-27.26,27.88-58.1,32.66-37Z" transform="translate(0 262.88)"/></g><path d="M2752.13,2011.85c4.24,15.59,8.63,31.07,12.87,46.65-15.53,3.26-31.06,6.51-46.46,9.87.13-4.15.27-8.3.27-12.45-3.72-.89-7.44-1.79-11.15-2.57,1.59-7.63,3.31-15.37,5-23C2725.58,2024.07,2738.85,2017.91,2752.13,2011.85Z" transform="translate(0 262.88)"/><path class="cls-15" d="M1876.39,859.51l112.7,79c10-.56,16.2-2.69,32.92-4.49,8.37-.9,27.48-4.82,45.54-10.32,17.65-5.38,34.25-12.22,39.16-19.06,6.9-9.76,5.31-27.48-1.6-37.12l-12.47-17.84c-3.46-5-25.09-18.95-31.6-17.83-20.71,3.82-41.55-4.26-62.26-8a131.69,131.69,0,0,0-17.52-1.79C1944.75,820.6,1895.51,831.14,1876.39,859.51Z" transform="translate(0 262.88)"/><path class="cls-16" d="M2362.51,874a73.49,73.49,0,0,0,21-8.3L2674.6,693.42c30.14-17.27,39.3-53.72,20.44-81.42h0c-18.85-27.7-58.4-36.11-88.54-18.84L2344.33,742.21a76.27,76.27,0,0,1-19.92,7.73l-226.2,52.27c-35.84,8.29-58.54,40.71-51.9,74.13h0c7,35,43.54,58.2,81.64,51.7,1.46-.23,2.92-.56,4.38-.9Z" transform="translate(0 262.88)"/><path class="cls-16" d="M2511.72,1270.21l97.57,32.29c30.4,10.1,64-4.48,75-32.41a48.85,48.85,0,0,0,3.45-16.82l18.06-637.35c.66-24.11-17.13-45.3-42.61-50.91-109.79,32.41-197.93,108.11-240.68,206.47-.93,2.13-1.85,4.26-2.65,6.39-4.12,10.09-7.83,20.41-11,31l-54.56,182.47a177.32,177.32,0,0,0-4.91,20.07c-.13.56-.13,1-.27,1.57C2327.86,1123.63,2396.5,1232.07,2511.72,1270.21Z" transform="translate(0 262.88)"/><path d="M2121.31,1960.71c-2.39,2.69,14.2,90.5,14.2,90.5L1989,1994.13l36.9-28.15Z" transform="translate(0 262.88)"/><polygon points="2289.5 2251.74 2269.99 2294.02 2233.35 2279.78 2241.05 2270.13 2235.34 2262.73 2252.33 2247.36 2289.5 2251.74"/><g id="c65_sport_shoes-2" data-name="c65 sport shoes-2"><path d="M2238.66,2081.05c3.85,1.45,6.37,4,5.71,5.49L2233.48,2110c-.66,1.57-4.51,1.57-8.23.11l-293.11-114.28c-3.85-1.46-6.37-4-5.7-5.49l10.88-23.44c.66-1.57,4.38-1.57,8.23-.11Z" transform="translate(0 262.88)"/><path class="cls-16" d="M2159.67,1911.14c34.78,11.1,85.89,61.23,122.93,51.14a5.23,5.23,0,0,1,4.91,1.12c4.25,3.7,7.57,12.45-1.46,32.86l-4.38,9.31-34.25-13.35-6.9,14.92,34.25,13.35-33.32,72.11-124.26-48.45-5.31-73.79-16.32-6.4,3.58,73.24-19.78-7.74-4.51-47.1-17.53-6.85,3.72,46.77-19.64-7.63-1.47-23.21-15.26-5.94,1.19,23.1-91.73-35.78s-10.48-40.93,30.67-35.89c.4.12,108.45,26.25,194.87-25.79Z" transform="translate(0 262.88)"/></g><polygon class="cls-17" points="2124.36 2200.04 2284.46 2262.39 2305.56 2216.75 2659.47 1450.65 2420.39 1379.44 2162.46 2094.51 2124.36 2200.04"/><path class="cls-18" d="M2420.39,1116.56c27.08,66.62,64.91,111,98.37,139.74,41.15,35.33,32.39,87.48,32.39,87.48l-31.86,249.86a391.88,391.88,0,0,0,2.65,117.54l39,224.41,13.54,77.72,197.4,4.71-8.37-47.89-45.66-260.3a274.4,274.4,0,0,1,.53-98.24l76.73-413Z" transform="translate(0 262.88)"/><polygon class="cls-15" points="2650.04 896.86 2654.03 756.67 2787.57 759.81 2783.59 900 2650.04 896.86"/><path class="cls-19" d="M2869.48,452.75c-3.19,14.8-19,24.45-35.05,21.53a31.3,31.3,0,0,1-10.49-3.93c-17.25,57.09-79.51,92.19-142.83,80.64-66.78-12.11-110.18-71.66-97-133v-.22l12.61-58.32L2621,247l67.7,12.34L2832,285.42,2863,291l-12.08,56.07h0l-15.8,73.12a32.12,32.12,0,0,1,10.89.12,2.24,2.24,0,0,1,.8.22c.39.11.66.11,1.06.22l1.06.23.93.34c.53.11.93.33,1.46.44l.8.23.66.22a3.61,3.61,0,0,1,.93.45l.26.11a21.82,21.82,0,0,1,2.13,1.12,30.08,30.08,0,0,1,5,3.59h0c.4.34.67.68,1.07,1a4.9,4.9,0,0,1,.79.9l2,2.36c.14.11.14.22.27.33s.13.23.26.34A25.77,25.77,0,0,1,2869.48,452.75Z" transform="translate(0 262.88)"/><path class="cls-20" d="M2869.48,452.75c-3.19,14.8-19,24.45-35.05,21.53a31.3,31.3,0,0,1-10.49-3.93c-13.8,45.43-56.81,78.28-108.05,82.43-48.72-23.21-74.87-73.23-64.12-122.58l19.65-90.95,17.25-79.85h0L2832,285.53l30.93,5.61-12.08,56.07h0l-15.8,73.13a32.37,32.37,0,0,1,10.89.11,2.18,2.18,0,0,1,.8.22c.39.11.66.11,1.06.23l1.06.22.93.34c.53.11.93.33,1.46.45l.8.22.66.22a4,4,0,0,1,.93.45l.26.12a17.43,17.43,0,0,1,2.13,1.12,29.52,29.52,0,0,1,5,3.59h0c.4.33.67.67,1.07,1a5.25,5.25,0,0,1,.79.9l2,2.36c.14.11.14.22.27.33s.13.23.26.34A26,26,0,0,1,2869.48,452.75Z" transform="translate(0 262.88)"/><path class="cls-21" d="M2685.22,515.21h0c19.25,3.48,37.44-6.16,40.76-21.53l3.71-17.05-69.56-12.56L2656.42,481C2653.23,496.37,2666.11,511.74,2685.22,515.21Z" transform="translate(0 262.88)"/><path class="cls-10" d="M2711.64,489.31l-38.5-7c-6.24-1.12-10.35-6.72-9.16-12.44l.93-4.38h0l62.39,11.33h0l-.66,3.25c-1.33,6.28-8.1,10.43-15,9.2Z" transform="translate(0 262.88)"/><ellipse class="cls-21" cx="2622.43" cy="659.66" rx="10.49" ry="9.64"/><ellipse class="cls-21" cx="2727.97" cy="678.95" rx="10.49" ry="9.64"/><path class="cls-21" d="M2772.17,409.68a5.43,5.43,0,0,0,6.11-4.48,5.15,5.15,0,0,0-4.78-5.61h0l-53-7.63c-2.92-.45-5.84,1.46-6.24,4.15s1.6,5.27,4.52,5.72h0l53,7.63Z" transform="translate(0 262.88)"/><path class="cls-21" d="M2600.13,380.86l.53.11,39.43,7.63a5.53,5.53,0,0,0,6.5-3.82,5,5,0,0,0-4.25-5.94l-39.42-7.63a5.53,5.53,0,0,0-6.64,3.59,4.9,4.9,0,0,0,3.85,6.06Z" transform="translate(0 262.88)"/><path class="cls-22" d="M1180.79,568l800.47,570.5c35.84,25.57,87.35,19.63,115.23-13.34h0l154.78-183.26L2345.92,830,2418,744.67c27.74-32.86,21.37-80.3-14.47-105.75h0L1603.06,68.3c-35.84-25.57-87.35-19.52-115.22,13.34L1166.32,462.17c-27.88,33-21.37,80.3,14.47,105.87Z" transform="translate(0 262.88)"/><path class="cls-23" d="M2100.2,973.35,1335,428.19c-12.87-9.2-15.13-26.13-5.17-38l3.32-4c10-11.78,28.54-13.91,41.28-4.82l765.16,545.16c12.87,9.19,15.13,26.13,5.18,38l-3.32,4C2131.66,980.3,2113.08,982.43,2100.2,973.35Z" transform="translate(0 262.88)"/><path class="cls-10" d="M2036.35,1048.93,1749.48,844.6c-12.87-9.2-15.13-26.13-5.17-38l3.31-4c10-11.77,28.54-13.91,41.29-4.82l286.87,204.34c12.87,9.19,15.13,26.13,5.17,38l-3.31,4C2067.81,1055.89,2049.23,1058,2036.35,1048.93Z" transform="translate(0 262.88)"/><g class="cls-24"><g class="cls-25"><polygon class="cls-26" points="2041.93 1618.21 1790.24 1438.77 1744.97 370.43 1996.66 549.87 2041.93 1618.21"/><polygon class="cls-27" points="1752.8 1412.08 1644.48 1334.8 1599.21 266.47 1707.53 343.74 1752.8 1412.08"/><polygon class="cls-27" points="1405 1145.61 1296.68 1068.34 1251.41 0 1359.73 77.27 1405 1145.61"/></g></g><path class="cls-28" d="M2191.67,901.46,2023.61,781.68a5.37,5.37,0,0,1-1.07-8l87.35-103.4a6.53,6.53,0,0,1,8.63-1l168.06,119.77a5.37,5.37,0,0,1,1.06,8l-87.35,103.4A6.49,6.49,0,0,1,2191.67,901.46Z" transform="translate(0 262.88)"/><path class="cls-10" d="M1628.15,217.46a43.14,43.14,0,0,0,10.49-27.37c.13-9.42,11.95-15,20-9.31,22,15.59,26,44.64,9,64.83s-48.59,24-70.62,8.3l-.27-.12c-8.09-5.83-5-17.72,4.78-20.18A50.4,50.4,0,0,0,1628.15,217.46Z" transform="translate(0 262.88)"/><path class="cls-10" d="M1597.75,137.94a46.36,46.36,0,0,1,6.51,4c8.09,5.83,5,17.72-4.78,20.19-21.37,5.49-36.38,23.1-36.77,43.51-.27,9.42-12,15-20,9.31l-.26-.11c-21.91-15.59-26-44.64-8.9-64.82,15.27-18.17,42.61-23.33,64.25-12.12Z" transform="translate(0 262.88)"/><path class="cls-10" d="M1580.89,183.7A48.93,48.93,0,0,1,1600,169.91c15.93-6.51,33.45,5.94,30.53,21.75-2.79,15.14-13.67,27.93-28.94,34.21-15.93,6.5-33.45-6-30.53-21.76A43.75,43.75,0,0,1,1580.89,183.7Z" transform="translate(0 262.88)"/><path class="cls-23" d="M1992,769.12c67.44,78.28,159.43,131.22,259.26,172.94l94.65-111.93c-46.33-22.54-93.59-44.41-135.4-72.56-29.61-20-57.48-43.63-92.4-53.83a135.47,135.47,0,0,0-88.54,4.71c-27.21,11.32-55.09,10-41.15,34.2C1979.4,748.26,1985.24,761.16,1992,769.12Z" transform="translate(0 262.88)"/><path class="cls-20" d="M2008.74,718.65c.53,44.53,61.46,70.66,107,76.27a134.69,134.69,0,0,0,19,1.12c22.7-.34,46.33-5.27,67.43,2.35,6.51,2.36,32.26-8.63,36.91-13.34,5.57-5.5,11.15-11.11,16.72-16.71,9.16-9.09,14.47-27.48,9.16-39-3.71-8.19-19.91-18.28-37.43-26.92-17.92-8.86-37.3-16.37-45.93-18.73-25.49-6.95-53.24-13.23-79.92-15.59C2063.7,664.71,2008.08,673.79,2008.74,718.65Z" transform="translate(0 262.88)"/><path class="cls-15" d="M2115.73,794.92a134.69,134.69,0,0,0,19,1.12c22.7-.34,46.33-5.27,67.43,2.35,6.51,2.36,32.26-8.63,36.91-13.34,5.57-5.5,11.15-11.11,16.72-16.71,9.16-9.09,14.47-27.48,9.16-39-3.71-8.19-19.91-18.28-37.43-26.92a140.5,140.5,0,0,0-55.36,14.24C2141,732.34,2117.86,762.39,2115.73,794.92Z" transform="translate(0 262.88)"/><path class="cls-14" d="M2267.73,719.66c-33.45-16.48-75-9-92.92,21.65h0c-17.79,30.28-1.2,62.8,31.46,79.62Z" transform="translate(0 262.88)"/><path class="cls-29" d="M2365.17,1054.65c8.76,60.68,46.86,112.15,107.39,138.62,32.66,14.24,72.08,22.43,117.75,23.44l226.07,5.38,15.93-563.32c.93-33.42-16.86-63.14-44.21-79.63a68,68,0,0,1-10.88,17.27c-14.34,16.82-36.51,26.47-59.87,26a75.9,75.9,0,0,1-34.39-8.86c-17.25-9.08-29.86-24-35.17-41.61C2528.05,596.63,2464.06,673.23,2443,783.48c-.14.78-.27,1.57-.4,2.35a455.23,455.23,0,0,0-7.3,72.11c-.27,9.65-25.09,32.86-31.6,42.28-11.15,16.15-21.5,33-28.54,51-2.12,5.38-3.85,10.88-5.44,16.38C2361.85,995.78,2361.05,1026.06,2365.17,1054.65Z" transform="translate(0 262.88)"/><path class="cls-30" d="M2474.42,1025.49a133.55,133.55,0,0,0,151.73-38.35l166.46-214.77,3.59-124.59a64.61,64.61,0,0,0-9.56-5.5c-26-12.45-57.61-8.41-79.12,9.87L2544.91,792c-4.12,10.09-7.83,20.41-11,31l-54.56,182.47C2477.34,1012.15,2475.75,1018.88,2474.42,1025.49Z" transform="translate(0 262.88)"/><path class="cls-31" d="M2441,1031.66c-.14,5-1.2,10.77-2.66,17.95-10.09,48.11,7.17,102.5,34.38,143.66,32.66,14.24,72.08,22.43,117.75,23.44l189.43,4.49,12.74-448.83L2626.15,987.25a133.63,133.63,0,0,1-151.73,38.36c1.33-6.62,3-13.35,5-20.08L2534,823.06a314.11,314.11,0,0,1,11-30.95l162.62-139.85c21.37-18.39,53.1-22.32,79.11-9.87a77.38,77.38,0,0,1,9.56,5.5l.27-11.55c.4-15.26-6.51-29.84-19.12-39.82-14.34,16.83-36.5,26.47-59.87,26a75.86,75.86,0,0,1-34.38-8.86c-79.38,40.94-140.58,106.21-172.7,184.49-1.6,4-3.19,8.07-4.65,12.11a57.45,57.45,0,0,1-34.12-8.64,210.65,210.65,0,0,0-28.94-15.7,455.24,455.24,0,0,0-7.3,72.12c-.26,9.64-25.09,32.86-31.59,42.28-11.15,16.15-21.51,33-28.54,51-2.13,5.39-3.85,10.88-5.44,16.38-.8,2.91,49.51,31.18,55.22,36.11C2437.38,1014.62,2441.1,1021.91,2441,1031.66Z" transform="translate(0 262.88)"/><path class="cls-17" d="M2777.48,1203.48l-119.74-11s-33.45,179.32,101.82,173.15Z" transform="translate(0 262.88)"/><path class="cls-14" d="M2641.55,1284.45l97.57,32.3c30.4,10.09,64-4.49,75-32.41a49.19,49.19,0,0,0,3.45-16.83l18.06-637.45c.66-24.12-17.13-45.31-42.62-50.92-109.78,32.41-197.92,108.11-240.67,206.47-.93,2.13-1.86,4.26-2.65,6.39-4.12,10.09-7.84,20.41-11,31l-54.56,182.47a177.84,177.84,0,0,0-4.91,20.07c-.14.45-.14,1-.27,1.57C2457.69,1137.87,2526.32,1246.43,2641.55,1284.45Z" transform="translate(0 262.88)"/><path class="cls-16" d="M2788,585.53a3.48,3.48,0,0,0,1.06-.11c2.66-.9,5.44-1.68,8.1-2.47a2.52,2.52,0,0,0,1.46-3.47,3,3,0,0,0-3.19-1.57c-2.79.78-5.57,1.68-8.23,2.46a2.6,2.6,0,0,0-1.72,3.37,2.46,2.46,0,0,0,2.52,1.79Z" transform="translate(0 262.88)"/><path class="cls-16" d="M2717.08,1312.37l-16.19-5.38a2.59,2.59,0,0,1-1.73-3.36,3,3,0,0,1,3.72-1.57l16.19,5.38a2.59,2.59,0,0,1,1.73,3.36,2.69,2.69,0,0,1-2.79,1.69A2.84,2.84,0,0,0,2717.08,1312.37Zm-32.39-10.76-16.19-5.39a2.59,2.59,0,0,1-1.73-3.36,2.9,2.9,0,0,1,3.72-1.57h0l16.19,5.38a2.6,2.6,0,0,1,1.73,3.37,3.14,3.14,0,0,1-3.72,1.57Zm-32.52-10.77-8.23-2.69c-2.66-.9-5.31-1.8-8-2.8a2.69,2.69,0,0,1-1.59-3.48,3,3,0,0,1,3.72-1.46h0c2.65,1,5.17,1.91,7.83,2.69l8.23,2.69a2.59,2.59,0,0,1,1.72,3.37,2.85,2.85,0,0,1-3.71,1.68ZM2619.91,1279c-5.18-2.35-10.35-4.82-15.4-7.4a2.51,2.51,0,0,1-.8-3.7,3,3,0,0,1,3.72-.9c4.91,2.58,10,5,15.13,7.29a2.61,2.61,0,0,1,1.33,3.59,3,3,0,0,1-2.65,1.46c-.53-.11-.93-.23-1.33-.34Zm-30.27-15.81c-4.78-2.92-9.55-6.06-14.2-9.31a2.61,2.61,0,0,1-.8-3.7,2.92,2.92,0,0,1,4-.67c.13,0,.13.11.26.22,4.51,3.14,9.16,6.17,13.81,9.09a2.5,2.5,0,0,1,.66,3.7,2.91,2.91,0,0,1-3.72.67Zm-27.61-19.4c-4.38-3.48-8.63-7.18-12.74-11a2.55,2.55,0,0,1,.13-3.7,3.08,3.08,0,0,1,3.85,0q6,5.55,12.35,10.76a2.46,2.46,0,0,1,.26,3.7,3.07,3.07,0,0,1-2.26.9,4,4,0,0,1-1.59-.67ZM2537.47,1221c-3.71-4-7.43-8.19-10.88-12.45a2.46,2.46,0,0,1,.4-3.7,3.18,3.18,0,0,1,4.11.34c.13.11.13.11.13.22,3.46,4.15,7,8.3,10.62,12.23a2.45,2.45,0,0,1-.26,3.7h0a3,3,0,0,1-2,.67,3.64,3.64,0,0,1-2.13-1Zm-21-25.57c-3.19-4.48-6.24-9.08-9-13.68a2.61,2.61,0,0,1,1.33-3.59,3,3,0,0,1,3.72,1q4.17,6.9,8.76,13.46a2.49,2.49,0,0,1-.8,3.59h0a2.92,2.92,0,0,1-1.59.45,3.72,3.72,0,0,1-2.39-1.24Zm-16.86-28c-2.52-4.82-4.78-9.75-6.9-14.69a2.52,2.52,0,0,1,1.59-3.36,2.91,2.91,0,0,1,3.72,1.46c2,4.82,4.38,9.64,6.77,14.35a2.61,2.61,0,0,1-1.33,3.59,2.91,2.91,0,0,1-3.85-1.35ZM2487,1137.53c-1.73-5-3.32-10.32-4.65-15.47a2.6,2.6,0,0,1,2-3.26,2.87,2.87,0,0,1,3.59,1.8c0,.11,0,.22.13.22,1.33,5,2.79,10.1,4.51,15.14a2.5,2.5,0,0,1-1.85,3.25h0a2.51,2.51,0,0,1-.93.12,2.81,2.81,0,0,1-2.79-1.8Zm-8.1-31.18c-.93-5.27-1.72-10.54-2.25-15.92a2.76,2.76,0,0,1,2.65-2.8,2.87,2.87,0,0,1,3.05,2.24c.53,5.16,1.33,10.43,2.13,15.48a2.65,2.65,0,0,1-2.39,3h-.53a2.48,2.48,0,0,1-2.66-2Zm-3.45-31.85c-.13-4.15-.13-8.41,0-12.56,0-1.12.13-2.35.13-3.47a2.76,2.76,0,0,1,2.92-2.58h0a2.79,2.79,0,0,1,2.79,2.69c0,1.12-.13,2.24-.13,3.36-.13,4-.13,8.19,0,12.23a2.73,2.73,0,0,1-2.79,2.69h-.13a2.48,2.48,0,0,1-2.79-2.36Zm4-29a2.68,2.68,0,0,1-2.52-2.92c.53-4.93,1.33-9.87,2.26-14.69l.26-1.12a2.77,2.77,0,0,1,3.19-2.24,2.81,2.81,0,0,1,2.52,2.91v.23l-.26,1.12c-.93,4.71-1.6,9.64-2.26,14.35a2.84,2.84,0,0,1-2.92,2.36Zm5.71-31.18a2.63,2.63,0,0,1-2.12-3.25c.53-1.68.93-3.37,1.46-5l3-10.32a2.81,2.81,0,0,1,3.58-1.79,2.55,2.55,0,0,1,2,3.25l-3.06,10.32c-.53,1.68-.93,3.25-1.46,5a2.73,2.73,0,0,1-2.79,2,1.52,1.52,0,0,0-.66-.22Zm9-30.62a2.63,2.63,0,0,1-2-3.25h0l4.51-15.25a2.9,2.9,0,0,1,3.58-1.8,2.64,2.64,0,0,1,2,3.14l-4.52,15.26a2.74,2.74,0,0,1-2.79,1.9.91.91,0,0,1-.79,0Zm9.16-30.5a2.55,2.55,0,0,1-2-3.25l4.51-15.26a2.81,2.81,0,0,1,3.58-1.79,2.58,2.58,0,0,1,2,3.25h0l-4.51,15.25a2.75,2.75,0,0,1-2.79,1.91c-.39,0-.53-.11-.79-.11Zm9.16-30.62a2.64,2.64,0,0,1-2-3.25l4.64-15.25a2.88,2.88,0,0,1,3.45-2,2.57,2.57,0,0,1,2.13,3.14v.22l-4.52,15.25a2.74,2.74,0,0,1-2.78,1.91c-.53.11-.67.11-.93,0Zm9.16-30.5a2.55,2.55,0,0,1-2-3.26l4.51-15.25a2.8,2.8,0,0,1,3.58-1.79,2.54,2.54,0,0,1,2,3.25l-4.51,15.25a2.76,2.76,0,0,1-2.79,1.91C2522.07,892.15,2521.81,892.15,2521.68,892Zm9-30.51a2.63,2.63,0,0,1-2-3.25h0l4.52-15.25a2.89,2.89,0,0,1,3.58-1.8,2.63,2.63,0,0,1,2,3.14l-4.51,15.26a2.75,2.75,0,0,1-2.79,1.9,2,2,0,0,1-.8,0Zm9.16-30.5a2.55,2.55,0,0,1-2-3.25l1.33-4.27q1.59-5.55,3.58-11.1a3.07,3.07,0,0,1,3.85-1.35,2.54,2.54,0,0,1,1.6,2.92c-1.2,3.59-2.39,7.29-3.46,10.88l-1.32,4.26a2.9,2.9,0,0,1-2.79,1.91Zm10.09-30.4a2.58,2.58,0,0,1-1.72-3.36l2-5q1.4-3.36,2.79-6.39c.53-1.12.92-2.24,1.46-3.36a2.92,2.92,0,0,1,3.85-1.24,2.53,2.53,0,0,1,1.46,3.26c-.54,1.12-.93,2.24-1.46,3.36-.93,2-1.73,4.15-2.66,6.28l-2,5a2.86,2.86,0,0,1-3.72,1.45Zm12.75-29.27a2.51,2.51,0,0,1-1.46-3.47h0c2.38-4.83,5-9.65,7.56-14.36a3,3,0,0,1,3.85-1,2.54,2.54,0,0,1,1.2,3.48c-2.66,4.6-5.18,9.42-7.57,14.13a3,3,0,0,1-2.66,1.57,3.85,3.85,0,0,0-.92-.34Zm15.66-28.26a2.53,2.53,0,0,1-1.06-3.59h0c2.92-4.59,6-9.19,9-13.68a3.05,3.05,0,0,1,3.85-1,2.54,2.54,0,0,1,1.07,3.59c0,.11-.14.22-.14.22-3,4.38-6.1,8.86-8.89,13.46a3.05,3.05,0,0,1-2.52,1.35,2.86,2.86,0,0,1-1.33-.34Zm18.32-26.8a2.48,2.48,0,0,1-.66-3.7h0q5-6.57,10.35-12.79a3,3,0,0,1,4-.45,2.58,2.58,0,0,1,.53,3.7c-3.45,4.15-6.9,8.42-10.09,12.68a3.14,3.14,0,0,1-2.39,1.12,4.42,4.42,0,0,1-1.72-.56Zm21-25.24a2.57,2.57,0,0,1-.4-3.7h0c3.72-4,7.57-8.07,11.55-12a3,3,0,0,1,4-.33,2.56,2.56,0,0,1,.39,3.7l-.26.22c-3.85,3.82-7.57,7.74-11.28,11.78a3,3,0,0,1-4,.33Zm23.1-23.32a2.55,2.55,0,0,1,0-3.7c4.12-3.7,8.36-7.41,12.61-11a3,3,0,0,1,4,.33,2.66,2.66,0,0,1-.13,3.59c-4.25,3.48-8.36,7.18-12.48,10.77a3.39,3.39,0,0,1-2.12.78,4.37,4.37,0,0,1-1.86-.78Zm25.49-21.42a2.46,2.46,0,0,1,.4-3.7h0c4.38-3.37,9-6.73,13.67-9.87a2.88,2.88,0,0,1,4,.56,2.58,2.58,0,0,1-.53,3.7c-4.51,3.14-9,6.39-13.41,9.76a3.33,3.33,0,0,1-4.11-.45Zm27.34-19.18a2.53,2.53,0,0,1,.8-3.7h0c4.78-3,9.69-6,14.47-8.75a3,3,0,0,1,4,.9,2.37,2.37,0,0,1-.93,3.47c-4.77,2.81-9.69,5.61-14.33,8.64a3,3,0,0,1-1.73.45A2.79,2.79,0,0,1,2693.58,627.14Zm29.21-17a2.54,2.54,0,0,1,1.06-3.59h0c5.05-2.58,10.22-5.15,15.27-7.51a3.09,3.09,0,0,1,4,1,2.53,2.53,0,0,1-1.06,3.59c-.14,0-.14.11-.27.11q-7.56,3.54-15.13,7.4a3,3,0,0,1-1.46.34A2.66,2.66,0,0,1,2722.79,610.09Zm30.66-14.46a2.52,2.52,0,0,1,1.46-3.48c5.31-2.13,10.62-4.26,16.07-6.17a3,3,0,0,1,3.85,1.23,2.56,2.56,0,0,1-1.33,3.48.53.53,0,0,0-.27.11c-5.31,1.91-10.62,4-15.79,6.17a4.63,4.63,0,0,1-1.2.23,3,3,0,0,1-2.79-1.57Z" transform="translate(0 262.88)"/><path class="cls-16" d="M2742.44,1320.56a2.76,2.76,0,0,0,2.92-2.58,2.64,2.64,0,0,0-1.86-2.58l-8.1-2.69a3.07,3.07,0,0,0-3.72,1.57,2.59,2.59,0,0,0,1.73,3.36h0l8.1,2.7A1.28,1.28,0,0,0,2742.44,1320.56Z" transform="translate(0 262.88)"/><path class="cls-16" d="M2478.67,1027.18a133.46,133.46,0,0,0,147.48-40l166.46-214.77,9.43-12.11c8-9.2,13-21.87,15.4-35.66,4.11-23.67,0-50.69-12.08-69.09a1.51,1.51,0,0,1-.4-.45,68.7,68.7,0,0,0-18.45-12.78c-26-12.45-57.61-8.41-79.12,9.87L2552.08,785.72c-.93,2.13-1.86,4.26-2.66,6.39-4.11,10.09-7.83,20.41-11,30.95l-54.56,182.47a179.65,179.65,0,0,0-4.91,20.08C2478.8,1026.17,2478.8,1026.62,2478.67,1027.18Z" transform="translate(0 262.88)"/><path class="cls-14" d="M2460.88,954.39c55.75,28.71,126,16.82,167-28.26l175-193c24.82-26.58,21.5-66.5-7.44-89.27h0c-28.94-22.77-72.48-19.74-97.3,6.84h0L2548,811.4c-16.46,17.72-44.2,22.43-66.64,11.44l-196.73-97.12c-31.86-15.7-71.68-4.82-88.81,24.56h0c-16.86,28.93-5.44,64.93,25.62,81Z" transform="translate(0 262.88)"/><path class="cls-15" d="M2838.81,436.37a15.11,15.11,0,0,0-5.57,5.16c-2.79,3.82-5.58,8.3-4.25,12.79,1.46,4.82,7,7.51,12.34,8.74s11.82.9,14.74-3.36c-.8,1.23-5.71-5.05-6-5.83-1.59-4.26,1.6-6.17,1.73-10C2851.82,438.06,2845.71,433.23,2838.81,436.37Z" transform="translate(0 262.88)"/><path class="cls-16" d="M2710.44,1059.92l-119.73-11s-33.59,179.33,101.81,173.16Z" transform="translate(0 262.88)"/><path class="cls-17" d="M2560.7,1935.7l13.54,77.72,197.4,4.71-8.36-47.89A1319.89,1319.89,0,0,1,2560.7,1935.7Z" transform="translate(0 262.88)"/><polygon class="cls-32" points="2124.36 2200.04 2284.46 2262.39 2305.56 2216.75 2162.46 2094.51 2124.36 2200.04"/><path class="cls-15" d="M2850.89,347.21h0l-37.43,80.42L2799,377.05c-4.25-14.7-18.45-25.13-34.92-25.57a450.93,450.93,0,0,1-92.52-12.23c-34.78-8.41-55.22-17.94-57.35-17.27-3.85,1.12-17.92,40.37-17.39,37.57l24.29-112.49,67.71,12.34h0l143.36,26.13Z" transform="translate(0 262.88)"/><path class="cls-21" d="M2897.88,345c-.13,1-.39,2-.53,3v.11c-.13.34-.13.79-.26,1.24a103.2,103.2,0,0,1-3.59,12.78c-.13.34-.26.67-.4,1a88.32,88.32,0,0,1-17.39,28.71,114.3,114.3,0,0,1-24.55,20.52c-1.73,1.12-15.53,10.1-26,15.14-7.57,3.59-13.41,5.05-11.82.23.8-2.47.8-5.95.4-10.1-3-28.59-8.89-69.64-9.16-71.66v-.11c0-.34-.93-.67-2.52-1.24-2.12-.67-5.71-1.45-10.09-2.46h0c-27.88-5.83-92.79-15.93-100.36-17.39-25.48-5-58.54-12.78-82.17-28.26-17.25-11.32-29.6-26.69-30.66-48.11a41.16,41.16,0,0,1,.13-6.95c1.46-21.87,13.81-43.63,32.66-56.86,27.48-19.4,66.64-22.32,98.89-10.43,3.32,1.23,6.51,2.58,9.69,4,10.62,4.94,20.71,10.88,30.94,16.72a737.09,737.09,0,0,0,81.1,39.7C2878.37,253.68,2905.18,298.77,2897.88,345Z" transform="translate(0 262.88)"/><path class="cls-13" d="M2897.09,349.35a103.2,103.2,0,0,1-3.59,12.78c-.13.34-.26.67-.4,1a88.32,88.32,0,0,1-17.39,28.71,114.3,114.3,0,0,1-24.55,20.52c-1.73,1.12-15.53,10.1-26,15.14-7.57,3.59-13.41,5.05-11.82.23.8-2.47.8-5.95.4-10.1-3-28.59-8.89-69.64-9.16-71.66C2804.69,346,2891.64,366.28,2897.09,349.35Z" transform="translate(0 262.88)"/><path class="cls-33" d="M2720,178.09c-27.61,2.81-55,6.84-81,16-14.87,5.27-45,26-60.27,47.22,1.46-21.87,13.8-43.63,32.65-56.86,27.48-19.41,66.64-22.32,98.9-10.43C2713.63,175.29,2716.82,176.63,2720,178.09Z" transform="translate(0 262.88)"/><path class="cls-18" d="M1929.62,177.76l-1.72,370.65-2.53,549.08-.53,115.29-1.06,225.43L1921,2036.75c-.4,89.27-79.78,161.27-177.22,160.82l-809.62-3.36c-97.18-.12-175.76-72.57-175.5-161.72V2032l2.13-474.17,2-433.91.8-171,1.19-263.32.27-46.55,2.12-469.9c.4-89.27,79.78-161.27,177.22-160.82l547.32,2.35,251.42,1.12H1754c97,.11,175.75,72.56,175.49,161.72C1929.62,177.42,1929.62,177.64,1929.62,177.76Z" transform="translate(0 262.88)"/><g class="cls-34"><path class="cls-35" d="M1923.78,1438.21,1921,2036.75c-.4,89.27-79.78,161.27-177.22,160.82l-809.62-3.36a190.27,190.27,0,0,1-77.4-16.72c319.53-110.13,616.88-263.1,850.78-488.52C1788,1611.59,1859.27,1527,1923.78,1438.21Z" transform="translate(0 262.88)"/><path class="cls-36" d="M1743.11,15.59c-83.9,167-224.34,312.11-388.15,420.22C1177.61,552.9,974.77,631.29,764.89,689.49l.27-46.54,2.12-469.9c.4-89.27,79.78-161.27,177.22-160.83l547.32,2.36Z" transform="translate(0 262.88)"/><path class="cls-37" d="M1752.93,79.74l-157-.68c-21.1-.11-38.23,16.15-38.23,36.34l-.13,26.13c-.13,20.19-17.26,36.45-38.23,36.34l-306-1.35c-21.1-.11-38.09-16.48-38-36.67l.13-26c.13-20.19-16.86-36.56-38-36.67l-55.23-.23L944.9,76.37C876.67,76,821,126.5,820.78,189l-8.36,1814.47c-.27,62.47,54.69,113.27,122.92,113.61l808,3.36c68.23.34,123.72-50.13,124.11-112.6l8.37-1814.46C1876.12,130.88,1821,80.07,1752.93,79.74Z" transform="translate(0 262.88)"/></g><path class="cls-17" d="M933.75,1171.51h820.91c21.5,0,39,16,39,35.89v8.41c0,19.74-17.53,35.89-39,35.89H933.75c-21.51,0-39-16-39-35.89v-8.41C894.72,1187.55,912.11,1171.51,933.75,1171.51Z" transform="translate(0 262.88)"/><path class="cls-18" d="M1808.16,997.46c0,29.94-26.42,54.17-58.94,54.17h-810c-32.66.44-59.34-23.56-59.87-53.5s25.62-54.5,58.28-55h811.62c32.52,0,58.94,24.33,58.94,54.28Z" transform="translate(0 262.88)"/><path class="cls-31" d="M1535.23,997.46c0,29.94-26.42,54.17-59.07,54.17h-537c-32.66.44-59.34-23.56-59.87-53.5s25.62-54.5,58.28-55h538.56C1508.81,943.29,1535.23,967.51,1535.23,997.46Z" transform="translate(0 262.88)"/><path class="cls-31" d="M1334,725.61a176.24,176.24,0,0,1-36.77-6,187.23,187.23,0,0,1-28.14-10.2,108.89,108.89,0,0,1-19.65-11.11c-5-3.7-8.76-6.5-11-8.29a20.4,20.4,0,0,1-4.78-5.95c-.79-1.79-.13-4.48,2.26-7.85l19.65-27.7c2-3,4.64-4.71,7.83-4.82s7.3,1.79,12.35,5.83a138.08,138.08,0,0,0,26.68,15.7,110.44,110.44,0,0,0,31.72,9.2V584.41c-11.68-4.26-23.49-9.2-35.17-14.8a155.68,155.68,0,0,1-32-20.08,96.49,96.49,0,0,1-23.49-28.15c-6-10.88-9-24.11-9-39.47a86.59,86.59,0,0,1,5.84-31.63,74.4,74.4,0,0,1,18.06-26.8c8.23-7.85,18.58-14.36,31.19-19.63s27.48-8.52,44.47-9.65V379.4c-.13-4.82,4.12-8.75,9.29-8.75H1350c5.18-.11,9.56,3.82,9.56,8.53v15.47a187.72,187.72,0,0,1,31.46,5.27,219.13,219.13,0,0,1,26.42,8.75,195.36,195.36,0,0,1,19.38,9.2c5.18,2.91,9,5.16,11.28,6.73a9.49,9.49,0,0,1,4.78,6.95,11.46,11.46,0,0,1-1.72,8.3L1431,466.65c-4.38,5.5-9,6.73-14.07,3.7-7-4.26-15.4-9-25.09-13.9a132.8,132.8,0,0,0-32.26-11.11v84.57c11,4.37,22.7,9.3,34.91,15a158,158,0,0,1,33.72,21,114.06,114.06,0,0,1,25.62,29.38c6.91,11.21,10.36,24.45,10.36,39.48,0,25.23-9,46.31-27,63s-43.81,26.13-77.79,27.93v48.11a7.21,7.21,0,0,1-3,5.94,11.42,11.42,0,0,1-7,2.36,50.63,50.63,0,0,1-10.09-1.12c-3.72-.79-5.57-3.14-5.57-7.18V725.61Zm0-280.38c-12.74,1.57-22.3,5.39-28.67,11.55a30,30,0,0,0-9.56,22.66q0,14,9.56,22.88c6.37,5.94,15.93,12.11,28.67,18.28Zm25.62,230c11.42-1.23,20.71-4.6,27.88-10.2s10.75-13.57,10.75-24a42,42,0,0,0-9-25.46c-6-8-15.93-15.25-29.74-21.76Z" transform="translate(0 262.88)"/><g class="cls-38"><path class="cls-37" d="M1829.13,31.29l-57.61,49.79L817.46,906.17l-53.89,46.54,1.46-310,53.89-46.54,484.93-419.44L1491.69,14.47l262.44,1.12A190.1,190.1,0,0,1,1829.13,31.29Z" transform="translate(0 262.88)"/><path class="cls-37" d="M1929.62,177.76l-1.72,370.65L1874,595.06l-1059.19,916-53.9,46.54,2-433.9,53.9-46.54L1872,164.75l47.66-41.27A149.84,149.84,0,0,1,1929.62,177.76Z" transform="translate(0 262.88)"/><path class="cls-37" d="M1925.37,1097.61l-.53,115.29L1871,1259.55,889.14,2108.64l-60.79,52.59a164.14,164.14,0,0,1-56-66.39l51.1-44.3,1048.05-906.39Z" transform="translate(0 262.88)"/></g><path class="cls-10" d="M1789.84,1217.94H1014.72s-340.23-63.59-340.49,340.27c-.14,336.11-321.92,354.5-321.92,354.5h914.63c38.63,0,109.52-89,128.5-113,112.31-142.31,5.18-304.93,142.58-434C1606.51,1301.27,1698.77,1250.92,1789.84,1217.94Z" transform="translate(0 262.88)"/><path class="cls-2" d="M1434.34,1371.36H783.08c-4.78,0-8.63-3.47-8.63-7.85s3.85-7.85,8.63-7.85h651.26c4.78,0,8.63,3.48,8.63,7.85S1439.12,1371.36,1434.34,1371.36Z" transform="translate(0 262.88)"/><path class="cls-2" d="M1396.77,1441H745.51c-4.78,0-8.63-3.48-8.63-7.85s3.85-7.85,8.63-7.85h651.26c4.78,0,8.63,3.47,8.63,7.85A8.4,8.4,0,0,1,1396.77,1441Z" transform="translate(0 262.88)"/><path class="cls-2" d="M1322.17,1571.44H820.12c-4.78,0-8.63-3.48-8.63-7.85s3.85-7.85,8.63-7.85h502.05c4.78,0,8.63,3.47,8.63,7.85s-4,7.85-8.63,7.85Z" transform="translate(0 262.88)"/><path class="cls-13" d="M2956.16,432.56c-.13,1-.27,2-.4,3A11.68,11.68,0,0,1,2956.16,432.56Z" transform="translate(0 262.88)"/></g></svg>