<svg id="Layer_1" data-name="Layer 1" xmlns="http://www.w3.org/2000/svg" viewBox="0 0 3373.12 2400"><defs><style>.cls-1{fill:#d6f4f4;}.cls-14,.cls-2{fill:#fff;}.cls-2{opacity:0.3;}.cls-18,.cls-19,.cls-2,.cls-22,.cls-3,.cls-30{isolation:isolate;}.cls-3,.cls-6{fill:#91d1d1;}.cls-3,.cls-30{opacity:0.4;}.cls-4{fill:#5ca6b1;}.cls-5{fill:#7ebac4;}.cls-22,.cls-7{fill:#4c969b;}.cls-8{fill:#197daf;}.cls-9{fill:#66ade1;}.cls-10{opacity:0.83;}.cls-11,.cls-18,.cls-19,.cls-30{fill:#fefefe;}.cls-12{fill:#0e2549;}.cls-13{fill:#095996;}.cls-15{fill:#ffa710;}.cls-16{fill:#05517f;}.cls-17{opacity:0.48;}.cls-18{opacity:0.69;}.cls-19{opacity:0.73;}.cls-20{fill:#00d6bc;}.cls-21{fill:#8edaea;}.cls-22{opacity:0.2;}.cls-23{fill:#c2172a;}.cls-24{fill:#840f20;}.cls-25{fill:#521213;}.cls-26{fill:#f5785c;}.cls-27{fill:#ff8e69;}.cls-28{fill:#ff9e83;}.cls-29{fill:#642425;}.cls-31{fill:#eaa837;}.cls-32{fill:#ffbc5a;}.cls-33{fill:#ff6a0d;}.cls-34{fill:#3f0d0f;}</style></defs><title>3</title><g id="_03" data-name=" 03"><path class="cls-1" d="M3499.29,1392.86a79.08,79.08,0,1,1,23.08-109.43v0A78.63,78.63,0,0,1,3500,1392.38Z" transform="translate(-653.44 -360)"/><path class="cls-1" d="M1021.3,1219.13a79.08,79.08,0,1,1,23.08-109.43v0A78.63,78.63,0,0,1,1022,1218.65Z" transform="translate(-653.44 -360)"/><circle class="cls-1" cx="2947.93" cy="1112.92" r="42.29"/><circle class="cls-1" cx="467.95" cy="513.89" r="42.29"/><path class="cls-1" d="M3864.11,2213.44a666.39,666.39,0,0,1-361.27,503.15c-150.67,13.53-327.83,24.42-523.31,31.9a662.66,662.66,0,0,1-225-135.43,670.62,670.62,0,0,1-92.66-104.47,1115.93,1115.93,0,0,1-445.47,92.08q-37.58,0-74.5-2.45-18.15-1.2-36.13-3-20.74,21-42.91,40.43-7.65,6.73-15.47,13.29h0q-15.2,12.75-31,24.78h0a851.2,851.2,0,0,1-127,80.08c-166.28-4.55-321.94-11.45-462.63-20.34-80.92-5.1-156.87-10.86-227-17.19q-35.85-3.22-69.66-6.66-12.55-1.26-24.82-2.58l-6.11-.65c-.77-.07-1.53-.16-2.29-.24l-5.75-.63c-1.86-.19-3.72-.4-5.56-.61q-8.64-.93-17.11-1.9l-8.94-1-11.36-1.32-8.06-.95-6.86-.83-9.79-1.2h-.31l-1.68-.2A850.15,850.15,0,0,1,947,2639.89q-21.71-18.75-42-38.89c-1.08-1-2.14-2.11-3.21-3.18A854.46,854.46,0,0,1,835.34,2523h0a845.45,845.45,0,0,1-181.9-525.2c0-332.23,190.83-619.9,468.85-759.38,101.54-461.36,487.45-816.09,964.63-871A1132.18,1132.18,0,0,1,2216.43,360c415.72,0,778.57,226.45,971.91,562.74,92.41,160.72,146.09,346.52,148.33,544.68a662.65,662.65,0,0,1,238.39,99.34C3780.56,1704.6,3900.86,1952,3864.11,2213.44Z" transform="translate(-653.44 -360)"/><path class="cls-2" d="M2435,1295.39c0,758.65-598.78,1377.45-1349.54,1409.55q-8.64-.93-17.11-1.9l-8.94-1-11.36-1.32-8.06-.95-6.86-.83-9.79-1.2H1023l-1.68-.2a850.15,850.15,0,0,1-74.47-57.61Q925.28,2621.14,905,2601c-1.08-1-2.14-2.11-3.21-3.18A854.46,854.46,0,0,1,835.34,2523h0a845.45,845.45,0,0,1-181.9-525.2c0-332.23,190.83-619.9,468.85-759.38,101.54-461.36,487.45-816.09,964.63-871C2303.68,615.46,2435,940.08,2435,1295.39Z" transform="translate(-653.44 -360)"/><path class="cls-3" d="M3336.67,1467.42c-2.24-198.16-55.92-384-148.33-544.68H2180l-124.45-17.52s6.81-147.82-60.12-105.16c13.59-23.41,21.35-50.83,21.32-75.89-.08-54.48-54.22-108.29-108.29-109.72-36.88-1-56.12,16.41-63.44,43a108.49,108.49,0,0,0-3.59,27.89c-6.75-22.81-32-32.55-53.92-33.08-23.45-.58-46.62,6.73-66.22,19.56h0c-22.68,14.85-40.57,37.11-48.56,63.08-24.64-7.87-52.43,9.69-61.67,33.89-.12.3-.23.62-.34.92-8.88,24.67-1.65,52.81,12.6,74.81,2,3,4.32,6.56,6.94,10.27,7.39,10.46,17,22.28,26.57,28.2l-.15.59a30.92,30.92,0,0,0-10.45-4.66c-.29-.07-.6-.14-.89-.18s-.73-.15-1.1-.21l-1.08-.17-1.08-.13c-.54-.05-1.08-.09-1.62-.11a6.06,6.06,0,0,0-.85,0h-2.1a18.73,18.73,0,0,0-2.5.21,31.63,31.63,0,0,0-6.51,1.54h0l-1.44.55-1.21.54a26.83,26.83,0,0,0-3,1.58,3.79,3.79,0,0,0-.34.2l-.4.25a31.29,31.29,0,0,0-11.53,39.78h-122.4A157.22,157.22,0,0,0,1331,1080v538.37l-72,168.06c-5.27,12.28-10.6,24.85-11.43,38.19-1.42,22.78,10.52,42.85,28.13,57.88-33.74,9.73-54.23,23.69-61.25,42.28a28.74,28.74,0,0,0-1.89,13.17h-2.06l10.71,43.69h0c-80.77,7.49-127.33,25.47-138.67,55.51a28.65,28.65,0,0,0-1.9,13.18h-2l15.31,62.46c5.82,23.71,24.32,74.15,56.46,84.61,16.89,5.5,39.16,11.16,67.22,15.7l8.25,33.67a204.44,204.44,0,0,0,7.66,24.18q-14,10.15-19,23.35a28.31,28.31,0,0,0-1.88,13.16h-2l15.31,62.47a204.44,204.44,0,0,0,7.66,24.18q-14,10.14-19,23.34a28.44,28.44,0,0,0-1.88,13.16h-2.06L1226,2493c5.59,22.85,23,70.48,53,83.29,1.15.49,2.32.94,3.51,1.32,31.54,10.26,81.81,21.07,153.45,24.23l4.73.2h.1l1.61,0c1.28,0,2.57.1,3.85.13q2.4.09,4.83.15c1,0,2.07.06,3.11.08l5.62.13,2.72,0c2,0,4.07.06,6.13.07h20.49c2.34,0,4.71-.05,7.08-.1h2.17c3.1-.06,6.23-.14,9.39-.22,39.86-1.09,78.81-2.25,111.89-4.51l6.34-.47,1.54-.11c1.63-.13,3.25-.25,4.84-.39l1.54-.12,5.68-.49h.31c2-.18,4-.36,5.89-.56.42,0,.83-.08,1.25-.12l4.43-.48,1.48-.16,4.68-.55.7-.08,5.35-.7.53-.07,4.62-.67a.93.93,0,0,0,.4-.06l.84-.14,1.69-.26,3.07-.51,1-.18,2.35-.43,1-.2,3-.58.69-.15,2.33-.51.93-.21c.94-.22,1.88-.44,2.79-.67,16.82-4.26,29.32-15.28,38.55-29.27q-1.29,5.13-2.59,10.26a76.13,76.13,0,0,0-4.74,22.86c-.16,2.8-.52,3.27,8.4,5.29,144.78,32.65,210.59,47.12,334.54,37.51,22.52-1.75,47-4.29,74.15-7.67,9.17-1.13,8.45-1.6,8.51-4.42a76.11,76.11,0,0,0-3.62-25.38,1.42,1.42,0,0,0-.07-.22c1-.29,1.9-.55,2.86-.85.06,0,13-55.52-26.9-44.09-75,2.28-123.27-11.9-166.73-66.58h180.46l6.06,14.28c.75,1.75,4.68,1.79,8.7.08l33.87-14.36H3417.84a157.22,157.22,0,0,0,157.22-157.2V1566.75A662.63,662.63,0,0,0,3336.67,1467.42ZM1791.49,2492.6l-.58-.15.66-.16C1791.54,2492.39,1791.52,2492.49,1791.49,2492.6Z" transform="translate(-653.44 -360)"/><path class="cls-4" d="M4026.56,2601.28c0,27.94-76.13,54.19-209.79,77-83.64,14.26-189.8,27.19-313.93,38.31-150.67,13.53-327.83,24.42-523.31,31.9-193.6,7.43-405.15,11.51-626.76,11.51q-39.66,0-78.84-.17-60.55-.3-119.94-.95-73.74-.83-145.41-2.25-60.43-1.2-119.22-2.79c-166.28-4.55-321.94-11.45-462.63-20.34-80.92-5.1-156.87-10.86-227-17.19q-35.85-3.22-69.66-6.66-12.55-1.26-24.82-2.58l-6.11-.65c-.77-.07-1.53-.16-2.29-.24l-5.75-.63q-11.47-1.22-22.67-2.51l-8.94-1-11.36-1.32-8.06-.95-6.86-.83-9.79-1.2h-.31l-1.68-.2-6.71-.85-5.48-.69c-3-.39-6.09-.8-9.1-1.18l-2-.25q-5.79-.75-11.5-1.52c-2.25-.29-4.5-.6-6.72-.9l-3.32-.46-1.49-.2c-1.64-.22-3.27-.44-4.89-.68l-6.32-.88c-1.72-.23-3.44-.47-5.15-.72s-3.41-.47-5.09-.72l-5-.73-4.44-.66-7-1-3.76-.56-1.75-.27c-1.91-.29-3.81-.57-5.7-.87-4.93-.76-9.81-1.53-14.61-2.3l-3.88-.63-3-.48q-3.72-.6-7.37-1.21l-1.36-.22-2.14-.36-6.9-1.18-6.8-1.17-5.62-1-4.39-.78-3.29-.6-3.26-.6q-8.1-1.48-15.9-3l-5.41-1.06c-2.3-.45-4.59-.92-6.83-1.37-3-.61-6-1.24-8.91-1.85l-6.35-1.34c-2.55-.55-5.06-1.1-7.55-1.66q-8.69-1.93-16.83-3.89l-2.7-.65-1.34-.33-1.33-.33-2-.5-2-.5c-1.72-.43-3.43-.85-5.12-1.29l-5.5-1.45c-1.6-.42-3.19-.85-4.75-1.28q-8.24-2.25-15.76-4.53c-23.42-7.09-41.7-14.4-54.48-21.87a71.09,71.09,0,0,1-12.59-9c-.27-.23-.53-.48-.79-.72L687,2617l-.26-.25a3.31,3.31,0,0,1-.27-.26c-.35-.35-.71-.72-1.05-1.08-.54-.58-1-1.15-1.5-1.73h0c-.23-.28-.45-.56-.66-.85h0c-.27-.36-.53-.71-.76-1.07-.36-.53-.69-1.07-1-1.63s-.6-1.1-.84-1.65c-.12-.29-.26-.58-.38-.86a7.41,7.41,0,0,1-.28-.79.11.11,0,0,0,0-.09c-.08-.25-.16-.47-.22-.7s-.11-.36-.16-.54l-.12-.56a.9.9,0,0,1-.07-.27,1.28,1.28,0,0,1,0-.27.11.11,0,0,1,0-.08.61.61,0,0,1,0-.19v-.24c0-.33-.1-.65-.12-1v-2.47a7.53,7.53,0,0,1,.08-.83h0v-.22a.21.21,0,0,0,0-.11V2599a.74.74,0,0,1,0-.21,2.36,2.36,0,0,1,.08-.45c0-.28.11-.56.18-.83a1.42,1.42,0,0,1,.07-.22,2,2,0,0,1,.09-.35,1.68,1.68,0,0,1,.09-.32,1.57,1.57,0,0,1,.13-.42,1.73,1.73,0,0,1,.1-.28v-.12a0,0,0,0,1,0-.05c.1-.28.2-.55.32-.82a20,20,0,0,1,.82-1.83c.18-.36.38-.7.59-1.06l.31-.53.33-.54c.17-.27.35-.54.52-.79s.36-.53.56-.8c.39-.53.81-1.07,1.25-1.61.28-.35.58-.72.89-1.08s.65-.72,1-1.07h0c.3-.31.58-.61.89-.92l1.12-1.12h0l.86-.81.24-.2.17-.15h0l.34-.3.5-.45.51-.45c.77-.66,1.58-1.33,2.42-2,.36-.26.72-.55,1.08-.84l1.11-.83,1.16-.83c2-1.41,4.06-2.8,6.31-4.22.6-.36,1.18-.74,1.8-1.12l.75-.45a.59.59,0,0,1,.17-.1h0a1.43,1.43,0,0,1,.27-.15,5.9,5.9,0,0,1,.69-.4,11.5,11.5,0,0,1,1-.57l1-.57.49-.27c.16-.1.33-.19.5-.28.32-.2.67-.38,1-.55,1.35-.76,2.75-1.5,4.18-2.26l2.09-1.08,1.7-.85c.56-.3,1.15-.59,1.72-.87,1.18-.56,2.36-1.15,3.58-1.71h0l1.81-.86c1-.46,2-.93,3-1.39l.67-.31c.64-.27,1.27-.56,1.93-.85l1.85-.81a3.43,3.43,0,0,1,.52-.23c.44-.2.9-.39,1.35-.58l1.09-.46c.62-.28,1.26-.54,1.89-.79l1.53-.64,1.56-.65,2.57-1c.38-.16.77-.3,1.17-.46l1.18-.48.91-.34c.32-.14.63-.26.94-.37l1.21-.48c.42-.15.83-.33,1.25-.48l6.33-2.4,3.28-1.19,1.07-.39,2.27-.8h0l2.2-.77,1.06-.37q.59-.22,1.2-.42h0l1.21-.43c1-.35,2-.68,3-1l3.11-1q1.56-.54,3.15-1.05c1.05-.36,2.12-.69,3.18-1l3.64-1.18h0l1.35-.42,1.37-.44,1.93-.62,2.83-.89,7.71-2.37c2.31-.7,4.65-1.38,7-2.09.31-.08.63-.17.93-.27h0c1.34-.41,2.68-.8,4-1.19l1.82-.52,1.84-.52c.6-.19,1.19-.36,1.79-.52l1.8-.51.44-.12h0l.32-.09.35-.1,1-.3,1.7-.48,2.16-.58,2.2-.6c1.09-.32,2.18-.61,3.28-.91l2.35-.65c.5-.13,1-.26,1.51-.41l.84-.23,2.29-.6.83-.22,3.15-.83,1.31-.35,5.82-1.51L852,2519h0l3.29-.85c1-.27,2.07-.52,3.12-.78l1-.27,3.25-.8q1.08-.28,2.16-.54l6.06-1.49,3.07-.75,3.09-.74c1.16-.28,2.34-.57,3.51-.83h0c.46-.11.92-.22,1.37-.31l2.16-.52,3.57-.84,3.56-.84,4.16-1c1.26-.28,2.55-.57,3.82-.87l.4-.08h0l1.48-.33,3.71-.85,3.32-.74c.73-.17,1.49-.34,2.26-.5.38-.1.76-.17,1.13-.26l1.14-.26c.38-.09,1-.22,1.44-.31l1.45-.32,1.46-.32,1.46-.33c4.13-.9,8.29-1.8,12.51-2.7l.72-.16c3.07-.65,6.15-1.31,9.26-1.94l2.55-.53,2.22-.46.76-.16c2.08-.43,4.15-.86,6.26-1.28l1-.21q9-1.83,18.2-3.66l.54-.09h.28l1.78-.37L976,2491l1.31-.26q7.85-1.53,15.85-3.06c.89-.15,1.79-.33,2.68-.5l2.69-.51,2.68-.5,2.71-.5,5.45-1q17.19-3.18,35.16-6.3l6-1c2-.36,4-.7,6-1,3.11-.54,6.22-1.08,9.35-1.6l5.86-1,4.43-.72c.48-.09,1-.17,1.47-.24l.42-.08c1.82-.32,3.67-.61,5.52-.91,3.34-.55,6.7-1.12,10.09-1.65l2.84-.47,1-.15,2.83-.46c1.13-.17,2.25-.34,3.38-.53l3.37-.55,3.38-.52,3.4-.55,6.15-1,6.21-1,2.67-.4,9.81-1.49,6.31-1,6.35-1,2.38-.34,7.17-1.07,6.44-.94c1.08-.17,2.15-.31,3.23-.47l6.54-.94,1.88-.27,6.6-.94c.86-.13,1.71-.25,2.58-.36l2.59-.37,5.11-.73h.07l5.87-.81c2-.26,3.92-.55,5.89-.81l.77-.11,7.71-1.06,7.77-1.06,3.89-.51c1.31-.19,2.61-.36,3.92-.53l15.74-2.07,4-.52,4-.52c4-.52,8-1,12-1.53l5.36-.67,6.73-.85,10.06-1.26,6.22-.77,3.89-.47,3.91-.48,7.85-.94c2.61-.31,5.24-.64,7.88-.93l4-.48,4-.47,4-.47,2-.23,2-.24,10.92-1.27,5.48-.61,5.52-.63q11.69-1.32,23.56-2.61l3.38-.37,6.8-.75,1.71-.18c1.7-.18,3.41-.37,5.12-.54h0l6.84-.72,6.88-.72c3.78-.4,7.57-.81,11.37-1.2,1.77-.17,3.56-.37,5.35-.55l1.34-.13,1.43-.15c.86-.1,1.73-.18,2.59-.27l4.21-.41,2.1-.21,2.12-.22q8.44-.87,17-1.69c2.55-.24,5.12-.51,7.7-.76h.83l2.77-.27c.71-.06,1.43-.13,2.14-.21l.62-.06,5.56-.52q20.27-2,40.88-3.81l5.09-.46c2.74-.26,5.49-.49,8.23-.73l16.71-1.47,16.82-1.45,7.62-.64,7.67-.65,27.1-2.19c3-.24,6.06-.47,9.11-.73l4.56-.34,4.55-.35c3.66-.29,7.3-.57,11-.84s7.31-.55,11-.81l4.2-.32,4.18-.32,4.22-.31,4.22-.3,12.8-.93,4.84-.34,8.88-.64,8.88-.61,6.76-.45,2.36-.16,4.41-.31c1.8-.13,3.57-.24,5.35-.35s3.55-.24,5.33-.34c2.89-.2,5.74-.38,8.62-.56l4.32-.29,4.33-.28,8.59-.53,8.63-.55h0c5.76-.37,11.53-.71,17.32-1.07q13.23-.81,26.57-1.55l17.65-1,4.63-.26,7-.37c2.33-.14,4.65-.26,7-.38l12.38-.65,12.43-.65h1.15q17.94-.91,36-1.76l2.74-.12q7.06-.35,14.14-.65c3.45-.14,6.87-.31,10.34-.46q6.83-.3,13.69-.57l13.71-.59,8-.32,8-.33q10.38-.4,20.82-.78l4.63-.16,4.62-.17a23.12,23.12,0,0,0,2.5-.09l8-.29,8-.28,7-.22c2.41-.07,4.82-.16,7.22-.25l13.79-.45,9.35-.28,23.79-.7,17.25-.45c1,0,2,0,2.93-.07l3.1-.09,2.53-.06h0l12.59-.3,8.22-.2c1.17,0,2.35-.06,3.52-.08h.6l4.12-.08q11-.24,22-.45l7.18-.15h0l15-.27c1.24,0,2.48,0,3.72-.06,2.28,0,4.57-.09,6.85-.12,4.21-.08,8.42-.14,12.64-.21l19.35-.28q9.66-.13,19.33-.23l6.23-.08c2.08,0,4.16,0,6.25-.06h3l15.54-.15h.31l15.26-.1c4.87,0,9.74-.07,14.59-.11l15.65,0h57.94q10.24,0,20.45.07h3.25q10.31,0,20.58.13l21.34.17h2.7l18.46.19,3.66.05h.45q11.27.12,22.5.29l11.55.17,11.31.2q11.42.18,22.77.4h0l9.73.19,9.72.19,19.38.43q6.43.17,12.88.3l12.85.32,9.22.23,2,.07h1.6l6.27.16,7.77.22c3.84.11,7.66.22,11.49.35,1.87,0,3.74.09,5.6.15l3,.1c1,0,2,.08,3,.1h1a.15.15,0,0,0,.13,0h.88l1.55,0,8.62.28h1.65l2.58.08c1.93.06,3.86.14,5.79.19l5.79.18,5.55.2,3.84.13,1.71.06c1.94.07,3.87.15,5.81.21h0l6.78.24,5.08.19a9.4,9.4,0,0,1,1.19.05c1.74,0,3.47.12,5.22.18l1.33,0,4.23.16,2.32.08h.44l2.34.07,1.1,0a10.85,10.85,0,0,1,1.4.06,20,20,0,0,1,2.19.08l5.35.22,5.35.2,6,.25,6.42.25,5.57.24c2.28.11,4.57.19,6.84.29,4.82.21,9.61.4,14.41.62l10.3.47c1.91.07,3.8.17,5.7.25h.51c.89,0,1.78.08,2.68.12s1.78.07,2.67.12c1.8.08,3.6.16,5.39.26l5.39.26,14.43.69c1.17.06,2.33.13,3.49.17h.08c1.13.07,2.26.11,3.39.16l1.67.09,9.95.51,5.74.3h1.13l8.37.46,8.36.44,6.31.34,10.35.57,1.68.09h.44l7.34.42c2.38.14,4.75.28,7.11.4l3.69.21c1.22.07,2.44.15,3.68.21l5.18.3,3.95.23,4.42.27,11.38.69c3.85.23,7.71.47,11.55.72s7.67.46,11.49.71h1l5.25.34c1.76.1,3.51.22,5.26.33h.79l.79,0,11.32.75,5.83.39,5.82.39c2.54.16,5.07.34,7.59.51l2.15.15,1.87.12,8.19.58,3.36.23,7.64.55,3.86.28,1.81.12c.6.05,1.19.09,1.79.12l1.7.13,1.76.12,1.92.14,2.49.19,2.44.18,2.43.17h0l3.07.23,7.43.55h0l7.35.55.91.08h.34l2.09.16,1,.07c2.31.19,4.62.36,6.93.53l9,.7,6.29.5,2.93.23,2.58.21.73.06a3.4,3.4,0,0,1,.72.05h.25l4.46.37,9.16.74,8.69.71,11.09.92c3.69.3,7.37.62,11,.93,7,.59,14.05,1.18,21,1.82,4.78.41,9.54.84,14.28,1.26l14.2,1.28c4.7.43,9.41.85,14.1,1.29l11.89,1.12,21.12,2,8.76.86,10.12,1,10.06,1,7.22.73c3.41.34,6.81.7,10.21,1.05l10.14,1.06,4.66.49q.69.06,1.38.15l3.25.33c1.45.16,2.91.32,4.35.46l6.5.71,4.54.49c1.82.2,3.64.39,5.45.6l9.92,1.09,9.9,1.1,9.81,1.11,5.8.66,5.77.66,11.31,1.32q22.51,2.64,44.4,5.35l4.29.54,5.09.64,9.22,1.17c1.58.2,3.16.39,4.73.6l2.23.28,9.54,1.23,4.25.57q8,1,15.93,2.1,18.09,2.43,35.7,4.9l17.49,2.48q8.67,1.25,17.23,2.51l17,2.54c1,.13,1.93.28,2.9.43l4,.61,1.15.18,8.7,1.33,8.26,1.28c2.75.43,5.49.86,8.2,1.3l1,.16,9.13,1.44,5.55.91.52.08,8,1.31q15.3,2.5,30.11,5.06l2.85.49,1.42.25,4.63.8,2.31.4,2.8.49,2.09.35.69.14.69.12,1.36.25c2.6.46,5.17.91,7.74,1.38l13,2.34c3,.57,6.1,1.12,9.12,1.69q11.4,2.11,22.45,4.25l3.69.72,11.19,2.2c4.91,1,9.78,1.95,14.57,2.94l2.58.52,6.61,1.37q6.22,1.29,12.32,2.59,5.07,1.08,10.06,2.17l4.37.95c5.81,1.27,11.5,2.55,17.11,3.82q36.95,8.41,68.23,16.93,22.2,6,41.4,12.09C3987.08,2558.72,4026.56,2581.17,4026.56,2601.28Z" transform="translate(-653.44 -360)"/><path class="cls-5" d="M3805.45,2507c-19.6,19.36-54.31,39.23-105.31,58.93-38.85,15-87.15,30-145.42,44.45q-22.26,5.57-46.45,11c-148.17,33.39-351.57,64.11-616.86,88.24-167.07,15.19-358.71,27.75-576.55,36.71q-11.06.47-22.21.89l-16.57.65c-41.2,1.59-81.76,7.49-122.09,11q-73.74-.82-145.41-2.25-60.43-1.2-119.22-2.79c-166.28-4.55-321.94-11.45-462.63-20.34-80.92-5.1-156.87-10.86-227-17.19q-35.85-3.23-69.66-6.66-12.55-1.26-24.82-2.58l-6.11-.65c-.77-.07-1.53-.16-2.29-.24l-5.75-.63q-11.47-1.22-22.67-2.51l-8.94-1-11.36-1.32-8.06-.95-6.86-.83-9.79-1.2h-.31l-1.68-.2-6.71-.85-5.48-.69c-3-.39-6.09-.8-9.1-1.18l-2-.25q-5.79-.75-11.5-1.52c-2.25-.29-4.5-.6-6.72-.9l-3.32-.46-1.49-.2q-8.28-1.12-16.36-2.28c-1.71-.23-3.41-.47-5.09-.72l-5-.73q-5.77-.84-11.44-1.7l-3.76-.56-1.75-.27c-1.91-.29-3.81-.57-5.7-.87-4.93-.76-9.81-1.53-14.61-2.3-2.3-.36-4.57-.73-6.83-1.11q-3.72-.6-7.37-1.21l-3.5-.58-6.9-1.18-6.8-1.17-5.62-1L870,2675l-3.29-.6-3.26-.6q-8.1-1.49-15.9-3l-5.41-1.06c-2.3-.45-4.59-.92-6.83-1.37-3-.61-6-1.22-8.91-1.85L820,2665.2c-2.55-.55-5.06-1.1-7.55-1.66q-8.68-1.93-16.83-3.89L793,2659l-1.34-.33-1.33-.33-2-.5-2-.5c-1.72-.43-3.43-.85-5.12-1.29l-5.5-1.45c-1.6-.42-3.19-.85-4.75-1.28q-8.24-2.25-15.76-4.53,21.69-7.87,46.09-15.93h0q32.09-10.62,68.62-21.56,17.1-5.1,35.13-10.24l9.58-2.71h0q7.81-2.2,15.81-4.42,29.64-8.23,61.53-16.52c221.84-57.67,522.76-116.91,866.65-162.83h0q120.23-16,247-29.75h.17l2.53-.06h0l12.59-.3,8.22-.2c1.17,0,2.35-.06,3.52-.08h.6l4.12-.08,14.87-.31c4.77-.11,9.55-.19,14.34-.29h0q9.36-.18,18.76-.33,9.74-.18,19.49-.33l4.27-.06q7.53-.14,15.08-.22,9.66-.14,19.33-.23l6.23-.08c2.08,0,4.16-.05,6.25-.06h3l15.54-.15h.06c5.17-.05,10.32-.07,15.51-.1,4.87,0,9.74-.07,14.59-.11l15.65-.05h57.94q10.24,0,20.45.07h3.25q10.31,0,20.58.13l21.34.17h2.7l18.46.19,3.66.05h.45q11.27.13,22.5.29l11.55.17q22,.33,43.82.79l9.72.19,19.38.43q6.43.17,12.88.3l12.85.32,9.22.23,2,.07,7.87.2,7.77.22c3.84.11,7.66.22,11.49.35,1.87,0,3.74.09,5.6.15l7.12.22h.88l1.55.05,8.62.28h1.65l2.58.08c1.93.06,3.86.14,5.79.19l5.81.19,5.53.19,3.84.13,1.71.06c1.94.07,3.87.15,5.81.21h0l6.78.24,5.08.19a9.4,9.4,0,0,1,1.19.05c1.74,0,3.47.12,5.22.18a7.45,7.45,0,0,1,1.05.05l2,.07,2.47.09,2.32.09h.44c2.35.06,4.68.16,7,.26l5.35.22,5.35.2,6,.25,6.42.25,5.57.24c2.28.11,4.57.19,6.84.29,4.82.21,9.61.4,14.41.62l10.3.47c1.91.07,3.8.17,5.7.25h.51c.89.05,1.78.08,2.68.12s1.78.07,2.67.12c1.8.08,3.6.16,5.39.26l5.39.26,14.43.69c1.17.06,2.33.13,3.49.17h.08l2.52.14q3,.17,6.09.3l6.4.32,5.74.3,1.13.06,8.37.44,8.36.44,6.31.34,10.35.57,1.68.09h.44l7.34.42c2.38.14,4.75.28,7.11.4l3.69.21c1.22.07,2.44.15,3.68.21l5.18.3,4,.23,4.42.27,11.38.69c3.85.23,7.71.47,11.55.72s7.67.46,11.49.71h1l10.51.67h.79l.79,0,11.32.75,5.83.39,5.82.39c2.54.16,5.07.34,7.59.51l2.15.15,1.87.12,8.19.58,3.36.23,7.64.55,3.86.28,1.81.12c.6.05,1.19.09,1.79.12l1.79.14h.5l3.09.22,2.49.19,2.44.18,2.43.17h0l6,.44,4.5.34h0l7.35.55.91.08h.34l2.09.16,1,.07,6.93.54,9,.7,6.3.49,2.93.23,2.58.21.73.06a3.4,3.4,0,0,1,.72.05h.25c1.49.11,3,.23,4.46.36l9.16.74,8.69.71,11.09.92c3.69.3,7.37.62,11,.93,7,.59,14.05,1.18,21,1.82,4.78.41,9.54.84,14.28,1.26l14.2,1.28c4.7.43,9.41.85,14.1,1.29l11.89,1.12,21.12,2,8.76.86,20.18,2,7.22.73c3.41.34,6.81.7,10.21,1.05l10.14,1.06,4.66.49q.69.06,1.38.15,7.08.73,14.1,1.5l4.54.49c5.14.55,10.28,1.11,15.37,1.69l9.9,1.1,9.81,1.11,5.8.66,5.77.66,11.31,1.32q22.51,2.64,44.4,5.35l4.29.54,5.09.64,9.22,1.17c1.58.2,3.16.39,4.73.6l2.23.28,9.54,1.23,4.25.57q8,1,15.93,2.1,18.09,2.43,35.7,4.9l17.49,2.48q8.67,1.24,17.23,2.51t17,2.54l6.88,1,1.15.18,8.7,1.33,8.26,1.28c2.75.43,5.49.86,8.2,1.3l1,.16q7.38,1.17,14.68,2.35l.52.08,8,1.31q15.3,2.51,30.11,5.06l2.85.49,6.05,1.05,2.31.4,5.58,1,.69.12,1.36.25c2.6.46,5.17.91,7.74,1.38l13,2.34c3,.57,6.1,1.12,9.12,1.69q11.4,2.11,22.45,4.25c1.23.25,2.46.48,3.69.72l11.19,2.2c4.91,1,9.78,1.95,14.57,2.94l2.58.52,6.61,1.37q6.22,1.29,12.32,2.59,5.07,1.08,10.06,2.17l4.37,1C3794.15,2504.48,3799.84,2505.76,3805.45,2507Z" transform="translate(-653.44 -360)"/><path class="cls-6" d="M3308.19,2495.11c0,87.67-749.37,158.74-1673.79,158.74-303.37,0-587.86-7.66-833.22-21q-45.6-2.47-89.35-5.23a39.32,39.32,0,0,1-25.11-10.94q-.68-.64-1.32-1.35c-.54-.58-1-1.15-1.5-1.73-.23-.29-.45-.56-.67-.86h0c-.26-.36-.53-.71-.76-1.08a16.78,16.78,0,0,1-1-1.62c-.3-.54-.59-1.11-.84-1.66-.13-.29-.26-.58-.38-.87s-.21-.51-.29-.77a.17.17,0,0,1,0-.1c-.09-.25-.16-.47-.22-.7a8.34,8.34,0,0,1-.29-1.09,4.88,4.88,0,0,1-.12-.55v-.09a2,2,0,0,1-.07-.42,14.27,14.27,0,0,1-.21-2.44v-1a3.14,3.14,0,0,1,.07-.83h0a2.53,2.53,0,0,1,.09-.55.81.81,0,0,1,0-.22,2.36,2.36,0,0,1,.08-.45c.05-.27.11-.55.18-.83s.1-.39.16-.58l.09-.32c.08-.27.17-.55.27-.81h0c.1-.28.2-.56.32-.83.23-.61.52-1.21.82-1.83.18-.35.38-.7.59-1.06l.63-1.06a35.14,35.14,0,0,1,2.33-3.22l.9-1.07c.32-.36.64-.71,1-1.08h0l.88-.93,1.14-1.12c.83-.78,1.7-1.58,2.63-2.38.77-.67,1.58-1.34,2.42-2l1.08-.84c.73-.55,1.48-1.12,2.27-1.67,1.94-1.4,4-2.79,6.3-4.21l1.8-1.12c.63-.38,1.24-.76,1.88-1.12s1.28-.76,2-1.12l1-.57c.32-.19.67-.38,1-.55,1.35-.76,2.74-1.5,4.18-2.25.68-.37,1.38-.71,2.09-1.08l3.42-1.73c1.18-.56,2.37-1.14,3.59-1.71l1.81-.86,3.72-1.7c.64-.27,1.28-.57,1.94-.86,1.57-.69,3.15-1.39,4.81-2.07.62-.28,1.25-.54,1.89-.8,1-.42,2-.86,3.09-1.28l2.57-1,2.34-.93c.31-.13.61-.25.92-.36s.62-.25.94-.36c.8-.32,1.61-.64,2.46-1l6.33-2.4c2.17-.79,4.38-1.6,6.63-2.4,1.07-.39,2.16-.77,3.27-1.15.8-.29,1.61-.56,2.41-.84,1-.36,2-.7,3.07-1,2-.71,4.12-1.42,6.24-2.1,1.06-.37,2.13-.7,3.2-1s2.41-.78,3.63-1.19h0l7.48-2.37c2.48-.79,5.1-1.58,7.72-2.37l7.95-2.37h0l4.07-1.17c1.19-.37,2.42-.7,3.65-1s2.68-.78,4-1.16l3.41-1c1.44-.4,2.89-.81,4.36-1.2,1.09-.32,2.18-.61,3.28-.9,1.56-.44,3.13-.86,4.71-1.28,2.06-.55,4.16-1.12,6.26-1.67q6.42-1.68,13-3.37l4.16-1.05q8.63-2.16,17.64-4.33,7-1.68,14.19-3.34c5.53-1.3,11.15-2.57,16.86-3.85.74-.18,1.5-.35,2.27-.51s1.51-.34,2.26-.5l2.9-.65,2.92-.64c4.12-.91,8.29-1.8,12.51-2.7l.72-.16,9.26-2c1.83-.38,3.66-.75,5.52-1.15q12.45-2.58,25.44-5.13l2.61-.52,2.61-.51,15.85-3,5.36-1,5.4-1,5.44-1q17.2-3.18,35.17-6.3c4-.68,8-1.38,12.06-2.06,3.09-.54,6.2-1.08,9.33-1.6l5.87-1,5.9-1c2-.33,4-.66,5.94-1l10.08-1.64c2.21-.37,4.44-.73,6.65-1.08l6.74-1.08c2.25-.34,4.52-.69,6.78-1.06l6.15-1,6.2-1q6.19-1,12.49-1.9t12.65-1.89l9.56-1.43,9.67-1.4q7.47-1.11,15-2.15l10.35-1.46,12.52-1.74,15.49-2.11,7.8-1q7.83-1,15.76-2.08l7.93-1,24.09-3.06q8.09-1,16.28-2l7.8-.94,7.84-1,7.88-.93,8-.94,4-.47c1.33-.16,2.7-.32,4-.46l10.91-1.28,11-1.24q26.74-3,54.3-5.91l11.37-1.19,5.34-.55c1.78-.18,3.58-.35,5.37-.54l4.21-.42,4.21-.44,17-1.69,7.7-.75h.83l5.54-.56,5.56-.52q20.25-1.93,40.88-3.81l13.32-1.19c5.55-.49,11.12-1,16.71-1.46s11.19-1,16.81-1.44l15.29-1.3q13.49-1.11,27.11-2.19l9.1-.71,9.12-.71c7.3-.57,14.59-1.12,21.93-1.66l8.4-.63c1.41-.11,2.8-.2,4.2-.32s2.82-.2,4.21-.3q17.61-1.29,35.41-2.5c4.51-.32,9-.62,13.53-.92l5.35-.36c1.77-.13,3.54-.25,5.33-.35l8.62-.56,8.64-.56,17.22-1.09h0l17.32-1.06q13.23-.8,26.56-1.55l17.65-1,4.64-.26,13.93-.76,24.82-1.29h1.15q17.94-.91,36-1.76,13.58-.63,27.22-1.22l27.42-1.16q8-.33,16-.64,10.38-.42,20.81-.79l4.64-.17,4.62-.18,2.5-.08c5.34-.21,10.71-.38,16.07-.57l28-.92,9.36-.29,23.8-.7,17.23-.45c2,0,3.91-.08,5.87-.14h.19c.84,0,1.69-.06,2.54-.07l12.59-.31,16.46-.38q14.57-.32,29.21-.59h0q19-.37,38.25-.67l19.35-.28,19.33-.23q6.23-.09,12.48-.13h3q7.76-.09,15.55-.14c5.19,0,10.36-.08,15.56-.11q15.11-.1,30.27-.16,16.14-.06,32.41,0,93.57,0,184.59,1.74,19.48.38,38.82.82l12.89.3,12.85.32,12.83.34q12.8.35,25.53.72c1.87.06,3.73.12,5.59.16s4,.13,6,.19c.67,0,1.33,0,2,.06l10.17.32,1.64.06q12.66.4,25.27.84c2,.07,3.88.15,5.81.2l6.79.25,12.54.47,6.83.24h.43c2.36.08,4.7.16,7,.26l10.7.43,6,.24,6.42.26,5.57.24,6.84.29,14.4.62,10.3.47c2.08.08,4.16.19,6.22.27l5.35.25q5.4.24,10.78.51l14.43.7,12.18.61,6.4.32,5.74.29h1.12l16.74.89,6.31.35,10.34.57,1.69.08h.44l7.33.41,7.12.41c2.47.14,4.92.27,7.37.42l5.17.3,4,.24,4.43.26,11.38.68,23,1.44,1,.07,10.52.67,1.58.1,11.32.74,11.64.79q3.81.24,7.6.51l2.15.14,1.86.13,11.55.8,7.65.55,3.86.28q5.76.39,11.46.83l4.87.35,3.11.23,2.94.2,11.88.9.92.08,2.44.17,8,.61,9,.7,9.22.72c.86.08,1.72.13,2.57.21l1.46.11a1,1,0,0,0,.24,0l13.63,1.1,8.69.71,11.09.92,11,.93C3248.3,2442,3308.19,2470.32,3308.19,2495.11Z" transform="translate(-653.44 -360)"/><path class="cls-1" d="M1869.25,2442c0,45.49-97.8,86.51-254.51,115.43-145.33,26.84-341.32,43.29-556.94,43.29-48.88,0-96.76-.84-143.25-2.47-80-2.78-155.91-7.88-225.94-14.88.82-.78,1.7-1.58,2.63-2.39.77-.66,1.58-1.33,2.42-2l1.08-.84c.73-.55,1.49-1.12,2.27-1.67,1.94-1.4,4.06-2.79,6.31-4.21l1.79-1.13c.62-.38,1.24-.75,1.88-1.11s1.27-.76,2-1.12c.31-.19.64-.38,1-.56s.67-.38,1-.55c1.34-.76,2.75-1.51,4.18-2.27l2.09-1.07c1.12-.56,2.26-1.15,3.42-1.72s2.37-1.15,3.59-1.73l1.81-.85,3.73-1.7c.64-.27,1.27-.56,1.93-.86,1.56-.69,3.15-1.39,4.8-2.07.63-.29,1.26-.54,1.9-.8,1-.43,2-.85,3.09-1.28l2.57-1,2.34-.93c.31-.12.61-.25.92-.36s.62-.25.94-.36l2.46-1,6.33-2.39c2.17-.79,4.37-1.61,6.63-2.4,1.08-.39,2.17-.77,3.27-1.15.79-.29,1.61-.56,2.42-.84,1-.37,2-.7,3-1,2.05-.72,4.13-1.43,6.26-2.11,1.05-.37,2.11-.7,3.19-1l3.63-1.2h0l7.48-2.37c2.48-.78,5.1-1.58,7.71-2.37s5.27-1.57,8-2.36h0c1.35-.39,2.7-.8,4.07-1.19,1.19-.35,2.42-.69,3.64-1l4-1.16,3.41-.95c1.44-.4,2.89-.81,4.36-1.2,1.09-.32,2.18-.61,3.28-.9,1.56-.44,3.13-.86,4.71-1.29l6.26-1.66c4.28-1.12,8.6-2.23,13-3.37,1.38-.36,2.76-.7,4.16-1.05q8.63-2.16,17.64-4.33c4.67-1.12,9.39-2.23,14.2-3.35q8.26-1.92,16.85-3.85c.74-.17,1.49-.34,2.26-.5l2.28-.5,2.88-.65,2.92-.64c4.13-.91,8.3-1.8,12.52-2.7l.72-.16,9.26-2c1.84-.38,3.66-.75,5.53-1.15,8.28-1.71,16.78-3.43,25.43-5.13l2.6-.52c.88-.16,1.74-.33,2.62-.51,5.23-1,10.51-2,15.85-3l5.36-1,5.39-1,5.45-1q17.2-3.2,35.16-6.31c4-.68,8-1.38,12.07-2.06,3.1-.54,6.2-1.08,9.33-1.6l5.87-1c2-.32,3.93-.66,5.9-1s4-.66,5.94-1l10.08-1.65,6.64-1.07q3.38-.53,6.75-1.08l6.78-1.05,6.15-1,6.2-1q6.21-1,12.48-1.9c4.21-.65,8.42-1.27,12.66-1.89,3.17-.48,6.37-1,9.56-1.42s6.43-1,9.67-1.42l15-2.15,10.35-1.45,12.53-1.74c5.12-.7,10.29-1.42,15.48-2.11l7.81-1c5.21-.7,10.46-1.38,15.74-2.08,2.64-.34,5.29-.68,7.94-1l24.09-3,16.28-2c2.58-.32,5.18-.64,7.8-.94l7.84-1c2.62-.31,5.25-.64,7.89-.93s5.28-.64,7.94-1c1.33-.14,2.69-.3,4-.46s2.72-.32,4.06-.46l10.91-1.29,11-1.23q26.74-3,54.3-5.91l11.37-1.19c1.77-.17,3.55-.37,5.35-.55l5.35-.54,4.22-.43,4.22-.43q8.45-.86,17-1.68c2.56-.25,5.12-.52,7.7-.76h.83l5.54-.55,5.56-.53q20.25-1.94,40.88-3.8c4.41-.42,8.86-.81,13.32-1.2,5.55-.49,11.11-1,16.71-1.46l16.81-1.45,15.29-1.29q13.5-1.11,27.11-2.19l9.1-.71,9.12-.72c7.3-.56,14.59-1.11,21.93-1.65,2.81-.21,5.59-.43,8.4-.62,1.41-.12,2.8-.21,4.2-.32l4.21-.31q17.63-1.29,35.41-2.5,6.77-.48,13.53-.92l5.35-.36c1.77-.13,3.54-.25,5.33-.35l8.61-.56,8.66-.56,17.22-1.09h0c5.75-.37,11.52-.71,17.32-1.06q13.23-.81,26.56-1.55c5.87-.33,11.75-.68,17.65-1l4.63-.26c4.65-.24,9.28-.51,14-.76h0a118,118,0,0,1,18.49,19.35h0a66.61,66.61,0,0,1,6.67,11A38.87,38.87,0,0,1,1869.25,2442Z" transform="translate(-653.44 -360)"/><path class="cls-7" d="M1858.12,2534.26c-97.52,0-190.79,1.68-276.58,4.73h0c-286.18,10.23-489.1,35.81-489.1,65.77,0,24,130.66,45.26,330.17,58,99.42-27.13,161.46-65.59,161.46-108.25a48.31,48.31,0,0,0-.54-7,48.31,48.31,0,0,1,.54,7c0,42.66-62,81.12-161.45,108.25,123.64,7.89,273.7,12.5,435.5,12.5,422.88,0,765.69-31.55,765.69-70.49S2281,2534.26,1858.12,2534.26Z" transform="translate(-653.44 -360)"/><path class="cls-8" d="M3415.52,1126.53V2347.19a153.6,153.6,0,0,1-153.6,153.6H1376.5a153.61,153.61,0,0,1-153.6-153.6V1126.53a153.58,153.58,0,0,1,153.58-153.6H3261.91A153.62,153.62,0,0,1,3415.52,1126.53Z" transform="translate(-653.44 -360)"/><path class="cls-9" d="M2195.35,972.93q-49,23.21-97.15,48.18H1462a89.06,89.06,0,0,0-89,89V1669.2q-34.61,59.86-63.1,122.76-12.68,27.87-24.22,56.25-10,24.6-19.22,49.55-24.49,66.45-43.46,135V1126.53a153.58,153.58,0,0,1,153.58-153.6h818.77Z" transform="translate(-653.44 -360)"/><g class="cls-10"><path class="cls-11" d="M3204,1110.15V2363.58a89,89,0,0,1-89,89H1462a89.06,89.06,0,0,1-89-89V1110.15a89.06,89.06,0,0,1,89-89H3115A89,89,0,0,1,3204,1110.15Z" transform="translate(-653.44 -360)"/></g><path class="cls-12" d="M2463.65,1291.25H2301.08a2.85,2.85,0,0,1-2.9-2.6,2.75,2.75,0,0,1,2.61-2.89H2463.5a2.85,2.85,0,0,1,2.89,2.6,2.75,2.75,0,0,1-2.59,2.89Z" transform="translate(-653.44 -360)"/><rect class="cls-13" x="1311.85" y="900" width="707.84" height="88.83" rx="36.34"/><path class="cls-14" d="M2555.86,1340v643.15a58.07,58.07,0,0,1-58.06,58.08H2145.18a58.08,58.08,0,0,1-58.08-58.08h0V1341a41.12,41.12,0,0,0-41.12-41.12h469.79a40.1,40.1,0,0,1,40.09,40.11Z" transform="translate(-653.44 -360)"/><path class="cls-15" d="M2397.69,1977.94H2239.62a2.82,2.82,0,0,1-2.79-2.2,2.74,2.74,0,0,1,2.15-3.23,3.29,3.29,0,0,1,.54,0h158.07a2.82,2.82,0,0,1,2.79,2.2,2.74,2.74,0,0,1-2.15,3.23A3.29,3.29,0,0,1,2397.69,1977.94Z" transform="translate(-653.44 -360)"/><path class="cls-15" d="M2505,1864.18a2.82,2.82,0,0,1-2.2-2.8V1339.63a2.82,2.82,0,0,1,2.2-2.79,2.74,2.74,0,0,1,3.23,2.13,2.67,2.67,0,0,1,.06.56v522a2.75,2.75,0,0,1-2.8,2.7A2.72,2.72,0,0,1,2505,1864.18Z" transform="translate(-653.44 -360)"/><path class="cls-15" d="M2140.64,1866.38a2.85,2.85,0,0,1-2.6-2.89V1341.84a2.86,2.86,0,0,1,2.6-2.9,2.75,2.75,0,0,1,2.89,2.61v522.13a2.74,2.74,0,0,1-2.78,2.7Z" transform="translate(-653.44 -360)"/><path class="cls-8" d="M2644,2215.24a43.46,43.46,0,0,1-43.48,43.15H2004.87c-24.09,0-44.41-19.71-44.23-43.8a43.46,43.46,0,0,1,43.47-43.14h595.61a44.7,44.7,0,0,1,39.65,24.38A42,42,0,0,1,2644,2215.24Z" transform="translate(-653.44 -360)"/><path class="cls-15" d="M2442.93,2215.24a43.46,43.46,0,0,1-43.47,43.14H2004.87c-24.09,0-44.41-19.7-44.23-43.78a43.43,43.43,0,0,1,43.46-43.14h394.59C2422.77,2171.46,2443.1,2191.16,2442.93,2215.24Z" transform="translate(-653.44 -360)"/><path class="cls-16" d="M3415.52,1586.27v760.92a153.6,153.6,0,0,1-153.6,153.6H1439.69q22.85-24.69,46.92-48.17H3115a89,89,0,0,0,89-89v-740.5Q3309.23,1601.78,3415.52,1586.27Z" transform="translate(-653.44 -360)"/><rect class="cls-16" x="632.14" y="1147.91" width="24.22" height="457.9" rx="9.91"/><path class="cls-15" d="M2437.49,1535.63a4.94,4.94,0,0,0-3.63-1.48h-8.6a71.36,71.36,0,0,0-5.65-23.8,53.74,53.74,0,0,0-11-16.23l-.43-.43a42.91,42.91,0,0,0-15.59-9.67,54.68,54.68,0,0,0-18.41-3.1q-13.45,0-23,4.84a55.63,55.63,0,0,0-16.39,12.5,81.38,81.38,0,0,0-11.7,17.07q-4.83,9.42-8.6,18.82h-52.41a56,56,0,0,1,5.37-16.93,74.3,74.3,0,0,1,9.14-14.25c2.32-2.7,3.45-4.89,3.36-6.59a5.14,5.14,0,0,0-2.82-4.16L2261,1481.73q-3-1.89-4.57-1.21a11.31,11.31,0,0,0-3.5,2.55c-1.08,1.25-2.69,3.23-4.84,5.92a59,59,0,0,0-6.45,10.48,99.65,99.65,0,0,0-5.91,15,87.23,87.23,0,0,0-3.49,19.63h-28q-3.49,0-4.17,3a24.29,24.29,0,0,0-.67,5.37,5.74,5.74,0,0,0,1.34,3.76,4.35,4.35,0,0,0,3.5,1.62h28q1.61,27.15,16.25,41.53t36.7,14.39q13.17,0,23-5.52a65.43,65.43,0,0,0,17.08-13.71,86.06,86.06,0,0,0,12.23-18q5-9.81,8.73-18.68h49.2a66,66,0,0,1-6.45,17.2q-4.32,7.8-8.07,13.44-2.7,4,2.15,7.53l15.6,10.75a6.93,6.93,0,0,0,4.84,1,5.46,5.46,0,0,0,4-2.56c.9-1.26,2.2-3.27,3.9-6a100.33,100.33,0,0,0,5.38-10.34,104.37,104.37,0,0,0,5.11-14.12,90.5,90.5,0,0,0,3.08-16.8h8.88a5,5,0,0,0,5.11-5v-3.61A4.93,4.93,0,0,0,2437.49,1535.63Zm-141.27,28.09a25.57,25.57,0,0,1-14.78,4.83q-9.15,0-14-5.77t-5.92-14.92h47.32Q2303.22,1558.89,2296.22,1563.72Zm55.38-29.57q5.37-10.23,10.62-15.32a19.67,19.67,0,0,1,26.48,0,2.5,2.5,0,0,1,.23.23q5.18,5.1,6.49,15.09Z" transform="translate(-653.44 -360)"/><path class="cls-14" d="M2497.79,2041.23h-74.6a163.12,163.12,0,0,1,132.67-159.9v101.82a58.07,58.07,0,0,1-58.06,58.08Z" transform="translate(-653.44 -360)"/><path class="cls-15" d="M2497.79,2041.23h-74.6a163.12,163.12,0,0,1,132.67-159.9v101.82a58.07,58.07,0,0,1-58.06,58.08Z" transform="translate(-653.44 -360)"/><path class="cls-15" d="M2141.82,2041.23h74.6a163.12,163.12,0,0,0-132.68-159.9v101.82A58.08,58.08,0,0,0,2141.82,2041.23Z" transform="translate(-653.44 -360)"/><path class="cls-8" d="M3305.33,1678.24a58.62,58.62,0,1,1-58.62,58.62,58.62,58.62,0,0,1,58.62-58.62Z" transform="translate(-653.44 -360)"/><g class="cls-17"><polygon class="cls-18" points="1621.8 612.93 1583.78 661.11 1395.27 900 1331.25 981.12 719.46 1756.41 569.46 1946.5 569.46 1592.83 612.92 1537.76 632.14 1513.4 656.36 1482.71 719.46 1402.73 1135.25 875.83 1304.69 661.11 1342.72 612.93 1621.8 612.93"/><path class="cls-19" d="M2819.88,972.93l-38,48.18L2593.35,1260l-44.84,56.83-25.26,32-15,19-5.49,7-94.18,119.36-19.68,24.94-11.9,15-10.82,13.71L2143.53,1830l-5.49,7-38,48.27-12.85,16.27-3.36,4.26-431.5,546.82-38,48.17H1376.5a153.14,153.14,0,0,1-113.43-50l109.83-139.18,714.2-905.05,45.53-57.69L2138,1342l2.37-3,30.84-39.08,31.47-39.89,188.51-238.89,38-48.18Z" transform="translate(-653.44 -360)"/><path class="cls-11" d="M3377.06,1024.87,3204,1244.17l-731.74,927.28-29.73,37.69-38.7,49-.17.22-153.27,194.23-38,48.17H2108.6l38-48.17,153.27-194.23,68.6-86.94,102.76-130.22,84.63-107.2L3204,1112.65l104.56-132.51A153.63,153.63,0,0,1,3377.06,1024.87Z" transform="translate(-653.44 -360)"/></g><rect class="cls-20" x="1987.36" y="1392.9" width="264.86" height="27.94" rx="11.43" transform="translate(-629.65 2488.94) rotate(-68.1)"/><path class="cls-21" d="M1637.55,2439.51l-1.26,18.62-2.2,32.25c-.26,3.73-.65,7.86-1.19,12.26h0c-4.33,35.17-18.9,87.84-60.45,98.35-16.2,4.08-39.81,6.78-67.72,8.7-32.31,2.21-70.37,3.35-109.32,4.41-25.4.68-48.77.44-70.19-.51-70-3.1-119.1-13.66-149.93-23.69-1.16-.37-2.29-.81-3.42-1.28-29.28-12.52-46.27-59-51.74-81.38l-15-61h2l38.83-.49h0l21.49-.27h0l31.41-.4,89.53-1.13,138.58-1.74,154.92-2h0l35.11-.44h0l16.81-.21Z" transform="translate(-653.44 -360)"/><path class="cls-1" d="M1636.29,2458.13c-2.74,5.46-7.16,11.29-13.47,17.5-35.17,34.58-128.46,39.69-186.31,42.72l-4.52.25a884.26,884.26,0,0,1-128.87-2.51,813.55,813.55,0,0,1-92.26-13.89c-38.9-8.23-100.49-24.78-103.68-56a28,28,0,0,1,1.85-12.86q4.88-12.9,18.6-22.8c17.86-12.94,46.88-22.15,86.92-27.94q27.09-3.9,60.9-5.74,49-2.71,112-1.26c5.67.12,20.18.6,39.55,1.84,28.82,1.84,68.42,5.36,105.63,11.93,37.73,6.65,73,16.44,92.17,30.75l.29.22C1638.58,2430.5,1643.92,2442.92,1636.29,2458.13Z" transform="translate(-653.44 -360)"/><path class="cls-14" d="M1168.56,2446.48c-22.61-21.19,32.8-48.61,178.12-50.67s228.08,23.86,237.14,47.92C1595.73,2475.32,1226.51,2500.78,1168.56,2446.48Z" transform="translate(-653.44 -360)"/><path class="cls-21" d="M1637.55,2319.15l-1.26,18.62-2.2,32.26a218.8,218.8,0,0,1-9.24,50.09,144.24,144.24,0,0,1-7.75,19.65c-9.38,19.3-23.52,35.53-44.64,40.87-29.34,7.43-83.07,10.25-142.51,12.12-11.36.37-22.91.69-34.54,1a938.22,938.22,0,0,1-97.35-2.15c-55.73-4.28-96.1-13.36-122.75-22-11.55-3.75-21.29-12.78-29.29-23.87-7.77-10.78-13.89-23.5-18.39-35.17a197.06,197.06,0,0,1-7.49-23.63l-15-61h2l38.86-.49,21.47-.27h0l97.92-1.24,161.6-2,154.93-2h0l35.11-.46Z" transform="translate(-653.44 -360)"/><path class="cls-1" d="M1636.29,2337.77c-2.74,5.47-7.16,11.3-13.47,17.5-18.5,18.2-53.1,28.24-90.14,34.1-34.77,5.5-71.69,7.33-99.53,8.8h-.07l-1.09.06c-1.65.1-3.29.17-4.94.25a888,888,0,0,1-112.43-1.75h0q-18.09-1.45-36-3.66c-21.6-2.65-43-6.13-64-10.47-1.24-.24-2.46-.5-3.69-.76-38.89-8.22-100.47-24.77-103.68-56A27.7,27.7,0,0,1,1109,2313q4.88-12.93,18.6-22.82c17.86-12.94,46.88-22.14,86.92-27.92q33.82-4.87,78.08-6.57,42.62-1.62,94.87-.44c5.67.13,20.18.6,39.55,1.85,28.82,1.82,68.37,5.35,105.58,11.91h0c37.74,6.67,73,16.44,92.21,30.77.1.07.21.13.29.2C1638.58,2310.14,1643.92,2322.57,1636.29,2337.77Z" transform="translate(-653.44 -360)"/><path class="cls-14" d="M1168.56,2326.12c-22.61-21.19,32.8-48.61,178.12-50.67s228.08,23.85,237.14,47.92C1595.73,2355,1226.51,2380.42,1168.56,2326.12Z" transform="translate(-653.44 -360)"/><path class="cls-21" d="M1637.55,2198.79l-1.26,18.63-2.2,32.24a219,219,0,0,1-9.24,50.11,144.5,144.5,0,0,1-7.75,19.63c-9.38,19.3-23.52,35.54-44.64,40.88-29.82,7.55-84.82,10.34-145.41,12.23-10.42.31-21,.61-31.64.89-47.38,1.27-87.71-.69-121.45-4.39-43.46-4.77-76-12.43-98.65-19.8-11.55-3.76-21.29-12.78-29.27-23.85-7.79-10.79-13.91-23.52-18.41-35.19a197.49,197.49,0,0,1-7.49-23.62l-8.05-32.89-6.91-28.14h2l60.33-.76h0l158.86-2,100.64-1.27,54.2-.68L1582,2199.5h0Z" transform="translate(-653.44 -360)"/><path class="cls-1" d="M1637.46,2214.83c-.35.85-.74,1.71-1.17,2.59-2.74,5.45-7.16,11.28-13.48,17.49-18.52,18.21-53.11,28.23-90.17,34.09h0c-34.77,5.52-71.7,7.34-99.53,8.8H1433l-1,.06c-1.65.1-3.3.18-4.94.25q-37.5,1.8-75,.41-18.72-.67-37.32-2.16h-.09q-16.61-1.32-33.07-3.27c-22.62-2.7-45-6.31-67-10.84l-3.69-.76c-22.94-4.85-53.78-12.6-75.87-24.55h0c-15.37-8.31-26.49-18.65-27.81-31.45a28,28,0,0,1,1.86-12.87c8.29-21.95,35.81-37.31,82.15-46.73h0c43.26-8.78,102.92-12.38,178.66-11.33q8.67.11,17.62.32c4.5.09,14.55.42,28.17,1.17h.06c3.54.18,7.34.4,11.32.67,21,1.35,47.66,3.57,75,7.21h0c9.35,1.25,18.74,2.67,28,4.26,38.89,6.69,75.52,16.65,95,31.43,5.94,4.5,10.29,9.43,12.65,14.85C1640.45,2200.61,1640.56,2207.37,1637.46,2214.83Z" transform="translate(-653.44 -360)"/><path class="cls-14" d="M1168.56,2205.76c-22.61-21.19,32.8-48.61,178.12-50.68s228.08,23.86,237.14,47.93C1595.73,2234.6,1226.51,2260.06,1168.56,2205.76Z" transform="translate(-653.44 -360)"/><path class="cls-21" d="M1508.65,2067.89l-1.27,18.64h0l-2.19,32.22c-.21,2.95-.49,6.16-.85,9.53-.55,4.89-1.3,10.16-2.29,15.64a203.19,203.19,0,0,1-5,21.37h0c-3.64,12.41-8.74,24.82-15.78,35.46-9,13.69-21.24,24.46-37.69,28.63-4.86,1.22-10.39,2.32-16.51,3.31-10.49,1.71-22.69,3.1-36.21,4.24h-.09c-25.93,2.19-56.64,3.51-89.06,4.53-11.55.37-23.32.69-35.18,1-52.19,1.4-95.82-1.12-131.52-5.56h0c-8-1-15.66-2.11-22.89-3.28-27.43-4.45-49.18-10-65.68-15.35-31.41-10.22-49.48-59.5-55.17-82.66l-15-61h2l60.32-.76h0l99.74-1.26h0l273.2-3.46,15.45-.19,26-.32Z" transform="translate(-653.44 -360)"/><path class="cls-1" d="M1496.26,2048.72c-50.41-38.12-215-44.23-237.65-44.74-168-3.77-261.87,13.74-278.48,57.74-15,39.67,57.91,59.58,101.84,68.86,71.25,15.06,146.73,20.33,221.12,16.4,57.39-3,154.72-7.46,190.84-43C1517.8,2080.54,1514.52,2062.53,1496.26,2048.72Z" transform="translate(-653.44 -360)"/><path class="cls-14" d="M1039.66,2074.86c-22.61-21.19,32.8-48.61,178.13-50.67s228.07,23.86,237.14,47.92C1466.84,2103.7,1097.62,2129.16,1039.66,2074.86Z" transform="translate(-653.44 -360)"/><path class="cls-21" d="M1637.55,1958.06l-1.26,18.61h0L1634.9,1997l-.81,11.91c-1.44,21-6.92,54.49-22.3,79.45-9.18,14.9-21.88,26.76-39.34,31.17-1.53.39-3.14.76-4.79,1.13-16,3.49-37.88,5.86-63.32,7.6h0c-20.67,1.41-43.66,2.38-67.73,3.18h0c-3.16.11-6.33.2-9.5.3-10.42.33-21,.63-31.64.91q-12.63.34-24.58.38c-94.74.36-158.42-12.49-195.54-24.57a41.76,41.76,0,0,1-8.12-3.67h0c-11.74-6.74-21.3-18.93-28.75-32.25h0a196.47,196.47,0,0,1-17-42h0c-.45-1.66-.87-3.22-1.23-4.7l-4.5-18.36-10.46-42.69h2l60.34-.76h0l33.68-.42,10.86-.13,215-2.73,154.93-2Z" transform="translate(-653.44 -360)"/><path class="cls-1" d="M1636.29,1976.67h0c-2.74,5.47-7.15,11.29-13.47,17.5-28.93,28.44-97.16,36.93-152.65,40.75-13.78,1-26.77,1.61-38.18,2.22q-22.11,1.17-44.32,1.24a851.64,851.64,0,0,1-160.06-14.3q-8.41-1.59-16.74-3.34c-16.88-3.56-38-8.69-56.82-15.92-24.54-9.42-45.07-22.4-46.88-40.08a28.09,28.09,0,0,1,1.86-12.86c7.33-19.44,29.75-33.71,67-43.25,47-12.07,117.74-16.6,211.53-14.49,22.69.51,187.22,6.62,237.64,44.74C1638.59,1949.05,1643.9,1961.48,1636.29,1976.67Z" transform="translate(-653.44 -360)"/><path class="cls-14" d="M1168.56,1965c-22.61-21.19,32.8-48.61,178.12-50.68s228.08,23.86,237.14,47.93C1595.73,1993.88,1226.51,2019.34,1168.56,1965Z" transform="translate(-653.44 -360)"/><path class="cls-7" d="M1611.79,2088.39c-9.18,14.9-21.88,26.76-39.34,31.17-1.53.39-3.14.76-4.79,1.13Z" transform="translate(-653.44 -360)"/><path class="cls-22" d="M1634.09,2249.66a219.51,219.51,0,0,1-9.24,50.11c.1.07.21.13.29.2,13.11,9.93,18.51,22,11.68,36.7a7.39,7.39,0,0,0-.62,2.31l-2.11,31.05a218.8,218.8,0,0,1-9.24,50.09l.29.22c13.11,9.91,18.51,22,11.68,36.69a7.13,7.13,0,0,0-.62,2.31l-2.11,31c-.26,3.73-.65,7.86-1.19,12.26h0c-4.33,35.17-18.9,87.84-60.45,98.35-5.59,1.4-12,2.65-19.28,3.75-13.72,2.1-30.16,3.69-48.44,5-32.31,2.21-70.37,3.35-109.32,4.41-23.54.63-45.35.48-65.47-.32a6.3,6.3,0,0,1-5.89-4.78c-6.21-24.39-13.53-57.5-20.93-92.93-1.69-8.06-3.39-16.25-5.06-24.49q-1.56-7.59-3.1-15.21c-2.21-10.89-4.37-21.77-6.49-32.48-3.08-15.53-6-30.68-8.77-44.95-.39-2-.77-3.94-1.14-5.89q-1.61-8.36-3.11-16.21c-.5-2.67-1-5.28-1.49-7.85q-1.47-7.74-2.8-14.79c-2.26-11.92-4.19-22.24-5.71-30.37,0-.13,0-.25-.07-.38a50,50,0,0,1,7-36l5.53-8.66,3.6-5.67,11.1-17.41,9.06-14.19,3.36-5.27,21.36-33.5,30.43-47.73,7.71-12.08,5.33-8.35,1-1.5,24.37-38.21,16.4-25.74,12.53-19.62,1.58-2.47a6.37,6.37,0,0,0-5.32-9.79c-63.78-.39-112.58-14.41-149.27-32.84a263.88,263.88,0,0,1-24.59-14,244.14,244.14,0,0,1-34.46-26.9,219,219,0,0,1-25.24-28,157.89,157.89,0,0,1-11.93-18.24,6.4,6.4,0,0,1-.19-5.75,6.27,6.27,0,0,1,4.23-3.49c47-11.53,116.72-15.82,208.58-13.76,8.78.19,38.9,1.23,75.4,4.65,57.68,5.4,131.37,16.75,162.24,40.09,13.43,10.15,18.74,22.58,11.13,37.77h0L1634.9,1997l-.81,11.91c-1.44,21-6.92,54.49-22.3,79.45-9.18,14.9-21.88,26.76-39.34,31.17-1.53.39-3.14.76-4.79,1.13-14.89,3.25-34.88,5.53-58.12,7.23a6.36,6.36,0,0,0-5.83,5.47c-.19,1.36-.39,2.76-.59,4.18a6.36,6.36,0,0,0,5.34,7.24h.07c7.2,1,14.41,2.14,21.56,3.37,38.89,6.69,75.52,16.65,95.05,31.43,5.94,4.5,10.29,9.43,12.65,14.85,2.66,6.14,2.77,12.9-.33,20.36q-.3.75-.66,1.5a7,7,0,0,0-.6,2.29Z" transform="translate(-653.44 -360)"/><path class="cls-22" d="M1634.09,2249.66a219.51,219.51,0,0,1-9.24,50.11c.1.07.21.13.29.2,13.11,9.93,18.51,22,11.68,36.7a7.39,7.39,0,0,0-.62,2.31l-2.11,31.05a218.8,218.8,0,0,1-9.24,50.09l.29.22c13.11,9.91,18.51,22,11.68,36.69a7.13,7.13,0,0,0-.62,2.31l-2.11,31c-.26,3.73-.65,7.86-1.19,12.26h0c-4.33,35.17-18.9,87.84-60.45,98.35-5.59,1.4-12,2.65-19.28,3.75-25.4-78.68-75.51-235.21-77.25-251.36-2.32-21.64,5.33-152.63,5.33-152.63l-11.08-165.83-7.25-136.13c57.68,5.4,131.37,16.75,162.24,40.09,13.43,10.15,18.74,22.58,11.13,37.77h0L1634.9,1997l-.81,11.91c-1.44,21-6.92,54.49-22.3,79.45-9.18,14.9-21.88,26.76-39.34,31.17-1.53.39-3.14.76-4.79,1.13-14.89,3.25-34.88,5.53-58.12,7.23a6.36,6.36,0,0,0-5.83,5.47c-.19,1.36-.39,2.76-.59,4.18a6.36,6.36,0,0,0,5.34,7.24h.07c7.2,1,14.41,2.14,21.56,3.37,38.89,6.69,75.52,16.65,95.05,31.43,5.94,4.5,10.29,9.43,12.65,14.85,2.66,6.14,2.77,12.9-.33,20.36q-.3.75-.66,1.5a7,7,0,0,0-.6,2.29Z" transform="translate(-653.44 -360)"/><path d="M1819.32,2543.05c-8.76,22.72-54.46,60.34-74,76.91,65.71,16,133.43,21.29,199.71,5.54a356.27,356.27,0,0,1-30-37.65C1880.81,2578.44,1849.8,2560.77,1819.32,2543.05Z" transform="translate(-653.44 -360)"/><g id="c65_sport_shoes" data-name="c65 sport shoes"><path d="M1620,2574.92c-8.54-1.93-8.69-1.26-9.84,1.3a76.76,76.76,0,0,0-7.17,28.54c-.16,2.74-.52,3.2,8.21,5.17,167.16,37.71,226.58,50.61,399.3,29.17,9-1.11,8.27-1.56,8.33-4.32.25-10.6-1.47-19.29-5-29.36-.94-2.66-.78-3.4-9.51-2.35C1836.15,2623.26,1783.54,2611.87,1620,2574.92Z" transform="translate(-653.44 -360)"/><path class="cls-23" d="M1665.51,2438.86c-1.29-1.43-1.57-2.91-6.1-2-12.5,2.54-19.67,17.62-22.83,31-.36,1.53-2.27,8.45-2.75,10.75,14.48,3.48,29.06,6.71,43.54,10.26q-2.25,9-4.51,17.94-21.75-5.26-43.58-10.19-11,43.37-21.91,86.72c54.77,12.25,107.9,31,162.41,42.28,19.24-21.47,36.36-44.76,53.23-68.09,6.91.75,13.81,1.34,20.73,1.82-15.33,24.35-32.07,47.9-49.63,70.68,8.84,1.52,17.86,2.65,26.8,3.29,11.52-14.85,22.72-29.87,33.45-45.3,7.38.11,14.78.37,22.16.3q-14.65,23.73-30.37,46.8c8.84.55,17.7,0,26.54-.06,4.91-7.86,9.75-15.74,14.14-23.91,6.64-.59,13.35-.88,20-1.91-4.22,8.59-8.27,16.07-13,25.17,42.93-7,78-11.39,124.19-25.45.06,0,12.7-54.24-26.28-43.08-84.35,2.57-134.12-16.17-181.94-92.1-11-29.69-27.9-63.34-32.71-40.4Z" transform="translate(-653.44 -360)"/></g><path d="M1638.87,2458.59q-6.45,25.42-12.85,50.88c15.56,3.48,31.1,7,46.59,10.8q-.16-6.83-.32-13.63c3.74-.94,7.46-1.92,11.21-2.83-1.67-8.36-3.31-16.73-5-25.09C1665.34,2471.92,1652.08,2465.31,1638.87,2458.59Z" transform="translate(-653.44 -360)"/><path d="M2126.21,2347.75c2.5,3-14.52,101.19-14.52,101.19l150.44-63.83-37.82-31.47Z" transform="translate(-653.44 -360)"/><polygon points="1300.11 2019.25 1320.17 2066.54 1357.76 2050.59 1349.83 2039.84 1355.79 2031.53 1338.31 2014.37 1300.11 2019.25"/><g id="c65_sport_shoes-2" data-name="c65 sport shoes-2"><path d="M2005.75,2482.32c-3.93,1.67-6.59,4.45-5.84,6.19l11.13,26.25c.72,1.71,4.57,1.74,8.5.07l301-127.7c3.91-1.66,6.53-4.44,5.8-6.15l-11.13-26.24c-.74-1.73-4.56-1.78-8.46-.12Z" transform="translate(-653.44 -360)"/><path class="cls-24" d="M2086.82,2292.33c-35.69,12.37-88.13,68.51-126.21,57.15a5.13,5.13,0,0,0-5.09,1.24c-4.4,4.19-7.71,13.87,1.53,36.79l4.42,10.42,35.2-14.93,7.06,16.64-35.2,14.94,34.2,80.59,127.6-54.14,5.4-82.53,16.8-7.13-3.7,81.81,20.29-8.6,4.6-52.67,18-7.61-3.75,52.3,20.1-8.53,1.45-26,15.64-6.63-1.24,25.88,94.11-39.93s10.72-45.77-31.54-40.09c0,0-110.86,29.18-199.62-29Z" transform="translate(-653.44 -360)"/></g><path class="cls-25" d="M1785.36,989.66c41.61-31.77,68.91-81.61,73.29-133.79-7.69-9.87-28.07-6.08-40-2.42a266,266,0,0,0-39.89,15.83c-15.9,7.85-31.79,18.12-39.6,34-10,20.43-4.34,45,4.49,66,2.47,5.87,5.29,11.8,10,16.13S1780.29,993.53,1785.36,989.66Z" transform="translate(-653.44 -360)"/><path class="cls-15" d="M1844.55,1705.68c-1.18,18.74-1.82,37.68-3.25,56.46-2.2,28.79-6.25,57.21-16.86,83.92-26.63,67.07-92.19,113.23-162,131.28-53.8,13.89-113.08,15.32-171.84,9.23-54.84-5.68-109.22-17.91-158.23-32.66-36.68-11.05-72.79-41.52-70.42-79.76.82-13,6-25.32,11.17-37.32l270-630.26c8-18.6,17.07-38.51,34.73-48.4,31.92-17.88,70.62,6.24,97.66,30.89,89.53,81.65,163.38,188,177.36,308.35.22,1.86.41,3.7.6,5.56C1860.25,1570.28,1848.76,1638.08,1844.55,1705.68Z" transform="translate(-653.44 -360)"/><rect class="cls-26" x="1503.71" y="1063.21" width="156.73" height="137.2" transform="translate(-734.55 1780.67) rotate(-66.82)"/><path class="cls-27" d="M1494,952.78a30.65,30.65,0,0,0,34.23,37.45,126.63,126.63,0,0,0,248.21,49.44L1791.89,975l29.82-124.72-68.87-16.46-146-34.91-31.49-7.53-14.87,62.21h0l-19.37,81A30.18,30.18,0,0,0,1530.9,930a6.68,6.68,0,0,0-.87-.17c-.36-.08-.71-.15-1.07-.21s-.71-.12-1.06-.16l-1.06-.13c-.52-.06-1-.1-1.57-.12h-2.85a18.11,18.11,0,0,0-2.44.2,30.18,30.18,0,0,0-6.36,1.5h0c-.47.17-.94.34-1.41.53s-.8.34-1.18.52a29,29,0,0,0-2.92,1.54l-.33.21a3,3,0,0,0-.38.24A30.44,30.44,0,0,0,1494,952.78Z" transform="translate(-653.44 -360)"/><path class="cls-28" d="M1494,952.78a30.65,30.65,0,0,0,34.23,37.45,126.73,126.73,0,0,0,62.33,130,126.58,126.58,0,0,0,117-97.07l24.12-100.88,21.16-88.5h0l-146-34.9-31.49-7.53-14.87,62.21h0l-19.37,81A30.18,30.18,0,0,0,1530.9,930a6.68,6.68,0,0,0-.87-.17c-.36-.08-.71-.15-1.07-.21s-.71-.12-1.06-.16l-1.06-.13c-.52-.06-1-.1-1.57-.12h-2.85a18.11,18.11,0,0,0-2.44.2,30.18,30.18,0,0,0-6.36,1.5h0c-.47.17-.94.34-1.41.53s-.8.34-1.18.52a29,29,0,0,0-2.92,1.54l-.33.21a3,3,0,0,0-.38.24A30.43,30.43,0,0,0,1494,952.78Z" transform="translate(-653.44 -360)"/><path class="cls-29" d="M1638.15,1089.25h0c-13.19-3.16-21.65-15-18.9-26.55h0a13,13,0,0,1,15.64-9.67l.07,0,22.41,5.36a13,13,0,0,1,9.66,15.65l0,.06h0C1664.26,1085.63,1651.34,1092.4,1638.15,1089.25Z" transform="translate(-653.44 -360)"/><circle class="cls-29" cx="1097.05" cy="641.8" r="10.74"/><circle class="cls-29" cx="989.61" cy="616.11" r="10.74"/><path class="cls-29" d="M1610.11,943.66A5.61,5.61,0,0,1,1613.5,933l53,14.47a5.61,5.61,0,1,1-3,10.82h0l-53-14.47Z" transform="translate(-653.44 -360)"/><path class="cls-30" d="M2177,1302.13,1983.82,791.37s-460.91,199.08-528.61,650.93l615.23,87.41Z" transform="translate(-653.44 -360)"/><path class="cls-29" d="M1778.38,990.14a5.49,5.49,0,0,1-.51-.21l-37.47-17.48a5.61,5.61,0,0,1,4.74-10.16l37.47,17.48a5.61,5.61,0,0,1-4.23,10.37Z" transform="translate(-653.44 -360)"/><path class="cls-28" d="M2120.73,1551.23c-.27.35-.54.7-.82,1-21.34,26.44-55.58,42.48-91.94,47.55-9.23,1.3-30.74,2-51.65.66-20.38-1.32-40.21-4.64-47.5-11.32-10.23-9.37-13.9-30.34-9.58-43.53q3.93-12.06,7.87-24.1c2.23-6.84,21.05-29,28.25-29.39,15.89-.93,30.14-8.31,44.28-16.1,6.54-3.58,13.06-7.27,19.71-10.43a131.31,131.31,0,0,1,18.19-7c22.19-6.79,59.75-13.84,83-11.3,13.86,1.51,20.42,18,21.37,31.93C2143.87,1508.33,2135.55,1532.38,2120.73,1551.23Z" transform="translate(-653.44 -360)"/><path class="cls-26" d="M2120.73,1551.23c-.27.35-.54.7-.82,1-21.34,26.44-55.58,42.48-91.94,47.55-9.23,1.3-30.74,2-51.65.66-20.38-1.32-40.21-4.64-47.5-11.32-10.23-9.37-13.9-30.34-9.58-43.53q3.93-12.06,7.87-24.1c2.23-6.84,21.05-29,28.25-29.39,15.89-.93,30.14-8.31,44.28-16.1A453.06,453.06,0,0,1,2120.73,1551.23Z" transform="translate(-653.44 -360)"/><path class="cls-23" d="M1930.88,1481.71c38.87-2.45,74.14,22.94,76.59,61.81h0c2.41,38.39-28.16,64.33-66.5,67.42Z" transform="translate(-653.44 -360)"/><path class="cls-14" d="M1673.89,1801.12c-36.47,57.9-96,93.82-164.9,94.73-37.13.5-77.74-8.17-120.81-26.61l-213.44-91.4,248-579.07c14.72-34.37,45.18-56.88,78.35-61.88a78,78,0,0,0,2.14,22.16,75.66,75.66,0,0,0,43.72,52,74.7,74.7,0,0,0,36.16,5.78,77.88,77.88,0,0,0,52.25-27.17c100.27,76.37,124.17,181.65,92.41,302.64-.22.85-.44,1.69-.68,2.52a565.82,565.82,0,0,1-26.81,76.41c-4.26,10,8,44.14,9.72,56.46,2.91,21.19,4.65,42.66,2.83,64-.55,6.36-1.41,12.72-2.57,19C1704.39,1742.78,1691.06,1773.85,1673.89,1801.12Z" transform="translate(-653.44 -360)"/><path class="cls-31" d="M1595.34,1703.91c-59.13-1.16-109.66-42.6-123.7-104l-55.06-289.52,54.86-128.11a68.76,68.76,0,0,1,11.51-1.54,70.91,70.91,0,0,1,69.13,44l86.47,211.69q-1.26,18.09-4.23,36.21l-34.26,208.74C1598.82,1689,1597.23,1696.54,1595.34,1703.91Z" transform="translate(-653.44 -360)"/><path class="cls-25" d="M2106.39,2288.67l-175.51,89.89-15.68-39.34-154-386.28S1316,1846.55,1319.1,1840.6s209.47-147.14,209.47-147.14c11.61-1.66,205.66,43.56,318.46,70.23a150.13,150.13,0,0,1,107,95.87L2086.25,2232Z" transform="translate(-653.44 -360)"/><path class="cls-29" d="M1881.58,1947.43l-61.2,424.2-12.21,84.59h-187.4l1.76-52.51,7.59-225.57,5.38-159.78s-170.75-45.51-297-82.07c-71.18-20.61-128.24-38.37-132.67-43.55,0,0,74.47-48.08,150.29-93,74.55-44.14,150.41-85.19,158-74.36,7.28,10.4,94.75,35,184.38,57.92,29.65,7.58,59.53,15,86.83,21.62A127.82,127.82,0,0,1,1881.58,1947.43Z" transform="translate(-653.44 -360)"/><path class="cls-25" d="M1630.12,2178.14l5.38-159.78s-170.75-45.51-297-82.07a365.77,365.77,0,0,1,17.62-136.52c74.55-44.14,150.41-85.19,158-74.36,7.28,10.4,94.75,35,184.38,57.92C1704,1915.65,1676.2,2053.13,1630.12,2178.14Z" transform="translate(-653.44 -360)"/><path class="cls-32" d="M1724,1685.56c-.86,13.72-1.43,27.54-2.25,41.32q-.45,7.59-1,15.15c-2.21,28.78-6.25,57.2-16.86,83.91-26.63,67.07-92.19,113.23-162.05,131.28-53.8,13.89-113.08,15.32-171.84,9.24-54.84-5.69-109.22-17.92-158.23-32.67-36.68-11-72.79-41.52-70.42-79.76.82-13,6-25.32,11.17-37.32l270-630.26c8-18.6,17.07-38.51,34.73-48.4,31.92-17.88,70.62,6.24,97.66,30.89,87.41,79.72,159.87,183,176.26,299.82q.6,4.26,1.1,8.53c.22,1.86.41,3.7.59,5.56C1739.73,1550.17,1728.24,1618,1724,1685.56Z" transform="translate(-653.44 -360)"/><path class="cls-31" d="M1724,1685.56c-.86,13.72-1.43,27.54-2.25,41.32-38-2.89-87.4-7.49-132.24-19.18C1526,1691.14,1471.6,1660.35,1471.6,1600l-55-289.52-3.11-16.38c-3.1-12.74-2-27.81,2.23-42.81,7.26-25.83,23.67-51.52,43.48-65,.18-.1.38-.16.56-.25a71.44,71.44,0,0,1,11.7-3.65,68.76,68.76,0,0,1,11.51-1.54,70.87,70.87,0,0,1,69.12,44q23,56.27,46,112.52c22.13,54.19,24.82,112.31,91.94,127.55a176.6,176.6,0,0,0,41.26,4q.6,4.26,1.1,8.53c.22,1.86.41,3.7.59,5.56C1739.73,1550.17,1728.24,1618,1724,1685.56Z" transform="translate(-653.44 -360)"/><path class="cls-32" d="M1641.13,1637.4a136.3,136.3,0,0,1-142.55-100.35l-73.15-271a70.8,70.8,0,0,1,48.64-87.52h0a70.81,70.81,0,0,1,87.53,48.62h0l65,227.65a55.44,55.44,0,0,0,56.79,40.1l228.9-14.4a67.28,67.28,0,0,1,71.37,62.93h0a67.28,67.28,0,0,1-61.74,71.29Z" transform="translate(-653.44 -360)"/><path class="cls-26" d="M1530.22,949.22c1.72,2.12,2.33,4.92,2.79,7.61.88,5.06,1.28,10.82-2,14.77-3.57,4.31-10.08,4.67-15.57,3.6s-11.48-4.19-12.13-9.7c.19,1.62,7.72-2.7,8.31-3.31,3.48-3.62,1.39-7,3.09-10.82C1517.36,945.4,1525.28,943.12,1530.22,949.22Z" transform="translate(-653.44 -360)"/><path class="cls-33" d="M1378.37,1672.5,1487,1682.6s-57.27,215.92-194.26,144.73Z" transform="translate(-653.44 -360)"/><path class="cls-15" d="M1359,1637.7l116.92,40.16s-52.42,196.45-175.81,132.21Z" transform="translate(-653.44 -360)"/><path class="cls-26" d="M1560.51,853.58h0l-2.59,97.72,37.17-45.19a38.39,38.39,0,0,1,44.58-11,424.57,424.57,0,0,0,92,27.19c36.39,6.38,59.87,5.5,61.52,7,3.07,2.85-2,48.69-1.31,45.65l29.82-124.72-68.87-16.46h0l-146-34.9Z" transform="translate(-653.44 -360)"/><path class="cls-29" d="M1893,778.91c0,34.74-15.21,74.11-40.37,100.38a107.77,107.77,0,0,1-19.88,16.51c-31.52,20.13-79.21,10.83-113.15,3.27-7.73-1.74-73-19.38-101.75-25.38a105.45,105.45,0,0,0-10.56-1.85c-1.71-.2-2.75-.16-2.92.13V872c-11,17.48-20.31,38.26-33.33,54.12-13.82,16.85-7.09,18.92-26.58,9.64-10.31-4.9-21-17.91-29.06-29.28-2.57-3.62-4.86-7.06-6.78-10-13.94-21.49-21-49-12.32-73.09.11-.3.22-.61.34-.91,9-23.64,36.17-40.8,60.25-33.11,7.81-25.37,25.29-47.11,47.46-61.63h0c19.15-12.54,41.78-19.68,64.7-19.12,21.37.53,46.09,10,52.68,32.33a106.59,106.59,0,0,1,3.5-27.25c7.16-26,26-43,62-42C1840,673.1,1892.89,725.67,1893,778.91Z" transform="translate(-653.44 -360)"/><path class="cls-25" d="M1820.38,2371.63l-12.21,84.59h-187.4l1.76-52.51A1752,1752,0,0,0,1820.38,2371.63Z" transform="translate(-653.44 -360)"/><path class="cls-34" d="M2106.39,2288.67l-175.51,89.89-15.68-39.34q83.34-57,171-107.25Z" transform="translate(-653.44 -360)"/><path class="cls-25" d="M1604.29,872c-11,17.48-20.31,38.26-33.33,54.12-13.82,16.85-7.09,18.92-26.58,9.64-10.31-4.9-21-17.91-29.06-29.28C1508.39,833.57,1604.29,872,1604.29,872Z" transform="translate(-653.44 -360)"/><path class="cls-25" d="M1733.82,769.22s-36.09-63.21-129.53-41.47c19.15-12.54,41.78-19.68,64.7-19.12,21.37.53,46.09,10,52.68,32.33a106.59,106.59,0,0,1,3.5-27.25Z" transform="translate(-653.44 -360)"/><path class="cls-25" d="M1556.81,789.38v36.2s-31.32-36.25-60.25-3.09C1505.58,798.85,1532.73,781.69,1556.81,789.38Z" transform="translate(-653.44 -360)"/><path class="cls-25" d="M1858.65,855.88c46.26-152.9-71.49-184.18-71.49-184.18,52.84,1.4,105.73,54,105.81,107.21,0,34.74-15.21,74.11-40.37,100.38C1854,872.42,1856,864.64,1858.65,855.88Z" transform="translate(-653.44 -360)"/></g></svg>