<svg id="Layer_1" data-name="Layer 1" xmlns="http://www.w3.org/2000/svg" viewBox="0 0 3004.92 2399.93"><defs><style>.cls-1{fill:#c8e9f1;}.cls-2{fill:#e5ebff;}.cls-3,.cls-5{fill:#72d6e5;}.cls-3{opacity:0.4;}.cls-27,.cls-3,.cls-31,.cls-38,.cls-4{isolation:isolate;}.cls-27,.cls-38,.cls-4,.cls-6{fill:#fff;}.cls-4{opacity:0.3;}.cls-7{opacity:0.19;}.cls-31,.cls-8{fill:#fefefe;}.cls-9{fill:#9ea9e5;}.cls-10{fill:#008196;}.cls-11{fill:#009fc4;}.cls-12{fill:#0a6d77;}.cls-13{fill:#f5785c;}.cls-14{fill:#004f66;}.cls-15{fill:#01323d;}.cls-16{fill:#840f20;}.cls-17{fill:#231f20;}.cls-18{fill:#333435;}.cls-19{fill:#fc9f7e;}.cls-20{fill:#ffb699;}.cls-21{fill:#ffcab0;}.cls-22{fill:#ff9e83;}.cls-23{fill:#e97474;}.cls-24{fill:#eaa837;}.cls-25{fill:#095996;}.cls-26{fill:#044768;}.cls-27{opacity:0.33;}.cls-28{fill:#444447;}.cls-29{fill:#ffa710;}.cls-30{fill:#ff6a0d;}.cls-31{opacity:0.2;}.cls-32{fill:#00d6bc;}.cls-33{fill:#008c7e;}.cls-34{fill:#00b1a0;}.cls-35{opacity:0.46;}.cls-36{fill:#0bcbe2;}.cls-37{fill:#15def7;}.cls-38{opacity:0.65;}.cls-39{fill:#c47c32;}</style></defs><title>6</title><g id="_06" data-name=" 06"><path class="cls-1" d="M1783.9,521.63A38.62,38.62,0,1,1,1745.28,483a38.62,38.62,0,0,1,38.62,38.63Z" transform="translate(-837.54 -360.07)"/><path class="cls-1" d="M3808.88,1287.34a38.62,38.62,0,1,1-38.63-38.63,38.62,38.62,0,0,1,38.63,38.63Z" transform="translate(-837.54 -360.07)"/><path class="cls-1" d="M2011.5,521.62a72.22,72.22,0,1,1-72.24-72.2h0a72.2,72.2,0,0,1,72.21,72.19Z" transform="translate(-837.54 -360.07)"/><path class="cls-1" d="M3842.46,1529.92a72.22,72.22,0,1,1-72.24-72.2h0A72.2,72.2,0,0,1,3842.46,1529.92Z" transform="translate(-837.54 -360.07)"/><path class="cls-2" d="M2865.39,2612.47c.59,1.08,1.18,2.14,1.75,3.17C2853.54,2616.78,2838.76,2616.85,2865.39,2612.47Z" transform="translate(-837.54 -360.07)"/><path class="cls-1" d="M3842.46,2040.35c-.29,236.05-154.13,436-366.91,505.6a531.65,531.65,0,0,1-166.32,26.26,331.18,331.18,0,0,0-70.86,7.92c-65.21,14.14-124.35,44.45-176.93,67.39-80.85,35.28-146.2,53.15-194.3-31.88,13-1.08,25-3.14-1.75-3.17-118.12-.16-49.57,44.63-154.26,6-85.78-31.69-201.47,63.48-273.92,10.28-69.36,27.39-303.66-61.08-381.19-55-56.8,222.09-411.15,12.58-659.36-3-9.24-.57-18.32-.89-27.25-.9-294.12-.38-532.23-239.12-531.87-533.23.24-187.23,97.08-351.77,243.31-446.54a768.85,768.85,0,0,1,154.64-676c110.9-133.3,266.11-228.41,443-262.77A775.06,775.06,0,0,1,1985.82,654a979.57,979.57,0,0,1,158-131.15c154.66-103,340.45-163,540.24-162.74,537.61.68,972.88,437.05,972.19,974.65a973.88,973.88,0,0,1-38.42,270.44C3753.92,1701.7,3842.68,1860.69,3842.46,2040.35Z" transform="translate(-837.54 -360.07)"/><path class="cls-3" d="M2547.42,1702.61h-4.26a11,11,0,0,0-11,11h0v1.9H2515v-1.9a11,11,0,0,0-11-11h-4.26a11,11,0,0,0-11,11h0v1.9h-17.16v-1.9a11,11,0,0,0-11-11H2104.15v-116.4h230.07a67.26,67.26,0,0,0,66.8-5.84l130.82-91.16-2.31,12.52q-2,10.69-3,21.33c0,.53-.1,1.06-.14,1.61A241.59,241.59,0,0,0,2583.76,1703a11,11,0,0,0-8.18,10.63v1.9h-17.16v-1.9a11,11,0,0,0-11-11Zm-707.64-116.4H1990.9v116.4h-138a14.92,14.92,0,0,0-14.94,14.92h0v5.16a14.94,14.94,0,0,0,14.94,14.94h724.69l-.08.32H1785.45c1-.83,1.9-1.67,2.84-2.54l.34-.32c19.94-18.65,41.39-44.29,32.67-72.54-5.42-17.58-16.45-25.83-30.21-29.5a96,96,0,0,0-25.85-101.1q6.32-2.81,12.53-6.28a62,62,0,0,0,62,60.53Zm1709.27,217.48c-6.21-44.22-32.29-83.84-55.07-123.2-8.45-14.59-20.12-29.78-37.1-32.94-18.12-3.37-35.1,8.4-46.76,21.66a135.26,135.26,0,0,0-20.86,32,134.88,134.88,0,0,0-27.87-23.85c-30.4-19.2-74-21-99,5.15a67.65,67.65,0,0,0-16.11,29.25,105.59,105.59,0,0,0-26.38-5.29c-16.94-1.14-35.4,2.82-46.62,15.57a54.34,54.34,0,0,0-9.28,16H2996.55l-8.05-134.85V1480.74h-1.82c9.51-18.41,23.57-34.58,38.91-48.32a185.74,185.74,0,0,0,13.48,48.32H3032v214.2a43,43,0,0,0,43,43h47.74a43,43,0,0,0,43-43v-214.2h-24.81c9.7-52.41,45-98.61,45-98.61l-44.26-12.1c3.25-12.6,6.11-20.41,6.11-20.41l-60.11,2-66.58-65a165.63,165.63,0,0,0-26.47,10.08l-25.17-13-11.81-197.58a53.23,53.23,0,0,0-45.34-49.48l-2.76,1.18-.16-.09-6.63-44-.42.17-.79-13.28a118,118,0,0,0,30.79-59.88,28.64,28.64,0,0,0,36.12-42.83,2.1,2.1,0,0,0-.26-.33,3.11,3.11,0,0,0-.23-.28,26.39,26.39,0,0,0-2.08-2.28c-.27-.28-.58-.56-.87-.83s-.71-.62-1.07-.91h0a29.27,29.27,0,0,0-5.13-3.33c-.68-.35-1.37-.66-2.09-1a1,1,0,0,0-.21-.09c-.3-.12-.6-.24-.92-.35l-.67-.23c-.24-.09-.49-.17-.74-.24-.47-.14-.95-.27-1.43-.39l-1-.22-1-.19-1-.16c-.27-.05-.55-.09-.83-.12a28.31,28.31,0,0,0-6.76.09c5.6-4.33,10.21-8.24,11.11-9a115.59,115.59,0,0,0,21.62-23.42,93.44,93.44,0,0,0,14-31.34c.08-.35.17-.7.24-1a104.79,104.79,0,0,0,2.29-13.63c.06-.42.1-.85.14-1.26v-.08c.08-1.08.17-2.16.24-3.24a109.61,109.61,0,0,0-73-109.66,695.43,695.43,0,0,1-81.09-34.67c-10.22-5.17-20.39-10.61-31-14.83-3.17-1.26-6.36-2.4-9.62-3.41-31.86-9.76-69-3.51-93.63,19-16.79,15.37-26.69,39-26.09,61.92a68,68,0,0,0,.54,7.27,63.68,63.68,0,0,0,1.85,9.07,178.82,178.82,0,0,0,24,116.46l-5.6,50.58a118.44,118.44,0,0,0,70.55,121.68c1.94.85,3.93,1.61,5.93,2.35l.29,4.68-6.22-7-21.43,25.37-2.69-.36-.57,4.22-1.33,1.59a15.52,15.52,0,0,0-1.89,17.25,370.37,370.37,0,0,0-161.21,197.6l-57,74.45a67.15,67.15,0,0,1-14.94,14.3l-3.66,2.54-17.35-2.34a62.83,62.83,0,0,0-24.53,1.54,179.82,179.82,0,0,0-26.29-5.42V1234.67a64.32,64.32,0,0,0-64.32-64.32H2095.79a86.66,86.66,0,0,0,7.28-33.91c.08-5.26.07-8.45-1.35-13.39a62.81,62.81,0,0,0-9.62-20.39l4-5.22,19.5-25.54a9.63,9.63,0,0,0-1.8-13.49l-16.8-12.77-45.74-34.92a9.63,9.63,0,0,0-13.49,1.79h0l-46.42,60.82-2.44,3.18-26.25,34.35-21,27.55a9.41,9.41,0,0,0-1.63,3.35,9.56,9.56,0,0,0,3.43,10.13l5.44,4.16c-.52,1.07-1,2.16-1.46,3.26q-2.25,5.55-4.6,11H1839.78a62.06,62.06,0,0,0-62,62v122.09c-16.59,14.13-36.64,32.17-35,39-4.14-17.39-7.33-35-10.62-52.48l-.5-34.15a258.73,258.73,0,0,0-61.81-164.4,70.1,70.1,0,0,0-19.67-20.7,259.18,259.18,0,0,0-89.2-55.09c-1,1.33-2.07,2.62-3.14,3.89-1.14-1-2.3-1.87-3.49-2.74a108.59,108.59,0,0,0,51-83l10-113.88h0c50.52-34,39.93-105.86,12.73-153.49a157.66,157.66,0,0,0-9.43-14.67c-.83-1.14-1.67-2.25-2.53-3.34l1.64-1.18,4.61-3.36c21.12-15.44,40-30.13,56.16-43.67-176.87,34.36-332.08,129.47-443,262.77,16.19-6.11,34.29-13.73,53.92-22.67l2-.94,1.14-.52a143.53,143.53,0,0,0,7.13,20.65c12.57,29.21,34.52,54.26,61.28,71.52a163.86,163.86,0,0,0,17.15,9.63c4.29,2.1,8.35,3.9,12.23,5.43a108.84,108.84,0,0,0,30.25,55.73v9.74a260,260,0,0,0-26.45,8,110,110,0,0,0,11.94,13.13c-.41-.36-.85-.69-1.26-1a109,109,0,0,1-12-12.12,75.31,75.31,0,0,0-22.72,50.24l-1.21,23.7-.07,1.44a72.66,72.66,0,0,0-24.9,35.56l-35.52,111.34a10.86,10.86,0,0,0,7,13.66h0l2.89.93-41.53,125.39a149.45,149.45,0,0,0,68.12,175l-2.3,44.54-5.85,113.23v.22l-19,367.1h37.07l8,84,33.74,353.66,3.54,37-1.16-.86a2.25,2.25,0,0,0-3.16.46,2.14,2.14,0,0,0-.2.32c-6.72,13.24-7.44,36.29-7.34,56.22,0,6.28,3.8,11.07,10,14.75.27.17.55.31.83.47l.15,30.74c0,4.18,2,7.58,4.46,7.55l65.88-.31c2.45,0,4.41-3.42,4.38-7.6l-.07-18.12,5.26.21c14.29.54,25.73,4.38,37,9v9.24c0,4.18,2,7.58,4.46,7.55l42.47-.19a128.56,128.56,0,0,0,24.14,2.08c20.36-.09,42.56-5.42,61.88-11.78,14.85,6.24,31.36,11.9,55,11.78,39.26-.17,85.33-19.8,104.37-28.79H3025.18a33.83,33.83,0,0,0,33.79-31.86l2.47-11,45.06-200.93,115.11-513.26c.37.69.73,1.39,1.09,2.08a201.61,201.61,0,0,1,19.41,125.32c-2.58,15.2-7,30.17-7.67,45.58s2.77,31.88,13.66,42.82c6.8,6.84,16,11,22.33,18.29,10.42,11.93,11,29.18,13.46,44.83.33,2,.69,4.08,1.11,6.1a48.38,48.38,0,0,0-47.69,48.38v297.53a119,119,0,0,0,67.62,107.43H3281.5v19.69h149.86v-19.69H3408a119.13,119.13,0,0,0,67.6-107.43V2266.73a48.3,48.3,0,0,0-35.07-46.53c3.13-8.07,4.17-16.88,4.36-25.81,17.83-17.49,26.89-33.88,32-46.75,11.22-28.46-.79-80.7-9.21-110.59-11.72-41.63,22.29-85.36,35.78-99.32,43.77-45.39,48.84-110.86,45.59-134Z" transform="translate(-837.54 -360.07)"/><path class="cls-3" d="M2451.19,761.58c-5.75-45.31-33.1-82.65-70.54-103.27a136.65,136.65,0,0,0-44.26-17.81l-1.28,2.17h-.31c-1.67-.26-3.34-.49-5-.69l-1.47-.17h-.45l-1.46-.14c-2.31-.22-4.62-.39-7-.49l-2.73-.1h-6.3q-1.51,0-3,.09l-1.69.08q-5.23.27-10.54.94l-2.06.28c-.77.1-1.56.22-2.33.35s-1.67.27-2.5.42c-2.29.39-4.56.85-6.8,1.36l-1.64.39-1.62.4c-1.33.33-2.66.69-4,1.06l-1.62.47c-1,.29-2,.59-2.93.9l-1.3.43c-.54.17-1.07.35-1.6.54l-1.05.36-1.19.43q-3.09,1.11-6.09,2.37l-1.06.45-1.53.66a140.27,140.27,0,0,0-13.29,6.73l-1.26.74c-.53.3-1.05.62-1.57.94l-1,.61q-3,1.84-5.86,3.84c-.45.31-.9.62-1.34.94l-1.33,1c-.44.32-.88.64-1.31,1s-.81.59-1.2.9l-.63.47-1.28,1-1,.76-1.06.86c-.84.68-1.68,1.38-2.5,2.09L2220,676c-.4.36-.81.71-1.21,1.08l-1.2,1.09-1.19,1.1-1.48,1.42-.85.83-1.15,1.14-1.13,1.16c-1.51,1.55-3,3.14-4.39,4.75q-4.29,4.84-8.1,10.08c-.32.43-.64.87-1,1.31-.62.88-1.24,1.76-1.84,2.65s-1.21,1.79-1.78,2.7c-.3.44-.59.9-.87,1.36-.14.21-.28.43-.41.65s-.3.48-.44.72-.49.78-.72,1.18c-.15.24-.29.49-.45.74q-.66,1.13-1.29,2.25c-.27.47-.54.94-.79,1.42a136.75,136.75,0,0,0-7.57,16.12c-.2.5-.39,1-.58,1.52-.46,1.2-.9,2.42-1.33,3.64-.11.31-.21.63-.32,1a133.59,133.59,0,0,0-4.94,19c-.08.4-.16.82-.23,1.23-.15.88-.3,1.76-.43,2.65-.09.55-.17,1.12-.25,1.69-.13.86-.24,1.73-.35,2.6-.06.55-.13,1.09-.19,1.64q-.37,3.39-.58,6.82a10.83,10.83,0,0,1-.07,1.5c-.07.5,0,1.11-.07,1.68s0,1.26-.06,1.89a11.94,11.94,0,0,0,0,1.47v5a16.1,16.1,0,0,0,.06,1.7c.06.57,0,1.13.07,1.69q.09,1.68.21,3.36v.06c0,.67.1,1.35.16,2,.09,1.06.2,2.11.32,3.16.07.62.15,1.23.22,1.84q.82,6.51,2.24,12.8a136.17,136.17,0,0,0,27.33,56.32l-1.29,2.2.54.64c.3.35.6.71.9,1l.57.66c.58.65,1.15,1.29,1.74,1.93.36.4.72.8,1.1,1.19a135.08,135.08,0,0,0,13,12.2c.41.35.83.69,1.26,1,1,.82,2,1.61,3,2.4l.8.6a135.43,135.43,0,0,0,16.51,10.6l1.1.6c.8.42,1.58.83,2.39,1.23l1.52.77,2.36,1.13,1.51.7c2.07.93,4.17,1.83,6.3,2.66q.69.28,1.41.54l1.57.59,1.78.65,1.39.47,1.93.65,1.28.4,1.63.5,1.63.47,1.63.46c1.08.29,2.16.58,3.25.84h.07l2,.47c1,.24,2.07.46,3.1.68l1.82.36q6.45,1.23,12.86,1.84l.08-.13A141.23,141.23,0,0,0,2422.67,864a137,137,0,0,0,28.8-100C2451.39,763.21,2451.29,762.4,2451.19,761.58Z" transform="translate(-837.54 -360.07)"/><path class="cls-3" d="M2872.45,761.58c-5.75-45.31-33.1-82.65-70.55-103.27a136.43,136.43,0,0,0-44.26-17.81l-1.28,2.17h-.3c-1.68-.26-3.35-.49-5-.69l-1.47-.17h-.46l-1.46-.14c-2.3-.22-4.61-.39-6.94-.49L2738,641h-6.3q-1.51,0-3,.09l-1.69.08c-3.5.18-7,.49-10.54.94l-2.06.28c-.78.1-1.56.22-2.34.35l-2.49.42c-2.3.39-4.56.85-6.81,1.36l-1.63.39-1.63.4c-1.33.33-2.65.69-4,1.06l-1.62.47c-1,.29-2,.59-2.93.9l-1.31.43c-.53.17-1.07.35-1.59.54L2687,649l-1.2.43q-3.08,1.11-6.09,2.37l-1.06.45-1.52.66a140.27,140.27,0,0,0-13.29,6.73c-.43.24-.85.49-1.26.74s-1,.62-1.58.94l-1,.61q-3,1.85-5.86,3.84c-.46.31-.9.62-1.34.94s-.89.63-1.33,1-.88.64-1.31,1-.81.59-1.21.9l-.62.47-1.29,1-1,.76c-.35.29-.7.58-1.06.86-.83.68-1.67,1.38-2.49,2.09-.41.36-.82.7-1.23,1.07s-.81.71-1.21,1.08l-1.2,1.09-1.19,1.1-1.48,1.42-.85.83-1.15,1.14-1.14,1.16c-1.5,1.55-3,3.14-4.39,4.75-2.85,3.23-5.56,6.6-8.09,10.08-.32.43-.64.87-.95,1.31-.63.88-1.24,1.76-1.84,2.65s-1.21,1.79-1.79,2.7c-.29.44-.58.9-.86,1.36-.14.21-.28.43-.41.65s-.3.48-.45.72-.48.78-.71,1.18c-.16.24-.3.49-.45.74-.44.75-.87,1.5-1.3,2.25-.26.47-.53.94-.79,1.42a136.69,136.69,0,0,0-7.56,16.12c-.2.5-.4,1-.58,1.52-.47,1.2-.9,2.42-1.33,3.64-.11.31-.21.63-.32,1a133.62,133.62,0,0,0-4.95,19c-.08.4-.15.82-.22,1.23-.16.88-.3,1.76-.43,2.65-.09.55-.18,1.12-.26,1.69-.12.86-.23,1.73-.34,2.6-.06.55-.13,1.09-.19,1.64q-.37,3.39-.58,6.82c0,.49-.06,1-.08,1.5s-.05,1.11-.07,1.68l-.06,1.89V783c0,.57,0,1.13.05,1.7s0,1.13.08,1.69c.06,1.12.12,2.24.21,3.36v.06c.06.67.11,1.35.17,2,.09,1.06.2,2.11.32,3.16.06.62.14,1.23.22,1.84q.82,6.51,2.24,12.8a136.17,136.17,0,0,0,27.33,56.32l-1.29,2.2c.18.22.35.43.54.64s.59.71.89,1l.58.66c.57.65,1.15,1.29,1.73,1.93.37.4.73.8,1.1,1.19a138.78,138.78,0,0,0,13,12.2l1.26,1c1,.82,2,1.61,3.05,2.4l.8.6a134.78,134.78,0,0,0,16.52,10.6l1.1.6c.79.42,1.58.83,2.38,1.23.5.26,1,.52,1.53.77l2.36,1.13,1.51.7c2.07.93,4.17,1.83,6.29,2.66l1.41.54,1.57.59,1.78.65,1.39.47,1.94.65,1.28.4,1.62.5,1.63.47,1.64.46c1.08.29,2.16.58,3.25.84h.06l2,.47c1,.24,2.06.46,3.1.68l1.82.36q6.43,1.23,12.86,1.84l.08-.13A141.23,141.23,0,0,0,2844,863.91,137,137,0,0,0,2872.73,764C2872.64,763.21,2872.55,762.4,2872.45,761.58Z" transform="translate(-837.54 -360.07)"/><path class="cls-3" d="M3294,764c-.09-.82-.18-1.63-.29-2.45-5.74-45.31-33.09-82.65-70.54-103.27a136.65,136.65,0,0,0-44.26-17.81l-1.28,2.17h-.31c-1.67-.26-3.35-.49-5-.69l-1.47-.17h-.46l-1.46-.14c-2.3-.22-4.62-.39-6.95-.49l-2.72-.1h-6.34c-1,0-2,0-3,.09l-1.69.08q-5.24.27-10.54.94l-2.05.28c-.78.1-1.57.22-2.34.35s-1.67.27-2.5.42c-2.29.39-4.56.85-6.8,1.36l-1.63.39-1.63.4c-1.33.33-2.65.69-4,1.06l-1.63.47c-1,.29-2,.59-2.93.9l-1.3.43c-.54.17-1.07.35-1.6.54l-1,.36-1.2.43q-3.09,1.11-6.09,2.37l-1.06.45-1.52.66a140.27,140.27,0,0,0-13.29,6.73c-.43.24-.85.49-1.27.74s-1,.62-1.57.94l-1,.61q-3,1.85-5.87,3.84l-1.34.94-1.33,1-1.31,1-1.2.9-.62.47c-.44.33-.87.67-1.29,1l-1,.76c-.36.29-.7.58-1.06.86-.84.68-1.67,1.38-2.49,2.09-.42.36-.82.7-1.23,1.07l-1.22,1.08c-.39.35-.8.72-1.19,1.09s-.8.73-1.2,1.1-1,.94-1.47,1.42l-.86.83c-.38.38-.77.76-1.14,1.14l-1.14,1.16c-1.5,1.55-3,3.14-4.39,4.75q-4.29,4.85-8.1,10.08c-.32.43-.64.87-.95,1.31-.62.88-1.23,1.76-1.84,2.65s-1.2,1.79-1.78,2.7c-.29.44-.58.9-.87,1.36-.14.21-.28.43-.41.65s-.3.48-.44.72l-.72,1.18c-.15.24-.29.49-.44.74-.44.75-.87,1.5-1.3,2.25-.27.47-.53.94-.79,1.42a135.11,135.11,0,0,0-7.56,16.12c-.21.5-.4,1-.59,1.52-.46,1.2-.9,2.42-1.33,3.64-.11.31-.21.63-.32,1a137,137,0,0,0-4.94,19c-.08.4-.15.82-.23,1.23-.15.88-.3,1.76-.43,2.65-.08.55-.17,1.12-.25,1.69-.12.86-.24,1.73-.34,2.6-.07.55-.13,1.09-.2,1.64-.24,2.26-.44,4.53-.57,6.82,0,.49-.06,1-.08,1.5s0,1.11-.07,1.68-.05,1.26-.06,1.89,0,1,0,1.47v5l.06,1.7a13.65,13.65,0,0,0,.07,1.69q.09,1.68.21,3.36v.06c.05.67.11,1.35.16,2,.1,1.06.21,2.11.32,3.16.07.62.15,1.23.23,1.84q.83,6.51,2.24,12.8A136.17,136.17,0,0,0,3045.94,866l-1.3,2.2.54.64.9,1,.57.66c.58.65,1.15,1.29,1.74,1.93.36.4.73.8,1.1,1.19a137.55,137.55,0,0,0,13,12.2c.42.35.83.69,1.26,1,1,.82,2,1.61,3.05,2.4l.8.6a134.78,134.78,0,0,0,16.52,10.6l1.1.6c.79.42,1.57.83,2.38,1.23.5.26,1,.52,1.53.77.78.38,1.56.76,2.36,1.13l1.5.7c2.07.93,4.17,1.83,6.3,2.66.46.19.94.37,1.41.54l1.57.59,1.78.65,1.39.47,1.93.65,1.28.4,1.63.5,1.63.47,1.64.46c1.07.29,2.16.58,3.25.84h.06l2,.47c1,.24,2.06.46,3.09.68l1.82.36q6.45,1.23,12.87,1.84l.08-.13A141.22,141.22,0,0,0,3265.26,864,137,137,0,0,0,3294,764Z" transform="translate(-837.54 -360.07)"/><path class="cls-4" d="M2601.71,1488.29c0,284.76-95.18,547.25-255.47,757.45a970.38,970.38,0,0,1-238.3-128.29,763.34,763.34,0,0,1-221.21,51c-55.21,215.84-242.23,378.84-470.13,398.26q-23,2-46.52,1.94c-294.12-.37-532.24-239.11-531.87-533.22a530.37,530.37,0,0,1,70.94-265.08c1.15-2,2.32-4,3.49-5.93a534.88,534.88,0,0,1,168.07-175c.26-.18.53-.35.8-.52a769.85,769.85,0,0,1,81.6-571.8c1.39-2.36,2.78-4.71,4.2-7.07a767.87,767.87,0,0,1,61.41-88c115.71-143.43,282-244.35,471.72-275.65a774.46,774.46,0,0,1,286,6.48,978.68,978.68,0,0,1,158-131.16l.47.38a1257.91,1257.91,0,0,1,117.91,110.37q6.78,7.22,13.45,14.54l.82.9q30.33,33.38,58.23,68.92,6.18,7.86,12.23,15.82,4.62,6.09,9.16,12.22,21.54,29.05,41.39,59.38C2526.84,1000.73,2601.71,1235.77,2601.71,1488.29Z" transform="translate(-837.54 -360.07)"/><path class="cls-5" d="M2245.21,633.51c3.53-.45,7-.77,10.54-.94l1.69-.08q1.51-.07,3-.09h6.3c.91,0,1.83.05,2.73.1,2.33.1,4.64.26,7,.48l1.46.15h.45l1.47.17c1.69.2,3.35.43,5,.69,1.11.18,2.23.37,3.33.57l2.48.47,1.62.33,1.85.41c.62.14,1.24.28,1.85.44l1.83.45,1.83.47c52.83,14.26,94.36,58.73,101.6,115.83.1.81.2,1.63.28,2.44a137,137,0,0,1-28.78,99.88,140.84,140.84,0,0,1-213.62,8.48,136.34,136.34,0,0,1-33-62.84q-1.41-6.28-2.24-12.79c-.08-.62-.15-1.23-.22-1.85-.12-1-.23-2.1-.32-3.15-.06-.67-.11-1.35-.16-2v-.06c-.09-1.12-.15-2.24-.21-3.35,0-.57-.05-1.13-.07-1.7s0-1.13-.06-1.7a16.07,16.07,0,0,1,0-1.7v-4.81c0-.47,0-1.26.06-1.89s0-1.12.07-1.67,0-1,.07-1.51c.14-2.28.33-4.56.58-6.81.06-.56.13-1.1.19-1.65.11-.87.22-1.74.35-2.6.07-.57.16-1.13.25-1.69.13-.89.28-1.76.43-2.65.07-.41.15-.82.23-1.23a133.59,133.59,0,0,1,4.94-19c.11-.32.21-.64.32-1,.43-1.22.87-2.44,1.33-3.64.19-.51.38-1,.58-1.52a136.75,136.75,0,0,1,7.57-16.12c.25-.47.52-.94.78-1.41.43-.76.86-1.51,1.3-2.25l.45-.75c.23-.39.47-.79.72-1.18s.29-.47.44-.72.27-.43.41-.65c.28-.46.57-.91.87-1.36.57-.91,1.17-1.81,1.78-2.7s1.22-1.77,1.84-2.65c.31-.44.63-.88,1-1.31,2.53-3.48,5.24-6.85,8.1-10.07q2.13-2.43,4.39-4.75c.37-.39.75-.78,1.13-1.16s.76-.77,1.15-1.14.57-.56.85-.84c.49-.48,1-1,1.48-1.41s.79-.75,1.19-1.11.8-.74,1.2-1.09l1.21-1.08,1.23-1.07c.82-.7,1.66-1.4,2.5-2.09l1-.85,1-.77c.43-.34.86-.68,1.29-1l.63-.48,1.2-.9c.43-.33.87-.65,1.31-1l1.33-1c.44-.32.89-.63,1.34-.93,1.91-1.33,3.88-2.61,5.86-3.84l1-.62,1.57-.94,1.26-.74a137.86,137.86,0,0,1,13.29-6.72l1.53-.67,1.06-.45c2-.83,4-1.63,6.09-2.37l1.19-.43,1.05-.36c.52-.18,1.06-.37,1.6-.54l1.3-.43,2.93-.9,1.62-.47c1.31-.37,2.63-.73,4-1.06l1.62-.4,1.64-.39c2.24-.5,4.51-1,6.8-1.36l2.49-.42c.78-.13,1.57-.24,2.34-.35Z" transform="translate(-837.54 -360.07)"/><path class="cls-1" d="M2245.21,633.51c3.53-.45,7-.77,10.54-.94l1.69-.08q1.51-.07,3-.09h6.3c.91,0,1.83.05,2.73.1,2.33.1,4.64.26,7,.48l1.46.15h.45l1.47.17c1.69.2,3.35.43,5,.69,1.11.18,2.23.37,3.33.57l2.48.47,1.62.33,1.85.41c.62.14,1.24.28,1.85.44l1.83.45,1.83.47a137.22,137.22,0,0,1-13.76,199,141.36,141.36,0,0,1-126.76,27.63,136.34,136.34,0,0,1-33-62.84q-1.41-6.28-2.24-12.79c-.08-.62-.15-1.23-.22-1.85-.12-1-.23-2.1-.32-3.15-.06-.67-.11-1.35-.16-2v-.06c-.09-1.12-.15-2.23-.21-3.35,0-.57-.05-1.13-.07-1.7s0-1.13-.06-1.7a16.07,16.07,0,0,1,0-1.7v-4.81c0-.47,0-1.26.06-1.89s0-1.12.07-1.67,0-1,.07-1.51c.14-2.28.33-4.56.58-6.81.06-.56.13-1.1.19-1.65.11-.87.22-1.74.35-2.6.07-.57.16-1.13.25-1.69.13-.89.28-1.76.43-2.65.07-.41.15-.82.23-1.23a133.59,133.59,0,0,1,4.94-19c.11-.32.21-.64.32-1,.43-1.22.87-2.44,1.33-3.64.19-.51.38-1,.58-1.52a136.75,136.75,0,0,1,7.57-16.12c.25-.47.52-.94.78-1.41.43-.76.86-1.51,1.3-2.25l.45-.75c.23-.39.47-.79.72-1.18s.29-.47.44-.72.27-.43.41-.65c.28-.46.57-.91.87-1.36.57-.91,1.17-1.81,1.78-2.7s1.22-1.77,1.84-2.65c.31-.44.63-.88,1-1.31,2.53-3.48,5.24-6.85,8.1-10.07q2.13-2.43,4.39-4.75c.37-.39.75-.78,1.13-1.16s.76-.77,1.15-1.14.57-.56.85-.84c.49-.48,1-1,1.48-1.41s.79-.75,1.19-1.11.8-.74,1.2-1.09l1.21-1.08,1.23-1.07c.82-.7,1.66-1.4,2.5-2.09l1-.85,1-.77c.43-.34.86-.68,1.29-1l.63-.48,1.2-.9c.43-.33.87-.65,1.31-1l1.33-1c.44-.32.89-.63,1.34-.93,1.91-1.33,3.88-2.61,5.86-3.84l1-.62,1.57-.94,1.26-.74a137.86,137.86,0,0,1,13.29-6.72l1.53-.67,1.06-.45c2-.83,4-1.63,6.09-2.37l1.19-.43,1.05-.36c.52-.18,1.06-.37,1.6-.54l1.3-.43,2.93-.9,1.62-.47c1.31-.37,2.63-.73,4-1.06l1.62-.4,1.64-.39c2.24-.5,4.51-1,6.8-1.36l2.49-.42c.78-.13,1.57-.24,2.34-.35Z" transform="translate(-837.54 -360.07)"/><path class="cls-6" d="M2245.21,633.51c3.53-.45,7-.77,10.54-.94l1.69-.08q1.51-.07,3-.09h6.3c.91,0,1.83.05,2.73.1a114,114,0,0,1,7.14,95.41,117.11,117.11,0,0,1-139.83,71.26,112.87,112.87,0,0,1-13.59-18v-.06c-.09-1.12-.15-2.23-.21-3.35,0-.57-.05-1.13-.07-1.7s0-1.13-.06-1.7a16.07,16.07,0,0,1,0-1.7v-4.81c0-.47,0-1.26.06-1.89s0-1.12.07-1.67,0-1,.07-1.51c.14-2.28.33-4.56.58-6.81.06-.56.13-1.1.19-1.65.11-.87.22-1.74.35-2.6.07-.57.16-1.13.25-1.69.13-.89.28-1.76.43-2.65.07-.41.15-.82.23-1.23a133.59,133.59,0,0,1,4.94-19c.11-.32.21-.64.32-1,.43-1.22.87-2.44,1.33-3.64.19-.51.38-1,.58-1.52a136.75,136.75,0,0,1,7.57-16.12c.25-.47.52-.94.78-1.41.43-.76.86-1.51,1.3-2.25l.45-.75c.23-.39.47-.79.72-1.18s.29-.47.44-.72.27-.43.41-.65c.28-.46.57-.91.87-1.36.57-.91,1.17-1.81,1.78-2.7s1.22-1.77,1.84-2.65c.31-.44.63-.88,1-1.31,2.53-3.48,5.24-6.85,8.1-10.07q2.13-2.43,4.39-4.75c.37-.39.75-.78,1.13-1.16s.76-.77,1.15-1.14.57-.56.85-.84c.49-.48,1-1,1.48-1.41s.79-.75,1.19-1.11.8-.74,1.2-1.09l1.21-1.08,1.23-1.07c.82-.7,1.66-1.4,2.5-2.09l1-.85,1-.77c.43-.34.86-.68,1.29-1l.63-.48,1.2-.9c.43-.33.87-.65,1.31-1l1.33-1c.44-.32.89-.63,1.34-.93,1.91-1.33,3.88-2.61,5.86-3.84l1-.62,1.57-.94,1.26-.74a137.86,137.86,0,0,1,13.29-6.72l1.53-.67,1.06-.45c2-.83,4-1.63,6.09-2.37l1.19-.43,1.05-.36c.52-.18,1.06-.37,1.6-.54l1.3-.43,2.93-.9,1.62-.47c1.31-.37,2.63-.73,4-1.06l1.62-.4,1.64-.39c2.24-.5,4.51-1,6.8-1.36l2.49-.42c.78-.13,1.57-.24,2.34-.35Z" transform="translate(-837.54 -360.07)"/><g class="cls-7"><path class="cls-8" d="M2152.2,859.5l69.27-117.41,30.65-52,34.34-58.19a137,137,0,0,1,86,58.4L2327.24,767l-83.11,140.88c-4.27-.41-8.57-1-12.86-1.85l-1.82-.36c-1-.22-2.07-.44-3.1-.68l-2-.47h-.07c-1.09-.27-2.17-.56-3.25-.85l-1.63-.45-1.64-.48c-.54-.16-1.08-.32-1.62-.5l-1.28-.4-1.93-.64-1.39-.48c-.6-.21-1.2-.42-1.79-.65l-1.56-.58-1.41-.54q-3.2-1.26-6.3-2.67l-1.51-.69-2.36-1.14-1.52-.76c-.81-.4-1.6-.82-2.39-1.24-.37-.2-.74-.39-1.1-.6a135.43,135.43,0,0,1-16.51-10.6c-.27-.2-.54-.39-.8-.6-1-.78-2-1.58-3-2.39l-1.26-1a135.08,135.08,0,0,1-13-12.2c-.38-.39-.74-.79-1.11-1.19-.58-.64-1.16-1.28-1.73-1.93l-.57-.66-.9-1Z" transform="translate(-837.54 -360.07)"/></g><path class="cls-5" d="M2271.28,743.72a7,7,0,0,1,6.69,6.12c.06.51,6.82,51,8.6,63.58a7,7,0,0,1-13.79,2.41l-.06-.41c-1.4-9.82-5.78-42.44-7.7-56.8l-64.87,7.71a7.08,7.08,0,0,1-1.62-14.06l71.69-8.52A6.26,6.26,0,0,1,2271.28,743.72Z" transform="translate(-837.54 -360.07)"/><path class="cls-9" d="M2666.47,633.51c3.52-.45,7-.76,10.54-.94l1.69-.08q1.52-.07,3-.09h6.38c.91,0,1.82.05,2.73.1q3.49.15,6.94.48l1.46.15h.46l1.47.17c1.68.2,3.35.43,5,.69,1.11.18,2.23.37,3.33.57l2.47.47,1.63.33,1.85.41c.62.14,1.24.28,1.85.44l1.83.45,1.83.47c52.83,14.26,94.35,58.73,101.59,115.83.11.81.2,1.63.29,2.44A137,137,0,0,1,2794,855.34a140.82,140.82,0,0,1-213.61,8.48,136.34,136.34,0,0,1-33-62.84q-1.41-6.29-2.24-12.79c-.08-.62-.16-1.23-.23-1.85-.11-1-.22-2.1-.31-3.15-.06-.67-.12-1.35-.17-2v-.06c-.08-1.12-.15-2.24-.2-3.35,0-.57-.06-1.13-.08-1.7s0-1.13,0-1.7v-6.51c0-.47,0-1.26.06-1.89s0-1.12.07-1.67.05-1,.08-1.51c.13-2.28.33-4.56.58-6.81.06-.56.12-1.1.19-1.65.1-.87.22-1.74.34-2.6.08-.57.17-1.13.26-1.69.12-.89.27-1.76.43-2.65.07-.41.14-.82.22-1.23a135,135,0,0,1,5-19c.1-.32.21-.64.32-1,.42-1.22.86-2.44,1.33-3.64.18-.51.38-1,.58-1.52a136.69,136.69,0,0,1,7.56-16.12c.26-.47.52-.94.79-1.41.43-.76.86-1.51,1.3-2.25.15-.25.29-.5.45-.75l.71-1.18.44-.72.41-.65.87-1.36c.58-.91,1.17-1.81,1.79-2.7s1.21-1.77,1.83-2.65l1-1.31c2.54-3.48,5.25-6.85,8.1-10.07,1.42-1.62,2.89-3.2,4.39-4.75.38-.39.75-.78,1.14-1.16s.76-.77,1.15-1.14.57-.56.85-.84c.49-.48,1-1,1.48-1.41s.79-.75,1.19-1.11.8-.74,1.2-1.09l1.21-1.08,1.23-1.07c.82-.7,1.65-1.4,2.49-2.09l1.06-.85,1-.77c.42-.34.86-.68,1.29-1l.62-.48,1.21-.9,1.31-1c.45-.35.88-.64,1.33-1a16.13,16.13,0,0,1,1.34-.93c1.91-1.33,3.87-2.61,5.86-3.84l1-.62,1.57-.94L2614,651a137.86,137.86,0,0,1,13.29-6.72l1.52-.67,1.06-.45c2-.83,4-1.63,6.09-2.37l1.2-.43,1-.36,1.6-.54,1.31-.43c1-.3,1.94-.61,2.92-.9l1.63-.47c1.31-.37,2.63-.73,4-1.06l1.63-.4,1.63-.39c2.25-.5,4.51-1,6.8-1.36l2.5-.42c.78-.13,1.56-.24,2.34-.35Z" transform="translate(-837.54 -360.07)"/><path class="cls-1" d="M2666.47,633.51c3.52-.45,7-.76,10.54-.94l1.69-.08q1.52-.07,3-.09h6.38c.91,0,1.82.05,2.73.1q3.49.15,6.94.48l1.46.15h.46l1.47.17c1.68.2,3.35.43,5,.69,1.11.18,2.23.37,3.33.57l2.47.47,1.63.33,1.85.41c.62.14,1.24.28,1.85.44l1.83.45,1.83.47a137.21,137.21,0,0,1-13.77,199,141.34,141.34,0,0,1-126.75,27.63,136.34,136.34,0,0,1-33-62.84q-1.41-6.28-2.24-12.79c-.08-.62-.16-1.23-.23-1.85-.11-1-.22-2.1-.31-3.15-.06-.67-.12-1.35-.17-2v-.06c-.08-1.12-.14-2.23-.2-3.35,0-.57-.06-1.13-.08-1.7s0-1.13,0-1.7v-6.51c0-.47,0-1.26.06-1.89s0-1.12.07-1.67.05-1,.08-1.51c.13-2.28.33-4.56.58-6.81.06-.56.12-1.1.19-1.65.1-.87.22-1.74.34-2.6.08-.57.17-1.13.26-1.69.12-.89.27-1.76.43-2.65.07-.41.14-.82.22-1.23a135,135,0,0,1,5-19c.1-.32.21-.64.32-1,.42-1.22.86-2.44,1.33-3.64.18-.51.38-1,.58-1.52a136.69,136.69,0,0,1,7.56-16.12c.26-.47.52-.94.79-1.41.43-.76.86-1.51,1.3-2.25.15-.25.29-.5.45-.75l.71-1.18.44-.72.41-.65.87-1.36c.58-.91,1.17-1.81,1.79-2.7s1.21-1.77,1.83-2.65l1-1.31c2.54-3.48,5.25-6.85,8.1-10.07,1.42-1.62,2.89-3.2,4.39-4.75.38-.39.75-.78,1.14-1.16s.76-.77,1.15-1.14.57-.56.85-.84c.49-.48,1-1,1.48-1.41s.79-.75,1.19-1.11.8-.74,1.2-1.09l1.21-1.08,1.23-1.07c.82-.7,1.65-1.4,2.49-2.09l1.06-.85,1-.77c.42-.34.86-.68,1.29-1l.62-.48,1.21-.9,1.31-1c.45-.35.88-.64,1.33-1a16.13,16.13,0,0,1,1.34-.93c1.91-1.33,3.87-2.61,5.86-3.84l1-.62,1.57-.94L2614,651a137.86,137.86,0,0,1,13.29-6.72l1.52-.67,1.06-.45c2-.83,4-1.63,6.09-2.37l1.2-.43,1-.36,1.6-.54,1.31-.43c1-.3,1.94-.61,2.92-.9l1.63-.47c1.31-.37,2.63-.73,4-1.06l1.63-.4,1.63-.39c2.25-.5,4.51-1,6.8-1.36l2.5-.42c.78-.13,1.56-.24,2.34-.35Z" transform="translate(-837.54 -360.07)"/><path class="cls-6" d="M2666.47,633.51c3.52-.45,7-.76,10.54-.94l1.69-.08q1.52-.07,3-.09h6.38c.91,0,1.82.05,2.73.1a114,114,0,0,1,7.14,95.41,117.11,117.11,0,0,1-139.83,71.26,113.53,113.53,0,0,1-13.6-18v-.06c-.08-1.12-.14-2.23-.2-3.35,0-.57-.06-1.13-.08-1.7s0-1.13,0-1.7v-6.51c0-.47,0-1.26.06-1.89s0-1.12.07-1.67.05-1,.08-1.51c.13-2.28.33-4.56.58-6.81.06-.56.12-1.1.19-1.65.1-.87.22-1.74.34-2.6.08-.57.17-1.13.26-1.69.12-.89.27-1.76.43-2.65.07-.41.14-.82.22-1.23a135,135,0,0,1,5-19c.1-.32.21-.64.32-1,.42-1.22.86-2.44,1.33-3.64.18-.51.38-1,.58-1.52a136.69,136.69,0,0,1,7.56-16.12c.26-.47.52-.94.79-1.41.43-.76.86-1.51,1.3-2.25.15-.25.29-.5.45-.75l.71-1.18.44-.72.41-.65.87-1.36c.58-.91,1.17-1.81,1.79-2.7s1.21-1.77,1.83-2.65l.95-1.31c2.54-3.48,5.25-6.85,8.1-10.07,1.42-1.62,2.89-3.2,4.39-4.75.38-.39.75-.78,1.14-1.16s.76-.77,1.15-1.14.57-.56.85-.84c.49-.48,1-1,1.48-1.41s.79-.75,1.19-1.11.8-.74,1.2-1.09l1.21-1.08,1.23-1.07c.82-.7,1.65-1.4,2.49-2.09l1.06-.85,1-.77c.42-.34.86-.68,1.29-1l.62-.48,1.21-.9,1.31-1c.45-.35.88-.64,1.33-1a16.13,16.13,0,0,1,1.34-.93c1.91-1.33,3.87-2.61,5.86-3.84l1-.62,1.57-.94L2614,651a137.86,137.86,0,0,1,13.29-6.72l1.52-.67,1.06-.45c2-.83,4-1.63,6.09-2.37l1.2-.43,1-.36,1.6-.54,1.31-.43c1-.3,1.94-.61,2.92-.9l1.63-.47c1.31-.37,2.63-.73,4-1.06l1.63-.4,1.63-.39c2.25-.5,4.51-1,6.8-1.36l2.5-.42c.78-.13,1.56-.24,2.34-.35Z" transform="translate(-837.54 -360.07)"/><g class="cls-7"><path class="cls-8" d="M2573.45,859.5l69.27-117.41,30.66-52,34.33-58.19a137,137,0,0,1,86,58.4L2748.5,767l-83.11,140.88q-6.42-.61-12.86-1.85c-.61-.12-1.22-.23-1.82-.36-1-.22-2.08-.44-3.1-.68l-2-.47h-.06c-1.09-.27-2.18-.56-3.25-.85-.55-.14-1.09-.3-1.64-.45s-1.09-.31-1.63-.48-1.08-.32-1.63-.5l-1.27-.4-1.94-.64-1.39-.48c-.59-.21-1.19-.42-1.78-.65l-1.57-.58L2628,899q-3.2-1.26-6.29-2.67l-1.51-.69c-.79-.38-1.58-.75-2.36-1.14l-1.53-.76c-.8-.4-1.59-.82-2.38-1.24-.37-.2-.74-.39-1.1-.6a134.78,134.78,0,0,1-16.52-10.6c-.27-.2-.54-.39-.8-.6-1-.78-2-1.58-3-2.39l-1.26-1a137.55,137.55,0,0,1-13-12.2c-.37-.39-.74-.79-1.1-1.19-.58-.64-1.16-1.28-1.73-1.93-.19-.22-.39-.43-.58-.66s-.6-.69-.89-1Z" transform="translate(-837.54 -360.07)"/></g><path class="cls-9" d="M2694,787.69a6.88,6.88,0,0,1-8.58,1.8c-.41-.23-41.24-23.37-51.49-29.06a6.55,6.55,0,0,1-2.28-9l.12-.2a7,7,0,0,1,9.24-2.85c8,4.44,34.4,19.38,46,26L2721.45,719a7,7,0,0,1,9.31-2.6,6.59,6.59,0,0,1,2,9.1l-.1.15-38.08,61.18A7.27,7.27,0,0,1,2694,787.69Z" transform="translate(-837.54 -360.07)"/><path class="cls-5" d="M3087.72,633.51c3.53-.45,7.05-.76,10.54-.94l1.69-.08c1,0,2-.08,3-.09h6.3c.92,0,1.83.05,2.73.1,2.33.1,4.64.26,6.95.48l1.46.15h.45l1.48.17c1.68.2,3.36.43,5,.69q1.68.27,3.33.57l2.48.47,1.63.33,1.85.41c.61.14,1.23.28,1.84.44s1.23.29,1.84.45l1.82.47c52.84,14.26,94.36,58.73,101.6,115.83.1.81.2,1.63.29,2.44a137,137,0,0,1-28.79,99.88,140.84,140.84,0,0,1-213.62,8.48,136.34,136.34,0,0,1-33-62.84q-1.41-6.28-2.24-12.79c-.08-.62-.16-1.23-.23-1.85-.12-1-.23-2.1-.32-3.15-.06-.67-.11-1.35-.16-2v-.06c-.08-1.12-.15-2.24-.21-3.35,0-.57,0-1.13-.07-1.7l-.06-1.7v-6.51c0-.47,0-1.26.06-1.89s0-1.12.07-1.67.05-1,.07-1.51c.14-2.28.34-4.56.58-6.81.07-.56.13-1.1.19-1.65.11-.87.23-1.74.35-2.6.08-.57.16-1.13.25-1.69.13-.89.28-1.76.43-2.65.08-.41.15-.82.23-1.23a133.59,133.59,0,0,1,4.94-19c.11-.32.21-.64.32-1,.43-1.22.87-2.44,1.33-3.64.19-.51.38-1,.59-1.52a136.69,136.69,0,0,1,7.56-16.12c.26-.47.52-.94.79-1.41q.64-1.14,1.29-2.25c.16-.25.3-.5.45-.75l.72-1.18c.14-.24.29-.47.44-.72s.27-.43.41-.65c.28-.46.58-.91.87-1.36.58-.91,1.17-1.81,1.78-2.7s1.22-1.77,1.84-2.65c.31-.44.63-.88,1-1.31,2.54-3.48,5.24-6.85,8.1-10.07q2.13-2.43,4.39-4.75c.37-.39.75-.78,1.13-1.16l1.15-1.14.85-.84c.49-.48,1-1,1.48-1.41s.79-.75,1.2-1.11.79-.74,1.19-1.09l1.21-1.08,1.24-1.07c.81-.7,1.65-1.4,2.49-2.09l1.06-.85,1-.77c.42-.34.85-.68,1.29-1,.2-.16.41-.33.62-.48l1.2-.9,1.31-1,1.33-1c.44-.32.89-.63,1.34-.93,1.92-1.33,3.88-2.61,5.86-3.84l1-.62,1.57-.94,1.27-.74a137.69,137.69,0,0,1,13.28-6.72l1.53-.67,1.06-.45c2-.83,4-1.63,6.09-2.37l1.19-.43,1-.36c.53-.18,1.06-.37,1.6-.54l1.3-.43c1-.3,1.95-.61,2.93-.9l1.62-.47c1.32-.37,2.64-.73,4-1.06l1.62-.4,1.64-.39c2.24-.5,4.51-1,6.8-1.36.83-.15,1.66-.29,2.5-.42l2.34-.35Z" transform="translate(-837.54 -360.07)"/><path class="cls-1" d="M3087.72,633.51c3.53-.45,7.05-.76,10.54-.94l1.69-.08c1,0,2-.08,3-.09h6.3c.92,0,1.83.05,2.73.1,2.33.1,4.64.26,6.95.48l1.46.15h.45l1.48.17c1.68.2,3.36.43,5,.69q1.68.27,3.33.57l2.48.47,1.63.33,1.85.41c.61.14,1.23.28,1.84.44s1.23.29,1.84.45l1.82.47a137.2,137.2,0,0,1-13.76,199,141.36,141.36,0,0,1-126.76,27.63,136.34,136.34,0,0,1-33-62.84q-1.41-6.28-2.24-12.79c-.08-.62-.16-1.23-.23-1.85-.12-1-.23-2.1-.32-3.15-.06-.67-.11-1.35-.16-2v-.06c-.08-1.12-.15-2.23-.21-3.35,0-.57,0-1.13-.07-1.7l-.06-1.7v-6.51c0-.47,0-1.26.06-1.89s0-1.12.07-1.67.05-1,.07-1.51c.14-2.28.34-4.56.58-6.81.07-.56.13-1.1.19-1.65.11-.87.23-1.74.35-2.6.08-.57.16-1.13.25-1.69.13-.89.28-1.76.43-2.65.08-.41.15-.82.23-1.23a133.59,133.59,0,0,1,4.94-19c.11-.32.21-.64.32-1,.43-1.22.87-2.44,1.33-3.64.19-.51.38-1,.59-1.52a136.69,136.69,0,0,1,7.56-16.12c.26-.47.52-.94.79-1.41q.64-1.14,1.29-2.25c.16-.25.3-.5.45-.75l.72-1.18c.14-.24.29-.47.44-.72s.27-.43.41-.65c.28-.46.58-.91.87-1.36.58-.91,1.17-1.81,1.78-2.7s1.22-1.77,1.84-2.65c.31-.44.63-.88,1-1.31,2.54-3.48,5.24-6.85,8.1-10.07q2.13-2.43,4.39-4.75c.37-.39.75-.78,1.13-1.16l1.15-1.14.85-.84c.49-.48,1-1,1.48-1.41s.79-.75,1.2-1.11.79-.74,1.19-1.09l1.21-1.08,1.24-1.07c.81-.7,1.65-1.4,2.49-2.09l1.06-.85,1-.77c.42-.34.85-.68,1.29-1,.2-.16.41-.33.62-.48l1.2-.9,1.31-1,1.33-1c.44-.32.89-.63,1.34-.93,1.92-1.33,3.88-2.61,5.86-3.84l1-.62,1.57-.94,1.27-.74a137.69,137.69,0,0,1,13.28-6.72l1.53-.67,1.06-.45c2-.83,4-1.63,6.09-2.37l1.19-.43,1-.36c.53-.18,1.06-.37,1.6-.54l1.3-.43c1-.3,1.95-.61,2.93-.9l1.62-.47c1.32-.37,2.64-.73,4-1.06l1.62-.4,1.64-.39c2.24-.5,4.51-1,6.8-1.36.83-.15,1.66-.29,2.5-.42l2.34-.35Z" transform="translate(-837.54 -360.07)"/><path class="cls-6" d="M3087.72,633.51c3.53-.45,7.05-.76,10.54-.94l1.69-.08c1,0,2-.08,3-.09h6.3c.92,0,1.83.05,2.73.1a114,114,0,0,1,7.14,95.41,117.11,117.11,0,0,1-139.83,71.26,114.39,114.39,0,0,1-13.59-18v-.06c-.08-1.12-.15-2.23-.21-3.35,0-.57,0-1.13-.07-1.7l-.06-1.7v-6.51c0-.47,0-1.26.06-1.89s0-1.12.07-1.67.05-1,.07-1.51c.14-2.28.34-4.56.58-6.81.07-.56.13-1.1.19-1.65.11-.87.23-1.74.35-2.6.08-.57.16-1.13.25-1.69.13-.89.28-1.76.43-2.65.08-.41.15-.82.23-1.23a133.59,133.59,0,0,1,4.94-19c.11-.32.21-.64.32-1,.43-1.22.87-2.44,1.33-3.64.19-.51.38-1,.59-1.52a136.69,136.69,0,0,1,7.56-16.12c.26-.47.52-.94.79-1.41l1.29-2.25c.16-.25.3-.5.45-.75l.72-1.18c.14-.24.29-.47.44-.72s.27-.43.41-.65c.28-.46.58-.91.87-1.36.58-.91,1.17-1.81,1.78-2.7s1.22-1.77,1.84-2.65c.31-.44.63-.88,1-1.31,2.54-3.48,5.24-6.85,8.1-10.07q2.13-2.43,4.39-4.75c.37-.39.75-.78,1.13-1.16l1.15-1.14.85-.84c.49-.48,1-1,1.48-1.41s.79-.75,1.2-1.11.79-.74,1.19-1.09l1.21-1.08,1.24-1.07c.81-.7,1.65-1.4,2.49-2.09l1.06-.85,1-.77c.42-.34.85-.68,1.29-1,.2-.16.41-.33.62-.48l1.2-.9,1.31-1,1.33-1c.44-.32.89-.63,1.34-.93,1.92-1.33,3.88-2.61,5.86-3.84l1-.62,1.57-.94,1.27-.74a137.69,137.69,0,0,1,13.28-6.72l1.53-.67,1.06-.45c2-.83,4-1.63,6.09-2.37l1.19-.43,1-.36c.53-.18,1.06-.37,1.6-.54l1.3-.43c1-.3,1.95-.61,2.93-.9l1.62-.47c1.32-.37,2.64-.73,4-1.06l1.62-.4,1.64-.39c2.24-.5,4.51-1,6.8-1.36.83-.15,1.66-.29,2.5-.42l2.34-.35Z" transform="translate(-837.54 -360.07)"/><g class="cls-7"><path class="cls-8" d="M2994.71,859.5,3064,742.09l30.66-52L3129,631.94a137,137,0,0,1,86,58.4L3169.76,767l-83.12,140.88q-6.41-.61-12.86-1.85l-1.82-.36c-1-.22-2.07-.44-3.1-.68l-2-.47h-.07c-1.08-.27-2.17-.56-3.25-.85l-1.63-.45c-.55-.16-1.09-.31-1.63-.48s-1.09-.32-1.63-.5l-1.28-.4-1.93-.64-1.39-.48c-.59-.21-1.19-.42-1.78-.65l-1.57-.58-1.41-.54q-3.2-1.26-6.3-2.67l-1.5-.69-2.37-1.14-1.52-.76c-.81-.4-1.59-.82-2.39-1.24-.37-.2-.74-.39-1.1-.6a135.43,135.43,0,0,1-16.51-10.6c-.27-.2-.54-.39-.8-.6-1-.78-2.05-1.58-3.05-2.39l-1.26-1a135.08,135.08,0,0,1-13-12.2c-.37-.39-.74-.79-1.1-1.19-.59-.64-1.16-1.28-1.74-1.93l-.57-.66-.9-1Z" transform="translate(-837.54 -360.07)"/></g><path class="cls-5" d="M3124.42,767.64a7,7,0,0,1-5,7.57c-.49.15-49.23,14.9-61.37,18.68a7,7,0,1,1-4.22-13.35c9.47-2.94,41-12.5,54.84-16.7l-18-62.79a7.08,7.08,0,0,1,13.62-3.85l19.9,69.39A6.14,6.14,0,0,1,3124.42,767.64Z" transform="translate(-837.54 -360.07)"/><path class="cls-10" d="M3627.69,2632.8c0,22.39-61,43.43-168.13,61.71-229,39.06-668.58,65.49-1173.29,65.49q-31.77,0-63.18-.14-48.53-.22-96.12-.76-59.1-.66-116.54-1.8c-169.36-3.35-327-9.74-466.3-18.53-64.85-4.1-125.72-8.71-182-13.78q-28.74-2.59-55.83-5.34-10.07-1-19.89-2.07l-4.9-.52-1.83-.19-4.62-.5q-9.19-1-18.16-2l-7.16-.81-9.11-1.06-6.46-.77-5.5-.66-7.85-1h-.24q-13.53-1.7-26.48-3.41c-.91-.11-1.81-.22-2.71-.35l-2.69-.36c-1.79-.24-3.6-.48-5.36-.73l-10.18-1.41q-4.14-.57-8.2-1.16l-4-.58-3.55-.53-8.63-1.29-1.4-.21-4.57-.7q-5.93-.9-11.71-1.84l-3.1-.5-2.37-.38-5.9-1-1.09-.17-1.71-.3-5.54-.94-5.44-.94-4.51-.8c-1.18-.21-2.35-.41-3.51-.63-.89-.16-1.77-.31-2.64-.48s-1.74-.31-2.61-.48q-6.5-1.18-12.75-2.41l-4.34-.85c-1.84-.36-3.67-.73-5.47-1.1L1063,2685l-5.08-1.07-2.32-.51-3.74-.83q-7-1.53-13.48-3.11l-2.17-.52-2.14-.53-3.23-.8c-.88-.22-1.76-.44-2.62-.67l-1.48-.37c-1.49-.38-3-.77-4.41-1.16l-3.81-1c-4.39-1.21-8.61-2.42-12.63-3.64-18.77-5.68-33.42-11.54-43.65-17.52a55.28,55.28,0,0,1-11.13-8.21c-.36-.34-.71-.7-1.06-1.07s-.83-.93-1.2-1.4a6.9,6.9,0,0,1-.53-.68h0c-.22-.29-.42-.57-.61-.86a13.67,13.67,0,0,1-.82-1.31c-.25-.43-.47-.88-.68-1.33a2.17,2.17,0,0,1-.15-.35l-.16-.34a6.5,6.5,0,0,1-.22-.62v-.08c-.06-.19-.12-.37-.17-.56a8.75,8.75,0,0,1-.23-.88,2.16,2.16,0,0,1-.1-.44.09.09,0,0,1,0-.07v-.33c0-.31-.09-.62-.11-.93s0-.69,0-1V2632a2.36,2.36,0,0,1,.06-.67h0a2,2,0,0,1,0-.35v-.1a.43.43,0,0,1,0-.16.8.8,0,0,1,.06-.37c.06-.12.09-.45.15-.66a3.62,3.62,0,0,1,.13-.47,1.45,1.45,0,0,1,.07-.26,4.92,4.92,0,0,1,.22-.64h0c.08-.23.16-.44.26-.67a13.77,13.77,0,0,1,.66-1.47c.14-.27.31-.56.46-.84s.35-.56.52-.85a24.82,24.82,0,0,1,1.86-2.58c.24-.27.47-.57.72-.86l.79-.86h0l.72-.75.91-.9h0c.65-.62,1.36-1.26,2.1-1.9s1.27-1.07,1.94-1.6c.29-.22.58-.44.86-.68.59-.44,1.2-.89,1.83-1.33,1.55-1.13,3.25-2.24,5-3.38.48-.29,1-.6,1.44-.9s1-.61,1.51-.89,1-.61,1.56-.91l.39-.22a2.24,2.24,0,0,1,.4-.22c.25-.16.54-.31.8-.45,1.08-.6,2.21-1.2,3.35-1.81l1.68-.86,2.74-1.38,2.88-1.38,1.45-.69,3-1.36c.51-.21,1-.45,1.55-.68,1.26-.56,2.53-1.12,3.85-1.67l1.52-.64,2.48-1,2-.85c.31-.11.62-.24.94-.37l1-.38c.24-.09.48-.19.73-.27s.5-.21.75-.3l2-.77,5.08-1.92c1.74-.63,3.5-1.29,5.31-1.92.87-.32,1.74-.62,2.62-.92l1-.35,1-.34,2.45-.84,2.48-.84,2.53-.85c.84-.28,1.7-.54,2.55-.84l2.92-.94h0c2-.62,4-1.27,6-1.9l6.18-1.9,6.38-1.89h0c1.07-.33,2.15-.64,3.25-1l1.46-.41,1.47-.42c1.07-.32,2.15-.62,3.24-.92.46-.14.91-.27,1.37-.39l1.36-.39,3.5-.95c.87-.25,1.74-.48,2.62-.72l1.88-.52,1.89-.52,2.51-.65,2.52-.67c.35-.09.69-.19,1-.27,3.08-.82,6.21-1.61,9.38-2.43l3.34-.85c4.6-1.15,9.32-2.31,14.13-3.46,2.8-.68,5.63-1.34,8.5-2l2.85-.68,3.34-.76h0l6.75-1.54,3.43-.77c.59-.14,1.19-.28,1.81-.4l.91-.21c.31-.08.61-.14.91-.2.77-.18,1.55-.34,2.32-.51l2.34-.52c3.31-.73,6.65-1.44,10-2.17l.57-.13c2.46-.51,4.93-1,7.43-1.55l4.42-.92q10-2.09,20.39-4.13l.65-.11,1.43-.3,2.1-.4c4.19-.81,8.42-1.64,12.7-2.45l2.15-.4,2.15-.41,4.32-.8,4.37-.82q13.78-2.55,28.18-5.05l4.82-.83c1.6-.29,3.22-.56,4.83-.84l7.5-1.28c1.55-.25,3.12-.53,4.7-.78s3.15-.53,4.73-.78l4.76-.79c2.67-.44,5.37-.89,8.08-1.32l5.32-.86q2.7-.42,5.4-.87c.91-.13,1.81-.27,2.72-.42l2.72-.44,4.93-.76,5-.78,10-1.51c1.69-.27,3.37-.52,5.07-.77l5.08-.76,3.82-.56,3.84-.57c2.57-.39,5.15-.76,7.75-1.13l12-1.73,4.15-.58,4.09-.58h.06l10-1.39c4.1-.56,8.24-1.14,12.41-1.7l6.26-.83,12.61-1.67c2.12-.27,4.24-.54,6.37-.83l9.61-1.22,9.69-1.22c4.32-.55,8.67-1.08,13-1.62l3.11-.39,3.14-.38c2.08-.25,4.18-.51,6.28-.75s4.21-.51,6.32-.75l6.37-.76,3.23-.37,3.25-.38c2.9-.35,5.83-.68,8.75-1l8.81-1q21.43-2.43,43.52-4.73c3-.33,6.06-.65,9.11-1l4.29-.44,2.14-.22,2.15-.22,3.38-.34,3.38-.34c4.51-.46,9.06-.91,13.61-1.35l6.17-.61h.67l2.22-.21,2.21-.22,4.46-.42q16.23-1.56,32.76-3c3.54-.34,7.1-.65,10.68-1l13.39-1.18,13.47-1.17,6.12-.5,6.14-.52L1690,2480l7.3-.58,3.65-.28c1.22-.1,2.44-.2,3.65-.28l17.58-1.33c1.12-.07,2.24-.16,3.36-.25s2.24-.18,3.35-.25l3.38-.25,3.38-.24q10.59-.78,21.26-1.53c2.37-.17,4.74-.34,7.12-.49l10.84-.74,4.29-.28c1.42-.1,2.84-.2,4.27-.27l6.9-.46,6.94-.45,13.8-.87h0l13.88-.85q10.6-.64,21.29-1.24l14.14-.8,3.71-.2,3.73-.21,7.45-.4,19.88-1h.92q14.39-.73,28.88-1.41,6.75-.32,13.52-.61l8.29-.38,11-.46,11-.47,6.41-.25,6.42-.27c5.54-.21,11.1-.43,16.68-.62l3.71-.13,3.7-.14,2-.07,12.88-.46,22.42-.73,7.49-.23,19.08-.55,13.81-.37,2.35-.06,2.49-.06c.7,0,1.37,0,2.06-.05l10.07-.25,6.6-.16,6.6-.14q11.67-.27,23.41-.48h0q15.27-.3,30.65-.53h1.62c4.62-.08,9.24-.15,13.89-.21l15.49-.18c3.33-.05,6.66-.08,10-.11H2211c4.15,0,8.31-.08,12.47-.12s8.29-.06,12.47-.08l11.69-.08h59c5.48,0,10.93,0,16.39.06h2.6c5.51,0,11,0,16.5.1l17.1.14h2.16c5.93.06,11.83.12,17.73.2q9.21.09,18.39.23t18.33.3q9.15.14,18.26.32c5.2.1,10.4.19,15.58.3l15.53.34,10.33.25c3.43.09,6.87.18,10.29.25l7.39.19,1.61.05h1.28l5,.13,6.23.17,9.2.28c1.5,0,3,.07,4.49.12l4.8.16h2.86l6.9.22h1.33l2.06.07,9.29.3c1.48,0,3,.1,4.44.15l3.08.11,1.37,0,4.66.17,5.44.19,4.07.15h1l4.19.14h1.06l5.25.2h.36l5.63.2,8.58.35,4.82.19,5.15.21,4.45.19,5.49.23c3.86.17,7.7.32,11.55.5l8.25.37c1.53.06,3,.14,4.57.21h.42l4.28.19,8.64.41h.26l11.3.55,2.8.14h.06l2.72.13,1.34.07,8,.41,4.6.23h.9l13.4.72c1.7.08,3.38.18,5.06.27l8.29.46,1.36.07h.35l5.88.33,5.71.33,5.89.33,4.15.24,3.17.19c1.18.08,2.38.15,3.55.21,3,.19,6.1.38,9.12.55l18.45,1.15h.84q4.22.26,8.42.54c.42,0,.85.06,1.27.07l9.07.6,9.34.63,6.08.41,1.72.12,1.5.1,9.26.64,2.53.19,3.59.25c1,.07,2.07.14,3.09.23l1.45.1,1.44.09,2.77.2,1.54.12,2,.14,3.9.29h0l2.46.18,5.95.45c2,.14,4,.28,5.93.44l.73.06h.28l2.5.19c1.85.15,3.71.28,5.56.42l7.23.56c2.47.21,4.94.4,7.4.59l2.06.16,1.16.09h.2l3.57.3,7.35.59,7,.57,8.9.74,8.84.74c5.64.48,11.25,1,16.84,1.46l11.44,1,11.38,1,11.3,1c3.18.29,6.36.58,9.53.89l16.92,1.62c2.35.23,4.7.45,7,.69l1.73.16,20.23,2,8.17.84,8.13.86c1.25.12,2.49.25,3.73.39a8.19,8.19,0,0,1,1.11.12l2.61.26,3.48.37c1.74.19,3.48.37,5.21.57l3.64.39,4.37.48,8,.87,7.93.89,7.87.89,4.64.53,4.62.52,9.07,1.06q18,2.11,35.59,4.29h0l3.39.42,4.08.51,7.39.94,3.79.48,1.78.23,7.65,1,3.41.45,5.49.72,7.27,1q14.51,2,28.61,3.93l14,2,6.92,1,6.89,1c4.57.67,9.11,1.36,13.6,2l2.33.35c1.38.2,2.74.42,4.11.63l7,1.07,6.62,1c2.21.34,4.4.68,6.58,1l.81.12,7.31,1.16,4.45.72.42.07,6.42,1q12.27,2,24.13,4.06c1.16.19,2.29.4,3.42.59l3.71.64,1.85.32,3.92.68c.37.07.74.15,1.11.2l1.09.2,6.2,1.11q5.25.93,10.4,1.88l3.42.63c1.31.24,2.6.47,3.88.72q9.13,1.7,18,3.41l3,.58,5.59,1.09q7.64,1.5,15.06,3,3.72.75,7.36,1.52c3.33.68,6.62,1.38,9.88,2.07l8.06,1.74,3.5.76c4.66,1,9.22,2,13.72,3.07q29.6,6.74,54.68,13.56,17.79,4.83,33.17,9.69C3596.05,2598.69,3627.69,2616.68,3627.69,2632.8Z" transform="translate(-837.54 -360.07)"/><path class="cls-11" d="M3450.49,2557.27c-27.68,27.32-92.94,55.95-200.94,82.85q-17.84,4.46-37.23,8.81c-193.55,43.61-504.66,81.57-956.43,100.14l-17.8.71c-4.4.18-8.84.36-13.28.52-33,1.28-65.52,6-97.84,8.8q-59.1-.66-116.54-1.8c-169.36-3.35-327-9.74-466.3-18.53-64.85-4.1-125.72-8.71-182-13.78q-28.74-2.59-55.83-5.34-10.07-1-19.89-2.07l-4.9-.52-1.83-.19-4.62-.5q-9.19-1-18.16-2l-7.16-.81-9.11-1.06-6.46-.77-5.5-.66-7.85-1h-.24q-15-1.86-29.19-3.76-13.55-1.8-26.43-3.66l-4-.58q-6.17-.9-12.18-1.82l-1.4-.21-4.57-.7q-5.93-.9-11.71-1.84l-5.48-.89-5.9-1-2.8-.47-5.54-.94-5.44-.94-4.51-.8c-1.18-.21-2.35-.41-3.51-.63-.89-.16-1.77-.31-2.64-.48s-1.74-.31-2.61-.48q-6.5-1.18-12.75-2.41l-4.34-.85c-1.84-.36-3.67-.73-5.47-1.1-2.42-.49-4.8-1-7.14-1.48l-5.08-1.07q-3.08-.66-6.06-1.34-7-1.53-13.48-3.11l-2.17-.52c-3.24-.78-6.39-1.58-9.47-2.37-1.49-.38-3-.77-4.41-1.16l-3.81-1c-4.39-1.21-8.61-2.42-12.63-3.64q17.4-6.3,36.94-12.76h0q25.71-8.51,55-17.28,17.33-5.16,35.83-10.38h0q6.27-1.77,12.67-3.54,23.76-6.6,49.31-13.25c177.79-46.22,419-93.69,694.56-130.49h0c64.23-8.58,130.33-16.57,197.91-23.84h.14c.7,0,1.37,0,2.06-.05,3.36-.08,6.72-.18,10.07-.25l6.6-.16,2.82-.06,3.78-.08q11.67-.27,23.41-.48h0q15.27-.3,30.65-.53h1.62c4.63-.09,9.24-.16,13.89-.21l15.49-.18c3.33-.05,6.66-.08,10-.11H2211c4.15,0,8.31-.08,12.47-.12s8.29-.06,12.47-.08l11.69-.08h59c5.48,0,10.93,0,16.39.06h2.6c5.51,0,11,.05,16.5.1l17.1.14h2.16q18.14.18,36.12.43,26.25.38,52.17.92,18.15.38,36.15.84l7.39.19,1.61,0,6.31.17,6.23.17,9.2.28c1.5,0,3,.07,4.49.12l6.11.19h1.55l8.23.26,2.06.07,9.3.31,4.43.14,3.08.11,1.37,0,4.66.17,5.44.19,4.07.15h1l4.19.14h.84l1.63.06c1.33,0,2.64.1,4,.15h.07c1.94.06,3.87.14,5.81.21l8.58.35c3.33.12,6.65.26,10,.4l4.45.19,5.49.23c3.86.17,7.7.32,11.55.5l8.25.37c1.53.06,3,.14,4.57.21h.42l4.28.19,8.64.41h.26l11.3.55,2.8.14h.06l6.9.35,5.14.26,4.6.23,14.3.76c1.7.08,3.38.18,5.06.27l8.29.46,1.36.07h.35l5.88.33,5.71.33,5.89.33,4.15.24,3.17.19c1.18.08,2.38.15,3.55.21,3,.19,6.1.38,9.12.55l18.45,1.15h.43c2.94.18,5.89.37,8.83.57.42,0,.85.06,1.27.07l9.07.6,9.34.63,6.08.41,1.72.12,1.5.1q5.92.4,11.79.83l3.59.25c1,.07,2.07.14,3.09.23l1.45.1,5.75.41,2,.14,3.9.29h0l4.81.35,3.6.28c2,.14,4,.28,5.93.44l.73.06h.28l2.5.19,20.19,1.57,2.06.16,1.16.09,3.77.31,7.35.59,7,.57,8.9.74,8.84.74c5.64.48,11.25.95,16.84,1.46l11.44,1,11.38,1,11.3,1c3.18.29,6.36.58,9.53.89l16.92,1.62c2.35.23,4.7.45,7,.69q11,1.08,22,2.2l8.17.84,8.13.86c1.25.12,2.49.25,3.73.39a8.19,8.19,0,0,1,1.11.12q5.67.59,11.3,1.2l3.64.39q6.18.66,12.32,1.35l7.93.89,7.87.89,4.64.53,4.62.52,9.07,1.06q18,2.11,35.59,4.29l3.43.43,4.08.51,11.18,1.42,1.78.23c2.56.33,5.12.65,7.65,1l3.41.45c4.28.56,8.53,1.11,12.76,1.68q14.5,2,28.61,3.93l14,2c4.63.66,9.24,1.34,13.81,2s9.11,1.36,13.6,2,9,1.36,13.41,2l6.62,1c2.21.34,4.4.68,6.58,1l.81.12,11.76,1.88.42.07,6.42,1q12.27,2,24.13,4.06l7.13,1.23,1.85.32,5,.88,1.09.2,6.2,1.11q5.25.93,10.4,1.88c2.44.45,4.88.89,7.3,1.35q9.13,1.7,18,3.41,12.07,2.34,23.61,4.69,3.72.75,7.36,1.52c3.33.68,6.62,1.38,9.88,2.07l8.06,1.74,3.5.76C3441.43,2555.22,3446,2556.25,3450.49,2557.27Z" transform="translate(-837.54 -360.07)"/><path class="cls-5" d="M3052,2547.71c0,70.25-600.57,127.21-1341.42,127.21-243.12,0-471.12-6.14-667.76-16.86q-36.54-2-71.61-4.19a31.63,31.63,0,0,1-20.12-8.77c-.36-.35-.71-.71-1.06-1.09s-.83-.92-1.2-1.38c-.19-.23-.36-.46-.54-.69h0c-.21-.29-.42-.57-.6-.86a13.67,13.67,0,0,1-.82-1.31c-.24-.43-.47-.88-.67-1.32l-.31-.7c-.08-.21-.17-.41-.23-.62v-.08c-.07-.2-.13-.37-.18-.56s-.17-.58-.23-.87a3.58,3.58,0,0,1-.09-.45.09.09,0,0,1,0-.07,1.88,1.88,0,0,1,0-.33,12.18,12.18,0,0,1-.17-2c0-.28,0-.55,0-.83a3.68,3.68,0,0,1,.06-.66h0a2.13,2.13,0,0,1,.07-.44v-.18a1.53,1.53,0,0,1,.07-.36,5.18,5.18,0,0,1,.14-.66,3.62,3.62,0,0,1,.13-.47.38.38,0,0,1,.07-.26,5.33,5.33,0,0,0,.22-.65h0c.08-.22.16-.45.26-.67a12.78,12.78,0,0,1,.66-1.46c.14-.28.3-.56.47-.85s.33-.56.51-.85a26.39,26.39,0,0,1,1.86-2.58l.72-.86.79-.86h0l.71-.75.91-.89c.67-.63,1.37-1.27,2.11-1.91s1.27-1.08,1.95-1.61c.28-.22.57-.44.86-.68.58-.44,1.19-.89,1.81-1.34q2.34-1.66,5.06-3.37c.48-.29,1-.6,1.44-.9s1-.61,1.5-.9,1-.6,1.56-.89l.8-.46c.25-.15.53-.3.8-.44,1.08-.61,2.2-1.2,3.35-1.81l1.68-.86,2.74-1.38,2.87-1.38,1.46-.68,3-1.37,1.55-.68c1.26-.56,2.53-1.12,3.85-1.67l1.52-.64c.81-.34,1.64-.69,2.48-1l2.06-.84,1.87-.75.74-.29.75-.29,2-.77,5.08-1.92c1.74-.63,3.51-1.28,5.31-1.92.86-.32,1.74-.62,2.62-.92l1.93-.68c.82-.29,1.63-.56,2.46-.84,1.64-.57,3.31-1.14,5-1.68.85-.29,1.7-.56,2.56-.84l2.91-1h0l6-1.9,6.18-1.89,6.37-1.9h0l3.26-.94c1-.3,1.94-.56,2.92-.84s2.15-.63,3.24-.93c.92-.26,1.82-.52,2.73-.76l3.5-1c.87-.25,1.74-.49,2.63-.72,1.24-.35,2.5-.69,3.77-1l5-1.34q5.13-1.35,10.43-2.71l3.33-.83q6.93-1.74,14.14-3.47c3.74-.9,7.52-1.8,11.38-2.68,4.42-1,8.93-2.06,13.51-3.09l1.81-.41,1.82-.39,2.32-.53,2.34-.51c3.31-.73,6.65-1.44,10-2.16l.58-.13,7.42-1.56,4.42-.92q10-2.07,20.39-4.11l2.09-.42,2.09-.41q6.29-1.23,12.71-2.45l4.29-.8,4.32-.81,4.37-.82q13.78-2.55,28.18-5l9.67-1.66,7.47-1.28,4.71-.79c1.57-.26,3.15-.54,4.73-.78l4.76-.79,8.08-1.32,5.32-.86,5.41-.86,5.43-.85,4.93-.78,5-.77c3.31-.51,6.65-1,10-1.53l10.14-1.51c2.54-.38,5.1-.77,7.66-1.14l7.74-1.13,12.05-1.72,8.29-1.17,10-1.4c4.11-.56,8.24-1.13,12.41-1.68l6.25-.84,12.63-1.67,6.35-.83c6.39-.81,12.83-1.64,19.31-2.44,4.32-.55,8.67-1.08,13-1.62l6.26-.76,6.29-.77,6.31-.74,6.37-.76c1.07-.11,2.15-.24,3.23-.37s2.17-.26,3.25-.37l8.75-1,8.81-1q21.43-2.43,43.52-4.74l9.11-1,4.28-.44c1.42-.14,2.87-.28,4.3-.44l3.38-.33,3.38-.35c4.51-.46,9.06-.91,13.61-1.35l6.17-.61h.66l4.44-.44,4.46-.42q16.23-1.54,32.76-3c3.54-.33,7.1-.64,10.68-1l13.39-1.18c4.47-.4,9-.77,13.47-1.15l12.25-1,21.73-1.76c2.44-.18,4.86-.38,7.29-.57l7.32-.57,17.57-1.33,6.73-.5,3.36-.25c1.13-.07,2.26-.17,3.38-.25l28.38-2c3.61-.26,7.22-.5,10.84-.74l4.29-.29,4.27-.28,6.91-.45,6.93-.44,13.8-.88h0l13.88-.85q10.61-.64,21.29-1.24l14.14-.79,3.72-.21,11.17-.61,19.89-1h.92q14.37-.74,28.86-1.41l21.82-1c7.31-.34,14.62-.63,22-.93,4.26-.17,8.54-.35,12.82-.51q8.31-.33,16.68-.63l3.71-.14,3.71-.14,2-.07c4.28-.16,8.58-.3,12.88-.45l22.41-.74,7.5-.23,19.08-.56,13.81-.36,4.7-.12h.16l2-.06,10.09-.24c4.39-.1,8.79-.21,13.19-.3q11.67-.27,23.41-.48h0q15.27-.3,30.65-.54l15.51-.22c5.16-.07,10.32-.12,15.49-.18,3.33-.05,6.66-.08,10-.11H2211c4.14,0,8.3-.08,12.46-.12l12.47-.08q12.11-.09,24.25-.13h26q75,0,147.93,1.4,15.61.28,31.12.65l10.33.24,10.29.26c3.44.09,6.86.17,10.28.27q10.26.27,20.46.58l4.49.13,4.8.15h1.61l8.16.26,1.31,0,20.25.67,4.66.17,5.44.19,10,.38,5.47.19h.35c1.89.06,3.76.13,5.64.21l8.58.33,4.82.2,5.15.21,4.46.19,5.48.23,11.54.5,8.26.37,5,.23,4.29.19,8.64.41,11.56.56,9.76.49,5.14.26,4.6.23h.89l13.42.71,5,.28,8.29.45,1.36.07h.34l5.89.33c1.91.12,3.8.22,5.7.32l5.91.34,4.14.25,3.17.18,3.55.21c3,.19,6.09.38,9.12.55l18.46,1.15.82.06c2.82.18,5.63.35,8.43.54l1.27.08,9.08.59,9.32.63,6.09.41,1.73.12,1.49.1,9.26.64,6.12.44,3.1.22c3.07.21,6.13.44,9.19.67l3.9.28,2.49.18,2.35.17c3.18.24,6.36.47,9.53.72a3,3,0,0,1,.73.06l2,.14,6.38.49,7.23.55,7.39.59,2.07.16c.38,0,.78.06,1.16.09a.67.67,0,0,0,.2,0l10.92.88,7,.57,8.88.73,8.85.75C3004,2505.15,3052,2527.84,3052,2547.71Z" transform="translate(-837.54 -360.07)"/><path class="cls-1" d="M1898.78,2505.17c0,36.46-78.39,69.33-204,92.51-116.46,21.51-273.53,34.69-446.34,34.69-39.17,0-77.55-.68-114.8-2-64.1-2.23-125-6.32-181.07-11.93.65-.62,1.36-1.26,2.1-1.91s1.27-1.07,1.94-1.6c.29-.22.58-.44.86-.68.59-.44,1.2-.89,1.83-1.33,1.55-1.13,3.25-2.24,5-3.38.48-.29,1-.6,1.44-.9s1-.61,1.51-.89,1-.61,1.56-.9c.25-.15.51-.31.79-.45s.54-.31.8-.45c1.08-.6,2.21-1.2,3.35-1.81l1.68-.86,2.74-1.38,2.88-1.38,1.45-.69,3-1.36c.51-.21,1-.45,1.55-.68,1.26-.56,2.53-1.12,3.85-1.67l1.52-.64,2.48-1,2-.85,1.89-.74c.24-.1.48-.2.73-.28s.5-.21.75-.3l2-.77,5.08-1.92c1.74-.63,3.5-1.29,5.31-1.92.87-.32,1.74-.62,2.62-.92.64-.24,1.29-.45,1.94-.68.81-.29,1.62-.56,2.45-.83q2.46-.87,5-1.7c.84-.29,1.7-.55,2.56-.83s1.94-.63,2.91-1h0c2-.62,4-1.27,6-1.9l6.18-1.9,6.38-1.89h0l3.26-1,2.92-.83c1.07-.31,2.15-.63,3.24-.93.92-.27,1.82-.52,2.73-.77l3.5-1c.87-.25,1.74-.48,2.62-.72l3.78-1,5-1.33c3.43-.9,6.89-1.79,10.43-2.7l3.34-.85c4.6-1.15,9.32-2.31,14.13-3.46,3.74-.9,7.52-1.8,11.38-2.69q6.63-1.55,13.51-3.08c.59-.14,1.19-.28,1.81-.4s1.22-.28,1.82-.41l2.32-.51,2.34-.52c3.31-.73,6.65-1.44,10-2.17l.57-.13c2.45-.5,4.93-1,7.43-1.55l4.42-.92c6.64-1.37,13.45-2.76,20.39-4.12.7-.13,1.4-.27,2.08-.42l2.1-.4c4.19-.81,8.42-1.64,12.7-2.45l4.3-.8,4.32-.81,4.37-.82q13.79-2.55,28.18-5.05l9.66-1.66,7.49-1.28,4.7-.79c1.57-.26,3.15-.53,4.73-.78l4.76-.79,8.08-1.32,5.32-.86,5.4-.87c1.81-.27,3.63-.55,5.44-.84l4.93-.78,5-.78,10-1.51c3.37-.52,6.75-1,10.15-1.52,2.54-.38,5.1-.77,7.66-1.14l7.75-1.13,12-1.73,8.3-1.16,10-1.39c4.1-.56,8.24-1.14,12.41-1.7l6.26-.83,12.61-1.67c2.12-.27,4.24-.54,6.37-.83l19.3-2.44c4.32-.55,8.67-1.08,13-1.62l6.25-.76,6.28-.76c2.1-.25,4.21-.51,6.32-.75l6.37-.76,3.23-.37c1.08-.13,2.18-.26,3.25-.37l8.75-1,8.81-1q21.43-2.43,43.52-4.73c3-.33,6.06-.65,9.11-1l4.29-.44,4.29-.43,3.38-.35,3.38-.34c4.51-.46,9.06-.91,13.61-1.35l6.17-.61h.67l4.43-.44,4.46-.42q16.23-1.56,32.76-3c3.54-.34,7.1-.65,10.68-1l13.39-1.18,13.47-1.16,12.26-1,21.72-1.76c2.44-.18,4.86-.38,7.3-.57l7.3-.57,17.58-1.33c2.25-.16,4.48-.34,6.73-.49,1.13-.1,2.25-.17,3.36-.26l3.38-.24q14.12-1,28.38-2c3.61-.26,7.22-.5,10.84-.74,1.42-.08,2.86-.19,4.29-.29s2.84-.2,4.27-.27l6.9-.46,6.94-.45,13.8-.87h0l13.88-.85q10.61-.65,21.29-1.24l14.14-.8,3.71-.2,11.18-.61h0a95,95,0,0,1,14.82,15.5h0a54.27,54.27,0,0,1,5.35,8.82A31.22,31.22,0,0,1,1898.78,2505.17Z" transform="translate(-837.54 -360.07)"/><path class="cls-12" d="M2278.5,2572.22c-125.13,0-244.79,1.34-354.87,3.79h0c-367.19,8.19-627.55,28.69-627.55,52.7,0,19.27,167.65,36.28,423.64,46.48,127.55-21.74,207.16-52.57,207.16-86.75a23.45,23.45,0,0,0-.7-5.59,23.45,23.45,0,0,1,.7,5.59c0,34.19-79.62,65-207.16,86.75,158.64,6.32,351.19,10,558.78,10,542.57,0,982.42-25.29,982.42-56.49S2821.07,2572.22,2278.5,2572.22Z" transform="translate(-837.54 -360.07)"/><path class="cls-13" d="M1965.93,1368.25l109.92,69.92c9.11-1.38,14.58-4,29.75-7.09,7.61-1.56,24.74-7,40.81-13.87,15.67-6.73,30.35-14.86,34.23-22.14,5.44-10.23,2.48-27.77-4.59-36.94l-12.92-16.77c-3.66-4.76-24.64-16.93-30.42-15.25-18.67,5.41-38.41-1-57.75-3a110.21,110.21,0,0,0-16.25-.41C2025.2,1324.09,1980.93,1338.51,1965.93,1368.25Z" transform="translate(-837.54 -360.07)"/><path class="cls-14" d="M2470.52,1412.75a64.45,64.45,0,0,0,15-14.62l189-256.15a59.11,59.11,0,0,0-11.26-82.83h0a59.1,59.1,0,0,0-82.82,11.25h0l-172.38,225a64.34,64.34,0,0,1-14.32,13.68l-175.86,122.55a64.49,64.49,0,0,0-18.28,86.31h0a64.48,64.48,0,0,0,88.55,21.74q1.76-1.07,3.45-2.25Z" transform="translate(-837.54 -360.07)"/><path class="cls-15" d="M2583.83,827.5a170.71,170.71,0,0,1-21.25-134.92c9.46-6,25.49,3.38,34.46,10.08a239.88,239.88,0,0,1,28.81,25.42c11,11.42,21.31,24.88,23.07,40.66,2.26,20.24-10,39.24-23.76,54.24-3.86,4.2-8,8.34-13.27,10.58S2586.92,832.29,2583.83,827.5Z" transform="translate(-837.54 -360.07)"/><path class="cls-14" d="M2582.82,1727.88l92.09,24.5a53.85,53.85,0,0,0,67.6-55.25l-38.06-637a51,51,0,0,0-43.41-47.39,354.89,354.89,0,0,0-202.72,224.74c-.68,2.19-1.32,4.37-1.94,6.58q-4.41,15.63-7.39,31.79l-34.33,186.25q-1.89,10.23-2.84,20.42c0,.51-.1,1-.14,1.54A231.58,231.58,0,0,0,2582.82,1727.88Z" transform="translate(-837.54 -360.07)"/><path d="M2284.49,2447.06c-2,2.89,20.7,89.15,20.7,89.15l-139.08-45.42,31.32-31Z" transform="translate(-837.54 -360.07)"/><polygon points="1603.38 2101.86 1589.1 2145.58 1554.35 2134.23 1560.6 2124.03 1554.65 2117.08 1568.93 2100.43 1603.38 2101.86"/><g id="c65_sport_shoes" data-name="c65 sport shoes"><path d="M2402.25,2557.87c3.63,1.19,6.21,3.46,5.69,5.08l-7.93,24.26c-.51,1.58-3.94,1.9-7.57.72l-278.27-90.87c-3.61-1.18-6.17-3.45-5.65-5l7.92-24.26c.53-1.61,3.93-1.94,7.54-.76Z" transform="translate(-837.54 -360.07)"/><path class="cls-16" d="M2315.38,2394.6c32.79,8.3,83.86,54.36,117,41.32a4.62,4.62,0,0,1,4.64.71c4.24,3.4,7.94,11.79,1.45,32.93l-3.15,9.64-32.54-10.63-5,15.39,32.54,10.63L2406,2569.1l-118-38.52-11.14-73.21-15.53-5.07,9.56,72.7-18.75-6.13-8.14-46.62-16.6-5.42,7.35,46.37-18.58-6.07-3.28-23.08-14.46-4.72,3.09,23-87-28.41s-13.06-40,25.06-38.18c0,0,101.13,17.54,175.85-41.13Z" transform="translate(-837.54 -360.07)"/></g><polygon class="cls-17" points="1447.76 2063.2 1599.71 2112.82 1615.11 2065.66 1873.62 1273.96 1648.5 1221.75 1473.56 1955.05 1447.76 2063.2"/><path class="cls-18" d="M2486,1581.82c30.48,64.25,68.91,105.6,102,131.64,40.65,32,37.09,84.72,37.09,84.72l-7.83,251.68a428.89,428.89,0,0,0,12.49,117l54.89,220.65,19,76.39,181.14-10.82L2873,2406l-64.13-256a300.28,300.28,0,0,1-8-98l35-417.92Z" transform="translate(-837.54 -360.07)"/><rect class="cls-19" x="2650.64" y="938.64" width="122.83" height="140.33" transform="translate(-892.89 -196.49) rotate(-3.42)"/><path class="cls-20" d="M2840.5,884.63a27.44,27.44,0,0,1-40.18,21.19,113.37,113.37,0,0,1-224.1-33.48l6.55-59.18,12.62-114.11,63,7L2792,720.8l28.81,3.19-6.3,56.91h0L2806.3,855a27,27,0,0,1,10-.74,6.83,6.83,0,0,1,.79.11l1,.16a4.45,4.45,0,0,1,.94.18l.94.21c.45.11.91.24,1.36.38a5.83,5.83,0,0,1,.71.22l.64.22c.3.1.59.22.88.33l.21.09c.68.28,1.35.58,2,.91a26.83,26.83,0,0,1,4.91,3.19h0l1,.88c.28.26.57.53.84.8a27.47,27.47,0,0,1,2,2.18c.07.09.15.18.21.27a2.51,2.51,0,0,1,.25.32A27.26,27.26,0,0,1,2840.5,884.63Z" transform="translate(-837.54 -360.07)"/><path class="cls-21" d="M2840.5,884.63a27.44,27.44,0,0,1-40.18,21.19,113.46,113.46,0,0,1-91.88,90.69,113.3,113.3,0,0,1-69.21-117.2l10.22-92.3,9-81h0L2792,720.8l28.81,3.19-6.3,56.91h0L2806.3,855a27,27,0,0,1,10-.74,6.83,6.83,0,0,1,.79.11l1,.16a4.45,4.45,0,0,1,.94.18l.94.21c.45.11.91.24,1.36.38a5.83,5.83,0,0,1,.71.22l.64.22c.3.1.59.22.88.33l.21.09c.68.28,1.35.58,2,.91a26.83,26.83,0,0,1,4.91,3.19h0l1,.88c.28.26.57.53.84.8a27.47,27.47,0,0,1,2,2.18c.07.09.15.18.21.27a2.51,2.51,0,0,1,.25.32A27.26,27.26,0,0,1,2840.5,884.63Z" transform="translate(-837.54 -360.07)"/><path class="cls-18" d="M2677.17,961.38h0c17.88,2,33.78-9.07,35.51-24.67l1.9-17.19-64.76-7.17-1.9,17.19C2646.19,945.15,2659.29,959.4,2677.17,961.38Z" transform="translate(-837.54 -360.07)"/><path class="cls-6" d="M2699.24,933.12l-35.78-4a10.63,10.63,0,0,1-9.44-11.7v0l.48-4.41h0l58.07,6.43h0l-.37,3.31A11.75,11.75,0,0,1,2699.24,933.12Z" transform="translate(-837.54 -360.07)"/><circle class="cls-18" cx="1771.99" cy="488.21" r="9.61"/><circle class="cls-18" cx="1870.29" cy="499.09" r="9.61"/><path class="cls-18" d="M2747.77,847a5,5,0,1,0,.29-10L2699,833.54a5,5,0,0,0-.7,10l49.11,3.45Z" transform="translate(-837.54 -360.07)"/><path class="cls-18" d="M2588.37,833.89h.49l37-1.69a5,5,0,0,0-.46-10h0l-37,1.69a5,5,0,0,0,0,10Z" transform="translate(-837.54 -360.07)"/><path class="cls-22" d="M2142.08,1390.72c16,41.17,77.17,45.92,118,36.5a118.1,118.1,0,0,0,16.55-5c19.26-7.55,37.69-19.74,58.38-19.49,6.4.09,24.47-18.33,26.88-24.26q4.26-10.42,8.5-20.87c4.65-11.41,2.72-30.23-5.75-39.18-6-6.37-23.41-10.56-41.39-13-18.44-2.51-37.55-3.22-45.8-2.66-24.24,1.64-50.09,4.79-73.63,11.14C2170.19,1322.94,2125.91,1349.18,2142.08,1390.72Z" transform="translate(-837.54 -360.07)"/><path class="cls-23" d="M2260.29,1428.18a119.4,119.4,0,0,0,16.68-5c19.41-7.62,38-19.89,58.83-19.64,6.45.08,24.66-18.48,27.09-24.45q4.29-10.5,8.57-21c4.69-11.5,2.74-30.46-5.8-39.48-6.1-6.42-23.59-10.64-41.71-13.12a121,121,0,0,0-42.65,31.23C2260,1361.43,2250.71,1397.1,2260.29,1428.18Z" transform="translate(-837.54 -360.07)"/><path class="cls-6" d="M2436.93,1525.31q2.09,10.31,5,20.65c15.17,53.6,46.58,88.7,98.57,108.18,31.14,11.66,68,16.65,109.85,14.15l207.51-12.4-33.64-563c-2-33.42-20.85-61.6-47.28-75.86a70.22,70.22,0,0,1-8.52,18,67.43,67.43,0,0,1-84.8,24.53c-13.83-6.41-19.49-16.78-29.87-26.6-5.72-5.42-2.45-10.33-10.65-11-4.56-.38-16.34,10.24-20.18,12.89a371.67,371.67,0,0,0-66.66,58.75c-47.28,52.92-75.84,117.69-92.79,185.84C2443.54,1359.59,2420.19,1442.39,2436.93,1525.31Z" transform="translate(-837.54 -360.07)"/><path class="cls-24" d="M2527.72,1486.83c50.17,16.92,105.29-2.7,135.7-50.15l134-227.28L2790,1084.86a61.1,61.1,0,0,0-9.23-4.78,63.45,63.45,0,0,0-71.56,16.11l-136.94,152.18q-4.41,15.63-7.39,31.8l-34.33,186.24C2529.3,1473.23,2528.36,1480.05,2527.72,1486.83Z" transform="translate(-837.54 -360.07)"/><path class="cls-2" d="M2497.66,1495.57c.35,5-.19,10.8-.95,18.07-5.09,48.73,15.35,101.68,43.79,140.5,31.14,11.66,68,16.65,109.85,14.15l173.9-10.39-26.8-448.5-134,227.28c-30.41,47.45-85.53,67.07-135.7,50.15.64-6.78,1.58-13.6,2.84-20.42l34.33-186.24q3-16.15,7.39-31.8l136.94-152.18a63.45,63.45,0,0,1,71.56-16.11,61.1,61.1,0,0,1,9.23,4.78l-.69-11.58a51,51,0,0,0-20.9-38.19,67.43,67.43,0,0,1-84.8,24.53,355,355,0,0,0-142.37,197.59q-1.74,6.15-3.26,12.4c-38.39,5.85-32.47-22-56.47-36.18A741.6,741.6,0,0,0,2429,1395.54c-10.14,50.4,20,48,51.7,73.4C2492.93,1478.8,2497,1485.79,2497.66,1495.57Z" transform="translate(-837.54 -360.07)"/><path class="cls-11" d="M2795,1756.41l-92.09-24.5a231.42,231.42,0,0,1-171.15-243.79l.15-1.54q1-10.18,2.84-20.42l.56-3,1.74-9.44,32-173.8q1.69-9.24,3.89-18.34c.27-1.16.55-2.3.84-3.45q1.24-5,2.65-10c.63-2.22,1.27-4.4,1.94-6.59a354.85,354.85,0,0,1,202.72-224.73,51,51,0,0,1,43.42,47.38l38.06,637a53.84,53.84,0,0,1-67.57,55.22Z" transform="translate(-837.54 -360.07)"/><path class="cls-14" d="M2816.82,1205.51l-6.71,18.07-118.74,319.34c-22.25,53.64-68.52,88.32-120.65,95a231.75,231.75,0,0,1-35.86-87.12c.17-32.69,1.09-64.86,2.22-97.09l32-173.8q1.7-9.24,3.89-18.34c5.86-5.78,11.77-11.33,16.82-16.86,28.1-30.8,45.46-69.62,67.66-104.9,19.22-30.56,60.07-86.17,102.06-76.83a79.68,79.68,0,0,1,12.82,4,84.2,84.2,0,0,1,12.63,6.42l.59.38c20,19.24,33.71,51.69,37,82.52C2824.46,1174.21,2822.83,1191.6,2816.82,1205.51Z" transform="translate(-837.54 -360.07)"/><path class="cls-11" d="M2605.86,1466.55A122,122,0,0,0,2739.53,1386L2822,1148.64a63.4,63.4,0,0,0-37.88-81.26h0a63.4,63.4,0,0,0-81.25,37.89h0l-72.51,199.17a49.63,49.63,0,0,1-53.26,32.21l-203.51-27.38a60.25,60.25,0,0,0-67.73,51.67h0a60.25,60.25,0,0,0,50.62,67.59Z" transform="translate(-837.54 -360.07)"/><path class="cls-19" d="M2811,870.66c-2.09,1.27-3.44,3.44-4.65,5.57-2.27,4-4.35,8.72-2.79,13,1.7,4.72,7.07,7,12,7.75s10.94-.06,13.15-4.5c-.65,1.31-5.69-4.61-6-5.31-1.83-4.1.94-6.29.68-10C2823,871.33,2817.06,867,2811,870.66Z" transform="translate(-837.54 -360.07)"/><path class="cls-25" d="M2684.67,2387.55l19,76.39,181.14-10.82L2873,2406A1115.3,1115.3,0,0,1,2684.67,2387.55Z" transform="translate(-837.54 -360.07)"/><polygon class="cls-26" points="1447.76 2063.2 1599.71 2112.82 1615.11 2065.66 1473.56 1955.05 1447.76 2063.2"/><path class="cls-20" d="M2814.48,780.9h0L2787.09,864l-17.65-49.33A34.37,34.37,0,0,0,2735.21,792a380.19,380.19,0,0,1-85.76-4.94c-32.6-5.65-52.12-13.5-54-12.71-3.45,1.47-13,41.64-12.71,38.86l12.62-114.11,63,7h0L2792,720.8Z" transform="translate(-837.54 -360.07)"/><path class="cls-14" d="M2857.35,774.94c-.06,1-.14,2.07-.23,3.11a.11.11,0,0,0,0,.08,10.32,10.32,0,0,1-.12,1.21,102,102,0,0,1-2.19,13l-.24,1a89.32,89.32,0,0,1-13.45,30,110.78,110.78,0,0,1-20.71,22.42c-1.47,1.22-13.32,11.28-22.5,17.1-6.58,4.16-11.79,6.14-10.82,1.14.48-2.52.25-6-.51-10.13-5.2-28.31-14.14-68.74-14.57-70.72v-.07c-.06-.31-.93-.65-2.43-1-2-.49-5.3-1-9.42-1.62h0c-26-3.65-86.37-8.54-93.42-9.42-23.82-3-54.68-8.17-77.7-21.75-16.79-9.92-29.44-24.31-32.14-45.62a65.55,65.55,0,0,1-.53-7c-.58-21.91,8.91-44.58,25-59.3,23.54-21.53,59.15-27.51,89.65-18.15,3.12,1,6.18,2,9.2,3.25,10.19,4,19.92,9.26,29.7,14.21a663.06,663.06,0,0,0,77.65,33.19A105,105,0,0,1,2857.35,774.94Z" transform="translate(-837.54 -360.07)"/><path class="cls-15" d="M2857,779.34a102,102,0,0,1-2.19,13l-.24,1a89.32,89.32,0,0,1-13.45,30,110.78,110.78,0,0,1-20.71,22.42c-1.47,1.22-13.32,11.28-22.5,17.1-6.58,4.16-11.79,6.14-10.82,1.14.48-2.52.25-6-.51-10.13-5.2-28.31-14.14-68.74-14.57-70.72C2772,783.21,2853.44,796.68,2857,779.34Z" transform="translate(-837.54 -360.07)"/><path class="cls-27" d="M2680.15,622.54c-25,4.93-49.75,11.15-72.75,22.33-13.17,6.41-39,29.45-51.09,51.87-.58-21.91,8.91-44.58,25-59.3,23.54-21.53,59.15-27.51,89.65-18.15C2674.07,620.24,2677.13,621.34,2680.15,622.54Z" transform="translate(-837.54 -360.07)"/><path class="cls-11" d="M2779.31,1024.15l-89.47,45.31-1.19-2.36a50.37,50.37,0,0,1,22.17-67.71h0L2772,975.71Z" transform="translate(-837.54 -360.07)"/><path class="cls-11" d="M2620.28,1039.07l36.79,33.09,1.71-2a50.4,50.4,0,0,0-5.92-71l-9.09-10.28-24.91,29.51A14.91,14.91,0,0,0,2620.28,1039.07Z" transform="translate(-837.54 -360.07)"/><path class="cls-17" d="M2697.19,1023l30.81,4.13h0l-7.26,54.21h0l-30.81-4.13a23.57,23.57,0,0,1-20.23-26.49h0l1-7.45a23.56,23.56,0,0,1,26.45-20.27Z" transform="translate(-837.54 -360.07)"/><path class="cls-17" d="M2644.21,1071.12l-30.8-4.13h0l7.26-54.17h0l30.8,4.12a23.57,23.57,0,0,1,20.23,26.49h0l-1,7.45a23.58,23.58,0,0,1-26.49,20.24Z" transform="translate(-837.54 -360.07)"/><rect class="cls-11" x="877.36" y="784.75" width="610.07" height="398.2" rx="56.45"/><rect class="cls-5" x="857.23" y="784.75" width="610.07" height="398.2" rx="54.46"/><path class="cls-5" d="M2168.48,1543H1806.73a4.28,4.28,0,0,1-4.28-4.28h0V1298.38a4.28,4.28,0,0,1,4.28-4.28H2108a64.75,64.75,0,0,1,64.74,64.74v179.9a4.28,4.28,0,0,1-4.28,4.28Z" transform="translate(-837.54 -360.07)"/><path class="cls-11" d="M2149.32,1543H1843.45a60.15,60.15,0,0,1-60.16-60.16v-128.6a60.15,60.15,0,0,1,60.16-60.16h249.13a61,61,0,0,1,61,61h0v183.64a4.28,4.28,0,0,1-4.28,4.28h0Z" transform="translate(-837.54 -360.07)"/><path class="cls-11" d="M2007.34,1654.6H1898.9V1513.75a84.76,84.76,0,0,1,84.76-84.76h23.68V1654.6Z" transform="translate(-837.54 -360.07)"/><path class="cls-5" d="M1977.27,1654.6h30.07V1429h0a30.07,30.07,0,0,0-30.07,30.07Z" transform="translate(-837.54 -360.07)"/><rect class="cls-14" x="1238.12" y="1306.75" width="428.01" height="21.2" rx="8.28"/><path class="cls-14" d="M2483.89,1666.83h-25.14v-2.7a9.66,9.66,0,0,1,9.66-9.66h5.83a9.67,9.67,0,0,1,9.66,9.66v2.7Z" transform="translate(-837.54 -360.07)"/><path class="cls-14" d="M2442.32,1666.83h-25.14v-2.7a9.67,9.67,0,0,1,9.66-9.66h5.83a9.66,9.66,0,0,1,9.66,9.66v2.7h0Z" transform="translate(-837.54 -360.07)"/><path class="cls-28" d="M2400.75,1666.83h-25.14v-2.7a9.67,9.67,0,0,1,9.66-9.66h5.83a9.66,9.66,0,0,1,9.66,9.66v2.7Z" transform="translate(-837.54 -360.07)"/><path class="cls-14" d="M2359.17,1666.83H2235.6v-12.35h113.91a9.67,9.67,0,0,1,9.66,9.66v2.7Z" transform="translate(-837.54 -360.07)"/><rect class="cls-14" x="977.1" y="1294.4" width="428.01" height="33.55"/><rect class="cls-11" x="914.92" y="1294.4" width="428.01" height="33.55" rx="13.11"/><path class="cls-29" d="M3111.64,1722.59l-144.5,644.29-45.51,202.95a32.4,32.4,0,0,1-32.35,30.51h-1381a32.38,32.38,0,0,1-32.37-31.47l-19.24-87.36L1322,1869.82l-32.62-148.19a32.4,32.4,0,0,1,31.46-33.3H3079.31a32.41,32.41,0,0,1,32.38,32.46C3111.69,1721.38,3111.67,1722,3111.64,1722.59Z" transform="translate(-837.54 -360.07)"/><path class="cls-30" d="M3111.64,1722.59l-144.5,644.29c-55.85-160.33-65.67-336.73-26.31-502a882.17,882.17,0,0,1,62.7-176.59h75.78a32.42,32.42,0,0,1,32.38,32.46C3111.69,1721.36,3111.68,1722,3111.64,1722.59Z" transform="translate(-837.54 -360.07)"/><path class="cls-30" d="M2659.31,1822.22,2627.72,1984c-.51,3.27-7.73,5.82-16.46,5.82H1786.7c-8.93,0-16.23-2.66-16.48-6L1731.94,1822c-.26-3.48,7.19-6.36,16.48-6.36h894.43C2652.32,1815.68,2659.85,1818.67,2659.31,1822.22Z" transform="translate(-837.54 -360.07)"/><rect class="cls-30" x="1875.29" y="1328.25" width="17.14" height="912.02"/><path class="cls-30" d="M2134.31,2600.34h-573.1c-20.62-19.63-40.28-40.28-58.91-61.74q-23.92-27.55-45.66-57.09L1322,1869.82c18.13-65,47-127,85.72-181.5H1676.1c2.77,33.12,5.78,66.28,12.57,98.37,30.08,142.07,82.72,279,151.73,406.66C1920.21,2341,2021.1,2476.07,2134.31,2600.34Z" transform="translate(-837.54 -360.07)"/><rect class="cls-30" x="823.78" y="1328.25" width="17.14" height="912.02"/><path class="cls-6" d="M1809,1853.86a2.77,2.77,0,0,1,2.74-2.8H1854a31.1,31.1,0,0,1,12.48,2.51,33.91,33.91,0,0,1,10.26,6.79,31,31,0,0,1,6.93,10,30.56,30.56,0,0,1,2.51,12.4,28.12,28.12,0,0,1-1.62,9.66,31.65,31.65,0,0,1-4.5,8.35,36,36,0,0,1-11.16,9.66,5,5,0,0,0-2,6.78v0l17.71,32.84a3.12,3.12,0,0,1,.07,2.88,2.56,2.56,0,0,1-2.58,1.4h-15.5a2.39,2.39,0,0,1-1.55-.44h0a4.51,4.51,0,0,1-1.08-1.44l-18-35.79a5,5,0,0,0-4.48-2.77h-8.27a5,5,0,0,0-5,5v32.63a2.68,2.68,0,0,1-.81,2,2.73,2.73,0,0,1-2,.81h-13.58a2.77,2.77,0,0,1-2.8-2.74v-.06Zm43.4,44.29a13.47,13.47,0,0,0,5.6-1.15,14.67,14.67,0,0,0,4.65-3.25,16,16,0,0,0,3.17-4.8,14.61,14.61,0,0,0,1.18-5.83,13.23,13.23,0,0,0-1.18-5.54,15.55,15.55,0,0,0-3.17-4.57,14.51,14.51,0,0,0-10.26-4.21h-19.05a5,5,0,0,0-5,5v19.34a5,5,0,0,0,5,5Z" transform="translate(-837.54 -360.07)"/><path class="cls-6" d="M1906.45,1853.86a2.77,2.77,0,0,1,2.74-2.8h60.14a2.77,2.77,0,0,1,2.81,2.73V1866a2.69,2.69,0,0,1-.81,2,2.77,2.77,0,0,1-2,.81h-38.67a5,5,0,0,0-5,5V1888a5,5,0,0,0,5,5h31.44a2.69,2.69,0,0,1,2,.81,2.78,2.78,0,0,1,.82,2V1908a2.77,2.77,0,0,1-2.76,2.8h-31.49a5,5,0,0,0-5,5v15.8a5,5,0,0,0,5,5h38.67a2.77,2.77,0,0,1,2.81,2.73v12.18a2.69,2.69,0,0,1-.81,2,2.73,2.73,0,0,1-2,.81h-60.08a2.77,2.77,0,0,1-2.8-2.74v-97.72Z" transform="translate(-837.54 -360.07)"/><path class="cls-6" d="M1983.8,1902.87a51.87,51.87,0,0,1,4.21-20.81,52.87,52.87,0,0,1,28.27-28.27,55.48,55.48,0,0,1,40.52-.74,54.75,54.75,0,0,1,16,10.26c1.47,1.38,1.51,2.76.14,4.13l-9,9.3q-1.77,1.92-3.69,0a35.54,35.54,0,0,0-10.63-6.42,33.41,33.41,0,0,0-12.1-2.29,31.64,31.64,0,0,0-23.55,10.19,35.53,35.53,0,0,0-6.86,11,35.16,35.16,0,0,0-2.51,13.21,34.58,34.58,0,0,0,2.51,13.14,34.06,34.06,0,0,0,6.93,10.85,33.21,33.21,0,0,0,10.48,7.38,31.63,31.63,0,0,0,13.14,2.73,32.16,32.16,0,0,0,12.26-2.29,40.66,40.66,0,0,0,10.33-6.12,2.9,2.9,0,0,1,1.92-.74,2.4,2.4,0,0,1,1.77.74l9.15,9.44a2.12,2.12,0,0,1,.74,2,3.2,3.2,0,0,1-.89,2,47.73,47.73,0,0,1-16.75,10.85,54.05,54.05,0,0,1-19.12,3.47,53.27,53.27,0,0,1-37.72-15.43,53.94,53.94,0,0,1-11.36-16.83A51.4,51.4,0,0,1,1983.8,1902.87Z" transform="translate(-837.54 -360.07)"/><path class="cls-6" d="M2091.42,1853.86a2.77,2.77,0,0,1,2.74-2.8h60.14a2.77,2.77,0,0,1,2.81,2.73V1866a2.69,2.69,0,0,1-.81,2,2.77,2.77,0,0,1-2,.81h-38.67a5,5,0,0,0-5,5V1888a5,5,0,0,0,5,5h31.44a2.69,2.69,0,0,1,2,.81,2.73,2.73,0,0,1,.81,2V1908a2.77,2.77,0,0,1-2.74,2.8h-31.5a5,5,0,0,0-5,5v15.8a5,5,0,0,0,5,5h38.67a2.77,2.77,0,0,1,2.81,2.73v12.18a2.69,2.69,0,0,1-.81,2,2.73,2.73,0,0,1-2,.81h-60.08a2.77,2.77,0,0,1-2.8-2.74v-97.72Z" transform="translate(-837.54 -360.07)"/><path class="cls-6" d="M2176.45,1853.86a2.77,2.77,0,0,1,2.74-2.8h34.75a32.37,32.37,0,0,1,12.84,2.58,33.85,33.85,0,0,1,10.56,7,32.38,32.38,0,0,1,7.08,10.41,31.3,31.3,0,0,1,2.59,12.62,32,32,0,0,1-2.59,12.92,34.22,34.22,0,0,1-7.08,10.55,32.63,32.63,0,0,1-10.48,7.16,31.67,31.67,0,0,1-12.77,2.59h-13.44a5,5,0,0,0-5,5v29.68a2.77,2.77,0,0,1-2.76,2.8h-13.63a2.77,2.77,0,0,1-2.81-2.81Zm36.9,45a14.28,14.28,0,0,0,5.76-1.18,14.63,14.63,0,0,0,7.75-8.12,16.3,16.3,0,0,0,1.1-6.06,14.2,14.2,0,0,0-1.1-5.68,13.68,13.68,0,0,0-3.1-4.5,15,15,0,0,0-4.65-3,14.8,14.8,0,0,0-5.76-1.11h-12.7a5,5,0,0,0-5,5v19.64a5,5,0,0,0,5,5Z" transform="translate(-837.54 -360.07)"/><path class="cls-6" d="M2280.07,1873.79a5,5,0,0,0-5-5H2257.5a2.77,2.77,0,0,1-2.81-2.73v-12.18a2.77,2.77,0,0,1,2.74-2.8H2322a2.77,2.77,0,0,1,2.8,2.74V1866a2.77,2.77,0,0,1-2.74,2.8h-17.63a5,5,0,0,0-5,5v77.8a2.77,2.77,0,0,1-2.74,2.8H2282.9a2.78,2.78,0,0,1-2.82-2.81Z" transform="translate(-837.54 -360.07)"/><path class="cls-6" d="M2341.19,1853.86a2.77,2.77,0,0,1,2.74-2.8h13.79a2.77,2.77,0,0,1,2.81,2.75v97.78a2.77,2.77,0,0,1-2.76,2.8H2344a2.77,2.77,0,0,1-2.8-2.74v-97.79Z" transform="translate(-837.54 -360.07)"/><path class="cls-6" d="M2379.57,1902.87a53.18,53.18,0,0,1,15.43-37.72,54,54,0,0,1,16.82-11.36,53.25,53.25,0,0,1,41.49,0,54.94,54.94,0,0,1,16.9,11.36,53.19,53.19,0,0,1,.07,75.22l-.07.07a53.53,53.53,0,0,1-58.39,11.29,52.7,52.7,0,0,1-32.25-48.86Zm19.19,0a33,33,0,0,0,2.66,13.14,33.79,33.79,0,0,0,44.27,18,34.94,34.94,0,0,0,10.85-7.23,33.65,33.65,0,0,0,7.31-37.06,34.32,34.32,0,0,0-7.31-10.85,35.15,35.15,0,0,0-10.85-7.38,33,33,0,0,0-26.27,0,34.39,34.39,0,0,0-10.78,7.38,34.94,34.94,0,0,0-7.23,10.85A33.19,33.19,0,0,0,2398.76,1902.87Z" transform="translate(-837.54 -360.07)"/><path class="cls-6" d="M2504.75,1852.24a2.46,2.46,0,0,1,.81-1.92,2.89,2.89,0,0,1,2-.74h2.21a3.46,3.46,0,0,1,2.51,1l60.23,64.22h.3v-61a2.77,2.77,0,0,1,2.74-2.8h13.64a2.77,2.77,0,0,1,2.81,2.75v99.4a2.5,2.5,0,0,1-.82,1.92,2.84,2.84,0,0,1-2,.74h-2.07a3.44,3.44,0,0,1-2.5-1l-60.53-66.73h-.3v63.48a2.77,2.77,0,0,1-2.74,2.8h-13.49a2.77,2.77,0,0,1-2.81-2.73v-99.39Z" transform="translate(-837.54 -360.07)"/><polygon class="cls-31" points="1286.23 1328.26 1632.17 2240.27 1893.48 2240.27 1571.53 1328.26 1286.23 1328.26"/><polygon class="cls-31" points="708.27 1328.26 1095.61 2240.27 1456.99 2240.27 1102.87 1328.26 708.27 1328.26"/><path class="cls-6" d="M2711.34,1688.26h-186.1a93,93,0,0,1,86.78-92.82v-18.81a6.28,6.28,0,0,1,12.55,0v18.81a93,93,0,0,1,86.78,92.82Z" transform="translate(-837.54 -360.07)"/><path class="cls-32" d="M2711.34,1688.18H2563.79a319.12,319.12,0,0,1,17.21-28.34,294.65,294.65,0,0,1,57.29-62.4A92.79,92.79,0,0,1,2711.34,1688.18Z" transform="translate(-837.54 -360.07)"/><path class="cls-33" d="M2711.34,1688.18H2611.29a287.21,287.21,0,0,1,49.65-27.55,395.6,395.6,0,0,1,40.18-14.85A92.49,92.49,0,0,1,2711.34,1688.18Z" transform="translate(-837.54 -360.07)"/><path class="cls-5" d="M2742.8,1475.54S2693,1311.47,2806.12,1238l110.47,57s-112.28,90.35-85.16,178.88S2742.8,1475.54,2742.8,1475.54Z" transform="translate(-837.54 -360.07)"/><path class="cls-1" d="M2755.23,1464.72s.43-171.46,130.09-208.56l88.94,86.83s-133.81,53.51-133.81,146.1S2755.23,1464.72,2755.23,1464.72Z" transform="translate(-837.54 -360.07)"/><path class="cls-6" d="M2854.14,1442v205.11a41.15,41.15,0,0,1-41.13,41.13h-45.72a41.14,41.14,0,0,1-41.14-41.13V1442Z" transform="translate(-837.54 -360.07)"/><path class="cls-1" d="M2854.14,1496.33v150.8a41.15,41.15,0,0,1-41.13,41.13h-45.72a41.14,41.14,0,0,1-41.14-41.13V1590.3c24.06-7.46,47.22-17.13,68.17-31.06A198.83,198.83,0,0,0,2854.14,1496.33Z" transform="translate(-837.54 -360.07)"/><path class="cls-5" d="M3023.8,1487.7v36.88a70.36,70.36,0,0,1-7.87,1.61c-23.44,3.53-56.72-1-56.72-1a281.18,281.18,0,0,1-48.76-66.46c-2.78-5.33-5.44-10.89-7.87-16.66-15-35.54-21.92-78.76-.84-122l104.89-3.52s-2.74,7.48-5.86,19.54c-6.31,24.54-14.2,68-3.79,106,.61,2.21,1.27,4.39,2,6.53,4.76,14.14,12.33,27.3,23.76,38.14Z" transform="translate(-837.54 -360.07)"/><path class="cls-1" d="M2937.36,1531s-74.32-129.09,3.53-211.4l102.27,28s-73.71,96.38-33.41,166S2937.36,1531,2937.36,1531Z" transform="translate(-837.54 -360.07)"/><path class="cls-6" d="M3023.8,1442v205.11a41.14,41.14,0,0,1-41.15,41.13h-45.71a41.12,41.12,0,0,1-41.13-41.13V1442Z" transform="translate(-837.54 -360.07)"/><path class="cls-5" d="M3023.8,1526.9v120.23a41.14,41.14,0,0,1-41.15,41.13h-45.71a41.12,41.12,0,0,1-41.13-41.13V1640a433.69,433.69,0,0,0,128-113.08Z" transform="translate(-837.54 -360.07)"/><path class="cls-33" d="M1480,679.72a66.49,66.49,0,0,1-33.28,57.69l-142.33,82.18a66.55,66.55,0,0,1-90.89-24.36c-1.1-1.9-2.08-3.84-3-5.8a66.52,66.52,0,0,1,27.33-85.09L1335.51,648l44.66-25.79A66.55,66.55,0,0,1,1480,679.72Z" transform="translate(-837.54 -360.07)"/><path class="cls-34" d="M1546,689.55l-4.4,3.21-4.1,3c-17.08,12.32-35.58,25.08-55.23,38.08-25.47,16.86-52.86,34.13-81.61,51.35-39.4,23.58-77.56,44.8-112.79,63-13.52,7-26.61,13.47-39.17,19.5-6.65,3.19-13.17,6.25-19.51,9.16l-2,.89c-72.42,33-123.22,47-130.75,33C1088,895,1136,848.11,1214.67,791.2q7.72-5.6,15.84-11.31c14.2-10,29.27-20.28,45.08-30.7,24.72-16.31,51.21-33,79-49.6C1380,684.35,1405,670.1,1428.92,657q8.77-4.79,17.36-9.35,13-6.92,25.46-13.28c101.44-51.88,177.62-77.7,187-60.33C1667,589.36,1621.33,634.44,1546,689.55Z" transform="translate(-837.54 -360.07)"/><path class="cls-20" d="M1399.68,2043.76l52,545.22L1640,2563.7l-22.32-17.7a184.44,184.44,0,0,1-69.5-152.23l18.45-432.34Z" transform="translate(-837.54 -360.07)"/><path d="M1448.68,2626.1l63.08-.3c2.34,0,4.22-3.28,4.2-7.28l-.11-22.9c0-2-.93-3.61-2.08-3.7-25.92-2-50.65-5.88-66.55-17.41-1.45-1.05-3,.74-3,3.42l.19,40.94C1444.42,2622.87,1446.33,2626.12,1448.68,2626.1Z" transform="translate(-837.54 -360.07)"/><path class="cls-33" d="M1443.47,2589c15.08,8.94,45.32,11.08,71.62,12.16l5.83.23c37.64,1.41,54.72,26.77,103.49,26.54s108.51-31.78,108.51-31.78c-.05-11.83-11.08-20.12-32.55-20h-2c-2.78.07-5.45.13-8,.14-18.59.09-32.6-2-50.34-12.59-18.2-10.89-30.87-36-39.77-36a4.54,4.54,0,0,0-2.8,1c-7.57,5.65-10.19,19.64-10.83,23.9h.17l1.45,14.18-3.22-.54c-4.86-.81-103.47-17.63-140.88-46a2.15,2.15,0,0,0-3,.43,2,2,0,0,0-.2.31c-6.43,12.68-7.12,34.75-7,53.84C1433.89,2580.86,1437.5,2585.45,1443.47,2589Z" transform="translate(-837.54 -360.07)"/><path class="cls-21" d="M1287.72,2043.76l9.86,103.27,42.17,442,188.3-25.28L1505.71,2546a184.46,184.46,0,0,1-69.49-152.23l8.33-195.12,7.61-178.17,2.52-59-86.08,42.46Z" transform="translate(-837.54 -360.07)"/><path d="M1336.72,2626.1l63.08-.3c2.34,0,4.22-3.28,4.2-7.28l-.11-22.9c0-2-.92-3.61-2.08-3.7-25.91-2-50.65-5.88-66.55-17.41-1.44-1.05-3,.74-3,3.42l.2,40.94C1332.46,2622.87,1334.38,2626.12,1336.72,2626.1Z" transform="translate(-837.54 -360.07)"/><path class="cls-34" d="M1331.51,2589c15.09,8.94,45.32,11.08,71.62,12.16l5.83.23c37.65,1.41,54.73,26.77,103.5,26.54s108.54-31.8,108.54-31.8c-.06-11.83-11.09-20.12-32.56-20h-2c-2.78.07-5.45.13-8,.14-18.58.09-32.6-2-50.33-12.59-18.21-10.89-30.88-36-39.78-36a4.49,4.49,0,0,0-2.79,1c-7.58,5.65-10.2,19.64-10.84,23.9h.17l1.45,14.18-3.22-.54c-4.85-.81-103.47-17.63-140.88-46a2.15,2.15,0,0,0-3.21.74c-6.44,12.68-7.13,34.75-7,53.84C1321.93,2580.86,1325.55,2585.45,1331.51,2589Z" transform="translate(-837.54 -360.07)"/><g class="cls-35"><path class="cls-20" d="M1287.72,2043.76l9.86,103.27a375.14,375.14,0,0,0,77.85,34.86,512.42,512.42,0,0,0,69.12,16.72l7.61-178.17a210.36,210.36,0,0,0-37.45-11.54,248.09,248.09,0,0,0-46.11-5Z" transform="translate(-837.54 -360.07)"/></g><path class="cls-20" d="M2006.31,1112.34c-.69,50.48-43.84,78.52-77.4,108.94-16.57,15-25.12,34.5-39.18,51.82-51.72,63.69-98.37,132.12-160.51,186.62q-5,4.42-10.21,8.72c-36.67,30.39-79.78,40.2-118.43,31.24-31.55-7.3-60.13-27.11-79.82-58.4-43.8-69.65-41.54-189.32-60.51-267.63-8.68-35.79,2.55-48.45,21-71.52,7.47-9.32,18.57-10.26,28.52-14.78,3.35-1.53,7.42-1.95,11.15-2.16,34.36-2,65,13.07,77.55,47.52,5.5,15,12.17,38.4,17.42,54.22,1.68,5.07,2.76,7.53,3.78,12.17a152.22,152.22,0,0,0,4.69,16.51c5.77,17,13.68,33.62,18,51,7.42,30,11.61,61.3,18.91,91.87-2.44-10.21,45.94-46.72,52.94-54.1.54-.56,1.07-1.13,1.59-1.68,32.16-33.72,67.07-63.9,99.79-96.62,19.37-20.71,31.17-45.81,41.75-71.81,8.64-21.23,30-37.09,48.79-49.59,34.6-22.94,84.07-36.84,98.91,14.86C2006.37,1104.25,2006.38,1107.29,2006.31,1112.34Z" transform="translate(-837.54 -360.07)"/><path class="cls-19" d="M1729.22,1459.72q-5,4.42-10.21,8.72c-36.67,30.39-79.78,40.2-118.43,31.24-23.35-56.2-20.55-120.61-8.68-180.6,7-35.34,17.39-70.7,32.48-103.47,5.77,17,13.68,33.62,18,51,7.42,30,11.61,61.3,18.91,91.87-2.44-10.21,45.94-46.72,52.94-54.1.54-.56,1.07-1.13,1.59-1.68A1181.28,1181.28,0,0,0,1729.22,1459.72Z" transform="translate(-837.54 -360.07)"/><path class="cls-14" d="M1539.23,858.12h0c-16.89,11.38-33.54,23.12-50,35q-6.46,4.68-12.9,9.4c-19.49,14.26-41.16,28-58.56,44.76-31.14,30-49,46-85.06,34.71a145.56,145.56,0,0,1-20.49-8.32,154.53,154.53,0,0,1-16.41-9.23C1270.13,948,1249.11,924,1237.06,896a136.78,136.78,0,0,1-7-20.43c-.31-1.24-.63-2.47-.92-3.71a195.69,195.69,0,0,1-4.3-25.9,211.23,211.23,0,0,1-.45-34.21,4.7,4.7,0,0,1,1.94-3.48q6.89-5,14.06-10,7.75-5.47,15.85-11,14.13-9.72,29.22-19.67,17.34-11.45,35.8-23.07,21-13.24,43.19-26.53c25.45-15.24,50.38-29.49,74.35-42.57q8.78-4.78,17.36-9.36l.26-.13a54.21,54.21,0,0,1,55.38,2.71c.89.59,1.78,1.18,2.65,1.79,2.21,1.51,4.33,3.07,6.37,4.63a109.13,109.13,0,0,1,16.64,15.8c1.71,2,3.36,4.09,4.92,6.25a152.12,152.12,0,0,1,9,14C1577.46,756.75,1587.61,825.53,1539.23,858.12Z" transform="translate(-837.54 -360.07)"/><path class="cls-24" d="M1416.65,1162.14c5,15.08,107.48,66,193.51,103a1070.55,1070.55,0,0,1-57.4-165.86l-96-47S1408.2,1136.81,1416.65,1162.14Z" transform="translate(-837.54 -360.07)"/><path class="cls-33" d="M1327.52,1049.32a103.4,103.4,0,0,0,160.93,3.77,72.28,72.28,0,0,0-55.17-20.5l-36.12,2.25A248.8,248.8,0,0,0,1327.52,1049.32Z" transform="translate(-837.54 -360.07)"/><rect class="cls-19" x="515.31" y="669.9" width="114.85" height="114.85"/><path class="cls-32" d="M1527.93,2066.56H1254.41L1272.56,1715v-.21l5.61-108.42L1287,1436.3l4.47-86.47,4.25-81.95,7.64-147.84,1.16-22.69a72.13,72.13,0,0,1,21.75-48.11,106,106,0,0,0,11.51,11.61q3,2.54,6,4.82a103.39,103.39,0,0,0,143.37-20.19,248.6,248.6,0,0,1,163.43,230l2.61,180,5.34,368.3.23,16.43,1.33,92.25a132.2,132.2,0,0,1-130.27,134.09Z" transform="translate(-837.54 -360.07)"/><path class="cls-20" d="M1543.65,807.63l-14,159.54a104.15,104.15,0,0,1-207.9-10.24,25.2,25.2,0,1,1,3.79-46.78l10.57-120.69Z" transform="translate(-837.54 -360.07)"/><path class="cls-15" d="M1514.45,670.41a300.82,300.82,0,0,0-72.36,36.45,306.61,306.61,0,0,0-53.32,46.28c-30.43,33.37-60.54,77.56-73,121.51a95.4,95.4,0,0,0-2.74,13.28c-4.18,30.8,5.29,65.45,19.62,94.12a145.56,145.56,0,0,1-20.49-8.32,154.53,154.53,0,0,1-16.41-9.23c-25.62-16.5-46.64-40.5-58.69-68.5a136.78,136.78,0,0,1-7-20.43c-.31-1.24-.63-2.47-.92-3.71a195.69,195.69,0,0,1-4.3-25.9,211.23,211.23,0,0,1-.45-34.21,4.7,4.7,0,0,1,1.94-3.48q6.89-5,14.06-10,7.75-5.47,15.85-11,14.13-9.72,29.22-19.67,17.34-11.45,35.8-23.07,21-13.24,43.19-26.53c25.45-15.24,50.38-29.49,74.35-42.57q8.78-4.78,17.36-9.36l.26-.13a54.21,54.21,0,0,1,55.38,2.71C1512.69,669.21,1513.58,669.8,1514.45,670.41Z" transform="translate(-837.54 -360.07)"/><path class="cls-21" d="M1485.63,802.55l-14,159.54a104.18,104.18,0,0,1-83.48,93.1,104.21,104.21,0,0,1-66.4-98.26,25.2,25.2,0,1,1-5.07-49.24,24.67,24.67,0,0,1,8.86,2.46l1.28-14.66a106.43,106.43,0,0,1,115.31-96.74h0Z" transform="translate(-837.54 -360.07)"/><path class="cls-36" d="M2018.28,1050.53,1999.6,1075l-53.39,69.92-20,26.17a9.23,9.23,0,0,1-12.92,1.74l-26.85-20.51-33-25.17a9.17,9.17,0,0,1-3.29-9.7,9,9,0,0,1,1.56-3.21l20.13-26.38L1897,1055l2.34-3,44.44-58.23A9.22,9.22,0,0,1,1956.7,992l35.66,27.23,8.14,6.22,16,12.23A9.2,9.2,0,0,1,2018.28,1050.53Z" transform="translate(-837.54 -360.07)"/><path class="cls-14" d="M1563.26,807.08l-24,51h0c-55.59,1.94-70-41.11-71.58-46.37l-.14-.53c-39.93,102-141.9,98.91-141.9,98.91L1313,887.93a95.4,95.4,0,0,1,2.74-13.28c12.46-43.95,42.57-88.14,73-121.51a306.61,306.61,0,0,1,53.32-46.28l78.32,43.06Z" transform="translate(-837.54 -360.07)"/><path class="cls-27" d="M1325.57,910.15s102,3.1,141.89-98.92L1448.72,779S1441,874.45,1325.57,910.15Z" transform="translate(-837.54 -360.07)"/><path class="cls-18" d="M1444.89,1000.42a13.81,13.81,0,0,1-13.81,13.81h-9.14a13.8,13.8,0,0,1-13.79-13.81h0V986.63h22.93A13.81,13.81,0,0,1,1444.89,1000.42Z" transform="translate(-837.54 -360.07)"/><path class="cls-6" d="M1441.21,990.14c-.85,3.17-4.32,5.54-8.47,5.54h-12.23c-4.8,0-8.69-3.15-8.69-7v-2h19.36A15.32,15.32,0,0,1,1441.21,990.14Z" transform="translate(-837.54 -360.07)"/><circle class="cls-18" cx="662.96" cy="561.3" r="10.17"/><circle class="cls-18" cx="572.71" cy="561.3" r="10.17"/><path class="cls-18" d="M1381.7,900.75h.36l51.89-4.49a4.12,4.12,0,1,0-.71-8.21l-51.89,4.49a4.12,4.12,0,0,0,.35,8.23Z" transform="translate(-837.54 -360.07)"/><path class="cls-18" d="M1524.42,904.07a4.12,4.12,0,0,0,.76-8.17l-38.47-7.34a4.12,4.12,0,0,0-1.54,8.1l38.47,7.33A4.13,4.13,0,0,0,1524.42,904.07Z" transform="translate(-837.54 -360.07)"/><path class="cls-18" d="M1508.33,926a1.39,1.39,0,0,0,1.24-.78,17.77,17.77,0,0,0,0-15.71,1.37,1.37,0,0,0-2.39,1.35,15,15,0,0,1,0,13.17,1.38,1.38,0,0,0,.64,1.84A1.48,1.48,0,0,0,1508.33,926Z" transform="translate(-837.54 -360.07)"/><path class="cls-34" d="M1658.77,1840.19a231.69,231.69,0,0,1-74.47,27c-74.23,13.09-152.27-9.21-214-52.43-38.43-26.89-70.92-61.33-97.69-100l5.61-108.42,8.78-170.07,4.47-86.47,129.13-162.15c-6.17,20.26-12.35,40.63-15.41,61.59-18.57,127.27,109,222.14,230.36,196.71,6.2,3.38,12.1,6.48,17.69,9.44l5.34,368.3Z" transform="translate(-837.54 -360.07)"/><path class="cls-18" d="M1418.39,924.37a1.37,1.37,0,0,0,1.36-1.15,17.76,17.76,0,0,0-4.46-15.07,1.39,1.39,0,1,0-1.92,2,15,15,0,0,1,3.67,12.66,1.36,1.36,0,0,0,1.11,1.57h.24Z" transform="translate(-837.54 -360.07)"/><path class="cls-6" d="M1641,1454.07l40.28,35.6a91.93,91.93,0,0,1,8,129.76l-91.78,103.84a91.9,91.9,0,0,1-129.73,8h0l-40.28-35.6a39.4,39.4,0,0,1-3.5-55.61l.06-.07,161.29-182.49a39.46,39.46,0,0,1,55.68-3.44Z" transform="translate(-837.54 -360.07)"/><path class="cls-33" d="M1625.23,1445.56a92,92,0,0,1-6.32,113.76l-91.78,103.84a92,92,0,0,1-107.85,22.4,39.45,39.45,0,0,1,4.78-45.56l161.29-182.49A39.41,39.41,0,0,1,1625.23,1445.56Z" transform="translate(-837.54 -360.07)"/><rect class="cls-16" x="1546.49" y="1586.15" width="58.73" height="46.15" rx="19.9" transform="translate(-1511.06 1364.28) rotate(-48.53)"/><path class="cls-21" d="M1705.21,1685.58l-.32.31c-22.84,21.27-48.62,26.42-74.61,20a121.9,121.9,0,0,1-33.59-14.46c-12.8-7.78-20-17-34.81-21.5-44.22-13.3-88.15-23.41-131.45-41.69l-134.6-56.84a143.11,143.11,0,0,1-80.68-175.22l38.23-115.4,11.13-33.61,26.31-79.44a69.35,69.35,0,0,1,87.62-44.06l.81.27a72.2,72.2,0,0,1,10.17,4.42c29.51,15.73,27.59,46.57,16.45,79.23l-19.49,57.09c-.48,1.37-.92,2.69-1.36,4-1,3-1.91,5.64-2.73,8.06l-40.68,143.06a30.72,30.72,0,0,0,2,23.87h0a33.66,33.66,0,0,0,2.35,3.79,30.79,30.79,0,0,0,12.1,9.91c2.5,1.14,5,2.3,7.52,3.46,50.39,23.36,101.87,49.8,152.83,73.74,7.26,3.4,14.5,7.31,21.79,11.41,29.24,16.46,59,36.17,91.49,39.87,38.09,4.33,90.86-15,104.83,30.29C1744.85,1643.18,1724.3,1667.74,1705.21,1685.58Z" transform="translate(-837.54 -360.07)"/><path class="cls-20" d="M1705.21,1685.58l-.32.31c-22.84,21.27-48.62,26.42-74.61,20-24.3-38-49.11-75.78-69.57-116-6.64-13.06-13.84-28-20.53-43.94,29.24,16.46,59,36.17,91.49,39.87,38.09,4.33,90.86-15,104.83,30.29C1744.85,1643.18,1724.3,1667.74,1705.21,1685.58Z" transform="translate(-837.54 -360.07)"/><path class="cls-20" d="M1385,1268.65c-1,3-1.91,5.64-2.73,8.06l-40.68,143.06a30.16,30.16,0,0,0-1.52,8.63c-10.77-40.88-31.85-79.6-54.16-115.21-8.27-13.21-18.29-27.28-32.55-32.41l11.13-33.61c8.34-6.84,19.23-11.42,31.34-14.19,25.74-5.9,53.52,3.07,73.8,20A112.7,112.7,0,0,1,1385,1268.65Z" transform="translate(-837.54 -360.07)"/><path class="cls-33" d="M1361.67,1108.42l19.47,6.21a64.13,64.13,0,0,1,41.6,80.6h0l-36.06,113a9.55,9.55,0,0,1-12,6.2h0L1251.22,1275a9.55,9.55,0,0,1-6.2-12h0l36.08-113a64.13,64.13,0,0,1,80.59-41.6h0Z" transform="translate(-837.54 -360.07)"/><path class="cls-32" d="M1335.51,648c-23.29,18.71-45.56,38.63-65.92,60.49-22.78,24.47-43.16,51.63-59.08,81a66.52,66.52,0,0,1,27.33-85.09Z" transform="translate(-837.54 -360.07)"/><path class="cls-37" d="M2000.53,1025.4a128.59,128.59,0,0,1-150.32,92,9,9,0,0,1,1.56-3.21l20.13-26.38,27.47-36,44.44-58.23a9.22,9.22,0,0,1,12.92-1.73Z" transform="translate(-837.54 -360.07)"/><path class="cls-38" d="M1992.39,1019.18a128,128,0,0,1-89.08,35.93q-3.16,0-6.28-.15l2.34-3,44.44-58.23a9.22,9.22,0,0,1,12.92-1.73Z" transform="translate(-837.54 -360.07)"/><path class="cls-33" d="M3166,2246.51c-21.93-70-16.1-145.52-11.89-218.94,2.28-39.69,4-79.42,4.27-119.18.16-25.69-.35-51.75-7.28-76.45-9.59-34.12-30.82-63.5-43.63-96.49s-15.29-74.85,8.93-100.2c23.92-25.06,65.67-23.32,94.78-4.94s48.17,49.39,64.63,80.15c13.4,25.06,26,51.32,29.6,79.67,3.29,25.65-.93,51.59-4.39,77.22a1325.23,1325.23,0,0,0-10.4,239.74c.79,16.49,1.66,34-6.21,48.41-11.07,20.26-35.33,27.63-54.12,40.57-24.8,17.08-41.21,46.37-43.13,77Z" transform="translate(-837.54 -360.07)"/><path class="cls-32" d="M3179,2224.41a149,149,0,0,1-42-81.93c-2.37-15-2.92-31.5-12.89-42.92-6.08-7-14.88-11-21.39-17.52-10.42-10.47-13.76-26.25-13.07-41s4.86-29.09,7.34-43.65a193.08,193.08,0,0,0-18.58-120c-17.68-34.27-45.67-63.19-58.21-99.66a130.51,130.51,0,0,1,.56-85.67c2.45-6.82,5.53-13.54,10.32-19,10.75-12.2,28.43-16,44.65-14.91,26.55,1.77,51.55,14.73,71.12,32.77s34.1,40.92,45.87,64.79c12.32,25,22,51.87,22.84,79.71.42,13.46-1.2,26.89-2.82,40.25q-5.65,46.5-11.29,93c-1.22,10-2.43,20.14-1,30.11,2.43,17.33,12.46,32.57,18,49.18a97.24,97.24,0,0,1,.4,59.42c-6.77,21.47-21,40.51-24.37,62.77-4,26.5,8,52.5,19.72,76.61Z" transform="translate(-837.54 -360.07)"/><path class="cls-34" d="M3199,2043.89c-6.62-45.4-47.89-85.82-39.68-130.72,4.11-22.46,20.27-41.19,26.16-63.26,11.7-43.79-18.6-87.78-25.32-132.83a123.6,123.6,0,0,1-1.22-13.59c13.65,15.6,24.57,33.61,33.76,52.25,12.32,25,22,51.87,22.84,79.71.42,13.46-1.2,26.89-2.82,40.25q-5.66,46.5-11.29,93c-1.22,10-2.43,20.14-1,30.11,2.43,17.33,12.46,32.57,18,49.18a97.24,97.24,0,0,1,.4,59.42c-6.77,21.47-21,40.51-24.37,62.77a75.25,75.25,0,0,0,0,21.3c-5,11.29-3,24.58,5.35,37.34l-1.53,7.83L3179,2224.41a147.15,147.15,0,0,1-15.15-17.64c-.26-.78-.57-1.55-.79-2.33-8.31-29.8,7.89-53.66,19.39-80" transform="translate(-837.54 -360.07)"/><path class="cls-32" d="M3204.39,2224.23c-10.63-21.39-5.71-42.27,16.4-52.56,68.63-31.94,91.69-67.58,100.94-91.05,10.74-27.26-.76-77.28-8.82-105.91-11.23-39.86,21.34-81.72,34.26-95.1,42-43.46,46.85-106.15,43.73-128.35-5.94-42.33-30.91-80.28-52.73-118-8.09-14-19.26-28.52-35.52-31.55-17.36-3.23-33.61,8-44.77,20.75a129.87,129.87,0,0,0-32.1,88.92c1.33,45.53,26.2,92.8,9.4,134.89-8.47,21.22-26.74,37.9-33.48,59.72-13.47,43.61,22.72,88.63,23.91,134.5.73,28.37-12.05,54.13-26,78-14.54,24.81-33.45,46.58-28.74,77.15,2.63,17.05,13,34,29.44,41.29Z" transform="translate(-837.54 -360.07)"/><path class="cls-6" d="M3320.53,2194.64v284.91a114.07,114.07,0,1,1-228.13,2.12c0-.71,0-1.41,0-2.12V2194.64a46.33,46.33,0,0,1,46.33-46.33H3274.2a46.28,46.28,0,0,1,46.33,46.25Z" transform="translate(-837.54 -360.07)"/><rect class="cls-39" x="2297.17" y="2222.36" width="143.5" height="18.85"/><rect class="cls-10" x="2297.17" y="2222.36" width="143.5" height="18.85"/><path class="cls-1" d="M3320.53,2194.64v284.91A114.08,114.08,0,0,1,3101,2523c55.63-36.93,103.41-83.95,136.22-142,38.92-68.85,53.82-146.92,60.18-226.47A46.33,46.33,0,0,1,3320.53,2194.64Z" transform="translate(-837.54 -360.07)"/></g></svg>